/* XPM */
static char *result[] = {
/* columns rows colors chars-per-pixel */
"240 80 12 1 ",
"  c #13F926",
". c #12F927",
"X c #13F927",
"o c #13FA26",
"O c #12FA27",
"+ c #13FA27",
"@ c #14F925",
"# c #14F926",
"$ c #14F927",
"% c #14FA26",
"& c #14FA27",
"* c None",
/* pixels */
"************************************************************************************************************************************************************************************************************************************************",
"************************************************************************************************************************************************************************************************************************************************",
"************************************************************************************************************************************************************************************************************************************************",
"************************************************************************************************************************************************************************************************************************************************",
"************************************************************************************************************************************************************************************************************************************************",
"************************************************************************************************************************************************************************************************************************************************",
"************************************************************************************************************************************************************************************************************************************************",
"************************************************************************************************************************************************************************************************************************************************",
"************************************************************************************************************************************************************************************************************************************************",
"************************************************************************************************************************************************************************************************************************************************",
"*******************%&&X*****&&&%*****o&&+$.*****************************************************************************************************************************************************************************************************",
"*******************&&&&*****&&&&***+&&&&&&&$****************************************************************************************************************************************************************************************************",
"*******************&&&&*****&&&&**o&&&&&&&&&%**************  %&&o*****%&&&&&&&&&&&+**+&o***** &&+**+&&&&&&+#*****+&&&&&&&&&&%**&&&+*****&&&%*%&&&&&&&&&&&+*****#+&oX+*****************++&+$.*****+&&&&&&&&&&%**+&&&&&&&&&&%*********************",
"*******************&&&&*****&&&&**&&&&&&&&&&&+************$&&&&&&&o***&&&&&&&&&&&&o*#&&&%**** &&&**&&&&&&&&&&+***&&&&&&&&&&&&**&&&&*****&&&&*&&&&&&&&&&&&o***+&&&&&&&+**************+&&&&&&&%***#&&&&&&&&&&&&**&&&&&&&&&&&&*********************",
"*******************&&&&*****&&&&*+&&&$***+&&&X***********%&&&&&&&&&&**&&&&&&&&&&&&o*#&&&%**** &&&**&&&&&&&&&&&***&&&&&&&&&&&&**&&&&%****&&&&*&&&&&&&&&&&&o***&&&&&&&&&o************#&&&&&&&&&%**#&&&&&&&&&&&&**&&&&&&&&&&&&*********************",
"*******************&&&&*****&&&&*o&&&*****&&&o**********%&&&&&&&&&&&**%&&&&&&&&&&&X*#&&&%**** &&&**&&&&&&&&&&&&**&&&&&&&&&&&&**&&&&%****&&&&*%&&&&&&&&&&&X**%&&&&&&&&&&o***********&&&&&&&&&&&o*#&&&&&&&&&&&o**o&&&&&&&&&&&*********************",
"*******************&&&&*****&&&&*&&&&*****&&&&**********#&&&%***X&&&o*****o&&& *****#&&&%**** &&&**&&&o****o&&&**&&&o**********&&&&&****&&&&*****o&&& ******&&&o***+&&&&**********+&&&%***%&&& *#&&&#**************&&&& ************************",
"*******************&&&&*****&&&&*#&&&*****&&&&**********+&&&*****&&&&******&&& *****#&&&%**** &&&**&&&%****#&&&**&&&%**********&&&&& ***&&&&******&&& ******&&&#****o&&&**********X&&&*****&&&o*#&&&%**************&&&&*************************",
"*******************&&&&*****&&&&**********&&&&**********&&&&*****&&&&******&&& *****#&&&%**** &&&**&&&%****+&&&X*&&&%**********&&&&&+***&&&&******&&& *****#&&&%**** &&&**********&&&&*****&&&&*#&&&%**************&&&&*************************",
"*******************&&&&*****&&&&**********&&&&**********&&&&*****&&&#******&&& *****#&&&%**** &&&**&&&%****+&&&X*&&&%**********&&&&&&***&&&&******&&& *****#&&&%**** &&&**********&&&&*****o&&&*#&&&%**************&&&&*************************",
"*******************&&&&*****&&&&**********&&&o**********o&&&***************&&& *****#&&&%**** &&&**&&&%****+&&&X*&&&%**********&&&&&& **&&&&******&&& ******&&& ******************&&&&**********#&&&%**************&&&&*************************",
"*******************&&&&*****&&&&*********+&&&%**********X&&&+**************&&& *****#&&&%**** &&&**&&&%****+&&&X*&&&%**********&&&&&&&**&&&&******&&& ******&&&&******************&&&&**********#&&&+**************&&&&*************************",
"*******************&&&&*****&&&&*****++&&&&&&o**********o&&&&&&&o**********&&& *****#&&&%**** &&&**&&&%****+&&&X*&&&&&& *******&&&&&&&%*&&&&******&&& ******o&&&&&o +*************&&&&***&&&&&&*#&&&&&& ***********&&&&*************************",
"*******************&&&&*****&&&&***X&&&&&&&&%************%&&&&&&&&o********&&& *****#&&&%**** &&&**&&&%****+&&&X*&&&&&&&*******&&&&&&&&+&&&&******&&& ******o&&&&&&&&%************&&&&***&&&&&&*#&&&&&& ***********&&&&*************************",
"*******************&&&&*****&&&&**X&&&&&&&&%**************%&&&&&&&&%*******&&& *****#&&&%**** &&&**&&&%****+&&&X*&&&&&&&*******&&&&&&&&&&&&&******&&& *******%&&&&&&&&%***********&&&&***&&&&&&*#&&&&&& ***********&&&&*************************",
"*******************&&&&*****&&&&**&&&&&&&+#****************X+&&&&&&&*******&&& *****#&&&%**** &&&**&&&%****+&&&X*&&&&&&+*******&&&&%&&&&&&&&******&&& *********X&&&&&&&o**********&&&&***&&&&&&*#&&&&&&+***********&&&&*************************",
"*******************o&&&*****&&&&*o&&&%**************************+&&&o******&&& *****#&&&%**** &&&**&&&%****+&&&X*&&&o**********&&&&*&&&&&&&&******&&& *************+&&&o**********&&&&*****&&&&*#&&&X**************&&&&*************************",
"******************* &&&%***o&&&&*#&&&****************************&&&X******&&& *****#&&&%**** &&&**&&&%****+&&&X*&&&%**********&&&&*o&&&&&&&******&&& **************&&&&**********&&&&*****&&&&*#&&&%**************&&&&*************************",
"*******************%&&&&&&&&&&&&*&&&&*******************&&&#*****&&&&******&&& *****#&&&%**** &&&**&&&%****+&&&X*&&&%**********&&&&**&&&&&&&******&&& ******+&+***** &&&**********&&&&*****&&&&*#&&&%**************&&&&*************************",
"********************&&&&&&&&&&&&*&&&&*******************&&&&*****&&&&******&&& *****#&&&%**** &&&**&&&%****+&&&X*&&&%**********&&&&**o&&&&&&******&&& *****#&&&%**** &&&**********&&&&*****&&&&*#&&&%**************&&&&*************************",
"*********************%&&&&&&&&&&*&&&&*****#%%o**********&&&&*****&&&&******&&& *****#&&&%**** &&&**&&&%****+&&&X*&&&%**********&&&&***&&&&&&******&&& *****#&&&%**** &&&**********&&&&*****&&&&*#&&&%**************&&&&*************************",
"**********************#+&&&&&&&&*&&&&*****&&&&**********&&&&*****&&&X******&&& ******&&&X****+&&&**&&&%****#&&&**&&&%**********&&&&***%&&&&&******&&& ******&&&+****&&&&**********X&&&*****&&&%*#&&&%**************&&&&*************************",
"***************************X&&&&*&&&&*****&&&&**********&&&&&***+&&&o******&&& ******&&&o***%&&&&**&&&o****o&&&**&&&o**********&&&&***%&&&&&******&&& ******&&&o***o&&&o**********+&&&%***&&&&+*#&&&X**************&&&&*************************",
"****************************&&&&*&&&&*****&&&&***********&&&&&&&&&&&*******&&& ******&&&&&&&&&&&o**&&&&&&&&&&&&**&&&&&&&&&&&&**&&&&****&&&&&******&&& ******+&&&&&&&&&&o***********&&&&&&&&&&&**#&&&&&&&&&&&o******&&&&*************************",
"****************************&&&&*&&&&X****&&&&***********$&&&&&&&&&$*******&&& *******&&&&&&&&&+***&&&&&&&&&&&***&&&&&&&&&&&&**&&&&****X&&&&******&&& *******&&&&&&&&&%************X&&&&&&&&&#**#&&&&&&&&&&&&******&&&&*************************",
"****************************&&&&*&&&&&&&&&&&&&************#&&&&&&&o********&&& *******%&&&&&&&%****&&&&&&&&&&+***&&&&&&&&&&&&**&&&&****+&&&&******&&& *******X&&&&&&&%**************&&&&&&&&X***#&&&&&&&&&&&&******&&&&*************************",
"****************************&&&&*&&&&&&&&&&&&&*************# %&&o**********+&&**********#+&oXo*****o&&&&&&+$*****o&&&&&&&&&&+**&&&X*****+&&+******+&&**********X+&o +*****************o&&+ X*****+&&&&&&&&&&+******%&&%*************************",
"****************************&&&&*&&&&&&&&&&&&&**************************************************************************************************************************************************************************************************",
"****************************&&&+*%&&&&&&&&&&&&**************************************************************************************************************************************************************************************************",
"************************************************************************************************************************************************************************************************************************************************",
"************************************************************************************************************************************************************************************************************************************************",
"************************************************************************************************************************************************************************************************************************************************",
"************************************************************************************************************************************************************************************************************************************************",
"************************************************************************************************************************************************************************************************************************************************",
"************************************************************************************************************************************************************************************************************************************************",
"****************************************&&&&&&&&&&&&%**********************************************************************************************************************************************+&o******************************************",
"****************************************&&&&&&&&&&&&&*********************************************************************************************************************************************#&&&X*****************************************",
"****************************************&&&&&&&&&&&&&**********&&&%*********o&o*****X %&&o*****%&&&&&&% X****%&&&&&&&&&&&+**********%&&&**********%&&&**&&&+*****&&&%*%&&&&&&&&&&&+*****o&&+$.****#&&&X*****************************************",
"****************************************&&&&&&&&&&&&&**********&&&&********+&&&o***X&&&&&&&&***&&&&&&&&&&X***&&&&&&&&&&&&o**********&&&&**********&&&&**&&&&*****&&&&*&&&&&&&&&&&&o***+&&&&&&&%***#&&&X*****************************************",
"****************************************&&&&#***X&&&&**********&&&&********%&&&o**X&&&&&&&&&#**&&&&&&&&&&&#**&&&&&&&&&&&&o**********&&&&**********&&&&**&&&&%****&&&&*&&&&&&&&&&&&o**+&&&&&&&&&%**#&&&X*****************************************",
"****************************************&&&&*****&&&&**********&&&&#*******&&&&o*X&&&&&&&&&&&**&&&&&&&&&&&&**&&&&&&&&&&&&X**********&&&&**********&&&&**&&&&%****&&&&*&&&&&&&&&&&&X**&&&&&&&&&&&o*#&&&X*****************************************",
"****************************************&&&&*****&&&&**********&&&&&*******&&&&o* &&&o***%&&&%*&&&&#***o&&&o*&&&& ******************&&&&**********&&&&**&&&&&****&&&&*&&&& *********+&&&X***%&&& *#&&&X*****************************************",
"****************************************&&&&*****&&&%**********&&&&&******%&&&&o*%&&&*****&&&o*&&&&*****&&&+*&&&&*******************&&&&**********&&&&**&&&&& ***&&&&*&&&&**********o&&&*****&&&o*#&&&X*****************************************",
"****************************************&&&&*****%+o***********&&&&& *****+&&&&o*&&&&*****&&&&*&&&&*****&&&&*&&&&*******************&&&&**********&&&&**&&&&&+***&&&&*&&&&**********&&&&*****&&&&*#&&&X*****************************************",
"****************************************&&&&*******************&&&&&%*****&&&&&o*&&&&*****&&&&*&&&&*****&&&&*&&&&*******************&&&&**********&&&&**&&&&&&***&&&&*&&&&**********&&&&*****o&&&*#&&&X*****************************************",
"****************************************&&&&&&&&+o*************&&&&&&**** &&&&&o*&&&&*****&&&&*&&&&*****&&&&*&&&&*******************&&&&**********&&&&**&&&&&& **&&&&*&&&&**********o&&&**********#&&&X*****************************************",
"****************************************&&&&&&&&&&#************&&&&&&****o&&&&&o*&&&&*****&&&&*&&&&*****&&&&*&&&&o******************&&&&**********&&&&**&&&&&&&**&&&&*&&&&o*********+&&&+*********#&&&X*****************************************",
"****************************************&&&&&&&&&&&+***********&&&&&&o***&&&&&&o*&&&&*****&&&&*&&&&*****&&&&*&&&&&&o****************&&&&**********&&&&**&&&&&&&%*&&&&*&&&&&&o********&&&&&&% X****#&&&X*****************************************",
"****************************************&&&&&&&&&&&&***********&&&&&&+***&&&&&&o*&&&&*****&&&&*&&&&*****&&&%*&&&&&&&+***************&&&&**********&&&&**&&&&&&&&+&&&&*&&&&&&&+*******$&&&&&&&&X***#&&&X*****************************************",
"************************************************ &&&+**********&&&&&&&**o&&&&&&o*&&&&*****&&&&*&&&&#***o&&&%*&&&&&&&+***************&&&&**********&&&&**&&&&&&&&&&&&&*&&&&&&&+******** &&&&&&&&#***&&&%*****************************************",
"*************************************************&&&&**********&&&&&&& *o&&&&&&o*%&&&*****&&&o*&&&&&&&&&&&&**&&&&&&&.***************&&&&**********&&&&**&&&&%&&&&&&&&*&&&&&&&.*********%&&&&&&&&***&&&o*****************************************",
"*************************************************&&&&**********&&&&&&&&*&&&&&&&o*o&&&o***%&&&+*&&&&&&&&&&&#**&&&&#******************&&&&**********&&&&**&&&&*&&&&&&&&*&&&&#*****************%&&&+**&&&******************************************",
"*************************************************&&&&**********&&&&&&&&+&&&&&&&o**&&&&&&&&&&&**&&&&&&&&&&X***&&&&*******************&&&&**********&&&&**&&&&*o&&&&&&&*&&&&*******************&&&%**&&&******************************************",
"*************************************************&&&&**********&&&&X&&&&&&&X&&&o**#&&&&&&&&& **&&&&&&&&&&%***&&&&*******************&&&&**********&&&&**&&&&**&&&&&&&*&&&&**********@&&+*****&&&&**&&&******************************************",
"*************************************************&&&&**********&&&&+&&&&&&+%&&&o***X&&&&&&&o***&&&&O**&&&& **&&&&*******************&&&&**********&&&&**&&&&**o&&&&&&*&&&&**********&&&&*****&&&&**o&&******************************************",
"*****************************************%%******&&&&**********&&&&*&&&&&&o%&&&o****@ %&&o*****&&&&***o&&&%**&&&&*******************&&&&**********&&&&**&&&&***&&&&&&*&&&&**********&&&&*****&&&&**%&&******************************************",
"****************************************+&&&*****&&&&**********&&&&*#&&&&&*%&&&o***************&&&&****+&&&**&&&&*******************&&&&**********&&&&**&&&&***%&&&&&*&&&&**********#&&&*****&&&%**%&+******************************************",
"****************************************&&&&*****&&&&**********&&&&*+&&&&&*%&&&o***************&&&&****X&&&X*&&&&#******************&&&&X*********&&&&**&&&&***%&&&&&*&&&&#*********%&&&+***&&&&+***%*******************************************",
"****************************************+&&&*****&&&o**********&&&&**&&&&+*%&&&o*X&&&&&&&&&&&**&&&&*****&&&X*&&&&&&&&&&&& **********&&&&&&&&&&&& *&&&&**&&&&****&&&&&*&&&&&&&&&&&& **&&&&&&&&&&&************************************************",
"****************************************X&&&o***%&&&%**********&&&&**&&&&#*%&&&o*&&&&&&&&&&&& *&&&&*****&&& *&&&&&&&&&&&&o**********&&&&&&&&&&&&o*&&&&**&&&&****X&&&&*&&&&&&&&&&&&o**+&&&&&&&&&#************************************************",
"**************************************** &&&&&&&&&&&***********&&&&**o&&& *%&&&o*&&&&&&&&&&&& *&&&&*****&&&+*&&&&&&&&&&&&o**********&&&&&&&&&&&&o*&&&&**&&&&****+&&&&*&&&&&&&&&&&&o***$&&&&&&&X****&&&+*****************************************",
"***************************************** &&&&&&&&&#***********&&&X**%&&%***o&o**+&&&&&&&&&&+**%&&%*****X&&+*%&&&&&&&&&&&o**********%&&&&&&&&&&&o*%&&%**&&&X*****+&&+*%&&&&&&&&&&&o*****+&&+ X****#&&&X*****************************************",
"****************************************** &&&&&&&%***********************************************************************************************************************************************#&&&X*****************************************",
"*******************************************X %&&o**************************************************************************************************************************************************+&o******************************************",
"************************************************************************************************************************************************************************************************************************************************",
"************************************************************************************************************************************************************************************************************************************************",
"************************************************************************************************************************************************************************************************************************************************",
"************************************************************************************************************************************************************************************************************************************************",
"************************************************************************************************************************************************************************************************************************************************",
"************************************************************************************************************************************************************************************************************************************************"
};
