/* XPM */
static char *result[] = {
/* columns rows colors chars-per-pixel */
"240 80 13 1 ",
"  c #2312F9",
". c #2213F9",
"X c #2313F9",
"o c #2113FA",
"O c #2212FA",
"+ c #2213FA",
"@ c #2313FA",
"# c #2114F9",
"$ c #2214F9",
"% c #2314F9",
"& c #2214FA",
"* c #2314FA",
"= c None",
/* pixels */
"================================================================================================================================================================================================================================================",
"================================================================================================================================================================================================================================================",
"================================================================================================================================================================================================================================================",
"================================================================================================================================================================================================================================================",
"================================================================================================================================================================================================================================================",
"================================================================================================================================================================================================================================================",
"================================================================================================================================================================================================================================================",
"================================================================================================================================================================================================================================================",
"================================================================================================================================================================================================================================================",
"================================================================================================================================================================================================================================================",
"================================================================================================================================================================================================================================================",
"================================================================================================================================================================================================================================================",
"================================================================================================================================================================================================================================================",
"================================================================================================================================================================================================================================================",
"================================================================================================================================================================================================================================================",
"================================================================================================================================================================================================================================================",
"================================================================================================================================================================================================================================================",
"================================================================================================================================================================================================================================================",
"============================**@*++@=====***@**X=====+******@====$+****&+====+*+***+$$=========$+****&+====&*@**@&*=====+*****X======*****@@&=====*****+.*=========&+**+@*@.=====*****+.*====.+****@&=====***@***O===============================",
"============================**+***+@+===*&++****+===.****@+**.==&++***+**&==%*++**+**&========&++***+**&==**+***+@*@===****+***%====******+**====&***+***.========&**+*@***+$===&***+***.===X****+***.===**&@****X==============================",
"============================**+@+&*+@+==*+*++****+==@++**++***==@**+***++*==X**+***++*%=======@**+***++*==&*+**&+*&*&==***+@+@**@===@*+**%+*@&===@*+**++**+=======**++++*****===@*+**++**+==X***@++@@*.==**+++****X=============================",
"=============================**+===.++&==*@*==.**+===&++===X**+==@@+===***@==+**&==&***========@@+===***@==X** ===+**===**$===@&*===.+&%===+*&&===+@@===.**========X++.===+***===+@@===.**===.**.==@+*@===++X==.@**=============================",
"=============================**@====@++==***===&**===++*====++*=*+*+====+**==+*@====%**=======*+*+====+**==**+====X+@===**$===.*+.==@**=====@**===*+$====+*+========+&*====.@*===*+$====+*+==&**+===@*+===&*&===X**+============================",
"=============================**@====*+X==*++===$*&===&**========**+=====&@+=$*+*====*@+=======**+=====&@+==.*+.====+*===&*%====**&==***=====$**===**%===============&@$====***===**%=========+&**===X**X==*+.====*&.============================",
"=============================***====@&@==***===++*===+**========+@+==========@+&==============+@+==========$***===@@@===**.====&@+==**+=====&@&===**X===============*+&====.**===**X=========***@====*@===**&====++@============================",
"=============================*++===*@++==+@%===**@===@+*========+@*#=========++&==============+@*#=========&+*&===+@*===+*$====*+&==*+*===========++%===============+++====.**===++%=========@+**====&&X==&*&===.++=============================",
"============================+@+++@++@*=&+&&@&&@**+==@********====+**=========***+==============+**========$+@+*@*+@+.==***&&++o++%==**+==========+***@***.==========+@&====+**==+***@***.===+***@X+$*++==+*@+&**+*@=============================",
"============================*++@*+*+@==#@++@+@*++===@@+******====X**+@*@@$===@**+@*+@+=========X**+@*@@$==.+*@**+++@==X**@*+***+*.==***==========*@+******==========+*X====+**==*@+******===@*+@++*+*&*==@++@+*+++==============================",
"============================*&+****&====+&**++&++ ==**++*+***=====+@&&+@@+$====+&&+@+@*=========+@&&+@@+$=+&+****&+===#**+***+&++$==+**==========**+**+**.==========@&@====X+*==**+**+**.===&*++**++&@*==+@@&++@&+@=============================",
"=============================**+=========+*&== **+===.++*===============@**=========X@+===============@**==.**+=========**$===***+==***===========*@@===============+@.====.**===*@@=========X**@==@+** ==++@===&**=============================",
"=============================***=========+*X===X**===@*&================@@&=========.@&===============@@&==%**X=========@*.===.&*+==***===========*+&===============++&====&**===*+&=========&@*+===@&* ==+*&====+*&============================",
"=============================*+*=========+*+====**===&@*=====XX==+@=====&@+==++=====X@+#=======+@=====&@+==X*@==========**X====++&==***=====+++===@+$====XX=========&@%====+**===@+$====XX===&*++=== ++$==@*+====**%============================",
"=============================*+@=========***====**===+++====+*+==***====+**==**X====$**========***====+**==%+*==========*+%====*@&==@**=====**@===@+@====*+$========@*.====@**===@+@====*+$==++++===X*@#==**+====**+============================",
"=============================**@=========**%====**===.**$==&*@X==***===X**&==+**&===***========***===X**&==.*@X=========++.====**+==+**+===X**+===&+*===&++=========+*.====@**===&+*===&++===++++===.** ==**&====**+============================",
"=============================**@=========**%====+*==$*********===+@*+*****====@**+****@========+@*+*****===%**==========**$====**.===+*******+===*********X=========*++====***==*********X===&**+===***O==**&====*@X============================",
"=============================**&=========***====+*==.**+**+**&====$****@+@====$*****&+==========$****@+@===&**==========@*X====*@+====+*****@====***+**+*.==========@*+====+**==***+**+*.====X@*+===&*@ ==**+====*+.============================",
"=============================**@=========**+====&*==$**+*@$.========**&$========+*@+==============**&$=====.*+$=========**@====+*&=====.*++&=====**+**@&============@+%====@**==**+**@&======+**+===$**+==***====&+&============================",
"================================================================================================================================================================================================================================================",
"================================================================================================================================================================================================================================================",
"================================================================================================================================================================================================================================================",
"================================================================================================================================================================================================================================================",
"================================================================================================================================================================================================================================================",
"================================================================================================================================================================================================================================================",
"================================================================================================================================================================================================================================================",
"================================================================================================================================================================================================================================================",
"================================================================================================================================================================================================================================================",
"============================================================================*+****$+====+*******=====+******&=====***@**X=====+******@====***@++@++*=+*+***+$$==================================================================================",
"============================================================================*++***+*+===+***+***&====******+**+===*&++****+===.****@+**.==++****+*++=%*++**+**&=================================================================================",
"============================================================================**++**++*$==@++**++**&===$*+**X&*@*===*+*++****+==@++**++***==&+&+*@+@&&=X**+***++*%================================================================================",
"============================================================================$*++===+**===%@*===%**@===*&&===+*+%===*@*==.**+===&++===X**+====$*@&=====+**&==&***================================================================================",
"============================================================================+*@====+**$==$+*====@*X==$***====***===***===&**===++*====++*=====++@=====+*@====%**================================================================================",
"============================================================================**$=====@@*==$**=========&**=====+**===*++===$*&===&**============++.====$*+*====*@+================================================================================",
"============================================================================*@*==========X**=========&*+======@@===***===++*===+**============**======@+&=======================================================================================",
"============================================================================++*==========&**=========&+*===========+@%===**@===@+*============*@&=====++&=======================================================================================",
"============================================================================$**&========@***+****====@*+=========&+&&@&&@**+==@********=======*+*=====***+======================================================================================",
"=============================================================================**+++++&===*@+******====+**=========#@++@+@*++===@@+******=======++.=====@**+@*+@+=================================================================================",
"==============================================================================$*&+@+@&==+*+**+**@====&+*==========+&**++&++ ==**++*+***=======++*=======+&&+@+@*================================================================================",
"===================================================================================&@+.==&@+=========.**===========+*&== **+===.++*===========+@&============X@+================================================================================",
"====================================================================================+&%==.@@=========X**===========+*X===X**===@*&============*@+============.@&================================================================================",
"============================================================================&+.=====+@&==*@*====$XX==&**=====+++===+*+====**===&@*=====XX=====**+=====++=====X@+#===============================================================================",
"============================================================================&**=====**X==@+*====***==+**@====&**===***====**===+++====+*+=====**O=====**X====$**================================================================================",
"============================================================================$**&===***===***===.*@.===***===&**@===**%====**===.**$==&*@X=====**+=====+**&===***================================================================================",
"=============================================================================@**++***.==@********+====@******** ===**%====+*==$*********======**&======@**+****@=*+@============================================================================",
"==============================================================================@****&+===***+**+*&======+******&====***====+*==.**+**+**&======**O======$*****&+==&*+============================================================================",
"===============================================================================+X@$&====@*+**&%+========@@+*$======**+====&*==$**+*@$.========***========+*@+====@&X============================================================================",
"================================================================================================================================================================================================================================================",
"================================================================================================================================================================================================================================================",
"================================================================================================================================================================================================================================================",
"================================================================================================================================================================================================================================================",
"================================================================================================================================================================================================================================================",
"================================================================================================================================================================================================================================================",
"================================================================================================================================================================================================================================================",
"================================================================================================================================================================================================================================================",
"================================================================================================================================================================================================================================================",
"================================================================================================================================================================================================================================================",
"================================================================================================================================================================================================================================================",
"================================================================================================================================================================================================================================================",
"================================================================================================================================================================================================================================================",
"================================================================================================================================================================================================================================================",
"================================================================================================================================================================================================================================================"
};
