/* XPM */
static char *result[] = {
/* columns rows colors chars-per-pixel */
"50 62 154 2 ",
"   c #7D6C6C",
".  c #7E7373",
"X  c #7E7D7D",
"o  c #BD1D1D",
"O  c #9A3737",
"+  c #9C3E3E",
"@  c #AD2727",
"#  c #A62F2F",
"$  c #AD2929",
"%  c #B42323",
"&  c #B82121",
"*  c #A33535",
"=  c #A93232",
"-  c #A03939",
";  c #C61919",
":  c #CA1D1D",
">  c #CB2222",
",  c #CB2C2C",
"<  c #D22525",
"1  c #D52828",
"2  c #DE2D2D",
"3  c #CD3333",
"4  c #C63A3A",
"5  c #CF3D3D",
"6  c #D83737",
"7  c #D03939",
"8  c #E12D2D",
"9  c #E43131",
"0  c #ED3333",
"q  c #ED3D3D",
"w  c #F13535",
"e  c #F23A3A",
"r  c #964242",
"t  c #9A4141",
"y  c #944B4B",
"u  c #8D5353",
"i  c #855858",
"p  c #8C5E5E",
"a  c #955454",
"s  c #9B5656",
"d  c #AA4040",
"f  c #B94141",
"g  c #856565",
"h  c #8B6161",
"j  c #826B6B",
"k  c #9C6060",
"l  c #807070",
"z  c #807F7F",
"x  c #8A7B7B",
"c  c #997171",
"v  c #A86666",
"b  c #B76A6A",
"n  c #BF6F6F",
"m  c #BE7272",
"M  c #B27E7E",
"N  c #BB7B7B",
"B  c #D04343",
"V  c #D84444",
"C  c #D34C4C",
"Z  c #DE4E4E",
"A  c #C55B5B",
"S  c #D45454",
"D  c #DC5252",
"F  c #D55C5C",
"G  c #E74545",
"H  c #EA4545",
"J  c #E44A4A",
"K  c #E84C4C",
"L  c #F54545",
"P  c #F94646",
"I  c #F34949",
"U  c #F94B4B",
"Y  c #E75C5C",
"T  c #E85B5B",
"R  c #F45353",
"E  c #FF5555",
"W  c #F75A5A",
"Q  c #FB5A5A",
"!  c #CF6161",
"~  c #C26E6E",
"^  c #CA6969",
"/  c #D16161",
"(  c #DC6C6C",
")  c #DC7373",
"_  c #DF7C7C",
"`  c #E56464",
"'  c #EA6060",
"]  c #E46969",
"[  c #F56565",
"{  c #FA6060",
"}  c #F56D6D",
"|  c #E37272",
" . c #EF7777",
".. c #E07F7F",
"X. c #EC7B7B",
"o. c #F37474",
"O. c #F67A7A",
"+. c #828282",
"@. c #8C8C8C",
"#. c #988787",
"$. c #948D8D",
"%. c #9F8A8A",
"&. c gray58",
"*. c #999595",
"=. c #9A9A9A",
"-. c #A28484",
";. c #AE8383",
":. c #A28A8A",
">. c gray64",
",. c #ACACAC",
"<. c #B2B2B2",
"1. c #BBB7B7",
"2. c #BCBCBC",
"3. c #DF8080",
"4. c #D38E8E",
"5. c #DB8D8D",
"6. c #DB9292",
"7. c #D79C9C",
"8. c #D89C9C",
"9. c #E18484",
"0. c #EB8080",
"q. c #E48E8E",
"w. c #E98989",
"e. c #F68282",
"r. c #F78C8C",
"t. c #E59191",
"y. c #EC9F9F",
"u. c #F79999",
"i. c #F99D9D",
"p. c #C9A3A3",
"a. c #D7A5A5",
"s. c #DBA6A6",
"d. c #DAACAC",
"f. c #C2B4B4",
"g. c #CAB0B0",
"h. c #D7B3B3",
"j. c #D3BCBC",
"k. c #E7A0A0",
"l. c #E9A4A4",
"z. c #EBACAC",
"x. c #F8A2A2",
"c. c #F8AAAA",
"v. c #ECB1B1",
"b. c #EFBDBD",
"n. c #F4B1B1",
"m. c #F1BEBE",
"M. c #FABBBB",
"N. c #C4C4C4",
"B. c #CDC5C5",
"V. c #CCCCCC",
"C. c #F3C2C2",
"Z. c #FAC5C5",
"A. c #FBC8C8",
"S. c None",
/* pixels */
"S.S.S.S.S.S.S.S.S.S.S.S.S.S.S.S.S.S.S.S.S.S.S.S.S.S.S.S.S.S.S.S.S.S.S.S.S.S.S.S.S.S.S.S.S.S.S.S.S.S.",
"S.S.S.S.S.S.S.S.S.S.S.S.S.S.S.S.S.S.S.S.S.S.S.S.S.S.S.S.S.S.S.S.S.S.S.S.S.S.S.S.S.S.S.S.S.S.S.S.S.S.",
"S.S.S.S.S.S.S.S.S.S.S.S.S.S.S.S.S.S.S.S.S.S.S.S.S.S.S.S.S.S.S.S.S.S.S.S.S.S.S.S.S.S.S.S.S.S.S.S.S.S.",
"S.S.S.S.w w S.S.S.S.S.S.S.S.S.S.S.S.S.S.S.S.S.S.S.S.S.S.S.S.S.S.S.S.S.S.S.S.S.S.S.S.S.S.S.S.S.S.S.S.",
"S.S.S.S.w w S.S.S.S.S.S.S.S.S.S.S.S.S.S.S.S.S.S.S.S.S.S.S.S.S.S.S.S.S.S.S.S.S.S.S.S.S.S.S.S.S.S.S.S.",
"S.S.S.S.S.S.S.S.S.S.S.S.S.S.S.S.S.S.S.S.S.S.S.S.S.S.S.S.S.S.S.S.S.S.S.S.S.S.S.S.S.S.S.S.S.S.S.S.S.S.",
"S.S.S.S.S.S.S.S.S.S.S.S.S.S.S.S.S.S.S.S.S.S.S.S.S.S.S.S.S.S.S.S.S.S.S.w w S.S.S.S.S.S.S.S.S.S.S.S.S.",
"S.S.S.S.S.S.S.S.S.S.S.S.S.S.S.S.S.S.S.S.S.S.S.S.S.S.S.S.S.S.S.S.S.S.w w w w S.S.S.S.S.S.S.S.S.S.S.S.",
"S.S.S.S.S.S.S.S.S.S.S.S.S.S.S.S.S.S.S.S.S.S.S.S.S.S.S.S.S.S.S.S.S.w w w w w w S.S.S.S.S.S.S.S.S.S.S.",
"S.S.S.S.S.S.S.S.S.S.S.S.S.S.S.S.S.S.S.S.S.S.S.S.S.S.S.S.S.S.S.S.S.w w 0 w 0 w S.S.S.S.S.S.S.S.S.S.S.",
"S.S.S.S.S.S.S.S.S.S.S.S.S.S.S.S.S.S.S.S.S.S.S.S.S.S.S.S.S.S.S.S.S.S.w w w w S.S.S.S.S.S.S.S.S.S.S.S.",
"S.S.S.S.S.S.S.S.S.S.S.S.S.S.S.S.S.S.S.S.S.S.S.S.S.S.S.S.S.S.S.S.S.S.S.S.S.S.S.S.S.S.S.S.S.S.S.S.S.S.",
"S.S.S.S.S.S.S.S.S.S.S.S.S.S.S.S.S.S.S.S.S.S.S.S.S.S.S.S.S.S.S.S.S.S.S.S.S.S.S.S.S.S.S.S.S.S.S.S.S.S.",
"S.S.S.S.S.S.S.S.S.S.S.S.S.S.S.S.S.S.S.S.S.S.S.S.S.S.S.S.S.S.S.S.S.S.S.S.S.S.S.S.S.S.S.S.S.S.S.S.S.S.",
"S.S.S.S.S.S.S.S.S.S.S.S.S.S.S.S.S.S.S.S.S.S.S.S.S.S.S.S.S.S.S.S.S.S.S.S.S.S.S.S.S.S.S.S.S.S.S.S.S.S.",
"S.S.S.S.S.S.S.S.S.S.S.S.S.S.S.S.+.z @.@.@.@.@.@.@.@.@.@.@.@.@.@.@.+.S.S.S.S.S.S.S.S.S.S.S.S.S.S.S.S.",
"S.S.S.S.S.S.S.S.S.S.S.S.S.S.+.@.@.&.=.=.>.,.,.,.<.<.,.,.,.>.>.=.&.@.@.z S.S.S.S.S.S.S.S.S.S.S.S.S.S.",
"S.S.S.S.S.S.S.S.S.S.S.S.S.+.@.&.,.1.2.2.N.N.N.V.V.N.V.N.N.N.2.2.1.<.&.&.+.S.S.S.S.S.S.S.S.S.S.S.S.S.",
"S.S.S.S.S.S.S.S.S.S.S.S.S.@.&.=.,.<.2.2.2.V.V.V.V.V.V.V.V.2.2.1.<.,.=.=.&.S.S.S.S.S.S.S.S.S.S.S.S.S.",
"S.S.S.S.S.S.S.S.S.S.S.S.S.@.&.=.&.=.>.>.,.,.,.,.,.<.,.,.,.>.>.>.=.=.=.&.@.S.S.S.S.S.S.S.S.S.S.S.S.S.",
"S.S.S.S.S.S.S.S.S.S.S.S.S.S.&.>.>.=.=.=.=.=.=.=.=.=.=.=.=.=.&.=.=.>.>.&.+.S.S.S.S.S.S.S.S.S.S.S.S.S.",
"S.S.S.S.S.S.S.S.S.S.S.S.S.S.@.>.1.<.<.<.,.>.>.,.>.>.>.>.,.,.<.<.<.1.=.@.S.S.S.S.S.S.S.S.S.S.S.S.S.S.",
"S.S.S.S.S.S.S.S.S.S.S.S.S.S.+.&.2.V.V.a.4.4.p.2.2.2.2.N.N.V.V.V.V.N.&.+.S.S.S.S.S.S.S.S.S.S.S.S.S.S.",
"S.S.S.S.S.S.S.S.S.S.S.S.S.S.S.@.<.V.7.| ` ` | a.V.V.V.V.V.V.V.V.V.<.@.S.S.S.S.S.S.S.S.S.S.S.S.S.S.S.",
"S.S.S.S.S.S.S.S.S.S.S.S.S.S.S.@.>.B.] T T Y Y ] V.V.V.V.V.V.V.V.V.=.@.S.S.S.S.S.S.S.S.S.S.S.S.S.S.S.",
"S.S.S.S.S.S.S.S.S.S.S.S.S.S.S.+.*.g.Y T T Y Y T V.V.V.V.V.V.V.V.V.&.X S.S.S.S.S.S.S.S.S.S.S.S.S.S.S.",
"S.S.S.S.S.S.S.S.S.S.S.S.S.S.S.S.&.f.` T T T T ] V.V.V.V.V.V.V.V.2.&.S.S.S.S.S.S.S.S.S.S.S.S.S.S.S.S.",
"S.S.S.S.S.S.S.S.S.S.S.S.S.S.S.S.&.2.6.` T T ] 8.V.V.V.V.V.V.V.V.2.&.S.S.S.S.S.S.S.S.S.S.S.S.S.S.S.S.",
"S.S.S.S.S.S.S.S.S.S.S.S.S.S.S.S.&.N.B.7.5.6.a.B.V.V.V.V.V.V.V.V.2.&.S.S.S.S.S.S.S.S.S.S.S.S.S.S.S.S.",
"S.S.S.S.S.S.S.S.S.S.S.S.S.S.S.+.=.N.V.V.B.B.V.V.V.V.V.V.V.V.V.V.V.=.@.S.S.S.S.S.S.S.S.S.S.S.S.S.S.S.",
"S.S.S.S.S.S.S.S.S.S.S.S.S.S.S.@.,.V.V.V.V.V.V.V.V.V.V.V.V.V.V.V.V.<.&.S.S.S.S.S.S.S.S.S.S.S.S.S.S.S.",
"S.S.S.S.S.S.S.S.S.S.S.S.S.S.@.>.N.V.V.V.j.d.s.s.d.h.d.z.h.B.V.V.V.N.=.@.S.S.S.S.S.S.S.S.S.S.S.S.S.S.",
"S.S.S.S.S.S.S.S.S.S.S.S.S.@.&.1.V.V.h.t.O.} } } } } } } o. .X.w.t.t.) :.@.S.S.S.S.S.S.S.S.S.S.S.S.S.",
"S.S.S.S.S.S.S.S.S.S.S.S.S.$.^ 9.k.0.o.{ E E E E E E E E E E E Q W Q Q ( &.S.S.S.S.S.S.S.S.S.S.S.S.S.",
"S.S.S.S.S.S.S.S.S.S.S.S.@.m q o.O.W Q E E E E E E E E E E E E E W U P L N @.S.S.S.S.S.S.S.S.S.S.S.S.",
"S.S.S.S.S.S.S.S.S.S.S.@.;.G R c.R I P R W E E E E E E E E Q R P U e w w J ;.@.S.S.S.S.S.S.S.S.S.S.S.",
"S.S.S.S.S.S.S.S.S.S.@.%.D I i.c.e w w e L P P P U P P P P L L w w w w w w D %.@.S.S.S.S.S.S.S.S.S.S.",
"S.S.S.S.S.S.S.S.S.S.$.F e r.Z.O.w w w w w w w w e e e w w w w w w w w w w w ! $.S.S.S.S.S.S.S.S.S.S.",
"S.S.S.S.S.S.S.S.S.@.n q O.Z.Z.I w w w w w w w w w w w w w w w w w w w w w w q ~ @.S.S.S.S.S.S.S.S.S.",
"S.S.S.S.S.S.S.S.@.M G [ M.Z.x.w w w w w w w w w w w w w w w w w w w w w w w w H M @.S.S.S.S.S.S.S.S.",
"S.S.S.S.S.S.S.@.%.D R c.A.A.O.w w w w w w w w w w w w w w w w w w w w w w w w w D -.@.S.S.S.S.S.S.S.",
"S.S.S.S.S.S.S.$.F I u.A.A.Z.R w w w w w w w w w w w w w w w w w w w w w w w w w 0 F $.+.S.S.S.S.S.S.",
"S.S.S.S.S.S.@.~ H r.Z.A.A.M.e w w w w w w w w w w w w w w w w w w w w w w w w w w q ~ $.S.S.S.S.S.S.",
"S.S.S.S.S.@.M K e.Z.Z.A.A.x.w w w w w w w w w w w w w w w w w w w w w w w w w w w e H M @.S.S.S.S.S.",
"S.S.S.S.@.#.J e.C.A.A.A.A.r.0 0 0 0 0 0 0 0 0 0 0 0 0 0 0 0 0 0 w w w w w w w w w w w Z :.@.S.S.S.S.",
"S.S.S.S.#.S o.M.Z.Z.Z.C.Z.X.2 9 8 2 8 2 8 2 8 8 2 2 8 2 8 8 8 8 8 8 8 8 8 8 9 9 9 0 0 q F $.+.S.S.S.",
"S.S.S.@.A Y n.C.C.C.C.C.C.| 1 < < < < < < < < > < < < < < < < < < < < < 1 1 1 2 2 2 2 2 9 b @.S.S.S.",
"S.S.+.v 6 y.C.C.C.C.C.C.C.| : > : : : : : : : : ; : ; : : : : : : : : : > : > : < : < 1 1 3 c @.S.S.",
"S.@.x 4 V m.C.b.C.b.b.b.b.5.: ; ; ; ; ; ; ; ; ; ; ; ; ; ; ; ; ; : ; ; ; ; ; ; ; ; : : : > < f x z S.",
"S.z k > D b.b.b.b.b.b.b.b.l.: ; ; ; ; ; ; ; ; ; ; ; ; ; ; ; ; ; ; ; ; ; ; ; ; ; ; ; ; ; ; : > s z z ",
"z +.- : S b.b.b.b.b.b.b.b.b.5 ; ; ; ; ; ; ; ; ; ; ; ; ; ; ; ; ; ; ; ; ; ; ; ; ; ; ; ; ; ; ; ; = z +.",
"+.X = : C b.b.b.b.b.b.b.b.b._ ; ; ; ; ; ; ; ; ; ; ; ; ; ; ; ; ; ; ; ; ; ; ; ; ; ; ; ; ; ; ; ; $ z z ",
"X +.r ; , z.b.b.b.b.b.b.b.b.v.B ; ; ; ; ; ; ; ; ; ; ; ; ; ; ; ; ; ; ; ; ; ; ; ; ; ; ; ; ; ; ; + z z ",
"S.z j % : F v.b.C.b.b.b.b.b.b.t., ; ; ; ; ; ; ; ; ; ; ; ; ; ; ; ; ; ; ; ; ; ; ; ; ; ; ; ; ; o g X S.",
"S.+.z y o > F k.b.b.b.b.b.b.b.b._ , ; ; ; ; ; ; ; ; ; ; ; ; ; ; ; ; ; ; ; ; ; ; ; ; ; ; ; o y X X S.",
"S.S.z . + ; : C 3.v.b.b.b.b.b.b.b.3.3 ; ; ; ; ; ; ; ; ; ; ; ; ; ; ; ; ; ; ; ; ; ; ; ; ; ; + . X S.S.",
"S.S.+.X j t o ; 3 S 3.z.b.b.b.b.b.b.q.S > ; ; ; ; ; ; ; ; ; ; ; ; ; ; ; ; ; ; ; ; ; ; o r l +.+.S.S.",
"S.S.S.+.+.. y % ; : 3 S ( q.l.b.b.b.b.y.) B ; ; ; ; ; ; ; ; ; ; ; ; ; ; ; ; ; ; ; ; @ y . X z S.S.S.",
"S.S.S.S.z z . p + o ; ; > 5 C F ) | _ 3._ C > ; ; ; ; ; ; ; ; ; ; ; ; ; ; ; ; ; o O     z +.S.S.S.S.",
"S.S.S.S.S.S.z X j a + @ o ; ; ; > , 3 4 , , : ; ; ; ; ; ; ; ; ; ; ; ; ; ; ; @ + u   . X S.S.S.S.S.S.",
"S.S.S.S.S.S.S.+.z X j p a + * # @ @ @ @ @ $ $ $ @ @ $ @ @ @ @ @ % % $ * - a p   X X X S.S.S.S.S.S.S.",
"S.S.S.S.S.S.S.S.S.z z +.X . j g h h p p p p p p p h p h p p p p p p h j j X X +.X S.S.S.S.S.S.S.S.S."
};
