/* XPM */
static char *result[] = {
/* columns rows colors chars-per-pixel */
"50 62 155 2 ",
"   c #7D6C6C",
".  c #7E7474",
"X  c #7E7E7E",
"o  c #BD1D1D",
"O  c #963C3C",
"+  c #9D3B3B",
"@  c #AB2727",
"#  c #AB2A2A",
"$  c #B42323",
"%  c #B92020",
"&  c #A43333",
"*  c #AA3232",
"=  c #AA3F3F",
"-  c #C61919",
";  c #CA1D1D",
":  c #CB2222",
">  c #CB2C2C",
",  c #D22525",
"<  c #D62828",
"1  c #DD2C2C",
"2  c #CC3232",
"3  c #C73A3A",
"4  c #CE3A3A",
"5  c #D83636",
"6  c #D03B3B",
"7  c #E12E2E",
"8  c #E33333",
"9  c #ED3333",
"0  c #ED3D3D",
"q  c #F13535",
"w  c #F33A3A",
"e  c #8E4C4C",
"r  c #964343",
"t  c #994242",
"y  c #914C4C",
"u  c #8A5757",
"i  c #845C5C",
"p  c #8C5E5E",
"a  c #935454",
"s  c #9B5656",
"d  c #925A5A",
"f  c #BA4242",
"g  c #856767",
"h  c #8A6363",
"j  c #836C6C",
"k  c #9C6060",
"l  c #807171",
"z  c #877B7B",
"x  c #897C7C",
"c  c #987373",
"v  c #AA6666",
"b  c #B76A6A",
"n  c #BD7474",
"m  c #B37E7E",
"M  c #D14444",
"N  c #D94444",
"B  c #D34B4B",
"V  c #DE4E4E",
"C  c #C75A5A",
"Z  c #D65555",
"A  c #DB5353",
"S  c #D45B5B",
"D  c #E64646",
"F  c #EB4343",
"G  c #E34D4D",
"H  c #E84949",
"J  c #F44343",
"K  c #F84545",
"L  c #F44D4D",
"P  c #F94949",
"I  c #E05050",
"U  c #E75C5C",
"Y  c #E85B5B",
"T  c #F35252",
"R  c #FE5555",
"E  c #F45D5D",
"W  c #FB5A5A",
"Q  c #CF6363",
"!  c #C26F6F",
"~  c #CC6B6B",
"^  c #D36363",
"/  c #DA6363",
"(  c #D16969",
")  c #DB6A6A",
"_  c #C07272",
"`  c #DD7676",
"'  c #DF7C7C",
"]  c #E76060",
"[  c #EA6161",
"{  c #F56565",
"}  c #F96161",
"|  c #F56B6B",
" . c #FE6E6E",
".. c #E27373",
"X. c #E07E7E",
"o. c #ED7C7C",
"O. c #F37474",
"+. c #F57B7B",
"@. c #828282",
"#. c #8C8C8C",
"$. c #928E8E",
"%. c #9D8C8C",
"&. c #949494",
"*. c #9E9494",
"=. c #9B9A9A",
"-. c #A48686",
";. c #AB8383",
":. c #A18989",
">. c #B28181",
",. c #A4A4A4",
"<. c #ACACAC",
"1. c #B4B4B4",
"2. c #BCBBBB",
"3. c #C78686",
"4. c #DE8282",
"5. c #DD8B8B",
"6. c #D79797",
"7. c #DA9595",
"8. c #D79B9B",
"9. c #D99999",
"0. c #E18484",
"q. c #EB8282",
"w. c #E38D8D",
"e. c #F68383",
"r. c #F88181",
"t. c #F68C8C",
"y. c #E49393",
"u. c #EE9F9F",
"i. c #F89B9B",
"p. c #CCA4A4",
"a. c #D3A4A4",
"s. c #DDA4A4",
"d. c #D3ADAD",
"f. c #DAACAC",
"g. c #CEBDBD",
"h. c #D4B4B4",
"j. c #D1BDBD",
"k. c #E7A0A0",
"l. c #E9A5A5",
"z. c #EBADAD",
"x. c #F9A4A4",
"c. c #F9ACAC",
"v. c #ECB1B1",
"b. c #EFBDBD",
"n. c #F5B3B3",
"m. c #FAB6B6",
"M. c #F1BEBE",
"N. c #FABCBC",
"B. c #C3C3C3",
"V. c #CEC2C2",
"C. c #CCCCCC",
"Z. c #F3C2C2",
"A. c #FAC4C4",
"S. c #FBC8C8",
"D. c None",
/* pixels */
"D.D.D.D.D.D.D.D.D.D.D.D.D.D.D.D.D.D.D.D.D.D.D.D.D.D.D.D.D.D.D.D.D.D.D.D.D.D.D.D.D.D.D.D.D.D.D.D.D.D.",
"D.D.D.D.D.D.D.D.D.D.D.D.D.D.D.D.D.D.D.D.D.D.D.D.D.D.D.D.D.D.D.D.D.D.D.D.D.D.D.D.D.D.D.D.D.D.D.D.D.D.",
"D.D.D.D.D.D.D.D.D.D.D.D.D.D.D.D.D.D.D.D.D.D.D.D.D.D.D.D.D.D.D.D.D.D.D.D.D.D.D.D.D.D.D.D.D.D.D.D.D.D.",
"D.D.D.D.D.D.D.D.D.D.D.D.D.D.D.D.D.D.D.D.D.D.D.D.D.D.D.D.D.D.D.D.D.D.D.D.D.D.D.D.D.D.D.D.D.D.D.D.D.D.",
"D.D.D.D.D.D.D.D.D.D.D.D.D.D.D.D.D.D.D.D.D.D.D.D.D.D.D.D.D.D.D.D.D.D.D.D.D.D.D.D.D.D.D.D.D.D.D.D.D.D.",
"D.D.D.D.D.D.D.D.D.D.D.D.D.D.D.D.D.D.D.D.D.D.D.D.D.D.D.D.D.D.D.D.D.D.D.D.D.D.D.D.D.D.D.D.D.D.D.D.D.D.",
"D.D.D.D.D.D.D.D.D.D.D.D.D.D.D.D.D.D.D.D.D.D.D.D.D.D.D.D.D.D.D.D.D.D.D.D.D.D.D.D.D.D.D.D.D.D.D.D.D.D.",
"D.D.D.D.D.D.D.D.D.D.D.D.D.D.D.D.D.D.D.D.D.D.D.D.D.D.D.D.D.D.D.D.D.D.D.D.D.D.D.D.D.D.D.D.D.D.D.D.D.D.",
"D.D.D.D.D.D.D.D.D.D.D.D.D.D.D.D.D.D.D.D.D.D.D.D.D.D.D.D.D.D.D.D.D.D.D.D.D.D.D.D.D.D.D.D.D.D.D.D.D.D.",
"D.D.D.D.D.D.D.D.D.D.D.D.D.D.D.D.D.D.D.D.D.D.D.D.D.D.D.D.D.D.D.D.D.D.D.D.D.D.D.D.D.D.D.D.D.D.D.D.D.D.",
"D.D.D.D.D.D.D.D.D.D.D.D.D.D.D.D.D.D.D.D.D.D.D.D.D.D.D.D.D.D.D.D.D.D.D.D.D.D.D.D.D.D.D.D.D.D.D.D.D.D.",
"D.D.D.D.D.D.D.D.D.D.D.D.D.D.D.D.D.D.D.D.D.D.D.D.D.D.D.D.D.D.D.D.D.D.D.D.D.D.D.D.D.D.D.D.D.D.D.D.D.D.",
"D.D.D.D.D.D.D.D.D.D.D.D.D.D.D.D.D.D.D.D.D.D.D.D.D.D.D.D.D.D.D.D.D.D.D.D.D.D.D.D.D.D.D.D.D.D.D.D.D.D.",
"D.D.D.D.D.D.D.D.D.D.D.D.D.D.D.D.D.D.D.D.D.D.D.D.D.D.D.D.D.D.D.D.D.D.D.D.D.D.D.D.D.D.D.D.D.D.D.D.D.D.",
"D.D.D.D.D.D.D.D.D.D.D.D.D.D.D.D.D.D.D.D.@.X X @.X X X X @.@.D.D.D.D.D.D.D.D.D.D.D.D.D.D.D.D.D.D.D.D.",
"D.D.D.D.D.D.D.D.D.D.D.D.D.D.D.D.@.X @.#.@.#.#.#.#.#.#.#.#.#.#.@.@.X D.D.D.D.D.D.D.D.D.D.D.D.D.D.D.D.",
"D.D.D.D.D.D.D.D.D.D.D.D.D.D.@.@.#.#.&.=.,.,.,.<.<.<.<.<.,.,.=.&.#.#.#.X D.D.D.D.D.D.D.D.D.D.D.D.D.D.",
"D.D.D.D.D.D.D.D.D.D.D.D.D.@.#.&.<.1.2.2.B.B.B.B.B.B.B.B.B.B.2.2.1.<.=.#.@.D.D.D.D.D.D.D.D.D.D.D.D.D.",
"D.D.D.D.D.D.D.D.D.D.D.D.D.#.=.=.,.1.2.B.C.C.C.C.C.C.C.C.C.C.B.2.1.<.=.=.#.D.D.D.D.D.D.D.D.D.D.D.D.D.",
"D.D.D.D.D.D.D.D.D.D.D.D.D.#.&.=.=.=.,.<.<.<.<.<.1.<.<.<.<.<.,.,.=.=.=.=.$.D.D.D.D.D.D.D.D.D.D.D.D.D.",
"D.D.D.D.D.D.D.D.D.D.D.D.D.@.&.=.=.=.=.=.=.=.=.=.=.=.=.=.=.=.=.=.=.=.,.&.@.D.D.D.D.D.D.D.D.D.D.D.D.D.",
"D.D.D.D.D.D.D.D.D.D.D.D.D.D.#.,.2.1.1.<.,.,.=.,.*.:.-.;.;.>.<.1.1.1.=.#.D.D.D.D.D.D.D.D.D.D.D.D.D.D.",
"D.D.D.D.D.D.D.D.D.D.D.D.D.D.@.&.B.C.C.B.2.2.2.2.3.( ( / / / p.C.C.2.=.@.D.D.D.D.D.D.D.D.D.D.D.D.D.D.",
"D.D.D.D.D.D.D.D.D.D.D.D.D.D.D.&.1.C.V.d.V.C.C.C...U Y Y Y Y 7.C.C.1.&.D.D.D.D.D.D.D.D.D.D.D.D.D.D.D.",
"D.D.D.D.D.D.D.D.D.D.D.D.D.D.D.@.,.j.X...X.V.C.C.5.Y Y Y Y U a.C.C.,.@.D.D.D.D.D.D.D.D.D.D.D.D.D.D.D.",
"D.D.D.D.D.D.D.D.D.D.D.D.D.D.D.@.=.a.Y Y Y a.C.C.h...Y Y Y ' V.C.B.=.@.D.D.D.D.D.D.D.D.D.D.D.D.D.D.D.",
"D.D.D.D.D.D.D.D.D.D.D.D.D.D.D.D.&.p.U U U d.C.C.C.h.6.5.8.j.C.C.2.&.D.D.D.D.D.D.D.D.D.D.D.D.D.D.D.D.",
"D.D.D.D.D.D.D.D.D.D.D.D.D.D.D.D.&.1.9.5.9.V.C.C.C.C.C.V.C.C.C.C.2.&.D.D.D.D.D.D.D.D.D.D.D.D.D.D.D.D.",
"D.D.D.D.D.D.D.D.D.D.D.D.D.D.D.D.&.2.C.j.C.C.C.C.C.C.C.C.C.C.C.C.2.&.D.D.D.D.D.D.D.D.D.D.D.D.D.D.D.D.",
"D.D.D.D.D.D.D.D.D.D.D.D.D.D.D.@.=.C.C.C.C.C.C.C.C.C.C.C.C.C.C.C.C.=.@.D.D.D.D.D.D.D.D.D.D.D.D.D.D.D.",
"D.D.D.D.D.D.D.D.D.D.D.D.D.D.D.#.<.C.C.C.C.C.C.C.C.C.C.C.V.h.h.j.C.<.#.D.D.D.D.D.D.D.D.D.D.D.D.D.D.D.",
"D.D.D.D.D.D.D.D.D.D.D.D.D.D.#.*.6.y.s.C.C.C.C.C.C.C.C.s.+.O.| O.o.6.*.#.D.D.D.D.D.D.D.D.D.D.D.D.D.D.",
"D.D.D.D.D.D.D.D.D.D.D.D.D.@.*.` { } | q.f.C.C.C.g.f.q.| R R R R W { ..%.@.D.D.D.D.D.D.D.D.D.D.D.D.D.",
"D.D.D.D.D.D.D.D.D.D.D.D.D.$.~ {  .R R W | +.q.o.O.| W R R R R R R R W ) &.D.D.D.D.D.D.D.D.D.D.D.D.D.",
"D.D.D.D.D.D.D.D.D.D.D.D.#.n F O.e.E R R R R W R R R R R R R R R R R K J m #.D.D.D.D.D.D.D.D.D.D.D.D.",
"D.D.D.D.D.D.D.D.D.D.D.#.;.D T x.E J K R W R R R R R R R R R R P J w q q G ;.#.D.D.D.D.D.D.D.D.D.D.D.",
"D.D.D.D.D.D.D.D.D.D.@.%.A J i.c.w q q w J K K K P P P K K K J w 9 q q q w Z %.@.D.D.D.D.D.D.D.D.D.D.",
"D.D.D.D.D.D.D.D.D.D.$.Q 0 t.A.+.q q q q q q q q w w w q q q q q q q q q q w Q $.D.D.D.D.D.D.D.D.D.D.",
"D.D.D.D.D.D.D.D.D.#.n 0 O.A.A.P q q q q q q q q q q q q q q q q q q q q q q 0 _ &.D.D.D.D.D.D.D.D.D.",
"D.D.D.D.D.D.D.D.#.;.D } m.S.x.9 q q q q q q q q q q q q q q q q q q q q q q q D m #.D.D.D.D.D.D.D.D.",
"D.D.D.D.D.D.D.@.:.A L c.S.S.+.q q q q q q q q q q q q q q q q q q q q q q q q q V %.@.D.D.D.D.D.D.D.",
"D.D.D.D.D.D.D.$.S J i.S.S.A.T q q q q q q q q q q q q q q q q q q q q q q q q q 9 S &.D.D.D.D.D.D.D.",
"D.D.D.D.D.D.#._ H t.A.S.A.N.w q q q q q q q q q q q q q q q q q q q q q q q q q 9 0 ! #.D.D.D.D.D.D.",
"D.D.D.D.D.#.>.H e.A.A.S.S.x.q q q q q q q q q q q q q q q q q q q q q q q q q q q q D m #.D.D.D.D.D.",
"D.D.D.D.#.-.V +.Z.S.S.S.S.t.q q q 9 9 9 9 9 9 9 9 9 9 9 9 9 9 9 q q q q q q q q q q q G :.@.D.D.D.D.",
"D.D.D.D.%.Z O.N.A.A.A.A.A.o.7 1 1 7 7 7 7 1 7 7 1 1 1 1 1 7 7 7 7 7 7 7 7 7 7 9 7 9 9 q S &.@.D.D.D.",
"D.D.D.$.C [ n.Z.A.Z.Z.Z.Z...< < , , , , , , , : : , , , , , , , , , , , < < < < 1 1 5 7 8 b $.D.D.D.",
"D.D.#.v 5 k.Z.Z.b.Z.Z.M.Z.` ; ; ; ; ; ; ; ; ; ; ; ; ; ; ; ; ; - ; ; ; ; ; : : , ; , : < 1 6 c @.D.D.",
"D.@.x 3 N M.M.M.Z.b.b.b.b.5.- - - - - - - - - - - - - - - - - - ; - - - - - - - - ; ; ; : , f z X D.",
"D.@.d : Z Z.b.b.b.b.b.b.b.l.; - - - - - - - - - - - - - - - - - - - - - - - - - - - - - - ; : s X @.",
"@.X f - S b.b.b.b.b.b.b.b.b.4 - - - - - - - - - - - - - - - - - - - - - - - - - - - - - - - - * @.X ",
"X @.& - B b.M.b.b.b.b.b.b.b.' ; - - - - - - - - - - - - - - - - - - - - - - - - - - - - - - - # X @.",
"X @.r - > z.M.b.b.b.b.b.b.b.z.M - - - - - - - - - - - - - - - - - - - - - - - - - - - - - - - r X @.",
"D.X g % - S v.b.b.Z.b.b.b.b.b.y.> - - - - - - - - - - - - - - - - - - - - - - - - - - - - - o h @.D.",
"D.@.X y o ; S u.b.b.b.b.b.b.b.b.4.> - - - - - - - - - - - - - - - - - - - - - - - - - - - o e X X D.",
"D.D.@.l O o : M ' v.b.b.b.b.b.b.b.0.2 - - - - - - - - - - - - - - - - - - - - - - - - - - t X X D.D.",
"D.D.@.X j r o - 2 Z 4.z.b.b.b.b.b.b.w.Z : - - - - - - - - - - - - - - - - - - - - - - o r l z @.D.D.",
"D.D.D.@.@.l y $ - ; 2 B ) w.l.b.b.b.b.k.' M - - - - - - - - - - - - - - - - - - - - @ e . X X D.D.D.",
"D.D.D.D.@.X . h + o - - : 4 B Z ) ` ` 4.` B ; - - - - - - - - - - - - - - - - - o O i . @.X D.D.D.D.",
"D.D.D.D.D.D.@.X g d + @ o - - - : > 2 2 > > - - - - - - - - - - - - - - - o @ O u   X X D.D.D.D.D.D.",
"D.D.D.D.D.D.D.X X X l h d t + & # # # # # # # # # # # # # # # # @ $ # & r a h . X X @.D.D.D.D.D.D.D.",
"D.D.D.D.D.D.D.D.D.X X @.X l j g h h h h h h h h h h h h h h h h h h h g . X z X X D.D.D.D.D.D.D.D.D."
};
