/* XPM */
static char *result[] = {
/* columns rows colors chars-per-pixel */
"240 80 11 1 ",
"  c #13F926",
". c #12F927",
"X c #13F927",
"o c #13FA26",
"O c #13FA27",
"+ c #14F925",
"@ c #14F926",
"# c #14F927",
"$ c #14FA26",
"% c #14FA27",
"& c None",
/* pixels */
"&&&&&&&&&&&&&&&&&&&&&&&&&&&&&&&&&&&&&&&&&&&&&&&&&&&&&&&&&&&&&&&&&&&&&&&&&&&&&&&&&&&&&&&&&&&&&&&&&&&&&&&&&&&&&&&&&&&&&&&&&&&&&&&&&&&&&&&&&&&&&&&&&&&&&&&&&&&&&&&&&&&&&&&&&&&&&&&&&&&&&&&&&&&&&&&&&&&&&&&&&&&&&&&&&&&&&&&&&&&&&&&&&&&&&&&&&&&&&&&&",
"&&&&&&&&&&&&&&&&&&&&&&&&&&&&&&&&&&&&&&&&&&&&&&&&&&&&&&&&&&&&&&&&&&&&&&&&&&&&&&&&&&&&&&&&&&&&&&&&&&&&&&&&&&&&&&&&&&&&&&&&&&&&&&&&&&&&&&&&&&&&&&&&&&&&&&&&&&&&&&&&&&&&&&&&&&&&&&&&&&&&&&&&&&&&&&&&&&&&&&&&&&&&&&&&&&&&&&&&&&&&&&&&&&&&&&&&&&&&&&&&",
"&&&&&&&&&&&&&&&&&&&&&&&&&&&&&&&&&&&&&&&&&&&&&&&&&&&&&&&&&&&&&&&&&&&&&&&&&&&&&&&&&&&&&&&&&&&&&&&&&&&&&&&&&&&&&&&&&&&&&&&&&&&&&&&&&&&&&&&&&&&&&&&&&&&&&&&&&&&&&&&&&&&&&&&&&&&&&&&&&&&&&&&&&&&&&&&&&&&&&&&&&&&&&&&&&&&&&&&&&&&&&&&&&&&&&&&&&&&&&&&&",
"&&&&&&&&&&&&&&&&&&&&&&&&&&&&&&&&&&&&&&&&&&&&&&&&&&&&&&&&&&&&&&&&&&&&&&&&&&&&&&&&&&&&&&&&&&&&&&&&&&&&&&&&&&&&&&&&&&&&&&&&&&&&&&&&&&&&&&&&&&&&&&&&&&&&&&&&&&&&&&&&&&&&&&&&&&&&&&&&&&&&&&&&&&&&&&&&&&&&&&&&&&&&&&&&&&&&&&&&&&&&&&&&&&&&&&&&&&&&&&&&",
"&&&&&&&&&&&&&&&&&&&&&&&&&&&&&&&&&&&&&&&&&&&&&&&&&&&&&&&&&&&&&&&&&&&&&&&&&&&&&&&&&&&&&&&&&&&&&&&&&&&&&&&&&&&&&&&&&&&&&&&&&&&&&&&&&&&&&&&&&&&&&&&&&&&&&&&&&&&&&&&&&&&&&&&&&&&&&&&&&&&&&&&&&&&&&&&&&&&&&&&&&&&&&&&&&&&&&&&&&&&&&&&&&&&&&&&&&&&&&&&&",
"&&&&&&&&&&&&&&&&&&&&&&&&&&&&&&&&&&&&&&&&&&&&&&&&&&&&&&&&&&&&&&&&&&&&&&&&&&&&&&&&&&&&&&&&&&&&&&&&&&&&&&&&&&&&&&&&&&&&&&&&&&&&&&&&&&&&&&&&&&&&&&&&&&&&&&&&&&&&&&&&&&&&&&&&&&&&&&&&&&&&&&&&&&&&&&&&&&&&&&&&&&&&&&&&&&&&&&&&&&&&&&&&&&&&&&&&&&&&&&&&",
"&&&&&&&&&&&&&&&&&&&&&&&&&&&&&&&&&&&&&&&&&&&&&&&&&&&&&&&&&&&&&&&&&&&&&&&&&&&&&&&&&&&&&&&&&&&&&&&&&&&&&&&&&&&&&&&&&&&&&&&&&&&&&&&&&&&&&&&&&&&&&&&&&&&&&&&&&&&&&&&&&&&&&&&&&&&&&&&&&&&&&&&&&&&&&&&&&&&&&&&&&&&&&&&&&&&&&&&&&&&&&&&&&&&&&&&&&&&&&&&&",
"&&&&&&&&&&&&&&&&&&&&&&&&&&&&&&&&&&&&&&&&&&&&&&&&&&&&&&&&&&&&&&&&&&&&&&&&&&&&&&&&&&&&&&&&&&&&&&&&&&&&&&&&&&&&&&&&&&&&&&&&&&&&&&&&&&&&&&&&&&&&&&&&&&&&&&&&&&&&&&&&&&&&&&&&&&&&&&&&&&&&&&&&&&&&&&&&&&&&&&&&&&&&&&&&&&&&&&&&&&&&&&&&&&&&&&&&&&&&&&&&",
"&&&&&&&&&&&&&&&&&&&&&&&&&&&&&&&&&&&&&&&&&&&&&&&&&&&&&&&&&&&&&&&&&&&&&&&&&&&&&&&&&&&&&&&&&&&&&&&&&&&&&&&&&&&&&&&&&&&&&&&&&&&&&&&&&&&&&&&&&&&&&&&&&&&&&&&&&&&&&&&&&&&&&&&&&&&&&&&&&&&&&&&&&&&&&&&&&&&&&&&&&&&&&&&&&&&&&&&&&&&&&&&&&&&&&&&&&&&&&&&&",
"&&&&&&&&&&&&&&&&&&&&&&&&&&&&&&&&&&&&&&&&&&&&&&&&&&&&&&&&&&&&&&&&&&&&&&&&&&&&&&&&&&&&&&&&&&&&&&&&&&&&&&&&&&&&&&&&&&&&&&&&&&&&&&&&&&&&&&&&&&&&&&&&&&&&&&&&&&&&&&&&&&&&&&&&&&&&&&&&&&&&&&&&&&&&&&&&&&&&&&&&&&&&&&&&&&&&&&&&&&&&&&&&&&&&&&&&&&&&&&&&",
"&&&&&&&&&&&&&&&&&&&&&&&&&&&&&&&&&&&&&&&&&&&&&&&&&&&&&&&&&&&&&&&&&&&&&&&&&&&&&&&&&&&&&&&&&&&&&&&&&&&&&&&&&&&&&&&&&&&&&&&&&&&&&&&&&&&&&&&&&&&&&&&&&&&&&&&&&&&&&&&&&&&&&&&&&&&&&&&&&&&&&&&&&&&&&&&&&&&&&&&&&&&&&&&&&&&&&&&&&&&&&&&&&&&&&&&&&&&&&&&&",
"&&&&&&&&&&&&&&&&&&&&&&&&&&&&&&&&&&&&&&&&&&&&&&&&&&&&&&&&&&&&&&&&&&&&&&&&&&&&&&&&&&&&&&&&&&&&&&&&&&&&&&&&&&&&&&&&&&&&&&&&&&&&&&&&&&&&&&&&&&&&&&&&&&&&&&&&&&&&&&&&&&&&&&&&&&&&&&&&&&&&&&&&&&&&&&&&&&&&&&&&&&&&&&&&&&&&&&&&&&&&&&&&&&&&&&&&&&&&&&&&",
"&&&&&&&&&&&&&&&&&&&&&&&&&&&&&&&&&&&&&&&&&&&&&&&&&&&&&&&&&&&&&&&&&&&&&&&&&&&&&&&&&&&&&&&&&&&&&&&&&&&&&&&&&&&&&&&&&&&&&&&&&&&&&&&&&&&&&&&&&&&&&&&&&&&&&&&&&&&&&&&&&&&&&&&&&&&&&&&&&&&&&&&&&&&&&&&&&&&&&&&&&&&&&&&&&&&&&&&&&&&&&&&&&&&&&&&&&&&&&&&&",
"&&&&&&&&&&&&&&&&&&&&&&&&&&&&&&&&&&&&&&&&&&&&&&&&&&&&&&&&&&&&&&&&&&&&&&&&&&&&&&&&&&&&&&&&&&&&&&&&&&&&&&&&&&&&&&&&&&&&&&&&&&&&&&&&&&&&&&&&&&&&&&&&&&&&&&&&&&&&&&&&&&&&&&&&&&&&&&&&&&&&&&&&&&&&&&&&&&&&&&&&&&&&&&&&&&&&&&&&&&&&&&&&&&&&&&&&&&&&&&&&",
"&&&&&&&&&&&&&&&&&&&&&&&&&&&&&&&&&&&&&&&&&&&&&&&&&&&&&&&&&&&&&&&&&&&&&&&&&&&&&&&&&&&&&&&&&&&&&&&&&&&&&&&&&&&&&&&&&&&&&&&&&&&&&&&&&&&&&&&&&&&&&&&&&&&&&&&&&&&&&&&&&&&&&&&&&&&&&&&&&&&&&&&&&&&&&&&&&&&&&&&&&&&&&&&&&&&&&&&&&&&&&&&&&&&&&&&&&&&&&&&&",
"&&&&&&&&&&&&&&&&&&&&&&&&&&&&&&&&&&&&&&&&&&&&&&&&&&&&&&&&&&&&&&&&&&&&&&&&&&&&&&&&&&&&&&&&&&&&&&&&&&&&&&&&&&&&&&&&&&&&&&&&&&&&&&&&&&&&&&&&&&&&&&&&&&&&&&&&&&&&&&&&&&&&&&&&&&&&&&&&&&&&&&&&&&&&&&&&&&&&&&&&&&&&&&&&&&&&&&&&&&&&&&&&&&&&&&&&&&&&&&&&",
"&&&&&&&&&&&&&&&&&&&&&&&&&&&&&&&&&&&&&&&&&&&&&&&&&&&&&&&&&&&&&&&&&&&&&&&&&&&&&&&&&&&&&&&&&&&&&&&&&&&&&&&&&&&&&&&&&&&&&&&&&&&&&&&&&&&&&&&&&&&&&&&&&&&&&&&&&&&&&&&&&&&&&&&&&&&&&&&&&&&&&&&&&&&&&&&&&&&&&&&&&&&&&&&&&&&&&&&&&&&&&&&&&&&&&&&&&&&&&&&&",
"&&&&&&&&&&&&&&&&&&&&&&&&&&&&&&&&&&&&&&&&&&&&&&&&&&&&&&&&&&&&&&&&&&&&&&&&&&&&&&&&&&&&&&&&&&&&&&&&&&&&&&&&&&&&&&&&&&&&&&&&&&&&&&&&&&&&&&&&&&&&&&&&&&&&&&&&&&&&&&&&&&&&&&&&&&&&&&&&&&&&&&&&&&&&&&&&&&&&&&&&&&&&&&&&&&&&&&&&&&&&&&&&&&&&&&&&&&&&&&&&",
"&&&&&&&&&&&&&&&&&&&&&&&&&&&&&&&&&&&&&&&&&&&&&&&&&&&&&&&&&&&&&&&&&&&&&&&&&&&&&&&&&&&&&&&&&&&&&&&&&&&&&&&&&&&&&&&&&&&&&&&&&&&&&&&&&&&&&&&&&&&&&&&&&&&&&&&&&&&&&&&&&&&&&&&&&&&&&&&&&&&&&&&&&&&&&&&&&&&&&&&&&&&&&&&&&&&&&&&&&&&&&&&&&&&&&&&&&&&&&&&&",
"&&&&&&&&&&&&&&&&&&&&&&&&&&&&&&&&&&&&&&&&&&&&&&&&&&&&&&&&&&&&&&&&&&&&&&&&&&&&&&&&&&&&&&&&&&&&&&&&&&&&&&&&&&&&&&&&&&&&&&&&&&&&&&&&&&&&&&&&&&&&&&&&&&&&&&&&&&&&&&&&&&&&&&&&&&&&&&&&&&&&&&&&&&&&&&&&&&&&&&&&&&&&&&&&&&&&&&&&&&&&&&&&&&&&&&&&&&&&&&&&",
"&&&&&&&&&&&&&&&&&&&&&&&&&&&&&&&&&&&&&&&&&&&&&&&&&&&&&&&&&&&&&&&&&&&&&&&&&&&&&&&&&&&&&&&&&&&&&&&&&&&&&&&&&&&&&&&&&&&&&&&&&&&&&&&&&&&&&&&&&&&&&&&&&&&&&&&&&&&&&&&&&&&&&&&&&&&&&&&&&&&&&&&&&&&&&&&&&&&&&&&&&&&&&&&&&&&&&&&&&&&&&&&&&&&&&&&&&&&&&&&&",
"&&&&&&&&&&&&&&&&&&&&&&&&&&&&&&&&&&&&&&&&&&&&&&&&&&&&&&&&&&&&&&&&&&&&&&&&&&&&&&&&&&&&&&&&&&&&&&&&&&&&&&&&&&&&&&&&&&&&&&&&&&&&&&&&&&&&&&&&&&&&&&&&&&&&&&&&&&&&&&&&&&&&&&&&&&&&&&&&&&&&&&&&&&&&&&&&&&&&&&&&&&&&&&&&&&&&&&&&&&&&&&&&&&&&&&&&&&&&&&&&",
"&&&&&&&&&&&&&&&&&&&&&&&&&&&&&&&&&&&&&&&&&&&&&&&&&&&&&&&&&&&&&&&&&&&&&&&&&&&&&&&&&&&&&&&&&&&&&&&&&&&&&&&&&&&&&&&&&&&&&&&&&&&&&&&&&&&&&&&&&&&&&&&&&&&&&&&&&&&&&&&&&&&&&&&&&&&&&&&&&&&&&&&&&&&&&&&&&&&&&&&&&&&&&&&&&&&&&&&&&&&&&&&&&&&&&&&&&&&&&&&&",
"&&&&&&&&&&&&&&&&&&&&&&&&&&&&&&&&&&&&&&&&&&&&&&&&&&&&&&&&&&&&&&&&&&&&&&&&&&&&&&&&&&&&&&&&&&&&&&&&&&&&&&&&&&&&&&&&&&&&&&&&&&&&&&&&&&&&&&&&&&&&&&&&&&&&&&&&&&&&&&&&&&&&&&&&&&&&&&&&&&&&&&&&&&&&&&&&&&&&&&&&&&&&&&&&&&&&&&&&&&&&&&&&&&&&&&&&&&&&&&&&",
"&&&&&&&&&&&&&&&&&&&&&&&&&&&&&&&&&&&&&&&&&&&&&&&&&&&&&&&&&&&&&&&&&&&&&&&&&&&&&&&&&&&&&&&&&&&&&&&&&&&&&&&&&&&&&&&&&&&&&&&&&&&&&&&&&&&&&&&&&&&&&&&&&&&&&&&&&&&&&&&&&&&&&&&&&&&&&&&&&&&&&&&&&&&&&&&&&&&&&&&&&&&&&&&&&&&&&&&&&&&&&&&&&&&&&&&&&&&&&&&&",
"&&&&&&&&&&&&&&&&&&&&&&&&&&&&&&&&&&&&&&&&&&&&&&&&&&&&&&&&&&&&&&&&&&&&&&&&&&&&&&&&&&&&&&&&&&&&&&&&&&&&&&&&&&&&&&&&&&&&&&&&&&&&&&&&&&&&&&&&&&&&&&&&&&&&&&&&&&&&&&&&&&&&&&&&&&&&&&&&&&&&&&&&&&&&&&&&&&&&&&&&&&&&&&&&&&&&&&&&&&&&&&&&&&&&&&&&&&&&&&&&",
"&&&&&&&&&&&&&&&&&&&&&&&&&&&&&&&&&&&&&&&&&&&&&&&&&&&&&&&&&&&&&&&&&&&&&&&&&&&&&&&&&&&&&&&&&&&&&&&&&&&&&&&&&&&&&&&&&&&&&&&&&&&&&&&&&&&&&&&&&&&&&&&&&&&&&&&&&&&&&&&&&&&&&&&&&&&&&&&&&&&&&&&&&&&&&&&&&&&&&&&&&&&&&&&&&&&&&&&&&&&.%%$&&&&&&&&&&&&&&&&&",
"&&&&&&&&&&&&&&&&&&&&&&&&&&&&&&&&&&&&&&&&&&&&&&&&&&&&&&&&&&&&&&&&&&&&&&&&&&&&&&&&&&&&&&&&&&&&&&&&&&&&&&&&&&&&&&&&&&&&&&&&&&&&&&&&&&&&&&&&&&&&&&&&&&&&&&&&&&&&&&&&&&&&&&&&&&&&&&&&&&&&&&&&&&&&&&&&&&&&&&&&&&&&&&&&&&&&&&&&&&&%%%%&&&&&&&&&&&&&&&&&",
"&&&&&&&&&&&&&&&&&&X $%%o&&&&&&&&&OO%$  &&&&&O%% &&&& %%O&&&&&@O%oXO&&&&&O%%%%%%O@&&&&&&&&X $%%o&&&&&$%%%%%%%%%%%O&$%%%&&&&& %%%&&O%o&&&&&&&&&&&&&&O o%O@&&&&&%%%%%%%%%%%% &%%% &&&&&O o%O@&&&&&%%%O&&&&&%%%$&&&&  $%%o&&&&&%%%%&&&&&&&&&&&&&&&&&",
"&&&&&&&&&&&&&&&&&X%%%%%%%%&&&&&O%%%%%%% &&&@%%%@&&&& %%%&&&$%%%%%%%O&&&&%%%%%%%%%%X&&&&&X%%%%%%%%&&&%%%%%%%%%%%%o&%%%%&&&&&%%%%&@%%%$&&&&&&&&&&&&$%%%%%%%O&&&%%%%%%%%%%%%o&%%%%&&&&$%%%%%%%O&&&%%%%&&&&&%%%%&&&#%%%%%%%o&&&%%%%&&&&&&&&&&&&&&&&&",
"&&&&&&&&&&&&&&&& %%%%%%%%%@&&&X%%%%%%%%% &&@%%%%&&&& %%%&&&%%%%%%%%%o&&&%%%%%%%%%%%&&&& %%%%%%%%%@&&%%%%%%%%%%%%o&%%%%&&&&&%%%%&@%%%$&&&&&&&&&&&O%%%%%%%%%&&&%%%%%%%%%%%%o&%%%%&&&O%%%%%%%%%&&&%%%%$&&&&%%%%&&$%%%%%%%%%%&&%%%%&&&&&&&&&&&&&&&&&",
"&&&&&&&&&&&&&&&X%%%%%%%%%%%&&&%%%%%%%%%%% &@%%%%&&&& %%%&&%%%%%%%%%%%o&&%%%%%%%%%%%o&&X%%%%%%%%%%%&&$%%%%%%%%%%%X&%%%%&&&&&%%%%&@%%%$&&&&&&&&&&%%%%%%%%%%%%&&#%%%%%%%%%%%o&%%%%&&$%%%%%%%%%%%&&%%%%$&&&&%%%%&$%%%%%%%%%%%&&%%%%&&&&&&&&&&&&&&&&&",
"&&&&&&&&&&&&&&& %%%o&&&$%%%$&O%%%$&&&o%%%#&@%%%%%&&& %%%&&%%%o&&&O%%%%&&%%%o&&&&o%%%&& %%%o&&&$%%%$&&&&&o%%% &&&&&%%%%&&&&&%%%%&@%%%$&&&&&&&&&&%%%%O&&&o%%%&&&&&&#%%%X&&&&&%%%%&&o%%%O&&&o%%%&&%%%%%&&&&%%%%&@%%%$&&&X%%%o&%%%%&&&&&&&&&&&&&&&&&",
"&&&&&&&&&&&&&&&$%%%&&&&&%%%o&X%%%&&&&&%%%O&@%%%%%&&& %%%&&%%%X&&&&o%%%&&%%%$&&&&X%%%&&$%%%&&&&&%%%o&&&&&&%%% &&&&&%%%%&&&&&%%%%&@%%%$&&&&&&&&&&%%%%&&&&@%%%&&&&&&@%%%&&&&&&%%%%&&%%%%&&&&@%%%&&%%%%% &&&%%%%&O%%%&&&&&%%%%&%%%%&&&&&&&&&&&&&&&&&",
"&&&&&&&&&&&&&&&%%%%&&&&&%%%%&%%%%&&&&&%%%%&@%%%%%O&& %%%&@%%%$&&&& %%%&&%%%$&&&&O%%%X&%%%%&&&&&%%%%&&&&&&%%% &&&&&%%%%&&&&&%%%%&@%%%$&&&&&&&&&&%%%$&&&&O%%%X&&&&&@%%%&&&&&&%%%%&&%%%$&&&&O%%%X&%%%%%O&&&%%%%&%%%%&&&&&%%%%&%%%%&&&&&&&&&&&&&&&&&",
"&&&&&&&&&&&&&&&%%%%&&&&&%%%%&%%%%&&&&&%%%%&@%%%%%O&& %%%&@%%%$&&&& %%%&&%%%$&&&&O%%%X&%%%%&&&&&%%%%&&&&&&%%% &&&&&%%%%&&&&&%%%%&@%%%$&&&&&&&&&&%%%$&&&&O%%%X&&&&&@%%%&&&&&&%%%%&&%%%$&&&&O%%%X&%%%%%%&&&%%%%&%%%%&&&&&%%%@&%%%%&&&&&&&&&&&&&&&&&",
"&&&&&&&&&&&&&&&%%%%&&&&&Xoo&&%%%%&&&&&%%%%&@%%%%%%&& %%%&@%%%$&&&&&&&&&&%%%$&&&&O%%%X&%%%%&&&&&%%%%&&&&&&%%% &&&&&%%%%&&&&&%%%%&@%%%$&&&&&&&&&&%%%$&&&&O%%%X&&&&&@%%%&&&&&&%%%%&&%%%$&&&&O%%%X&%%%%%% &&%%%%&o%%%&&&&&&&&&&%%%%&&&&&&&&&&&&&&&&&",
"&&&&&&&&&&&&&&&%%%%&&&&&&&&&&%%%%&&&&&%%%%&@%%%%%%O& %%%&@%%%$&&&&&&&&&&%%%$&&&&O%%%X&%%%%&&&&&%%%%&&&&&&%%% &&&&&%%%%&&&&&%%%%&@%%%$&&&&&&&&&&%%%$&&&&O%%%X&&&&&@%%%&&&&&&%%%%&&%%%$&&&&O%%%X&%%%%%%%&&%%%%&X%%%O&&&&&&&&&%%%%&&&&&&&&&&&&&&&&&",
"&&&&&&&&&&&&&&&%%%%&&&&&&&&&&%%%%&&&&&%%%%&@%%%%%%%& %%%&@%%%$&&X%%%%O&&%%%$&&&&O%%%X&%%%%&&&&&%%%%&&&&&&%%% &&&&&%%%%&&&&&%%%%&@%%%$&&&&&&&&&&%%%$&&&&O%%%X&&&&&@%%%&&&&&&%%%%&&%%%$&&&&O%%%X&%%%%%%%$&%%%%&o%%%%%%%o&&&&&%%%%&&&&&&&&&&&&&&&&&",
"&&&&&&&&&&&&&&&%%%%&&&&&&&&&&%%%%&&&&&%%%%&@%%%%%%%X %%%&@%%%$&&%%%%%%&&%%%$&&&&X%%%&&%%%%&&&&&%%%%&&&&&&%%% &&&&&%%%%&&&&&%%%%&@%%%$&&&&&&&&&&%%%$&&&&O%%%X&&&&&@%%%&&&&&&%%%%&&%%%$&&&&O%%%X&%%%%%%%%O%%%%&&$%%%%%%%%o&&&%%%%&&&&&&&&&&&&&&&&&",
"&&&&&&&&&&&&&&&%%%%&&&&&&&&&&%%%%&&&&&%%%%&@%%%%%%%o$%%%&@%%%$&&%%%%%%&&%%%o&&&&o%%%&&%%%%&&&&&%%%%&&&&&&%%% &&&&&%%%%&&&&&%%%%&@%%%$&&&&&&&&&&%%%$&&&&O%%%X&&&&&@%%%&&&&&&%%%%&&%%%$&&&&O%%%X&%%%%%%%%%%%%%&&&$%%%%%%%%$&&o%%%&&&&&&&&&&&&&&&&&",
"&&&&&&&&&&&&&&&%%%%&&&&&&&&&&#%%%&&&&&%%%O&@%%% $%%%%%%%&@%%%$&&$%%%%%&&%%%%%%%%%%%O&&%%%%&&&&o%%%%&&&&&&%%% &&&&&%%%%&&&&&%%%%&@%%%$&&&&&&&&&&%%%O&&&&%%%%X&&&&&@%%%&&&&&&%%%%&&%%%%&&&&#%%%&&%%%%$%%%%%%%%&&&&XO%%%%%%%&&$%%%&&&&&&&&&&&&&&&&&",
"&&&&&&&&&&&&&&&%%%%&&&&&&&&&&o%%%$&&&o%%% &@%%%$+%%%%%%%&@%%%$&&&&o%%%&&%%%%%%%%%%%&&&%%%%%%%%%%%%%&&&&&&%%% &&&&&%%%%&&&&&%%%%&@%%%$&&&&&&&&&&%%%%%%%%%%%%X&&&&&@%%%&&&&&&%%%%&&o%%%O&&&o%%%&&%%%%&%%%%%%%%&&&&&&&&&O%%%o&O%%%&&&&&&&&&&&&&&&&&",
"&&&&&&&&&&&&&&&%%%%&&&&&&&&&&&%%%%%%%%%%%+&@%%%$&O%%%%%%&@%%%$&&&& %%%&&%%%%%%%%%%.&&&%%%%%%%%%%%%%&&&&&&%%% &&&&&%%%%&&&&&%%%%&@%%%$&&&&&&&&&&%%%%%%%%%%%%X&&&&&@%%%&&&&&&%%%%&&%%%%%%%%%%%O&&%%%%&o%%%%%%%&&&&&&&&&&%%%X&&%%%&&&&&&&&&&&&&&&&&",
"&&&&&&&&&&&&&&&%%%%&&&&&oXX&&&X%%%%%%%%%X&&@%%%$&$%%%%%%&@%%%$&&&& %%%&&%%%%%%%%%%&&&&%%%%%%%%%%%%%&&&&&&%%% &&&&&%%%%&&&&&%%%%&@%%%$&&&&&&&&&&%%%%%%%%%%%%X&&&&&@%%%&&&&&&%%%%&&&$%%%%%%%%%&&&%%%%&&%%%%%%%&%%%@&&&&&%%%%&&%%%&&&&&&&&&&&&&&&&&",
"&&&&&&&&&&&&&&&%%%%&&&&&%%%$&&&o%%%%%%%X&&&@%%%$&&%%%%%%&@%%%$&&&& %%%&&%%%$&&%%%%O&&&%%%%%%%%%%%%%&&&&&&%%% &&&&&%%%%&&&&&%%%%&@%%%$&&&&&&&&&&%%%%%%%%%%%%X&&&&&@%%%&&&&&&%%%%&&&&$%%%%%%%.&&&%%%%&&o%%%%%%&%%%%&&&&&%%%%&&%%o&&&&&&&&&&&&&&&&&",
"&&&&&&&&&&&&&&&%%%%&&&&&%%%%&&&&&O%%OX &&&&@%%%$&& %%%%%&@%%%$&&&& %%%&&%%%$&&&O%%%&&&%%%%&&&&X%%%%&&&&&&%%% &&&&&%%%%&&&&&%%%%&@%%%$&&&&&&&&&&%%%o&&&&#%%%X&&&&&@%%%&&&&&&%%%%&&&&&$ o%O@&&&&&%%%%&&&%%%%%%&%%%%&&&&&%%%%&&%% &&&&&&&&&&&&&&&&&",
"&&&&&&&&&&&&&&&$%%%&&&&&%%%o&&&&&&&&&&&&&&&@%%%$&&&%%%%%&&%%%X&&&&%%%%&&%%%$&&&$%%%o&&%%%%&&&&&%%%%&&&&&&%%% &&&&&X%%%&&&&&%%%O&@%%%$&&&&&&&&&&%%%$&&&&O%%%X&&&&&@%%%&&&&&&%%%%&&&&&&&&&&&&&&&&%%%%&&&$%%%%%&%%%%&&&&&%%%X&&%%o&&&&&&&&&&&&&&&&&",
"&&&&&&&&&&&&&&& %%%o&&&$%%%$&&&&&&&&&&&&&&&@%%%$&&&O%%%%&&%%%o&&&o%%%o&&%%%$&&&&%%%O&&%%%%&&&&&%%%%&&&&&&%%% &&&&&O%%%$&&&o%%%#&@%%%@&&&&&&&&&&%%%$&&&&O%%%X&&&&&@%%%&&&&&&%%%%&&&&&&&&&&&&&&&&%%%%&&&$%%%%%&%%%%%&&&O%%%o&&&$&&&&&&&&&&&&&&&&&&",
"&&&&&&&&&&&&&&&X%%%%%%%%%%%&&&%%%%%%%%%%% &@%%%$&&&X%%%%&&%%%%%%%%%%%o&&%%%$&&&&$%%%&&%%%%&&&&&%%%%&&&&&&%%% &&&&&&%%%%%%%%%%% &@%%%%%%%%%%%o&&%%%$&&&&O%%%X&&&&&@%%%&&&&&&%%%%&&$%%%%%%%%%%o&&%%%%&&&&%%%%%&&%%%%%%%%%%%&&&&&&&&&&&&&&&&&&&&&&&",
"&&&&&&&&&&&&&&&&X%%%%%%%%%@&&X%%%%%%%%%%%o&@%%%$&&&&%%%%&&&%%%%%%%%%$&&&%%%$&&&& %%%&&%%%%&&&&&%%%%&&&&&&%%% &&&&&&X%%%%%%%%% &&@%%%%%%%%%%%%&&%%%$&&&&O%%%X&&&&&@%%%&&&&&&%%%%&&%%%%%%%%%%%%&&%%%%&&&&X%%%%&&#%%%%%%%%%#&&&&&&&&&&&&&&&&&&&&&&&",
"&&&&&&&&&&&&&&&&& %%%%%%%$&&&X%%%%%%%%%%%o&@%%%$&&&&%%%%&&&$%%%%%%%$&&&&%%%$&&&&X%%%&&%%%%&&&&&%%%%&&&&&&%%% &&&&&&&%%%%%%%% &&&@%%%%%%%%%%%%&&%%%$&&&&O%%%X&&&&&@%%%&&&&&&%%%%&&%%%%%%%%%%%%&&%%%%&&&&O%%%%&&&@%%%%%%%o&&&#%%%&&&&&&&&&&&&&&&&&",
"&&&&&&&&&&&&&&&&&&X $%%o&&&&&&O%%%%%%%%%%o&&O%o&&&&&o%%o&&&&&@O%o O&&&&&o%%@&&&&&o%O&&%%%X&&&&&%%%O&&&&&&O%%&&&&&&&&&&o%%O# &&&&&O%%%%%%%%%%O&&o%%@&&&&&o%O&&&&&&+%%$&&&&&&%%%X&&$%%%%%%%%%%o&&%%%X&&&&&O%%O&&&&@ $%%o&&&&&%%%%&&&&&&&&&&&&&&&&&",
"&&&&&&&&&&&&&&&&&&&&&&&&&&&&&&&&&&&&&&&&&&&&&&&&&&&&&&&&&&&&&&&&&&&&&&&&&&&&&&&&&&&&&&&&&&&&&&&&&&&&&&&&&&&&&&&&&&&&&&&&&&&&&&&&&&&&&&&&&&&&&&&&&&&&&&&&&&&&&&&&&&&&&&&&&&&&&&&&&&&&&&&&&&&&&&&&&&&&&&&&&&&&&&&&&&&&&&&&&&&%%%%&&&&&&&&&&&&&&&&&",
"&&&&&&&&&&&&&&&&&&&&&&&&&&&&&&&&&&&&&&&&&&&&&&&&&&&&&&&&&&&&&&&&&&&&&&&&&&&&&&&&&&&&&&&&&&&&&&&&&&&&&&&&&&&&&&&&&&&&&&&&&&&&&&&&&&&&&&&&&&&&&&&&&&&&&&&&&&&&&&&&&&&&&&&&&&&&&&&&&&&&&&&&&&&&&&&&&&&&&&&&&&&&&&&&&&&&&&&&&&&$%%$&&&&&&&&&&&&&&&&&",
"&&&&&&&&&&&&&&&&&&&&&&&&&&&&&&&&&&&&&&&&&&&&&&&&&&&&&&&&&&&&&&&&&&&&&&&&&&&&&&&&&&&&&&&&&&&&&&&&&&&&&&&&&&&&&&&&&&&&&&&&&&&&&&&&&&&&&&&&&&&&&&&&&&&&&&&&&&&&&&&&&&&&&&&&&&&&&&&&&&&&&&&&&&&&&&&&&&&&&&&&&&&&&&&&&&&&&&&&&&&&&&&&&&&&&&&&&&&&&&&&",
"&&&&&&&&&&&&&&&&&&&&&&&&&&&&&&&&&&&&&&&&&&&&&&&&&&&&&&&&&&&&&&&&&&&&&&&&&&&&&&&&&&&&&&&&&&&&&&&&&&&&&&&&&&&&&&&&&&&&&&&&&&&&&&&&&&&&&&&&&&&&&&&&&&&&&&&&&&&&&&&&&&&&&&&&&&&&&&&&&&&&&&&&&&&&&&&&&&&&&&&&&&&&&&&&&&&&&&&&&&&&&&&&&&&&&&&&&&&&&&&&",
"&&&&&&&&&&&&&&&&&&&&&&&&&&&&&&&&&&&&&&&&&&&&&&&&&&&&&&&&&&&&&&&&&&&&&&&&&&&&&&&&&&&&&&&&&&&&&&&&&&&&&&&&&&&&&&&&&&&&&&&&&&&&&&&&&&&&&&&&&&&&&&&&&&&&&&&&&&&&&&&&&&&&&&&&&&&&&&&&&&&&&&&&&&&&&&&&&&&&&&&&&&&&&&&&&&&&&&&&&&&&&&&&&&&&&&&&&&&&&&&&",
"&&&&&&&&&&&&&&&&&&&&&&&&&&&&&&&&&&&&&&&&&&&&&&&&&&&&&&&&&&&&&&&&&&&&&&&&&&&&&&&&&&&&&&&&&&&&&&&&&&&&&&&&&&&&&&&&&&&&&&&&&&&&&&&&&&&&&&&&&&&&&&&&&&&&&&&&&&&&&&&&&&&&&&&&&&&&&&&&&&&&&&&&&&&&&&&&&&&&&&&&&&&&&&&&&&&&&&&&&&&&&&&&&&&&&&&&&&&&&&&&",
"&&&&&&&&&&&&&&&&&&&&&&&&&&&&&&&&&&&&&&&&&&&&&&&&&&&&&&&&&&&&&&&&&&&&&&&&&&&&&&&&&&&&&&&&&&&&&&&&&&&&&&&&&&&&&&&&&&&&&&&&&&&&&&&&&&&&&&&&&&&&&&&&&&&&&&&&&&&&&&&&&&&&&&&&&&&&&&&&&&&&&&&&&&&&&&&&&&&&&&&&&&&&&&&&&&&&&&&&&&&&&&&&&&&&&&&&&&&&&&&&",
"&&&&&&&&&&&&&&&&&&&&&&&&&&&&&&&&&&&&&&&&&&&&&&&&&&&&&&&&&&&&&&&&&&&&&&&&&&&&&&&&&&&&&&&&&&&&&&&&&&&&&&&&&&&&&&&&&&&&&&&&&&&&&&&&&&&&&&&&&&&&&&&&&&&&&&&&&&&&&&&&&&&&&&&&&&&&&&&&&&&&&&&&&&&&&&&&&&&&&&&&&&&&&&&&&&&&&&&&&&&&&&&&&&&&&&&&&&&&&&&&",
"&&&&&&&&&&&&&&&&&&&&&&&&&&&&&&&&&&&&&&&&&&&&&&&&&&&&&&&&&&&&&&&&&&&&&&&&&&&&&&&&&&&&&&&&&&&&&&&&&&&&&&&&&&&&&&&&&&&&&&&&&&&&&&&&&&&&&&&&&&&&&&&&&&&&&&&&&&&&&&&&&&&&&&&&&&&&&&&&&&&&&&&&&&&&&&&&&&&&&&&&&&&&&&&&&&&&&&&&&&&&&&&&&&&&&&&&&&&&&&&&",
"&&&&&&&&&&&&&&&&&&&&&&&&&&&&&&&&&&&&&&&&&&&&&&&&&&&&&&&&&&&&&&&&&&&&&&&&&&&&&&&&&&&&&&&&&&&&&&&&&&&&&&&&&&&&&&&&&&&&&&&&&&&&&&&&&&&&&&&&&&&&&&&&&&&&&&&&&&&&&&&&&&&&&&&&&&&&&&&&&&&&&&&&&&&&&&&&&&&&&&&&&&&&&&&&&&&&&&&&&&&&&&&&&&&&&&&&&&&&&&&&",
"&&&&&&&&&&&&&&&&&&&&&&&&&&&&&&&&&&&&&&&&&&&&&&&&&&&&&&&&&&&&&&&&&&&&&&&&&&&&&&&&&&&&&&&&&&&&&&&&&&&&&&&&&&&&&&&&&&&&&&&&&&&&&&&&&&&&&&&&&&&&&&&&&&&&&&&&&&&&&&&&&&&&&&&&&&&&&&&&&&&&&&&&&&&&&&&&&&&&&&&&&&&&&&&&&&&&&&&&&&&&&&&&&&&&&&&&&&&&&&&&",
"&&&&&&&&&&&&&&&&&&&&&&&&&&&&&&&&&&&&&&&&&&&&&&&&&&&&&&&&&&&&&&&&&&&&&&&&&&&&&&&&&&&&&&&&&&&&&&&&&&&&&&&&&&&&&&&&&&&&&&&&&&&&&&&&&&&&&&&&&&&&&&&&&&&&&&&&&&&&&&&&&&&&&&&&&&&&&&&&&&&&&&&&&&&&&&&&&&&&&&&&&&&&&&&&&&&&&&&&&&&&&&&&&&&&&&&&&&&&&&&&",
"&&&&&&&&&&&&&&&&&&&&&&&&&&&&&&&&&&&&&&&&&&&&&&&&&&&&&&&&&&&&&&&&&&&&&&&&&&&&&&&&&&&&&&&&&&&&&&&&&&&&&&&&&&&&&&&&&&&&&&&&&&&&&&&&&&&&&&&&&&&&&&&&&&&&&&&&&&&&&&&&&&&&&&&&&&&&&&&&&&&&&&&&&&&&&&&&&&&&&&&&&&&&&&&&&&&&&&&&&&&&&&&&&&&&&&&&&&&&&&&&",
"&&&&&&&&&&&&&&&&&&&&&&&&&&&&&&&&&&&&&&&&&&&&&&&&&&&&&&&&&&&&&&&&&&&&&&&&&&&&&&&&&&&&&&&&&&&&&&&&&&&&&&&&&&&&&&&&&&&&&&&&&&&&&&&&&&&&&&&&&&&&&&&&&&&&&&&&&&&&&&&&&&&&&&&&&&&&&&&&&&&&&&&&&&&&&&&&&&&&&&&&&&&&&&&&&&&&&&&&&&&&&&&&&&&&&&&&&&&&&&&&",
"&&&&&&&&&&&&&&&&&&&&&&&&&&&&&&&&&&&&&&&&&&&&&&&&&&&&&&&&&&&&&&&&&&&&&&&&&&&&&&&&&&&&&&&&&&&&&&&&&&&&&&&&&&&&&&&&&&&&&&&&&&&&&&&&&&&&&&&&&&&&&&&&&&&&&&&&&&&&&&&&&&&&&&&&&&&&&&&&&&&&&&&&&&&&&&&&&&&&&&&&&&&&&&&&&&&&&&&&&&&&&&&&&&&&&&&&&&&&&&&&",
"&&&&&&&&&&&&&&&&&&&&&&&&&&&&&&&&&&&&&&&&&&&&&&&&&&&&&&&&&&&&&&&&&&&&&&&&&&&&&&&&&&&&&&&&&&&&&&&&&&&&&&&&&&&&&&&&&&&&&&&&&&&&&&&&&&&&&&&&&&&&&&&&&&&&&&&&&&&&&&&&&&&&&&&&&&&&&&&&&&&&&&&&&&&&&&&&&&&&&&&&&&&&&&&&&&&&&&&&&&&&&&&&&&&&&&&&&&&&&&&&",
"&&&&&&&&&&&&&&&&&&&&&&&&&&&&&&&&&&&&&&&&&&&&&&&&&&&&&&&&&&&&&&&&&&&&&&&&&&&&&&&&&&&&&&&&&&&&&&&&&&&&&&&&&&&&&&&&&&&&&&&&&&&&&&&&&&&&&&&&&&&&&&&&&&&&&&&&&&&&&&&&&&&&&&&&&&&&&&&&&&&&&&&&&&&&&&&&&&&&&&&&&&&&&&&&&&&&&&&&&&&&&&&&&&&&&&&&&&&&&&&&",
"&&&&&&&&&&&&&&&&&&&&&&&&&&&&&&&&&&&&&&&&&&&&&&&&&&&&&&&&&&&&&&&&&&&&&&&&&&&&&&&&&&&&&&&&&&&&&&&&&&&&&&&&&&&&&&&&&&&&&&&&&&&&&&&&&&&&&&&&&&&&&&&&&&&&&&&&&&&&&&&&&&&&&&&&&&&&&&&&&&&&&&&&&&&&&&&&&&&&&&&&&&&&&&&&&&&&&&&&&&&&&&&&&&&&&&&&&&&&&&&&",
"&&&&&&&&&&&&&&&&&&&&&&&&&&&&&&&&&&&&&&&&&&&&&&&&&&&&&&&&&&&&&&&&&&&&&&&&&&&&&&&&&&&&&&&&&&&&&&&&&&&&&&&&&&&&&&&&&&&&&&&&&&&&&&&&&&&&&&&&&&&&&&&&&&&&&&&&&&&&&&&&&&&&&&&&&&&&&&&&&&&&&&&&&&&&&&&&&&&&&&&&&&&&&&&&&&&&&&&&&&&&&&&&&&&&&&&&&&&&&&&&",
"&&&&&&&&&&&&&&&&&&&&&&&&&&&&&&&&&&&&&&&&&&&&&&&&&&&&&&&&&&&&&&&&&&&&&&&&&&&&&&&&&&&&&&&&&&&&&&&&&&&&&&&&&&&&&&&&&&&&&&&&&&&&&&&&&&&&&&&&&&&&&&&&&&&&&&&&&&&&&&&&&&&&&&&&&&&&&&&&&&&&&&&&&&&&&&&&&&&&&&&&&&&&&&&&&&&&&&&&&&&&&&&&&&&&&&&&&&&&&&&&",
"&&&&&&&&&&&&&&&&&&&&&&&&&&&&&&&&&&&&&&&&&&&&&&&&&&&&&&&&&&&&&&&&&&&&&&&&&&&&&&&&&&&&&&&&&&&&&&&&&&&&&&&&&&&&&&&&&&&&&&&&&&&&&&&&&&&&&&&&&&&&&&&&&&&&&&&&&&&&&&&&&&&&&&&&&&&&&&&&&&&&&&&&&&&&&&&&&&&&&&&&&&&&&&&&&&&&&&&&&&&&&&&&&&&&&&&&&&&&&&&&",
"&&&&&&&&&&&&&&&&&&&&&&&&&&&&&&&&&&&&&&&&&&&&&&&&&&&&&&&&&&&&&&&&&&&&&&&&&&&&&&&&&&&&&&&&&&&&&&&&&&&&&&&&&&&&&&&&&&&&&&&&&&&&&&&&&&&&&&&&&&&&&&&&&&&&&&&&&&&&&&&&&&&&&&&&&&&&&&&&&&&&&&&&&&&&&&&&&&&&&&&&&&&&&&&&&&&&&&&&&&&&&&&&&&&&&&&&&&&&&&&&",
"&&&&&&&&&&&&&&&&&&&&&&&&&&&&&&&&&&&&&&&&&&&&&&&&&&&&&&&&&&&&&&&&&&&&&&&&&&&&&&&&&&&&&&&&&&&&&&&&&&&&&&&&&&&&&&&&&&&&&&&&&&&&&&&&&&&&&&&&&&&&&&&&&&&&&&&&&&&&&&&&&&&&&&&&&&&&&&&&&&&&&&&&&&&&&&&&&&&&&&&&&&&&&&&&&&&&&&&&&&&&&&&&&&&&&&&&&&&&&&&&",
"&&&&&&&&&&&&&&&&&&&&&&&&&&&&&&&&&&&&&&&&&&&&&&&&&&&&&&&&&&&&&&&&&&&&&&&&&&&&&&&&&&&&&&&&&&&&&&&&&&&&&&&&&&&&&&&&&&&&&&&&&&&&&&&&&&&&&&&&&&&&&&&&&&&&&&&&&&&&&&&&&&&&&&&&&&&&&&&&&&&&&&&&&&&&&&&&&&&&&&&&&&&&&&&&&&&&&&&&&&&&&&&&&&&&&&&&&&&&&&&&",
"&&&&&&&&&&&&&&&&&&&&&&&&&&&&&&&&&&&&&&&&&&&&&&&&&&&&&&&&&&&&&&&&&&&&&&&&&&&&&&&&&&&&&&&&&&&&&&&&&&&&&&&&&&&&&&&&&&&&&&&&&&&&&&&&&&&&&&&&&&&&&&&&&&&&&&&&&&&&&&&&&&&&&&&&&&&&&&&&&&&&&&&&&&&&&&&&&&&&&&&&&&&&&&&&&&&&&&&&&&&&&&&&&&&&&&&&&&&&&&&&",
"&&&&&&&&&&&&&&&&&&&&&&&&&&&&&&&&&&&&&&&&&&&&&&&&&&&&&&&&&&&&&&&&&&&&&&&&&&&&&&&&&&&&&&&&&&&&&&&&&&&&&&&&&&&&&&&&&&&&&&&&&&&&&&&&&&&&&&&&&&&&&&&&&&&&&&&&&&&&&&&&&&&&&&&&&&&&&&&&&&&&&&&&&&&&&&&&&&&&&&&&&&&&&&&&&&&&&&&&&&&&&&&&&&&&&&&&&&&&&&&&",
"&&&&&&&&&&&&&&&&&&&&&&&&&&&&&&&&&&&&&&&&&&&&&&&&&&&&&&&&&&&&&&&&&&&&&&&&&&&&&&&&&&&&&&&&&&&&&&&&&&&&&&&&&&&&&&&&&&&&&&&&&&&&&&&&&&&&&&&&&&&&&&&&&&&&&&&&&&&&&&&&&&&&&&&&&&&&&&&&&&&&&&&&&&&&&&&&&&&&&&&&&&&&&&&&&&&&&&&&&&&&&&&&&&&&&&&&&&&&&&&&"
};
