/* XPM */
static char *result[] = {
/* columns rows colors chars-per-pixel */
"240 80 13 1 ",
"  c #F91316",
". c #F91317",
"X c #FA1316",
"o c #FA1217",
"O c #FA1317",
"+ c #F91417",
"@ c #FA1417",
"# c #F91218",
"$ c #F91318",
"% c #FA1318",
"& c #F91418",
"* c #FA1418",
"= c None",
/* pixels */
"================================================================================================================================================================================================================================================",
"================================================================================================================================================================================================================================================",
"================================================================================================================================================================================================================================================",
"================================================================================================================================================================================================================================================",
"================================================================================================================================================================================================================================================",
"================================================================================================================================================================================================================================================",
"================================================================================================================================================================================================================================================",
"================================================================================================================================================================================================================================================",
"================================================================================================================================================================================================================================================",
"================================================================================================================================================================================================================================================",
"================================================================================================================================================================================================================================================",
"================================================================================================================================================================================================================================================",
"================================================================================================================================================================================================================================================",
"================================================================================================================================================================================================================================================",
"================================================================================================================================================================================================================================================",
"================================================================================================================================================================================================================================================",
"==============================================*.==============================================O*============================================================================%*@===========$*====================================================",
"=====================================.O======**O=============================================$*O============================================**==============================O*.===========** ===================================================",
"====================================OO*======$O&=============================================+=.============================================OO===============================.============*O====================================================",
"====================================O*%======O=*=============================================.=O============================================================================%@============+O.===================================================",
"====================================OOO======*.*=============================================..O============================================================================OO============%..===================================================",
"====================================%.*O**===O+@*OO$#=========O*@O=================*.$$O.O*==+==O%*%*==========O+O%.======.%.*O+===$*O.=====$%====$%.OO+.========$+++O&.*=====@*$O@*======**&===== $O*@=========================================",
"====================================O*@***===&==*===*+======$*O****+=============+O@*=====*==.========O======%O+====@=====++*$&**O******====OO.==+O&%*O@*%======O&+@====O===========*=====**=====**O***O.=======================================",
"====================================@@+*+@===*==@ ===OO====+***@****.===========@@=O*+*===*==.====@====O==== @=$O*O@=O====OO$O$*OO**$*O*+===.+&==OO==%$***#====O=OO+O===%=======$====*====**====%**O.O***=======================================",
"====================================O@*======O==*=====@====**%====OO*===========*=*====$==.==+===&===.=O====@=.====$==.===$.$===OO*===+**===@O===@O.@===**%===$=%O===@=========%===.=..===O*&==&***===%OOO======================================",
"====================================O=O======O%.=======O==@%$O====+OO*=========.*=%=====#=O==%==@=======O===O=&=====.=.===.=O===O.%===o**===+*.==%*O====O**===+=+=====.=======&=====X=+===*O&==O**%====OOO======================================",
"====================================%$O======O *=======#==O$.O*****O*.=========&=.======O=O==.=@======%=O=================%@&===*$*===.**===&%.==@*O====OO*====*%=====@=*=====.=====*=#====O&==&**O******O======================================",
"====================================*O&======$=O=======*==+=**O******$=========$&$======$=o==$========O=$===@@.=====#=.===$O#===*=%===O**===&O.==O%O====%**===@O%=====o=======O=====&=@===%+&==+=@OO******======================================",
"====================================OO*======%*+=======#==O=O===================&%$=======$==&==@=====.=$===O=O=======O===@+@===O=*===@**===&O===@@O====%O*===*=+=====%=O===@=$=====*=O===@@&==*=+==============================================",
"====================================X**&=====&=.=======%===*=*====.*@===========*O.%===*==O==.&=*====+@=.===O=&&===O==.===$O#===*=O===.**===@O.==%*O====O**===*@OO===$==%===$=*%===@*=O===$%&==+==O====O@+======================================",
"=====================================%O**O===$=.===========++=O**O**&============#== #====$==$==@%@+*O=.=====$==%%#==&====@+.===+*%===*O*====$===O**====*O*====O==*O====O===.=&O*.O*O=====O*.===*=%*OOO**=======================================",
"======================================O***===**%=======.====+*@@$OO*==============$=======O==.&X*@O***O======#+=====@=====O..===*+O===***===+o.==O**====O**=====%=======+===+=*@O***+=====**=====OOO$$O**=======================================",
"========================================O+===**O=====++O======@*O*=================O%O@.=&$==@%@.$**$O=========@%*&$======*O====**O====O*===O@===+*%=====OO======&*O$*==@===+@.OO*%@======**======%+O+.=========================================",
"================================================================================================================================================================================================================================================",
"================================================================================================================================================================================================================================================",
"================================================================================================================================================================================================================================================",
"================================================================================================================================================================================================================================================",
"================================================================================================================================================================================================================================================",
"================================================================================================================================================================================================================================================",
"================================================================================================================================================================================================================================================",
"================================================================================================================================================================================================================================================",
"================================================================================================================================================================================================================================================",
"================================================================================================================================================================================================================================================",
"================================================================================================================================================================================================================================================",
"================================================================================================================================================================================================================================================",
"================================================================================================================================================================================================================================================",
"====================================================================================================================**==============================%O=======.O=================================================================================",
"====================================================================================================================OO=============================.O*======OO*=================================================================================",
"===================================================================================================================================================.*O======O*%=================================================================================",
"===================================================================================================================================================.O@======OOO=================================================================================",
"==============================================================$%.OO+.========O+O%.======*O$OO*@===O@.OOO==@O*O%=====$%===.%OOOOO=========&%O*======$.*O**$==%.*O**=======O*@O===================================================================",
"=============================================================+O&%*O@*%=====%O+====@=====O*=.@O*==@O*%OO**O*****+====OO.==**&O%O**@=====O**O***+====.OO***%==O*@***=====$*O****+=================================================================",
"=============================================================OO==%$***#=== @=$O*O@=O=======O**.==$O@$$.@&**O+OO*%===.+&==O==@$****====O***O%*%O$===&%%.*@===@@+*+@====+***@****.================================================================",
"=============================================================@O.@===**%===@=.====$==.=====O======&@.O==&OO@===***===@O===*@*===@**+===**O====@O*===.&%======O@*=======**%====OO*================================================================",
"=============================================================%*O====O**===O=&=====.=.=====X======O.@====+%O===$**===+*.==**$====**@==O%$+====&OO*==.@*======O=O======@%$O====+OO*===============================================================",
"=============================================================@*O====OO*===================&======&@$====+O&===***===&%.==**O====*O%==O++OO****O*O==$O$======%$O======O$.O*****O*.===============================================================",
"=============================================================O%O====%**===@@.=====#=.===O=.======@OO====$*O===@**===&O.==OOO====**@==&*O*O******%==$%@======*O&======+=**O******$===============================================================",
"=============================================================@@O====%O*===O=O=======O===+O&======+.O====*O$===***===&O===**%====*O@==*=O@==========O%$======OO*======O=O========================================================================",
"=============================================================%*O====O**===O=&&===O==.===%*=======&$O====O=.===O**===@O.==**O====***===O=.====@*@====**@=====X**&======*=*====.*@================================================================",
"=============================================================O**====*O*====$==%%#==&====+O=======O.@====*O.===*O*====$===***====*OO===O+=+OOOO*.====%O*** ===%O**O====++=O**O**&================================================================",
"=============================================================O**====O**====#+=====@=====&*=======+$O====*+.===***===+o.==**%====**O====*O**$$O$======$***O====O***=====+*@@$OO*=================================================================",
"=============================================================+*%=====OO======@%*&$======OO=======%*@====**====O**===O@===**#====.*@======*O*@.=========.+O======O+=======@*O*===================================================================",
"================================================================================================================================================================================================================================================",
"================================================================================================================================================================================================================================================",
"================================================================================================================================================================================================================================================",
"================================================================================================================================================================================================================================================",
"================================================================================================================================================================================================================================================",
"================================================================================================================================================================================================================================================",
"================================================================================================================================================================================================================================================",
"================================================================================================================================================================================================================================================",
"================================================================================================================================================================================================================================================",
"================================================================================================================================================================================================================================================",
"================================================================================================================================================================================================================================================",
"================================================================================================================================================================================================================================================",
"================================================================================================================================================================================================================================================",
"================================================================================================================================================================================================================================================",
"================================================================================================================================================================================================================================================",
"================================================================================================================================================================================================================================================",
"================================================================================================================================================================================================================================================",
"================================================================================================================================================================================================================================================"
};
