/* XPM */
static char *ec83171b998140df9030cb2d5a3cdc8f[] = {
/* columns rows colors chars-per-pixel */
"64 64 152 2 ",
"   c #181F29",
".  c #1D252E",
"X  c #1F2931",
"o  c #232B34",
"O  c #282F37",
"+  c #252E39",
"@  c #282F39",
"#  c #273139",
"$  c #2B333C",
"%  c #2D3740",
"&  c #323641",
"*  c #343B42",
"=  c #364147",
"-  c #3D4246",
";  c #364249",
":  c #3C454C",
">  c #3D494F",
",  c #3D4750",
"<  c #3D4B52",
"1  c #424347",
"2  c #46474A",
"3  c #444B4C",
"4  c #494D4D",
"5  c #49524F",
"6  c #434750",
"7  c #434C54",
"8  c #494D54",
"9  c #464E59",
"0  c #455056",
"q  c #4B5254",
"w  c #4F5857",
"e  c #455259",
"r  c #4B545B",
"t  c #46595C",
"y  c #4C5B5D",
"u  c #515555",
"i  c #525A57",
"p  c #52565B",
"a  c #525A5D",
"s  c #595D5F",
"d  c #4E615F",
"f  c #56605F",
"g  c #4D5660",
"h  c #4E5C62",
"j  c #525662",
"k  c #535D63",
"l  c #595E63",
"z  c #565E68",
"x  c #5B5F6A",
"c  c #4E6162",
"v  c #4E6368",
"b  c #546364",
"n  c #5A6465",
"m  c #546867",
"M  c #5D6867",
"N  c #55646A",
"B  c #5C646B",
"V  c #566A6C",
"C  c #5C6B6C",
"Z  c #5C716F",
"A  c #5E6571",
"S  c #5C6C72",
"D  c #567071",
"F  c #5E7373",
"G  c #5E7A76",
"H  c #5F777B",
"J  c #616367",
"K  c #61656C",
"L  c #626B6D",
"P  c #696D6E",
"I  c #65716F",
"U  c #626672",
"Y  c #646C73",
"T  c #696D73",
"R  c #676D79",
"E  c #6B6E7A",
"W  c #706F7F",
"Q  c #647374",
"!  c #6A7375",
"~  c #637976",
"^  c #647579",
"/  c #6C737B",
"(  c #657B7B",
")  c #6B7C7C",
"_  c #71747D",
"`  c #737A7D",
"'  c #7A7D7D",
"]  c #66817E",
"[  c #6A817E",
"{  c #6E7481",
"}  c #677D81",
"|  c #6B7E81",
" . c #737582",
".. c #787785",
"X. c #757A84",
"o. c #7A7B85",
"O. c #767789",
"+. c #767A89",
"@. c #7B7D8A",
"#. c #7D7E90",
"$. c #807F8E",
"%. c #668480",
"&. c #6C8482",
"*. c #658884",
"=. c #6D8985",
"-. c #6E8689",
";. c #6E8D89",
":. c #718585",
">. c #7B8284",
",. c #728A87",
"<. c #728689",
"1. c #7E828C",
"2. c #738C8A",
"3. c #798D8D",
"4. c #6D928C",
"5. c #74928D",
"6. c #79928F",
"7. c #7F8291",
"8. c #748E91",
"9. c #7A8E90",
"0. c #6F9692",
"q. c #759591",
"w. c #7A9492",
"e. c #759A94",
"r. c #7B9A95",
"t. c #759C98",
"y. c #7C9C99",
"u. c #7DA19B",
"i. c #7FA6A3",
"p. c #808183",
"a. c #81828D",
"s. c #82898C",
"d. c #848591",
"f. c #838B94",
"g. c #888C96",
"h. c #878E9A",
"j. c #8A8F9B",
"k. c #809495",
"l. c #819A97",
"z. c #86919A",
"x. c #8A929D",
"c. c #829D9A",
"v. c #90929E",
"b. c #83A29E",
"n. c #88A29F",
"m. c #8D95A1",
"M. c #8F98A1",
"N. c #9397A2",
"B. c #929AA6",
"V. c #9E9EAA",
"C. c #84A6A2",
"Z. c #81A9A1",
/* pixels */
"o.` X.>.` >.[ p.[ ' ' 4 J J l K C n L K P L K n f n M K f M M f I I ! L ! L R T C U B K x n p p s s s u x _ ` / ` ` ! ` _ o.o.J ",
"Y _ >.>.s.s.p.p.' p.4 P T P  .U ! Q ! ! Y ! L C L L I M M M I M f L ` I ! T R K A C / R T K l J s s L l T T o.>.>.` >.[ ` ' L s ",
"/ ) ! ! L I ! L P u u s _ ) X.` ^ I ) I ` I Q L L L I I I ] I M I Z I I L C J B R A ! Y R Y K n L L n l p x K B b n n n n K p 8 ",
"` X.! ! ! ! o.K s u u s L ! C L M M C C C M b n f m m f m Z M f f Z Z L B Y B n Y S Q m L L L n f n L a j U / x k L n L J n j p ",
"Q ) L ) X.) / j 8 l a r b b b c m f f f d d d b f d f d d f f d t f b f b C b a c b h c d y b y b f e a r Y Y r l Q L ! Q l q 8 ",
"` >.P Y X.B r 6 j 9 1 j Y ) F Z I I G m ~ V ~ ~ ] ] [ [ [ [ ] ] ~ ) ) ~ ^ ) ~ Q Q G V ( ~ C C Q F F ) N g % 9 9 n B Q ! ! L 0 q ",
"! ` ! ! ! p r x x x f.B N :.&.:.[ 3.[ [ =.,.=.5.5.,.4.5.e.5.5.6.] [ ,.,.:.,.[ [ 2.[ [ =.=.[ ^ ^ ) | F N e * z x K B C Y Y K r 9 ",
") ! ! ! k 7 x E .. .R g.A Y :.) ,.,.[ ] 5.] =.=.=.=.5.6.r.5.[ [ ] ~ ~ ) [ [ ) ,.2.&.r.=.,.6.&.:.:.<.N 9 9 A  . .U K k Y ! C j 8 ",
"Y ` Y ! x j Y @.$...{ R f.B S <.Q 3.3.w.=.%.;.q.r.5.4.e.5.e.=.] [ r.[ [ [ 6.[ r.5.e.[ [ %.2.2.9.| N e 9 x ..@./  .R ! _ L B 8 8 ",
"` ! p : 6 j x {  . .@. .E g.A B ^ &.^ =.&.( ;.4.e.e.e.e.r.u.4.*.5.b.l.[ ] [ r.[ [ 4.[ u.9.w.<.( h r e B O.+...@...L R u p 8 r 9 ",
"_ 4 8 q r * o Y ..{ E +. .A z.B V V F ^ =.=.;.t.r.e.e.e.e.4.] ] ] 6.;.] [ [ [ [ ] 5.e.u.8.( ( t e 7 A +.+.+.@.@./ q : n 8 a 8 7 ",
"- n x y g 7 , @ Y  .$. ./  .E x.z N { } ~ q.y.M.b.r.u.u.r.e.4.5.5.e.[ ] ] [ e.c.e.6.l.e.3.^ z e e A +.@.@.+.+...U 7 7 ! w l x s ",
"r k L B C C b : o A  .O.O.{ { U j.j h H } 9.w.t.e.e.e.e.u.4.e.e.u.e.] 4.[ r.b.n.[ [ ] ( &.h 0 < B  .1.+.O.+.{ N r y C ! B C L 4 ",
"n Y ! C n ^ <.b 6 o R {  .@.{  .{ m.A v A 8.8.t.e.0.e.4.u.e.u.e.[ b.[ r.6.[ [ 5.e.[ 5.I B e , Y ....1.@.O.{ A 9 C :.F Z b ` Y n ",
"Y N Y F Z [ [ ) g 9 o E O.{ { O.O.R z.A N -.8.q.4.4.4.0.u.e.u.e.[ [ 5.r.6.6.r.[ 6.[ [ V e e A +.@.a.@.+.{ N g z ^ 9.[ Q M Q C n ",
"b Y Q S C :.6.3.&.N 6 o U O.O.O.O.O.A z.N S &.w.e.e.4.Z.u.r.4.5.4.5.b.4.[ c.[ 6.[ [ Z w 7 A +.1.d...a.1.A 9 h ) 9.,.) ~ m Q n a ",
"B B Q c C -.:.3.-.} A , # R  .O.O.{ O.R h.z S } 8.0.*.0.;.u.r.5.6.,.] 5.5.q.9.-.) Y : 6 L X.o.>.a.o.o.B = b ~ ,.6.,.[ ~ L ! C a ",
"z B ^ C m &.<.2.-.&.( N 7 @ R {  .@.{ #.R B.A V } 8.0.y.u.y.5.5.[ [ ,.6.5.3.&.( N 8 6 J ` o._ X.o.@.a q y ! ] =.[ =.~ ~ M L B l ",
"z B ^ C N ( 2.=.2.&.3.| h , o R { { 7.{ #.S m.z D H -.y.8.C.2.5.6.l.6.b.c.3.&.C 9 : J $.@..._ a._ K 8 r ! ,.,.,.[ ,.~ Z B ! B x ",
"y b B m V | w.q.2.=.-.F } k 7 o R O.O.+.@.+.R m.V v -.%.%.8.( ( 2.6.5.,.2.%.v < 7 l W $._ _ +._ x 9 B C 3.,.,.[ 2.] m I C C a n ",
"C Z Z V F ~ &.=.=.=.2.3.( A y : o R ..{ +.1.{ R z.v V H ( ^ | ,.[ l.l.6.%.t t 7 B  ...W  ..._ x 8 y ) ) 9.) ~ [ [ 3.) Z b ! Y B ",
"M C I C F ~ ] 5.&.=.w.) <.:.} N ; @ R {  .+.X.X.R m.h R A <.| | ) ~ ~ Q b 0 7 b  .{ .._ ..E p r r S X.| :.) [ ) :.[ I Q B C b C ",
"n C ! C m Q ~ &.&.D 3.&.&.( :.^ g 7 @ A  . . .+. .E z.k h C ^ | &.,.[ C e : Y X.@...@.../ l r N C ^ | &.^ :.:.[ ,.[ ^ Q C Y B b ",
"B n ) Z m ~ [ &.] &.&.&.( ^ ) | F z 7 % Y / +.+.1.+.E x.N A Q { / Y v : : B 1.o.o.@._ R B > z C S %.&.^ ,.:.Q :.! [ ) Q b C B n ",
"C M [ ! n Q ,.:.,.,.:.[ ) [ ) ) | +.N ; $ R { 7.+.@.@.E g.l U / ! j 9 6 x o...$.X.1.! b t N S ) 2.| w.&.2.2.&.) ,.>.! ~ C b L M ",
"C ! ` L C ) [ ,.k.^ ) ,.) &.3.:.-.^ F N ; # { +.1.o.$...R j.x j r 6 8 J $.o.d.$.+.| A t V ( ,.( w.9.w.&.) &.) ) [ ) Q Q ! ) Q d ",
"L Y Q ! n ^ :.:.) 2.,.) [ ) ) ~ 3.<.} F h 9 o } +.@.....O.Y m.r 9 6 x ..o.o...a.X.N t m &.( =.*.( ;.&.%.F =.| :.:.[ ) [ L Q C n ",
"Q P Q ! b ! <.| ( ) [ ) ~ Q ~ [ :.:.<.( } e , X R .._  .E  .B N.R J ...._ X. .1.N t c F %.&.( &.w.w.&.%.2.,.&.~ ) ! C ! C ! Q ~ ",
"C ! ^ Y C Q | <.) &.| &.&.| ( &.&.3.] =.~ ~ S < o R O. . .{ +./ _ _ ` o.a...o.n h v &.( =.2.,.:.%.&.^ %.%.&.&.3.:.,.^ ) C ! Y M ",
"C ! ) F S ~ | <.&.&.3.9.&.&.,.) [ [ [ r.w.5.<.V 7 . U  .E +.{  .E _ _ o...W B < m C &.=.6.6.,.6.<.2.| 2.;.*.&.-.[ ,.Z ) Q ~ ! L ",
"Q Q ) ~ m ) -.<.&.&.} &.2.] ( 6.,.~ =.=.q.q.;.^ h 7 o x  ./ +./  ./ / _ Y z 6 b Z ) [ ] ,.[ ) [ l.<.8.&.M.;.;.F 3.) m ~ ! ) ! ^ ",
"I [ | ~ S 2.&.w.<.H ~ -.[ &.,.] ,.[ e.] G ;.2.( ^ N * . /  .R ../ Y / _ g.6 z ^ [ 5.,.] 6.Z ) ^ &.-.9.r.2.q.3.5.w.2.) [ ! ` ) ) ",
"n ! :.C C ^ :.&.&.-.| | } F &.2.&.2.2.;.%.8.| } S N * o ` _ _ $. .E _ _ V.p p ^ ^ -.;.3.q.( ~ [ b.r.&.5.r.w.r.q.w.w.:.Q L Q Q b ",
"f C :.L C ^ | :.<.| ~ &.k.&.,.<.%.*.&.-.} | -.} V e 9 N ` ..o._ E ..W ..W v.j g ^ w.;.*.;.q.F =.5.4.~ w.9.%.&.8.( -.! Q L I I m ",
"b C Q C b C :.&.( | ~ 3.<.<.:.q.&.3.-.9.-.8.<.V g , r / ..@.E _ _  ...o..._ f.l N ^ } y.] =.6.5.G *.,.~ 3.( 2.] %.&.) ! L ! L f ",
"n k ! C m ) X.[ <.| &.^ | 3.2.3.( w.9.w.| } V e < S  ./ .. ._ o. .E o...d.E R z.z H <.w.y.w.&.5.5.( F ) w.] %.=.%.:.C ! L I I f ",
"p n M L L :.3.&.&.,.( [ G <.| 2.;.9.} ^ H A < , z 7.+.{ @.+./ & . A o.+...@._ U m.N H } 3.:.2.&.6.5.[ [ 3.,.4.[ 2.) Q P K ! L f ",
"a l C a n ,.:.,.&.&.[ [ &.H | ^ -.-.-.A N , 7 A O.7.1.+./ ^ x : * o ! 1.+...O...A h.h V &.2.5.G [ [ [ ) ,.~ [ =.5.6.~ ! L K L f ",
"p B n n m ^ [ [ ,.=.] 5.9.;.} ~ | } H z g 7 B  .+./ X.+.{ A 9 r e > o A +. .+.@.O.A m.V V -.&.&.=.,.[ ,.,.,.=.e.;.&.) I n J f f ",
"s L L k f Q ~ ,.2.=.r.&.;.2.} -.+.} h t < x  . . .1./ { B e A A ^ b 7 + A O.#.O.#.+.A z.N F | =.5.,.[ ) 2.[ =.4.4.=.~ L M n m a ",
"i B C w m ^ =.5.5.5.[ =.] 4.8.q.} V 9 9 z O.@./ +.+.X.z , Y F ^ ( ( N < # { O.#.#.O.{ S 7.A S -.~ 6.:.w.=.%.*.e.e.=.~ C y M a y ",
"i k Q n b ( ;.=.4.5.5.r.5.5.-.( N 9 9 N +.@. .@.{ X.C h v ( | 2.&.( &.D < + { { { O.+.O.{ y.V V ~ &.( 9.( ] *.0.u.5.[ Z y n b f ",
"e B L h C ~ [ 6.%.q.2.y.q.| } h g 7 A @.1.X.+.@.{ z < z &.-.2.&.*.-.2.-.v < # A  . .{ +.{ x h.x A V ^ &.%.2.;.0.0.4.] m e b n b ",
"r i N k d Z ;.r.2.2.t.2.<.^ N < < A O.+.+.+.+.X.B e N | <.-.=.;.;.C.q.;.;.v e o U  .@. .{ { { h.N F / } ( e.e.i.b.u.=.Z b n n w ",
"g k B b m ~ r.b.,.2.&.( } h 7 6 B +.1.X.X.1.{ N h h H =.] 4.] ] q.y.0.y.8.D N < o U  .....E { R z.N h ^ | -.w.u.e.5.[ m n n n a ",
"q z z r c F ,.2.w.&.3.^ N r 7 R .. .1.a.{ / S < N :.-.2.5.4.0.e.t.-.0.0.8.q.2.v 7 o E W ..@.{ { { m.z A F -.y.y.e.q.[ Q f n b w ",
"j k B N b ^ 6.[ 2.( Q N 9 9 K @...@.+.+. .N g N :.6.[ 4.b.4.4.e.0.t.i.0.0.;.( &.g 9 o E @.{ { O.O.A h.A A -.w.8.;.;.Q Z a a n p ",
"9 k n g C &.k.,.2.S N 9 8 U $.o.g.@.7.@.B 7 h A 2.;.u.4.4.] 4.e.t.t.t.t.;.q.y.&.| B 1 o Y { O.O.O.O.{ j.B } H r.t.q.~ Q b n k r ",
"r l g y V | -.<.X.N : r U _ $.$.@.o.X.l 8 h ^ :.&.=.q.&.4.r.r.4.u.t.u.t.t.y.2.;.&.^ A , + / { X.O.{ +.R m.z S -.-.8.H S c a b f ",
"r k h y V | } ^ b < 3 x ` ...._ 1. .n p r ^ [ &.,.=.=.5.] 5.0.e.4.t.u.e.2.;.5.;.-.-.F V ; # ^ { { #.{ #.R B.N A } w.^ S b y n a ",
"r a e y C &.) n , e B X.$.$...$./ B r e B X.) Q =.G ] *.4.4.r.u.5.u.e.5.5.q.w.&.3.| <.X.N = # Y {  .#.{ 7.S x.N A D S N y n M w ",
"8 k k r n N k 8 6 B  . ._ .._ _ l r B Y 3.3.2.] =.;.] =.[ ;.q.q.=.e.q.e.;.q.r.5.3.-.<.^ ^ N : X R O.{ O.1.+./ x.g z ^ S b k y q ",
"! P q 3 a 0 : 7 P _ o._ _ o.W B 7 h ^ / 3.&.[ ~ [ ,.=.4.e.4.,.4.u.e.e.6.5.5.=.;.&.%.9.&.! F N 7 + R +.{ +.1. .Y B.j y B q 8 >.! ",
"L ! Q ! I = = B _ _ _ .._ E k 8 t Q :.&.) &.~ ] ;.=.,.=.b.,.4.4.e.,.r.5.5.=.] 6.;.9.3.<.:.:.) k , + R {  .+.X.o.Y >.: >.` s.p.u ",
"L I I ! P 3 k ' $._ ..o./ z j h N ^ | ) ) ,.[ 2.6.;.=.6.4.6.=.=.6.6.[ ] =.;.( ] ] V <.2.,.~ :.^ h < @ A  . .+.X.X.n ! >.>.` w q ",
"I K f q 4 > P ' $.' ` / x 9 h A ^ ) &.&.,.&.( ,.~ ] 6.6.[ ,.6.;.[ b.[ ,.~ ,.] =.[ ,.,.) Q [ ^ ) } g , % Y ! X.o.o.K L Y 8 n u 4 ",
"I I L M w K ! ! _ $._ x q A Q F 3.&.w.&.,.9.[ [ 6.[ ,.] 2.=.&.w.r.[ [ ] ) [ 3.[ 2.,.[ :.[ ) ) >.9.| B : O Y _ o.T X.>.` L M 5 q ",
"I I f J M J J P _ J l 8 n { <.^ 3.3.9.<.) :.~ ) ~ ~ ,.,.6.,.:.,.6.5.6.,.] [ >.,.3.[ ) ) ` [ ,.2.| :.^ b 3 o T Y s.s.>.! n I w i ",
"I I f m I n J P P ' $ p / B ^ F S F C C C Q C ~ I ~ ! I ) ~ [ ) I M M m Q ! ~ Z Q Q Q Q L I Q N ) S C B 0 $ ' _ >.3.! I L L i 5 ",
"M L f M M J ! ! _ u P T / ) } ( :.&.) ) ) ) ! ~ ) ) [ ~ ) ) &.[ [ [ ] ) [ [ [ [ ) [ ` ) ! ! ! ! X.) ) / Q o.X.' ` P L L I L 5 w ",
"P ! f P L M L J s u s p L I Q C n M n C M b C I M L I I Q C Z C I ^ ! Q ! ! Z Q L Q L B P K n K a f n b p _ ' K J I f I I f u 5 ",
"I P u f J n s J J P l s L / I ! Y Q I C ! L ! I ) ) ) ! ! ^ ~ ) ) ) ^ ) [ >.! ! ) ! L C ! P x J Y L L J s ' ! s f f M f I P i u ",
"P f 2 5 q 2 * 8 4 2 p J P L C ! L L L n I I P I I ! ) ~ ) ! I ) ) ) { &.) ) ! ) ` ! K K T T K P J T T J s._ 4 5 5 w 3 3 5 5 u u ",
"s 1 4 5 4 2 4 7 1 2 q l a n n n n n K B n L n L M K I L Q ! C ) ^ ! ! ^ ! ) ! ! L L L L J n s s J J J p _ 8 8 - - 3 2 4 5 4 4 u "
};
