/* XPM */
static char *result[] = {
/* columns rows colors chars-per-pixel */
"64 64 106 2 ",
"   c #110C07",
".  c #150F0A",
"X  c #16110B",
"o  c #1C150D",
"O  c #1F190F",
"+  c #171411",
"@  c #1C1711",
"#  c #1D1914",
"$  c #1E1C19",
"%  c #20180F",
"&  c #241C14",
"*  c #281F15",
"=  c #211E1A",
"-  c #262017",
";  c #292116",
":  c #26221C",
">  c #2C241A",
",  c #2E291F",
"<  c #31271B",
"1  c #342A1D",
"2  c #3A2D1E",
"3  c #3E301F",
"4  c #272520",
"5  c #292621",
"6  c #2C2A24",
"7  c #2E2C28",
"8  c #342D23",
"9  c #3A2E20",
"0  c #322E29",
"q  c #363124",
"w  c #3D3223",
"e  c #35312B",
"r  c #3B352C",
"t  c #3E382B",
"y  c #3B3730",
"u  c #3D3931",
"i  c #423525",
"p  c #463827",
"a  c #483927",
"s  c #433728",
"d  c #453A2A",
"f  c #4A3D2C",
"g  c #433D34",
"h  c #4B3F30",
"j  c #423F38",
"k  c #4D412E",
"l  c #51432F",
"z  c #464036",
"x  c #4C4232",
"c  c #464239",
"v  c #4A453B",
"b  c #4E483E",
"n  c #524532",
"m  c #554935",
"M  c #5A4B35",
"N  c #534B3B",
"B  c #5B4D3A",
"V  c #5D513D",
"C  c #614F37",
"Z  c #63533D",
"A  c #4E4A41",
"S  c #534D43",
"D  c #565146",
"F  c #595245",
"G  c #565249",
"H  c #5B554A",
"J  c #5E594D",
"K  c #5F5B50",
"L  c #645641",
"P  c #685742",
"I  c #665843",
"U  c #6B5C44",
"Y  c #625B4E",
"T  c #6C5D49",
"R  c #705E45",
"E  c #705F48",
"W  c #625D52",
"Q  c #6F6147",
"!  c #66604F",
"~  c #6E614B",
"^  c #706046",
"/  c #72634B",
"(  c #77694F",
")  c #666155",
"_  c #6A6354",
"`  c #666258",
"'  c #6E6659",
"]  c #6F685B",
"[  c #736650",
"{  c #786752",
"}  c #766850",
"|  c #7B6C54",
" . c #70675A",
".. c #726A5D",
"X. c #7D6F5B",
"o. c #7F7156",
"O. c #7F7058",
"+. c #766E61",
"@. c #777062",
"#. c #7A7265",
"$. c #7D7669",
"%. c #817256",
"&. c #817359",
"*. c #80786B",
"=. c #847C70",
"-. c None",
/* pixels */
"V k B m l k f M B V Z n n V Z Z V V k m m Z x k m V Z U n Z B n x B n B Z B M B M Z Z Z B B m m k m x m m d n k M Z Z m M B M L ",
"f & , > - - - & , o M % ; 3 1 q 2 < < - , l o 1 , 1 , ; * > & a w % > < 8 < < > & o M > & > w w , > 1 1 1 w o , , 1 > e s 8 ; x ",
"f : w w > 1 2 1 w % M - ; i p p i i 2 > < l # 1 1 a 1 1 9 1 * i w % 1 9 2 2 9 < ; o n 8 & 1 a f i 2 2 9 , w + 8 2 a > i f 3 , k ",
"x > n U U V Z F k , Z 1 w ^ | ( U ( L w w V , d L Z T I B s * 9 w & a Z U T Z F w & Z s 8 Z | | U Z I f t k > d V / Z L ( k < k ",
"k > N 5 5 5 : 5 5 5 5 5 6 q 6 q e 0 0 0 e e 7 : # T L T h 1 * 9 a & 9 P E I e 6 7 e 0 0 0 0 e e e e e 6 5 5 5 5 6 5 $ # : f > x ",
"x > V c v v v u g g c D g z A D H H F H D S S e # Z T ~ V w * i a @ i | E [ u j v Y S J H H D H F J v u S b r g y u u : 5 f ; n ",
"k > F H H H J H J J J b H _ _ _ ] _ ) ) ) J A e $ V m V n 9 , f s & a C Z Z j G S S H ' ] +.+. .@.@._ Y g K H J S J v 5 6 f ; k ",
"k : m H D J H S J Y ) .._ ] ] .._ _ ! _ N G H e # I x B m 1 > n 9 $ 9 Z Z L j S S H H H ....+...]  ..._ #.) J G J J b 5 : i ; m ",
"f : m c S S Y Y J H v N _  ._  ._ _ Y Y  ._ A e $ n n m s < : f i & 2 a L Z N H D H K +...+... ... ... .Y c W S G J v 5 4 w > m ",
"f : I W S c S S D z D _ Y  ._ _ ! _ ! F F Y D e $ L h n n a > a i @ f U P P c H S S H J H +..._  . ...Y  .W j J F A u : 6 n > m ",
"x * m W J S H Y ' ' ) _ ] _ _ _ _ ! v H K D A e $ T n N B 9 * a s & w M n M u S S J J G J D  ..... .+.+. . . .W W F v 6 7 s > n ",
"f : L g g g g g N +...] ] +...X. .] ] W S D D y # T I { | i * a s @ i E [ T j S D S Y J J $.$.#.$.#.#.#.+.*.*.b z c e & = f 8 n ",
"f : V F F Y N N A J W ] ' J W K J H J G S H H 0 $ I T I M i * i s @ a B E T j S S S S S S J H J J W J J W Y J S F Y S 5 0 f < n ",
"x > V W H ) S J J H W W J S H S G S S D S J F u $ M s 9 f i & a w & a n f f g S G G S S S S H H F H H H J J S H W H D : 7 a , x ",
"x % q .._ _ ' _ S c W Y S S v W J S J S G G c y $ 8 + . o o o a i o % o & % c J S c S G S S D J J g D J S H c S W ..S 0 r & % n ",
"m 1 f Y ..S A J v H D J Y H S A Y J D A D S D 5 # n i f i 3 2 a f i i i i i g H c H H H v G J H G H S S H Y D c S F c 0 : i a B ",
"M f m H ..N t G G J D G F D v D F J G v J H G e # F n I M f h f f m m h f f A S J H H H b S H J S S H S J S S A F c g 0 5 n M Z ",
"n O x ' D _ ' J D c S G G F G G J G G D b b c t # d , & > , X i f & < 8 9 8 A Y S v b b S J H J J G Y J J H b G J #.F 5 e w & M ",
"x @ m ` J _ F G ] G F K S D D G J J H J J F G y # d 1 1 9 2 % i f & i a a 9 j Y S J b H H S H H H J D J H J S D F H H 7 7 w > M ",
"x & Z Y F F F H t J J K J H K W ) J J J H K G u # L E B B a o i d * f E [ [ A H H D G S H J W _ W W W W W ) W z D Y S 5 6 f > B ",
"k # m ` J W K ` ` @.......] ] @.....#._ J F v y $ I L L L 9 % a f & i n | T g H S S S D W ..@.$.#.#...#.#.#.*.W W K A 6 7 i > B ",
"k # B W ! J J K ' ] _ ' _ _ _ ...._ D c ) D c 7 + L T T &.9 o f g * s T %.[ A A A b H W b F ......+._  . .Y ..W W K A 5 7 p < B ",
"k @ V H D G G A G F H ' _ ' ' ] ...._ Y u D D e # B M B m 9 % f g * f Z R Z c D D Y H v J ' +....... .W  .H A Y G G c 4 6 f 8 n ",
"x & N v H H D D D H F N _ ....@..._ ......G D e $ T B B L 9 % f i * w B / U c A Y H W +._ ...... .' ' _ F F W J H W c 5 = d < n ",
"k O n J D b S S b S J ] ! ..@.] _ .. . .N z J e $ N B n h 1 % f i * s h U P v D J F v N _ ....] _ Y Y W +.J S K W S g : 5 t , n ",
"k - V D H J H G S J S G J ] ........_ J ..H r e $ I M m Z i % a s 4 h E E P g A J v F _ H ..] .._ ! _ H D G H J G H j 4 5 n > n ",
"k # m J H D S G G G G J K G @..._ _  ._ ..Y _ u $ U x n Z 1 % a w * d B C F j H ) ..) _ _ _ @...! _ S S W S S G S v c 4 5 a > n ",
"n # B A D S S S S G N F J #.#.@.$.@.X...@...] 7 + T C ( | 2 * a 8 * h X.| [ w g N .. .+.X...+.@. . .+.J K S D S S G c 5 4 f ; n ",
"k # B J D c S S H G D S S G H J J K H ` ` ` J e $ L Z I B 9 & f 9 * h E { E v D A ) ` J K ) ) ) Y W Y D S S G S S J g 5 7 n > n ",
"n # M v J H S S S b S S b D N D A A D F H D D e $ B w i f w * f 9 * f B h f g Y J D D H D S J D Y H S H J S S G D K c 5 : n 8 n ",
"k o , J v ! S b S c b S H D S G H c A A N G c y $ q X X . o % a w % % % % * W Y D z S S J A v D H D F F S S v H S S j = , * & n ",
"k 3 x _ @.` S b v G H J c D b G D G b F F G S 6 $ x 1 a w 2 2 a h 9 a i i s j S b H H J W S S S S J H v S G S g H H N 0 0 i 3 n ",
"n f B  .#.Y S S H H Y H j H H S S v D H H J A 0 = B i B n f n 3 f f B M h n e K K H H J J S c H D H J c D S S S D H A 0 0 n l n ",
"d & d F G D A D D c A j D S S S S b S S H J g y = x * & & < & 2 s % < 8 9 9 H K D v S G J F S D J H J H g c c S H F c 5 = w > f ",
"p * h H W S Y Y D H H S D H D D S S S H H H S j $ x < < 2 < * i i & 9 9 i i g S ) Y D F H H D J D S G S S H F S G S c 5 7 a ; f ",
"t : F W D j S H S H D D S Y W Y H J J J W H Y 5 # U L U M i * 9 9 & f M U L c H y ) _ J J K W K W H W D S D G S S H r = 6 m < n ",
"i & n S D D A H D H D S W X.#.+.#.$.+...+.#.#.g $ ~ C T M < * 9 i = 9 C E L A K W #.+.#.#... ... .#. .J S H S H H c c : 5 f < n ",
"s : m D G H G j j b H Y b S ..+.'  .+.' ' ..` j $ ~ I T E 1 & 9 s * w | E E j K ) ..W _ .. ._ _  .Y F v F H b c c S c 5 5 x 8 f ",
"w > N H S H S S S D D h Y .... .....' `  .W A y $ Z L B n 2 * 2 i * 9 B P E j A J H F _ ....' Y ' !  .F g D S H H S j 5 : h 8 l ",
"s , x H D Y H H G G G +.' +...' ......+.S G H t $ Y L M M 1 * i 9 = 9 L Z / c D J Y H F #...[ Y  ._ _ Y ] J S S H D g : 5 a 8 n ",
"d : x c H J J H S Y h H  . ...+.#. .+._ #.W J u $ m B l f < ; 2 a = 1 a Z / v F Y H W *.W .. ._ ]  .!  .N z ` D H S j : = a 8 f ",
"f , m D v c b D D b H  .W  .' ' _ ' ' F A J H u $ T P l Z 9 * i s & w T P E j D D Y Y H H  .' W _ ! ! J ] J u F b v u = 4 h 9 l ",
"k : x J Y F J J W +.W +.+. .' ' _ ' b H W H S 0 $ T f g B < & 2 w & 2 m h M g S A S S H Y H +.' _ ! )  ...] ] K D S v 4 5 w 8 n ",
"d , m z g c g z S #.+.$.+.+.+.....+...J J S S u = E C I | 2 * i i & 9 / U T g S S H H H J #.+.+.....#.@.......z g d r $ = a 1 n ",
"s > B Y I H H F S W W W W J J W K W J J H D A 0 $ U M B C 2 & i a @ 2 / C I g D S S S D D Y ` W Y ) ) W J J J D S F v : 6 a 8 f ",
"s : B H D ' H W Y D D H W J S S H S D S S H A e # L s w f i & i s @ 2 B f N j S S S S H D H D A D F H S S D G J Y N F : 5 a < n ",
"s # w ' W _ ..) D b H Y H H S H S S J H H K c y # 9 o . . . % 3 a .   & o * j D S c D G D D S S G g S S H H A S W ..S 7 0 & & n ",
"k 3 x F  .S A F b D S J Y D S D H H W c D D b 7 = f i i i 3 2 i x i i 9 2 i v H v S D S c D S D J J S D S S D z D S u 6 : a i M ",
"m k V F ..b u D S A S S H D b J J H F b H F A e # V n k m f f i n n M n f l c S G S A H c J J J H S H S S D A b D g t 0 5 m f l ",
"k % z ' Y  . .H H c S S H S D S J J H D c v u e # z ; - > & % a a X & 1 < w c S G v c g F H H H A A S S F S c D H @.D 6 e w ; k ",
"x - m ) )  .D D W H Y G S S A H H H D F J G D e # n < > i > * a p o < 2 9 i c H G H S S S S S S H S S S S S S H H Y D 6 0 p > f ",
"k - Z H Y H Y D u J W W W J H J G ` J F D D F e # / Z Z P 9 & i w o i Z T L c D H H S S S J W H W J K W J H J z H Y b 5 7 n > f ",
"k # n ` K ` ` K ) #.+.O.+..... .' ' X.Y H F D t # ( m U f 1 & i w O 1 M / F t S S H S S Y +.+.#.+...+...+.#.*.W J K A 5 6 p > f ",
"k - k H N b N V c z H x b N Y N N N c r t N 7 t b Q B U M 9 & i 9 o 2 P ( T F h t 8 N d q g _ B N _ N m z N z c S V F N F f ; f ",
"n & k M Q I m w 2 O B > 1 l U Z ( U n < - M X < k V B m B w & i 2 o 9 M Z T C w < X B 1 > f ( | Z C a w > w @ q p m T T V k ; d ",
"n = q N I Z m n 2 O M > 2 M Z Z ^ Z m < ; k X < / B Z n n 8 & i w o 1 M Z / B V < . n 1 & m L [ C B V w > w @ w M n U Z V s ; k ",
"k # w w Z V p s 1 o M ; 1 d n C R n a , ; f o , B w Z l i 1 & i w o 1 p Z Z f d > X l 1 & k m } M l k q 1 s @ q p w U L d w ; k ",
"V r I o.( Q Q F k q / s k Q o.( | &./ f s Z 6 k _ o.} I / m t m m 8 m / ( %./ L s 1 Z k t I o.&./ ^ I m x N q m I [ X.| X.B d V ",
"-.-.-.-.-.-.-.-.-.-.-.-.-.-.-.-.-.-.-.-.-.-.-.-.-.-.-.-.-.-.-.-.-.-.-.-.-.-.-.-.-.-.-.-.-.-.-.-.-.-.-.-.-.-.-.-.-.-.-.-.-.-.-.-.",
"-.-.-.-.-.-.-.-.-.-.-.-.-.-.-.-.-.-.-.-.-.-.-.-.-.-.-.-.-.-.-.-.-.-.-.-.-.-.-.-.-.-.-.-.-.-.-.-.-.-.-.-.-.-.-.-.-.-.-.-.-.-.-.-.",
"-.-.-.-.-.-.-.-.-.-.-.-.-.-.-.-.-.-.-.-.-.-.-.-.-.-.-.-.-.-.-.-.-.-.-.-.-.-.-.-.-.-.-.-.-.-.-.-.-.-.-.-.-.-.-.-.-.-.-.-.-.-.-.-.",
"-.-.-.-.-.-.-.-.-.-.-.-.-.-.-.-.-.-.-.-.-.-.-.-.-.-.-.-.-.-.-.-.-.-.-.-.-.-.-.-.-.-.-.-.-.-.-.-.-.-.-.-.-.-.-.-.-.-.-.-.-.-.-.-.",
"-.-.-.-.-.-.-.-.-.-.-.-.-.-.-.-.-.-.-.-.-.-.-.-.-.-.-.-.-.-.-.-.-.-.-.-.-.-.-.-.-.-.-.-.-.-.-.-.-.-.-.-.-.-.-.-.-.-.-.-.-.-.-.-.",
"-.-.-.-.-.-.-.-.-.-.-.-.-.-.-.-.-.-.-.-.-.-.-.-.-.-.-.-.-.-.-.-.-.-.-.-.-.-.-.-.-.-.-.-.-.-.-.-.-.-.-.-.-.-.-.-.-.-.-.-.-.-.-.-."
};
