/* XPM */
static char *b7329bab1ce9486b92e0191f6b982878[] = {
/* columns rows colors chars-per-pixel */
"64 64 253 2 ",
"   c #17060F",
".  c #1B0B14",
"X  c #1C0A14",
"o  c #220C17",
"O  c #240E1A",
"+  c #2B0D1D",
"@  c #320F1E",
"#  c #2C111E",
"$  c #340F22",
"%  c #2E1222",
"&  c #321324",
"*  c #35162A",
"=  c #3B1529",
"-  c #3D162B",
";  c #3E1B32",
":  c #44182D",
">  c #471C36",
",  c #4B1B34",
"<  c #571D39",
"1  c #641D3B",
"2  c #4C223C",
"3  c #54213D",
"4  c #5B233D",
"5  c #63213C",
"6  c #5D1F40",
"7  c #5B2444",
"8  c #582446",
"9  c #642444",
"0  c #67274A",
"q  c #6B2A4C",
"w  c #75274B",
"e  c #67334F",
"r  c #662C56",
"t  c #6D2C54",
"y  c #742C54",
"u  c #7B2D54",
"i  c #772D59",
"p  c #6B3258",
"a  c #77375A",
"s  c #7C325C",
"d  c #782F65",
"f  c #7B3864",
"g  c #71425C",
"h  c #7D466B",
"j  c #862D58",
"k  c #87345C",
"l  c #90305A",
"z  c #A4315F",
"x  c #8D3563",
"c  c #883968",
"v  c #8C396F",
"b  c #963768",
"n  c #983D75",
"m  c #A63A6B",
"M  c #B0366E",
"N  c #A53D75",
"B  c #B43B76",
"V  c #CA3C75",
"C  c #83415F",
"Z  c #88456A",
"A  c #904B71",
"S  c #984578",
"D  c #995476",
"F  c #A1426E",
"G  c #A2427B",
"H  c #A74778",
"J  c #B2437C",
"K  c #B9457B",
"L  c #A6547C",
"P  c #8F6177",
"I  c #C7477E",
"U  c #D1427C",
"Y  c #9A3C82",
"T  c #9F4884",
"R  c #9B5584",
"E  c #AC4582",
"W  c #A74A85",
"Q  c #B74887",
"!  c #BB4B84",
"~  c #A95987",
"^  c #BA5788",
"/  c #B94D94",
"(  c #AD5791",
")  c #B95795",
"_  c #AB6789",
"`  c #B6638B",
"'  c #AA6297",
"]  c #B86597",
"[  c #B77599",
"{  c #BF56A3",
"}  c #BD68A4",
"|  c #BC76A5",
" . c #C64B87",
".. c #D54C8C",
"X. c #C6558C",
"o. c #D4538C",
"O. c #C84E94",
"+. c #C85797",
"@. c #D75997",
"#. c #EA5492",
"$. c #E45898",
"%. c #CD6B94",
"&. c #C76599",
"*. c #D7649A",
"=. c #C8729C",
"-. c #E7649C",
";. c #F1649A",
":. c #CB5CA4",
">. c #D65BA5",
",. c #D257AB",
"<. c #DA5EB4",
"1. c #E35CA3",
"2. c #CA68A8",
"3. c #D868A7",
"4. c #DC63AC",
"5. c #CA76A7",
"6. c #D778A7",
"7. c #DC73AB",
"8. c #D969B4",
"9. c #CB75B1",
"0. c #DA77B7",
"q. c #E769A8",
"w. c #F16BA9",
"e. c #E776AA",
"r. c #E473AC",
"t. c #F277A9",
"y. c #E365B2",
"u. c #E66AB4",
"i. c #EB6BB2",
"p. c #EC6BBC",
"a. c #F36AB9",
"s. c #ED72B5",
"d. c #EB7CB4",
"f. c #E578B8",
"g. c #ED7CBC",
"h. c #F27CB4",
"j. c #F376B8",
"k. c #F37DBD",
"l. c #DE71C2",
"z. c #EC73C2",
"x. c #EC7BC6",
"c. c #F272C4",
"v. c #F37CC4",
"b. c #F075CC",
"n. c #F47CCB",
"m. c #B194A5",
"M. c #CA85A7",
"N. c #D583AC",
"B. c #CF92AE",
"V. c #CC88B6",
"C. c #D887B6",
"Z. c #CE99B9",
"A. c #D897BA",
"S. c #EE83AD",
"D. c #E783B8",
"F. c #EC8CBC",
"G. c #F383B3",
"H. c #F38AB5",
"J. c #F383BB",
"K. c #F48CBC",
"L. c #E796BC",
"P. c #F596BD",
"I. c #D6A3BC",
"U. c #E7A2BD",
"Y. c #DF8DC5",
"T. c #DC96C3",
"R. c #EA87C6",
"E. c #F483C3",
"W. c #F48BC3",
"Q. c #FA8CC6",
"!. c #F584CB",
"~. c #F58CCC",
"^. c #EA97C6",
"/. c #F593C4",
"(. c #F59AC4",
"). c #F594CB",
"_. c #F996C9",
"`. c #F59CCB",
"'. c #F689D6",
"]. c #EB9BD2",
"[. c #F594D2",
"{. c #F895D4",
"}. c #F59CD3",
"|. c #F99BD4",
" X c #F995DA",
".X c #F499D9",
"XX c #F99EDB",
"oX c #DBA8C6",
"OX c #D6B3C5",
"+X c #E9A7C9",
"@X c #E5AACB",
"#X c #F6A3CB",
"$X c #F7A6C9",
"%X c #FAA3CC",
"&X c #F6AACC",
"*X c #E2B3CC",
"=X c #F8B4CF",
"-X c #EBAAD4",
";X c #F5A4D2",
":X c #F9A3D3",
">X c #F5ACD3",
",X c #F9ABD4",
"<X c #F6A4DB",
"1X c #F9A4DB",
"2X c #F4ACDC",
"3X c #FAACDC",
"4X c #ECB9D6",
"5X c #F5B3D4",
"6X c #F9B3D5",
"7X c #F4BAD5",
"8X c #F9BCD6",
"9X c #F5B3DC",
"0X c #FAB4DB",
"qX c #F5BBDB",
"wX c #FABBDC",
"eX c #FB97E4",
"rX c #FAA4E3",
"tX c #F7A9E2",
"yX c #FAACE1",
"uX c #EEB0E1",
"iX c #FAB5E3",
"pX c #FBBCE3",
"aX c #FCB4EB",
"sX c #FABAE9",
"dX c #EAC4D9",
"fX c #F6C5D8",
"gX c #F5C2DD",
"hX c #FAC3DD",
"jX c #FACADD",
"kX c #ECD1DE",
"lX c #EEC6E3",
"zX c #FBC4E3",
"xX c #F5C9E4",
"cX c #FBCCE4",
"vX c #FCC4EA",
"bX c #FCCCEA",
"nX c #F5D2E4",
"mX c #FBD3E6",
"MX c #FAD9E7",
"NX c #FCD4EB",
"BX c #FCDBEC",
"VX c #FDCBF1",
"CX c #FDD5F2",
"ZX c #FDDCF2",
"AX c #FCE2EE",
"SX c #F9E6EF",
"DX c #FDE4F3",
"FX c #FBE8F7",
"GX c #FDEBF5",
"HX c #FEEDF8",
"JX c #FDF1F6",
"KX c #FEF4FA",
"LX c #FFFCFD",
/* pixels */
",XK.s.~.v.z.4.S ] ZXLX2.; * ; f dXiX).cXbXFXFXx J @.r.8XmXcXhXDXhXGXLXGXr.+XxXDXLXLXLXLXLXcXcXwX8X5XnXZXMX,XjX#XJ.(.jXAX=X$.m F ",
"&XW.W.NXFXFXpX{ 2.CXDXh * * 8 A gX{.i.R.NXHXFXM.a e A C.jXcX6XBX`.cXSXGXGXBXDXcXGXJXGXJXJXhX/.cXBXzXhXhX,X(.BXwX6X(.*.r.X.u - K ",
"^.3.;XJXLXLXLXtXl.uXpX> * * d :.9Xj.O.H qXKXHXNX;XK._.mXAXGXFXFXwXbXMX(.wXBXBXBXGXDXBXGXGXhXK.J.8XmX%Xj.a.k.AXDXNX! < 5 , O O H ",
"5X6.^.LXLXJXCXCX9X].bXp 8 d :.^.,Xg.b S 4XLXHXBX8XW.F.,XwXBX-XZ.dXbXBXwXnXnXZXBXAXMXmXGXGX6Xt.H.X.L.BX0Xv.,XDXpXD.8 O X o o X m ",
"&X5XqXZX-X5.) R.-XBX).S Q y.).DX>XjX@XdXHXI.g Z X.#X6.W.;X).u.) T.bXBXDXHXmXNXBXNXcXBXLXAXH.$.K Z q 7.zXBXGXZX5.7 & O O X . # ! ",
"gXK.o.X.Q S E.4.0.ZX3Xy.~.<XpXDXcXDXLXKXI.x , 4 I 1.J.0X0X:X~.3XpXcXbXcXDXDXNXMXcX5XGXLXfXw.K u k : > +.BXpXR.p * % + . .   h d.",
"5.^.l j $.v y.4.O.5XBX0XbX@XA ( mXBXBXDX=.y , , N &.pXNXbXiX3XiX1XpXvXpXDXJXmXcX(.%XMXJXjXt.m J ~ 3 & G mXCX[.+.i 2 q u < p L.4.",
"4 f.Z : H x G G N 9.DXLXGXM.m J F.W.6X7X+.u : = q `.DXBXbXZXDXvXiXZXNX|.bXFXDX0X(.jXJXJXfXH.K 6.%Xq.N f.DXJXNX1X!.f.3.v.g.:X[.f ",
"S E.a   % u 8 0 y W bXDX5X#XK.k.&X1.J.,X5.Q S v 6.Q.iXFXKXKXFXsX3XCXbXn.[.bXGXAXzXMXLXGXjX#Xr.^.i.r.R.1X@XiXDXFXvXNXvXvX@X} n & ",
"c f.f X . . . . O c -XCXcXcX6XwX5X .q.3XNX0X~.@.<X}.<XBXFXJXlX2..XCXHX'.!.0XDXLXJXGXJXmXmXcXQ.3X}.bXNX| 2.iXVXCXZXFXHX@XS T ( 8 ",
"; N.&.= X X X O X t -XDXJXNX0XFXD k  .L.DXDX_.J :.!..XtXCXFXT.:.eXR lXsXn.!.0XGXLXKXJXmXBXGX,XE.wXvX[.5.R.l.rXaXZXsXZX^.4.]. XW ",
"8 oXK.y O . X O + i qXxXhX%Xh.8X2 = J &XFXpX/ k k 9.n.[.tXCX8.} aXA p 2Xn.p.|.vXJXLXGXcXmXGXwX}.<X0XCXpX,./ n.aXFXvXbXyXiXZXCXf.",
"3.BXzX@.3 o O Z +.2.jX5.X.d.s.8X[ F e.hX`.g.b Z Z -XbXvXXX[.VXDXaX{ p 9.v.>.k.:XBXKXDX,X8XDXBXbXzXvXGXrX'.b.eXVXGXBX1XvXZXJXFXNX",
"qXDXGX(.&.2 P vXpX0.@.q x q.,X%XBXhXjXmXwXwX*XcXKXLXDX<Xc.E.ZXFXrX9.( -Xu.N O.E.nXAXBXcXmXBXBXAXwXmXJXpXuXtXrXVX| V.iX!.pXCXBXnX",
"q.0XDXqX^.D.0X<X+.i y 3 t @.d.^ L.fXmX8XjX`.cXKXFXAXcXwX!.[.ZXDXbXpXv.vXu./ 7.`.DXJXDXDXBXmXNXGXBX4X9XZ.T ( <..X*XoXbXx.] T.pXr.",
"(.N.F._.3.S t p < % # O & q q 9 6.$Xt.@.,X`.cXBX@X5.] nX3X<XZXDXsXXX3XpX).:X`.,XcXLXFXBXpX|.W.GX,X:.3.) 2 2 i 9.HXKXpXq.s b +Xd.",
"=.I q.8XnXgX=.=     O : 8 y q @.:XK l U.LXKXjXhXX.n oXLXAXcXpXpX!.`.AXBXBXFXD.v ] ZXpX|.8.Q `.JXmX[.qXzXv 8 r ].KXHX:XO.k X.W.8X",
"-.P.cXnXhXAXD.s ! ) / ( O.c ; Q :X@.@XLXLXLXAXnXq.&.MXLXKX>X@.) / W.BXBXGXBXW.S ! tXDX@XG O.W.nXCX3XDXDXzXT.V.vXtX3X0Xi.@.wXcX(.",
"nXLXLXKXmXcX/ 7 <.!.n.n.y.N t E q.#XwXGXKXNX8X(.q. .5XMXAX+Xj H :XbXwXvXhX&.O.Q c tXFXV.v >.!.3XZXKXHXFXqXbXKXiXp.1.}.%X&XGX$X#X",
"LXLXLXKXDXbXi ~ tXvXCX{.z.O.Q Q w cXzX6XcX6XH.q.$.r.fXL.3.`.Q >.wX3X~.}.>X&.n ) 8 ~.vXW s >.!.iXZXLXZXFXbXiXZXzXW.O.>.6XjXjX*.r.",
"MXKXLXGXGX}.c !.bXGXDXeXc.4.W i x MXqX@.6.^ K U l ^ 6.u ! wXy.Q C.2X{.~.`.>XR.~.c 9.VX| W y.'.iXFXJXCXFXaX!.2X<X0Xs.@.qX(.e. .@.",
",XcXAXBX0X^ S f.iXNXFXaXrXpX-XC.@XFXdXM J 1 5 m b L X.k 3.mXs.8.@XbX0X|.iXFXiXf.2.v tXR.<.n. XsXFXKXCXVX Xz.R..XpXbX9XZXwX#XF.F.",
"cXwXZX3XW i <.p..XaXtXR.8.[.NXFXFXJXHX`.P.+.*.*.I =.h...F./.w.d.NXKXDXbX0.:.R.z.p 2.uXVX'.[.sXVXFXDXHXKXXX].( -XzXGXZXmXBXBXAXBX",
"AXGXBXbXA.y.XXvXVXeX'.z.4.1XzXqXBXFXKXnX%X6XBXH.V _ ,X/.cX(.K e V.DXLX+X< t n T r n.CXGXbXtXVXHXFXCXVXsX'.tXW T !.0X3.D.>X/.8XAX",
"^.nXhXDXJXzXbXNXNXyX<X.X!.<X' v @XGXLXzXe.I H.U.=XfXMXMXAXfXA.L gXMXDXA.A g A 8.2. XpXvXFXDXZXlX' uXaXeXl.} 2 r R.<X8 0 b b +.3.",
"k -.^.cXLXzX).|.3XV.] 2.C.f.~ dXKXkXOX#XI I P.MXP.t.mXMXmXjXAXjXmX0X8XcXBXDXCX0X2XuX9Xx.1XDXKXxXY { '.aXuXd ; ( vX} + % O % , , ",
"9 ! K.hXHXBX;XpX!./ d v >.-XSXLXOXA 9 d.U.S.SXJXS.#.H.MXP.fXU.U.bX_.#X,XwXBXDX}.+.3.<Xc.n.XXvXBXb.eXrXZX.X2 p tXCXA.m.S 1 - O # ",
"@ : H _.MXNX:XwX'.z.2.2.9XzXzX%Xi.N < =.U.F P S.fX;.P.fXfXP.P.jX;Xt.(.h.$XhXNXcX4.g.0X|.|.3XBXbX'..XCXFXT % D ] T.ZXHX).r.L : # ",
": $ u S.8XDX0XR.qXiXpXmX_.v.`.,X`.q.z A K : @ 1 =XS.8XMX=XfXSXfX(.w.e.$X$.l L qX).0XcXZXmXvXnX2XuX2X].r > ~ V.J j.6XJXMXMXN.< @ ",
"U X.u *.wXGX8X+.v g.cXNXE.wXjXcXMX&X$.w j 5 1 1 fXL.I fXS.S.8XMX$XG.-.(.6.9 u q.qXvXFX4X3.C.[ dXFXsX].Y.0.;XC.2.;X^.7.t.J.$X*.z ",
"P.8Xo.@.6XBXhX`./.mXBXzX/.,XcXP.$XzXe.w K U U U U.U.U.jX;.S.MXMXMXSXAX&XjXZ.I.xXxXM.) Q J n 0 r iX{.b.pXbXbXD.N x 9 5 w o.fXMXt.",
"jX=XH.H.(.NXcXcXDXBX0X3XzXwX5.J $.h.X.k P.=XP.;.t.P.fXSX=XfXMXfX=XMXMXMXM.7XDXBX7Xu j N  .+.J W [.p.>./ ) zX2Xr.! x q w e.jXMXjX",
"LXAXGXSXcXGXBX0X/.3.+.i.|.mX[ x l b x e.MXMX$XG.P.;.G.jXfXG.jX&X;.e.U.P.%.U.JXHX6X..m o.y.W.:X}.-XJ y > 4 pX^.(.P.q.#.S.U.mXAXJX",
"mXmXGXGXLXMX*.X.u j J i.,XNXT.J 4 - 5 ` NXMXmXjX8X*.#.8XAXfXMXH.t.fXfX;.I I.LXSX*.7.F.d.W.0XBXBXOX, & X & (.[ k P.%X=XMXJX=XP.8X",
"w.AXmXmXGXhX-.m 5 b @.Q.0XzXNX8X$XC.%.^ 8X6XcXAX6.M q.&XAXLXjXP.P.MXAXS.V I.JXSX$XjX6XDXHXLXLXGXOX3 & ; # r.` @ 3 4 4 H %. .o.#.",
"K MX6XwXBXAX$Xo.m  .i._.wXBXJXLXGXjX&XjX&.%.7XhXe.G.K.5XJXLXjXP.P.AXSXH.U I.MX$XjX&X8XGXLXLXGXKXOX9 n J , *._     X o j w & : 5 ",
"L wXjX`.cXGXBX6Xh.G./.,XjXhXFXAX=XS.#./.^ &.0XQ.fX=.B $.AXJXjXfXfX=X=XH.;.fXjXjXqXq.&XGXLXBXhXzXA.9 - a N S.N.3 o 4 5 l F = @ : ",
"jXfXr.u.`.NXhXcXcXfXP._.D.L M.+XP.w.#.J.#X$XDXDX*X< , ` MXHXmXjXfX=XH.o.X.=X%XcX6Xl o.$XcXNXcXBXU.b k : ! &XM.D.D : l l b : @ [ ",
"BX7.b L.d.wX(.6XhXG.t.G.j : k ! d.#XD.,XzXbXFXGX5XW H @X=X(.jXMX%.V M j L _.J.wX,X< w K 7.P.8XDXnX^ @.l ^.&.K ~ 6.H , j q @ = jX",
"W.b , A.r.r.6XmXjX$Xw.X.F 5 J q.K.5XzX6.H :.pXwXBXjXwX8Xq.@.H.GX*XF w 4 ^ :Xq.g.5X%.w 2 j  ._.wXAXM.N -.fXr.wXr.b N.+.j : O @ 4X",
"@.7 b R.MXg.h._.,XcXt.M o. .r.6XjXqXw.u.k.f.[.p.<Xk.h.@.N b *.jXAXJX&XK D.jXu.n -X/.@.I k b d./.&XS.$.cXwXBXLXBXW.o.;X5X^.a 7 ;X",
") G E.-XC.d.`.1.q.%XzX+X@.q.3X0XzX/.>.F.g.2X4.J b n @.Q u F e.K.AXMXH.fXAXDXW.J C.cX6XW.w.o.@.K 3.(.cXcXX._ HXLXBXDX`.K.nX^.O.9X",
"p x.oXg j g.r./ @.W.6XcXNX,X_.K.r.i.:X^.) Y.v 8 7 i &.7.d.D.L.U.jXjXG.t.6XGXcXJ. .7XGXDXwXQ.>.q P AXAX%X+.9 9.DXDXzXDXnXmXBX:X>X",
"C.R.' N 8.|.3XpXzXcXNXGXKXGX5Xf.Q u.0XR.d V.T n / 3.9XbX_ M.` l C B.8XP.$XMXLX_. ...8XKXDXcX_.N.kXLXxX>XE.! c } Z.[ 5.A.>XvXBXNX",
" X!.].3XbXJXFXNXBXNXBXKXLXLXBX9X@Xv.pXuX2.^.]..X<XvX0X] k ) X.K 5 w nXK.H.$X+X&X..J k._.zXcX,X0XAXBXGXBX[.x.2.Q +.+.@.R.iXZXHXZX",
"ZXCXHXKXFX1Xn.E.W.;XcXLXLXGXmX0XBXNXHXDX2XiXVXHXZX9X&.b 3.(.jXF.I 1 7X=X(.&XG.e.d.n O.E.mX}.!.BX7XE.3XBXSXCXXXn.XXtX[.( Z A | FX",
"ZXKXCXXX{.n.a.c.E.%XnXLXLXnX0X:X3XzXR.x.R.tXFXCXzXQ.7./.$X&XDX5XP.S.MXcX4XD w k d.6.>.Q.mXpXNXpXV.B u.:XCXKXDXvXvX2.c 8 p v :.bX",
"aXCX'.c.{.~.Q._.%X,XBXLXKXzX,X3X|.pXyX.XtXb.iXbX3XE.vX9XE.w.K.q.e.H MXGX*X3 : u +.#X9XnXZXZ.3XFXN.0 G 4.[.vXHXLX^.l.W ,.y.n.XXHX",
"tXDXn.c.}.3X:X#X0XjXAXLXKXcX0XiX3XiXFXvXZXaXbXKXvXzXNX,X4. .K u x F MX0XqX] ~ @.i.).N.-XCX9.ZXSX@Xf 8 8 { eXCXKXVXCX.X.XpXCXDXKX",
"tXbX[.iX0XzXzXwXcXBXDXLXKXDXbXpXaXZXJXbXFXKXFXDXCXFXKXFX4XoX_ $ + 0 MX:XW.k.j.s.s.:XuXFXpXV.OXZXvXS * * T b.VXFXaXCXCXCXZXHXbXVX",
"2XvXx.0.gXmXBXBXBXKXKXFXFXCXzXiXZXLXLXKXLXLXFXVXZXZXpXDXFXCXkXI.[ Z.FXwX`.s.g.r.R.v.'.ZX9.r r ' h 8 * ; Y l.aXVXeXaXFXHXZXvX3XvX",
"9XBXQ.X.7.cXJXKXLXLXLXDXBXvXpXVXKXLXLXLXLXLXKXZXFXDXbXCXDXBXpX0XhX4XF.4.p._.pXwXwXy.0.-X-X9.f 8 ; * * ; T <.eXCXtXrXZXLXLXKXbXiX",
"GXD.+X6X;X8XMXJXGXJXLXGXZXbXbXHXFXHXLXLXKXFXKXLXDXKXNX.X).bX,X_._.5.E  .>.k.zXZXvX/ 5.|.bXLXyXv * * * > W l.rXCXZXsXn.^.2Xp.!.DX",
"<XN &.zXBXmXDX#Xh.>.W.,XBXbXFXDXZXDXKXLXLXFXLXHXbXbXBXZX`.>XcX^.i.F.S > n u.~.zXNXQ C.vXZXLXLXR : 3 c :.,.'.VXKXVXb./ ,.W x.}.JX",
"+.a e.,X6XfXGXNX6X/.W.).BXCXDXbXCXDXHXLXLXLXLXbX XXXpX9XzX#XBX;X~.|.4.< # S {.vXBX8.0XDXbXNXCX4Xn 2.Q.yXrXvXFXKXtX<.n W W ~.BXmX",
"6 c `.(.q.8XjXhXAXbXwX<XbXBXiXzXNXNXZXDXHXLXKXpXz.4.pX,XJ.ZXDXAXDXA.~ 8 2 9 2.sXbXsXbXNX3XpX<X:X{.vXvX0XpXHXFXDXsX'.4.y.2.@XFXD.",
": A DXC.m *.%X).6X|.vXzXNX1XiX2XzXNXNXDXKXLXHX3XO.f ^ nX6XLXKXJXLX5.c Q T 8 r C.bX'.R.zX}.2.:.+.-XKXDX1XpXHXHXFXNXsX3X[.).mXbX! ",
": q D 8 y  .:XwX6XzXNXDXZXbXNX1X:XbXNXDXDXFXFXwXE 7 y f.BXLXhXcXmX9Xz.x.z.l.8.<XvX<.n.yX)./ Q n ~ CXFXbXNXLXJXJXZXxXmX,X;XL.&Xk ",
"2 , , , L gXBX,X0X#XBXFXFXDXFXNX[.3XbXCXZXFXHXZX .i 4 X.jXBX0X~.z.}.ZXDXHXbXl.rXFX XiXpX~.4.q 3 f 4XLXFXBXLXLXLXLXFXqX1.q.$X^ , ",
"4 a D D.bXcX<X|.!.,.lXJXFXaXiXNXiX9XzXZXKXDXGXnX! 4 w  .5XJX%X2.s k 4XCXDXiXz.pXBXiXiXNXpX).s 3 8 ] DXKXLXLXJXJXKXLXDXnX+X@XF.9 ",
"B.mXmXGXDXbXpX3X.Xb.uXFXsXaXn.l.2.T.ZXZXLXDX0Xs.&.` *.h.jXJX&X6.S x A.wX<X8.D.sXBXpXvXFXDX,XQ 4 0 | BXKXLXGXAXGXNXBXGXMXAXGX$XF ",
"JXGXJXLXHXmXzX9XrX} T.l.2.aX2X].] S ZXKXLXBX,Xi.Q.wXhX&XjXHXAXzX^.E.0Xy.2.b ~ xXcXiXNXLXHX|.! c Z.xXFXFXBXzXGXBX8XwXBXGXjX$X&Xw.",
"D.mXLXLXLXFXxX3X2.) ].r r 8.tXZXBX].<XDXLXzXzXBXqXNXBXBXmXMXjXe.C.BXLXf.,.c c 4XDXNXGXLXJX0Xr.dXDXNXcXMXMXAXBXhX_.`.MXLXAX8X&X6X",
"H D.hXzX0XbXvX].) R.ZXr * 8 5.3XBXvX1XNXBXcXhX/.,XjXhXjXcX8XjXI.N.HXLXAXy.E E -XLXLXLXLXLXJXcXmXcX9XpXBXvXhXhX`.h./.BXLXMXP.q.K."
};
