/* XPM */
static char *result[] = {
/* columns rows colors chars-per-pixel */
"64 64 210 2 ",
"   c #0A0907",
".  c #14100A",
"X  c #1F190E",
"o  c #141515",
"O  c #121718",
"+  c #151B1C",
"@  c #1B1D1D",
"#  c #2D1B09",
"$  c #36240B",
"%  c #21201E",
"&  c #2F2919",
"*  c #342E1C",
"=  c #181F20",
"-  c #1C2324",
";  c #1E2728",
":  c #1F2829",
">  c #232423",
",  c #282725",
"<  c #2A2927",
"1  c #222728",
"2  c #232B2C",
"3  c #2C2D2B",
"4  c #302F2D",
"5  c #3C3724",
"6  c #31312E",
"7  c #252F30",
"8  c #282F31",
"9  c #273133",
"0  c #2A3335",
"q  c #2B3738",
"w  c #2E3A3C",
"e  c #343533",
"r  c #383735",
"t  c #3A3936",
"y  c #323B3C",
"u  c #3D3C3A",
"i  c #472F11",
"p  c #563516",
"a  c #533813",
"s  c #6C3910",
"d  c #403F3D",
"f  c #68461A",
"g  c #784B15",
"h  c #42423D",
"j  c #754520",
"k  c #2F3E40",
"l  c #323F40",
"z  c #393F40",
"x  c #344244",
"c  c #3B4344",
"v  c #364649",
"b  c #3A4748",
"n  c #37484B",
"m  c #3B4A4D",
"M  c #3D4E51",
"N  c #3E5154",
"B  c #414645",
"V  c #434748",
"C  c #434B4C",
"Z  c #4A4D4C",
"A  c #52514E",
"S  c #414F51",
"D  c #484F50",
"F  c #425355",
"G  c #4A5354",
"H  c #435659",
"J  c #4A5759",
"K  c #455A5D",
"L  c #4B5B5D",
"P  c #545452",
"I  c #525B5C",
"U  c #5C5C5A",
"Y  c #52615D",
"T  c #61615F",
"R  c #475E61",
"E  c #4B5E61",
"W  c #525F60",
"Q  c #4C6265",
"!  c #4E6669",
"~  c #4F696C",
"^  c #526365",
"/  c #596263",
"(  c #5D6864",
")  c #526669",
"_  c #5B6769",
"`  c #536A6D",
"'  c #5B6B6E",
"]  c #546E72",
"[  c #5A6E71",
"{  c #567175",
"}  c #5B7275",
"|  c #577479",
" . c #5B7579",
".. c #5D797D",
"X. c #666664",
"o. c #636C6D",
"O. c #69726F",
"+. c #71706D",
"@. c #637375",
"#. c #6B7373",
"$. c #627679",
"%. c #6B7779",
"&. c #637A7D",
"*. c #6A7B7D",
"=. c #787C77",
"-. c #737D7E",
";. c #975B15",
":. c #A45F1B",
">. c #8B552A",
",. c #A86920",
"<. c #A77D3C",
"1. c #7C8279",
"2. c #CE9128",
"3. c #B08541",
"4. c #D9BE4C",
"5. c #E9D656",
"6. c #EAD86B",
"7. c #EFE270",
"8. c #5E7C80",
"9. c #637E82",
"0. c #6A7E81",
"q. c #747F80",
"w. c #787F80",
"e. c #648185",
"r. c #6B8185",
"t. c #668589",
"y. c #6C8689",
"u. c #6C898D",
"i. c #748285",
"p. c #7A8384",
"a. c #728789",
"s. c #798788",
"d. c #738A8D",
"f. c #7C8B8D",
"g. c #6D8D91",
"h. c #748D91",
"j. c #7A8E91",
"k. c #6E9195",
"l. c #749195",
"z. c #7C9295",
"x. c #769599",
"c. c #7C9699",
"v. c #77989C",
"b. c #7B999D",
"n. c #7D9DA1",
"m. c #848B8B",
"M. c #829395",
"N. c #899090",
"B. c #899495",
"V. c #829699",
"C. c #8A9799",
"Z. c #859A9D",
"A. c #8A9B9D",
"S. c #939797",
"D. c #929C9D",
"F. c #829EA1",
"G. c #8B9EA1",
"H. c #919EA0",
"J. c #85A2A5",
"K. c #8DA1A4",
"L. c #86A5A8",
"P. c #8AA6A9",
"I. c #8DA9AD",
"U. c #92A3A5",
"Y. c #9AA6A7",
"T. c #95A6A9",
"R. c #9AA7A9",
"E. c #94AAAC",
"W. c #9BABAD",
"Q. c #8FACB0",
"!. c #95AEB1",
"~. c #9DAEB0",
"^. c #96B2B5",
"/. c #9BB2B5",
"(. c #9DB6B9",
"). c #A2ACAD",
"_. c #A8ADAD",
"`. c #A2AFB1",
"'. c #A4B2B4",
"]. c #AAB4B6",
"[. c #A3B6B9",
"{. c #A9B7B9",
"}. c #A4BABD",
"|. c #ACBABC",
" X c #B2BCBD",
".X c #B8BABA",
"XX c #A6BEC1",
"oX c #ACBEC1",
"OX c #B3BFC0",
"+X c #B8BFC0",
"@X c #AAC3C5",
"#X c #ADC2C5",
"$X c #B5C2C4",
"%X c #BAC4C5",
"&X c #B4C6C9",
"*X c #BCC7C8",
"=X c #B3C9CB",
"-X c #BDCACB",
";X c #BECED0",
":X c #BFD0D2",
">X c #C5C9C9",
",X c #C3CBCD",
"<X c #C6CFD0",
"1X c #C8CFD0",
"2X c #C5D2D3",
"3X c #CAD3D4",
"4X c #CCD7D9",
"5X c #CED9DB",
"6X c #D2D9D9",
"7X c #EAEAEA",
/* pixels */
"'.3X3X1X,X3X,X,X>X%X.X+X%X%X.X X.X X X[.|. X].]. X X].].'.].].].).].'.W._.`.'.).].).].`.`.`.].`.).`.R.`.{.{.'.).]..X{.`.].{.{.%.",
" Xb.l.F.L.!.E./.W.x.P.u.b.b.| ) g.] e.1.t.1.{ ] 0. .'  .9.h...] R 0.y.!  .} 9.) } ..r.! ] 0.h...) ) ] ..9.|  .E ] 8.z.8.r.{ e.S ",
"|.t.u.b.b.I.E. X.X[ e.J.P.x.t..XA H { ] n.t.x.D.=.K | x.y.e.| >Xr E 8.! ..t. .p.O.F ] ~ ] 9.9.S.P H ! e.9.] ] w.+.M r. .{ N 8.n ",
"-Xv. ...b.I./.f.e ] L.L.W.P.b.b + Q ..l.v.k.l.J > ) ..h.9. .] z + E  .] { ] ] z = m ! R ! e.t.S @ E ] ..g.9.] n % M e.| ~ K ] M ",
"%Xb.{ ..v.!.#X|.I.b.L.E.E.I.J.b.z.....y.d.l.b.y.0.u.] b.e. ...0.] ] ] ! | ` ] R Q R ~ N ] | 0.9.] r.| e.h.9.8.] !  .8.~ { 8.8.N ",
"OXI.k.n.I.t.' ' ^ m S b C v x c x k q l w y l q 9 q 0 z z q q w q 9 w 7 9 9 9 2 : : : 9 9 y w y q c w y l k z q q 7 s.] ] 8.~ M ",
"+XL.!.u.^.b.C x q 2 2 2 1 - 1 - - = + = + O = = + - + - - - = = + - = O + + + O + O + @ = - 1 - - - = - - - = - = 2 R.] ~ ~ ~ k ",
"%XJ.7XV L.x.J L J b b y z y q q 7 7 - - ; - - - - : 2 9 7 2 1 2 - 2 ; - - ; - = - - - 8 2 9 q 7 8 7 2 2 2 - - - = 7 ~.~ @.Z R k ",
"$X!.D b (.J.Q ^ ^ ^ Y J F b b c q y q y 7 7 9 9 0 0 q q 0 0 2 9 2 7 9 2 : 7 : ; : - ; 9 9 9 0 9 w 9 7 : 9 : 2 ; : 9 '.| D 3 M n ",
"*X^.(.(.#Xu.J @.' &.y.*.@._ L J x M m S q k x w w b l b b x w x q x l w q w 9 9 9 7 q v x l w x x x q q k w 0 0 q q '.8.! H K m ",
"%X}.#X@X@Xb.I @.' y.Z.Z.M.a.*.Q M H F N w N H M M F N F K F m b w v m M k k 9 k v k v N m F M N M H x n l x w y x z '.g.g.g.! n ",
"*X[.@X:X@XJ.L } &.&.Z.n.Z.z.a.$.N ! ' E n Q F M H Y _ ^ L ^ Y L N N M m N v x x m M N N K Q ) ! L E M F N n M S M b '.n.8. ...M ",
",X^.@X=X@Xl.L Y *.j.u.b.E.G.d.&.` Q  .' H K n n N K Q ` Q ^ Q ) ' ' M n F l m x M N E M H ` ! ) Q ) F K W ^ ^ J J C {.n. .8.t.R ",
"*XXX@X=X=Xu.M H r.b.x.F.!.F.G.&.Q R } E E  .n H Q K N ) Q ^ K _ ' [ ^ H M n v N R R ] H Q  .N N E ` K H E W E J J F |.n.8.] g.M ",
"*X}.#X-X:Xb.b ' } c.I.I.v.K.d.e.H N ' ) K ! M H K ' K ) Q ' K @.*.i.` E R m n E K ! | ! ) ! H N L } ) K L ) ) J ^ W %XF.| ~ g.N ",
"*X}.3X1.=XZ.L K $.d.!.(.I.P.F.&.v M { { N ^ ! N N F ! K ^ &.&.r.0.i.&.} ! ) R ! K ! ! ] ! ! E ` ] ] ] [ ) L ) ^ W L |.x.9.H 8.n ",
"-X#Xm.B &X!.K _ } z.!./.}.|.J.) v x N N Q  .$.K M Q ` ` ! d.f.r.9.i.j.i.i.r.} ! E F ! F [ 9.d.0.$.9.*.$.[ ' ^ ' _ L $Xt.m.A H m ",
",X&X}.&X3XE.I @.r.W.!.$X-X[.c.K n n n K ] &.` K N H Q ~ L e.M.z.$.j.V.a.h.z.9.Q K R | 9.h.z.Z.V.d.r.9.r.$.' [ _ ^ J %X!.&.n e.F ",
"1X-X2X:X2X/._ *.d.U.L.oX&X[.l.N m v N ! ) $.} } K Q K [ $.&.d.d.) h.9.a.V.G.M.j.&.| r.j.A.V.V.z.z.j.f.} ` @.%.@.o.W OX[.^.v.t.E ",
"1X-X3X5X4X{._ i.f.K.|.(.-X$Xl.` ! K K ] ] y.*. .Q { ) d.z.d.z.c. .a.j.j.V.Z.c.A.z.a.h.Z.G.A.Z.d.M.j.y.] 0.0.0.$.[ J OX|.[.x.g.Q ",
",X&X-X-X4X{.o.i.C.'.|.(.*X,X!.c.z.d.r.9. .r...) K ~ | d.M.z.V.z.r.y.h.G.U.G.Z.h.h.c.F.R.U.R.U.z.V.Z.j.r.M.m.s.q.*.L {.!.oX/.!.) ",
",X#X:X2X5X Xo.*.C.].|.&X$X%X!.V.U.M.d.} } *.} Q ! $.| V.A. .&.Z.u.V.V.W.H.F.U.G.j.V.G.R.E.R.T.G.U.G.V.j.j.N.f.i.q._ *XL.I.I.(.*.",
"1X%X$X|.4X]._ ' M. X&X,X=X[.[.E.K.V.d. ...*...&.&.r.M.W.z.e.d.V.h.G.V.E.G.T.`.W.G.K.T.W.W.~.T.T.U.Y.D.A.V.s.N.s.*.o.*X!.G.oXoXp.",
">X&X7XD %XW./ @.B.|.%X,X*X|.~.j.z.d.z.z.*.t.d.d.| ..z.A.Z.U.Z.e.0.j.F.R.T.W.W.`.'.'.T.~.T.W.G.T.E.).U.C.M.i.&.} ) W OXoXH.=.W.i.",
">X*XI V %XH.W q.0.z.OX<X*X*XF.F.z...V.G.d.&.r.M.e.d.Z.V.A.A.z.U.z.V.z.'.W.~.~.T.).`.{.'.'.~.W.`.`.`.`.A.C.a.[ ` ) S `.!.W B j.@.",
">X-X*X$X2XB.I #.s.).F.*X<X$XG.z.z.e.G.W.U.E.'.K.V.E.M.W.E.'.c.W.F.~.G.{.'.~.{.T.W.|.|.{.{.'.{.|.~.).W.Y.H.A.s.@.E W {.x.| a.{.q.",
">X&X*X2X=XB.D O.-.M.`.|.OXOX~.E.[.A.W.{.+X$X|.E.d.U.d.E. X~.G.T.G.T.T.E.~.{.A.w.-.*.p.1.-.p.p.q.w.C.).Y.Y.C.0.[ J D {.!.n.L.F.Q ",
"%X&XoX*X<XN.V O.p.M.`.OX$X'.`.K.G.G.V.R.G.[.`.R.c.A.a.K.'.z.b.V.V.{.~.T.~.~.u P T P ( U X.U U P o D Y.).).H.D.0.[ b `.n.8.!.e.N ",
".XoX[.*X*Xs.y o.@.N.U.{.'.F.E.'.c.Z.A.~.{.{.d.a.z.z.*.d.[.'.).U.G.~.H.F.'.~.e 3 h 3 6 t t , P % o Z ).U.V.m.f.&.W F ~.x.8.g.k.v ",
"%X|.oX*X%Xi.C #.w.j.A.W.W.W.'.OXZ.M.K.{.'.'.Z.j.V.A.*.d.W.{.W.U.c.{.oXG.'.'.y 3 % , 6 t t 3 % @ o Z D.;.f f f e W F W.g.x. .] m ",
"%X$X-X*X*Xp.V #.-.s.j.`.W.G.V.|.W.d.U.{.W.W.E.K.U.d.$.'. X{.[.|.j.OX~.`.j.`.t t % , t 6 t 3 & 6 o Z 1.f 5.,.X o L I {.k.8.8.8.v ",
">X%X1XP [.@.b o.%.o.[ C.'.E.`.{.z.U.W.E.'.OXOX`.K.R./.$X,X$X%X*XH.|.z.R.Z.F.t < , < 3 6 u u e 3 o V M.u 7.g   o ' J ~.8.} F | M ",
"+XOXX.3 G._ z W W W [ 9.G.F.G.T.d.G.T.~.`.oXoXV.H.oXoX'.+XoXoX+X'.{.U.`.G.h.6 > % < 4 4 6 d 6 , o Z H.1.7.i % = y J |.| +.Z _ ! ",
"+XoXV.d.d.W 0 E W W ' q.V.j.j.G.0.V.d.d.G.'.H.H.`.{.R.~.OX'.{.[.`.~.F.`.{.~.e % % & j >.>.p < r o Z _.1.6.i S 2 2 C [.E.l.^ l.L ",
"OXG.n.l.~ l 0 D W J ' d.G.V.~.P.j.G.0.c.Z.~.T.T.+X'.G.~.oX).H.T.`.T.F.U.|.'.e + % * s # :.p % d o V H.=.6.i J q 1 C {.!.(.oXL.' ",
"R.N z.n.8.l 2 S E W 0.0.G.'.T.V.z.u.H.W.W.T.'.'./.'.'.T.~.T.~.~.z.G.Z.G.~.`.6 > % i ,.. 2.g 6 r o V R.=.5.a C 0 1 J {.n.P.@XJ.' ",
"R.R { ) R v 1 z J J 8.G.T.{.H.~.`.H.`.oXoXR.'.W.W.{.'.F.c.M.'.[.~.R.j.y.Z.&.3 u & 5 :.i ;.s 4 4 o V Y.O.4.i G y 1 G OX[.[.^.I.$.",
"H.` 8.R R l = k z S _ } c.H.G.oXOXXX].oXoX].H.`.XX).R.d.q.G.H.G.G.c.U.$.d. .3 B d d <.3.<.p r r o B A.O.2.# C 8 1 K %XI./.b.L.N ",
"C.~ E N M k = 0 z m ) 8.z.G.G.T.'.].OXOXOXR.T.H.].'.W.j.F.F.l.d.r.] ] ' ) ] 3 d t d t t e 4 , d o B C.X.g X A y - C {.@Xk.k.k.! ",
"H.W +X2 l k 2 8 k S J 0.8.G.G.H.H.'.OX'.XX~.W.).XXXX~.H.c.j.9.9.$.! E ] )  .3 e r d h d t e 6 d o z s.a $   $ + 2 G $X}.d.I e.} ",
"H.E z = m k = 8 k n H { } q.c.z.G.~.'.'.~.!.~.oX`.~.~.T.F.j.9.d.0.H H ] Q ` 2 4 e d d t r r d d o c ^ a     X   - / %X(.N.P  .i.",
"H.` R H F k ; 0 l M H [ 8.9.c.j.V.~.W.E.H.~.).`.T.R.W.R.H.j.8.0.y.9.R ) ! ! 3 3 V t t 6 r d P e o z 0.y + O   . 2 / ,X}.b._ ..&.",
"H.] ` R M k ; 0 k z z E ` 9.G.G.G.F.H.G.T.H.R.H.F.G.H.G.G.j.c.d...9.| ] | ` 3 e r 6 e 6 r t Z @ o y r.a.q.@.e - 8 / ,X(.I.oXE.} ",
"G.) R R N k = 9 k M E ! ! h.M.c.G.G.H.G.T.F.G.G.z.G.M.z.l.y.a.j.9.] r.| ~ E 3 1 % % > > % > % @ o y u.u.M.M.d.e 0 X.,X&X(.@X&X$.",
"H.R { R N 0 = 7 8 M F ! 9.9.u.j.h.z.G.G.G.V.G.z.M.c.z.G.F.0.9.8.r.h.u.] ] ! q = @ @ + - + = - 1 1 b d.a.*.r.f.a.@.%.3X-X}.-X*X$.",
"H.| E ] H k = 0 q m W 9.q.0.M.u.d.j.F.G.G.z.G.z.j.u.G.h.M.j.9.j.j.d.g.r. .F Q H Q K N H Q n ) [ *.r.d.y.d.a.f.a.*._ 1X&X#X@X}.$.",
"H.8.] ] H k = 2 k S @.0.9.8.9.q.q.g.G.H.G.z.V.C.z.a.C.V.u.h.8.h.a.y.r.e.0.R E 8.} { { e.8.u.h.c.b.z.y.j.f.s.r.*.} / ,X}.[.(.(. .",
"G.] B.k K k = 2 z J W @.' [ } 0.d.9.q.d.M.d.u.M.z.a.j.G.9.9.0.` u.z.e.9.| K H | ! ] e.e.] 8.y.u.r.h.9. .&.&.&.} ' L *X!.I.$.x.L ",
"G.[ T = H S ; 8 k F E W @.@.0.8.0.9.q.0.d.q.q.c.h.0.c.h.0.{ 0.8.) d.~ ! ! ~ ] ~  .{ R F ! ] } 9.9.r.9.} ` ` $.Q @.J %Xn.S.X.! Q ",
"H.8._ E ] M 8 0 l C R W [ 0.0.@.0.8.0.8.0.0.d.0.0.0.h.M.9.E ! 9.E 8.{ R F ~ E ` ] ! ! R R ` ] $.$. .0. .' ) o.^ ^ J |.v.` x e.L ",
"G.| ] 8.{ l 1 8 0 l S W ' ! @.@.) W @.` { } 8.0.0.9.9.0.8.E N ~  .{ ] E R ` ` E ` ) H M R E R 0.*.[ ) ` E E ^ ^ E b '.e.{ ..e.N ",
"H.9.9.9.9.M = 8 0 k z R W E _ _ H R E E ` } o.$.9.[ 0.[ E ` N E ` E E H F E E R R H H E ` R E [ Q H M F F F L L F c W.} ..{ ..n ",
"H.9.l.0.8.m 2 2 7 7 z H m H W M m M R E W [ ` W _ W ` H H F l R E H H m N E F H b x F R ) ) J R F M m x n v F F v c E.{ 8.8.t.M ",
"H.{ l.9.{ M = 1 = 8 k M F S F n F M E E W E W ' R E W R M S l M H M H F v H F n l x S M v R M M m n v x v m b c c y Y...! Q | m ",
"G.8.u.z.n.R 1 1 ; 2 k z S m S l S E _ W [ ` E E R N N S l z n M l H M m v n m m z l M F x S S b x n x x x x b x x q U...` Q { x ",
"H.9.>Xz l.W 2 1 ; 7 k l F m n l M R W E W E M M H z n R F n l M k M m m n l l k q k n n n x b n x m c v x z b x w q D.{ ^ b K w ",
"T.0.Z 2 9.J 2 2 ; 8 k z F z z n S F W W J E S M F M m F S l k l l k m m z l l k l l l b b l b x l l b l l k z k 9 q A.` U e x l ",
"XXc.z.g.g.R m z V z S z C C D F J W W W W I G W W G D E D D V D C D C C C S V C C C C c V z c z z V c z z c z z u z H.! E w R x ",
"].F.F.Q.G.OX2X;X+X+X-X<X<X+X3X2X6X6X6X3X6X3X3X<X<X>X<X3X<X,X*X*X,X,X<X*X+X*X*X*X*X,X*X*X*XOX,X*XOX*X*X+X*X+X*XOX$X$XOX! ~ R ~ n ",
"'.n.!.Q.F.k.g.9.9.8.8.8.l.c.F.g.Q.F.Q.n.F.l.9.u.8.9.{ 9.g.]  .9.0.l.t.| 8.|  .8.] 9.] } | ] ) ] R ` } | 9.| 9.}  .] ] M R R R k ",
"].v.F.!.v.k.8.q.#.K 8.u.k.x.x.).P h.n.F.9.k.n.m.T R E  .8.8.{ _.z 8.! ! ` ] g.q.X.E | | 9.] H w.B ) | ] { | 0.0.o.N R n N R ! x ",
"].x.l.L.F.k.9.S 1 l 8.l.g.0.x.z < { l.F.n.8.g.M 3 n R 9.c.u.{ D = ! | E  .9. .z < M | ) 8.! ` w % J ] | 9.{ 9.D 3 x R M M N ~ x ",
"XXI.F.I.F.n.9.8.E { 8.c.9.8.8.9.{ x.k.g.g.8.g.] R 8.{ u.n.9. .` R } 8.{ 8.] ]  .R ! | ! ] ! ! M N )  .! | 9.9. .H { ! n N N R k ",
"w.W E W W E N R M l l F S M l S n N S M M l z l n l k M S m z k k z z k l z k l n 9 l 9 9 k q k 9 l k q v l z q x n k 9 7 9 k 9 "
};
