/* XPM */
static char *_16aa1502efa42938c2a3fb1b11550d8[] = {
/* columns rows colors chars-per-pixel */
"64 64 245 2 ",
"   c #1E3B2C",
".  c #1C3529",
"X  c #19332F",
"o  c #223C2E",
"O  c #233826",
"+  c #243D32",
"@  c #263D3B",
"#  c #273B37",
"$  c #15351E",
"%  c #22442D",
"&  c #244232",
"*  c #2A4434",
"=  c #2B453B",
"-  c #2D4A3C",
";  c #284937",
":  c #324C3D",
">  c #304934",
",  c #37573B",
"<  c #2F5035",
"1  c #3C6239",
"2  c #436C3D",
"3  c #406638",
"4  c #47733F",
"5  c #405A3D",
"6  c #2D4443",
"7  c #2E4A43",
"8  c #2E464A",
"9  c #334C45",
"0  c #344D4B",
"q  c #394E4C",
"w  c #334745",
"e  c #345244",
"r  c #3B5543",
"t  c #3C5B44",
"y  c #35524B",
"u  c #3B554C",
"i  c #3C5B4C",
"p  c #365E49",
"a  c #3B5452",
"s  c #3E5B53",
"d  c #3C5559",
"f  c #384E51",
"g  c #3D624B",
"h  c #3B6345",
"j  c #3C6A54",
"k  c #3E7055",
"l  c #435D4C",
"z  c #425A49",
"x  c #415554",
"c  c #425C54",
"v  c #445C5A",
"b  c #485C5B",
"n  c #436245",
"m  c #456A42",
"M  c #44634B",
"N  c #49644C",
"B  c #496C4A",
"V  c #467143",
"C  c #4D734C",
"Z  c #4C7746",
"A  c #517C4D",
"S  c #51774B",
"D  c #456254",
"F  c #4B6455",
"G  c #456A54",
"H  c #4C6B54",
"J  c #45625B",
"K  c #4B655C",
"L  c #4C6A5C",
"P  c #456B5B",
"I  c #526C55",
"U  c #526C5C",
"Y  c #53695C",
"T  c #4D7251",
"R  c #44745B",
"E  c #4D715B",
"W  c #457559",
"Q  c #537355",
"!  c #557C55",
"~  c #54725C",
"^  c #5A745C",
"/  c #5D7A5D",
"(  c #577857",
")  c #50674E",
"_  c #617C5E",
"`  c #515D64",
"'  c #4A5E60",
"]  c #4C6562",
"[  c #4E6A63",
"{  c #4B686A",
"}  c #516464",
"|  c #526C64",
" . c #546D6B",
".. c #5A6D6C",
"X. c #586B67",
"o. c #4D7264",
"O. c #4C7B64",
"+. c #547264",
"@. c #5A7464",
"#. c #547B65",
"$. c #5D7A63",
"%. c #55726B",
"&. c #5B746C",
"*. c #5C7A6C",
"=. c #547B6B",
"-. c #546E72",
";. c #5C6F72",
":. c #567372",
">. c #5B7573",
",. c #5D7A74",
"<. c #5E7B7B",
"1. c #5A7777",
"2. c #627D64",
"3. c #627D6C",
"4. c #677E6C",
"5. c #627C74",
"6. c #637D7B",
"7. c #647977",
"8. c #52814B",
"9. c #598255",
"0. c #5A825A",
"q. c #5A8656",
"w. c #638C5D",
"e. c #67915F",
"r. c #5C8263",
"t. c #57846C",
"y. c #5D8474",
"u. c #5C8C74",
"i. c #4E8160",
"p. c #658164",
"a. c #64826C",
"s. c #6A846B",
"d. c #6D8A6D",
"f. c #668A67",
"g. c #718C6F",
"h. c #71846E",
"j. c #659262",
"k. c #6B9465",
"l. c #6C946B",
"z. c #6E9A6A",
"x. c #6C9865",
"c. c #739B6E",
"v. c #72946D",
"b. c #648374",
"n. c #6B8473",
"m. c #6C8B73",
"M. c #65827C",
"N. c #6A847C",
"B. c #648B7B",
"V. c #6D8A7B",
"C. c #638C72",
"Z. c #718C74",
"A. c #738C7C",
"S. c #73897B",
"D. c #6C9374",
"F. c #62917B",
"G. c #6B937B",
"H. c #659578",
"J. c #749274",
"K. c #749C74",
"L. c #74927B",
"P. c #7A937B",
"I. c #7C9A7B",
"U. c #769A78",
"Y. c #75A173",
"T. c #7AA376",
"R. c #7BA37C",
"E. c #7DA97B",
"W. c #819D7E",
"Q. c #82A47E",
"!. c #637E82",
"~. c #6B7E82",
"^. c #5D7A80",
"/. c #658382",
"(. c #6A8583",
"). c #6D8A84",
"_. c #6B878A",
"`. c #6E8B8B",
"'. c #728C84",
"]. c #728D8B",
"[. c #778D88",
"{. c #6B9383",
"}. c #6B9883",
"|. c #759284",
" X c #7A9483",
".X c #7B9B83",
"XX c #75928C",
"oX c #7A938D",
"OX c #749C8A",
"+X c #7C998C",
"@X c #719C87",
"#X c #748F91",
"$X c #769292",
"%X c #7B9593",
"&X c #7C9994",
"*X c #7E9A99",
"=X c #7B9599",
"-X c #7CA387",
";X c #7CA593",
":X c #839D84",
">X c #839C8B",
",X c #809788",
"<X c #829B94",
"1X c #839D9B",
"2X c #869C96",
"3X c #84A284",
"4X c #86A28B",
"5X c #8BA48D",
"6X c #8EA98D",
"7X c #86A686",
"8X c #92AB8E",
"9X c #8CA493",
"0X c #8EAB93",
"qX c #85A29C",
"wX c #8BA49C",
"eX c #87A798",
"rX c #92AC94",
"tX c #93AD9A",
"yX c #9AB39B",
"uX c #98B499",
"iX c #88B19E",
"pX c #A2B99F",
"aX c #869FA0",
"sX c #8CA6A3",
"dX c #8EAAA4",
"fX c #8AA5A5",
"gX c #92AAA4",
"hX c #93ACAB",
"jX c #90A6A3",
"kX c #8AB5A3",
"lX c #9DBAA3",
"zX c #96B0AB",
"xX c #9BB5A7",
"cX c #9CB6B2",
"vX c #A3BCA5",
"bX c #A4BEA9",
"nX c #A0B7A3",
"mX c #A4BDB8",
"MX c #A7C3AB",
"NX c #ABC4B3",
"BX c #B2CCB4",
"VX c #B5CFB9",
"CX c #B9D1BA",
"ZX c #C1D9BF",
"AX c #C6E0C3",
/* pixels */
"P B.G.{.{.{.}.{.{.@X+.P 7.| b X._.6.L ~ J.D.f.k.w.e.e.e.j.e.k.e.e.Y.z.x.c.l.c.z.f.v.d.J.N y  .;...;.X.&.Y J V.-X+XH.H.G.G.u.u.u.",
"E g B.B.}.u.u.`.u.*XL =.| >.' ....X.x +.H B ( m c.I.Q.x.T.c.c.c.x.Y.E.-XY.E.Q.v.C 5 n z Y X.1.-.` ;...| J L L E C.r.C.u.H.u.F.F.",
"H G r.#.g ] u.(.{.a s a # w q 6 } | | a u r r H B C w.c.c.k.l.j.x.x.c.l.D.( n t r r , D c ] 6 0 # # # # 6 7 e o.y g O.G R R O.u.",
"< g C.C.p g M.[ M.y.).[ x v ' x N.M.'...6.6.'.+.* n B B B C C 1 1 V C C g G r & @.|.&.>.,.>.<.] 8 f f @ v ,.[ s g G g j G h i.t.",
"h , D.G.G +.M.B.qXoXwX'.y J ] a <XoXdX<X_.=X].(.e , < B , B n h 1 , h h p e D y N.[.'.B.6.>.(.].@ w w 6 >.7.<.<. .o.o.G G g r.t.",
", 1 m.V.+.*X4X2XNXoXsXN.9 x J a <X,X(.(.1X].=X6.y K M < m.C.#.#.a..Xm.y.c D j a ,.).%X(. .(.>.>.q q w 0 ~.<.{ ] :.,.{.=.#.W C.D.",
"k ( G.#.y. XgX(.&X2X,X7.9 u | u <XwX2X1X!.aX$XN.i i l i XXdXqXfX;X+XOXXXs u v 9 ).oX5.).'._.].&.# z q q <.6.!.<.:./.=.B.$.E U.r.",
"( O.~ L *.'.gX<X2X2X'.F + - - + Y Y 3...} ..X.|.r c | y (.dXdX$X*X&X(.<.e s u u [ @.K D [ &.] u o = . . a &.1.6././.:.).G #.D.G.",
"G #.*.#.oXsX2X2X2X,X4.4.n.Z.3.a.Z.2.S.@. X3.5.N.c c v y %XfX=X$X$XqX&X`.w s 9 9 *.U F L Y | r N H s.r  XD [ 6.,.).)./.$X*.b.$.@X",
"L [ K 5.oX<X2XwX2Xn.* h.9X>XbX6XuX8XP.s.A.4.b.n.u b } x &XhXdXsX&XhX#X).6 u c = 5.F L U ^ g.J.p.2./ 3XQ L.N | B././.] !.,.L a.a.",
"P J a `.2XoX<Xn.3.* 4.s.:X7XrXW.AXZXMXZ.5X2.Y @.s |  .d <XfXsX<X&X%X{.6.u c c 9 &.F U $.( W.g.Q._ U.I.Z.J.$.l | M.).<.).%.[ L F ",
" .(.] 6.).(.[.L P.Y _ h.8XrXW.8XpX8X5X_ 3.I Y %.v b  .v oXwXxXwXzX+X%X[ 0 x u u K X.F U Q h.( _ uX( f.3Xd.p.2.b.o.+.(. .[ ] | +.",
"y.<.X 7 s 9 = . 4.W.h.4.5XuXpXW.5X:XI , tX| ..3.J b y 6 oXwXtX2X'.XX).c 9 9 b w 7.3.K n.> : 2 2.Z.6X3XI.g.w.@.l X = @ f @ 0 ] X.",
"<.-.y ] 7 c | o z _ _ ) W.g.) I l 3.@.Y 3.*.n.K = - * + 3.|.|.%XXXqXM.u     = o v [.,X7.S.4.) z 2.Z._ W.v._ ^ I & 0 f a a a 7.>.",
"<.<.6 s s D t > ^ h._ W.4.yXh.O tX3.6.'.(.oXN.o 3.H ^ +.} oXfX]./.6.`.= Y D U l r [.<X2X>X[.S.b # 2._ yXU.d./ M - y d f 8 v ;.7.",
"<.y.@ d y e e * ^ ) g._ 2.) O ) &.M.N.M.M.[.b.i 4X:X4Xs.Y <XhXhX].].N.e @. XZ.$.Y 4.>X<X<X2X2X[.@.* N f.p._ ^ N = = 0 8 0 f >.7.",
"<.M.%.N.&XN.3.u ^ Z.I._ 5 z 9X>.).B./.M.|.3.L a.d.tX:X@.K oX1XdX[.&X5.i I Z.Z.p.r ^  X2XqXgX%XqXn.F N d.v.w.^ , F &.>.$X-.-.<.,.",
":.y.%.qX2X2X7.Y F _ v.5 , ^ ] ..]._.M.V.&Xn.l a.,XyXZ.@.F wX'.hX&X[.3.l ^ P.P.s.N I *.'.oXsX`.&X2X*.M N / f._ N 2.'.].~.!.>.>.1.",
" .b.+.hXjXjXN.X.F ^ d.I < Y ] ].,. ./.<.).&.n.2.>X>Xh.@.V.oX%X&X%X].'.U $.:XyX^ I s.Y A.).qX`.).'.V.U , N p.Z.U &.).aX1X).,.,.#.",
"#.P [ '.%X,X'.3.D Z.~ a.: F &.6.XXXXy.XX&.* 4.s.tXyXyXh.5.+X<XgXoX(.b u 3.5X:XW.3.^ t @.N.,.XXXX%XN.3.l ~ s.a.F &.oX).<X(.,.| b.",
"a.M ,.oX<XoX7.X.F V.n.@.'.| 7...M.).M.>.o |.:X>XZXyXnXS.&.[.<X%X$X`.(.u 3.Z.m.>X:X0Xt 9 +.|.(.5.].%X5.9 F $.3.e | 1X&XzXXXG i Q ",
"l.C G |.%X[.S.} F | e K 0  .| (.5.5.&.- 5.b.A.vXrXrX,X XX.<X1X1X<X7.&.x b.L.rX0XL.Z.n.$.r F *.A.(.[.N.9 z z x J &.(.].qX|.E f.H ",
"0.! h A.<X'.oX..F c L b y b &.X.+.D n.U 4.n.nXbXbXCXNXY 3.,X7.~.$X*X..i +.4XlXBXBX0XL.4X*.@.g F 7.(.).Y X.| %.| 1.].).N.b.~ C.C ",
"q.0.#.L 6.5.6.&.+.[ [ J | c O # 3.$.~ 4.rX:XrXnX:X5XtX4.} [.jXhX].>.].L n.L..XuX7X5Xm.m.a.$.$.$.= + K &.X.[ &. .7.6.=.M.~ f.U.2 ",
"w.l.C.% y v i u i L y 0 w . F I d.P.J.6X5XbXBXBXbXZ.Y o 3.1X].hXzX$X2XL ; L.m.0XyX0X0XiXL.0Xm.~ tXS.= : c y 7 7 7 y e - & f.0.V ",
"j.l.r.$.g y J | | i s y x * I s.h.Z.:XyXyXBX9X4X>XN wXF 5.&X$X#X1X(.%Xb.@.4X~ L.0X4XlXuX0XMXrX XeX3.9 i u a s a d s p e G.R.A V ",
"x.z.D.r.i D D i s g o.c z # I I h.5Xs.g.P.9X.X+Xa.>X| N.).2X_.$X$X%X%XN.+X*.|.a..XV.>XL.bX|.lXA.V.9X& y y a f a y P i ; U.U.! 2 ",
"r.z.z.C.t.e y y 9 y y s = o l z z _ Q l U l l n.- &.&.@.]./.*X/.].>.[.,X+XV.$.L Z.@.+.*.@.m.~ @. X*.. - 9 0 7 y 0 s + G.-Xj.9.A ",
"j.E.K.W #.E :.:.<.:.,.M.5.+.X.b ^ 3.U N.| n.+.*.3.,.M.,.<./.`.fX&XXXXX<X'.{.b.+.K [ L K K @.5.@.L i v :.{ { >.:.(.>.#.C.D.z.8.Z ",
"j.x.Y.0.( C.y.y.<.(.<.y.'.5.[.(.,XS.N.|.oXgXXXM.|.).%././.oX&X/._.1X=X$X=.2Xb.5.%.M.5.M.5.6.[.).).7.%.(.!.-.,.!.).OXG D.U.Y.8.8.",
"j.Y.Y.q.E #.|.(.y.#Xy.M.oX%.6.<XqX2X(.dX*X*XqXdXzXqX .;Xy.$X$X$X#X(.(.y.XX*XXXXX/./.].$X<XoXsX1XaX`.fX!.!.1.^.<.).{.o.t.T.Y.8.8.",
"j.E.Y.q.! L.&X`.$X=X/.-.).'.>.$X_.(._.fX!.fX=X].#X(.@X#XXX(.XX$X].~.<.(.M.(.XX/.~.>.1X1.&X6.aX$X*X`.#X`.`.-.^./.$Xy.r.u.Y.T.q.8.",
"q.Y.E.! Q a.oX*X1X*X5.|.,.oX-./._./.$X$X/.$X`./._.`.*X1.,.,.y.,.B.%X,.M.`.%.]._.].).!.&X=X`.&X#X=X1X/.!.].!.<.`.<.{.E f.k.x.8.V ",
"q.k.R.! T y.XXsX=XoX&XN.|.%.{ 6./.<.-./.1.{ 1.{ /./.{ `.`.(.XX%.5.>.%.{ *X).%X%X_.<X1.).6.%XhX&X].&X_.aX:.1X/.]._./.a.r.l.z.8.V ",
"0.l.l.! g .X&X%X&X].,.).M.M.J [ { =.,.o.[ [ %.s d o.).%.%.<.$X<.,.6.M...%XXXM.<.6.5.S...oX<XoXwXqX&X].!.(.M._.XX_.).B.r.z.c.C C ",
"9.l.v.! N t.V.).~.].>.[ ,.J 9 e 7 i 7 g - e e - e :.,.).$XXX{ /.&X>.].&.6.M.N.[ | z K F D c L K c u >.J  .,.'.)./.).C.$.K.k.q.h ",
"C f.l.T M < s y a ' 8 6 = X D L M ~ t n ~ s.t  Xj i ,.,.#X/.y.#XaX-.>.1.,.M.@.3.S.4.4.4.4.2.S.2. X@.+ v y 0 9 y 8 s 7 #.0.K.! 1 ",
"9.j.T , t M L D a ] f 8 b # U ~ ^ m.L.$._ / .X$.L.c *.B.#X#X_.!.!.~.#XXXM.N.: n.>XrXpX8XnXyX4.4.P.a.0 x K J u ] P s u e t.p.S V ",
"9.f.M g i i e c } K d ' x * @.Y $.I.J.rXp.I.W.m.Z.r.l *.#X=X_.^.!._.6...K * $.n.,XW.8X5XAXZXBXW.>X3.e | | c J F a v b e ~ 0.m 3 ",
"9.j.g % - w 9 u 9 q q d w # F ^ U h.Q / 6X_ p.W.J.$.$.V.P :.-.^.!.-.(.J .XY 2.g.8X8XW.8XpX9X5X4.s.F = q x c e z 0 q u e $ Q ! 3 ",
"! 2 t b.`.&XoX[.4.N.n.3.3.x @.4.> z N 2.P.8X:XI.g.p.2.l +.M._.{ =X!.(.J 4.:Xs._ 8XuXpXW.5XW.Y z rXY 7.7.S.7. Xn.XX].<XqXa.B ! 1 ",
"S n t ).dXaXXX| F l F Y 3.S.S.7.3.F Y z h.3.s.3Xg.p.H ~ J ].{ /._.#X[.F 5 _ _ ) W.h.) ) ) 4.4.4.n.h.[.7.3.Y @.K N.qXwXqX>Xp.C V ",
"C , D (.-.!.(.&.U H ^ z Y  X,XgXtXoXS.Y # 2._ uXP.v.$.l D %.1._./.).3.L _ s.I W.4.yX4.O gX4.>X9X9XwX[.9 ..F Y 4...oXXXdXtXp.I m ",
"2.M +.,.;.<.].K U P.h._ Y S.2X2XcX1XjX<Xl > I 2.p.2.Q N P  .-.-.(.,.oXY _ I g._ h.N O S.,XgX<XwX X2X4.z 2X>X>X3.X.%XmXhX+XJ.H z ",
"e +.J ] !...(.c +.D.g.2., V.wX2XgXsXgXhXS.F N h.J._ / , 7 =.^./._.XXwXb.^ J.P._ 5 z tXN.2XgXoX|.2X|.5.4.h.uXP.2.} !.1X<XqX.XL F ",
"[ M.K J (.>.M.c L L.I.w.N ^ <XgX&XcXcXxX<XX.F N / Z.2.H P `.^./.`.&XoXP M / :X, r 2.4.'.mX[.<XN.oX5.i a.P.uXJ.2.X.<XaXaX<XN.y.%.",
" .] %. .'.N.).F #.rX8X/ ( 2.n.qXwXdXzXzXoX5.F z ) Q Z.U y J $X$XfX$XqXD N Q 3.^ : Y [.[.zXoXwXqXN.3.d._ Q.7Xd.@.>.~.<X1X%X(.<.^.",
"-. .v | 5.&.+.i a.4XJ.3Xs.~ i V.xXqXoXoX[.7.2.z U J.s.c j {.^._.`.*XdXD F L.2.3.> ` [.N.>.6.'.,.@.: 3.2.pXrXrXZ.x -.6.6.(.!.7.1.",
"7.>.X 9 u i : o $.L.D.3X3X7Xr M b.oX2XzX<X].7.: I I 4.r s (.=X/.hX&X*X[ F A.n.| +XX.7.].7.).M.&.+ P.,X:XZXtXyXP.+ b q a v ' ~.1.",
"] X.- ` a D r + a.m.tX6XJ.V.s.3.e 5.N.M.2X[.7.: l q t F y <./._.(.XX&X+.D | l D D 5.'.6.M.&.K = 3.4.P.vX9XrX,X X= | K >.x ' 7.;.",
"7.&.w J G b K * +.5XMXMXBX0XL..X$.~ D &.7.[. XK - 9 y 6 ] y.y.*X(.XX&X(.9 y u * Y A.b.3.F : S.~ 4.4.nXbXnXCXbX_ * 9 J b v J ;.X.",
"K 7.- = a X.r - b.L.I.lX4X0XJ.Z.s.2.^ 2.o # 5.'.6 v q c /.,./.dX/.#XXX(.r L K l 5.F * * b.$.^ 2.8X>XrXnX5X9XtX4.= u | b u ] x ] ",
"#.N.s D [ [ +.c - |.n.5XlX4X4XiXJ.6XC.~ tXL.X.6.q ] { :._.%.$X,.`.#X*X).s | L c 3.l F U Z.P.g.6X8XvXmXBXbXW.Y # Y N.N.M.7.5.K %.",
"G i u *.%.[ &.,.L 9X@.|.eX6XlXyXrXlXuXD.0X3.| 3.0 v d f `./.*X;X#X_.&X(.]  .c D X.Y @.$.h.J.W.pXyXNXrX5X,Xz 5X;.N.2XM.qX|.b.G G ",
"|.4Xs %.).sXoX).S.X.|.n.|.m.eXG.MX+XxXL.L.+XK N.f d  .d <.aX=X#X*X_.%X).s [ J i &.u F U P.5Xs.s.W.tXS.W.4.9X7.;.oX[.XX|.B.o.).-X",
"y.;XOX,.XXXX&X[ '.5.r L A.$.+.#.@.b.+.@.|.b.L [ 0 s ] y 6.<././.*X*X$Xy.a ] s x X.x c z z I ^ N ) z b S.# 4.,X,X&X7.qX*X:.y.F.@X",
"=.y.kXj M.;X{.%XX.M.@.9 * l r 9 c J &.| ] [ ] 7.7 s g - ,.).*X`.$XXXOX>.a P J a %.] ] &.L U Y K # z z * Y 7.oX1XoX6.#X&XP @X@Xu.",
"G p @X;Xy.<.$X#XN.5.&.c c L s i &.5.[.<.1.~.!.>.9 i i e #.{.:.XX&XOXM.+.i s { J ] M.7.5.<X).,X3.z x : q 7.<XhX2XsX(.;X:./.i.{.}.",
"W E ;X;Xy.XX*X;Xb.M.5.5.u Y K y b.M.%X7.-._.!.:.e D i % K +.*.#.o.#.#.#.t j p 7 &.<.M.XX<X(.[.7.x x K x S.oXoX).`.:.{.o.i.k }.@X",
"W W @XkXo.y.u.1.M.[ *.b.9 } x e >.<X>.>.!._.!.:.e p % U.J.C.D.L.G.G.J.D.m., g e o.5.>.(.[.jX2X[.w ` q a oXzX&XqX,.y.o.j R j u.u.",
"W R ;X;X;XOX;XR [ #.5.Y w b ` x 7...&.6.>.>.| | % L.-XK.U.R.-XR.-X-XR.7X-XU.C.% P b.b.M.(.].oX7.x x v q >.oXb.=.R ;X}.;X}.k u.u.",
"h t.@X;X;X;XkXcXiX+.5.7.K ;.;.` (.(.6.6.M.L ~ g..X3X7XK.c.K.Y.Y.Y.Y.E.Y.E.T.K.D.m.L *.b.N.S.[.N.` } ..&.M.OX%.kX;X}.kXF.t.u.F.F.",
"O.i.i.t.t.=.P t.{.|.J X.X.` ` ` 7. .X.K I J.P.Q.! S Z A A Z A A 8.8.Z q.V 8.9.! I.D.*.D Y K J 5...} } X.:.P O.}.u.u.i.k R R u.u.",
"R F.i.R t.k O.=.B.y.v X.4.b X.` ;. .| V.n n 2 2 3 2 V 4 4 Z V Z Z V Z 4 Z Z 2 V B C G N 5.F X.| ;. .7.[ j o.t.i.u.k k k R R i.i."
};
