/* XPM */
static char *_1347a8a46ab4838b5f6019ac264a8e6h2n8vBVftdCWVe4S[] = {
/* columns rows colors chars-per-pixel */
"64 64 254 2 ",
"   c #030508",
".  c #03060B",
"X  c #04090D",
"o  c #17120D",
"O  c #020614",
"+  c #050C13",
"@  c #090B15",
"#  c #02061A",
"$  c #030A1C",
"%  c #120C10",
"&  c #05141B",
"*  c #0A121C",
"=  c #1C1613",
"-  c #1E1916",
";  c #17171B",
":  c #211916",
">  c #221C1A",
",  c #1E2117",
"<  c #24211C",
"1  c #030C22",
"2  c #040629",
"3  c #0A032D",
"4  c #021424",
"5  c #0A1423",
"6  c #021A25",
"7  c #03152B",
"8  c #021A2C",
"9  c #0B182A",
"0  c #141927",
"q  c #030433",
"w  c #0B0433",
"e  c #0D043B",
"r  c #050939",
"t  c #11093B",
"y  c #031C32",
"u  c #0A1C34",
"i  c #071939",
"p  c #161B39",
"a  c #261A29",
"s  c #301B2C",
"d  c #271C37",
"f  c #06212B",
"g  c #182328",
"h  c #092337",
"j  c #03223C",
"k  c #182435",
"l  c #14323E",
"z  c #2A2625",
"x  c #332D2B",
"c  c #282839",
"v  c #382C33",
"b  c #3C3935",
"n  c #4A313B",
"m  c #4C5A25",
"M  c #5D5E2E",
"N  c #45423D",
"B  c #0E0443",
"V  c #060846",
"C  c #02044D",
"Z  c #030B4B",
"A  c #110645",
"S  c #130A44",
"D  c #11064B",
"F  c #14094C",
"G  c #190F48",
"H  c #061747",
"J  c #181647",
"K  c #020454",
"L  c #030B54",
"P  c #0B0856",
"I  c #02035A",
"U  c #020A5B",
"Y  c #140856",
"T  c #06165A",
"R  c #191856",
"E  c #271C4B",
"W  c #321C4C",
"Q  c #261A58",
"!  c #092547",
"~  c #162847",
"^  c #082856",
"/  c #162E56",
"(  c #2A2849",
")  c #372648",
"_  c #292658",
"`  c #372957",
"'  c #333752",
"]  c #030866",
"[  c #190B67",
"{  c #091767",
"}  c #1A1765",
"|  c #060C76",
" . c #140776",
".. c #071675",
"X. c #141A73",
"o. c #261968",
"O. c #331D65",
"+. c #251776",
"@. c #0B2866",
"#. c #192768",
"$. c #0F356F",
"%. c #172677",
"&. c #292765",
"*. c #392868",
"=. c #27366B",
"-. c #373666",
";. c #262678",
":. c #362B78",
">. c #3A3875",
",. c #452A49",
"<. c #483946",
"1. c #58354E",
"2. c #473457",
"3. c #6C3849",
"4. c #453768",
"5. c #49387A",
"6. c #523270",
"7. c #6B3471",
"8. c #134650",
"9. c #304452",
"0. c #0E4775",
"q. c #34486D",
"w. c #4A4744",
"e. c #524B54",
"r. c #575755",
"t. c #6D4C59",
"y. c #5E635C",
"u. c #63625D",
"i. c #504A6B",
"p. c #6C5172",
"a. c #4B6B73",
"s. c #676766",
"d. c #706B6F",
"f. c #73736D",
"g. c #797975",
"h. c #843A5F",
"j. c #864E5D",
"k. c #875075",
"l. c #8E737B",
"z. c #789645",
"x. c #7D8278",
"c. c #90AC5B",
"v. c #83857D",
"b. c #9ECE5D",
"n. c #ABD269",
"m. c #09138C",
"M. c #092588",
"N. c #122D8F",
"B. c #372984",
"V. c #30358E",
"C. c #0810AB",
"Z. c #0E2DAB",
"A. c #2C38AA",
"S. c #443787",
"D. c #4D3491",
"F. c #6D3A88",
"G. c #553BA3",
"H. c #13488E",
"J. c #294498",
"K. c #364F90",
"L. c #134FB7",
"P. c #3353A9",
"I. c #2067A1",
"U. c #316BB4",
"Y. c #504C91",
"T. c #674886",
"R. c #6C5290",
"E. c #4B728F",
"W. c #6D678E",
"Q. c #514EAE",
"!. c #6755A7",
"~. c #7053B3",
"^. c #4F65AD",
"/. c #706DAF",
"(. c #3D65C3",
"). c #4C68C3",
"_. c #756EC3",
"`. c #993E82",
"'. c #8E5287",
"]. c #9E6597",
"[. c #8454A6",
"{. c #896FB3",
"}. c #CD6A92",
"|. c #856EC6",
" X c #118ABC",
".X c #7386B4",
"XX c #5BA3B2",
"oX c #338DCF",
"OX c #5F9BCD",
"+X c #2FD3EE",
"@X c #5FD5EB",
"#X c #898984",
"$X c #938C8D",
"%X c #93948D",
"&X c #989895",
"*X c #9C9D95",
"=X c #9DA199",
"-X c #A3A49C",
";X c #A8AA9E",
":X c #948EAC",
">X c #A399A4",
",X c #A7A8A1",
"<X c #ABACA2",
"1X c #ACA9AE",
"2X c #AFB1A6",
"3X c #AFB0AA",
"4X c #B0B2A7",
"5X c #B3B5AB",
"6X c #B7B9AD",
"7X c #B9BBAE",
"8X c #BBBCB2",
"9X c #BDBEBA",
"0X c #C9B7B7",
"qX c #BEC0B4",
"wX c #BDC2BB",
"eX c #C4C3AF",
"rX c #C1C3B6",
"tX c #C4C8B7",
"yX c #C4C6BA",
"uX c #C6C9BB",
"iX c #C9CBBD",
"pX c #9394CB",
"aX c #A7ACDB",
"sX c #C3B1D1",
"dX c #A8CADB",
"fX c #A6D2E7",
"gX c #CCCDC2",
"hX c #C9C9C6",
"jX c #CED1C4",
"kX c #CFD0CA",
"lX c #D1D3C5",
"zX c #D4D5CB",
"xX c #D7D8CD",
"cX c #D8DACF",
"vX c #D2CDD0",
"bX c #D6D7D1",
"nX c #DBDCD4",
"mX c #DDDED9",
"MX c #DFE0D6",
"NX c #DFE0D9",
"BX c #E5E6DA",
"VX c #E2E3DC",
"CX c #DFE5E6",
"ZX c #E5E6E1",
"AX c #E7E8E3",
"SX c #EAEAE5",
"DX c #EDEEEA",
"FX c #EFF0EB",
"GX c #F1F2ED",
"HX c #E9EEF0",
"JX c #F5F5F3",
"KX c #F8F7F4",
"LX c #F9F9F6",
"PX c #FEFEFD",
/* pixels */
"X X X X X X X X X X             X X X       X         , 5XlXnXxXnXbXbX&X* @ . . X X ; + X . . O 0 O   O . . O * O . O O O c 5 . ",
"X X @ X X X X X . X     X X + X X . X   X X X X X qXjXxXbXnXmXNXVXVXmXmXnXnX*X+ . @ 0 . O * + + O . @ O O + O O 0 O @ @ # $ @ ' ",
"X X X ; ; & @ . X   X   X X X o + + X + X & X 6XjXjXcXMXVXVXZXAXAXAXZXBXVXmXnXcXd.* * 5 $ $ $ $ O O O @ O O O # # 1 1 2 2 0 1 1 ",
"X + + + + . @ .     X X X X + + + X & + X o tXiXlXxXMXVXAXAXDXFXFXGXFXDXSXSXVXmXbXzX5 9 9 1 5 + # 5 @ O # O # # O # O # # # # # ",
"& g * + X X X . X . X X + X & + & g + . 0 yXgXlXnXMXZXAXDXJXJXJXLXLXJXJXGXDXAXZXNXxXjXu 7 5 5 $ # # O O O # # # 1 # # # # 1 # $ ",
"9 & 0 5 5 $ + + & & + 9 + & & & k 5 & 9 uXuXzXzXmXBXDXDXJXLXPXPXPXPXPXPXLXJXDXAXVXmXzXjXk u 7 * 1 * # # # # # $ 9 # u # # # 1 1 ",
"h h 8 5 7 5 4 1 5 5 5 1 5 5 f u u 0 7 8XuXgXzXnXNXAXFXJXLXPXPXPXPXPXPXPXPXLXKXDXAXVXnXzXhXh ~ u y # $ # # p # * 1 # # # $ $ 1 u ",
"f k h u p y p i i u i J i h q.~ h i 4XqXuXgXbXmXAXDXJXLXPXPXPXPXPXPXPXPXPXPXLXJXDXVXMXbXlXq.H i 7 7 1 # # # $ $ $ $ # 1 1 # $ # ",
"~ j p h H i i i i ! ! ! ! ! ^ i.h H rXrXiXlXnXMXAXGXLXPXPXPXPXPXPXPXPXPXPXPXPXLXFXAXVXnXkXKXi i y 1 $ 5 $ $ 1 1 1 1 $ h 1 2 7 q ",
"/ ~ H / 5 4 4 6 5 7 9.h 9.u j ! E.yX7XtXiXzXnXZXDXJXLXPXPXPXPXPXPXPXPXPXPXPXPXLXJXAXVXnXzXGX~ 5 7 7 1 1 5 $ q.2 7 2 r r q T | { ",
"! l f 8 8 6 & 4 4 & 6 & g 9 9 6 f FX8XyXgXzXnXBXDXJXPXPXPXPXPXPXPXPXPXPXPXPXPXLXJXDXBXnXzXAXyX4 2 5 1 1 1 2 r ! T Z Z ..U L.] ..",
"! 8 6 8 4 & 4 & & 8.4 6 f f 9 f k 3X7XyXgXxXMXBXDXJXPXPXPXPXPXPXPXPXPXPXPXPXPXPXJXDXZXmXzXgXkX7 5 l 1 q.7 H H { T { T ] | Z { r ",
"6 f 6 & f 5 4 4 4 8 8 8 f 9.& f s.5X8XyXgXzXmXBXDXJXPXPXPXPXPXPXPXPXPXPXPXPXPXPXJXDXZXmXzXgXuX* 1 5 i H T ^ { H { Z Z i r H r i ",
"f j 8 7 y 1 y 4 f 7 6 8 8 h & a.&X5X8XwXiXlXmXVXDXDXLXPXPXPXPXPXPXPXPXPXPXPXPXLXJXAXVXnXkXgXwX5 3 i R U M...T ..H { T T ^ r T T ",
"y f y 8 y 4 4 j 4 6 6 4 6 & 6 g *X4X7XrXiXlXnXVXAXGXLXPXPXPXPXPXPXPXPXPXPXPXPXKXDXAXVXnXjXiXLXJ { @.M.N.XXN.X.C.{ M.{ T U H 0.r ",
"j ! j j 8 7 7 7 y 8 6 j 6 8 6 f &X2X7XqXuXlXbXmXAXDXJXLXPXPXPXPXPXPXPXPXPXPXLXKXDXZXmXbXjXuXFXN.X.N.%.N.X.T N.N.M.M. XI.M.^ { H ",
"j j j j j 8 8 8 4 7 y 7 6 4 & & f.2X6X7XtXiXxXnXVXAXFXKXLXPXLXPXyXw.o o , X o b c.c.m = -XqXMXX.%.^ N.m.N.{ M.N.M.Z.Z.Z.M.M...oX",
"! ! j ~ u ~ y ! y 7 7 4 6 f 0 g g ;X4X7XrXuXiXcXCXx.o u.DXLXPXPXPXLXPXLXLXLXGXHXm n.n.r.uXqX%XJ Q E c fX~ P.I...@XH.M.OXC.Z.Z.Z.",
"h / h j ! j y 8 y 8 8 & 6 f g f c ;X4X6XeXu.z.n.b.m BXSXGXGXJXJXKXLXKXJXGXFXFXBXSXM a uXtX8X2Xc i.p 2._ G H =.>.O x Z.Z.@XZ.L.Z.",
"0./ $.0.K.$.@.e.! y y f i / ' t.t.;X2X, 7XeX, n.n.mXMXBXAXDXDXGXJXGXFXFXDXBXNXMXMXlXlXiXrX7XdX3 i c ' ( c h #.i.<.G.!.A.L. XL.L.",
"K.q.#.$.^ I./ r.w.^ ^ $.0./ ~ ' k ' ;X2X6X8XyXz vXjXnXMXMXBXAXAXAXAXAXAXNXNXMXcXlXjXtXwX8X5X9 0 E.( ,.s J _ F.r.: [.[.{.~.L.Z.+X",
"j h ! H j ^ ! 0.u.r.^ @.8.! 9.k XX5 -X;X2X5X8XrXuXgXkXxXnXnXmXMXVXMXNXMXMXcXcXlXjXwXqXqX3Xl.2.d _ ) k.` e.s.- #X: a [.G.(.A.Z.M.",
"f y y ! ! ! j 8.- < ; q.s.~ f ; @ * 0 -X;X4X6X8XrXuXiXgXzXzXxXbXnXcXbXbXcXlXiXtXqXqXqXqX4X<.2.R J Z }.1X- b - : l.: ~.J.P.N.{ H.",
"q.i j ! ^ j ! - > = - b - hXq.9 * ; 5 s.-X<X1X5X8X8XyXyXgXgXjXjXlXlXgXjXiXiXiXqXqXqXqX<X<.n p _ R ].#X5Xb - - - : % o /.U.U.$.$.",
"h y 0.j ! ! ! = - - - - z GXJX; 0 c 0 ; $X-X;X2X2X6X8XqXrXtXuXuXuXiXuXuXtXqXqXqX6X5X<Xt.<.i.i o.N.#X-XqXz x : : : = z Q.P.S.;.{ ",
"g f 8 ^ i @X, z z - - x z JXLXGX9.0 k g * #X-X-X<X4X6X6X6XqXqXqXrXrXqX0XqX7X6X5X2X<Xj.'.'.6.'.5.v.=X5XuXMX= > : : >.V.U.N.J.K.$.",
"; f h f ! j / b - - - : lXZXLXLXGXr.c k g 0 c -X-X<X<X2X2X5X5X6X5X6X6X6X6X4X2X2X-Xp.W.'.T.5.`.x.*X4XyXbXAXLXKXo x J.N.L.A.Q.B.A.",
"0 6 h 8 h j 0.^ b - > 2XqXxXSXLXKXBX' k k z ' c *X-X-X;X<X<X2X2X4X4X<X2X<X<X-X*X>X'.k.'.R.T.p.%X;XrXzXBXJXLXDXBXVXN.X.%.Z.(.A.A.",
"9 i 0.h ! 0.0.^ e.y.x.;X5XiXMXGXPXGXSX_ ( ( ( nXDXN b =X-X-X;X;X,X,X<X-X,X&Xw.> -XAXvX:.&.5.#X-X7XiXVXGXPXGXSXMX@.V.#.V.%.%.A.Z.",
"! ! H ^ H i ^ H.fXr.s.#X=X8XjXMXGXPXJXAXy.bXDXPXLX< : u.%X- = b u.N - - y.*X- x x PXLXGXxXv.=X4XuXnXDXKXJXSXVXjXR #.N.$.B.X.+.A.",
"/ #.^ ! H.H.0.I. XoXr.d.%X,XwXzXBXJXJXDXvXPXLXKXZX> x s.<X2X4XN s.w.8X7Xu.bXgX: r.SXGXLXxX*X<XuXcXBXKXKXDXBXlXE =.%.{ OX;.A.Z.Z.",
"Y.J.$.$.@.0.N.U.U.H.e.r.x.&X4XqXbXSXLXLXDXGXmXvXuX: e.v.tXuXuXiXiXuXiXgX-XAXPX= x tXzXnXAX;X8XzXBXGXLXGXBXMXq.#.:.#.V.A.A.N.).N.",
"Y.H.P.$.^ ^ M.H.I.H.I.r.u.v.*X7XgXnXDXPXZXiXrX5X;X: - %X-XjXjXjXlXlXlXgXrXJXPXr.: ;X4X7XtXjXVXMXFXPXGXSXNX&XE.^ OX/ K.>.;.N.N.I.",
"K.K.I.J.%.0.! ^ @.H._ q.r.u.v.;X6XgXmXkXuX4X,X&Xv.> u.-X*XbXbXzXbXzXxXxXbXKXPXPX: v.%X-X,Xg.rXSXLXKXSXVX-XJ J H R H _ 5.=.Q.Q.oX",
"P.P.U.J.H.N.$./ ~ $.! 0 a w.s.v.;XqXlX5X=X%Xx.s.w.$X2X;X<XnXmXnXnXnXnXcXmXDXPXPX>X` t.d.#XwX*XLXLXFXBX].&.E.;.;.o.B.~.{.{.~.P.~.",
"^.P.^.^.U.K.H.=._ =.t z a s n l.&X2XuX%Xx.y.<.d v <.4X5X5XVXLX5Xb o = - = mXDXJXnX:.Y.`.r.y.-XLXFXZX( ' W ( &.o.%.=.G.B.~.P.{._.",
"P.^.OX^./.^.K.q..X4.i.v : s s > u.l.e.t., e.e.2.1.j.yX0X8X- - x n x > : > < 6XxXzXk.0X].'.R.D.S.W.( ) E ` /.( } !.5.S.Y.~.Q.|.|.",
"dXpXpXpXaXpX/.{.W.t.t.n n 3.n n v i.2.1.k.6.t.3.l.j.uX7X: - > = - , v b b z > u.wXR.F.F.R.:X6.*.i.( p J =._ R / #.!.S.!.Y.|.|.Q.",
"dXdXfXdXdXaXaX].p.d.3.v.3.3.v.h.3.3.$Xj.t.1.1.e.e.].jX- z = - > - - - - = = : : l.#XD.bX].k.6.!.4.W E E E _ _ V.#.` i.i.e.-.` i.",
".XpX.X_./.W.:X>Xt.3.n 3.3.3.h.j.3.3.t.h.l.w.<.e.2.lXr.$XbXVXGXPXPXPXPXPXPXDXVXzX0X>X6.k.8XF.B.4.4.,.` E k d p ( c ' ( ( q.~ ' -.",
"!.:X/.Y././.Y.p.:XW 1.,.,.,.,.W v d v '.$X) ( ` 2.&X8XuXzXVXFXPXPXPXPXPXPXDXNXlXbXbXk.}.k.`.|.4.2.) d c ~ c ( ) ( ( ` 4._ &.' q.",
"Y./.R.!.Y.Y.W.6.,.d W R.d 6.E W W ` ) 6.i.2.-.].p.LX8XrXkXmXAXPXPXPXPXPXJXDXmXkXqXFX}.7.0XR.F.5.W E E ) /._ 4.4.>.4.5.5.i.S.5./.",
"7.R.5.5.6./.6.2.Q E S i.5.:X4.o.Q Q O.` i.' _ _ 4.AX<XqXiXcXBXFXLXLXPXKXFXBXxXgX8XbXDXD.B.D.F.:.6.-._ &._ _ !.!.T.Q.!.!.|.~.{.pX",
"6.:X7.7.7.6.O.Q F F B F *.Q o.Q Q *.W /.O.W.*.*.vXyX<X6XuXjXnXZXFXFXGXSXVXnXjXqX5X,XJXQ :.6.-.6.4.-.R Y.&.S.Y.{.~.~.Q.~.~.~.|.|.",
"O.O.6.6.O.O.+.o.F J S D F S } Q Q R T.o.o.o.Q &.DX%X-X<X6XhXjXbXnXVXMXmXbXgXyX6X,Xv.#X-.Q 4.Q p.i.*.o._ %.D.~.{.~.Q.Q.Q.G.~.A.G.",
":.+.[ [ [ +.[ [ [ Y F Y F F Y Y F R :.Q o.R G _ f.jXxXVXgX3X<X5XrXuXyX8XkXZXBXnXgX= - n ` 4.` W.W R T R } +.!.~._.G.G.D.A.D.B.X.",
" .+.+.+.[ [ [ +.[ Y } Y Y Y F Y F o.G G Q S.G VXz hXkXnXBXDXGXKXKXJXKXFXAXVXcXjXa : = SXPXE _ ( _ ~ G Q } :.S.Q.!.G.V.V.V.X.@Xm.",
"+.+.B.+.[ o.o.[ o.[ Y S S S e A B F G S t t &X-Xz - jXxXnXNXAXDXFXFXSXAXVXcXlXz > = gXDXDXG G t &./.J P Q [ :.V.Y.V.Q.V. .|  .C.",
"G.+.+.+.+.sX+.[ [ D D Y F F S S G S t _ t t l.,XgXN < gXlXnXnXMXVXVXNXMXxXjXw.= = 8XPXJXMXr Y.S r t H H S T &.X.;.[ X.m.m.| m.m.",
"[ +.[ [ +.[ P [ [ } Y D A D D D F Y S A t t g.;XiXMXx < jXjXlXxXbXxXzXlXlXw.: : ,XPXPXKXMXr r V r V B B V K.U U | m.| | ] ] C.C.",
"Y  .sXX.[ [ [ [ Y +.D :.Y D R Y F A F A S A E -XwXbXFXo > rXqXiXiXiXiXyXf.N z y.PXPXPXGXd.Z / B C r V H P ] | ] K | m.N.| | m.m.",
"Y Y Y Y D Y Y [ [ Y Y Y D D D D D A A A t G A %X5XjXMXFX, x r.6X7X7X7X5Xs.u.< LXPXPXJXBXr aXr r r V V Y U C U | ] ] N. .U.I C.).",
"D D Y A A A A D Y Y Y Y o.D D B D A A A e A A e.-X7XjXMXNX, b x $X;X;Xs.&Xr.MXAXAXAXmX8Xr V V V V V Y P T D U P ] I Q.] P | m.C.",
"B e A D &.5.o.B B D D D D D B A A D e A e e e e #X-X6XiXjXxXN e.3 2 2 s <XtXjXlXzXzXgXr H V H Z V L V Z } Z K P D K ] I P. .C.m.",
"e B B e B e :.D D D F D A B e A B e e e Q e w w s.#X*X,X5X7X6X<X3 3 3 s.-X4X7XqXqX8X7Xr &.q.H /.I.L Z Z Z Z V V Z { ] P ] m.m.U ",
"e :.e A D D F Q D D D Y A A S B B w e w w w w t w.y.f.#X%X#Xw.#X0 2 # s.f.z - = x &Xy.q q OXq.L C T Z L L P %.#.I I U ] ..] | V.",
"w A B e B e B B D Y Y D D B B t e e w t 3 w 3 w 8X<XrXbXAXPXAXy.w 2 2 r.*X5XuXVXGXLXSXK.q q r q.L { U P { L /.m.P P  .] ] | N.] ",
"w w 3 w t T.B B F D B Y A A e e w t w w 3 w w 3 #X<X8XzXAXPXDXzX2 2 2 i.*X5XiXMXDXLXBXr r q 2 V Z U { ] ] | ] X.U C U C K K ] I ",
"2 3 q w w w A B B B A D A e e e w w w w 3 q q w -Xz b w.r.u.d.nX-.r 2 g.f.%X#X=X9XDXLX9Xr q r V L U ] K.U L K ] V Q.V C C I C X.",
"2 w w w w w w A B A B A A A e w w w w *.w R.2 s.%XrXBXLXPXPXPXhX# 2 q *X*XuXSXPXPXPXPXzX2 K.R C U U C C I K V I K K K ;.V C K K ",
"w w 2 3 w w w r B e t F B e w e w 3 3 # 2 S w s.%X7XMXLXPXPXPXZXq q 2 x.%XqXcXKXPXPXLXbXfXP L K L C V Z C C C I I C K C ] C I K ",
"3 3 3 w 3 3 3 w e e A 3 w e G 3 3 e 3 q w 3 3 ) v.;XgXVXFXFXGXgXq r q s.v.;XiXMXAXAXAXhXP U { ..C Z P K K C K T K C K K C I ] I ",
"3 3 3 3 w 3 3 e w w +.B w w e w w 3 w w w 3 3 ' g.#X<XtXjXjXtXs.q q q 3 r.%X;X8XuXyX8Xd.P K I P K | ] ] C K I I K K I P K ] I I ",
"3 3 w 3 e S 3 w t e e e w e w t w w w q B 3 w 3 @ N - = N x - r r q q 2 r t i.O * d K K ] I ] I ^._.I K K | K I I ] I I ] ] aX] "
};
