/* XPM */
static char *_14a0ca94cae409d94f2e8c3114e3d0c6jza0fM6HPDWB1ob[] = {
/* columns rows colors chars-per-pixel */
"53 64 179 2 ",
"   c None",
".  c #0D0A09",
"X  c #090305",
"o  c #120D0A",
"O  c #140806",
"+  c #16110E",
"@  c #1B1409",
"#  c #1C1613",
"$  c #1E1916",
"%  c #1E1718",
"&  c #1D1919",
"*  c #161513",
"=  c #211916",
"-  c #221C1A",
";  c #1E2117",
":  c #24211C",
">  c #211F26",
",  c #242424",
"<  c #2A2522",
"1  c #2C2A25",
"2  c #2E2D29",
"3  c #2F252C",
"4  c #332D2B",
"5  c #36322E",
"6  c #392A32",
"7  c #3A3533",
"8  c #3D3C36",
"9  c #3F3E3A",
"0  c #403835",
"q  c #463F3D",
"w  c #4E5A28",
"e  c #4A5921",
"r  c #44413D",
"t  c #48453E",
"y  c #536E26",
"u  c #4E3D43",
"i  c #474540",
"p  c #4A4544",
"a  c #4D4845",
"s  c #4E4D4A",
"d  c #4B4548",
"f  c #544E4B",
"g  c #52454A",
"h  c #4F534D",
"j  c #54534E",
"k  c #535451",
"l  c #595454",
"z  c #5C5A54",
"x  c #5E5B5A",
"c  c #555F56",
"v  c #625D5A",
"b  c #6C5A5E",
"n  c #5E635C",
"m  c #63625D",
"M  c #68605E",
"N  c #646562",
"B  c #6A6462",
"V  c #656962",
"C  c #6A6D66",
"Z  c #706660",
"A  c #726E6A",
"S  c #726F66",
"D  c #6F726B",
"F  c #73736C",
"G  c #79726F",
"H  c #7D7574",
"J  c #767A74",
"K  c #797B75",
"L  c #7E7F7B",
"P  c #767773",
"I  c #807D79",
"U  c #789645",
"Y  c #788772",
"T  c #7F8079",
"R  c #88A259",
"E  c #97B55C",
"W  c #83847D",
"Q  c #87897D",
"!  c #9ECE5D",
"~  c #A6C56C",
"^  c #ABD262",
"/  c #AED76F",
"(  c #AED86E",
")  c #868982",
"_  c #8B8B85",
"`  c #858681",
"'  c #938E8A",
"]  c #8E9189",
"[  c #93938D",
"{  c #97998F",
"}  c #98918D",
"|  c #959692",
" . c #9B9593",
".. c #949991",
"X. c #9C9D95",
"o. c #9E9B99",
"O. c #9DA199",
"+. c #A3A49C",
"@. c #A7A99E",
"#. c #A8AA9E",
"$. c #A7A8A1",
"%. c #ABACA2",
"&. c #B2ADAA",
"*. c #AFB1A6",
"=. c #AFB0AB",
"-. c #B0B2A7",
";. c #B3B5AB",
":. c #B7B9AD",
">. c #B9BBAE",
",. c #BBBCB2",
"<. c #BBB9B7",
"1. c #C2BFB6",
"2. c #C4BFBC",
"3. c #BEC0B4",
"4. c #BDC2BB",
"5. c #C4C3AF",
"6. c #C1C3B6",
"7. c #C4C8B7",
"8. c #C4C6BA",
"9. c #C6C9BB",
"0. c #C9CBBD",
"q. c #CDC3BC",
"w. c #C4BEC0",
"e. c #C6C7C1",
"r. c #CCCDC2",
"t. c #CDCEC9",
"y. c #D2CCC0",
"u. c #CED1C4",
"i. c #CFD0CA",
"p. c #D1D3C5",
"a. c #D4D5CB",
"s. c #D7D8CD",
"d. c #D8DACF",
"f. c #D0CDD2",
"g. c #D5D5D2",
"h. c #D8D7D0",
"j. c #D7D8D0",
"k. c #DBDCD4",
"l. c #DDDED9",
"z. c #E2DFDC",
"x. c #DFE0D6",
"c. c #DFE0D9",
"v. c #E4E5D6",
"b. c #E2E3DC",
"n. c #E7E8DF",
"m. c #DFE5E6",
"M. c #E5E6E1",
"N. c #E8E7E2",
"B. c #E7E8E3",
"V. c #EAEAE5",
"C. c #EDEEEA",
"Z. c #E3E5E9",
"A. c #EFF0EB",
"S. c #F1F1ED",
"D. c #F1F2ED",
"F. c #E9EEF0",
"G. c #F2F2F0",
"H. c #F4F4F2",
"J. c #F5F5F3",
"K. c #F5F6F1",
"L. c #F7F7F5",
"P. c #F4F4F4",
"I. c #F5F5F3",
"U. c #FAF6F5",
"Y. c #F7F8F3",
"T. c #F7F8F3",
"R. c #F9F9F7",
"E. c #F9FAF6",
"W. c #F9FAF6",
"Q. c #F7F7F8",
"!. c #FAFAF8",
"~. c #FBFBFB",
"^. c #F9F9F8",
"/. c #FCFCFB",
"(. c #FDFDFD",
"). c #FFFFFD",
"_. c white",
"`. c #FEFFFE",
"'. c #FDFDFC",
/* pixels */
"                                            r.a.s.s.k.j.j.t.                                              ",
"                                      r.p.s.k.k.l.c.c.b.c.k.k.k.r.                                        ",
"                                  6.u.p.s.k.b.b.M.M.V.B.M.n.b.l.k.h.q.                                    ",
"                                8.r.p.j.l.b.M.V.C.C.G.A.C.C.V.V.b.l.k.s.                                  ",
"                              9.r.p.k.l.M.V.C.G.H.P.~.~.W.L.G.C.V.b.x.a.u.                                ",
"                            6.9.t.s.k.M.V.C.P.~.(.(.(.(.(.~.~.P.C.V.M.l.j.t.                              ",
"                          ,.8.r.s.k.b.V.S.P./.(.(.(.(.(.(.(.(./.H.C.B.b.k.a.r.                            ",
"                        :.3.9.u.j.k.n.C.H.~.(.(.(.(.(.(.(.(.(.(.~.H.C.M.k.j.u.                            ",
"                        ,.6.9.p.j.b.B.A.P.(.(.(.(.(.(.(.(.(.(.(.(.T.A.V.c.j.i.T.                          ",
"                      e.,.8.r.a.k.n.V.P.(.(.(.(.(.(.(.(.(.(.(.(.(.~.G.V.b.k.a.A.                          ",
"                      C.,.7.r.a.k.M.C.H.(.(.(.(.(.(.(.(.(.(.(.(.(.~.H.C.b.x.a.n.9.                        ",
"                      -.,.7.0.a.k.M.C.G.(.(.(.(.(.(.(.(.(.(.(.(.(./.L.C.b.l.s.u.p.                        ",
"                     .;.,.8.u.p.k.n.C.L.(.(.(.(.(.(.(.(.(.(.(.(.(.(.L.V.M.l.a.0.e.                        ",
"                    $.;.>.8.0.a.k.b.V.G.(.(.(.(.(.(.(.(.(.(.(.(.(.!.G.V.b.l.a.r.3.                        ",
"                    +.-.>.6.0.p.k.b.V.A.W.(.(.(.(.(.(.(.(.(.(.(.(.T.S.V.b.j.u.0.!.                        ",
"                    +.*.>.6.7.p.s.l.M.C.L./.(.(.(.(.(.(.(.(.(.(./.D.F.Z.l.s.u.9.D.                        ",
"                    o.%.:.,.8.r.a.k.b.V.C.P.(.(./.~.2.a o + # o + 0 E R y @ +.6.l.                        ",
"                      #.-.>.6.9.p.s.z.Y @ m C././.(.~./.(./.W.L.S.V.w ( ~ z 9.8.]                         ",
"                      +.%.;.3.B U ^ ! e v.C.C.G.P.L.W.W.T.L.D.C.V.M.Z.y > 9.7.,.:.                  O 5   ",
"  b                   +.*.: ,.5.$ ^ ( l.l.M.N.V.C.S.S.S.D.C.V.V.b.b.h.p.p.9.3.,.                  b i     ",
"  f r                   $.%.:.,.8., f.p.k.k.b.b.B.V.V.V.V.V.b.b.l.s.a.u.9.7.>.:.                  l #     ",
"    v x                 +.%.*.;.,.8.7.t.p.s.k.k.k.c.b.x.k.k.k.k.a.p.u.7.6.>.;.              f A # _ - .   ",
"    = < %   B             +.%.*.:.,.6.7.0.r.p.s.s.j.k.j.k.s.a.p.r.0.7.6.,.:.-.            &.$ 5 = - H -   ",
"  $ - * = 7 = z.          ' +.#.*.:.,.,.6.8.r.r.r.u.u.p.u.r.r.0.9.8.,.,.;.*.            ] =.8 $ = % & + + ",
"  * = # $ = 1 C.G.           .@.$.*.;.:.,.,.8.8.7.7.r.0.7.7.9.6.3.,.:.;.%.            _ +.,.1 4 = = $ = , ",
"- , < - = 2 1 P.~.D.          [ +.+.%.*.:.:.:.,.6.3.6.6.3.3.,.,.:.:.-.%.            W O.;.0.l.* : - -     ",
"  0 = $ = = p.B.W.W.C.            +.$.@.%.-.-.:.:.,.:.:.:.:.;.;.*.%.%.            T X.*.7.s.B.W.L.+ 4     ",
"    7 * - *.7.s.V.~.T.V.            O.+.+.@.%.%.%.%.*.*.*.*.%.#.+.X.w.          Z [ @.6.a.b.L.R.D.n.v.    ",
"    l V W +.;.0.k.A.(.D.V.        l.C.q 8 X.O.+.+.%.@.$.%.+.%.| g - +.M.k.      _ +.,.0.v.D./.D.V.k.      ",
"      k C _ +.>.u.b.S./.D.V.  z.C.~.!.: # M [ $ * 7 M r $ # v X.# 4 4 /.~.F.s._ X.;.9.l.V.!.L.V.v.a.      ",
"        j D [ %.3.a.n.P.L.C.p./.~.H.n.- 4 C %.*.&.t C i ,.>.m s.t.= v N.K.L.j.X.%.7.s.n.T.L.C.n.a.        ",
"        i c J X.%.8.j.B.~.L.V.H.b.p.8.= j W 9.9.0.0.0.0.r.r.@.V.(.* 4 8.p.z.N.+.3.u.b.D.~.A.n.x.          ",
"          k n W O.;.0.x.A./.M.u.6.;.#.= & [ +.u.u.p.p.p.p.t.,.H.(.m = #.;.>.7.p.b.k.D./.D.V.x.r.          ",
"            h V ` +.:.u.c.i.7.=.#.| Q - m O.X.s.s.s.a.a.a.d.h.P.(.~.- I [ +.%.P 6.V./.L.V.v.y.            ",
"              s D ] #.3.i.;.O.] W V d o.%.%.*.d.k.k.z.d.k.k.l.S.(.(.&.  z F ` 4.X.W.W.C.n.                ",
"                g J [ *.7.[ T m u       ;.-.:.b.U.&.7 + * $ # k.V.P.C.      l n +.!.S.n.                  ",
"                    P }     ;           3.>.,.$ = 4 r 2 - = : < :.a.a.                                    ",
"                                        8.>.= $ - # $ - 5 8 8 < - M ,.                                    ",
"                                        r.$ 1 # # : # # = % * $ $ $ W  .                                  ",
"                                      k.j ' k.b.S.(.(.(.(.(.(.A.b.a.r.X.                                  ",
"                                      ..,.9.a.b.S.(.(.(.(.(.(.A.b.a.j.k.                                  ",
"                                      Q.:.6.p.l.V.~.(.(.(.(.P.V.k.u.3.A.                                  ",
"                                      M.%.,.r.k.b.S.T.!./.T.D.n.s.0.>.j.L.                                ",
"                                    g.e.%.:.6.t.k.n.C.C.S.C.b.k.u.4.:.%./.                                ",
"                                    C.[ +.%.>.8.u.k.k.b.b.k.k.r.8.>.%.Q _                                 ",
"                                    F r.k.b.t.-.$.:.6.0.8.,.t.b.b.k.r.* $ 8                               ",
"                                  n.1 e.a.k.b.C.S.L.W.P.P.C.V.b.k.u., # # V.(.                            ",
"                                <.O.1 $ r.a.k.b.M.C.C.S.V.M.b.d.p.< = $ t.A.V.                            ",
"                                L #.t.q - r.p.k.k.b.b.c.l.k.s.r.f # $ <.(.P.n.                            ",
"                                K @.9.v.5 : r.t.p.s.s.s.s.p.p.i # = +.(.(.H.b.                            ",
"                                  +.6.k.C.+ - 1.6.0.0.0.0.8.S p < m (.(.(.S.                              ",
"                                  | -.r.c.S.- 4 j :.,.,.>.:.B M : ~.(.~.S.B.                              ",
"                                  H +.>.p.k.n.& 7 2 X.%.@. . .k c.B.V.B.x.p.                              ",
"                                    ) +.:.0.p.a.i z       6 $.7.u.a.s.a.r.                                ",
"                                    V W X.%.;.:.:.%.      _ +.;.,.3.3.3.>.                                ",
"                                    h n F ) } _ p )       V H : $ $ 2 | z                                 ",
"                                    <.*.6.s.V.(.V.n       m O.-.0.c.S.W.V.                                ",
"                                    _ #.,.a.M.(.V.k.      I X.;.0.c.A.W.b.                                ",
"                                    @.: 8 a l N F h.      J F ] _ X.<.G.~.8.                              ",
"                                  F [ 6.b.!./.(.(.t.      O.O.7.B.(.(.(./.a.                              ",
"                                  o.] >.l.~.(.(.(.M.      T [ >.l.T.(.(.~.g.                              ",
"                                  x Q @.r.n.S.A.S.r.      C ) @.0.l.V.M.M.9.                              ",
"                                    J ) #.7.u.u.7.A         x ] +.,.8.0.,.I                               ",
"                                    . r $ $ 9 5 &               3 X X 6                                   "
};
