/* XPM */
static char *result[] = {
/* columns rows colors chars-per-pixel */
"64 64 82 1 ",
"  c #070707",
". c #0F0808",
"X c #0F0909",
"o c #100909",
"O c #110909",
"+ c #120909",
"@ c #130909",
"# c #140909",
"$ c #150909",
"% c #150A0A",
"& c #170A0A",
"* c #180A0A",
"= c #190A0A",
"- c #260D0D",
"; c #270D0D",
": c #280D0D",
"> c #290D0D",
", c #2A0D0D",
"< c #2B0D0D",
"1 c #2B0E0E",
"2 c #330F0F",
"3 c #331414",
"4 c #331515",
"5 c #321818",
"6 c #321919",
"7 c #321A1A",
"8 c #321B1B",
"9 c #321F1F",
"0 c #2E2A07",
"q c #322020",
"w c #322121",
"e c #312E2E",
"r c #52330D",
"t c #5C3E0C",
"y c #5D3F0C",
"u c #4C4A05",
"i c #4E4C05",
"p c #5F420C",
"a c #684C0B",
"s c #694D0B",
"d c #6A4F0B",
"f c #6B500B",
"g c #6D520A",
"h c #785F0A",
"j c #7A6109",
"k c #7B6209",
"l c #7C6309",
"z c #7D6509",
"x c #7E6609",
"c c #816909",
"v c #897208",
"b c #8C7508",
"n c #907A08",
"m c #8D8005",
"M c #908605",
"N c #988307",
"B c #989403",
"V c #A08D06",
"C c #A18D06",
"Z c #A18E06",
"A c #A28F06",
"S c #A39006",
"D c #A49106",
"F c #A79406",
"G c #A89606",
"H c #A99606",
"J c #A99706",
"K c #A39D03",
"L c #A29E02",
"P c #AB9906",
"I c #AE9D05",
"U c #B1A105",
"Y c #B4A405",
"T c #B0AA02",
"R c #B8A805",
"E c #BAAB04",
"W c #BBAB04",
"Q c #BBAC04",
"! c #BCAC04",
"~ c #BDAE04",
"^ c #C4B604",
"/ c #F2EB00",
/* pixels */
"22222222=  ;2222222222&  >2222222222# O22222222222+ @22222222222",
"22222222=  -2222222222&  ;2222222222% @22222222222@ #22222222222",
"22222222*  :2222222222%  ,2222222222@ o22222222222O +22222222222",
"22222222=  -2222222222&  :2222222222$ +22222222222@ #22222222222",
"22222222=  -2222222222&  ;2222222222% @22222222222@ #22222222222",
"66566322*  :2222222222%  <2222222222@ X22222222222o +22222222222",
"eeeeeq22=  -2222222222&  :2222222222% +22222222222@ #22222222222",
"eeeeeq22=  -2222222222&  ;2222222222% @22222222222@ #22222222222",
"eeeeeq22*  >2222222222%  12222222222@ .22222222222o O22222222222",
"eeeeeq22=  -2222222222&  :2222222222% +22222222222@ #22222222222",
"eeeeeq22=  -2222222222&  :2222222222% +22222222222@ #22222222222",
"wwwww622*  >2222222222%  12222222222@ .22222222222o O22222222222",
"22222222=  -2222222222&  :2222222222% +22222222222@ #22222222222",
"22222222=  -2222222222&  :2222222222% +22222222222@ #22222222222",
"22222222*  >2222222222%  12222222222+ .22222222222o O22222222222",
"22222222=  -2222222222&  :2222222222% +22222222222@ #22222222222",
"22222222=  -2222222222&  :2222222222% +22222222222@ #22222222222",
"22222222*  >2222222222%  12222222222+ .22222222222o O22222222222",
"22222222=  -2222222222&  :2222222222% +22222222222@ #22222222222",
"22222222=  -2222222222&  :2222222222% +22222222222@ #22222222222",
"22222222*  >2222222222%  12222222222@ .22222dVCy22o 0ZVh22222222",
"22222222=  -2222222222&  :2222222222% +22222n//x22@ i//A22222222",
"22222222=  -2222222222&  :2222222222% +22222n//z22@ u//S22222222",
"22222222*  >2222222222%  12222222222@ .22222rlkNJPKBMjlt22222222",
"22222222=  -2222222222&  ;2222222222% @22222222F////R22222222222",
"22222222=  -2222222222&  :2222222222% +22222222G////E22222222222",
"22222222*  :2222222222%  <2222222222@ X22222222I////^22222222222",
"22222222=  -2222222222&  ;2222222222% @22222222F////R22222222222",
"22222222=  -2222222222&  :2222222222$ +22222222H////Q22222222222",
"22222222*  :2222222222%  ,2222222222@ o22222lW!vfapfc~Eb22222222",
"22222222=  -2222222222&  ;2222222222% @22222n//x2222g//A22222222",
"22222222=  ;2222222222&  >2222222222# O22222n//l2222s//D22222222",
"22222222=  ;2222222222&  >2222222222# O22222n//l2222s//D22222222",
"22222222=  -2222222222&  ;2222222222% @22222n//x2222g//A22222222",
"22222222*  :2222222222%  ,2222222222@ o22222lW!vfapfc~Eb22222222",
"22222222=  -2222222222&  :2222222222$ +22222222H////Q22222222222",
"22222222=  -2222222222&  ;2222222222% @22222222F////R22222222222",
"22222222*  :2222222222%  <2222222222@ X22222222vUYTLm22222222222",
"22222222=  -2222222222&  :2222222222% +22222222222@ #22222222222",
"22222222=  -2222222222&  ;2222222222% @22222222222@ #22222222222",
"22222222*  >2222222222%  12222222222@ .22222222222o O22222222222",
"22222222=  -2222222222&  :2222222222% +22222222222@ #22222222222",
"22222222=  -2222222222&  :2222222222% +22222222222@ #22222222222",
"22222222*  >2222222222%  12222222222@ .22222222222o O22222222222",
"22222222=  -2222222222&  :2222222222% +22222222222@ #22222222222",
"22222222=  -2222222222&  :2222222222% +22222222222@ #22222222222",
"22222222*  >2222222222%  12222222222+ .22222222222o O22222222222",
"22222222=  -2222222222&  :2222222222% +22222222222@ #22222222222",
"22222222=  -2222222222&  :2222222222% +22222222222@ #22222222222",
"99q99522*  >2222222222%  12222222222+ .22222222222o O22222222222",
"eeeeeq22=  -2222222222&  :2222222222% +22222222222@ #22222222222",
"eeeeeq22=  -2222222222&  :2222222222% +22222222222@ #22222222222",
"eeeeeq22*  >2222222222%  12222222222@ .22222222222o O22222222222",
"eeeeeq22=  -2222222222&  :2222222222% +22222222222@ #22222222222",
"eeeeeq22=  -2222222222&  :2222222222% +22222222222@ #22222222222",
"78788422*  >2222222222%  12222222222@ .22222222222o O22222222222",
"22222222=  -2222222222&  ;2222222222% @22222222222@ #22222222222",
"22222222=  -2222222222&  :2222222222% +22222222222@ #22222222222",
"22222222*  :2222222222%  <2222222222@ X22222222222o +22222222222",
"22222222=  -2222222222&  ;2222222222% @22222222222@ #22222222222",
"22222222=  -2222222222&  :2222222222$ +22222222222@ #22222222222",
"22222222*  :2222222222%  ,2222222222@ o22222222222O +22222222222",
"22222222=  -2222222222&  ;2222222222% @22222222222@ #22222222222",
"22222222=  ;2222222222&  >2222222222# O22222222222+ @22222222222"
};
