/* XPM */
static char *_c44410963524e8ace8facc20bcf9553SIPNRBTOzVwUTPkr[] = {
/* columns rows colors chars-per-pixel */
"64 64 256 2 ",
"   c #020407",
".  c #0E0A05",
"X  c #03060A",
"o  c #04090D",
"O  c #0E0C0B",
"+  c #150B05",
"@  c #130D0C",
"#  c #190F0D",
"$  c #0F110C",
"%  c #1A1407",
"&  c #16110D",
"*  c #1B120D",
"=  c #020614",
"-  c #050C13",
";  c #090D14",
":  c #02061A",
">  c #030A1C",
",  c #160E12",
"<  c #071417",
"1  c #03141D",
"2  c #0A131B",
"3  c #161211",
"4  c #1C1412",
"5  c #1D1914",
"6  c #18191B",
"7  c #22140D",
"8  c #23180E",
"9  c #351D0F",
"0  c #211614",
"q  c #281615",
"w  c #231A15",
"e  c #2B1C15",
"r  c #241C1A",
"t  c #291E1A",
"y  c #331E17",
"u  c #262119",
"i  c #2C221C",
"p  c #33231C",
"a  c #382518",
"s  c #3B231C",
"d  c #030B22",
"f  c #07072A",
"g  c #021423",
"h  c #0A1523",
"j  c #021A25",
"k  c #071728",
"l  c #031A2C",
"z  c #0B1C2C",
"x  c #131B24",
"c  c #161828",
"v  c #0B0333",
"b  c #080739",
"n  c #16083E",
"m  c #031C32",
"M  c #051937",
"N  c #0B1C33",
"B  c #0B1C3B",
"V  c #171B38",
"C  c #271A26",
"Z  c #301D2E",
"A  c #2A1A37",
"S  c #07222B",
"D  c #19232A",
"F  c #082337",
"G  c #04223C",
"H  c #182434",
"J  c #2C2322",
"K  c #262529",
"L  c #322523",
"P  c #342A23",
"I  c #3B2C24",
"U  c #392B28",
"Y  c #3C3229",
"T  c #282838",
"R  c #352A36",
"E  c #373337",
"W  c #45281B",
"Q  c #4B2B1D",
"!  c #53321A",
"~  c #633F11",
"^  c #442B22",
"/  c #492B24",
"(  c #552D25",
")  c #443324",
"_  c #49362B",
"`  c #573629",
"'  c #492A38",
"]  c #493B35",
"[  c #593C35",
"{  c #6D362E",
"}  c #663929",
"|  c #643B2C",
" . c #663C33",
".. c #734C1E",
"X. c #58452C",
"o. c #4B4434",
"O. c #5C4333",
"+. c #594739",
"@. c #6F4B2E",
"#. c #795A2A",
"$. c #644736",
"%. c #654C3C",
"&. c #694E3C",
"*. c #774737",
"=. c #695238",
"-. c #6B523C",
";. c #71612D",
":. c #0C0546",
">. c #110747",
",. c #061946",
"<. c #161A49",
"1. c #120657",
"2. c #05185B",
"3. c #111656",
"4. c #281B57",
"5. c #092547",
"6. c #142846",
"7. c #082855",
"8. c #172854",
"9. c #0A3459",
"0. c #143457",
"q. c #2B2947",
"w. c #363747",
"e. c #2E2F53",
"r. c #393758",
"t. c #1A0C69",
"y. c #071867",
"u. c #11126D",
"i. c #051674",
"p. c #25176A",
"a. c #341B68",
"s. c #241676",
"d. c #0B2965",
"f. c #182868",
"g. c #083465",
"h. c #0E376F",
"j. c #142676",
"k. c #183778",
"l. c #373667",
"z. c #31316F",
"x. c #272878",
"c. c #4B3650",
"v. c #4D336F",
"b. c #653663",
"n. c #134650",
"m. c #314651",
"M. c #0D4776",
"N. c #304A6E",
"B. c #574C44",
"V. c #504756",
"C. c #684D42",
"Z. c #6D5342",
"A. c #6A5646",
"S. c #715643",
"D. c #745B44",
"F. c #775A47",
"G. c #755C4C",
"H. c #795E4D",
"J. c #6C4651",
"K. c #6B5857",
"L. c #755D52",
"P. c #7A5D53",
"I. c #42645E",
"U. c #77634A",
"Y. c #7B624C",
"T. c #6F6C54",
"R. c #7C6353",
"E. c #786657",
"W. c #474467",
"Q. c #504C6B",
"!. c #6E4F70",
"~. c #516975",
"^. c #776C6A",
"/. c #854E3F",
"(. c #91713A",
"). c #895644",
"_. c #8B5B53",
"`. c #826653",
"'. c #856A58",
"]. c #856B5C",
"[. c #906C54",
"{. c #8A735D",
"}. c #A46B57",
"|. c #815E63",
" X c #886E61",
".X c #8C7362",
"XX c #887565",
"oX c #947B64",
"OX c #967A68",
"+X c #957C6B",
"@X c #8E7978",
"#X c #A97567",
"$X c #7A8365",
"%X c #8F8552",
"&X c #A08D4A",
"*X c #9C846C",
"=X c #9C8475",
"-X c #919279",
";X c #A58D7A",
":X c #B08C71",
">X c #081C8D",
",X c #0F318A",
"<X c #092798",
"1X c #172795",
"2X c #2F328C",
"3X c #0F2EAC",
"4X c #2839A7",
"5X c #2F36AA",
"6X c #533794",
"7X c #5A339F",
"8X c #6A3B8B",
"9X c #064285",
"0X c #154D8F",
"qX c #284599",
"wX c #345292",
"eX c #126B9E",
"rX c #35689B",
"tX c #154CB4",
"yX c #3351A8",
"uX c #2E6EB2",
"iX c #504B90",
"pX c #674F91",
"aX c #526D8A",
"sX c #716E8F",
"dX c #504CAE",
"fX c #7256AD",
"gX c #4965AB",
"hX c #496BB1",
"jX c #6F70AC",
"kX c #3D65C3",
"lX c #6369C2",
"zX c #A95E8D",
"xX c #8454A4",
"cX c #8C76B2",
"vX c #A664AF",
"bX c #C665A0",
"nX c #866FC5",
"mX c #118ABC",
"MX c #518B99",
"NX c #6694AC",
"BX c #3698D3",
"VX c #589FD1",
"CX c #2FD3EE",
"ZX c #64D7EA",
"AX c #9E959C",
"SX c #AA9484",
"DX c #8E92AE",
"FX c #A2A7B3",
"GX c #C89F96",
"HX c #9497CC",
"JX c #A5B1D9",
"KX c #C0BFDB",
"LX c #ADC9DA",
"PX c #AFCEE4",
"IX c #95E3EB",
"UX c #C4C4CF",
/* pixels */
"o o o o o $ X o o X X   X     X X o . X X   $ o     o   X   K       . o $ o o o o X 6 ; o o = X c o X o X X = 2 = o = : = T h = ",
"o o O o - o o X X X X X o o $ o o   o X o o o o o X X                 o 2 ; o ; X ; x X = ; - = = = ; = = = = = c = ; = > ; - r.",
"- o ; < x - - X o o X X o o X < - - o - o - o o E X   X K X X X     6 B.+X;X;X;XSXSXE h > > > - = = = = = = = : = : d f f c d : ",
"o - - ; - X O o X X o o o o - o < - < - o - o o < o o X   X o J *X*X*XoXoXoX*X*X*X*X;XSX^.> d > : h ; : : = : : : : = : : : : : ",
"< D 2 ; o o o o o o o ; - o < - < D - X ; ; D - o - $ X o $ L.+.;XoXoXoX*XoX{..XoXoXOX;X:X;XT > : : = = = : > : > : : : : d : > ",
"h 1 h h 2 > ; ; < - - h - < 2 1 H k < h j > 2 1 o < o 6 x [ U L p u =XoXoXoX{.{..X.XoX*X;X;X;X@Xd 2 : : : : : : z > M : : : d d ",
"F N S k k k d d k k h d d k N N c z k z S h g d 1 h h NX%._ I U K K t ^.oXOX+X{.{.{.oX{.*X;X;X;XSX: : : : V > 2 d : : : > > d z ",
"F H F N B N V M M N B <.N F N.6.G B B B F N H N m N l E %./ +.O.) o.L u ^ .XOX.X].].{.oX*X*X*X;XSX@Xd : : : > > > > : d d > d > ",
"6.F B N ,.M M M B ,.5.5.5.5.7.Q.F 5.6.B NXsXM F M ~.N &.| *.}.).[ s I y y ^.{.oX`.{.]..XOX+XOX*XSXSXh g > > d d d d : B d f f b ",
"0.5.<.0.k k g 1 d j m.l m.B F 5.aXN B B V l N M G ,.k &.| :X}.).F.$. .[ [ / '.oX{.`. X'.OX+XOXOX=XSXSXd d h N.d f f b b f 2.y.y.",
"6.5.S m k j g j j j j 1 H h k j S z l z S z h k z ~.h $.#X#X}./.).*./.*.*.| -..X.X].'.]. XOX+XOX=X=XSXf d f b ,.7.,.:.u.y.3Xi.i.",
"5.z j j g 1 g 1 1 n.h j S z k S N k F c l l k g N c 2 *.:X}.}._./.).).*.*.$.` ].{.R.'.].{..XOXoX+X=XSX-Xf ,.,.y.2.i.2.i.i.:.y.b ",
"j S j 1 F 1 g g g l l j S m.1 S z S 6.l N z z h m.h D *.:X#X).).)./.)./.@.*.` '.{..XR.]. X{.{..XOX+X;XSX2.d.y.,.y.:.,.:.v ,.b M ",
"S m m l m d l g S g l l j F 1 ~.z z z N N j x < 2 2 O.+.[ }.).).).F.*.F.*.*. .[ .X.XE.'.'..X.X X+X+X=XSXi.y.2.y.2.2.2.,.7.b 2.y.",
"F l l m M d g m g l j j 1 j 1 H k z j x 1 6 1 x < ^.%X[.*X`.}.F.` I ) _ $.*.` / ]. X].'.'..X.X X+X+X@X;XVX,Xu.1X2.>Xi.2.2.,.M.b ",
"F 5.G G l l l l m l j F j j S S < 6 m.S ; < I.x $X%X&X(...oXF.=.U.;...{.p [  ./ P..XF.R.]..X]. X{..X+X=Xj.2.>X<X>X<XmXeX,X2.2.,.",
"m G M G G l m l d l m f j g 1 1 x 6 2 D < ; ; 6 UXAX&X(.#.OX).T.U.#...~ ! R.( / I  X.XR.P.XX X X{..X+X=X>Xy.>X1X<X3X3X<X>X>X>XmX",
"5.5.5.6.F 6.G ,.l l l l j S 2 D < D h V.c z H c SX-X&X%X#.[.*.$X%X/...} ~ ` %.' L ].{.Y.R. X X].].{.+X*X4.rXeXu.CX0X>XZX<X3X3X3X",
"F 0.S F 6.F l l m m l g j S D D T T T q.V V H w.B.$X`.(.#.).*.] %X;...! ! / A./ p R.{.E.R.].+XP.'. X+X@X<.,.l.iX2.>X<X3XZX3X3X3X",
"M.f.g.M.wXg.h.,.M m M m G 0.e.J.P.e.q.r.c.w.R q.T E.o.&.}./.*.$.X.;...! ! W C.%.^ A..XE.U.R.+XR.].{..X+XA B 0.f.6X7XpX4XtXmXtXtX",
"wXN.f.h.0.rXg.f.7.7.g.g.h.0.6.w.H T T w.T q.DXI.q. Xo.:X).{ *.$.9 ;.~ ) ! Q '.` s C.XXE.L.Y..X'.'.'.OX X<.4.7X2X5XxXxXvXdXtX3XCX",
"F B 5.5.G 5.7.M.9.9.5.g.n.7.m.T MXx H h x c c k K &.:X_.).*.{ { X.) X.! W Q [ ( I / .XE.G.`. X].R.R.OXK.IX3.pXsX6XxXxX5XkX5X3X>X",
"l m m ,.5.5.G 9.9.9.9.9.0.8.S 2 h x h h m.D T c R S.GX_.*.{ {  .` Y.) ) Q F.{ ( I 9 '.Y.G.L.].].R.'. XzXbX7XVXpXvXpXnX5XyX9Xy.0X",
"N.M G G 9.G 5.5.9.g.IX9.9.7.N.x h x 2 h D E R ~.w.$.GX}.{ (  .{ } =.;.~ $.$.| ` y e ].Y.L.P.R.].]. XR.1Xb.bXpXZXpX5XPXfXhXuXj.h.",
"S m M.m 5.,.5.9.M.9.5.G G z h < h T z x h c K T AXZ._.W y y q / { @.*.*.{ { ` ` t q '.R.G.R.P.+X].oXe.v.FXx.PXpXiX2XyXdXyX6Xj.2.",
"D F j 7.M ZXh.9.M.BXM.9.G G F C D c H c 2 w.x K T [ %.Z.( s y y W } } { } $.` a e q `.P.G.P.G.{.R.!.8XMXx.1X,Xj.yX4X2XuX1XqXwXk.",
"2 S F G 5.G 9.9.eX9.9.5.G l F D T H T T H x c R H ] S.}.{ ( ^ ( y s  .{ ` ( W y w 8 H.R.R.G.G.].R.6XQ.xXUXUX2X4X2XyX,XtX5XdXx.5X",
"x S F j S N M.9.9.M.M.F G 6.V H Q.w.H H H H w.R R E | #X*.} ( ( ( / ( ` W W U y r 0 Y.G.R.G.H.E.b.x.jXv.8X8X,X1X5X1Xi.j.3XkX5X5X",
"c M M.z 5.h.M.9.M.9XBX0X9XuXe.l.r.m.sXe.e.q.4.J.e.c.@.:XW s W ( { Q / / W y y q 0 w H.G.P.G.G.P.n r.~.v.8.<.j.dXf.2Xl.2Xj.j.4X4X",
"6.,.,.d.5.,.7.9XIXBXuXuXrXiX6XNXv.Q.v.N.q.c.c.|.W.z.{ *X .I W } { ( Q y y y e 7 5 * R.Y.P.S.G.L.c T q.<.2.NX4.8.3.f.,Xj.2Xu.s.5X",
"8.f.9.5.9XwXM.tXuXBXhXrXIXMXPXl.l.r.v.r.c.c.|.@X!.W.L.&.` W `  .} ( / y y q q 0 & 4 Y.Y.H.G.S.P.V V T q.V n e.4.z.j.j.BX,X4X<X3X",
"iXqXh.g.g.M.,XuXuXeXyX4XPXl.e.~.l.r.c.c.V.K.K.@XJ.zXP.| ^ p / Q Q W y y y q 0 4 6 w H.XXP.G.&.P.V V c A V 6.<.f.x.f.2X2X4X1XlX<X",
"gX0XyX,X7.7.k.,XrX0XwXz.r.A A 4.r.c.c.V.!.AXJ.B.P I _ ` ^ p a s 9 y p e t 5 4 4 3 4 L.OXS.G.A.] R q.V T V <.aX5.VX8.wXz.z.,X,XuX",
"wXiXeXqXj.M.7.7.d.0X0.N.A DXc c C V.q.V.c.L K L P Y I O._ _ a p y 7 p e 0 7 4 0 5 0 L.OXP.K.E.e 5 L U sX4.,.5.,.8.,.f.z.z.dXdXBX",
"yXyXgXqX,X9X,X9.7.h.<.c C c R FXC A i a I i L i Y L i O.` +._ I ^ y y q q q q q e y E..XR.R.P.C.6 i B.] ] ~.x.x.p.2XxXvXvXfXyXdX",
"gXyXgXgXrXyXwXk.4.e.n A C A Z A ] ^ Y i u u i i J u e +.O.` ` 9 ( Q ( Q s W y y L s R.oX.X'.Y.G.e * K E U i L p.j.x.7X2XdX5XcXnX",
"wXhXVXgXlXhXgXz.VXv.Q.R Z K ] [ _ t J t J C w L J w _ D.] [ [ 9 ! } } ` ( Q W / W y E.oXOX`.H.L.i 5 r K Y i L U R l.6XiXjXdXnXnX",
"JXHXHXHXJXHXsXsX^.!.J.[ ' +.] B.t t t i t r i J r 5 E.H.+.C.[ q a ! } | } ( Q W a e =XoX{.`.H.`.a r 6 u 6 L i J K u Y B.iXnXnXdX",
"LXLXPXJXLXFXFXAXE.xXJ.@XA.[ I L t e J t t t J L 5 p `.=.$.C.` 7 y ( ( ( ` ( ^ y u 4 XX+X.XH.`.H._ w & r u u J i K u K Y L c.v.N.",
"cXJXlXNXjXfXcXFXJ.' ' ' ) p U i i i i i t t t w 5 +.'.Z.%.C.[ @ y a Q s s y p t 3 3 R..X{.'.G.D.+.5 5 r u 5 r u t i i L P P s r.",
"fXNXjXdXjXjXQ.pXDXq.q +.L K.i i i t t r w w i 4 r K.OX.X&.S.C.# 4 4 7 q y 7 * * @ 3 U.].{.`.-.U.+.5 r r u * 4 r C u u K u 6 4 B.",
"8XjXpXpXiXpXpXv.c.t P.' B.J J p J 0 t w i i r 5 w E.-.&.C.$.C.7 4 4 , 4 4 @ @ 3 5 4 A.H.L.&.S.R.+.5 5 & r J r r 6 u u 6 u r K 3 ",
"pXpXv.8X6XsXv.v.4.t K.Y E L t t t C t t r t 5 0 0 R.=.$.&.-.%.+ 3 # & 3 3 3 3 3 # @ S.L.%.-.S.D._ 5 4 6 5 u t r t w t t r w r 5 ",
"b.DXb.v.v.b.a.4.>.5 E.P i Y * w i J w e q * r 4 0 '.F.O.-.F.%.@ 3 & 3 * # # 4 3 3 ] Z.L.O.U.G.F.) 5 t r 5 r w r w e w t 0 i t i ",
"a.a.v.v.a.a.a.t.c _ B.t J J i q U 5 u u i w 0 5 q F.S.%.D.F.Z.+ 3 3 3 3 & & 4 3 # L.Z.O.F.F.=.U.I 0 w t 5 8 t t 5 r C 5 5 r r p ",
"a.s.s.t.t.p.p.t.w P K.i i p p p i w 3 * w r r 4 7 ;.-.=.U.`.=.% & & & 3 & & * 3 _ Z.G.$.U.-.=.U.p * 0 r i r t r 5 5 5 5 r J 5 u ",
"s.s.p.t.t.s.t.t.r Y B.u u p ] B.w 5 & * * @ 0 & a -.S.&.'.Y.+.$ 3 3 @ , @ 3 , 3 %.R.R.S.U.=.-.F.8 0 0 w w t 5 3 5 r 5 5 t r r w ",
"s.2X2Xs.t.4.p.n Y I B.i u u o.I w 5 4 0 w w t @ ].D.&.&.`.`.) & @ @ @ 3 @ 3 $ & * Y.R.-.S.Z.Y.S.7 r r w 5 5 5 & r 5 5 5 5 4 t u ",
"6Xt.t.2Xs.LXs.q Y p +.J 6 w o._ w 5 * 0 0 * 4 @ H.`.$.=.=.`.%.& , 3 @ 3 3 3 3 3 +.F.R.Z.=.D.R.%.e r r 8 4 w w % w 5 4 r r 4 0 C ",
"t.s.t.t.s.p.1.4 L L +.r 5 t XXY 0 4 * 4 0 8 i t H.F.=.%.@.`.-.& & & @ & @ 3 4 & +.F.U.S.=.U.Y.+.4 w r 0 5 t 5 & r 5 0 0 r 5 0 w ",
"1.t.UXt.t.1.t.^.J i ) Y 4 w I L 0 0 , 0 4 0 0 + `.G.@.=.$.`.%.@ & & & @ @ 3 4 * A.U.U.@.=.R.G.O.0 r r 0 t t 4 4 0 0 4 r 6 5 t w ",
"1.1.1.1.:.t.1.+.L p I _ 7 p ] L q 0 4 4 4 4 q Y.`.! Z.=.=.`.H.@ @ @ @ @ O 3 & 6 U.U.`.=.-.`.G.[ 0 r 0 r 3 5 3 4 r 0 4 5 t 5 r 5 ",
">.>.1.>.>.:.:.o.u i Y p w K.Y u w 8 * * * 4 w i a _ S.=.$.U.H.3 3 @ @ @ 3 3 * , R.G.U.O.Y.U.Z._ w w 0 7 w 5 3 w t 0 4 r r , r 0 ",
">.:.>.>.a.l.a.I t L Y i w ) +.w r 0 , , , 4 4 * ) ) -.S.=.-.H.# O 3 O 3 $ # 3 3 {.Z.F.$.R.Y.S.P 0 w w 0 5 3 3 0 r , 4 0 r 4 q 0 ",
"b b b >.>.:.v.p t i L i 5 _ L r w r r w * , % % ) _ =.U.-.-.-.@ O O , , & & & @ A.F.Y.%.U.-.-.q t w t % 4 # # r w 4 3 4 0 # 4 r ",
"b 6Xb >.>.>.+.p w t i w 5 E.J i e J 0 7 + # w w _ X.X.F.S.&.`.% @ @ @ 3 & & & & % H.H.G.H.=.S.q 5 8 4 w # # 4 w p t * 0 r * 0 4 ",
"v >.:.b :.:.B.i t r e w & P u t 8 i w e # , % I ` O.$.-.-.&.$.+ o @ @ & & @ 3 & -.-.R.R.S.-.A.r r 0 i w O 4 @ # w i * w i 4 * 5 ",
"v v v v n !.I u 0 q t 4 4 P w * * @ @ @ # r 5 a X.%.%.-.F.S.-.L.@ O & O O @ a E.Y.W A.R.-.-.C.w 5 0 5 @ 6 @ 5 r 3 + 5 & * * 5 5 ",
"f f v v v U P w 0 5 q 4 3 t 5 , w 5 3 @ # w p p +.%.$.&.-.Y.S.A.* + @ # $ * E.].%.9 ^ U.%.A.B.0 0 5 @ . 7 & 3 * 5 $ O 3 O 5 3 5 ",
"f v v v b ) e w 0 5 0 0 3 t r 7 @ & & @ @ w w i X.-.=.=.-.F.-.D.e @ @ @ O . + L.U.9 %.Z.$.%.+.5 0 # 4 r 3 & 5 3 * @ & 4 3 3 3 4 ",
"v v : v v A.J 4 0 0 r 5 & Y 0 4 4 @ 3 # @ 8 & e X.=.=.=.-.-.S.D.B.@ @ @ $ & & @ % Q G.O.+.%._ 5 7 4 5 , @ 3 4 0 0 3 5 & & * @ 5 ",
"f v v v v _ t t 0 4 3 * 3 P i 4 0 # # 4 @ 4 + q X.-.-.A.C.Z.S.F._ @ . O O O & @ 7 ` S.X.%.C.) 3 q w 5 3 * w 0 4 # * 4 3 4 , & % ",
"f f f v C t t 0 * 4 & 5 % Y p * 0 # # 0 # * # 9 _ A.S.S.=.&.=.-.] O O @ O @ @ @ L.O.-.+.$.+.U 4 0 # & 3 * 7 7 # # 4 * & & @ 3 & ",
"f v v f i 4 3 5 # 4 4 & & i e * 4 4 # # # # + i ) =.S.D.&.S.-.U.7 O ,   O O @ O D.-.X.X.%.O.p 5 4 3 # 5 # 0 w 0 * * 7 O $ 4 3 3 "
};
