/* XPM */
static char *_36dc2743a9846ada8ea8620a98569ee[] = {
/* columns rows colors chars-per-pixel */
"64 64 245 2 ",
"   c #1C3731",
".  c #2B3539",
"X  c #2A3A39",
"o  c #32353C",
"O  c #323A3B",
"+  c #272E33",
"@  c #28433D",
"#  c #2D3D41",
"$  c #3A3D44",
"%  c #383B45",
"&  c #453B49",
"*  c #2C4442",
"=  c #2D4B44",
"-  c #2A4C49",
";  c #324444",
":  c #324B46",
">  c #3B454C",
",  c #344C4A",
"<  c #3B4C4C",
"1  c #374548",
"2  c #35524D",
"3  c #3B534D",
"4  c #36554B",
"5  c #3C4B52",
"6  c #3D4653",
"7  c #3C5452",
"8  c #3C5A54",
"9  c #395855",
"0  c #2E514B",
"q  c #3D605A",
"w  c #424C4D",
"e  c #46444D",
"r  c #4C4454",
"t  c #434C54",
"y  c #4B4C55",
"u  c #464A58",
"i  c #564C5B",
"p  c #435453",
"a  c #435B55",
"s  c #45545B",
"d  c #4B535B",
"f  c #445C5A",
"g  c #4C5B5C",
"h  c #4A5355",
"j  c #52545C",
"k  c #55595C",
"l  c #40504D",
"z  c #44615C",
"x  c #4B625D",
"c  c #47665B",
"v  c #56615F",
"b  c #4C5C63",
"n  c #4C5665",
"m  c #5D5465",
"M  c #545C63",
"N  c #5B5C64",
"B  c #565968",
"V  c #575366",
"C  c #635465",
"Z  c #635C6A",
"A  c #6B5C6D",
"S  c #655867",
"D  c #6B5F71",
"F  c #775D74",
"G  c #6B5569",
"H  c #4C6463",
"J  c #4C6964",
"K  c #4C6C6B",
"L  c #4A6766",
"P  c #536464",
"I  c #5A6365",
"U  c #536966",
"Y  c #54646A",
"T  c #5B646B",
"R  c #556B6A",
"E  c #5C6B6C",
"W  c #5B6967",
"Q  c #55726D",
"!  c #5B726E",
"~  c #55766C",
"^  c #5C6572",
"/  c #5C6C72",
"(  c #576A72",
")  c #557573",
"_  c #5C7473",
"`  c #5C7A74",
"'  c #5D7C7A",
"]  c #597878",
"[  c #4E736D",
"{  c #646365",
"}  c #63636D",
"|  c #6A646C",
" . c #636B6D",
".. c #6C6B6C",
"X. c #6B6665",
"o. c #71676C",
"O. c #636572",
"+. c #6C6473",
"@. c #646C73",
"#. c #6B6C74",
"$. c #6B6C7A",
"%. c #646B7A",
"&. c #736475",
"*. c #7C657B",
"=. c #756B7B",
"-. c #7B6C7D",
";. c #756975",
":. c #637474",
">. c #6B7274",
",. c #627B76",
"<. c #64747A",
"1. c #6A747B",
"2. c #637D7B",
"3. c #6A7C7C",
"4. c #687B77",
"5. c #747273",
"6. c #73737A",
"7. c #79777A",
"8. c #6D716E",
"9. c #65615E",
"0. c #84697E",
"q. c #81797D",
"w. c #5C827B",
"e. c #64827D",
"r. c #6B827D",
"t. c #68887E",
"y. c #74807E",
"u. c #84807F",
"i. c #5F7E80",
"p. c #696C82",
"a. c #7D6C81",
"s. c #6B7D82",
"d. c #687782",
"f. c #7C7383",
"g. c #737C83",
"h. c #7B7C83",
"j. c #797987",
"k. c #846D83",
"l. c #8A6D84",
"z. c #896A86",
"x. c #827485",
"c. c #827B82",
"v. c #84758A",
"b. c #8B758B",
"n. c #847B8B",
"m. c #8B7B8D",
"M. c #8B7186",
"N. c #92758D",
"B. c #8D7A91",
"V. c #947C93",
"C. c #997B95",
"Z. c #A47D9A",
"A. c #5D8281",
"S. c #648482",
"D. c #6C8483",
"F. c #658A84",
"G. c #6C8A85",
"H. c #6C8C8A",
"J. c #6B8789",
"K. c #738484",
"L. c #7C8384",
"P. c #728B85",
"I. c #748589",
"U. c #7B858A",
"Y. c #738C8B",
"T. c #7B8C8C",
"R. c #798987",
"E. c #6C928B",
"W. c #74928D",
"Q. c #7B938D",
"!. c #7A988E",
"~. c #7C8D91",
"^. c #788C92",
"/. c #759392",
"(. c #7C9492",
"). c #7C9A94",
"_. c #7D9B9A",
"`. c #789796",
"'. c #6E9591",
"]. c #7DA29B",
"[. c #84828D",
"{. c #8B8B8C",
"}. c #888588",
"|. c #948B8D",
" X c #81928F",
".X c #8B8493",
"XX c #8C8C92",
"oX c #858B95",
"OX c #948C92",
"+X c #95849A",
"@X c #9B849B",
"#X c #9B8A9D",
"$X c #958797",
"%X c #829593",
"&X c #839B96",
"*X c #849C9A",
"=X c #889798",
"-X c #959395",
";X c #999395",
":X c #9C9599",
">X c #9C9A9C",
",X c #93929B",
"<X c #A2879E",
"1X c #A1999D",
"2X c #84A29C",
"3X c #8BA39D",
"4X c #89A69B",
"5X c #90A59E",
"6X c #9D8AA1",
"7X c #9C9AA2",
"8X c #8A97A3",
"9X c #A38CA4",
"0X c #A88CA6",
"qX c #A293A5",
"wX c #AB94AC",
"eX c #AC9AAE",
"rX c #A597A7",
"tX c #B197AD",
"yX c #AD9BB2",
"uX c #AE97B1",
"iX c #B39CB4",
"pX c #B699B4",
"aX c #B48DA8",
"sX c #8CA4A2",
"dX c #8CAAA4",
"fX c #85A4A2",
"gX c #94A7A6",
"hX c #96B3AC",
"jX c #93B4AE",
"kX c #AAA5B3",
"lX c #BCA5BD",
"zX c #B5A4B9",
"xX c #A8A5A8",
"cX c #C0A6BE",
"vX c #C09EB9",
"bX c #A9C0BA",
"nX c #BDAAC2",
"mX c #BFB3C7",
"MX c #C4ABC5",
"NX c #C7B5CA",
"BX c #CDB5D1",
"VX c #D3BAD4",
"CX c #D2B4CE",
"ZX c #D7C6DC",
"AX c #E5C8E2",
/* pixels */
"d %.$.p.p.p.p.p.^ g.W P :.U H U t.` P 6.-XXXXX{.}.{.|.}.|.|.|.u.|.;X;X|.1X|.;X;X{.-XXX,XN t Y ) R R E #.T n %.j.j.p.$.p.p.^ ^ ^ ",
"t > $.+.p.p.p.p.^ ^.g ! U _ P U ~ R g P P  .8.5.-X>X1X|.1X;X;X;X;X>XxXxX|.1X>X{...k N d W Y :.) J R E W b n u s +.m O.^ 1.^ ^ p.",
"t t V V % u ( %.p.1 p 3 @ @ , @ v ! x a g < w { X.5.u.;X|.|.;X|.|.|.;X|.OXq.X.k k w p g g b : ;   X X . # 5 1 n % % n 5 n 5 n O.",
"+ e O.Z 6 > Y b %.3.P.P z 8 z g 4.3.Q.U :.r.y.8.O k 8.o...o.;.N 9.8...o.X.9.j o  .oX! ` 2.) ` H = 2 , X b ( L 7 5 u > 6 6 % B B ",
"& & #.+.d R 3.2.=X X5Xt.4 c c 3 3XT.4X).G.Q.P.R.w h < @.I  .N N C k I W v w I w P.G.G.w.w.~ Y.P.  2 : X _ ' A.' R Y Y 7 5 > B O.",
"O $ ....I *X2X2XbXQ.5Xr.@ a g p %X3XF.G.).F.=X:.w k p ; r.3. .>.1.%X3.r.p a a w :.P.!.w.[ e.) ` 3 , $ < D._ K L ) 2.Y.E b p #.+.",
"r h o.k <.Y.dXG.&X&XT.3.* p Y h =X=X&X3Xe.2XY.I.3 a z 8 (.dXsX3X3X&X!.W.8 a g < K.T.2.G.E.G.(./ O w w < <.d.' w.) S.) r.P w 6.M ",
"j i k h :.P.hXW.3X=XU.P O > > o W  .%. .W E W T.p a L 2 F.dXdX(.).Q.G.w.- 8 7 3 P :.P g R @.Y y o O o + d <.] d.F.S.` P.p d #.6.",
"e d k  .Q.dX!.3X=XXX>.n.oX.Xj.B.$Xf.OXx.$Xh.1.K.f 8 z 4 !.4XQ. X!.4X!.P.= 8 0 2 >. .| +.G *.C F a.f.Z +X+.^ s.( J.S.e.(./ } j g.",
"d < g 1.Q.!.dX3X=X7.r .X7XrXnXyXzXtX@Xb.$Xh.h.s.9 q c 4 &X5X5X5XQ.dXW.t.@ 4 8 @ :.k +.0.0.Z.C.l.a.b.6Xv.6XZ ^ ^.J.S.L G.:.g I } ",
"g g p D.sXW.(.3.>.r x.m.eXeXzX0XAXAXCX@XiXf. .E 9 K ~ z &X5X5X4X X!.t.e.4 8 9 = :.N 0.0.0.aXZ.pXN.0X6XV.V.f.D ^ s.J.' 2./ M B g ",
"R K.H r.e.G.(.P ,X-.M.@XwXiX9XpXcXtXtXM.c.#.Y ) 8 q J l T.3XhX&XhX X XU 2 z 4 a H T { *.0.C.0.l.pXz.V.wXC.B.f.n.T ( S.Q H R R E ",
"' 2.  : 4 : * + f.0XC.N.pXnXMX9XeXqX=.V kX<.R 2.c g p ; Q.3XgX3X!.P.G.a < 1 k : :.:.T oXr C A b.0XwXwX6X9Xb.b.Z . * @ ; ; , U R ",
"' ) 2 8 4 8 P % D b.z.F wXN.F F A h.$.T s./ K.P ; 1 O O :.Q.W.W.W.2X3.t . . @ + g K.%X:.h.6.+.A z.C.b.wXC.N.F =.% < : 9 : 7 ) ` ",
"' ` * 8 f f d % a.N.N.Z.N.cXN.& kX>.s.K.J.J.U.O q.o.-.5.} %XfX/.t.' I.> +.| 0.S y R.*XdX(.T.U. .& v.v.iX@XC.b.A % < 8 4 : a ) ` ",
"` w.@ 9 , 7 > % a.a.C.N.b.G & A #.3.D.e.2.(.7.C 0XaXrXm.T %XdXdXE.'.D.u ;.<X$X0.;.7.(.).2X).%X}.p.r D B.N.M.k.D $ * : 0 : 4 ` ' ",
"w.A.R K.Q.r.3.t f.+X9XB.G C rX$.U.r.e.e.).` Z m.V.zX<X-.N Q.&XjXH./.3.g ;.$X$XM.S +.K._.2XdXQ.3Xj.+.| +X<XN.0.C Y E 2./.R R w.` ",
") ' _ sX=X X:.@.Z a.6XC V f.^ ^ P.G.G.4._.g.i b.#XzX@Xx.N sXD.hX).Q._ j ;.@X$XV.&.Z g.(.W.4XP.).8X$.| D l.V.k.&.d.I.Y.J.2._ ` ] ",
"Q 2.` sX5XgXK. .+.z.V.*.V ^ ( J.! ~ 3.3.T.O..Xb.eXrXm.f.I.~.(.*X!.Y.Y.I x.<XzXa.&.n.T I.K.2XW.F.I.U.} C F l.9X+.%.I.fX_.D.:.) ` ",
"2.U U D.).).K.@.A C.z.b.r B ( i.H.W.r.U.$.u B.b.kXzXzX.Xg.=X(.dXY.D.g k x.kXqXqXV.x.m %.L.4.Y.W._.<.d.m 0.V.b.A <.(.J.`.D.:.U R.",
"R.v :.!.].!.e.I D <XN.x.oXR i.) S.S.d.p.% 6X6XrXZXzXzX$X#.oX&X`.!.P.K.y x.+XB.wX9XeXm r } ~.J.2.H.&XK.d &.-.k.N T _.`.jX(.x g >.",
"XX>.g W.W.E.P.v | &.i O.u ( L H.' g.$.u v.v.6XnXiXuXqX#XO.=X*X]._.,. .j x.#XyXkX@X@XB.B.m B %.I.J.~.<.6 Z S C } @.J.E._.Q.W }...",
"}.7.h y.&XG.W.! P M I M 5 f @.O.$.V B.a.b.V.lXBXMXZXBX-.1.&XA.A.E._.@.d a.wXMXBXVXuX6X7Xv.j.i T 1.K.~./ } } O.$.<.H.H.D.r. .{...",
"q.c.u.v r.` e._ R Y Y H Y n o & b.k.a.V.uX0XpXvXtXtXeXj.T ^.].jXF.` R.T n.@X9XnXuXyXC.V.B.f.v.p.y o b / / I $.W 2.e.~ t.W L.:X| ",
"}.|.}.o < a z 2 4 c 2 , , . A *.V.6X@XwXiXMXCXCXMX<X*.& 1.8XY.dXjXW.=XY y $X@XtXlXwXuXzX6XkXV.a.kX[.> 1 s 5 , * , * 4 1 X {.7.o.",
"}.;Xq.7.p 3 z [ Q 9 8 9 p $ &.b.V.@XwXzXnXVXiX0XtXG rXB 1.%X(.W.).W.Y.s.@.7Xk.@XpXeXMXzXzXnXuX6XuXn.> 9 7 9 9 8 9 f 7 1 -X>X5.o.",
"|.;XOX}.g f z 4 8 f L z < O ;.*.C.wXV.B.@XtX<XqXB.7X/ s.J.*XG./.).W.W.D.%X>.,Xm.:X@XqX9XmX#XnX#X@XqX% 5 0 9 q 0 2 f f 1 >X1X7.o.",
"{.|.-X}.g., 9 4 = 3 2 8 * . T m S a.=.A *.C +.m.r @.<.) /.e.`.s.I.` Q.(.).T. .$..X=.-.f.j.U.$.a.#Xn.+ - 0 0 - 0 2 9 X XX:X|.q.5.",
"}.>X;X7.1.R ) ) ' ! ,.r.,.E %.B %.#.@.h.O.c. .<.g.>.D.) 2.S.I.gX=XD._.*XS./.3.@.W O.} N T @.g.%.T n s _ K K ) ~ S.,. .{.-X|.7.5.",
"{.|.:X}.1.K.2.e.,.e.e.4.G.4.^.I.*XY.D.~.oXgX_.t.T.D.[ S.D.~.%Xe.G.&XQ.H.S.!.4.2.! F.1.K.1.3.T.j.U.<._ S.A.K w.' F.Q.I XX;X;X}.>.",
"}.>X;X}.>.:.W.S.w.G.w.e.W.Q s.`.fX_.D.sX%X&X].dXjXfXK 2X4._.W.W.W.G.D.e.t.2X).H.w.F.I.Q.(.(.fXfX_.`.fXi.S.] ] 2.Y.K. .}.;X1X7.6.",
"{.>X1Xu.5.U._.G.E.).e.~ G.G.' H.D.D.G.2XS.2X'.E.H.F.W.W.Y.D./.'.H.e.4.D.r.G.Y.F.w.~ ].Q ).' fX/._.H.'.J.J.J ' e./.r. .}.1XxXy.y.",
"}.;X1Xq.8.y.!.!.2X).,.Y.s.'.K A.S.D.W./.A.'.F.' F.'.&X) ` ` e.` e.).,.e.P.! P.t.E.w.t.).!.E.`.W.)._.F.S.W.e._ I.' W.W [.;X|.7...",
"c.;X1Xq.8.,.!.4XQ.(.&X2.`.] K i.G.:.) J.) L ' K F.w.z W.G.S.H._ e.~ K R &XF.).).G._.~ G.e.W.sX(./.`.H.`._ &Xt.Y.S.D.s.U.OXOXy.9.",
"q.$X;X#.W !. X&XQ.T.:.K.s.i.L K L ) <.L K L _ f 2 K J.) ) e.Y.' ` 2.D.) W.P.r.,.D.:.r.:. X&X(.gX8X&XK.e.e.t.G.W.H.D.U.[.;X|.5.X.",
"x.|.|.7. .4.t.t.t.T._ Y d.9 5 < , b < d t s w 6 7 ' _ G.).E.K i.`.` J.R d.K.s.Y T j N M M h T N j u >.f ) ~ G.t.e.D.I.7.|.;Xu.9.",
"5.}.}.5.v < c @ @ a @ @ # . @.+.Z =.C A =.B.C $X^ n d._ ^.J.i.^._.) ] ] 2.1.^ [..Xm.v.m.$X-.#Xf.#X7.. g : 4 0 0 0 4 : 6.}.;X5.X.",
"q.}.7.k w c x a z U 3 < g o =.;.k.V.<Xz.M.k.0Xl.+XN $.U.`.^.J.i.J.i.^.~.s.n.r m.9XiXlXtXcXtXV.V.@Xn.t 7 J q a c z 8 l w y.}.;.o.",
"q.OXS 9.h l 3 8 J z 8 z p o ;.0.-.qX@XuXv.9X9X+X+Xv.Z $.J._.'.i.i.J.S./ m r B.B.eXwXzXqXZXZXVX+XqXx.> U U z c f 8 4 a l 8.q.9.o.",
"q.}.{ . 1 3 @ 9 = : 9 2 1 o o.0.-.B.-.x.yXv.B.9X+Xv.v.oXY [ [ i.i.) d.M 6Xa.k.C.uXiX9XeXmXkXrXM.m.#.$ < p p 3 3 3 0 3 3 + 5.7.G ",
"q.9.9.4.T.&XY.Y.3.3.r.:.3.d | m.i m G B.6XyXuXZ.C.v.v.C p.p.J.K '.A.J.B n.0XC.l.vXpXcX9XwX@X0.C kX .@.s.g.3.U.K.y.!.).2X8.>.5.A ",
"5.{ h y.3X2XW.E k j I I >.I.U.=.-.m =.C f.b.N.pXZ.V.a.a.n ^.K i.A.'.^.N C M.l.0.aXC.F *.| m.n.c.g.1.(.3. .N ..N K.&X2XdX&X>.6.X.",
">.k k P.R w.P.@.5.A 0.9.T ^.=XsX7XXXn.=.i N.N.vXZ.V.f.D n ( ) E.e.Y.:.N f.m.k.9XN.zXm.& kX3.>X=X*XgXs.> [.;.-.h.E Q.!.dXgX3.>.} ",
"7.x R ` ) ] Y.M ;.<X$X0.6.K.dX_.hXgXgXXXi & G C.b.v.a.D ( ( ( K J.,.=XO.-.-.C.M.N.G o U. XgX).dXQ.sXK.N 7X6XrXn.E !.hXdX&XK.j E ",
"h U x x F.K J.d -.C.C.N.C U.sX_.jX4XgXhXj.$.A V.6Xv.x.V 6 p.i.i.F.T.gX6.j.B.wXl.C D kXh.7XgXQ.P.=XR.>.j.B.lX#Xf.I I.*X*X&X X! U ",
"E 3.H J e.e.2.n &.<X<Xq.+.$.=XgX!.hXhXkXoX%.&.G x.B.x.D Y J.i.i.G.).~.T m m.<XC C ;.j.U.hXW.&Xe.T.R.y m.0XpX+Xa.^ Q.*X3X&X4.4.~ ",
"R U R P D.D.J.Y f.tXcX0.0.h.7.sXhX].hXhX~.U.m C &.k.6X=.6 b '.'.]./.=XN &.&.N.*.i $.^.I.hX!.3X3Xy.{ .Xx.9XuXV.a.1.D.*X&X XP.' w.",
"U R g Y r.) / s c.rX<X0Xb.x.9.u.5X4XW.Y.(.3.O.G *.C.b.D n '.i.'.E.].gXB +.@Xk.m.r N U.J.) e.P.:...i c.m.nXnXyX.Xn / :.r.r.e.` ~ ",
"` !   : a 3 < . 7.#XV.uX0XyXZ V h.oX2XjX`.I.=.i F 0.x.i n J.`.A.jX_.*XI | $XN.-.,X .e.G.2.H.s.p.% $X<XwXZXtXMXXX# d 8 , 8 z ' ` ",
"J U @ c 3 a l O [.$XiXuX6XV.B.v.i @.K.D._.P.6.$ A C A O.7 ] i.H.A.`.%X/ } +.9.Z g 1.G.2.,.>.N & b.m.$XcXzXtXrX-X1 Y f ) 8 R ! R ",
",.~ @ J c c U X -.rXmXBXVXyX6X6Xv.f.B %.1.^.^.E % w h 1 L d.i._.S.'._.3.< h t 1 W K.J.d.B e B.a.n.b.cXNXBXBXNXj.# , b H p g !  .",
"U e.@ @ 4 U l 1 [.XX6XnXwXyX+X+Xb.v.f.f.t > <.s., s < 7 D.2.S.dXS.W.(.4.p x Y d 1.b % u j.f.a.b.uXwXiXcXwXrXeXn.% p R f l x a v ",
"R e.7 H ~ P E k y .X+XiXnXuXyXiX6XpXB.a.eX8X/ D.2 L L ) D.R (.` Y.H.&XJ.f J J f 1.n } ;.V.9XC.pXiXMXBXBXMXC.=.e W s.D.2.e.4.v E ",
"P s p <.W P E >.} rX-..XyXyXnXnXiXMXMXC.iXa./ ' - 9 9 : P.r.&X4XY.D.).D.J L f f @.} a.M.N.9XuXcXlXBXvXuXwXD rX#.s.&Xr.2XP.e.a g ",
">.U.> E P.gX%XR.L.} $X.X6XV.uX6XNX6XzX@X<XqXM s.0 q K f ,.2X(.W.4Xr.&XG.7 L H 5 <.y D a.C.iXV.b.6XpXZ.6XB.eX6.@.=XY.H.W.S.J ,.s.",
"Y U.K._ Y.Q.Q.I K.>.t $..Xj.a.p.j.n.a.f.#Xj.W Y 2 8 H 4 4.2.e.e.).)._.` 2 L f 8 E u Z G C =.-.+.p.C p.B.e p.%X XQ.' *X&X) Y <.3.",
"Y Y (.n d.fXJ.`.~ r.W < @ h j w b T / %.I T H 2.0 8 8 * ' F.!.W./.F.).) 4 J L 9 J U W 8.{ @.W } w l h 1  .y.T.&XW.2.I._.f 1.d.O.",
"> # s.~.] ] '.'.e.,.~ a g U p 7 ( 2.^.` E D.2.! , 7 7 3 ) Y.) G.)._.r.~ a 9 q 8 c e.,.:. XK. X4.< < < 3 ,.&X4X2X4XG.fX( @.n 1.$.",
"t f s.J.3.(.`.'.e.t.,.e.2 U H < r.2.W.w.) G.,.:.1 x a * P E 4.3.! !  ._ a c 8 4 ~ w.e.W.*Xy.R.4.a a c l r.t.).P.G.) I.Y b 5 p.j.",
"t d g.oX( / p.p.r.J ! e.= H a < :.*X) Q w.F.3.! < h X -X=XXX{.{.XX=XXXXX}.3 a @ ~ ~ ~ t.t.gX5Xr.< c 4 l Q.hXW.*X2.2.L 7 s 6 ( p.",
"6 n oXU.j.p._.p.P :.3.P < p P l :./ _ 3.~ ! W W O {.>X>X1X1X1XxX1XxX1XxX>X-XR.@ v 4.r.r.P.T.Q.>.l 3 p < <.%X:._ L J.d.J.( 6 ( ( ",
"u B p.oXj.^.8X8XoXP _ ,.P W :.M I.D.:.r.3.W  .{.1XxXxX:X;X;X1X1X1X1X>X;X>XxX>X|.}.v 8.r.y.1. X3.x W U ! I.(.R 8X~.p.`.d.( ( d.p.",
"s u n B n n u Y <.1.g R E P g P <./ R P W XX-X7X7.5.8.5.5.8.o.q.5.q.5.u.8.5.q.q.1X;Xy.p R P U :.E x W P _ b u / ^ T u 6 u u ^ p.",
"s p.n n p.u n n ( Y g Y :.x k x / J Y %XP  .{ { { X.X.X.X.5.X.8.5.o.5.8.5.o.9.0.o.o...I R.z R R ! R :.U b n ( n ( 6 n 6 d i n n "
};
