/* XPM */
static char *_67b7ce9df134ec4ac9e4b4175a059e3[] = {
/* columns rows colors chars-per-pixel */
"64 64 131 2 ",
"   c #623F27",
".  c #664127",
"X  c #66432C",
"o  c #69452C",
"O  c #744B2E",
"+  c #7B4C2F",
"@  c #664630",
"#  c #674933",
"$  c #6B4B34",
"%  c #6D4F38",
"&  c #754E32",
"*  c #794E32",
"=  c #6E513B",
"-  c #765135",
";  c #7B5235",
":  c #75543C",
">  c #7B553A",
",  c #7D583B",
"<  c #765A43",
"1  c #7B5B43",
"2  c #775E49",
"3  c #7A5F49",
"4  c #7F6047",
"5  c #7C624C",
"6  c #7C6651",
"7  c #7E6954",
"8  c #825436",
"9  c #8F5337",
"0  c #8F5837",
"q  c #85553D",
"w  c #8D563B",
"e  c #845B3D",
"r  c #8B5C3D",
"t  c #94573A",
"y  c #935C3D",
"u  c #995B3E",
"i  c #A15E3E",
"p  c #8D603F",
"a  c #95623E",
"s  c #9C643E",
"d  c #936A3F",
"f  c #9E6C3F",
"g  c #A0673F",
"h  c #875740",
"j  c #885740",
"k  c #855D41",
"l  c #8B5C42",
"z  c #935E41",
"x  c #9B5D41",
"c  c #A25F41",
"v  c #856043",
"b  c #8C6242",
"n  c #82644B",
"m  c #8B674B",
"M  c #85694F",
"N  c #8C694D",
"B  c #946343",
"V  c #9B6443",
"C  c #966B43",
"Z  c #9C6C45",
"A  c #946648",
"S  c #9A6549",
"D  c #95694A",
"F  c #9C6C4A",
"G  c #9B7146",
"H  c #96714B",
"J  c #9D714A",
"K  c #826750",
"L  c #836B54",
"P  c #8B6D53",
"I  c #846F59",
"U  c #896E58",
"Y  c #936F53",
"T  c #9A6F50",
"R  c #8C7056",
"E  c #87725B",
"W  c #8A745D",
"Q  c #947256",
"!  c #9B7253",
"~  c #93765C",
"^  c #9B7759",
"/  c #96785E",
"(  c #9D7A5C",
")  c #A36444",
"_  c #A96646",
"`  c #A16C44",
"'  c #A56649",
"]  c #A96749",
"[  c #A36C4B",
"{  c #A96B4D",
"}  c #A37146",
"|  c #A4724B",
" . c #A9754D",
".. c #AA784F",
"X. c #A66C50",
"o. c #A86E52",
"O. c #A57551",
"+. c #A97651",
"@. c #A67853",
"#. c #A97953",
"$. c #A17D5E",
"%. c #8C7660",
"&. c #8D7A63",
"*. c #8F7E68",
"=. c #927C65",
"-. c #9C7E63",
";. c #927E68",
":. c #A17E61",
">. c #9D8166",
",. c #95816A",
"<. c #9B846B",
"1. c #9E886F",
"2. c #958671",
"3. c #988670",
"4. c #968974",
"5. c #9B8B75",
"6. c #9C8E79",
"7. c #9E917B",
"8. c #A18265",
"9. c #A1856A",
"0. c #A2886D",
"q. c #A08F78",
"w. c #A3947D",
"e. c #A8977E",
"r. c #A7987F",
"t. c #A8987F",
"y. c #A49781",
"u. c #A89780",
"i. c #A69981",
"p. c #A99982",
"a. c #AA9F88",
/* pixels */
"5.>.-.-.9.>.<.0.>.<.0.<.>.<.0.>.0.<.0.-.-.9.8.-.-.( -.:.-.=.3.7.<.>.=.9.<.0.<.9.>.>.>.-.-.>.>.-.~ ~ ( >.>.0.>.>.>.>.>.9.<.-.5.t.",
"e  .| | | } | [ | | ` [ | | F | | | | | O.| } { | | +.| O.| A ,.N F | Z Z Z [ [ F [ | F [ Z | [ | [ | J Z [ [ F F Z F F ` | b r.",
": +.+.O. . . .} | |  .|  .O. .+.O. .+. .O.+.|  . .@.+. .@.#.D *.N Z [ [ Z F | J Z | | Z J Z ` Z ` Z [ Z J F | J ` Z Z Z J [ b w.",
"> | | |  . .|  .| | #. .|  . .@. .| #. .| |  .| | O. .#.O.J D ;.N F | Z Z | Z B F Z F ` | F | Z Z F F J J [ F | | F Z Z F | k y.",
"1 | } } | ..` .. .} } | O.@. . . . .| }  ... . .} ` } | }  .F &.D S Z Z Z F Z ` F Z Z Z F Z J V Z F Z V a Z J S Z ` Z Z | | b y.",
",  . ..... . . . ...} #. .| | | }  .}  . .}  .| } } } } {  .m &.P O.Z Z F Z Z Z Z Z ` J Z B Z Z Z Z Z V Z Z [ Z Z Z F | Z [ b 7.",
"> +.| [ |  .}  ... .} |  .}  . . .| #. .|  .| #......... .| D *.v C Z a Z Z Z ` F ` F Z ` Z F Z Z C Z Z C Z Z Z Z Z a Z Z | l y.",
"1  . .| | `  . .| } | |  . . .@. . .| } ` } | @.#.#... .} | D ;.P F [ Z Z Z F | | F Z Z } F Z F Z V Z Z Z Z F Z V Z F Z Z | k w.",
"> | O.J | [ [ O. ...| | | | | O.O.| [ |  . . .| | | O. .| | m ,.N F | F F J F | [ J Z | | | F Z | | | D | F [ [ | | | | [ | r 7.",
"< > , , : 1 - - & * > > ; * & - - > & - ; : - - , - ; - * & v 5.4 * O - - - - : O & ; & - - * & O * O & * & - > - & - - - O , y.",
"7.4.w.5.6.2.5.6.q.6.5.4.5.5.4.5.5.4.2.2.5.5.7.7.5.7.7.2.3.6.w.i.7.5.5.w.5.7.7.7.2.5.2.2.5.7.6.5.,.7.4.5.2.7.4.4.4.7.4.5.4.4.5.y.",
"! D D F D D D F T T F F F T / 6.Q ! J ! ! D D ! F ! F ! ! ! ! F D ! ! D F F F F T ! T Y F F Q 6.=.D F F ! F D F S D F F T F Q ! ",
"S F F S S S ' F V S S [ S B B 5.1 [ ` [ [ | ` ` F |  .[ [ ` ` |  .[ | [ ` Z ` ` ` [ ` | [ | e 5.n B S V S S Z V V S S S S F V S ",
"y z x z z z B x z z z z z V B ,.k Z s Z [ g Z g Z ` Z V ` ` ` g f Z g s s s ` ` Z Z s s ` Z r 5.k V S z x z z x y z z z y z B w ",
"z y w w w z z y z y l y z V m ;.b ` g [ g ` s s ) ` g ` s ` [ s s s g s s g s s ` ) s s ` ` w 5.n z z z x z z z y w z z z z x z ",
"z w w z t l z y z y w w z z D ;.v ` g ` g [ g s a V ` ` g ` g g s g s [ ` ` g g s ` s s s Z r 6.n V S S l w z z z 9 w w z w y z ",
"z t w z z z z w z w y z z S D &.k [ ` ` ` V g ` s g g g s ) s s f s ` ` ` [ ` ` g s g s ` ` r 5.k z z z z w y z z z w y z l l x ",
"w y z z z z z z z z z x z z A ;.k Z s s s ` ) s ` ` ` g s Z ` s ) ) g ` s g s Z ` g g V ` [ e 3.n S z y z x z z z z z z x z z y ",
"z S B V z z z z B z V z x S A ,.1 Z s ` ` f s s Z [ ` ` g ` s Z Z ` f s s s Z s ` ` ` | ` { e 5.M V z z S B S B x z V z z B x z ",
"w l w w w z w z z B z z l y e 5.- B a V a B s a a a y B a a V s a a a a y a a a V a p a s a 8 y.1 w r w z l w r l z z z z z w l ",
"n 3 4 M 5 4 4 5 n 3 M n K L W w.I 5 n n k 4 n 4 n n n n M n n v v n M n 4 4 n n n n 5 M M n L w.W n M K n n 4 n L n K 5 4 n n n ",
"7.3.>.3.,.<.<.5.,.,.;.=.>.<.>.5.<.=.-.=.,.<.<.;.-.;.;.-.=.=.=.5.6.,.>.=.,.<.,.>.>.,.,.>.;.3.5.3.5.<.;.<.<.<.5.,.3.0.;.<.;.=.<.w.",
",.l X.[ [ T | F X.F F F X.T [ [ F F [ F F [ F | [ [ [ F [ [ S / *.F | X.X.F J [ O.[ [ O.| O.F X.| X.[ O.O.X.| X.[ O.O.| X.[ F =.",
"5.> ) V S ) S V x V ) ) V B S x V x V x V z V S V S x y B ' V Y %.A ) F  .' ' ' ' ] [ [ ' ' X.X.+.X.' [ ' X.[ [ ) X.{ o.[ { V Q ",
"6.* ) x c x x x x x u x x x x x x t x x x t u x z t u t x V z Y I A ] x X.X.X.] ] [ ] ) ] ] V X.' ' ] ' ) { ] ' ) V o.X.' ' [ P ",
"w.* V x t t x x x t t x c x x u x x t t u x x x t u c u y u V Q %.A +.' { X.' ' i ) ' ) ) ' c X.' c X._ ' ' ' ) _ ) X.c ' ' ' P ",
"y.& ) V x t c u x t t x x t t z c u x x x x u u t u t t u u u Y %.b ' [ X.] ' ) i i ) ) ) ) ] ) ' ' c ' ' X.] ' ) ] ' c ] [ ' P ",
"5.8 S x x t x x c u t x c t x x x x x t u y c x x x t t u V V Y %.A ) ' ) ) ] c _ ) x ] ] ' ) ] ' ' ) _ ' ' c c c ' X._ ] ' ' U ",
"5.8 S 9 t x u x x x u u u u t 9 t x x x V x x x x x z t u x V Y %.A ] ) c ) ' ] X.) ) ' ' _ i ) ' ' c ' [ ' ] ] ] [ ) ) ) ` V / ",
"6.; ' ' u x V S x x V V S ) ) V u x x V x x u V ) c ) V x x S P I A ' [ ] ] [ ' [ ) _ ] ) ) ) { ) ) V ' [ [ o.] ' ) ] ' ' ' S R ",
"q.& z l B B b l z B z l l z z B z z z B z l r l z l z l w b l P %.k B B B r w B B a S S B a S B B z z z b y z B z z b B z B z ~ ",
"y.I 7 6 5 6 5 5 7 I 7 6 5 6 5 6 7 5 6 7 7 7 K 6 6 7 6 L 7 7 E 3.7.I 7 6 6 5 5 5 5 5 5 L L 5 6 6 3 5 6 6 6 7 5 6 6 6 6 5 7 6 L 6.",
"8.$.>.>.>.>.>.>.8.8.>.( 8.8.>.>.y.5.9.-.:.0.-.-.:.9.9.:.:.-.:.-.-.>.9.9.-.9.9.:.0.>.9.9.8.8.9.<.y.q.-.:.>.>.>.9.8.8.>.( >.>.8.8.",
"J G Z J J G | G Z Z G J J Z G p q.5 A S S S S S A S D D T S D T F T A A D S F D S A B B A A A b =.P F F C G Z G G J | J J Z D Z ",
"G J G G G G G C G J G G G G G e q.2 A l l l h j h l l l j l l l l l z l z z l l A l w h l l z A %.M C Z G G d d G G G J J J J G ",
"d G G G G d d d G G d G J G J e w.3 S l l l h h w h h h h h h h j l h l h q h h h h h h h l z D %.P C G G d G d C d G d d d d G ",
"G d G d G G d d G G d G G G G r q.3 B l h h h j h h h h h h h h h h > h l h h h q q h j h h l A W P C J C G d G d G G d G G d d ",
"d G G G G G d G d G d d d G G r q.3 D l l l h 1 h h l h h h h h j h h h l h h h q q q h h l z A %.N Z G d G d G G G G d d d G G ",
"d d C G G G C G d d d G d d G 0 q.5 A z l j l l h l h h l l l j h j j h l j > h h q h l h h A b &.M C G C d G d G C G G d d d G ",
"J G C C C G G G d d G G d d G r y.5 S l A l l h l l l l l l h l h h l h h j h h h l h k l h z b =.P C C G G G G H d C G G d G G ",
"G G G G G J G G J | J J G J J r q.K B l z z A l B b A S A z A z S z z A B l B b A z A l B b A A %.R C G C Z G J J G G G G G G G ",
"> , - & , , , , , e , - > ; > - 4.2 & > : > , > ; ; & % - - ; > : , : - > - ; & - > > > > - > > ,.M - ; > e , > > , - O ; , e , ",
",.,.&.,.W E ,.,.%.%.*.,.,.,.,.5.q.6.;.;.,.=.=.&.;.,.2.<.=.*.&.E =.;.3.&.;.*.,.,.3.,.;.*.%.&.<.<.7.5.=.=.&.W W ,.,.,.,.>.,.~ W W ",
">.7.<.^ 8.^ ^ H ( ( ^ ^ ^ ! ( ( T ^ $.^ ^ ^ ( / ( ( ( ~ ( :.:.:.-.w.%.:.$.8.$.8.:.:.:.:.8.8.( $.$.( 8.$.8.>.8.( >.8.>.8.>.8.8.8.",
"B ,.W p C b C C C C D b D b C b C C b C A B A B b b C C B B b b h 6.- | J | } Z [ ` } | D | } } J |  .|  .} } } J } } } f } J | ",
"Z *.M e p p p v v b k e , e b p k v e p e e p e p p v b v b v C b 5.:  .} | G f Z | } } } } } } } } | | G G | ` | @. .| } } }  .",
"B ,.U p v p 1 e e , v b e e e b k , p 4 v , v p > p e , , p p b e q.> | } }  .} } } } } } | @.G f f J ` f J @.| J @.} } } } | J ",
"C %.U b b , v e , e e e , , e v v v p b v , p 4 e 4 p 4 p v e b e w.< ` Z } J } f } } G } } } } f G } f f | } } } J f } } J } J ",
"B *.L r b v e e , v , p , 4 p 4 e e v v e p p , e v v e v k e B p q.: | } f } } } f f } } J } } } }  .} } f | } J } } } } } } f ",
"B ,.R p b e v e p p e e v p p , b v v e , e v b e e p v v e e b p 6.1 @.} } } Z }  .} } G } } } f } O.| ` } | } } G } G G } } } ",
"p 5.W p b e m b v b b b v p p p b m b b b v v b b k p v e b p b e w.: #.} | } } | | } } } g | ` } } J  .} Z J Z  .} }  .} f } } ",
"C ,.L p C B b S C v b b b C N b C b b A C C A b C C b b b D C A v e.: | J | | } J ..@. .@. .| | @.} G J | | } ` | } | J @. . . .",
"& 7.W = = # % # X % = = % $ $ $ $ % % % $ % = % # @ % $ % # @ @ < w.6 . . $ $ $ # X o o   o . . . # $ $ o $ $ $ # X o X o X o o ",
"w.7.5.w.t.a.e.y.r.i.p.w.w.w.i.e.w.p.i.u.w.w.p.w.w.y.p.7.y.y.p.w.w.e.r.r.e.w.t.p.r.w.i.w.y.5.y.a.w.w.w.w.w.w.w.r.w.r.w.w.w.e.5.q.",
"S C V B V Z S D D Z B Z V C ,.W F D F S S D Z V D ! F F ! X.T F S C F F S F F S D S D J F F 5.~ B Z B C Z V B C V C B Z S C Z C ",
"a b C A B C C C Z A A S C a ,.L S V Z Z V Z V ` V V V Z Z ` F V V V V B V Z V Z Z V V Z V a =.L p C S C B B B B S A B C p B S B ",
"p r p a p p b B b l e p B B ,.M C V V s y y a y a V a a a a B a a r y a y a a B V a y a V B =.L p A p b r p p B r r p p p p p a ",
"r p p r e r p l p r p r p A ,.n B y y y 0 y y y y y s y B u t y y s V y 0 y s y y w y a V a ;.I p r r r 8 r e r b r p r r r p e ",
"C r e e p r p r p r b B A C ,.4 Z V y a a a y a 0 w w y y s y s V V V u y y y a y s y y V B =.W b C p C r r b r p p e 8 p p e r ",
"b r r r r r p p r r e B B B %.M a a y y y y y B s y y y y z V y w y y V y 0 y y a y y V V y ,.L r p r r e p r p r e r 8 e p r 8 ",
"b B B p p e p p B r r p p B ;.L S V a y B a a y y a s z s B s y a y y a a y a y B y s V V r ;.I p p p e r p p r p b b y p r p p ",
"A C b S C a B B b A Z B C C =.n V V V V V V V s V B V V V V S V s V V V V V a a V V V B Z a >.W B S C B B C B C B C B C Z S C B ",
"- 8 - ; - 8 8 ; 8 * ; * 8 ; ;.3 8 8 8 * * 8 8 8 r 8 8 w 8 8 r w r 8 + ; 8 e w 8 r r r 8 8 + 1.E O - ; 8 - + O O + - ; ; + - * O ",
"W E W W W W W W E =.%.W E ;.q.5.E R W W W W I W W %.W W E E L M L W ;.~ I L L L 5 W E W E %.i.w.W =.W W ,.W ,.,.,.,.&.W =.*.,.%."
};
