/* XPM */
static char *result[] = {
/* columns rows colors chars-per-pixel */
"50 62 155 2 ",
"   c #7B6D6D",
".  c #7E7373",
"X  c #7E7E7E",
"o  c #BC1E1E",
"O  c #993737",
"+  c #9C3D3D",
"@  c #AC2727",
"#  c #A62F2F",
"$  c #AE2929",
"%  c #B32323",
"&  c #B92020",
"*  c #A33636",
"=  c #AA3333",
"-  c #A13A3A",
";  c #AC3F3F",
":  c #C61919",
">  c #CA1D1D",
",  c #CC2222",
"<  c #CB2E2E",
"1  c #D22525",
"2  c #D62929",
"3  c #DE2C2C",
"4  c #CC3131",
"5  c #C43A3A",
"6  c #CE3A3A",
"7  c #DA3737",
"8  c #E12D2D",
"9  c #E53131",
"0  c #ED3333",
"q  c #EF3B3B",
"w  c #F13535",
"e  c #F23A3A",
"r  c #964040",
"t  c #9B4141",
"y  c #944A4A",
"u  c #8D5353",
"i  c #845959",
"p  c #8C5F5F",
"a  c #955454",
"s  c #9A5858",
"d  c #B84343",
"f  c #856565",
"g  c #8A6161",
"h  c #826B6B",
"j  c #9C6060",
"k  c #807171",
"l  c #807F7F",
"z  c #8A7B7B",
"x  c #9A7474",
"c  c #AA6868",
"v  c #B56B6B",
"b  c #BC7474",
"n  c #B27E7E",
"m  c #BB7A7A",
"M  c #D14242",
"N  c #D84242",
"B  c #D34C4C",
"V  c #DE4F4F",
"C  c #C15E5E",
"Z  c #D45353",
"A  c #DC5454",
"S  c #D65B5B",
"D  c #D95858",
"F  c #EA4545",
"G  c #E64D4D",
"H  c #E94D4D",
"J  c #F44646",
"K  c #F54C4C",
"L  c #F94D4D",
"P  c #E05555",
"I  c #E75E5E",
"U  c #ED5D5D",
"Y  c #F45252",
"T  c #FE5555",
"R  c #F55959",
"E  c #FB5959",
"W  c #CD6565",
"Q  c #D46161",
"!  c #D86060",
"~  c #D76E6E",
"^  c #DD6C6C",
"/  c #C27272",
"(  c #C37878",
")  c #DC7171",
"_  c #DF7C7C",
"`  c #E46565",
"'  c #F66464",
"]  c #F46C6C",
"[  c #E27474",
"{  c #E07D7D",
"}  c #EE7C7C",
"|  c #F37373",
" . c #F67B7B",
".. c #828282",
"X. c #8C8B8B",
"o. c #9A8787",
"O. c #968C8C",
"+. c #949494",
"@. c #9D9494",
"#. c #9A9A9A",
"$. c #A58484",
"%. c #AC8383",
"&. c #A28A8A",
"*. c #AB8C8C",
"=. c #B38181",
"-. c #A29595",
";. c #A3A3A3",
":. c #ABABAB",
">. c #B0A9A9",
",. c #BDADAD",
"<. c #B2B2B2",
"1. c #BFB1B1",
"2. c gray74",
"3. c #C78080",
"4. c #D68585",
"5. c #DF8181",
"6. c #DA9292",
"7. c #DF9E9E",
"8. c #E08383",
"9. c #ED8080",
"0. c #E48B8B",
"q. c #F78686",
"w. c #F88787",
"e. c #F78D8D",
"r. c #E39090",
"t. c #E59B9B",
"y. c #EE9E9E",
"u. c #F89B9B",
"i. c #CAABAB",
"p. c #D4A6A6",
"a. c #DFA1A1",
"s. c #D3ACAC",
"d. c #D8ADAD",
"f. c #C2BBBB",
"g. c #D6B4B4",
"h. c #D8B1B1",
"j. c #D2BABA",
"k. c #E5A7A7",
"l. c #E9A4A4",
"z. c #EBACAC",
"x. c #F8A3A3",
"c. c #F9ACAC",
"v. c #EDB4B4",
"b. c #EFBDBD",
"n. c #F6B5B5",
"m. c #F1BFBF",
"M. c #F9BBBB",
"N. c #C4C4C4",
"B. c #CCC6C6",
"V. c #CCCCCC",
"C. c #D1C3C3",
"Z. c #F3C2C2",
"A. c #FAC5C5",
"S. c #FBC8C8",
"D. c None",
/* pixels */
"D.D.D.D.D.D.D.D.D.D.D.D.D.D.D.D.D.D.D.D.D.D.D.D.D.D.D.D.D.D.D.D.D.D.D.D.D.D.D.D.D.D.D.D.D.D.D.D.D.D.",
"D.D.D.D.D.D.D.D.D.D.D.D.D.D.D.D.D.D.D.D.D.D.D.D.D.D.D.D.D.D.D.D.D.D.D.D.D.D.D.D.D.D.D.D.D.D.D.D.D.D.",
"D.D.D.D.D.D.D.D.D.D.D.D.D.D.D.D.D.D.D.D.D.D.D.D.D.D.D.D.D.D.D.D.D.D.D.D.D.D.D.D.D.D.D.D.D.D.D.D.D.D.",
"D.D.D.D.D.D.D.D.D.D.D.D.D.D.D.D.D.D.D.D.D.D.D.D.D.D.D.D.D.D.D.D.D.D.D.D.D.D.D.D.D.D.D.D.D.D.D.D.D.D.",
"D.D.D.D.D.D.D.D.D.D.D.D.D.D.D.D.D.D.D.D.D.D.D.D.D.D.D.D.D.D.D.D.D.D.D.D.D.D.D.D.D.D.D.D.D.D.D.D.D.D.",
"D.D.D.D.D.D.D.D.D.D.D.D.D.D.D.D.D.D.D.D.D.D.D.D.D.D.D.D.D.D.D.D.D.D.D.D.D.D.D.D.D.D.D.D.D.D.D.D.D.D.",
"D.D.D.D.D.D.D.D.D.D.D.D.D.D.D.D.D.D.D.D.D.D.D.D.D.D.D.D.D.D.D.D.D.D.D.D.D.D.D.D.D.D.D.D.D.D.D.D.D.D.",
"D.D.D.D.D.D.D.D.D.D.D.D.D.D.D.D.D.D.D.D.D.D.D.D.D.D.D.D.D.D.D.D.D.D.D.D.D.D.D.D.D.D.D.D.D.D.D.D.D.D.",
"D.D.D.D.D.D.D.D.D.D.D.D.D.D.D.D.D.D.D.D.D.D.D.D.D.D.D.D.D.D.D.D.D.D.D.D.D.D.D.D.D.D.D.D.D.D.D.D.D.D.",
"D.D.D.D.D.D.D.D.D.D.D.D.D.D.D.D.D.D.D.D.D.D.D.D.D.D.D.D.D.D.D.D.D.D.D.D.D.D.D.D.D.D.D.D.D.D.D.D.D.D.",
"D.D.D.D.D.D.D.D.D.D.D.D.D.D.D.D.D.D.D.D.D.D.D.D.D.D.D.D.D.D.D.D.D.D.D.D.D.D.D.D.D.D.D.D.D.D.D.D.D.D.",
"D.D.D.D.D.D.D.D.D.D.D.D.D.D.D.D.D.D.D.D.D.D.D.D.D.D.D.D.D.D.D.D.D.D.D.D.D.D.D.D.D.D.D.D.D.D.D.D.D.D.",
"D.D.D.D.D.D.D.D.D.D.D.D.D.D.D.D.D.D.D.D.D.D.D.D.D.D.D.D.D.D.D.D.D.D.D.D.D.D.D.D.D.D.D.D.D.D.D.D.D.D.",
"D.D.D.D.D.D.D.D.D.D.D.D.D.D.D.D.D.D.D.D.D.D.D.D.D.D.D.D.D.D.D.D.D.D.D.D.D.D.D.D.D.D.D.D.D.D.D.D.D.D.",
"D.D.D.D.D.D.D.D.D.D.D.D.D.D.D.D.D.D.D.D.D.D.D.D.D.D.D.D.D.D.D.D.D.D.D.D.D.D.D.D.D.D.D.D.D.D.D.D.D.D.",
"D.D.D.D.D.D.D.D.D.D.D.D.D.D.D.D...........X.X.X.X.X.X.X.X.X.........D.D.D.D.D.D.D.D.D.D.D.D.D.D.D.D.",
"D.D.D.D.D.D.D.D.D.D.D.D.D.D.....X.+.#.#.#.;.;.;.:.;.;.;.;.;.#.#.+.+.....D.D.D.D.D.D.D.D.D.D.D.D.D.D.",
"D.D.D.D.D.D.D.D.D.D.D.D.D...+.+.;.<.f.i.s.j.V.V.V.V.V.V.V.V.N.2.<.;.+.X...D.D.D.D.D.D.D.D.D.D.D.D.D.",
"D.D.D.D.D.D.D.D.D.D.D.D.D.X.+.#.<.f.4.! ^ ^ p.B.V.V.V.N.N.N.N.N.N.:.#.#.X.D.D.D.D.D.D.D.D.D.D.D.D.D.",
"D.D.D.D.D.D.D.D.D.D.D.D.D.X.#.#.#.@.%.=.m b ( >.>.<.:.:.;.;.#.#.#.#.+.#.+.D.D.D.D.D.D.D.D.D.D.D.D.D.",
"D.D.D.D.D.D.D.D.D.D.D.D.D.D.+.#.#.-.-.@.@.@.@.#.#.#.#.#.#.#.#.#.#.#.#.X.D.D.D.D.D.D.D.D.D.D.D.D.D.D.",
"D.D.D.D.D.D.D.D.D.D.D.D.D.D.X.;.N.3./ b =.%.*.;.;.;.#.;.;.;.;.:.<.N.:.X.D.D.D.D.D.D.D.D.D.D.D.D.D.D.",
"D.D.D.D.D.D.D.D.D.D.D.D.D.D...+.N.p.` ` I ` { V.N.N.V.V.V.V.V.V.V.N.#...D.D.D.D.D.D.D.D.D.D.D.D.D.D.",
"D.D.D.D.D.D.D.D.D.D.D.D.D.D.D.+.<.V.p.5.{ 6.C.V.V.V.V.V.V.V.V.V.V.<.X.D.D.D.D.D.D.D.D.D.D.D.D.D.D.D.",
"D.D.D.D.D.D.D.D.D.D.D.D.D.D.D...;.V.V.V.V.V.V.V.V.V.V.V.V.V.V.V.V.#...D.D.D.D.D.D.D.D.D.D.D.D.D.D.D.",
"D.D.D.D.D.D.D.D.D.D.D.D.D.D.D...#.N.V.V.V.V.V.V.V.V.V.V.V.V.V.V.N.+...D.D.D.D.D.D.D.D.D.D.D.D.D.D.D.",
"D.D.D.D.D.D.D.D.D.D.D.D.D.D.D.D.+.2.V.V.V.V.V.V.V.V.V.V.V.V.V.V.2.+.D.D.D.D.D.D.D.D.D.D.D.D.D.D.D.D.",
"D.D.D.D.D.D.D.D.D.D.D.D.D.D.D.D.+.2.V.V.V.V.V.V.V.V.V.V.V.V.V.V.2.+.D.D.D.D.D.D.D.D.D.D.D.D.D.D.D.D.",
"D.D.D.D.D.D.D.D.D.D.D.D.D.D.D.D.+.N.V.V.V.V.V.V.V.V.V.V.V.V.V.V.N.+.D.D.D.D.D.D.D.D.D.D.D.D.D.D.D.D.",
"D.D.D.D.D.D.D.D.D.D.D.D.D.D.D...#.N.V.V.V.V.V.V.V.V.V.V.V.V.V.V.V.#...D.D.D.D.D.D.D.D.D.D.D.D.D.D.D.",
"D.D.D.D.D.D.D.D.D.D.D.D.D.D.D.+.<.V.V.V.V.V.V.V.V.V.V.V.V.V.V.V.V.:.X.D.D.D.D.D.D.D.D.D.D.D.D.D.D.D.",
"D.D.D.D.D.D.D.D.D.D.D.D.D.D...#.N.V.V.V.j.z.d.d.h.g.g.h.g.j.V.V.V.N.-.X.D.D.D.D.D.D.D.D.D.D.D.D.D.D.",
"D.D.D.D.D.D.D.D.D.D.D.D.D...@.,.C.C.g.a.9.] ' ] ] ] | ] | } 0.t.a.t.4.&...D.D.D.D.D.D.D.D.D.D.D.D.D.",
"D.D.D.D.D.D.D.D.D.D.D.D.D.O./ 0.k.0.| E T T T T T T T T T T T T T T T ~ +.D.D.D.D.D.D.D.D.D.D.D.D.D.",
"D.D.D.D.D.D.D.D.D.D.D.D.X.m q ] w.T T T T T T T T T T T T T T T T L K J n O.D.D.D.D.D.D.D.D.D.D.D.D.",
"D.D.D.D.D.D.D.D.D.D.D.X.$.F Y x.R J Y L T T T T T T T E T Y T L K e w w G %.X.D.D.D.D.D.D.D.D.D.D.D.",
"D.D.D.D.D.D.D.D.D.D...@.A J u.n.w w w w J K K L L L L L Y K e w 0 w w w w D @...D.D.D.D.D.D.D.D.D.D.",
"D.D.D.D.D.D.D.D.D.D.O.W e w.A. .w w w w w w w w w w w w w w w w w w w w w w W O...D.D.D.D.D.D.D.D.D.",
"D.D.D.D.D.D.D.D.D.O.m e | A.M.K w w w w w w w w w w w w w w w w w w w w w w q b +.D.D.D.D.D.D.D.D.D.",
"D.D.D.D.D.D.D.D.X.%.F R M.S.x.w w w w w w w w w w w w w w w w w w w w w w w w F n X.D.D.D.D.D.D.D.D.",
"D.D.D.D.D.D.D...o.P K c.S.S. .w w w w w w w w w w w w w w w w w w w w w w w w w A $...D.D.D.D.D.D.D.",
"D.D.D.D.D.D.D.O.W J u.S.S.A.Y w w w w w w w w w w w w w w w w w w w w w w w w w 0 W o.l D.D.D.D.D.D.",
"D.D.D.D.D.D.X.b F q.A.S.S.M.e w w w w w w w w w w w w w w w w w w w w w w w w w w e b X.D.D.D.D.D.D.",
"D.D.D.D.D.X.=.F  .A.A.S.S.x.w w w w w w w w w w w w w w w w w w w w w w w w w w w w F n X.D.D.D.D.D.",
"D.D.D.D...$.A  .A.S.S.A.S.e.w 0 w 0 0 0 0 0 0 0 0 0 0 0 0 0 0 0 0 0 w w w w w w w w w A &.X.D.D.D.D.",
"D.D.D...o.S  .M.A.S.A.A.A.} 8 8 8 8 8 8 8 8 3 8 8 8 8 3 8 8 8 8 8 8 8 8 8 0 9 9 9 9 0 0 Q O...D.D.D.",
"D.D.D.O.C U n.Z.Z.Z.Z.Z.Z.[ 1 1 1 1 1 1 1 1 1 1 1 1 1 1 1 1 1 1 1 1 1 1 2 1 2 2 3 3 3 9 9 v X.D.D.D.",
"D.D...c 7 y.Z.Z.Z.Z.Z.m.m.[ , > > > > > : : > > : > : : : > > : > > > > > , , , , 1 1 2 2 6 x ..D.D.",
"D...z 5 N m.m.Z.Z.b.b.b.b.5.: : : : : : : : : : : : : : : : : : : : : : : : : : : : > , , 1 d z l D.",
"D...j , D m.b.b.b.b.b.b.b.z.> : : : : : : : : : : : : : : : : : : : : : : : : : : : : : : : 1 s l l ",
"....; : D b.b.b.b.b.b.b.b.b.6 : : : : : : : : : : : : : : : : : : : : : : : : : : : : : : : : = l ..",
"..X # : B b.b.b.b.b.b.b.b.b._ : : : : : : : : : : : : : : : : : : : : : : : : : : : : : : : : # ..X ",
"..X r : < z.b.b.b.b.b.b.b.b.v.M : : : : : : : : : : : : : : : : : : : : : : : : : : : : : : : r ..X ",
"D.X h & : ! z.b.b.b.b.b.b.b.b.r.< : : : : : : : : : : : : : : : : : : : : : : : : : : : : : o f X D.",
"D...X y : > ! t.b.b.b.b.b.b.b.b._ < : : : : : : : : : : : : : : : : : : : : : : : : : : : o y X ..D.",
"D.D.... + o > B 5.z.b.b.b.b.b.b.b.8.4 : : : : : : : : : : : : : : : : : : : : : : : : : : + . X D.D.",
"D.D.X ..h t o : 4 D 5.z.b.b.b.b.b.b.0.Z , : : : : : : : : : : : : : : : : : : : : : : o t k ....D.D.",
"D.D.D...l . y % : : 4 Z ) 0.l.v.b.b.b.l.) M > : : : : : : : : : : : : : : : : : : : @ y . X ..D.D.D.",
"D.D.D.D...X . p - & : : , 6 Z S ^ _ _ 5._ B > : : : : : : : : : : : : : : : : : o O i . X ..D.D.D.D.",
"D.D.D.D.D.D...X h a - $ o : : : , < < 4 < < : : : : : : : : : : : : : : : o @ + u   X X D.D.D.D.D.D.",
"D.D.D.D.D.D.D.....X   p a + * # @ @ @ @ @ $ $ $ @ @ $ $ % $ $ $ o % # = t a p   X X ..D.D.D.D.D.D.D.",
"D.D.D.D.D.D.D.D.D...X ..X . h f g g p p p p p p p p p p g g p p p p g f h X X ..X D.D.D.D.D.D.D.D.D."
};
