/* XPM */
static char *result[] = {
/* columns rows colors chars-per-pixel */
"32 32 218 2 ",
"   c #1A191A",
".  c #1B1B1C",
"X  c #1C1B1C",
"o  c #260904",
"O  c #280904",
"+  c #210908",
"@  c #220908",
"#  c #2C0E0D",
"$  c #2E0E0D",
"%  c #2F0E0D",
"&  c #340E0D",
"*  c #3F0908",
"=  c #37110C",
"-  c #2A1412",
";  c #2E1412",
":  c #261F1E",
">  c #2A1A18",
",  c #2D1A18",
"<  c #2E1A18",
"1  c #2B211E",
"2  c #2D211E",
"3  c #2F211E",
"4  c #2B2624",
"5  c #2D2624",
"6  c #2C2724",
"7  c #2D2724",
"8  c #2B272B",
"9  c gray16",
"0  c #2C2929",
"q  c #2C2B29",
"w  c #2D2B29",
"e  c #2E2B29",
"r  c #2D2C29",
"t  c #2B2A2D",
"y  c #2B282E",
"u  c #2C2A2E",
"i  c #2C2C2E",
"p  c #2D2C2E",
"a  c #2E2C2E",
"s  c #322524",
"d  c #302228",
"f  c #332829",
"g  c #2C2930",
"h  c #2D2A31",
"j  c #2E2B31",
"k  c #2E2B32",
"l  c #2E2B33",
"z  c #2A2D32",
"x  c #2D2C31",
"c  c #2D2E31",
"v  c #2D2C33",
"b  c #2D2D33",
"n  c #2E2C33",
"m  c #2E2D33",
"M  c #2D2A34",
"N  c #2D2B34",
"B  c #2D2C34",
"V  c #2E2C34",
"C  c #352B32",
"Z  c #3A3430",
"A  c #4E0504",
"S  c #4F0504",
"D  c #410D08",
"F  c #4A0E0D",
"G  c #4B0E0D",
"H  c #520904",
"J  c #510E0D",
"K  c #530E0D",
"L  c #590E0D",
"P  c #411611",
"I  c #411A18",
"U  c #5C1412",
"Y  c #511A18",
"T  c #640504",
"R  c #690504",
"E  c #650908",
"W  c #620E0D",
"Q  c #750D08",
"!  c #6F1412",
"~  c #681B16",
"^  c #711511",
"/  c #721F1B",
"(  c #76211E",
")  c #4E262A",
"_  c #40292D",
"`  c #4E2929",
"'  c #562426",
"]  c #5C2822",
"[  c #572C29",
"{  c #422C34",
"}  c #583031",
"|  c #682421",
" . c #6A2A2A",
".. c #7A2623",
"X. c #7F2725",
"o. c #71292C",
"O. c #792B2B",
"+. c #72312E",
"@. c #783032",
"#. c #820908",
"$. c #8D0E0D",
"%. c #940D08",
"&. c #960E0D",
"*. c #9A0908",
"=. c #9B0D08",
"-. c #8F1A18",
";. c #901412",
":. c #9D1611",
">. c #9A1A18",
",. c #A70601",
"<. c #A30504",
"1. c #A90000",
"2. c #A80101",
"3. c #A90101",
"4. c #AF0000",
"5. c #A90504",
"6. c #AC0504",
"7. c #AD0904",
"8. c #A80908",
"9. c #AE0908",
"0. c #AD0E0D",
"q. c #B70601",
"w. c #B90000",
"e. c #BA0101",
"r. c #BB0904",
"t. c #B10908",
"y. c #B80E0D",
"u. c #A0110C",
"i. c #A2110C",
"p. c #B61412",
"a. c #8C211E",
"s. c #AC211E",
"d. c #B1211E",
"f. c #B6201D",
"g. c #822724",
"h. c #822B29",
"j. c #822B2E",
"k. c #8F2C28",
"l. c #90322E",
"z. c #9C3833",
"x. c #A32320",
"c. c #A82724",
"v. c #A22F2D",
"b. c #B6312F",
"n. c #A43031",
"m. c #A83631",
"M. c #BF3834",
"N. c #C60101",
"B. c #C90404",
"V. c #CA0404",
"C. c #CC0404",
"Z. c #CD0404",
"A. c #C00D08",
"S. c #D30404",
"D. c #D00707",
"F. c #D20707",
"G. c #D50404",
"H. c #D60707",
"J. c #D90707",
"K. c #DC0707",
"L. c #DE0707",
"P. c #DE0B0B",
"I. c #C6110C",
"U. c #C11412",
"Y. c #CD1611",
"T. c #CE1611",
"R. c #C81A18",
"E. c #C91A18",
"W. c #CB1A18",
"Q. c #D21B16",
"!. c #D41B16",
"~. c #D51B16",
"^. c #E30707",
"/. c #E20B0B",
"(. c #E50909",
"). c #E80909",
"_. c #EA0909",
"`. c #EF0909",
"'. c #F10909",
"]. c #F10B0B",
"[. c #F50B0B",
"{. c #FA0B0B",
"}. c #FB0B0B",
"|. c #C2201B",
" X c #CE211E",
".X c #D5211E",
"XX c #DB211C",
"oX c #DD211C",
"OX c #DE211C",
"+X c #C02F29",
"@X c #CC2E2A",
"#X c #D52724",
"$X c #D92C29",
"%X c #C1312E",
"&X c #D1342F",
"*X c #DB342F",
"=X c #C53532",
"-X c #DD3631",
";X c #DE3832",
":X c #E02724",
">X c #E72822",
",X c #EA2F27",
"<X c #E52C29",
"1X c #E92C29",
"2X c #E92F29",
"3X c #F12F29",
"4X c #EB322E",
"5X c #F1322E",
"6X c #F1342F",
"7X c #F9342F",
"8X c #EF3630",
"9X c #F83631",
"0X c #F03833",
"qX c #FC3832",
"wX c #FD3833",
"eX c #FE3832",
"rX c #FF3934",
"tX c None",
/* pixels */
"tXtXtXtXtXtXtXtXtXtXtXq.q.q.q.q.,.tXtXtXtXtXtXtXtXtXtXtXtXtXtXtX",
"tXtXtXtXtXtXtXtXtXr.r.r.r.r.r.r.r.7.H O o tXtXtXtXtXtXtXtXtXtXtX",
"tXtXtXtXtXtXtXA.A.A.A.A.A.A.A.A.A.A.A.Q D %.=.tXtXtXtXtXtXtXtXtX",
"tXtXtXtXtXtXtXI.I.I.I.I.I.I.I.I.I.I.I.I.i.= u.I.tXtXtXtXtXtXtXtX",
"tXtXtXtXtXtXT.T.T.T.T.T.T.T.T.T.T.T.T.T.T.^ P :.T.Y.tXtXtXtXtXtX",
"tXtXtXtXtXQ.~.~.~.~.~.~.~.~.~.~.~.~.~.~.~.~.!.~ ~.~.tXtXtXtXtXtX",
"tXtXtXtXOXoXoXoXoXoXoXoXoXoXoXoXoXoXoXoXoXoXXX/ |.oXoXtXtXtXtXtX",
"tXtXtXtX>X>X>X>X>X>X>X>X>X>X>X>X>X>X>X>X>X>X>X] ( >X>XtXtXtXtXtX",
"tXtXtXtX3X3X3X3X3X3X3X3X3X3X3X3X3X3X3X3X3X3X3X+X' ,X3X2XtXtXtXtX",
"tXtXtX7X7X7X7X7X7X7X7X7X7X7X7X7X7X7X7X7X7X6Xb.&X*X) | X.k.tXtXtX",
"tXtXtXeXeXeXeXeXeXeXeXeXeXeXeXeXeXeXqX=X@.C k g ;Xd X .   tXtXtX",
"tXtXtXrXrXrXrXrXrXrXrXrXrXrXrXrXrXv.{ M N B V z M.` O.o. .tXtXtX",
"tXtXtX0XwXwXwXwXwXwXwXwXwXwXwXwXwXj.b l v n m h z.} wXwXwXtXtXtX",
"tXtXZ -X9X9X9X9X9X9X9X9X9X9X9X9X9Xn.x j x x c y m._ 8X9X9XtXtXtX",
"tXtX+.4X5X5X5X5X5X5X5X5X5X5X5X5X5X%Xu p p i a t l.8 @X5X5X4XtXtX",
"tXtX[ 1X1X1X1X1X1X1X1X1X1X1X1X1X1X$X9 w q e r 0 h.f c.1X1X<XtXtX",
"tXtX..:X:X:X:X:X:X:X:X:X:X:X:X:X:X#X4 6 6 7 7 5 g.s x.:X:X:XtXtX",
"tXtXs..X.X.X.X.X.X.X.X.X.X.X.X.X.Xd.1 2 2 2 3 1 a.: f..X.X XtXtX",
"tXtXY E.W.W.W.W.W.W.W.W.W.W.W.W.W.-., < , < , > >.I R.W.W.tXtXtX",
"tXtXtXp.U.U.U.U.U.U.U.U.U.U.U.U.U.! ; ; ; ; ; - ;.U U.U.U.tXtXtX",
"tXtXtX0.y.y.y.y.y.y.y.y.y.y.y.y.y.$.W G & $ % # &.K L J F tXtXtX",
"tXtXtXt.t.t.t.t.t.t.t.t.t.t.t.t.t.t.t.t.9.*.#.E 8.* @ + @ tXtXtX",
"tXtXtX5.6.6.6.6.6.6.6.6.6.6.6.6.6.6.6.6.6.6.6.6.<.A S T R tXtXtX",
"tXtXtXtX3.3.3.3.3.3.3.3.3.3.3.3.3.3.3.3.3.3.3.3.3.3.3.2.tXtXtXtX",
"tXtXtXtX1.1.1.1.1.1.1.1.1.1.1.1.1.1.1.1.1.1.1.1.1.1.1.tXtXtXtXtX",
"tXtXtXtX4.4.4.4.4.4.4.4.4.4.4.4.4.4.4.4.4.4.4.4.4.4.4.tXtXtXtXtX",
"tXtXtXtXtXw.w.w.w.w.w.w.w.w.w.w.w.w.w.w.w.w.w.w.w.w.tXtXtXtXtXtX",
"tXtXtXtXtXtXN.N.N.N.N.N.N.N.N.N.N.N.N.N.N.N.N.N.N.e.tXtXtXtXtXtX",
"tXtXtXtXtXtXtXG.G.G.G.G.G.S.Z.B.V.B.C.G.S.G.G.G.tXtXtXtXtXtXtXtX",
"tXtXtXtXtXtXtXtX^.^.^.J.^.L.K.F.D.H.K.^.^.^.^.tXtXtXtXtXtXtXtXtX",
"tXtXtXtXtXtXtXtXtX)._.'.'.`.(.`.'.'.'.'.'.tXtXtXtXtXtXtXtXtXtXtX",
"tXtXtXtXtXtXtXtXtXtXtX}.{.[./.P.].tXtXtXtXtXtXtXtXtXtXtXtXtXtXtX"
};
