/* XPM */
static char *result[] = {
/* columns rows colors chars-per-pixel */
"32 32 191 2 ",
"   c #1D0908",
".  c #1D1E1D",
"X  c #1D1D1E",
"o  c #2F0E0D",
"O  c #340E0D",
"+  c #350E0D",
"@  c #380908",
"#  c #2D1412",
"$  c #2F1412",
"%  c #2D1A18",
"&  c #2E1A18",
"*  c #391412",
"=  c #3D1B16",
"-  c #2D211E",
";  c #2E211E",
":  c #34211C",
">  c #36211E",
",  c #3C211C",
"<  c #232220",
"1  c #272521",
"2  c #282221",
"3  c #2D2226",
"4  c #2A2624",
"5  c #2E2724",
"6  c #2B2A29",
"7  c #2D2B29",
"8  c #2D2C2E",
"9  c #2D2D2E",
"0  c #322724",
"q  c #342C29",
"w  c #362F2E",
"e  c #2C2C31",
"r  c #2D2C33",
"t  c #2D2D33",
"y  c #2C2B34",
"u  c #302D31",
"i  c #333134",
"p  c #393333",
"a  c #4D0904",
"s  c #4E0904",
"d  c #570504",
"f  c #5D0E0D",
"g  c #421A18",
"h  c #431E1C",
"j  c #5A1412",
"k  c #5A1B16",
"l  c #650504",
"z  c #610908",
"x  c #6D0E0D",
"c  c #6F0E0D",
"v  c #7B0504",
"b  c #700E0D",
"n  c #740E0D",
"m  c #7A1A15",
"M  c #7A1A18",
"N  c #402D34",
"B  c #413231",
"V  c #692726",
"C  c #7C332F",
"Z  c #653033",
"A  c #890908",
"S  c #950101",
"D  c #910908",
"F  c #9A0D08",
"G  c #9F110C",
"H  c #8A1412",
"J  c #851B16",
"K  c #961611",
"L  c #9D1412",
"P  c #911A18",
"I  c #9E1F1E",
"U  c #A60000",
"Y  c #A60101",
"T  c #A90000",
"R  c #A90101",
"E  c #AF0000",
"W  c #AB0504",
"Q  c #AC0504",
"!  c #A90904",
"~  c #A70908",
"^  c #A00D08",
"/  c #A40E0D",
"(  c #AD0908",
")  c #B70601",
"_  c #B80000",
"`  c #B90000",
"'  c #B90101",
"]  c #BB0904",
"[  c #B10908",
"{  c #B10D08",
"}  c #B60E0D",
"|  c #B80E0D",
" . c #B1110C",
".. c #B9110C",
"X. c #A01611",
"o. c #BE1412",
"O. c #BF1412",
"+. c #97211E",
"@. c #892A26",
"#. c #9E2A25",
"$. c #8D322D",
"%. c #9C302D",
"&. c #863031",
"*. c #803432",
"=. c #923234",
"-. c #A92622",
";. c #A32B27",
":. c #A42F2A",
">. c #A42E2E",
",. c #AA2C2E",
"<. c #B72324",
"1. c #B32724",
"2. c #BE2724",
"3. c #B32C29",
"4. c #BF2829",
"5. c #A03131",
"6. c #A63130",
"7. c #A43231",
"8. c #BF3832",
"9. c #C50101",
"0. c #C60101",
"q. c #C80404",
"w. c #CD0404",
"e. c #C00D08",
"r. c #CD0B0B",
"t. c #D10404",
"y. c #D20404",
"u. c #D40404",
"i. c #D50404",
"p. c #D80707",
"a. c #DA0707",
"s. c #DC0707",
"d. c #DD0707",
"f. c #D50909",
"g. c #DC0909",
"h. c #C6110C",
"j. c #C11412",
"k. c #C41611",
"l. c #C81611",
"z. c #CE1611",
"x. c #CB1A18",
"c. c #D31B16",
"v. c #D51B16",
"b. c #E00707",
"n. c #E20707",
"m. c #E30707",
"M. c #E30909",
"N. c #E10B0B",
"B. c #E40909",
"V. c #E60909",
"C. c #EC0909",
"Z. c #EE0909",
"A. c #F10909",
"S. c #F60B0B",
"D. c #F70B0B",
"F. c #FA0B0B",
"G. c #C5211E",
"H. c #D0211E",
"J. c #D6211C",
"K. c #D5211E",
"L. c #DD211C",
"P. c #C42724",
"I. c #C22C29",
"U. c #C92C29",
"Y. c #CB2F29",
"T. c #D52724",
"R. c #DF2724",
"E. c #DF2C29",
"W. c #D7322E",
"Q. c #C43532",
"!. c #D43934",
"~. c #E02724",
"^. c #E72822",
"/. c #E72823",
"(. c #E02F29",
"). c #E92C29",
"_. c #F02F29",
"`. c #F12F29",
"'. c #E7322E",
"]. c #E2342F",
"[. c #F1322E",
"{. c #F9342F",
"}. c #EF3833",
"|. c #F33631",
" X c #F83631",
".X c #F63833",
"XX c #FB3832",
"oX c #FD3833",
"OX c #FE3832",
"+X c #FF3934",
"@X c None",
/* pixels */
"@X@X@X@X@X@X@X@X@X@X@X@X) ) ) ) ) @X@X@X@X@X@X@X@X@X@X@X@X@X@X@X",
"@X@X@X@X@X@X@X@X@X] ] ] ] ] ] ] ] ] ! s a @X@X@X@X@X@X@X@X@X@X@X",
"@X@X@X@X@X@X@Xe.e.e.e.e.e.e.e.e.e.e.e.e.F ^ { @X@X@X@X@X@X@X@X@X",
"@X@X@X@X@X@X..h.h.h.h.h.h.h.h.h.h.h.h.h.h. .G h.@X@X@X@X@X@X@X@X",
"@X@X@X@X@Xl.z.z.z.z.z.z.z.z.z.z.z.z.z.z.z.z.z.K k.X.@X@X@X@X@X@X",
"@X@X@X@Xc.v.v.v.v.v.v.v.v.v.v.v.v.v.v.v.v.v.v.m J k = @X@X@X@X@X",
"@X@X@X@XL.L.L.L.L.L.L.L.L.L.L.L.L.L.L.L.L.L.L.J.h , : @X@X@X@X@X",
"@X@X@X/.^.^.^.^.^.^.^.^.^.^.^.^.^.^.^.^.^.^.^.^.-.2 1 < @X@X@X@X",
"@X@X@X_.`.`.`.`.`.`.`.`.`.`.`.`.`.`.`.`.`.`.`.`.`.#.(.Y.:.@X@X@X",
"@X@X@X{.{.{.{.{.{.{.{.{.{.{.{.{.{.{.{.{.{.{.{.{.{.].V @.;.@X@X@X",
"@X@XOXOXOXOXOXOXOXOXOXOXOXOXOXOXOXOXOXOXXXQ.*.8.OXOX3 X . @X@X@X",
"@X@X+X+X+X+X+X+X+X+X+X+X+X+X+X+X+X+X+X=.N y i !.+X+XC 6.%.$.@X@X",
"@X@XoXoXoXoXoXoXoXoXoXoXoXoXoXoXoXoXoXZ r t p }.oXoX7.oXoX.X@X@X",
"@X@X X X X X X X X X X X X X X X X X X&.e u B |. X X5. X X X@X@X",
"@X[.[.[.[.[.[.[.[.[.[.[.[.[.[.[.[.[.[.>.8 9 w W.[.[.,.'.[.[.@X@X",
"@X).).).).).).).).).).).).).).).).).).I.6 7 q 3.).).U.4.).).E.@X",
"@XR.~.~.~.~.~.~.~.~.~.~.~.~.~.~.~.~.~.2.4 5 0 1.~.~.P.<.~.~.T.@X",
"@XK.K.K.K.K.K.K.K.K.K.K.K.K.K.K.K.K.K.+.- ; > G.K.K.I H.K.K.@X@X",
"@X@Xx.x.x.x.x.x.x.x.x.x.x.x.x.x.x.x.x.M % & g x.x.x.P x.x.x.@X@X",
"@X@XL j.j.j.j.j.j.j.j.j.j.j.j.j.j.j.j.j # $ * o.j.j.H j.j.O.@X@X",
"@X@Xb } | | | | | | | | | | | | | | | c O o + / | | b n x f @X@X",
"@X@X~ [ [ [ [ [ [ [ [ [ [ [ [ [ [ [ [ [ ( A z D [ [ @     @X@X@X",
"@X@X@XQ Q Q Q Q Q Q Q Q Q Q Q Q Q Q Q Q Q Q Q Q Q W d l v @X@X@X",
"@X@X@XY R R R R R R R R R R R R R R R R R R R R R R R R S @X@X@X",
"@X@X@X@XT T T T T T T T T T T T T T T T T T T T T T T U @X@X@X@X",
"@X@X@X@XE E E E E E E E E E E E E E E E E E E E E E E @X@X@X@X@X",
"@X@X@X@X@X` ` ` ` ` ` ` ` ` ` ` ` ` ` ` ` ` ` ` ` ` _ @X@X@X@X@X",
"@X@X@X@X@X' 0.0.0.0.0.0.0.0.0.0.0.0.0.0.0.9.0.0.0.0.@X@X@X@X@X@X",
"@X@X@X@X@X@Xt.i.u.i.i.i.i.i.i.y.q.q.y.i.t.w.u.i.@X@X@X@X@X@X@X@X",
"@X@X@X@X@X@X@Xd.b.n.m.m.s.n.m.m.a.p.b.m.s.m.m.@X@X@X@X@X@X@X@X@X",
"@X@X@X@X@X@X@X@X@XV.Z.A.f.M.A.A.A.B.g.Z.C.@X@X@X@X@X@X@X@X@X@X@X",
"@X@X@X@X@X@X@X@X@X@X@X@XN.r.S.D.F.@X@X@X@X@X@X@X@X@X@X@X@X@X@X@X"
};
