/* XPM */
static char *_01cb31ba94147a1a0281de208155130sOPyIGFPIhghQwnQ[] = {
/* columns rows colors chars-per-pixel */
"22 64 141 2 ",
"   c None",
".  c #8E8C83",
"X  c #928E8D",
"o  c #919087",
"O  c #93938D",
"+  c #9C9A8F",
"@  c #959494",
"#  c #979893",
"$  c #9B9994",
"%  c #99959A",
"&  c #969A99",
"*  c #9E9E99",
"=  c #A29D9B",
"-  c #9CA091",
";  c #9BA399",
":  c #A4A296",
">  c #ABA39A",
",  c #A9A99D",
"<  c #A6A3A1",
"1  c #ABAEA6",
"2  c #ACAEAC",
"3  c #B3ABA5",
"4  c #B3ACAB",
"5  c #AEB3AD",
"6  c #ADB8AC",
"7  c #B3B6A6",
"8  c #BBB3A5",
"9  c #BBB9A6",
"0  c #B4B4AC",
"q  c #BBB5AD",
"w  c #B5BBAD",
"e  c #BBBBAD",
"r  c #AEAFB7",
"t  c #B4AFB1",
"y  c #BCACB1",
"u  c #ADB4B3",
"i  c #AEBAB3",
"p  c #AEB2BE",
"a  c #B4B5B3",
"s  c #BBB5B3",
"d  c #B4BBB3",
"f  c #BCBBB3",
"g  c #B3B6B8",
"h  c #BAB5BA",
"j  c #B5BCBA",
"k  c #BCBCBB",
"l  c #C0B7AE",
"z  c #C1BBAE",
"x  c #C2B4B3",
"c  c #C2BCB4",
"v  c #CBBCB7",
"b  c #C1B6B8",
"n  c #C2BCBB",
"m  c #CABDBC",
"M  c #B6C2A4",
"N  c #BCC1AD",
"B  c #B6C2B3",
"V  c #BCC2B5",
"C  c #B3C2BA",
"Z  c #BCC1BA",
"A  c #C1C1AF",
"S  c #C2C2B5",
"D  c #C3C2BB",
"F  c #CAC1BB",
"G  c #C7CCBF",
"H  c #D0C1B9",
"J  c #B6B6C0",
"K  c #BFB7C5",
"L  c #B2BCC0",
"P  c #BBBDC3",
"I  c #BABAC9",
"U  c #C4BDC3",
"Y  c #C9BFC2",
"T  c #B7C1C3",
"R  c #BDC2C1",
"E  c #B8C7C9",
"W  c #C3C3C3",
"Q  c #C9C4C5",
"!  c #C5C8C3",
"~  c #CBCBC6",
"^  c #C4C7C8",
"/  c #C6CAC9",
"(  c #CBCCCC",
")  c #CED1CE",
"_  c #CBDACC",
"`  c #D3D4CE",
"'  c #CDCED3",
"]  c #D2CDD4",
"[  c #CED2D3",
"{  c #CEDCD4",
"}  c #CFD5D9",
"|  c #CADADA",
" . c #D3D4D4",
".. c #D4D9D3",
"X. c #DCDAD3",
"o. c #D4D6D9",
"O. c #D6D7D9",
"+. c #D4D5DB",
"@. c #D6D5DA",
"#. c #D4D4D9",
"$. c #D5D5DC",
"%. c #D3D3D8",
"&. c #D8D5DC",
"*. c #D5D8DA",
"=. c #D6D9DB",
"-. c #D5DBDB",
";. c #D7DBDA",
":. c #D0DCDA",
">. c #D7DCDA",
",. c #D7D8DC",
"<. c #D5DBDC",
"1. c #D2DEDD",
"2. c #D5DCDE",
"3. c #D7DFDF",
"4. c #D8D8DA",
"5. c #D8DADB",
"6. c #DBDEDB",
"7. c #DCDCDA",
"8. c #DCDDDB",
"9. c #DBD8DE",
"0. c #DADCDD",
"q. c #DADEDC",
"w. c #D8DCDF",
"e. c #D8DDDF",
"r. c #DBDEDE",
"t. c #DCDEDE",
"y. c #D1E4DA",
"u. c #DDE0DE",
"i. c #E6E3DA",
"p. c #E4E2DE",
"a. c #D0D9E1",
"s. c #D4DBE0",
"d. c #D7DCE0",
"f. c #D9DBE0",
"g. c #DCD8E2",
"h. c #DADBE6",
"j. c #DED9E5",
"k. c #E5D7E4",
"l. c #E0DCE4",
"z. c #D7E2E0",
"x. c #D8E0E3",
/* pixels */
"                O.' ' ` [ [                 ",
"  D * ..4. .*. .[  .) %. .)  .[             ",
"' =.X. .*. . . .%.[  .[ } [ ( ] '           ",
" . .~ O. .o.` %.`  .O...O.} [  .' '         ",
": D D [ }  .[ [  .) [  .%...%. .( ( =.      ",
"    X k 1 k  .[ ]  .[ [ [ } @.@. .` [ Z     ",
"      W a = + ; * $ # % # # $ * 3 a ( t.    ",
"      d , O o . X @ @ @ & # X # @ O O O R   ",
"      d .   O   ' %...5.%.*.4 =             ",
"    Z 1 .         w.w.;.4.5. .              ",
"    W -             f 7.8.t.` W             ",
"    4 ,           f n ) ~  .~ ~             ",
"  W >             f n ' ( [ ~ !             ",
"( 1               k Z / W ( ~ Q             ",
"                    3 f ^ G E e             ",
"                  ( ..;.i.k.u.w.(           ",
"                ` w.9.g.x.8.w.l.h.>.        ",
"            ! ` &.w.j.1.y.w.s.d.w.a.2.      ",
"          ' ...._ } } | $.*.| X.i.{ ..o.[   ",
"        R j b d s V n U R D W T T S h c D R ",
"        h j p t 7 a k k L U j C f k k 0 i D ",
"        g a 0 y u h j j k L k j n f a h j n ",
"        h s a 0 4 0 k b k a n f f a h a d D ",
"        f a r 4 5 a w L e x Z q i f s s g V ",
"        d 5 5 t s 0 0 w d c k k I d f g a P ",
"        w x u 5 8 0 u s d z n j B e a g f k ",
"        a s 0 4 a a w e k f f k K d d a f c ",
"        s d 8 a u a 7 f f P k i U a f q f n ",
"        a d a u q e f f k x k v f n d h a c ",
"        x f 0 a 0 a 7 n f f Z f k k h 0 j n ",
"        j w u y q q f s n d j k d D e a k f ",
"        h d s 5 s d q f V c n S Z f V d f Z ",
"        s s 5 q s a f h Z f k D N k e k x R ",
"        f f w u 5 s s n c S D c C Z k w f U ",
"        e e 0 0 s f e c n m D C Y Z V x B S ",
"        f s a 0 9 h f D Z N W Z n Z k d c D ",
"        f a q e e w h f V Z Z D f c c P c Q ",
"        w 0 q a q f f f n V F D Z S n e v S ",
"        f w f q f w h f f B F Y m k x Z n S ",
"        f h q 0 q d f f k e D k D k S e f G ",
"        w j 9 q h f f f z V Z S Z R c e c Q ",
"        c u q h w s f f n v n Z m k f f k S ",
"        n j e q k f n k n f F D n n f n D W ",
"        f f e 0 q 8 k v n n D S c S N e c R ",
"        k k 0 8 f f f e S f m D B Z c n c V ",
"        R f s a s s f b Z c Z v S n k 9 f S ",
"        v c s d w f i n c f Z n W Z D f S Z ",
"        k e e q e N f e d S n Z Y k f e z D ",
"          n f s v s 9 V Z V n v F D n k W F ",
"          k d b f f c c D S S R k n c c V Q ",
"          P c e d c j e n f B k S D z k k V ",
"          V f f B x z f k Z V S V S k V n D ",
"          f k 9 B k f V c V S k ^ k V V D D ",
"          d k h 6 7 V D V D c V Z C f c Q n ",
"          P N c k e k e S V Z n Q N c S n F ",
"          c k k d f f B Z f B n n V V D C D ",
"          f k k V B S n V U V c Z Z n S S H ",
"          j d N f M f C k k f f c C c D V V ",
"          q d d f f k s d f Z f f f n V D Z ",
"          d k q f g d d k f e k k f d f V f ",
"          q f d h s e x d d i k f d n d Z n ",
"          7 f 0 0 q 9 e e i M e k w d x T   ",
"            : 6 e a h e e l e f f w w C     ",
"                  > 4 q 0 8 s a b 3         "
};
