/* XPM */
static char *result[] = {
/* columns rows colors chars-per-pixel */
"64 64 256 2 ",
"   c #020407",
".  c #03060A",
"X  c #04090D",
"o  c #09090D",
"O  c #020614",
"+  c #050C13",
"@  c #090B14",
"#  c #02061A",
"$  c #040B1C",
"%  c #0B0D1B",
"&  c #180B19",
"*  c #081317",
"=  c #04131C",
"-  c #0A121C",
";  c #17141C",
":  c #270C16",
">  c #370F16",
",  c #27121A",
"<  c #030324",
"1  c #040B22",
"2  c #0A0A25",
"3  c #02042C",
"4  c #0A042D",
"5  c #020B2C",
"6  c #16052A",
"7  c #031423",
"8  c #0A1423",
"9  c #021A25",
"0  c #0B1A25",
"q  c #03152B",
"w  c #0A142A",
"e  c #031A2C",
"r  c #0B1B2C",
"t  c #131423",
"y  c #151927",
"u  c #030434",
"i  c #0B0433",
"p  c #030B34",
"a  c #02043B",
"s  c #0C043B",
"d  c #08093A",
"f  c #130432",
"g  c #170739",
"h  c #031C32",
"j  c #061836",
"k  c #0A1B34",
"l  c #0B1C3B",
"z  c #161937",
"x  c #2C0529",
"c  c #390A2D",
"v  c #281928",
"b  c #280837",
"n  c #271737",
"m  c #371838",
"M  c #06222B",
"N  c #182429",
"B  c #092337",
"V  c #03223C",
"C  c #152536",
"Z  c #14313D",
"A  c #272834",
"S  c #372437",
"D  c #520D14",
"F  c #6E080F",
"G  c #760305",
"H  c #4E0F2F",
"J  c #73132D",
"K  c #4E2738",
"L  c #72323B",
"P  c #020544",
"I  c #0E0443",
"U  c #020B44",
"Y  c #02044D",
"T  c #030B4B",
"R  c #0C084A",
"E  c #110645",
"W  c #170946",
"Q  c #12064B",
"!  c #14094C",
"~  c #071846",
"^  c #1A1748",
"/  c #020454",
"(  c #030B54",
")  c #02035A",
"_  c #030A5B",
"`  c #0B0858",
"'  c #130654",
"]  c #150957",
"[  c #06165A",
"{  c #181856",
"}  c #271846",
"|  c #2D104D",
" . c #381A47",
".. c #271957",
"X. c #0C2343",
"o. c #082549",
"O. c #172847",
"+. c #163147",
"@. c #092856",
"#. c #172759",
"$. c #0A3459",
"%. c #143557",
"&. c #282848",
"*. c #382649",
"=. c #272558",
"-. c #382755",
";. c #2F3852",
":. c #383659",
">. c #010364",
",. c #040A67",
"<. c #170A62",
"1. c #1B0D6C",
"2. c #091867",
"3. c #191665",
"4. c #060C76",
"5. c #140776",
"6. c #061676",
"7. c #141973",
"8. c #251768",
"9. c #371D64",
"0. c #251776",
"q. c #0B2966",
"w. c #192868",
"e. c #093366",
"r. c #0F356F",
"t. c #162676",
"y. c #193779",
"u. c #2A2767",
"i. c #3A3567",
"p. c #242678",
"a. c #323071",
"s. c #511745",
"d. c #582345",
"f. c #4F2C52",
"g. c #67334D",
"h. c #6B2A5C",
"j. c #463968",
"k. c #4D3172",
"l. c #134650",
"z. c #354553",
"x. c #0E4876",
"c. c #33466F",
"v. c #6B435A",
"b. c #575660",
"n. c #4B4B70",
"m. c #694D75",
"M. c #4E6D78",
"N. c #810000",
"B. c #8A0000",
"V. c #940000",
"C. c #9E0000",
"Z. c #920609",
"A. c #850419",
"S. c #940418",
"D. c #A80000",
"F. c #A3070A",
"G. c #B10000",
"H. c #BA0000",
"J. c #B30509",
"K. c #A50A18",
"L. c #B70614",
"P. c #8A142B",
"I. c #AB1429",
"U. c #913134",
"Y. c #A3232C",
"T. c #C30000",
"R. c #CB0000",
"E. c #C4050D",
"W. c #D30000",
"Q. c #DB0000",
"!. c #D6040B",
"~. c #C60914",
"^. c #D90914",
"/. c #D6141E",
"(. c #E50000",
"). c #EC0000",
"_. c #E5050B",
"`. c #F30001",
"'. c #FD0000",
"]. c #F3080B",
"[. c #EB0811",
"{. c #CF1721",
"}. c #D12331",
"|. c #E72A2C",
" X c #9B335B",
".X c #C3354F",
"XX c #945172",
"oX c #060985",
"OX c #07118F",
"+X c #151D86",
"@X c #091A96",
"#X c #092587",
"$X c #172588",
"%X c #093B86",
"&X c #14378C",
"*X c #092798",
"=X c #172795",
"-X c #2B2F8B",
";X c #36378C",
":X c #373793",
">X c #0810AB",
",X c #0F2DAB",
"<X c #2839A7",
"1X c #2F36AA",
"2X c #453789",
"3X c #503797",
"4X c #71388D",
"5X c #4E39A3",
"6X c #673AA4",
"7X c #11478E",
"8X c #334C8E",
"9X c #28439A",
"0X c #1E6A9D",
"qX c #154CB3",
"wX c #3351A8",
"eX c #316BB2",
"rX c #4F4C92",
"tX c #634689",
"yX c #6B5293",
"uX c #536791",
"iX c #777294",
"pX c #4847A7",
"aX c #5547A6",
"sX c #5255B0",
"dX c #6C53AE",
"fX c #4A65AC",
"gX c #576BB3",
"hX c #6F6CAF",
"jX c #3D65C3",
"kX c #4C68C3",
"lX c #756EC3",
"zX c #A75B92",
"xX c #814EA7",
"cX c #8455A4",
"vX c #8C76B2",
"bX c #A664AF",
"nX c #CA688C",
"mX c #856EC6",
"MX c #118ABC",
"NX c #6092A5",
"BX c #7485B1",
"VX c #3697D3",
"CX c #4C91D0",
"ZX c #66A4D2",
"AX c #2FD3EE",
"SX c #67D7ED",
"DX c #948BAB",
"FX c #A39AAA",
"GX c #C9A2AA",
"HX c #9497CC",
"JX c #ABB0D0",
"KX c #A5A7E0",
"LX c #AACCDB",
"PX c #8EDFE3",
"IX c #B3CCE8",
"UX c #C1C0D7",
/* pixels */
"X X X X + X X X X             X X X o X     X o     o       N   o   X X * o o X X X ; + X X . O t O   O . . O % O . O O # A 8 O ",
"X X o o X X X X X X   X X X X X X     X X X o X o   X         o     X X * o X *   + t X . - + O @ O @ O O O O O t O $ @ # @ @ ;.",
"+ o + * ; * + . X X   . X X X * X + . + X + X X A X   X A     .     ; A z.* * * + - $ 8 1 $ $ # # O O + O O # # # $ < 2 2 w 2 < ",
"X + X * + X o X X   X X o X X X * + * + X + X X * X X     . X     o A X X * X N 0 8 0 r w 7 8 @ # % @ # + + # # # # O # $ # # # ",
"* N * * X X X . X . X @ * X * * * N * X + * N X X + o . X X X   X X X + * * * * r M +.r q 8 8 % $ + # O O # # # # # < # # $ # $ ",
"0 = t 8 7 $ + + * + + 0 + + * = C 8 - - = $ - $ + * o N X X .   z.. X X X * * 0 r q y r O.k q $ 1 $ # # # # # $ w # B # # # 1 1 ",
"B r e w w 8 7 2 0 w 8 1 8 e k k r w r r M 0 7 7 = 8 = NX+ $ X .   X O + * + * M 0 r k C B k O.k h # + # # z # = 1 # # # $ $ 1 M ",
"B C B k l k z j j l l ~ k C c.X.B l l l B k C k r B r C = + $ + * + + - 8 * * N w q k ~ l o.~ j k 5 1 # O $ $ $ $ $ $ # 1 # 1 $ ",
"O.V X.l l l d j l ~ o.o.o.o.@.n.Z ~ o.l NXiXk l j M.j r 7 7 % 7 $ $ 8 ;.8 % 8 2 = j j l ~ l l l j 1 $ 7 $ $ 1 1 $ 1 = l 1 5 5 p ",
"%.O.~ +.q 9 9 7 2 9 z.M z.k B V uXk k B k q j l l l k r e w @ % 0 = 8 8 8 $ 7 8 z.8 2 j k k q q 8 q 7 1 2 7 c.5 5 5 p a 5 [ ,.2.",
"X.X.e r e 9 = 9 9 = 9 = C r r 9 M r r r B r 7 8 9 M.8 8 % @ % & - - % % t 8 8 8 7 w 8 k w e 1 9 1 2 1 1 1 5 p ~ o.T T 4.2.,X4.6.",
"O.M 9 e 9 $ 7 7 = l.9 9 M r 0 M r e k w y 8 0 8 y y - & z.& o & & & & & ; ; ; y t w w 8 t & r q 8 +.% c.5 l ~ [ 2.,.[ 2.6.~ ,.p ",
"9 M e = B = 7 = 7 e e e 9 l.* M M r +.0 A v v ; z.t & & A : > : > L > , : , , > , ; - 8 & % % 1 1 2 n b o.q.2.~ 2.T ~ U p ~ p j ",
"M h h q h $ h 9 M 9 q e e C = M.0 r r z v F.> ; , , D F F C.C.J.J.W.R.F.F D D H.D , A @ t % 8 2 2 l } { 6.2.[ 6.~ 2.[ ~ q.p ( 2.",
"h M e h h 7 q h 9 q 9 7 9 9 - C = N 0 y ; > > D F F.J.E.!.Q.Q.(.).'.'.Q.R._.R.!.F > ; t : t w { 2.q.+X$XZX#X6.=X2.@Xq.( _ ~ x.p ",
"V X.V V e q q h e q 9 B 9 9 = N , , z.; , > U.F.!.(.).(.R.Q.R.Q.H.D G R.H.).'.).!.G > S J  ...7.7.$Xt.&X7.[ =X*X#X#XMXqX%X[ q.~ ",
"V V V V V e h e 7 q e 7 9 = 9 * D N , v D Z.J._.`.'.W.R.T.W.W.W.V.B.D.V.N.C.V.W.(.L.P.J L.J =.5.t.q.+X+X=X2.#X*X*X,X,X,X@X#X6.VX",
"+.X.V O.k O.h o.h q h q 9 M ; N ; , , Y.E._.].R.D.G.R.(.'.`.`.`.`.W.Q.H.W.).V.H.(.[.{.I.Y.d. .} =.} } PX=.wX0X2.AX7X@XZX*X,X>X,X",
"B %.B l X.B e e h q q 7 9 r N v S S P.L.!.T.Z.N.H.(.(.(.R.W.(.(.(.).(.'.`.`.Q.).`.Q.!.[.{.P.L K n.z f.;.^ ~ a.a.{ @X*X,XSXqXqX,X",
"r.e.e.x.8Xr.r.~ o.h j e h %.*.v.U.U.~._.).Q.`.).(.T.W.Q.Q.W.W.R.Q.W.(.(.).`.`.W.(.`.`.Q.{.I.|.> z S *.#.y O.%.w.2X6XaX9XqXMXqXqX",
"8Xc.w.r.$.0X%.u.@.@.$.e.l.;.S K J ~.].W.D.(.Q.H.R.`.).(.W.W.R.T.(.R.W.).(.`.(.(.W.(.`.).(.J F D uXS s.v ^ #.4X;X1XcXxXbXdXqX,XAX",
"X.B o.X.V $.o.x.%.e.o.e.r.S Y.J }.).(.T.Q.).W.R.H.Q.W.Q.W.R.H.H.`.Q.Q.'.R.Q.`.G.W.H.H.R.Q.!.Y.P.f.K XXf.PX{ xXuX3XcXxX1XjX1X*X@X",
"e M e ~ o.o.X.$.$.e.%.$.%.S H Z.Q.W.Q.).(.R.W.Q.(.W.R.T.T.D.D.T.`.Q.T.).G.(.`.W.R.T.H.G.R.'.E.K.J ! nXzXnX6XZXaXbXyXxXwXwX7X2.7X",
"x.l V V $.V o.o.%.%.SX$.%.&.L E.].T.).).R.R.T.R.T.R.H.G.G.D.G.).'.T.G.G.T.`.'.`.W.T.R.G.H.).)._.E..X0.-X4XzXm.SXdX:XIXlXeXeXr.r.",
"M e x.M o.o.o.@.x.$.o.B z v F E.(.H.).T.H.R.T.H.H.W.).W.(.Q.`.(.W.T.G.D.G.R.).`.Q.R.W.R.D.W.).W.]./.j.k.FX&XIXtX3X-XwXpXwX;Xp.[ ",
"A e q $.j SXr.$.x.VXx.+.C H ~.(.).'.(.T.R.H.T.Q.(.W.(.`.(.(.Q.R.D.D.D.H.T.R.`.Q.Q.W.Q.W.H.T.).C.].[. XuXa.-X#Xt.wX9X-XeX<X9X;Xy.",
"; M k V V V $.$.0Xe.$.O.A Z.).(.C.`.T.G.H.D.(.'.`.Q.`.).T.W.W.G.C.C.G.H.).'.(.).R.Q.T.).T.T.).C.J.[.Y.XXGXUX-X<X<X9X$XqX1XsXa.wX",
"t e B 9 B k x.@.$.x.$.C A L.`.G.G.).).Q.Q.(.).`.'.'.`.(.R.T.`.T.G.G.G.T.(.Q.H.(.W.T.H.W.R.Q.`.D.D.[..Xg.4XtX-X=X<X=Xq.t.>XjX1X1X",
"y h x.k o.x.x.$.x.7XCXx.j./.'.C.R.W.H.H.G.W.).`.`.`.(.(.T.R.R.(.Q.R.R.T.R.`.(.H.W.Q.(.W.(.`.`.(.(._.{.h. .^ t.pX2.;Xu.-X$Xt.<X<X",
"X.o.~ @.~ ~ @.7XPXVXeXeXm./.'.H.R.).Q.Q.W.Q.).`.'.'.`.`.W.R.T.G.T.W.(.R.W.T.`.(.H.T.(.(.Q.T.G.).Q.`.~.H ^ NX=.#.#.w.&Xr.p.t.7.1X",
"#.w.$.o.x.8X7XqXjXCXeXuXGX/.].W.`.H.G.H.(.(.Q.).'.'.'.'.(.W.W.T.G.H.H.(.Q.R.W.Q.C.(.W.D.W.Q.(.(.C.(._.J m 6 :.} u.t.w.CXp.<X,X,X",
"rX9Xr.e.e.x.%X0XeX7XwX8XnX).'.F H.(.R.H.D.H.Q.T.'.).`.).Q.`.Q.R.H.G.R.R.(.(.Q.Q.(.H.B.B.C.W.(.Q.T.Q.(.P.m n s.u.a.w.-X<X1X=XkX*X",
"rX0X9Xx.@.@.r.%X0X7X8Xi.L ^.`.D.T.`.Q.Q.T.T.Q.T.Q.`.Q.R.Q.'.).W.W.H.R.T.Q.`.`.(.R.C.B.B.G.T.W.).V.H._.P.m J  XO.NXw.8Xc.y.$X&XeX",
"8XpX0X9Xt.y.@.@.#.7X=.n.J |.).T.(.'.'.'.`.W.W.T.Q.W.).Q.).).Q.R.R.R.R.Q.W.T.'.(.W.V.B.B.V.H.`.).R.T.!.}.H H m n #.~ u.a.a.pX1XVX",
"wX9XfX9X%X7X&X$.#.x.} v D W.`.D.T.(.).W.R.T.T.T.H.H.R.Q.).).'.Q.(.W.W.Q.Q.T.W.W.R.V.B.D.V.D.R.).H.(.^. Xf.uXP.9.8.-XcXbXbXdXpXsX",
"fXwXfXfXwXwX8Xy...;.v v H E.'.N.C.).W.Q.Q.R.T.R.G.T.Q.Q.(.).(.'.W.(.W.Q.R.Q.(.(.(.W.R.H.D.G.R.).R.(.L.d. .| h...0.a.5X;XsXwXvXmX",
"eXfXZXfXBXfXwXa.ZXj.b.K H J.`.C.V.W.`.).R.W.Q.W.R.(.(.`.).(.).(.(.(.T.(.'.(.`.'.`.).W.(.Q.).T.Q.R.!.K.s.-.hX*.u.dXa.k.rXhXdXmXmX",
"JXHXHXHXKXFXiXiXm.v.v.L K I._.R.V.G.'.).R.W.R.(.T.W.Q.Q.).).(.(.).R.R.`.T.T.(.(.).(.).`.(.`.`.W.R.~.J m :.&.{ w.w.dX2XaX3XmXlXpX",
"LXIXLXLXLXJXFXDXb.iXL XXL Y.|.].H.H.).).W.Q.Q.(.W.W.T.T.Q.).).).W.T.W.R.R.H.W.W.Q.W.H.Q.W.`.(.W.).!.H  .} ..-.a.#.:.m.n.n.z.j.c.",
"BXHXgXlXhXgXDXGXv.K K g.L U.{.[.H.D.Q.`.Q.Q.).(.W.R.H.G.H.T.R.W.T.R.R.T.T.Q.Q.(.W.H.T.G.W.(.H.H.].~.d.-.z &.z &.&.*.;.=.z.&.-.:.",
"hXvXhXrXhXhXrXm.DXn f.f.K K P.^.(.V.G.Q.].W.Q.(.Q.R.G.C.C.V.C.C.D.D.R.T.).).`.(.W.T.H.G.(.G.G G._.P.m S A &.&.-.;.&.:.j.;.=.:.c.",
"rXhXyXdXrXtXyXj.f. .*.yX .f.s.~.].H.).R.(.(.Q.(.(.T.D.V.B.V.G.T.Q.'.W.Q.).`.).`.W.`.G.W.(.G G ).L.K  . .hX=.j.a.i.j.;Xk.n.2X2XiX",
"m.yXk.k.k.hXk.j...} ^ k.2XDXd.P._.`.G.R.H.(.(.).).T.C.B.B.D.T.G.R.Q.T.W.Q.).).Q.R.H.T.(.H.G !.^.U.f.-.=.=.=.yXyXtX3XdXdXxXlXlXbX",
"h.DXm.k.k.k.j.| ! W s W f.9.s.s.K.^.`.H.D.Q.(.W.'.(.R.V.V.D.T.D.D.W.).G.Q.W.W.D.H.H.(.Q.B.H.`.Y.h.k...rXu.k.4XzXdXdXdXdXsXlXmXmX",
"9.9.k.k.9.9.9.8.W ^ W E W | K.s.L.L.].(.B.G.(.R.R.W.W.W.H.G.H.R.H.G.W.R.H.T.H.D.T.).T.B.H.].L. Xk.f.8.=.0.2XxX.XdXdXsXaXpXdX5X5X",
"p.0.1.1.1.8.1.1.<.] ! ] W ' | s.s.s.P.].].W.(.).).W.W.(.R.H.H.H.R.T.G.W.T.W.T.W.(.T.C.R.!.Y.K yX .{ ] { 3.0.yXcXhXpX5X5X1X5X-X7.",
"0.0.8.0.1.1.1.1.1.] <.] ' ' W ] ] s.H J L.^.W.Q.).).`.(.W.R.R.T.H.T.H.H.W.W.(.W.H.B.Q.!.P.s.s.-...&.^ { { -X2XaXdX5X:X:X;X+XSXoX",
"0.0.-X0.1...0.<.8.<.] E W E s E Q ] | b H S.L.^.W.C.T.Q.(.(.(.(.(.R.).).).H.'.G.R.].^.J L.H | g ;.hX^ ` ..3.a.;X3X:X:X-X7.5.5.>X",
"3X0.0.0.0.UX0.<.<.' Q ! Q Q W E W W g -.b c J S._.].W.H.H.T.T.R.(.(.(.T.T.G.W._.!.S.f.n x b rXg P d E ~ R { w.7.p.3.7.+X4.4.OXOX",
"1.0.1.1.0.1.` <.] 8.' ' Q Q Q Q ! ! W b g g b H S.F.L.!.Q._.(.Q.(.Q._.!.L.L.L.S.H b b tXz i i ~ a U d R R 8X_ _ oX5.oX4.,.,.@X>X",
"' 5.UX1.<.<.<.<.<.0.' a.] Q ..Q Q Q Q E W E b b b c D A.S.F.L.E.E.E.L.A.D H c 6 j.f d g g I #.I P s P ~ ` ,.4.>./ 4.4.$X4.4.>XOX",
"] ' ' ' ' ] <.] <.] ] ' R Q ' Q E E E E g W W f 6 f b b x x x c c H x FX .x 6 6 } 4 4 { d JXp a P U R ] ( / ,.,.,.,.<X4.eX/ >XkX",
"Q Q ' Q E E R ' ' ' ] ' 1.Q Q E E E E s E b c f f f 6 6 g g  .6 6 6 x x F b 6 < 2 i =.p p P U ~ T P ] ` [ R ` ` _ >.pX<.) 4.OX>X",
"I s E Q a.i.9.E Q Q Q Q ! E I E E Q I E g c S.b f f 4 f g 6 6 4 4 < < & x 6 j.$ < < 5 u ~ T T T U ( P ( 3.T Y [ R / ,.) fX>.>XoX",
"s s s g E s a.W R Q ! Q I E s E E s s i | g f f j.u i i x 6 i 4 f 2 4 6 JX< BX5 3 2 3 p u.c.U BXwX( ~ T T P P U Y 2.,.` ,.oXOX,.",
"s ;Xs E Q Q ! <.Q Q Q ] E E E I I s s s i i f s f i 4 g 4 i i 4 4 6 # # < 2 z n.p u ~ p U BXc.T ~ [ T ( ( ` t.p.) ) ( >.#X,.4.-X",
"s I I s I s I Q Q ' ' ! Q I I s s i i i i i 6 6 f i i 4 4 4 4 3 3 # < < < I < # 3 3 p 8Xu 5 a c.T 7.( / 2.( gX+X) ] 5.>.,.4.+X>.",
"s i 4 u s tXs I ! Q R Q Q E s s s s s i 4 i 4 H x g 4 4 i s a.< 4 3 2 2.3 p < 3 p p 3 a a u p U T ` [ ,.,.4.,.7._ T ) Y / / >.>.",
"< 4 i i i f I I E I E Q E s s s i i i i 4 4 4 f 4 i i i 3 4 < 4 i.d 5 # 3 fX1 < 3 p u p a u p P ( _ >.wX` / ) ,.P sXP Y Y / R t.",
"< 4 4 i s i i I I E E E E I s f i i i i.f rX4 4 4 4 3 i 4 u 3 3 # 3 3 u P 3 uXu 3 3 $ sX3 8X{ T _ _ Y Y ` / P ) ) / / y.P / Y ) ",
"i s < 4 i i i s s I s ! I s i s i 4 4 # < W i i 4 i 4 4 d 4 u u u 3 u < 3 u u a u u u BXIX( Y ( ( Y U T Y Y Y ) / / / / >./ / / ",
"4 4 4 i 4 4 4 i g d E 4 s i ^ i 4 s 4 i i 4 4 4 4 i i u 3 u p a u a u 1 P a P u a u a P _ ,.3.6.Y T ) ` / Y / [ / Y Y Y / ) >.) ",
"4 4 4 4 i 4 4 i u i 0.I i s i i i 4 i i i u 4 i s s u u i u p a u 3 u 3 P a u 9XP ` p / ( / ) _ / 4.>.>.Y / ) ) ) / ) _ ) >.) ) ",
"< 4 i 4 s Q 4 s g d s g i s i s i i i i P 4 i i i u i R Y a a a u u a u s I ZX~ 8XP Y Y >.) >./ gXlX) / / 4./ ) ) >.) ) >.>.KX>."
};
