/* XPM */
static char *result[] = {
/* columns rows colors chars-per-pixel */
"64 64 256 2 ",
"   c #040304",
".  c #03060A",
"X  c #04090D",
"o  c #09090D",
"O  c #100000",
"+  c #180000",
"@  c #020614",
"#  c #050C13",
"$  c #090C14",
"%  c #02061A",
"&  c #040B1C",
"*  c #0B0E1B",
"=  c #160C1A",
"-  c #081317",
";  c #04131C",
":  c #0A121C",
">  c #13131C",
",  c #19161C",
"<  c #200000",
"1  c #290000",
"2  c #320000",
"3  c #3B0000",
"4  c #300D16",
"5  c #271219",
"6  c #030324",
"7  c #030B22",
"8  c #0A0826",
"9  c #02042C",
"0  c #0A042D",
"q  c #020B2C",
"w  c #160629",
"e  c #031323",
"r  c #0A1423",
"t  c #021A25",
"y  c #0A1A25",
"u  c #04152B",
"i  c #0A142A",
"p  c #031A2C",
"a  c #0B1B2C",
"s  c #151927",
"d  c #030434",
"f  c #0B0433",
"g  c #030B34",
"h  c #02043B",
"j  c #0D043B",
"k  c #08093A",
"l  c #160738",
"z  c #061736",
"x  c #031C32",
"c  c #0B1C34",
"v  c #0B1C3B",
"b  c #161937",
"n  c #320A2A",
"m  c #251726",
"M  c #280A37",
"N  c #271938",
"B  c #371637",
"V  c #06222B",
"C  c #182529",
"Z  c #092337",
"A  c #03223C",
"S  c #162536",
"D  c #14323E",
"F  c #282834",
"G  c #38233A",
"H  c #450000",
"J  c #4E0000",
"K  c #580000",
"L  c #510F17",
"P  c #620000",
"I  c #6C0000",
"U  c #770000",
"Y  c #7C0205",
"T  c #730A15",
"R  c #4B122C",
"E  c #6E122E",
"W  c #4A2838",
"Q  c #722F39",
"!  c #020543",
"~  c #0D0443",
"^  c #02044D",
"/  c #030B4B",
"(  c #080948",
")  c #110645",
"_  c #130943",
"`  c #1B0B44",
"'  c #11064B",
"]  c #14094C",
"[  c #071847",
"{  c #191747",
"}  c #020454",
"|  c #030B54",
" . c #02035A",
".. c #030A5B",
"X. c #0B0858",
"o. c #150856",
"O. c #06175A",
"+. c #181956",
"@. c #271646",
"#. c #2D104C",
"$. c #361A47",
"%. c #271859",
"&. c #0C2343",
"*. c #082549",
"=. c #172947",
"-. c #092956",
";. c #192759",
":. c #0A3459",
">. c #153350",
",. c #27294A",
"<. c #37244B",
"1. c #272658",
"2. c #382755",
"3. c #2E3951",
"4. c #383958",
"5. c #010364",
"6. c #040A67",
"7. c #170A62",
"8. c #1B0D6C",
"9. c #091767",
"0. c #191765",
"q. c #060C76",
"w. c #140776",
"e. c #061575",
"r. c #151A73",
"t. c #241669",
"y. c #371D64",
"u. c #251776",
"i. c #0B2866",
"p. c #192768",
"a. c #093366",
"s. c #12336E",
"d. c #162677",
"f. c #083C78",
"g. c #183678",
"h. c #2B2867",
"j. c #393568",
"k. c #272677",
"l. c #323071",
"z. c #4A1745",
"x. c #4F2A4D",
"c. c #652B4B",
"v. c #4E326A",
"b. c #483A79",
"n. c #6D3C6D",
"m. c #134650",
"M. c #334450",
"N. c #0E4776",
"B. c #33476E",
"V. c #4A444D",
"C. c #6A435A",
"Z. c #4D4D70",
"A. c #694E77",
"S. c #5D6872",
"D. c #810000",
"F. c #8A0000",
"G. c #83070D",
"H. c #940000",
"J. c #9E0000",
"K. c #94060B",
"L. c #8B0A1B",
"P. c #930716",
"I. c #A80000",
"U. c #A1070A",
"Y. c #B10001",
"T. c #B80204",
"R. c #A70A17",
"E. c #B60615",
"W. c #970E2A",
"Q. c #AB1124",
"!. c #89303A",
"~. c #B62A35",
"^. c #C30101",
"/. c #CB0001",
"(. c #C6050D",
"). c #D20101",
"_. c #DC0001",
"`. c #D5050B",
"'. c #CA0916",
"]. c #D10E17",
"[. c #E40101",
"{. c #ED0001",
"}. c #E4040B",
"|. c #F30203",
" X c #FD0000",
".X c #F20309",
"XX c #E01B1D",
"oX c #CD1328",
"OX c #E32527",
"+X c #89274C",
"@X c #8F2256",
"#X c #AD3651",
"$X c #CF374C",
"%X c #90536F",
"&X c #CE6362",
"*X c #060985",
"=X c #0B178E",
"-X c #092488",
";X c #133489",
":X c #092798",
">X c #172794",
",X c #382A84",
"<X c #2B328D",
"1X c #373793",
"2X c #0810AB",
"3X c #0F2DAB",
"4X c #2839A7",
"5X c #2F36AA",
"6X c #443789",
"7X c #4E3896",
"8X c #70388E",
"9X c #4E39A3",
"0X c #673AA4",
"qX c #15498F",
"wX c #284499",
"eX c #354D91",
"rX c #1E6A9D",
"tX c #1349B4",
"yX c #3351A7",
"uX c #326BB1",
"iX c #504B91",
"pX c #674F91",
"aX c #516E91",
"sX c #757490",
"dX c #514FAC",
"fX c #6755A6",
"gX c #7053B3",
"hX c #4E66AE",
"jX c #706DAE",
"kX c #3D65C3",
"lX c #4C68C3",
"zX c #756EC3",
"xX c #AC5F8A",
"cX c #8454A4",
"vX c #896FB3",
"bX c #A664AF",
"nX c #CA6390",
"mX c #856EC6",
"MX c #118ABC",
"NX c #65959D",
"BX c #568CBA",
"VX c #7485B1",
"CX c #3697D3",
"ZX c #60A0D1",
"AX c #2FD3EE",
"SX c #67D7ED",
"DX c #938DAD",
"FX c #A894A8",
"GX c #ADADB7",
"HX c #9497CC",
"JX c #AAB1D1",
"KX c #A5A7E0",
"LX c #C5B8C9",
"PX c #84CCCA",
"IX c #AACBDA",
"UX c #B3CCE8",
/* pixels */
"X X X X X X . X X .   . X     X X X X . .   X   .   o   X   C o     X X - X X X X X > o o X o @ > @ . @ . . @ : @ . # @ & F r @ ",
"X X o o X - X . X .   X X X X X X   . X X . X X X X . .       o     X X , X X o . $ y X @ - @ # $ @ $ @ @ @ @ @ s @ @ @ % & # 4.",
"# X # - > - # X X . . . X X X - - X X X X - . X M.X . . C o   .   . , F M.X - - - - e r * * & @ @ @ @ @ @ % @ % % % 8 8 8 i * % ",
"X X - $ # X o . . . . X X . X - # # - - - X . X X X X     X X . X X C # o - - C : r i i u 7 e & & : * @ @ @ & @ % % @ % 7 % % % ",
"- C - $ # X X X X X X # - X - - - C # X # - C X   X o o X . X   X # X X - - - - y V =.a u u r * & & % @ @ % & % % % & % % & % & ",
"y ; r r r # # # - # # s X - ; - S r ; : t * - & X - o C # X X   M.X X X - - - y a p C a =.i u e & & % % % % % & i % Z % % % 7 7 ",
"Z a p u u i ; 8 y i r 7 r e c c i a p a V r e e ; y ; NX# & X . . X @ # - # - V y u a S S v =.a x % & % @ b * 7 7 & % % & % 7 a ",
"S Z S c v c b z z c v [ z &.B.S S v v &.c c S c x c a S ; @ & # - X # * y ; # C c i z [ z *.[ z i u 7 % % % & & & & % 6 7 % 7 * ",
"=.Z v Z [ v z z v [ *.-.&.*.*.Z.S &.*.v NXsXc v v S.m s r e & ; & * 7 3.r & r * 7 i z v &.v z z z 7 & e & * 7 7 7 % e v 7 8 q g ",
">.=.[ >.e e e e r t M.p M.Z Z &.aXc v c v u c v v b P.n s r $ # y ; r r r * r r M.u i z z i z z r u e 7 7 e B.q q q g ! q O.6.9.",
"&.&.p a p t e t e t t ; C V p t V c a p Z a e r y S.m s = * = = * * - * r r r r r i i i u p r u 7 i 7 7 7 q g [ *./ | 6.9.tXe.e.",
"&.Z p t t ; e ; ; m.e t V p y a a p a s p e i r a m = $ V.5 = = = 5 = * , r , y r i i u r & a 7 r =.* B.q [ [ O.9.6.O.9.6./ 6.g ",
"t V p ; S ; e e e p p p p M.; V V a =.p c a C , V.w , 5 F 4 4 4 L Q 5 5 > , , $ , r : r : & 5 w * 8 z [ [ i.9.[ 9./ / z k / g [ ",
"V x x p x & u t V e p p p S ; S.a y a b C , 5 5 5 L T H.U.^.^.)././.K.G.G.L 4 = m , F o : = L T w v [ O.-Xi.O.e.[ 9.O.O.-.g O.O.",
"x V p x x e e A e p t e t ; t C t a s s > 5 5 L E.).).{.{.{.{.|.{.{.).).^.(.Y.K.L 5 = : r s m @.+.p.-X>XZX-Xe.>X9.=X9.O.O./ N.g ",
"A &.A A x u u u p p t Z p t t V - , V.4 4 L oX_.{. X X{.{././.Y.^.).I.I./.^._.}.).K.4 G N +.+.u.r.>X-X;Xr.O.>X-X-X:XMXrX-X-.9.[ ",
"A A A A A x x x e u x u t ; ; - , , 5 L U.}.{. X|._.^.).[.[.T.F.F.I.H.U H.D.T._.{.}.R.E B 2.p.r.r.-.>X=X>X9.-X:X:X3X3X3X-X-X=XCX",
"*.&.&.*.V &.Z [ x u p u ; V , C , m L ]. X X X[.^.I.F.F.I I U K K P P P P P H.Y._.}..X].Q.z.$.N 1.@.=.IX;.yXrX9.AXqX=XZX:X3X3X2X",
"Z >.Z z =.Z p p x p u e t V C m G W L.]. X{./.U.D.P K K P K J I P J H 3 H H K H./.^./..X X].Q <.Z.b x.3.{ [ l.l.+.=X:X3XSXtXtX3X",
"N.a.a.B.rXa.s.[ [ x z x z >.4.C.!.~.}.{.{.^.H.Y J J J P D.H H I I J H U H.P K P F.I.^. X X.X&Xm s G x.,.F Z h.p.6X0XfX4XtXMXtXtX",
"eXB.s.s.;.rX;.s.*.-.a.a.s.>.,.W E '.|./.{._.F.P 3 3 I H H 3 3 3 + 3 3 H I I H.P P Y Y.{.{.}.P.L A.W x.M { ;.8X<X4XcXgXbXgXtX3XAX",
"A v &.[ Z *.-.N.:.:.*.:.m.=.M.W XX{.{.)./.I.U H 3 1 3 J 3 1 < < 2 2 H 3 H J D.K K P D._./.J.'.E E W %Xz.PX+.cXaX7XcXcX9XkXtX:X=X",
"V x x &.*.*.A >.:.a.:.:.;.>.s 4 K.[.^.[.I.K P P J 1 1 3 2 1 1 1 3 1 H H J J 2 1 3 H P I.Y.F.H.'.Q.#.nXxXnX0XZXiXbXpXgX5XyXqX9.qX",
"B.z v A :.A *.*.a.N.PX:.>.,.C.L T Y Y U P J I P P H 2 1 < < 2 3 H < 2 < J K I K P K P F.D.Y I.|.}.$Xt.,X8XnXpXSXfX7XUXvXuXuXs.f.",
"V V N.x *.[ *.*.qX*.*.D Z m G.^.U.F.U H J K P 2 K U H H 2 < 2 3 2 2 < 2 J U D.P K U K F.U I _.[..XOX2.j.GXg.IX8X7X<XyXdXyX6Xk.O.",
"S V p :.z SXN.:.f.CXN.>.S R (.`./.).K 3 J J H H K P J 3 3 2 1 3 3 3 J + < U I P J J P D.I K _._..XoX@XaXk.<X-X;XwX4X4XuX;XwX1Xg.",
": V x x A A >.:.rXa.:.Z N P.}.|./.F.H 1 2 H H P I K 3 H 1 2 + J H 3 + + H H < H J 3 J F.K U I.^.'.oX@XxXGXLX<X4X4XyX-XtX5XkX,XwX",
"s a Z V Z [ N.-.m.N.:.S C E.|.|.).F.H K J H J P K P 1 3 1 1 < 3 < < + + 2 1 O 1 H H 2 3 J F.D.Y.K.'.$Xc.8X8X;X>X1X;Xd.r.>XkX4X5X",
"s z N.a *.N.N.-.N.qXCXqXj.oX.X[.^.I.J K J J K K J H J I J 1 1 1 1 < < < O 1 2 1 2 3 3 3 J F.U J.J.`.~.n.$.@.d.iXi.1Xh.<X>Xr.4X4X",
"&.*.[ i.[ z -.g.GXCXuXuXS.oX.X). XF.U K K K J H 2 H 2 3 U 3 < 1 2 1 < 1 < O < H + + + 3 I D.F.I.Y.(.(.B ` BX1.;.+.p.;X;Xk.r.r.5X",
";.;.:.*.qXqXN.rXiXBXhXaXGX~.OXD.I.U F.P J H 3 3 J J 3 3 H K 1 2 < H 2 1 3 1 + < < + 3 2 3 J K Y ^.[.(.E N b 1.=.h.d.p.BXk.4X3X3X",
"iXwXf.i.a.N.;XuXyXqXrX1XFXoX].U P D.I J 3 H J K J H 3 H 2 P 3 1 2 H J H 3 2 <   H 3     1 3 3 K J.[.`.E B S +.d.l.p.<X4X5X>XlX:X",
"dXqXyXg.-.[ f.;XrXqXeXl.Q R.`.U J P P J J J H H 3 2 J I H H K 2 1 2 3 3 1 + O + P 2   + P K 3 J J./.(.E N b aX*.ZX;.eXB.;X;X;XyX",
"eXiXrXqXs.qX*.*.;.qXh.B.E $X}.F.K J U J J H H 1 1 1 H I U P I H 3 3 2 + + + + 3 P <   + 3 I K I Y.[.}.#X$.{ { [ =.[ 1.,Xj.dXyXCX",
"yXyXuXwX;XqXqX-.-.N.=.m L P.`.G.K H U 3 1 1 1 1 1 1 3 P D.U P K H 2 2 3 H H 3 K J O     < I.J.J.).|.].+Xx.aXk.k.t.,XjXbXbXgXdXdX",
"hXrXhXhXyXyXeX;X%.,.m F m U.(.Y K K F.H < + O O O < 3 P P 3 K H J H K P K J I P 2 +       < K Y.).{.'.c.$.$.h.0.r.k.9X,XdXyXvXmX",
"yXhXZXhXjXhXiXl.ZXZ.Z.W L T E.T P I U J P 3 2 1 < + 3 H I I P H 3 O + + 2 P K 1 + O   O     J )./.}.W.z.2.jX<.0.fXb.b.iXgXdXmXmX",
"JXHXHXHXJXHXjXsXA.C.C.Q W Q Q.U.U D.I 3 H 2 1 2 3 H P U U K K I P J < < 3 3 < O O O O H +   I |.{.}.L.B 4.,.=.;.h.fX6XfXiXmXmXdX",
"IXIXIXIXIXJXFXDXS.S.Q sXQ !.&XoXI U D.J 3 H H 1 2 3 J P J I J 1 3 D.H 1 1 3 3 2 2 J 3 2 O O U |.{.'.E $.@.1.1.<X+.2.Z.Z.Z.M.4.B.",
"VXHXjXzXjXaXDXFX%XQ W Q Q Q ~.oXJ.|.I K H 3 H H J J I I U U I J I K I 2 1 3 H H H J P J 2 K /.).`.W.x.<.N N N ,.,.3.3.,.j.,.2.j.",
"hXDXjXdXjXjXZ.A.DXN x.x.W x.E Q.'.D.K 3 J J H K K P K 3 P P U U P U P P 1 1 3 H H J P H.F._.{.{.].E B N =.F <.,.,.,.2.v.3.1.4.B.",
"iXjXpXpXpXiXpXv.x.$.2.pXB v.z.W.'.T.P 3 2 J J I 3 3 3 3 K J 2 1 H I I P P 3 H 3 3 H P H._.{.[.{.Q.W G <.sX;.v.j.l.v.6Xb.Z.1Xb.jX",
"8XpXv.6XZ.jXn.y.%.` l b.Z.DXv.z.Q.oXG.K H 3 K I J J K I P + + + 2 H P I U K J 2 3 H K I.{.I..X'.+Xx.2.1.h.h.fXfXpXiXfXgXmXzXgXKX",
"n.DXn.v.v.v.v.%.{ ] _ _ h.%.%.#.E W.W.Y I P U U {.U U P J + 2 2 3 3 D.U F.I H H H J F.[.{.[.oX+Xv.j.%.iXy.,XfXcXgXgXdXgXdXgXgXbX",
"y.y.v.v.y.y.y.8.o.{ ) ' ] ` %.%.#.z.#X'.I.^.I.F.Y D.D.K J < 3 I P 3 3 U P I 2 3 P I./._.{.}.W.n.n.v.%.%.k.6XgXvXgXgXdXdX9XgX1X0X",
",Xu.8.8.w.u.8.8.7.o.] o.' ' o.o.#.#.W.'.|.{.{./.I.U U P H 2 2 H 2 1 1 2 H K J J F.^.^._.].Q.c.pX$.+.] +.o.>XfXcXzX9X9X7X5X9X<Xr.",
"8.u.8.u.8.t.8.8.8.o.o.o.o.] ' o.` y.B R.}..X_._./.Y.H.P J J 2 1 3 < < 2 J U ^./.J.I.(.E.W.z.$.<.$.@.@.%.t.l.6XiXdXiX1X1X1Xr.SX*X",
"u.u.,Xu.8.t.t.7.t.t.o.' _ _ j ) ' ` ` M E E._.|._.^.T.F.F.D.P P P P I H.J.T.J.J.[.oX+XR @.#.N M x.xX{ ] #.8.k.eX9X1X5X1Xr.w.q.2X",
"9Xu.8.u.u.UXu.7.7.' ) ] ] ] ) ` ` l l z.M R R.`.`.{._.I.^.H.U D.I.^.T.I.).{.[.E.(.E v.l l j iXl E L.` _ ) +.p.r.k.0.r.=Xq.e.*X2X",
"8.u.8.u.u.t.' 7.7.t.o.o.' ' ' ' o.` ] l M ` M R L.E.(.`.[.(.K.I.^.[.^.}.{.{.E.T n M w iXb k i l d j l ( ( eX.. .*X*Xq.q.6.6.3X*X",
"o.w.LXw.7.7.7.8.7.u.' k.o.' 7.] ' ] ] ) ) l ` M n n L T P.G.L.E.E.(.R.P.P.T B M v.j k l ) k ;.( ( j ! / X.6.q.5.} q.q.>Xq.q.2X*X",
"o.o.o.' ' o.7.o.o.7.o.o.' ' ' ] ) ) ) ) ) ` l M w M #.M w n n n n B n GX$.w 8 w ,.8 0 +.j JXg j k / ( o.| } 6.6.6.5.4Xq.uX .2XlX",
"' ' ' ' ) ) ' ' o.o.o.o.t.' ' ) ) ) ) j j ) l f f l w w l l #.w w w w w w M 8 w 6 f 1.d k h ( / ! ! o.X.O.( ..X.6.5.dX7. .q.*X2X",
"~ j ) ) h.b.t.~ ~ ' ' ' ' ) ~ ) _ ' ~ ) j j j f f 0 0 f f l 0 w w 8 8 = 8 0 4.8 6 6 d g [ ! [ / [ | / / 0.^ ^ O.( } 5. .hX5.3X*X",
"h ~ j ) ) j l.' ' ' o.' ' j j ) ~ j j f %.j j f j.j f 0 j f 0 0 l 8 0 8 JX6 VXq 9 8 9 g l.B./ VXyX[ / / / ( ( ( ^ 9.9.} 5.*X*Xq.",
"j ,Xj _ ' ' ] %.' ' ' ' ) ) _ ) ~ j j j 0 f f j f f 0 l 0 0 0 f 0 8 % 6 7 8 b Z.g 9 [ g h BXB.^ / O./ ..X.| d.p.X. .| 5.=X5.q.<X",
"j ~ j j ~ f ~ ) ' ' ' ] ' ( ) j j f j f f f 0 f j 0 0 0 0 9 0 9 0 % 6 8 6 ~ 7 % 9 9 q eXd 9 h B./ 9.|  .9...jX=X .X.w.5.6.q.>X .",
"j f f j j pX~ j o.' ' ' ' ~ j j j j f 0 0 f f 0 f _ 0 0 j ~ h.6 0 6 8 9.9 g 6 9 d g d g g d q [ | X.9.6.6.6.6.r. ./  .^ } } 5. .",
"6 0 d 0 f f ~ ~ ) ~ ' ' ) ~ j j j f j f 0 9 9 j 0 f j 0 8 f 6 0 j.k 6 % 9 dX6 6 9 g h g ! d h ! | ..6.eX.. . .6.! hX! ^ ^ } ^ d.",
"6 0 0 f f l j j j ) ~ ) ~ ) l f 0 0 f j.f pX0 f 0 0 9 d f 9 0 9 6 9 9 d ! 9 aX9 q 9 7 dX9 eX{ } ..../ ^  .} !  . . .} k.^ } ^  .",
"f j 6 0 f f j j j ( l ] j j j j f 0 0 % 6 ` f 0 9 f f 0 k 0 9 d d 9 d 6 9 9 d h d d 9 VXUX .| ..| ^ ( / ^ ^ ^  . .} } }  .} } } ",
"0 0 0 f 0 0 0 f j j ~ 0 j j ` 0 f f 0 f j 9 f 0 0 0 d d d d g h d h d 7 / h h k h d h ! O...r.6.^ ^  .| } ^ } O.} ^ ^ ^ }  .5. .",
"0 0 0 0 d 0 0 f f k u.j f j f f f 0 f f 9 f d j f f f f f d g h d 9 d 9 ! h d wX! X.g } } } ....} q.5.5.^ }  . .} }  ... .5. . .",
"6 0 f 0 j ] 0 f l j l j f j k j f 0 j d ~ 0 f f f f f ^ ^ h h d h d h d j ' ZX[ eX! ^ ^ 5. .5.X.hXzX .^ } q.}  . .5. . .5.5.KX5."
};
