/* XPM */
static char *result[] = {
/* columns rows colors chars-per-pixel */
"64 64 256 2 ",
"   c #030305",
".  c #03060A",
"X  c #04090D",
"o  c #09090D",
"O  c #100000",
"+  c #180000",
"@  c #020614",
"#  c #050C13",
"$  c #090B14",
"%  c #02061A",
"&  c #040B1C",
"*  c #0A0E1B",
"=  c #160C18",
"-  c #071317",
";  c #04131C",
":  c #0A121C",
">  c #12131C",
",  c #19161D",
"<  c #200000",
"1  c #290000",
"2  c #320000",
"3  c #3B0000",
"4  c #2A0E16",
"5  c #281119",
"6  c #030324",
"7  c #040B22",
"8  c #0A0826",
"9  c #02042C",
"0  c #0A042D",
"q  c #020A2C",
"w  c #14062B",
"e  c #031323",
"r  c #0A1423",
"t  c #021A25",
"y  c #0A1A25",
"u  c #04152B",
"i  c #0A142A",
"p  c #031A2C",
"a  c #0B1B2C",
"s  c #151926",
"d  c #030434",
"f  c #0B0433",
"g  c #030B34",
"h  c #02043B",
"j  c #0D043B",
"k  c #080939",
"l  c #150738",
"z  c #061737",
"x  c #031C32",
"c  c #0B1B34",
"v  c #0B1C3B",
"b  c #161937",
"n  c #39052B",
"m  c #2C1029",
"M  c #260838",
"N  c #370837",
"B  c #261A37",
"V  c #391736",
"C  c #06222B",
"Z  c #182429",
"A  c #092337",
"S  c #03223C",
"D  c #132435",
"F  c #14323E",
"G  c #2F2833",
"H  c #29263B",
"J  c #450000",
"K  c #4E0000",
"L  c #580000",
"P  c #5A0B0E",
"I  c #580D16",
"U  c #4F111B",
"Y  c #620000",
"T  c #6C0000",
"R  c #6A0B0E",
"E  c #770000",
"W  c #77060A",
"Q  c #790A1A",
"!  c #50122D",
"~  c #6F102F",
"^  c #532737",
"/  c #722A37",
"(  c #030544",
")  c #0E0442",
"_  c #02044D",
"`  c #030B4C",
"'  c #090848",
"]  c #110644",
"[  c #190846",
"{  c #12064B",
"}  c #14094C",
"|  c #071847",
" . c #1A1748",
".. c #020454",
"X. c #030B54",
"o. c #0B0957",
"O. c #02035A",
"+. c #030A5B",
"@. c #160757",
"#. c #06175A",
"$. c #181957",
"%. c #240947",
"&. c #2A1646",
"*. c #371A46",
"=. c #291957",
"-. c #341353",
";. c #0C2343",
":. c #082549",
">. c #172847",
",. c #092856",
"<. c #172A52",
"1. c #0A3459",
"2. c #143659",
"3. c #282849",
"4. c #34284C",
"5. c #262857",
"6. c #362558",
"7. c #2D3752",
"8. c #39385A",
"9. c #010364",
"0. c #040A67",
"q. c #170963",
"w. c #1B0D6B",
"e. c #091866",
"r. c #181565",
"t. c #060C76",
"y. c #140776",
"u. c #061575",
"i. c #161A75",
"p. c #271668",
"a. c #341B68",
"s. c #251776",
"d. c #0B2967",
"f. c #192869",
"g. c #093366",
"h. c #172576",
"j. c #0F3471",
"k. c #193779",
"l. c #292869",
"z. c #392466",
"x. c #383567",
"c. c #272678",
"v. c #303373",
"b. c #471849",
"n. c #592446",
"m. c #4C2C50",
"M. c #6D314C",
"N. c #453968",
"B. c #573469",
"V. c #4E3172",
"C. c #652F71",
"Z. c #134650",
"A. c #354553",
"S. c #0E4876",
"D. c #34466F",
"F. c #5D4B58",
"G. c #4F4B70",
"H. c #6A4C76",
"J. c #526D7A",
"K. c #810000",
"L. c #8A0000",
"P. c #860B0E",
"I. c #940101",
"U. c #9E0000",
"Y. c #93060A",
"T. c #86061B",
"R. c #970718",
"E. c #91121A",
"W. c #A90001",
"Q. c #A3080B",
"!. c #B10101",
"~. c #B70306",
"^. c #A90B18",
"/. c #B60816",
"(. c #901029",
"). c #B41028",
"_. c #8A323A",
"`. c #A72332",
"'. c #C50307",
"]. c #D60205",
"[. c #C80917",
"{. c #D60712",
"}. c #DA121B",
"|. c #E70204",
" X c #F30305",
".X c #FC0101",
"XX c #EE1114",
"oX c #D5252D",
"OX c #8A2648",
"+X c #9E2F5A",
"@X c #8D5167",
"#X c #D16062",
"$X c #060985",
"%X c #0B158B",
"&X c #091A96",
"*X c #092488",
"=X c #123489",
"-X c #092798",
";X c #172694",
":X c #362985",
">X c #2B328E",
",X c #373793",
"<X c #0810AB",
"1X c #0F2DAB",
"2X c #2839A7",
"3X c #2F36AA",
"4X c #443789",
"5X c #503797",
"6X c #6E398C",
"7X c #4E39A3",
"8X c #673AA4",
"9X c #11478E",
"0X c #284499",
"qX c #344D90",
"wX c #1E6A9D",
"eX c #154CB3",
"rX c #3451A8",
"tX c #316BB2",
"yX c #504C91",
"uX c #6B4A8C",
"iX c #675698",
"pX c #536B92",
"aX c #757490",
"sX c #514FAC",
"dX c #6E53AF",
"fX c #4A65AC",
"gX c #5569B1",
"hX c #706DAE",
"jX c #3D65C3",
"kX c #4C68C3",
"lX c #756EC3",
"zX c #9F5F8F",
"xX c #8556A6",
"cX c #8C76B2",
"vX c #A664AF",
"bX c #C96694",
"nX c #856EC6",
"mX c #118ABC",
"MX c #5E95A7",
"NX c #7486B2",
"BX c #3697D3",
"VX c #4C91D0",
"CX c #66A4D2",
"ZX c #2FD3EE",
"AX c #67D6EC",
"SX c #938CAC",
"DX c #A68FA1",
"FX c #A7A7B6",
"GX c #CDACB2",
"HX c #9497CC",
"JX c #ADB2CE",
"KX c #A5A7E0",
"LX c #C1BFD6",
"PX c #AACBDA",
"IX c #8EDFE3",
"UX c #B3CCE8",
/* pixels */
"X X X X o X X X X .     X     X X X o   X   X X     X   . . ,       X X - o o X X X > X X X . @ s @ . @ X X @ : @ . @ % @ H r @ ",
"X X o o # X X X . .   X X X X X X X . X X X X X X X   X .   o o X   X X - o X - . $ s X X * $ @ @ . * @ @ @ @ @ s @ $ @ % $ @ A.",
"# X # - > - # . X . . . X X X - # X X # X X X X G X   X Z o   .   X , G A.- - - # - ; r & & & @ @ % o @ @ @ @ % @ 6 7 8 8 i 7 6 ",
"X X - $ # X o X X . X X X X X X $ # - # X # X # - X X     . X   . X Z X X - X Z y r i a i e r & % * * @ % @ & @ @ % @ % & % % @ ",
"- Z - # @ X X X X X X # - X - - - Z # X - # Z # # # X   X X X   X # X X X , - - y a >.a u u r * % & % @ @ @ % % % % 7 % % 7 % & ",
"y ; r r r & # # - # # y # # - : D r * : ; - & & # - X Z - X . . A.X X X - - - y a p Z p >.i u ; ; & % % % % % % s % S % & % 7 7 ",
"D a C i i r e 7 y r ; 7 r r c A i a s s C y e r ; : ; NXX # X X   X @ # - # - t y a a A D v >.c x % & % % b & r 7 % % % % & 7 a ",
"A A D c v c b c z v  .| c A D.;.D v v v c c D x C v C D ; # ; # - # # - y - ; Z i i v | v :.| z i u 7 % % % & % & & % % 7 % 7 & ",
">.A A A | z k z v | :.:.:.:.<.G.A | :.v MXaXc v v J.c a e e & e ; & r 7.r * r r 7 i v v ;.z z z z 7 & u & & 7 % 7 7 7 b 7 q g g ",
"2.>.| <.e t t t r t A.x 7.A A S pXa D v c u v v v v u c p r & & e ; e r e & r e A.e i x v i z x i i e 7 r ; D.q q q g g u X.0.e.",
";.;.p c a t ; t t ; t ; D a p t C D a p A y e r u J.r r : $ = = * * - * r r y y r i 8 c i p 7 e 7 8 7 7 w 8 g :.:.` ` u.e.eXu.u.",
";.c t t t ; e e ; Z.t t C a y C a p c s y u u e a i : = A.= o $ = , = * = s : : r i i e e 7 a i i F q A.w b ` #.#.t.#.0.0.` 0.g ",
"t C p ; C e e ; 7 p t p C A.- p C a >.p c a Z t A., > = G = , = 4 m.5 , = , > $ > r ; e : ; r & 7 8 z z | d.e.| #.` | ` h | g | ",
"C C x p x 7 x t C t p p t D ; J.a s a c D : s , , 4 P R W W W Y.Q.~.~.Y.I 4 5 = s > G $ , & r * i z ` e.u.d.#.u.| e.#.| ,.g +.#.",
"x p x p x e u x t u t t ; t ; D y y C > : , 5 5 I Y.~.~.'.~.].].]. X.X].P.Y.W R 4 $ = , = s i [ #.r.*X;XCX*Xu.;Xe.&Xu.X.#.` S.g ",
"S :.S S p u u x p p t A t t t C - , A., 5 4 _.R P.~.].W.T 3 + + < 3 T T I.'.'.Q.R I 5 H b $.$.;Xi.;X=X=Xi.e.;X*X*X-XmXwX=X,.e.| ",
"S A S S A x x p e u x u t ; - - , , 5 U P P.].Q.Y.L 1 O   + O + + O + 1 2 Y K !.Q.^.E.(.V *.p.i.h.,.*X%X;Xe.*X-X-X1X1X1X*X*X$XBX",
":.;.A >.c :.x :.x u u u ; C y Z , Z 4 `.~.]. XR 1 3 < < 2 L E Y 3 1 3 K T W.J + J ~.XX}.[.{.n.B 6.&.>.PX<.rXwXe.ZX9X*XCX-X1X<X1X",
"A 2.A c >.A p p x x p e t y Z Z G G E.[.|.!.3 + 2 J 3 K K Y ].L L J L Y ~.T L 3 2 2 I. X X[./ (.G.B m.7. . .v.V.$.&X-X1XAXeXeX1X",
"S.g.d.S.qXg.j.| v x z p S 7.m.M.@XE./. XL.O + < K J Y K L 2 3 K 3 J K T K.E E Y L K 2 E .X X#XI m G 8.3.b ;.2.h.4X8XsX2XeXmXeXeX",
"pXk.f.j.1.wX2.f.:.,.g.g.A.7.^.^ ~ E.{.E   O + 2 3 J Y E J 2 E T E J K L.K.T T K.T E L 3 ]..X].Q yXG b.B >.$.6X,X;XxXdXvXsXeX1XZX",
"S A :.;.S :.1.S.1.2.:.g.2.F M.~ oX'.I.    < 2 J < K K.Y 2 L T J Y Y 3 E K.L.L.E K.U.E 3 T L. X/.n.^ @X6.IX$.uXpX8XxXxX7XjX3X-X&X",
"t u x | :.:.S 2.1.g.g.1.2.3.U ~.XX~.2 2 K 2 2 L 1 1 K J 3 T Y 3 Y T 2 E E E U.U.E K.K.K 1 1 U.|.(.&.bXbXbX8XCXuXvXuXxXrXrX9Xe.9X",
"S.v v S 1.S :.:.2.2.AXZ.3.~ M.~. XT 1 < K 3 2 L K 2 1 2 3 T T Y L L K E T I.W.W.U.L.K.T J < < './.+Xs.>XC.bXyXAXiX3XUXhXtXjXj.j.",
"C x S.A :.| :.1.S.1.:.A B I Q.|.].+ + K.K.T Y J K Y K J L E E T L K L T E I.W.W.W.W.W.W.U.E < Y ).+Xp.x.FX=XPXuX5X>XrX7XrX,Xc.#.",
"Z a p ,.z AXj.1.S.BXS.>.H I ]..X!.W 1 T !.E L Y K K L Y T T K 3 2 1 L E L.W.W.W.W.U.U.I.U.L.2 + +X@XC.MXc.>X*Xk.rX0X2XtX>X0X4XS.",
": C c A :.S 1.1.wXg.1.F B Y. X|.I.3 3 L E T E L Y L J K Y E L 2 2 1 Y E L.I.I.L.L.E E E L.L.3 < T.6XB.zXGXLX:X1X2X0X=XeX3XjX:X0X",
"> y A C C v S.1.1.S.1.H G ^. XW.J < 2 K Y E Y Y L L 1 1 Y T E T 3 3 T E L.E K.K.E E E E L.E 3 O P ~ zXB.C.6XB.;X2X;Xi.d.;XjX2X3X",
"s v S.a ;.S.S.1.S.9XVX9Xx.}..XY < < 2 2 K Y Y T Y L J Y 3 3 Y K L 1 Y E L.K K T T L.I.W.L.Y J O + ).+XN.3. .h.sXd.,Xl.>X;Xi.2X3X",
";.:.| d.| | :.9XIXBXtXwXH.`. XP 2 J 3 K 3 J K K Y E T E K.E L.L L T L T K L 3 E U.K.K J Y Y K   . ~.E.V @.MX5.$.$.f.=Xj.c.i.i.3X",
"<.<.,.:.S.qXS.eXjXVXtXpXJX`.oX1 < K K K L J 2 3 J J Y T E K.K.L.K.E T Y Y E I.U.E K E W.W.U.L.J   Y.^.^ B b 5.3.l.h.r.VXc.2X1X1X",
"sX0Xj.g.g.S.=XtXtX9XrXqXGX[.XX< J !.Y 3 L T L 3 2 3 L E E U.U.K.E K.E K.K.E L.L.Y K.W.W.W.W.W.T 3 W Q.! ! V &.f.v.f.>X2X3X;XkX-X",
"yXwX0Xk.,.,.j.=XwX9XqXx./ {.|.2 1 L Y Y T T T Y L K Y K.L.K.L.L.E K.E K.K.K.K.E K K.U.U.!.!.U.T 3 W E.! V ! pX:.VX2.qXD.k.=X=XrX",
"qXrXwX0Xj.S.,.,.,.qX5.D.Q XX XT < 2 K T E T K.E L T K.K.T T T T T Y L L L J L L Y E L.U.'.~.U.Y 2 Y.).@Xb.Q B  .$.v l.v.l.sXsXBX",
"qXrXfX0X=X=X=X,.$.S.>.m I {..X3 + K L E T E T Y E L.E E K J L T E Y 2 J L L Y Y L L E I.W.!.U.K   /.[.OXm.pXa.a.p.:XxXvXvXdXrXsX",
"fXrXfXfXtXrX0Xk.=.7.m G U ^. XJ O T T E E E T E L.E Y L Y 2 3 3 K 2 L K K Y Y L L Y L E U.W.U.2 + |.[.m.*.*.z.a.a.l.7X,XsXrXcXnX",
"rXfXVXfXgXfXyXD.CXN.F.^ U /. XI.< K K.E K.E E L.E Y L 2 3 2 3 J + 3 L 1 2 Y K K Y K Y L L.W.I.+ 3  X/.b.6.aX^ (.+XC.V.yXdXdXnXnX",
"PXHXHXHXKXFXhXaXH.F.F./ ^ /. X].L 2 L.K.L.I.K.L.T J 3 2 2 K K 3 J K 1 J L 3 3 Y J Y K L T U.L.+ T |.R.V x.*.b.(.(.uX4XdXyXnXlXsX",
"PXUXUXJXPXJXFXDXH.aXM.@X_.`.XX.XE J Y L.I.E T T J 2 1 < 1 < J 3 J + L L J J 2 K Y J L L E K.K 2 !.[.~ *.&.5.b.B.b.6.G.G.G.A.x.D.",
"NXHXlXNXhXiXSXFXF./ ^ F./ _.}..X|.K 1 J Y 3 Y 3 2 2 2 2 < 1 < 1 O 1 T Y L 3 3 L K 3 L Y L J < L  X[.m.*.H &.B 3.3.8.7.3.A.3.6.x.",
"gXcXhXfXhXhXG.uXSXB m.^ m.^ (.{.|.1 3 L L 3 J K T K 2 1 2 + 1 2 K J E T K L K Y 1 L !.].].2 J ~. X(.! V B H 4.4.4.3.x.N.7.7.6.D.",
"yXhXiXiXyXuXiXN.m.*.6.uXV B.b.(.[.E 1 1 Y 3 L T L K K K 1 2 3 3 T L L.E 2 T K Y 2 Y Y E Y 1 J  X/.~ ~ n.cX5.N.x.x.x.V.v.G.,XV.hX",
"H.uXG.V.4XhXB.z.=.%. .B.V.SXm.n.(.{.J < J L E K T Y Y L 3 3 L Y Y Y E E K.I.W.L.L L 3 K 3 + ].).OXM.[.(.*.6.iXdXuX7XdXdXxXnXlXHX",
"C.SXC.C.C.V.m.-.[ [ M [ x.a.=.-.~ ).'.< < < T Y K L L L L L J Y Y K K K L L L K.E 1 O O O Y.).OXB.N.b.H.z.v.6XzXdXdXdXdXsXdXnXnX",
"a.z.V.V.a.z.p.p.[ [ [ { { [ =.-.-.~ }.].2 O 2 K Y K L K L Y K Y Y E Y J 2 L L T Y 2 + L !.[.).@XC.6.6.6.c.,XdXxXdXdXsXsX7XdX,X8X",
"c.s.w.q.q.s.w.q.q.@.} @.{ { @.@.%.%.OX].{.3 O < J J K K J Y Y E T '.L.T Y T Y L K O + ~.XX).n.H.*. .#.@.o.:XiXxXlX7X7X7X3X7X>Xi.",
"s.p.s.s.r.w.w.w.w.@.q.@.@.[ [ @.%.a.%.~ ^.}.E 2 2 2 2 < 3 L T E E I.E K Y Y 1 1 2 P R./.(.b.b.6.5.&. .=.p.v.,XuXsXyX,X,X,X%XAX$X",
"s.s.:Xs.w.p.p.q.a.b.%.[ N %.] l [ @.%.%.~ R.'.[.'.W.+ O O + K T E E 3 1 J 2 O K W.`.OXN &.N V l 5.hX .o.@.q.:XqX5X,X,X,Xi.t.y.<X",
"7Xs.s.s.s.LXs.q.-.~ %.%.%.%.[ N %.M M ~ /.! ~ /.{.'.E 1 +   2 L L 3 O O 1 L W.]./.~ B.b l l yX] k k ' | ] #.l.i.c.r.i.%Xt.u.$X<X",
"w.s.w.w.s.p.O.q.@.a.@.@.] { { [ [ %.%.! ! N M n Q R./.'.].W.W W T.Y.W.'.R.R./.T.n l l yXb k q V k ` k ] ' qX+.O.$Xt.t.t.0.0.1X$X",
"@.y.LXw.q.q.q.q.q.s.} z.@.{ q.[ { { [ [ M l %.M l n U Q T.Y.R.T.R././.Q I ! N l N.f j k j ( $.] ( j ( | o.0.t.0...t.t.;Xt.t.<X$X",
"@.o.@.{ _ @.q.q.@.q.@.@.{ { @.} { ] ] j ) } l l l l M M m n M n n V n FX=.w 8 w &.0 d  .k JXf l k ` ' @.+.` 0.0.0.0.2Xt.tXO.<XkX",
"{ ) { { ] ] ) { @.{ @.@.p.{ ] ] ] ] ] ] ] j j l w w w w l l &.w 8 w w w w b 8 8 6 k <.f k l M l ] ( @.o.X.' +...0.9.sXq.O.t.$X<X",
") ) ] { c.N.a.) { { { [ %.) ) ] ] { ) ] j l l f f f 0 f l w 0 w 0 6 w % 0 0 N.& 6 6 g d | l (.~ ] X.` ` r.X.( #.' ..9.O.fX9.<X%X",
"j { j j ] ) v.{ { { { { ] j j ] ] j j j &.M N l N.j f f j f 0 0 w 8 0 8 JX6 NXq 9 8 9 g l.D.b hXqX| X.` ' ' ( ` _ e.0.o.0.$X$X0.",
"j v.] ] ] { } =.{ { @.} ] ] ] ) ) j j f f n R M f f 0 l 0 0 f 0 f 8 % 6 6 0 i G.z 9 | g ( NXD.` #.#.` X.X.o.h.c.O.O.+.9.*X0.t.>X",
"f ) ] j j j ) ) { { @.] { ) ) j j l f j 0 w w f f f f 0 0 f 0 9 0 6 6 8 % ) 7 7 9 9 q qX9 q k D.` i.X...e.+.hX%XO.@.y.9.0.t.;XO.",
"j f f f j uX) ) } { { { { ) j j j j f f f f f f f j 0 0 f j l.6 9 6 0 e.9 d 6 6 d g d h g d g ( ` #.o.0.0.0.0.i.+.` O._ ....9.O.",
"6 0 9 f f f ) ) ] ) { { ] ] j j f f f f 0 d 9 f 0 f j 0 8 d 6 0 x.k q % 9 fX9 6 9 g g g ( d h ( X.+.9.rX+...O.0.( fX( _ _ .._ h.",
"6 f f f j f j j ) ) ) { ) j k l f f f x.f uX0 0 0 f 9 0 f d 0 9 % 9 9 d ( 9 pX9 9 9 7 sX9 qX .X.+.+.` ......( O.....O.c._ .._ O.",
"f j 6 0 f f f j ) k ] } ) j f j f 9 0 % 0 l f 9 0 f f 0 k 0 d d d 9 9 6 9 d d h d d d NXUXX.X.O.X.` ` _ _ _ _ O.........O.......",
"0 0 0 f 0 f 0 f l j ) w f j  .0 f f 0 f f 9 f 0 0 9 f d 9 d d h d d d q ( h ( d h d h ( +.0.r.e.` _ O._ .._ ..#..._ _ _ ..O.9.O.",
"0 0 0 0 f 0 0 j d k s.j f j j f f 0 f 0 f f d l j f f d f g g h d d d 9 ( h d 0X( o.g ..X...O.+...t.0.9._ ..O.O.O...O.+.O.9.O.O.",
"0 0 f 0 j ] 0 j l f j j f j f j f f j d ) f f f f f f _ _ h h h d d h d j ) CX' qX( _ _ 9.O.9.O.gXlXO._ ..t...O.O.9.O.O.9.9.KX9."
};
