/* XPM */
static char *result[] = {
/* columns rows colors chars-per-pixel */
"64 64 256 2 ",
"   c #020407",
".  c #03060A",
"X  c #04090D",
"o  c #09090D",
"O  c #150000",
"+  c #020614",
"@  c #050C13",
"#  c #090C14",
"$  c #02061A",
"%  c #040B1C",
"&  c #0B0D1B",
"*  c #160A17",
"=  c #081317",
"-  c #04131C",
";  c #0A121C",
":  c #13131C",
">  c #19151C",
",  c #200000",
"<  c #290000",
"1  c #320000",
"2  c #3B0000",
"3  c #2F0E16",
"4  c #22141A",
"5  c #030324",
"6  c #040C22",
"7  c #0B0926",
"8  c #02032C",
"9  c #0A042D",
"0  c #020B2C",
"q  c #16052A",
"w  c #031423",
"e  c #0A1423",
"r  c #021A25",
"t  c #0A1A25",
"y  c #03152B",
"u  c #0A152B",
"i  c #031A2C",
"p  c #0B1B2B",
"a  c #161827",
"s  c #020434",
"d  c #0B0433",
"f  c #020B34",
"g  c #02043B",
"h  c #0D043B",
"j  c #07093A",
"k  c #170738",
"l  c #031C32",
"z  c #061836",
"x  c #0B1B33",
"c  c #0A1C3B",
"v  c #151B37",
"b  c #360529",
"n  c #31112E",
"m  c #260936",
"M  c #281736",
"N  c #361736",
"B  c #08222B",
"V  c #182529",
"C  c #03223C",
"Z  c #092338",
"A  c #152537",
"S  c #14323E",
"D  c #282935",
"F  c #382437",
"G  c #450000",
"H  c #4E0000",
"J  c #580000",
"K  c #5C0B0F",
"L  c #510C15",
"P  c #620000",
"I  c #6C0000",
"U  c #770000",
"Y  c #76090E",
"T  c #730818",
"R  c #520F2D",
"E  c #461639",
"W  c #730F2B",
"Q  c #4F273A",
"!  c #6F2A39",
"~  c #020544",
"^  c #0E0443",
"/  c #020B44",
"(  c #02044D",
")  c #030B4B",
"_  c #0C084A",
"`  c #120644",
"'  c #130944",
"]  c #12064B",
"[  c #14094C",
"{  c #1A0948",
"}  c #061847",
"|  c #171847",
" . c #020454",
".. c #030B54",
"X. c #02035A",
"o. c #030A5B",
"O. c #0B0858",
"+. c #150756",
"@. c #06175A",
"#. c #171956",
"$. c #230A46",
"%. c #2E164C",
"&. c #381A46",
"*. c #271957",
"=. c #092547",
"-. c #172847",
";. c #163147",
":. c #092855",
">. c #172857",
",. c #093459",
"<. c #143557",
"1. c #272A4C",
"2. c #352548",
"3. c #252657",
"4. c #352656",
"5. c #2E3853",
"6. c #393957",
"7. c #010364",
"8. c #040A67",
"9. c #190B66",
"0. c #091867",
"q. c #191765",
"w. c #060C76",
"e. c #140776",
"r. c #061575",
"t. c #171A73",
"y. c #241669",
"u. c #34186C",
"i. c #251776",
"p. c #0A2A65",
"a. c #192768",
"s. c #093366",
"d. c #0F366F",
"f. c #172576",
"g. c #183678",
"h. c #2A2868",
"j. c #393668",
"k. c #272777",
"l. c #323071",
"z. c #4A164A",
"x. c #681350",
"c. c #562346",
"v. c #4B2D51",
"b. c #6D314F",
"n. c #463967",
"m. c #59346C",
"M. c #4A3174",
"N. c #73376D",
"B. c #134650",
"V. c #354550",
"C. c #0D4876",
"Z. c #34466E",
"A. c #6B435A",
"S. c #515E67",
"D. c #4D4B70",
"F. c #6C4F76",
"G. c #810000",
"H. c #8A0000",
"J. c #82090C",
"K. c #940000",
"L. c #9E0000",
"P. c #94090D",
"I. c #8C0917",
"U. c #A80000",
"Y. c #A20609",
"T. c #B10000",
"R. c #BA0000",
"E. c #B5060B",
"W. c #A70717",
"Q. c #B80915",
"!. c #A9131E",
"~. c #91112E",
"^. c #AC1229",
"/. c #843537",
"(. c #B12433",
"). c #C30001",
"_. c #CB0000",
"`. c #C4020C",
"'. c #D30000",
"]. c #DC0001",
"[. c #D3030B",
"{. c #DF0108",
"}. c #CB0916",
"|. c #D70710",
" X c #E50000",
".X c #ED0001",
"XX c #E5060B",
"oX c #F20304",
"OX c #FB0203",
"+X c #E00E13",
"@X c #CD1527",
"#X c #DD262B",
"$X c #A62854",
"%X c #95536A",
"&X c #D7444C",
"*X c #060985",
"=X c #0B158B",
"-X c #091A96",
";X c #10149E",
":X c #103188",
">X c #092798",
",X c #172795",
"<X c #272889",
"1X c #2F338C",
"2X c #373793",
"3X c #0F2DAB",
"4X c #2839A7",
"5X c #2F36AA",
"6X c #443789",
"7X c #4E3796",
"8X c #6F398F",
"9X c #4E39A3",
"0X c #673AA4",
"qX c #11478E",
"wX c #284499",
"eX c #344D90",
"rX c #1E6A9D",
"tX c #154CB4",
"yX c #3351A8",
"uX c #306BB3",
"iX c #504C91",
"pX c #674F90",
"aX c #53708E",
"sX c #78718D",
"dX c #514FAC",
"fX c #6755A6",
"gX c #7053B3",
"hX c #4966AA",
"jX c #5569B2",
"kX c #6F6DAE",
"lX c #3D65C3",
"zX c #4C68C3",
"xX c #756EC3",
"cX c #A4618D",
"vX c #8454A4",
"bX c #896FB3",
"nX c #A664AF",
"mX c #CA6592",
"MX c #856EC6",
"NX c #118ABC",
"BX c #5C98A9",
"VX c #7285B3",
"CX c #3697D3",
"ZX c #5C9ED2",
"AX c #2FD3EE",
"SX c #67D7ED",
"DX c #918CA8",
"FX c #AE9AB1",
"GX c #A9A6B6",
"HX c #CD9EA3",
"JX c #9497CC",
"KX c #A7ABDB",
"LX c #ACCBDA",
"PX c #8EDFE3",
"IX c #B3CCE8",
"UX c #C0C1D8",
/* pixels */
"X X X X X @   @ X       X     X X . o       o X     X       4   X   X X o X X X X X : X X X + o e + . o . . + e + . + + $ D e + ",
"X X o o @ X X   X X     X X o X X   X X X X X X X X         X X     X X > X X =   # a . + ; @ + # + & + X + + + a + @ $ $ # + 6.",
"X X # = : = @ . X   X . X X X = X @ . # @ X X X D X     D         X > D V.= = = # = ; e - % % @ + + + + + + + + + 5 7 7 7 u % 6 ",
"X = @ # # X o X X   X X X X @ X = @ = @ X = X X = X X     . X     o V = X = X V t e u p u 6 ; % $ & & + $ $ $ % + $ + $ 6 $ + $ ",
"= V ; @ X X X X X X + @ # X = @ ; V = X @ @ V @ = @ X   X X X   . X X X = : = = p p ;.p y e e % % % $ + + $ % $ % $ 6 $ $ $ % $ ",
"t - e e e % # @ = = X t @ = = = V e - - - % - % X = X V X X .   V.X X @ X = = t t i p p -.l u % % % $ $ $ $ $ % u $ C $ % $ 6 6 ",
"Z x B u u e w 6 u u e 6 w e Z x i u r p B t w e - e - VX@ = X   . X X @ - @ = B i t u Z Z x -.z l $ $ $ $ a 6 6 $ $ $ $ $ % 6 B ",
"B A Z x c x v z z x v } x =.Z.A A v v | V v A u x x B A = @ % = = # @ - e = = V u u v | c =.=.z u y 6 $ $ $ % % % % $ $ 7 $ 6 % ",
"S } =.c c c z z c } =.=.=.=.:.D.Z } -.M %XsXv c =.S.z p e w % w % % e 5.e % e e % a R v | l c c z 6 $ e % % 6 6 6 6 6 v 6 0 f f ",
"<.-.c ;.w i 6 w e r V.l V.c Z C aXx v v R B x x =.c u x i e # & w e e - e % e e V.u q u x u z y y y w 6 6 - Z.5 0 0 f j y ..8.0.",
"=.=.i p i i w r r - r - V t p r B p i a V p e u r S.e e ; & # * & & ; % e e e t w u a x u r 0 w 6 7 % e 6 0 f :.=.) ) w.8.tXr.r.",
"=.p i r w - w - - B.r r B i p B x t x a p r t w B v ; * V.* * * * > : & > e ; ; u u u e u % p y e ;.6 Z.0 } } o.0.8.@.0.8.) 8.f ",
"t B r - B w w - w i r i i V.- B p i -.i x p V = V.a > * D 3 G 3 3 b.4 > > : > # : ; ; ; : % & % % 7 z / :.0.p.} 0.) } j j / f } ",
"B l l i l 6 l r B y y i i Z r S.p p p x V > > > 3 3 L Y P.Y._.`.R.U.Y.Y K 3 > : 4 : V * > & e 7 u v [ @.r.0.@.r.} @.0.@.,.f @.@.",
"B i i l l w w C y r r r r - r V - V t a : 4 3 L J.P.E.'.{.]..X.XoX].[.E.Y.Y J.K 3 > 4 K L a u } q.4.u.<XZX:X0.>X0.-X0.o.o.} C.j ",
"C =.C C i y y y i i r Z i r r B : > V.> 4 L (.E.[.].].).H.G 2 G 2 J U K.U.).`.E.`.T 3 Q n *.#.<Xy.u.l.<Xt.@.,X:X=X>XNXrX:X:.0.} ",
"l C C Z C l l i w y l y i - - = > V 4 3 J.).oXoX].U H 1 O < H G J P U U.].H.U U.'.!.W.~.N 3.a.t.f.:.<X=X,X0.=X:X>X3X3X3X=X:Xr.CX",
";.=.C -.x -.C } y y l w - B : V > 4 3 (.oXOXXXI 2 P P G P H.U.L.U.T.T.T.T.K.H 2 U E.oXXX^.c.2.M 4.%.A LX>.yXrX0.AXqX-XZX>X3X3X3X",
"C <.Z c ;.Z i i l i y r r B V V F 3 !.XXOX)., 1 U H.U I H.).'.)._._._.)._.R.U P I J H.OXOXQ.c.Q S.M v.5.| | l.Z.@.=X>X3XSXtX3X3X",
"d.s.s.C.eXd.s.} =.l z l l <.6.b.%X! Q.oXK.G O 2 U K.H.H.R.R.R.T.).'.]._. X).T.U.L.I 2 OXoXXX&XR M 2.2.1.V =.h.q.7X0XfX4XtXNXtXtX",
"aXg.a.d.,.rX<.a.:.:.,.s.d.<.5.F T !.Q.P.H O 2 U U R.L.).).T.).'.].'.T.). X_.T.T.].L.H 2 H oX.XI.D.F c.M | >.8XeX4XvXgXnXgXtX3XAX",
"C Z =.=.C =.:.C.,.,.=.p.<.;.V.W #XXXT.G.I G I U K.L.).'.R.).).R._._.U._.R.R.U.U.L.H.U G , J oXW.c.v.%X4.PX#.pXfX7XvXvX9XlX5X>X-X",
"y i l } =.=.=.<.,.,.,.,.<.1.4 P.XX XH I H.H.U U H.U.)._.T._._.).).).U.R.).).).R.L.H..XU.J , K.[.I.%.mXmXmX0XZXiXnXpXbX5XyXqX0.qX",
"Z.z C C ,.C =.=.s.s.PX<.;.-.A.P.XXT.K.T.R.).L.U H.L.R.U.R.].].'.'.).L.R.T._.'.'.).Y.).).H.J 1  X|.$Xi.<Xm.mXpXSXfX5XIXgXuXuXd.d.",
"B l C.B =.=.=.,.C.,.=.S A n Y ).).I '.oXT.L.U.R.K.U.R.'.'.].].'.'.).T.R.T.'.'.'.].].'._.).G.2 I OX#Xu.M.GXg.LXpX7X1XwXdXyX2Xk.@.",
"V l y ,.f SXd.,.d.CXC.=.a R oXOXH O J H.U L.K.L.R.R.U.).'.]._.).).U.).R.R.T.R.R.).'.].]._.L.H J @X$X8XaXl.,X=Xg.eX4X4XuX1XwX2XC.",
"; B l C =.C ,.,.rXs.,.;.D I..X XO 2 U K._.K.T.U.K.U U U ].].'.)._.U.R.R._.K.K.L.U.T.R.R.R.L.G G.^.x.m.%XHXIX<X4X2XyX:XtX5XlX1X2X",
": p Z i B Z C.,.,.C.,.A v !..XH.O P H.L.K.K.L.K.T.U K.U.K._.'._.).L.U.).L.G.H.H.H.H.K.U.R.T.J P I.^.%Xb.8XpX1X,X4X,Xr.a.;XlX4X5X",
"a c C.p =.C.C.,.C.qXZXqXg.(.|.P 1 H.T.T.R.L.K.U.H.U.T._.T.L.L.T.U._.).L.G.L.U.U.T.U.U.K.G.H.U P H XX@XN.2.| f.dX:.2Xh.<Xk.t.4X4X",
"=.=.} p.} } :.qXPXCXuXrXaXN.(.I I Y.R.'.R.L.T.K.U.T.L.L.).).U.T.R.U.K.U._._._.]._.T.K.L.R.K.K.I 1 `.!.E [ BX>.#.#.a.:Xd.<Xf.t.5X",
">.>.s.=.C.rXd.tXuXCXzXhXLX%XHXK.L.U.U.K.U._.U.L.U.U.R.R.R. X'.).U.T.T.R.R.'.].'.U.T..X.X].]._.K.H U.E.! M k 6.| h.f.0.ZX<X4X3X3X",
"iXwXd.s.s.d.:XuXuXqXyXeXFX!.`.H.K.K.P G.K.R.R.L.R.R.).'.).).).R.T.T.U.U.L.U.'.).). X.X.X]._._.U.I U.[.T M -.#.f.l.a.1X4X4X<XzX>X",
"iXrXwX:X,.@.d.:XrXrXeXj.! Q.XXP P P K.U.U.U U.T.U.R.'.].).T.R.T.).R.R.T.U.T.R.)._..X.X.X].'.).L.U U.[.W M M aX:.BXp.eXZ.k.:X:XyX",
"eXiXrXwXf.C.:.:.#.qX3.Z.W #XoXO < U K.K.L.H.R.T.)._. X'._.R.T.T.T.T.R.T.T.R.).'.'. X.X X].]._.L.U [.XX%X&.M } | >.} 3.1Xl.dXyXCX",
"yXyXhXwX:XqXg.,.=.d.| n L `.oXO J H.H.K.U K.R._.). X].'.]._.R.)._._._._._.)._.).'._.'. X X.X'.K.H.].}.b.4.aXk.k.i.1XvXnXnXgXdXdX",
"hXyXhXhXuXeXeXg.*.5.a F L |.oXP P K.H.R.R.).T._.]. X'.].].).R.).R.'.'.T.U.T.K.L.T.R._._.]. X'.K.G.}.^.v.2.%.h.y.f.h.9X1XdXyXbXMX",
"yXuXZXhXVXhXeXj.ZXD.D.Q L Q.oXU 1 I U. XT._.).). X]. X'._.).).)._.'.T._.).U.T.U.K.U.R.).).'.T.J H Q.~.&.4.kX1.y.fXM.M.iXkXgXMXxX",
"KXJXJXJXKXJXkXbXF.A.A.! Q !.oXR.O G L.R.L.R.).).]. X X'.)._.).R.).L.R.R.H.P U U H.K.T.T.T.L.I 1 U }.W &.n.N %.3.a.fX6XdXiXMXxXdX",
"LXLXLXLXLXGXGXDXS.sX! cX/.(.OXOXO , J K.K.L._.T._._.).R.U._._.).T.L.).T.U I H.U.G.G.G.I I H , O _.[.}.R E Q.! l.a.4.F.D.D.6.v.Z.",
"VXJXVXxXkXaXDXFX%XQ Q ! b./.+XOXU , 2 I U H.I R.'.R.R.U.U.).'._.T.U._.R.K.U H.K.H.H.K.H.G.H O 2 XX^.!.Q N E N 2.D 6.5.1.V.>.4.j.",
"kXbXkXiXkXkXiXF.DXM v.c.Q Q ~.}.XXG J U U.R.K.U._.).T.).L.R._._.T.T.).).R.L.K.U K.L.U.L.K.J O U.|.~.E N 2.N 2.2.1.1.6.n.1.5.5.Z.",
"iXkXpXfXpXiXpXm.v.%.2.pXz./.R ^.}.K.L.H.R. X_.K.]._.U.R.).U.)._.T.R.).T.L.K.U H.L.L.K.L.U G H +XQ.R Q 2.bX2.n.n.l.n.6Xl.iXM.M.kX",
"F.pXM.6Xm.kXm.4.4.$.' m.N.&X^.x.~.}.I I L.'.).K.].'.T.U.R.U.R._.U.).).R.U.L.U H.K.H.L.U 2 2 |.}.(.}.c.3.2.W pXfXpX9XfXfXMXxXMXnX",
"m.DXN.m.m.M.n.*.[ [ h $.~.z.z.%.x.~.}.I G.U.R.I '.'.R._.U.K.U.U.R.U.U.R.H.H.H.T.H.U R.H.H R.}.~././.z.iXu.M.fXvXgXgXgXgXgXgXxXMX",
"u.u.m.M.u.u.u.y.[ | ` { $.m u.%.x.x.(.}.H.K.U U ).'.)._.U.L.H.L.K.H.U H.R.U.R.G.P P < H.U.@X~.%XN.v.u.4.k.6XgXbXgXgXgXdX9XgX2X9X",
"u.i.e.9.9.i.q.9.9.+.] +.] +.$.$.{ %.~.~.OXU.G K.'.R.R.).R.H.G.P H.I K.L.T.K.G.I P 1 < R.|.^.c.pX%.+.#.+.+.<XfXgXkX9X5X9X5X9X<Xt.",
"i.u.i.y.9.9.9.y.9.+.9.+.+.+.$.~.$.z.W.~.}.oXU.I G.U I K.U.L.H.U H.R.U.U H.G.G.J 2 J ].{.^.W z.4.3.*.{ #.q.l.6XiXfX9X2X2X2X=XSX=X",
"i.i.<Xi.i.*.y.9.y.q.+.` ` ` k m ] $.$.m W E.[.[.G.G 2 G K.P U H U K.I U J H G P U.@X@XT $.E N k 5.kX| [ *.9.<X2XiX2X2X2Xt.w.w.;X",
"9Xi.i.i.i.UXi.+.9.] ] +.{ { ` ' { ` k 4.m E ~.W.`.).K.J P 2 < , 2 I O G J I ).[.W.W c.k m k D.j j h _ } _ #.a.t.k.q.t.=Xt.w.*X;X",
"9.i.9.9.i.9.O.9.9.y.] +.] ] ] ] ] $.{ k m k m R I.W.E.[.{.).T.U.K.U.).`.`.XX`.I.R m m F.N k ' ' g ~ j _ _ eXo.o.*Xe.r.w.8.8.;X;X",
"+.e.UXi.9.9.9.9.+.i.] k.+.] #.[ $.E $.` ` k m b `.T R I.Y.E.[.[.[.`.[.W.T T N m j.h k R Q.m 3.~ ~ h / } O.8.w.7. .w.*X=Xw.w.;X*X",
"+.+.O.] ] +.9.+.9.+.+.+.] ] +.{ $.R { h h { ` m m b n m b b b b b E b FX2.q 7 q %.d q z.R FXj j / / _ +...( 8.8.8.8.4Xw.lX8.;XlX",
"] ] ] ] ` ` ` ] +.+.+.+.y.] ] ^ ` k { ` ` k h d k q q q k m %.q q q q q q M 5 q 5 d 1.k k j / ) ~ / +.O.@.( o.O.O.7.dX7...w.=X;X",
"^ h ` ` l.l.y.^ ` { $.] ] ^ ^ ` ] ] ^ ` h h h h d d q d k d q 9 q 7 7 * 7 7 6.7 5 5 f s } / } ) / ..~ ) q._ ( @._  .8.O.yX8.;X;X",
"g k h ` ` h M.+.] ] [ ] ^ ^ h ` k h h h *.h h d n.h d 9 d d q 9 d 7 q 5 KX7 VX6 8 9 8 f h.Z.~ VXyX..) ) ) ) ~ ~  .0.8. .8.*X*X8.",
"h 1Xh ` ] ] ] #.] ] ] [ ] ` ` ^ ^ d h d d d d d d d 9 k 9 9 d d q q $ $ 5 7 v D.f 8 } f / VXZ...} @.) @...O.f.k.X.X.@.7.=X8.r.,X",
"d ^ ^ h h h ^ ^ ] ] +.` ] ^ ^ h h h k d d d 9 d d d d 9 d 9 9 9 9 5 7 5 5 ^ 5 $ 8 8 0 eXs 8 j Z.) t... .0...kX=XX.O.e.7.8.w.,XX.",
"h 9 d d h pX^ ^ [ ] _ ] ] ` h h d h d d 9 d d d d h 9 9 d h h.5 8 5 9 @.0 s 5 8 s f s f f s f ~ ..O.@.7.8.w.8.t.o.) X.(  . .7.X.",
"5 9 d d d d ^ ^ ^ ^ ] ] ' ^ h h d d d d 9 8 s d 9 d h 9 7 d 5 8 j.j 6 $ 8 hX6 5 8 f f f ~ s g g ....8.yXo. .X.8.~ jX~ ( ( X. .f.",
"5 d d d d d h h ^ ` ^ ] ^ ^ k d d d d j.d pX9 9 9 d 8 9 d s 8 8 5 8 8 g ~ 8 aXs 8 8 6 dX8 eX#.) o.o.) (  . .~ X. . . .k.~ ( ( X.",
"d d 5 9 d d d h h ^ ^ [ ^ j h d d 9 9 $ 7 ' d d 9 s d 9 j 0 d s s 8 s 5 8 8 s g s s s VXIX.. .....( / ( ( ( ( X.X.(  .( 7.( X. .",
"d 9 9 d 9 9 9 d h d ` d d h | d 9 g 9 d d 9 9 8 9 9 d s 9 s s g s g s 6 ~ ~ g g g s g ~ @.8.q.r.( ) X. . .(  .@. . .( (  .X.7.X.",
"9 9 9 d d 9 9 h d j u.^ d h d d d 9 d d d d d h d d d s j s f g s 8 s 8 ~ j s wX~ O.f  . . .O.X. .w.8.7.(  .X.X. . .X.o.X.7.X.X.",
"9 9 d 9 h { 9 g k d h h d h d h d d d d ~ 9 d d d d d ( ( g g s g s g s h ^ ZX_ eX~ ( ( 7.X.7. .jXxXX. . .w. .X.X.7.X.7.7.7.KX7."
};
