/* XPM */
static char *result[] = {
/* columns rows colors chars-per-pixel */
"64 64 256 2 ",
"   c #050102",
".  c #03060A",
"X  c #04090D",
"o  c #09090D",
"O  c #100000",
"+  c #180000",
"@  c #020614",
"#  c #050C13",
"$  c #090C14",
"%  c #02061A",
"&  c #040B1C",
"*  c #0B0D1B",
"=  c #180C17",
"-  c #081317",
";  c #04131C",
":  c #0B121C",
">  c #13131C",
",  c #1A151C",
"<  c #200000",
"1  c #290000",
"2  c #320000",
"3  c #3B0000",
"4  c #330E17",
"5  c #27131B",
"6  c #030324",
"7  c #040B22",
"8  c #0A0826",
"9  c #02042C",
"0  c #0A042D",
"q  c #020B2C",
"w  c #17052B",
"e  c #041323",
"r  c #0A1423",
"t  c #021A24",
"y  c #0A1A25",
"u  c #04152B",
"i  c #0A142A",
"p  c #031A2C",
"a  c #0B1B2C",
"s  c #151925",
"d  c #030434",
"f  c #0B0433",
"g  c #030B34",
"h  c #02043B",
"j  c #0D043B",
"k  c #08093A",
"l  c #160739",
"z  c #031C32",
"x  c #061836",
"c  c #0B1B34",
"v  c #0B1C3B",
"b  c #171937",
"n  c #25052B",
"m  c #34102A",
"M  c #240938",
"N  c #271B3A",
"B  c #381636",
"V  c #06212B",
"C  c #182429",
"Z  c #092337",
"A  c #04223C",
"S  c #142534",
"D  c #14323E",
"F  c #2E2735",
"G  c #450000",
"H  c #4E0000",
"J  c #4E0A0F",
"K  c #580000",
"L  c #4C0D15",
"P  c #620000",
"I  c #6C0000",
"U  c #67090E",
"Y  c #770000",
"T  c #780508",
"R  c #770718",
"E  c #50112D",
"W  c #6E102C",
"Q  c #4D2638",
"!  c #712F3A",
"~  c #020543",
"^  c #0E0442",
"/  c #020A43",
"(  c #02044D",
")  c #09094B",
"_  c #120644",
"`  c #130944",
"'  c #1C0846",
"]  c #12064B",
"[  c #140A4C",
"{  c #071846",
"}  c #181748",
"|  c #020454",
" . c #030A54",
".. c #0B0856",
"X. c #02035A",
"o. c #030A5B",
"O. c #150856",
"+. c #05175A",
"@. c #171956",
"#. c #250B44",
"$. c #271A47",
"%. c #371A47",
"&. c #281958",
"*. c #301350",
"=. c #0C2343",
"-. c #092549",
";. c #172847",
":. c #163147",
">. c #092856",
",. c #182858",
"<. c #0A3459",
"1. c #153456",
"2. c #272749",
"3. c #372649",
"4. c #313B4B",
"5. c #262757",
"6. c #362457",
"7. c #283558",
"8. c #393858",
"9. c #010364",
"0. c #040A67",
"q. c #170A62",
"w. c #1B0D6C",
"e. c #091766",
"r. c #1A1867",
"t. c #060C76",
"y. c #140776",
"u. c #061575",
"i. c #151973",
"p. c #251669",
"a. c #371B6B",
"s. c #251776",
"d. c #0B2867",
"f. c #1A2769",
"g. c #172677",
"h. c #0D3671",
"j. c #193779",
"k. c #2A2768",
"l. c #382867",
"z. c #3A3766",
"x. c #272677",
"c. c #2E3371",
"v. c #48174A",
"b. c #651943",
"n. c #4A294E",
"m. c #572445",
"M. c #65304C",
"N. c #463868",
"B. c #583469",
"V. c #4D2C70",
"C. c #493976",
"Z. c #6E376D",
"A. c #134650",
"S. c #354651",
"D. c #0E4876",
"F. c #33466E",
"G. c #6B435A",
"H. c #4B4B6E",
"J. c #6E4D74",
"K. c #56636C",
"L. c #820305",
"P. c #8A0000",
"I. c #940001",
"U. c #9E0000",
"Y. c #95030C",
"T. c #850918",
"R. c #940618",
"E. c #A70406",
"W. c #B50305",
"Q. c #A50617",
"!. c #B50A19",
"~. c #B1121B",
"^. c #94132E",
"/. c #AA1025",
"(. c #8B2E37",
"). c #AA2630",
"_. c #C60307",
"`. c #D80307",
"'. c #C60714",
"]. c #DA0B14",
"[. c #DB161C",
"{. c #E70205",
"}. c #F20204",
"|. c #FA0405",
" X c #E80E16",
".X c #C71323",
"XX c #CF2730",
"oX c #AA1F4C",
"OX c #955068",
"+X c #CA4A61",
"@X c #060985",
"#X c #0B158B",
"$X c #091A96",
"%X c #092488",
"&X c #093B86",
"*X c #15318A",
"=X c #092798",
"-X c #172794",
";X c #2E318D",
":X c #37378B",
">X c #0810AB",
",X c #0F2DAB",
"<X c #2839A7",
"1X c #2F36AA",
"2X c #443789",
"3X c #4D3694",
"4X c #6F398F",
"5X c #6238A4",
"6X c #11478E",
"7X c #284499",
"8X c #354D90",
"9X c #126B9E",
"0X c #38699D",
"qX c #154CB3",
"wX c #3451A8",
"eX c #316AB4",
"rX c #574786",
"tX c #574596",
"yX c #4C5091",
"uX c #674F90",
"iX c #526D91",
"pX c #757490",
"aX c #5747A5",
"sX c #4F51AE",
"dX c #6755A6",
"fX c #7053B2",
"gX c #4A65AC",
"hX c #5668B1",
"jX c #6F6DAE",
"kX c #3D65C3",
"lX c #4C68C3",
"zX c #756EC3",
"xX c #AA598A",
"cX c #8552A3",
"vX c #8470B0",
"bX c #A767A8",
"nX c #C86D91",
"mX c #856EC6",
"MX c #118ABC",
"NX c #6092A2",
"BX c #7086B1",
"VX c #3697D3",
"CX c #4C91D0",
"ZX c #66A4D2",
"AX c #2FD3EE",
"SX c #67D7ED",
"DX c #938CAC",
"FX c #A39BAB",
"GX c #CB9DA5",
"HX c #9497CC",
"JX c #AAB1D1",
"KX c #A5A7E0",
"LX c #ACC7D6",
"PX c #8EDFE3",
"IX c #B3CCE8",
"UX c #C0C1D8",
/* pixels */
"X X X X X X X X X . .   .   . X . . X   X . X . . . X   . . ,   X . X X - o X X X X > - X . . @ s . . @ . . @ r @ . @ @ $ F r @ ",
"X X o o X - X . . . . . X X X X X . . X X . X X X X X   .   o o X   X X - o X - . $ s X . - $ @ @ @ * @ @ @ @ @ s @ % # % & % 4.",
"# X # - > - # . X . X . X X X - $ - X # X - X X F X . . C o . . . . , F 4.- - - $ # - r & * & $ @ $ . @ @ @ @ % @ % 8 8 8 i 8 % ",
"X X - $ # X o X X . X X X X X X # # - # X X X X - X X .   . . . . X C X - - X C y r i i i e 7 & % 7 * @ % # % # % % @ % & % % % ",
"- C - $ @ X X X X X X # - X - # $ C - X # - C # X X o X o X X   . X X X X , - - i V :.a u u r * % & @ @ @ % % % % % 7 % % 7 % & ",
"y ; y r r # # # - # # s - X : : S r : : ; & * * # - o C # X . . S.X X # - - - y V i s Z D i u e ; & % % % % % % a % v % % % 7 7 ",
"S a p i u i ; 8 y i r 7 r r Z c a a i i V y e e ; r ; NX# & X . . X X # - # - t r y c Z v v ;.c z @ & % % b * e & % % % % & 7 V ",
"Z Z S c v c b x x v v { c =.F.Z Z v Z =.Z c S x V Z a S ; # * # # # # ; y - - C c i c { x ;.{ x c q 7 % % % & % & & % % 7 % 7 * ",
";.=.{ Z v v x x v { -.-.-.{ >.H.S =.-.v NXpXc Z -.K.x p r e & ; ; & 7 4.r & r r 7 c x v =.v x x i 7 & r & & 7 6 7 6 e v 7 8 q g ",
"1.;.v :.e u e t r t S.z S.Z Z A iXc v v c z x v v v c c i r & * t r r r r & r r S.e i i c z x u u u e 7 7 ; F.7 e q g h q +.0.e.",
"=.=.p a p p ; e e ; t ; S a V y V a p a Z a e r t K.r r ; * - * * * * * r r y y r i i x i i e e q i 7 7 7 q g >.>. . .0.e.,Xu.t.",
"-.V p t e ; e e ; A.t t V a y V c p a s i e t r a c ; # S.= $ $ = 4 4 > , : > > r i i 7 e 7 a u 8 D ; F.q { { +.+.0.+.e.u.{ 0.g ",
"t V t ; V e e ; e p p V V S.; p a V ;.p c a C > S.s = = F = = = = M.L 5 > , , $ > s r e : ; 7 * : 8 x / >.e.e.{ e./  .x k x g { ",
"V A p p z 7 z t V e p p t S t K.a a a c S > s , , 5 L U E.U T J L T U _.T L 5 , 5 : C $ r & 8 * i x { e.u.d.+.u.{ e.+. .d.g +.+.",
"A z p z z e e A e p e e V ; t C : C y > : , C 4 L L.E.E._.E.E.L.T _.W.{.E.W.Y.U 4 = , : * s b } e.d.%X-XZX%Xu.-Xe.$X0.+.o.{ 6Xg ",
"A =.A A p u u u p p t A t t t V - 5 S.5 5 4 ).E.E._.`.E.T 3 <   < 2 G U.I.{._.E.T.J 5 F M 2.v.a.p.-Xg.*Xi.+.-X%X%X=XMX9X&X>.+.{ ",
"A z A A A z p p e u z u t ; ; - s , L 5 J E.`.}._.Y 3 3 1 +   O O 2 Y G K P K E._.~.^.Q N 3./.^.k.>.#X-X$Xe.%X=X=X=X,X,X%X%X@XVX",
":.=.v :.z ;.A { z u u u , C > F , , 5 (.W. X{.L.3 1 O < < + O 1 G 1 3 + G P H I K W.]..X^.n.v.B 6.$.N JX*.0X9Xi.SX6X#XZX=X,X>X,X",
"A <.Z c D Z p p z u i 8 4 s C C F 4 W ~.`.W.H 1     < P Y 3 2 2 P 1 O + 1 Y < 1 + 1 L. X.X~.m.Q H.C M.^.E } c.c.+.$X=X,XSXqXqX,X",
"1.h.h.D.8Xh.h.{ =.s b s v 7.4.M.OX! ~. XI.K 1 + 1 2 H I K 3 1 1 2 3 + + 1 + H 2 + O < K |. X+Xm b F n.3.F } 7.f.2X5XaXqXqXMXqXqX",
"8XF.f.h.<.0X<.f.@.2.~.5.7.7.A.Q W !.`.T 3 3 < 3 2 2 G U.G 3 3 3 H K 1 O   O 1 2 2 < < 2 I |.`.T.K.B m.N } @.4X8X-XcXfXbXaXqXqXAX",
"Z Z -.{ A -.>.D.<.7.$.! 1.2.S.E XX{.E.G 3   2 3 2 2 G 3 3 G G H H G + + O 1 2 2 1 2 K _.K W.}.`.b.n.OXn.PX@.uXdX5XcXcXaXkX1X>X#X",
"V z z -.-.-.A <.<.<.7.1.1.2.F L.`.{.I 1     2 3 3 1 1 2 3 G G G H 3 + + < < 2 2 1 2 G 3 H Y _.}.~.[ nXxXnX4XCXuXbXuXvX1XwX6Xd.6X",
"D.v z =.<.A -.-.1.1.SX<.:.2.(.W.{.L._.G + < + 1 3 H 2 2 3 2 3 G H G O < O H P I H 2 < < + 2 K }.!.+Xs.-X4XnXrXSXdX1XIXfXeXeXh.h.",
"V c D.z -.{ -.<.D.-.A Z S m Y._.W.K L.< < < < < O + 2 G G 2 2 3 G 2 O 1 < H P I I P K H H 1 + P.].+Xp.z.FX*XIXuXtX;X7XaXwX:Xx.d.",
"C V i <.x SXh.<.h.AXD.;.S m '.}.P.3 3   < 2 O <   +   < 2 H 2 2 3 2 O + 2 3 H H H H K K P H O P. XoXZ.NXc.-Xg.g.7X<X<XeX;X7X:Xj.",
": a z Z A A <.<.9Xd.<.;.F Y.{.}.I.P.+   2 1 2 O <   O   + G 2 3 3 2 + < 2 2 H H H G G G K I 1 I Y.oXZ.OXGXUX;X<X<X7X*XqX1XsX;X7X",
"s t D t A v D.>.<.D.1.N E `.}.U.3 + < O 1 3 < 1 O + +   + + 1 G G 3 O < < + H K H G 3 G I U.3 K 3 ^.cXB.uXuX*X-X<X*Xi.f.,XkX<X1X",
"s x D.a -.D.D.<.D.6XCXD.N. X|.W.P O O O 2 3 3 < 1 1 O     + G G G +   < 2 O + 1 3 G H K P P G H 3 '.OXN.$.} g.aX@.:Xk.;X*Xi.<X<X",
"=.-.{ >.{ { +.6XPXVXeX0XJ.].|.L.P.O O O 2 3 G 2 1 < < 1 < 3 G K 2 1 < < 1 G G H H 3 2 O 1 H G 2 U _./.m O.NX5.,.,.f.*Xh.x.i.i.1X",
",.f.>.-.D.8XD.9XeXCXgXgXGX[.|.T K + + + 3 3 3 3 3 G G H 1 2 G 2 1 2 3 3 2 H K P G O + K I E.K O G `.`.Q b b 7.$.k.g.f.CXx.<X,X,X",
"yX7Xh.h.h.h.&XeXeX6XwX8XnX`.}.H + O O O 2 3 G G G G G 2 3 O 3 2 3 3 G 3 3 3 H K + + H P I Y I 2 + I.E.W N } @.f.c.f.;X<X1X-XlX=X",
"yX7X7X&X>.{ j.&X0X7X8Xz.(. X_.< < + O   1 3 G 3 3 3 H G H 3 + 3 3 3 3 3 2 2 H <   + H K P P P G   T T.Q b $.iX2.NX5.yXc.c.*X*XeX",
"wXyX9X7Xh.6X-.>.>.D.,.H.W [.}.1 < 1 +   3 2 1 1 O O   < O + < 1 2 3 2 < + O         2 H P I I 3   T /.J.B } v } $.} *.V.k.aXwXVX",
"0XwXgX7X&X&X&X>.>.D.;.m U _.}.1 + 3 2 < +     +         O   +   O   + < + + < +       3 I W.Y 1 O R oXB.l.iXk.x.p.V.oXxXbXfXaXsX",
"gXwXgXgXgXwX8Xj.&.7.b m E _.}.G < G G 1 + + O 2 < < O < <     O   O 2 G H 1             K U.Y 1 < _./.m.%.2.k.r.g.k.5X2XaXsXjXmX",
"wXgXZXgXzXhX8Xc.ZXN.H.Q L ~.}.Y < H W.U.O 3 3 < < O + O 1 1 + O O 3 H H 1   1 <   O   + G `.U.1 H `.^.B 6.jX5.p.dXC.C.tXfXsXmXmX",
"KXHXZXHXJXHXvXpXJ.G.G.! ! ~.}.W.1 G I Y 3 G 3 O + + 1 1     + + O 2 2 H <   < < +   +   1 P.P H E.].W %.8.2.@.,.k.dX2XsXtXmXzXaX",
"LXIXLXJXLXJXFXDXOXK.! pX(.(. X}.3 + G 3 1 3 + O O < 1 2 1 O   + < 2 2 G 2 O   O O O     + P 2 3 `.{.W %.$.&.6.c.,.6.H.G.H.8.N.F.",
"jXKXBXBXhXpXDXFXK.! Q ! M.(..X[.P 2 H Y G H G < O 1 1 2 2 2 + 1 3 H 2 + 3 2 O   O O O + 2 3 + P {.~.n.%.b 2.N Q Q 3.7.2.S.7.3.8.",
"dXDXjXgXjXjXrXJ.DXN N.n.m.Q ^.`._.P.I 3 3 W.Y 1 O + < 1 3 3 2 1 < 3 G 1 1 G 1 + O O + 2 1 + G `.].^.E Q N 2.3.3.3.3.8.N.7.7.8.F.",
"rXjXuXuXuXrXuXB.n.%.3.J.B B.v.Q.].U.I.K 3 H P 3 < O   + 3 G 2 2 G < 1 3 O H H 2 + O 1 2 3 H Y }.].}.R.v.pX5.z.z.z.N.C.2XC.2X2XpX",
"uXuXB.2XH.jXB.l.&.#.b C.C.DXV.b.'.}.U.H 3 1 3 H 3 1 O P P I H G P G 1 < 3 3 P H 3 1 1 Y _.U.].!.^.].W n.k.5.uXfXtXtXdXaXmXmXvXmX",
"B.DXZ.V.B.V.V.&.[ ' _ ` l.6.*.v.^.{.{.3 H 1 3 }.1 1 2 G Y P.P K K H 3 < + 1 2 2 {.3 H Y I.{.].).Z.M.%.rXa.2XuXvXfXfXfXfXaXfXmXmX",
"a.l.V.V.a.a.a.p.[ } ` ] [ _ &.*.*./..X'.I.3 1 2 2 + 2 2 K P K P K 3 3 1 + + 1 2 3 3 2 H `.{.!.OXZ.n.a.&.s.3XfXvXfXfXsX5XaXfX1X5X",
"a.s.w.w.w.w.w.w.q.O.] O.[ O.' O.#.#.oX'._.K 1 O   + 1 1 H K K K G G 3 2 + + O 1 G Y Y W.'.).m.uX%.} @.+.@.-XdXfXzX1XaX3X1X3X;Xw.",
"s.p.w.s.q.w.w.w.w.O.q.O.O.[ ' O.#.*.B W Q.].T 1 < O   + 3 H P K G 1 < + O O   1 P.}.}.Q.^.v.%.6.2.5.[ @.r.a.:XtXdX3X:X2X:X%XSX@X",
"a.#X;Xs.p.p.p.q.p.r.O._ _ ' _ _ ' O.#.#.W Q.'._.K 1 + + O 1 3 1 O O +   3 G 3 K E.}..XW B #.M l k.jX} [ &.@.;X:XaX:XwX;Xw.y.t.>X",
"3Xs.s.s.s.UXs.q.q.O.] ' O.] _ ' #.' l *.M B ^.R.!.Y.T G   + + O 1 G 2 G I.Y E.'.Q.R.M.N l k yXl k k ` { ) @.f.i.x.r.i.#Xi.t.@X>X",
"w.s.w.w.s.w.O.q.O.p.#.O._ [ ] [ #.#.#.' l M M m R R Q.Q.R E 4 T T Y.W._.}.'.R.R m M l rXb k g ) d / k ) ) :Xo.o.t.@X@Xt.0.0.,X@X",
"O.y.UXw.q.q.q.w.O.s.O.a.O.] *.' B E ' _ _ ' l M M n L E n n E T.R.Q.'.`.R.E m l V.j k ` j ^ ,.^ ) k ~ ) ..e.t.0.X.t.t.%Xt.t.>X@X",
"O.O.O.O.] O.q.O.q.O.O.O.] ] O.] ' ' ' l j ' _ w w l M n w w n n n B n GX%.= 8 w $.0 0 } k JXg h k / ) O. .( 0.0.0.0.<Xt.eXX.>XlX",
"^ ] O._ _ ' ' ] O...O.O.p.] ] _ _ _ _ _ _ j j f l n T.n w l $.0 w w w w w b 8 8 6 k ;.j g / / { ~ / O...+.) ..| o.9.sXq.X.t.@X>X",
"^ j _ _ l.V.v._ _ ] ] ] ] ^ ^ _ ] ] ^ _ j j j j l w m n l f w 0 0 8 8 % 0 8 N.* 6 8 q h / / { ( / ) j [ q.) ( +.) | 9.X.gX9.>X#X",
"j j j ^ j j V.O.] ] [ ] ^ ^ j _ ^ j j j &.f f f N.f f f f 0 0 0 f 8 w 8 JX6 BX8 9 i 9 h c.F./ BXwX[ W [ ) ) k ) ( e.0...0.#X@X0.",
"j :Xj _ ^ ] ] @.] ] ] O._ _ _ ^ ^ f j f f f l f f f 0 l 0 f f f 0 8 % 6 6 0 b H.q 9 { g / BXF. .{ @.l O... .g.g.X.X. .9.#X0.t.;X",
"f _ ^ j _ l ^ ^ ] ] ..` ] ^ ^ k j j f f f f 0 f f 0 d 0 0 0 0 9 0 % 0 6 % ^ 6 6 9 q 9 8Xd q k F.( r.| X.e.| jX#XX.O.y.0.0.t.%X9.",
"j 0 f f l rX^ ^ O.] ] ] ] ] j j f j l 0 w f f f f ` 0 0 f ^ k.9 0 0 8 +.0 g 6 6 g d 9 h h d g /  .o.e.0.o.t.e.i. . .| ( X.| 9.X.",
"6 0 d f f f ^ ^ ^ ^ ^ ] _ ^ j j f f f n m 0 f f 0 f j 0 0 f 9 8 z.k 6 % 9 gXq 6 q h h g h h h h  .+.o.yXo.X.X.0.~ gX~ ( ( X.] i.",
"6 f 0 f j f j j ^ ` _ ` ^ j j l f f f l.w rX0 0 0 0 9 0 f 9 6 6 % 9 d h ~ q yXq q 9 & sX9 8X} ( o.o.( ( X.X.~ X.| X.X.x.~ ( | X.",
"f j 6 0 f f f j j ^ j [ _ j f j f 0 0 % 0 l d 0 0 f f 0 g 0 d d d 9 h 6 9 d g h d d 9 BXIX . .X. .( / ) ~ ( ( X.X.( | ( 9.( X.X.",
"0 0 0 f 0 0 0 f j j _ 0 f j } 0 f f 0 0 f 9 f 0 d 0 d 9 0 d h h d h 9 6 ~ h h d ~ d h ~ o.o.i.e.( ( X.| X.( X.+.| | ( | | X.9.X.",
"0 0 0 0 f 0 0 l f k s.j k j f f f 0 f f d 0 f l f f f f k d g h d 9 d q ~ j h 7X~ ..g |  .| X.o.X.t.0.9.( ( X.X.X.| X.o.X.X.X.X.",
"0 0 f 0 j _ 9 j j f l j f j f j f f j d j f f f f d f | ~ h h d h h h 9 h ^ ZX) 8Xh ( | 9.X.X.X.hXzXX.( | t.| X.9.X.X.X.9.9.KX9."
};
