/* XPM */
static char *result[] = {
/* columns rows colors chars-per-pixel */
"64 64 256 2 ",
"   c #020407",
".  c #03060A",
"X  c #04090D",
"o  c #09090D",
"O  c #020614",
"+  c #050C13",
"@  c #0A0C17",
"#  c #02061A",
"$  c #040B1C",
"%  c #160C19",
"&  c #081317",
"*  c #04131C",
"=  c #0A121C",
"-  c #17141C",
";  c #330A11",
":  c #24131B",
">  c #030324",
",  c #030B22",
"<  c #0A0925",
"1  c #02032C",
"2  c #0A042D",
"3  c #020B2C",
"4  c #15052A",
"5  c #031324",
"6  c #0A1423",
"7  c #021A25",
"8  c #0A1A25",
"9  c #04152C",
"0  c #0A142B",
"q  c #031A2C",
"w  c #0A1C2C",
"e  c #171827",
"r  c #030434",
"t  c #0B0433",
"y  c #030B34",
"u  c #02043B",
"i  c #0C043B",
"p  c #07093A",
"a  c #160737",
"s  c #13043C",
"d  c #031C32",
"f  c #061836",
"g  c #0B1B33",
"h  c #0B1C3B",
"j  c #151B37",
"k  c #360E2F",
"l  c #261726",
"z  c #2A0935",
"x  c #271837",
"c  c #05222B",
"v  c #182429",
"b  c #03223C",
"n  c #092338",
"m  c #162536",
"M  c #14323E",
"N  c #2E2836",
"B  c #4D0000",
"V  c #580000",
"C  c #59090F",
"Z  c #550D15",
"A  c #620000",
"S  c #6C0000",
"D  c #660A0D",
"F  c #770000",
"G  c #71070A",
"H  c #6E0C18",
"J  c #51112E",
"K  c #471436",
"L  c #6C0F30",
"P  c #502737",
"I  c #6D2F3B",
"U  c #020544",
"Y  c #0E0443",
"T  c #020A43",
"R  c #02044D",
"E  c #030B4B",
"W  c #0C084A",
"Q  c #110645",
"!  c #190946",
"~  c #12064B",
"^  c #14094C",
"/  c #071846",
"(  c #181648",
")  c #020454",
"_  c #030B54",
"`  c #02035A",
"'  c #030A5B",
"]  c #0B0858",
"[  c #130654",
"{  c #160858",
"}  c #06175A",
"|  c #171955",
" . c #250946",
".. c #261B47",
"X. c #341A47",
"o. c #281858",
"O. c #301558",
"+. c #0C2343",
"@. c #082548",
"#. c #172847",
"$. c #092856",
"%. c #182959",
"&. c #0A3459",
"*. c #153350",
"=. c #27294A",
"-. c #262658",
";. c #382754",
":. c #313250",
">. c #383857",
",. c #010364",
"<. c #040A67",
"1. c #170A62",
"2. c #1B0D6C",
"3. c #091767",
"4. c #191665",
"5. c #060C76",
"6. c #140776",
"7. c #061575",
"8. c #151A73",
"9. c #251769",
"0. c #341B68",
"q. c #261775",
"w. c #0B2966",
"e. c #1A2669",
"r. c #093366",
"t. c #0E366F",
"y. c #182677",
"u. c #193678",
"i. c #2C2766",
"p. c #392667",
"a. c #3A3667",
"s. c #262678",
"d. c #303374",
"f. c #4C1646",
"g. c #492448",
"h. c #522E4D",
"j. c #682F51",
"k. c #483968",
"l. c #4E3272",
"z. c #6D3C6D",
"x. c #134650",
"c. c #334450",
"v. c #0D4876",
"b. c #33466E",
"n. c #42464D",
"m. c #5E5E6C",
"M. c #4E4B70",
"N. c #6B4C76",
"B. c #810000",
"V. c #8A0000",
"C. c #84090D",
"Z. c #940000",
"A. c #9E0000",
"S. c #97080E",
"D. c #8E0819",
"F. c #A80000",
"G. c #A2070A",
"H. c #B10000",
"J. c #BA0000",
"K. c #B8080D",
"L. c #A50617",
"P. c #B70714",
"I. c #AF111A",
"U. c #93132D",
"Y. c #B01227",
"T. c #8F3138",
"R. c #A4242C",
"E. c #C30101",
"W. c #CB0000",
"Q. c #C7050C",
"!. c #D30000",
"~. c #DB0000",
"^. c #D5050C",
"/. c #C90916",
"(. c #D80713",
"). c #CC131A",
"_. c #E50000",
"`. c #EC0000",
"'. c #E3040B",
"]. c #EB080D",
"[. c #F40000",
"{. c #FD0000",
"}. c #F20409",
"|. c #EB0C12",
" X c #D21729",
".X c #DB262A",
"XX c #922855",
"oX c #DC3948",
"OX c #9C535A",
"+X c #8C4875",
"@X c #060985",
"#X c #0B158B",
"$X c #091A96",
"%X c #0A2587",
"&X c #123489",
"*X c #092798",
"=X c #172694",
"-X c #382A83",
";X c #2A328E",
":X c #373793",
">X c #0810AB",
",X c #0F2DAB",
"<X c #2739A7",
"1X c #3036A9",
"2X c #443887",
"3X c #4D3897",
"4X c #72388C",
"5X c #5039A3",
"6X c #673AA4",
"7X c #12478D",
"8X c #354D8E",
"9X c #284499",
"0X c #126B9E",
"qX c #38699D",
"wX c #154CB3",
"eX c #3351A8",
"rX c #3269B3",
"tX c #504B92",
"yX c #634789",
"uX c #6A5195",
"iX c #546F8D",
"pX c #757390",
"aX c #5150AD",
"sX c #6755A4",
"dX c #7153B0",
"fX c #4A65AC",
"gX c #5A66B0",
"hX c #6F6DAE",
"jX c #3D65C3",
"kX c #4C68C3",
"lX c #756EC3",
"zX c #843C94",
"xX c #BB658E",
"cX c #8454A4",
"vX c #896EB2",
"bX c #A664AF",
"nX c #C86C90",
"mX c #856EC6",
"MX c #118ABC",
"NX c #66949D",
"BX c #5989B6",
"VX c #7484B1",
"CX c #3697D3",
"ZX c #5FA0D2",
"AX c #2FD3EE",
"SX c #67D7ED",
"DX c #948BAB",
"FX c #A990A0",
"GX c #ACAAB5",
"HX c #9497CC",
"JX c #AAB1D1",
"KX c #A5A7E0",
"LX c #C5B7C8",
"PX c #AACBDA",
"IX c #8EDEE2",
"UX c #B3CCE8",
/* pixels */
"X X X X + + . X . .     X     X X X o X     X   X X         :   X   X X & X X X X X - o X X o o e O   O X . O 6 O . O O O N 6 O ",
"X X o o X X X . . X   . X X X X X     X X X X X X       o     o       X - X o o   @ 8 X O & O O O O @ O O O O O 0 . @ # # @ O >.",
"+ X + & - & + . X . . X X X X & + + X X X & X X N X o   v o   .   X - N c.& & & + & = 0 * $ $ + + O O O O O # O # < $ < < 0 , # ",
"X + o & + X o X X . . X X X X X + + = & X + . X & . o X     X     X v & X & & v 6 6 0 e 0 , 6 $ # = @ O # O + # O # O # $ # # # ",
"& v @ & X X X X X . + o & X & + & c & X + & v + X & @   X X X   X X X X X & & & 8 w #.w 9 0 6 $ # # O O O # $ # $ O > # $ , # $ ",
"8 * 6 6 6 + + X = + + 8 + & = & v 6 = = * $ = * X + o v + X X   c.X X + & & & 8 w 7 c c #.9 0 5 5 $ # # # # $ $ 0 # b # # # , , ",
"n w c 0 0 0 5 < 8 6 6 , 6 9 n w 0 j 8 w c 8 7 , * 6 * NX+ $ X .   X O + & + & c w 0 w m n n #.g q + $ # # j $ $ , $ # # $ , , w ",
"n m n g h g j f f h h / g m b.+.n n j / n g m 0 c n w m * + + $ & + + @ 8 & & v 0 9 h / h +./ f f 3 , # # # $ # $ $ # # , # , + ",
"#.+.n h h h p f h / @.@.@.@.$.M.n @.@.h NXpX0 h d iXf d 5 5 $ 5 $ , 6 :.6 $ 6 = , g h h +.h f f 9 , $ 5 , + , > # , , j 3 3 3 y ",
"*.#./ *.3 7 7 7 6 7 c.d c.h n n iXg j j j 0 j j h h 0 0 7 0 @ $ 6 * 6 6 5 $ 6 6 c.5 0 9 h 0 f 9 0 9 , , 6 5 b.3 3 3 y T 5 _ <.3.",
"+.+.w q w 7 * 7 7 * 7 * m 7 w 7 c e e Z x l : e 8 m.6 6 = @ % % % = & = 6 6 6 v 6 0 0 0 0 7 5 7 3 6 $ 6 , 3 y @.$.E _ <.3.,X7.7.",
"+.c 7 7 7 * 5 5 * x.7 7 c w w w w 9 v k l Z G.l e w 6 @ n.% o @ % - % % - - - : e e 0 3 5 < w 6 0 M 5 b.3 T / } } <.} 3.7./ <.u ",
"7 c q * n * 5 * 5 q q q c c.* c w v #.w v l l - n.e - o N % : ; ; h.; : - : : Z D e 6 7 = * < $ $ < f T $.3.3./ 3.E E f y T 9 T ",
"c d d q d $ d 7 c 7 7 q 7 n 7 m.w w w j v - l - : : ; Z D G G.H.E.!.K.Q.C.C ; C Z : l $ 6 + 6 < 0 f ( 3.7.w.} 7./ 3.} } r.y ' $.",
"d c d d d 5 9 d 7 7 7 7 * & * m 7 w 8 - - l : Z D C.S.G.K.J._.`.`.{.[.`.Q.^.A.C.Z : % % % 6 l | } e.%X=XZX%X7.=X3.$X3.} } E 7Xy ",
"b +.b b d 9 9 9 d 9 7 n 7 c 7 c & - n.: : ; T.G.Q.^.W.W.F.F.A.B.S V B.H.!.`.^.J.G C Z N k ;.L q.8.=X%X&X8.} =X*X%X%XMX0X%X$.} / ",
"b b b b b d 9 d 5 9 d 0 l = 7 & - v : N G E.~.}._.H.Z.F.Z.H.J.F.F F F.A.Z.H.E.E.Q.P.^.I.J g.U.O.i.$.#X=X$X3.*X&X$X,X,X,X%X%X#XCX",
"@.+.b @.c #.d @.9 q q 5 - v & N - : ; R.!.`._.F A F.E.E.E._.{.`.`.[._.W.W.W.W.Z.A.^.].|.Y.g.g.L g...( PX| qX0X8.AX7X#XZX*X,X,X>X",
"n *.n b M n d q d q q 5 5 c v l P N S._.`.!.; V V J.`.[.[.`.`.[.[.[.[.{.[.{.`.W.J.Z.F {.|.U.h.P M.x h.:.( ( d.M.} #X*X,XSXwXwX,X",
"v.w.r.b.8Xt.t./ / d f d d *.>.j.T.T.I.].W.F Z.F W.J.[.`.{.{.[.{.`.[.`.{.[.{.[.{.W.B V B.[.).nXl l N g.*.v h e.%.3X6XsX<XwXMXwXwX",
"8Xb.e.t.$.qX&.w.$.$.$.r.v.*.=.h.D.'.}.H.F F ~.!.`._.`.{.[.{.`._.~.`._.{.[.`.[.[.F.W.F.A.H.'.G.H yXN P x ( -.3X:X<XcXcXbXaXwX,XAX",
"@.n @.+.b $.$.v.&.&.@.r.x.#.c.J .X~.~.V.H.H.E.W.J._.[.[.{.`.!.~.!.~.`.!.[.~.[.W._.~.E._.A.H.(.K.j.g.+XO.IX| uXsX3XcXcX1XjX1X*X$X",
"q q d / @.@.b &.&.&.&.&.*.#.l C.K.^.F.!._.{.`.W.~.J.`.{.[.~.!.~.!._._.!.W.!.W.E._._._.W.Z.F E.'.L.z nXxXxX4XZXuXbXuXvX1XeX7X3.7X",
"b.b f +.&.d +.*.r.r.IX&.*.=.n.S.Q.E.!.`.`.{.[.{.!._.[._.~.!.!.!.~.`.~.E.!._._.~.`.`._.!.J.B.V ~.`.oX9.-X4XxXyXSXdX:XUXdXrXrXu.t.",
"c d v.d @./ @.&.v.&.@.M j l H G.E.F.E.`.{.{.[.[.[.{.{.[.~.!.!._.[.~.E.F.W.`.~.[._.`.`._._.J.V A }..Xp.l.GX&XPXuXtX;XeXaXeX-Xs.$.",
"v c q &.f SXt.&.t.CXv.@.j N P.~.A.A._.{.[.[.{.`._.{.~.W.`.`.~._.W.W.A.!.~.E._.~.`._.`.[.`.J.S S ]. XXXpXp.;X%Xy.9X<X<XrX;X9X:Xu.",
"= c f n +.b *.&.0Xr.&.+.m C.^.}.~.W.{.{.[._.J.H._.[.`.`._.[.{.E._.J._.[.J._.`._.~.`._._._.E.F B G.].R.+XGXLX;X<X:XeX%XwX1XjX-X9X",
"8 w n 7 c h v.&.&.v.&.M v I.`.A.S !.`._.`.E.E.J.H._._.[.!.`.!.[.~.[.{.`.W.{.[.[._.`.`.`.`.E.F.V V }..Xj.4X4X;X=X1X=Xw.8.=XjX<X1X",
"e h v.w / v.v.&.v.7XZX7Xd. X}.G F E._.`.~.W._.~._.E.E.~.[.`.~.`._._.!.J.~.{.`.`.[._._.!.W.F.A.A ; `. Xj.X.( e.tXo.2Xp.d.=X8.<X<X",
"+.+./ w./ / $.7XIXCXqXqXm.XX(.Z.H.`.[.`.[.{.W.`.!.J.J._.{.{.{.[._.!.`.`.`.`.{._.`.~.H.W.~.`.`.H.A ~./.K  .BX-.-.J i.&Xu.-X7.8.1X",
"%.%.&.@.v.8X7XwXrXBXuXyXGXOXoXH.W.`._._.`.~.[.{._.~._.{.[.`.`._._.!.~._.~.[.{.{._.`.~.`.`.{._.H.V.!.^.L x j :...d.q.4.CXs.<X,X,X",
"tX9Xt.t.r.v.&X0XrX7XtXl.nX(.{.V.A.E.E.!.J.E.[.[.[.`.{.[.`.{.[.~.`._.W._.`._.[.[.[.!.W.W.!.`.[.!.G !.Q.H x ( | i.d.e.;X<X<X=XkX=X",
"tX7X9X&X$.$.t.&XqX9X8Xa.U.`.`.; V !.{.{.[.J.!.!.[.`.`.[.{.{.[.[.`.!.!.!.~.{.{.[.{.W.W.W.!._.[.`.F.E.Q.L x x iX%.BX-.8Xb.;X&X&XeX",
"eXaX0X9Xy.v.$.$.$.v.%.M.L .X[.S F.`.{.[._._.`.!._._._.`.[.[.{.`.{.[.[.[.[.{.`.`._.W.W.W.!.!._.[.H.Q./.+XX.( h k -.+.%.-Xi.aXeXCX",
"qXeXfX9X&X7Xu.$.$.t.#.l Z S.'.V F.[.`.{._.[._._.!.W._.`.[.[.{.[.`.{.{.[.[.{.[._.`.[.~.~.~.!.~.[.H.Q.).j.;.iXp.s.0.d.cXbXvXdXaXaX",
"fXeXfXqXqXeX8Xu.o.:.x l J Q.}.B.Z.W.[.~._.`._.[.W.!._.`.{.{.[.{.`.{.[.[.{.[.[.W.~.{.{.{.`.[.`._.W.`./.T.f...i.9.8.s.5X:XaXaXhXmX",
"eXfXZXfXhXfXeXd.ZXn.m.P Z Q.`.F F F.~._._._.`._.!.`.{.{.{.[.{.[.{.{.{.[.{._.!._._._.`.[.!.!.~.J.A./.Y.L h.hX=.4.sXd.2XtXdXdXmXmX",
"JXHXHXHXJXJXpXvXN.z.j.I I I.`.!.A F F.W.{.W.W.{.~.{.[.[.[.[.[.`.`.[.[.`._.~.W._.!.E.W.J.H.H.A.Z.H.'.L.k >...( %.i.dX2XsXtXmXlXaX",
"PXUXPXPXJXJXGXFX+Xm.j.pXT.R.|.[.B V Z.F.W.E.!.{._.{.`.{.`.`.`.[.`.{.{.{.~.~.W.[._.!.~.~.~.J.S F ^./.J X...-.O.8Xe.>.N.n.M.k.k.b.",
"VXHXBXlXgXiXDXGXm.I P I I T. X{.V.V A.J.J.J.E.{.`.{.[.{.{.[.`.`.[.`.{.{.E.E.`._._.`.`._.W.F.S F '.Y.h.X.=.x x =.=.:.*.=.>.#.;.>.",
"sXvXhXtXhXhXtXN.DXx k.P P h.U.(._.V F.J.!.~.E.`.`.{.{.{.{.{.[.[.{.[.{.{.[._._.E._.[.~.W.E.A.A H.(.U.K N x =...:.=.=.i.M.=.:.>.b.",
"yXhXuXsXuXtXuXk.g.X.X.uXX.j.f.P.`.E.S F F.~.!.~.`.{.{.{.{.{.[.`.[.{.{.[.!.~.E.~._.~.!.!.F.F V.}./.^.K X.VX-.k.a.a.k.l.l.M.:XM.sX",
"N.uXM.l.l.hXl.h.O...( l.l.DXj./.(.[.F A B.!.`.~.[.[.{.{.[.{.[.[.`.!.`._._.E.W.`.{.!.E.J.F A }.Y.XXh.;.i.-.o.sXsXyXyXdXaXmXlXmXbX",
"l.DXz.l.l.l.l.o.^ ^ i ^ p.;.f.f.U.(.`.F A !.`.~.`.[.{.{.[.`._.[._.W.E._.~.!.W.`.{.W.A.F A ~.(.R.j.a.o.tXp.d.sXcXdXzXdXdX6XlXlXmX",
"0.0.l.l.0.p.0.1.[  .s ^ [ ! 9.L L |.|._.H.Z.A._._.`.[._.`.[.`.[.`.`._.`.[.`.`.`.E.B.V V F.'.P.+Xz.p.-.O.s.2XdXvXdX6XdXaX5X6X1XaX",
"s.q.2.4.1.q.2.2.1.[ !  . .[  .f.L L U.(.`.B.F E.W.[.`.~.W.E.!._.`.!.{.`.`.E.E.F.B.V.; J.'.).P uX..| | | { =XsXcXhX5X3X3X1X5X-X8.",
"q.9.2.q.2.2.2.2.2.1. .f. . .^  .{ f.X.D.'.}.W.A.Z.`.`.J.E.E.E.W.E.~.`.~.E.V.S V B S !.'.Y.f.f.;.=.-.^ | 4.d.2XtXsX5X:X:X:X%XSX@X",
"q.q.-Xq.2.0.9.1.9.1.{ ! ! ! s Q ~ {  .z L L.~._.H.A.V.V.V.Z.A.A.Z.F.B.Z.A S ; B H.}.).D.J K  .a i.hX( ^ o.1.-X:XtX:X:X:X8.6.5.>X",
"5Xq.9.q.q.JXq.1.1.^ ~ ^ !  .! ! ! a z ;.z J L.P.^.~.F.A V A A S S Z.F S B.F.E.[.^.L.j.H }.D.M.s p p Q / Q } i.8.s.3.8.#X6.7.@X$X",
"2.q.2.2.q.2.{ 2.1.9.[ [ ! L z ~ [ ^ Q ! s z z J D.^.~.`.[.W.H.F.E.E.E.`.P.^.^.G.J z z N.k z s / r T p W W 8X' ' @X6.5.5.<.<.$X>X",
"[ 2.UX2.1.1.1.1.{ q.[ d.[ [ O.~ ~ ~ ! Q s s z z z k H D.S.D.L.P.L.Q.K.K.H J k z h.! s s Q p %.Y E i T W ] <.5.,.) 5.@X%X5.5.>X@X",
"{ [ [ [ ~ 1.1.{ 1.{ { { ~ ~ ~ [ ~ Q Q ! s  .Q a z 4  .z : z k k k K k GXX.4 4 4 ..4 < | i JXy i p T T { _ R <.5.<.<.<X5.rX' >XkX",
"~ ~ [ Q Q Q Y ~ { [ { { 9.~ ~ Q Q Q Q ! s s s t 4 4 4 4 a z X.4 4 4 4 4 % a 4 < 1 t =.r y p T E E U { ] } W ] ) ' ,.aX,.] 5.@X>X",
"Q i Y ~ s.k.0.Y Q ~ W ~ [ s i Q Q ~ s k J a t s t t 2 t a t 4 4 4 > < % 4 4 k.$ > 2 3 u T U / E T _ T _ 4.E R } W ) <.] eX6.,X#X",
"i Y i i Q i d.~ ~ ~ ^ ~ Q Y i Q Y i s a O.a t t k.t t t t 2 4 2 t < 2 < JX4 VX# 1 < 1 u d.b.E VXeX_ E E E T U T R 3.<.] ,.@X@X<.",
"i -Xs Q ~ ~ [ o.~ ~ ~ [ Q Q Q Y Q t i t t 2 t i i r 2 a 2 t t t 2 4 # # < < 0 tX9 1 / y T BXb.E / } E _ _ ] s.y.] ` _ ,.#X<.5.;X",
"t Q Y i i s Y Y ~ [ [ ^ ~ Y Y s s i t i 2 t 2 t t t 2 2 2 2 2 1 2 > 2 > > p > > 1 1 3 8Xr 3 u b.E 3._ ` 3.' gX#X` ] 6.<.<.5.=X` ",
"t r t t i yXY Y ^ W Q ~ W Q i i i i t 2 2 t t r t s t 2 t Y i.> 2 > < } 3 r > > y y r u r r y T } } <.<.<.3.<.y.` _ ` R ) ) ,.` ",
"1 2 t t t t Q Y Q Y Q ~ Q Q i i i 2 t i 2 3 2 t 2 r t t 3 t > 2 a.p , > 1 fX3 > 1 y u y U u u u _ _ <.tX' ) ` ,.U fXU R R ` R y.",
"> 2 2 t i t t i Y Q Y ~ Q p i i t 2 t p.t uX2 2 2 2 2 r t 1 2 1 > 1 1 r U 1 iX1 1 3 $ aX> 8X( _ ' ' R ) ) ) U ] ) ) ` s.U R R ` ",
"t t > 2 t t t i s p i ^ s i t i t 2 2 # 2 a r 2 2 2 t 2 p 2 r r r 1 r > 1 1 r u r r 1 VXUX_ ) ' _ R T R R R R ) ) ) ) R ,.R ` ) ",
"2 t 4 t 2 2 2 i i i Y a t i ( 2 r i 2 2 t 2 t 2 2 r t r 1 r r u r u r , R u u u U r u U } <.3.3.R R ] ) ) R ) <.) R ) R ) ` ,.` ",
"2 2 2 t t 2 2 i t t q.i t i i t t 2 t t r t 2 i i t r t t y u u r 1 r 1 U i r 9XU ] r ) ) ) ` ' ) 5.,.,.R ) ` ) ) ) ` ' ` ,.` ` ",
"< t t 1 u ! 2 i i i i i t i t i t t t r Y 2 t t t t t R R u y r u r u r u Y ZXW 8XU R R ,.` ,.` gXlX` ) ) 5.) ` ,.,.` ` ,.,.KX,."
};
