/* XPM */
static char *result[] = {
/* columns rows colors chars-per-pixel */
"64 64 256 2 ",
"   c #060101",
".  c #03060A",
"X  c #04090D",
"o  c #09090D",
"O  c #100000",
"+  c #180000",
"@  c #020614",
"#  c #050C13",
"$  c #090B15",
"%  c #02061B",
"&  c #040B1C",
"*  c #0B0D1A",
"=  c #1A0B18",
"-  c #081317",
";  c #04131C",
":  c #0A121C",
">  c #12131C",
",  c #1A151B",
"<  c #200000",
"1  c #290000",
"2  c #320000",
"3  c #3B0000",
"4  c #2D0F18",
"5  c #030324",
"6  c #030B22",
"7  c #0B0825",
"8  c #03042C",
"9  c #0A042D",
"0  c #020B2C",
"q  c #15052A",
"w  c #031323",
"e  c #0A1423",
"r  c #021A25",
"t  c #0A1A25",
"y  c #03152B",
"u  c #0A142B",
"i  c #031A2C",
"p  c #0B1B2C",
"a  c #161926",
"s  c #030434",
"d  c #0B0433",
"f  c #030B34",
"g  c #02043B",
"h  c #0D043B",
"j  c #07093A",
"k  c #160738",
"l  c #031C32",
"z  c #061836",
"x  c #0B1B34",
"c  c #0B1C3B",
"v  c #161937",
"b  c #340A2D",
"n  c #251A29",
"m  c #250936",
"M  c #271839",
"N  c #381738",
"B  c #06222B",
"V  c #192429",
"C  c #092236",
"Z  c #04223B",
"A  c #162537",
"S  c #14323E",
"D  c #2D2737",
"F  c #450000",
"G  c #4E0000",
"H  c #4C060E",
"J  c #580000",
"K  c #4E0C16",
"L  c #620000",
"P  c #6C0000",
"I  c #770000",
"U  c #770609",
"Y  c #6A0D10",
"T  c #7A0A15",
"R  c #4B102E",
"E  c #6C102F",
"W  c #4D2737",
"Q  c #723239",
"!  c #030544",
"~  c #0E0442",
"^  c #030A44",
"/  c #02044D",
"(  c #08094B",
")  c #110645",
"_  c #120944",
"`  c #1A0943",
"'  c #11064B",
"]  c #14094C",
"[  c #071846",
"{  c #191748",
"}  c #020353",
"|  c #030B54",
" . c #0B0857",
".. c #02035A",
"X. c #030B5B",
"o. c #130653",
"O. c #150957",
"+. c #06175A",
"@. c #181956",
"#. c #2F0D4B",
"$. c #261948",
"%. c #371A46",
"&. c #281858",
"*. c #0A2447",
"=. c #192845",
"-. c #163147",
";. c #092855",
":. c #182859",
">. c #0A345A",
",. c #143456",
"<. c #27294A",
"1. c #31324F",
"2. c #272557",
"3. c #382856",
"4. c #383958",
"5. c #010364",
"6. c #050A67",
"7. c #190B67",
"8. c #081767",
"9. c #191765",
"0. c #060C76",
"q. c #140776",
"w. c #061575",
"e. c #161A72",
"r. c #241669",
"t. c #341B68",
"y. c #251776",
"u. c #0B2965",
"i. c #192768",
"p. c #0A3366",
"a. c #0F366F",
"s. c #162677",
"d. c #183678",
"f. c #2B2868",
"g. c #382465",
"h. c #363568",
"j. c #272577",
"k. c #303275",
"l. c #4E1847",
"z. c #462448",
"x. c #582547",
"c. c #503351",
"v. c #6B2B4F",
"b. c #522E6D",
"n. c #453867",
"m. c #473A78",
"M. c #672D60",
"N. c #134650",
"B. c #354550",
"V. c #0D4876",
"C. c #33476D",
"Z. c #6A435A",
"A. c #525E67",
"S. c #4E4D71",
"D. c #684D76",
"F. c #810000",
"G. c #8A0000",
"H. c #83080C",
"J. c #940000",
"K. c #9E0001",
"L. c #96070C",
"P. c #85071B",
"I. c #95071A",
"U. c #8B1118",
"Y. c #AA0001",
"T. c #A2060B",
"R. c #B10000",
"E. c #B90304",
"W. c #A60517",
"Q. c #B70916",
"!. c #AA121A",
"~. c #911129",
"^. c #AE132A",
"/. c #89303A",
"(. c #AF222C",
"). c #C30204",
"_. c #CB0000",
"`. c #C8050C",
"'. c #DD0102",
"]. c #D50308",
"[. c #C30915",
"{. c #D70814",
"}. c #E30102",
"|. c #ED0001",
" X c #E5060B",
".X c #F30204",
"XX c #FB0102",
"oX c #E40812",
"OX c #CD1329",
"+X c #DA2B2E",
"@X c #902F4E",
"#X c #9E375F",
"$X c #D22749",
"%X c #92546D",
"&X c #D34E52",
"*X c #060985",
"=X c #091A86",
"-X c #0C1591",
";X c #102F89",
":X c #173687",
">X c #092798",
",X c #172695",
"<X c #2D2F8C",
"1X c #37388C",
"2X c #373694",
"3X c #0810AB",
"4X c #0F2DAB",
"5X c #2C37AA",
"6X c #453789",
"7X c #4F3A99",
"8X c #70388E",
"9X c #5938A4",
"0X c #11488B",
"qX c #284498",
"wX c #344F92",
"eX c #1F6C9C",
"rX c #154CB4",
"tX c #3252A7",
"yX c #316BB2",
"uX c #4F4E8F",
"iX c #574497",
"pX c #684E92",
"aX c #516E91",
"sX c #757490",
"dX c #5150AE",
"fX c #6D53AE",
"gX c #4C66AD",
"hX c #6F6CAE",
"jX c #3D65C3",
"kX c #476EC3",
"lX c #756EC3",
"zX c #964883",
"xX c #BB668E",
"cX c #8556A6",
"vX c #8973AD",
"bX c #A664AE",
"nX c #CA6491",
"mX c #856EC6",
"MX c #118ABC",
"NX c #5F93A6",
"BX c #7285B3",
"VX c #338CCF",
"CX c #5F9BD3",
"ZX c #53ACCA",
"AX c #2FD3EE",
"SX c #6DD7F1",
"DX c #948BAC",
"FX c #9D9DA9",
"GX c #AE9BB2",
"HX c #9497CC",
"JX c #ADB1CD",
"KX c #A5A7E0",
"LX c #C4B9CA",
"PX c #AACBDA",
"IX c #8EDEE2",
"UX c #B3CCE8",
/* pixels */
"X X X X X X X X X .   . .   . X X X X . .   X X . . o   .   V   .   X X - o X X X X > # X X o @ a @ . o . . @ * @ . @ @ & D : @ ",
"X X o o # # X X . . . . X X X X X   X . X X X X X . . . . .   o X   X o , o X X . $ a X . : # @ @ . * @ @ @ @ % a @ # % % % # 4.",
"# X # - > - # . X . X . X X X - # # X # X X X X D X . . V o . . X X V V B.X - - # # : e ; & & % @ @ @ @ @ @ @ % % 5 * 7 7 u 6 % ",
"X # o - # X o . . . X X X X X X - # - # X - X X - . X .   . .     X V X X - - V t e u p u 6 e # & * * @ % # % # @ % @ % & % % % ",
"- V : $ X X # . X X X $ # X - # - V - . # # V # X X o . o . X . . X X X - t - - t p -.p y u w * % & @ @ @ % % % & % 6 % & 6 % & ",
"t ; e e e & $ # : $ X t - - - - A e * : r - & - - - o V # X . . B.X X # X - - t p i p p =.y u ; 6 & % % % % & & u % c % % % 6 % ",
"C p B u i u ; 6 t w e 6 e y C x p p t t B t w 6 ; e ; NX# # # . . X # # # - - B t p u A C x =.z i % & % % v & & & % % % & & 6 C ",
"C A C x v l v z z c c [ x C C.=.c c c *.x x A x B x B A ; # & # # # # - a # # V u y x *.[ *.*.z z w 6 % % % & & & & % % 6 % & & ",
"=.[ *.c [ z z z c [ *.;.*.*.;.S.A *.*.c NXsXz c *.A.x l e 6 & e ; 6 e 1.a * e 7 & u z c [ c z z z 6 & e & & 6 6 6 % 6 A 6 0 f f ",
",.=.c -.w y w w e r B.i B.C Z c aXx c x x y x c [ c u p i a $ : e w e : e * e e B.u u z x z z u w y 6 w 6 & C.6 y 0 f g 0 | 8.8.",
"*.S i i p r ; r w r r ; V B t r B x p i C t w u r A.e e > = H = * : : * e e e t w u u u u i w y 6 u & 6 7 0 f ;.+.| ^ 0.8.4X0.8.",
"*.i r i r ; w ; ; N.w r B i t B p y x a t y t w p A = $ B.4 H = = = > * > > > t e u u w w * p w 7 S w C.0 [ [ X.+.8.+.8.8.| 8.g ",
"r B i ; C w ; w w i i i i B.; B p a -.i x p a : B.n = 4 D = 4 4 4 c.= , = , , - > a r w : ; & 6 e 7 z [ [ u.8.[ +.| [ j j [ f z ",
"B l l i l & l r B w i i i C B A.p a p x V , a , 4 4 Y H.L.K.Y.E.T.).H.T.T K 4 = a > n $ e * > q 7 c ] +.=Xu.8.w.[ +.8.[ u.f | 8.",
"l i i l l w w l r y r w r ; ; A t B t , > , 4 Y T._.'.}.}.'.}.'.}.|.).'.).E.L.Y K = , > > a K %.7.z.=X,XZX=X8.,X8.>Xu.+.+.[ V.f ",
"Z *.Z Z y l y l i i r C r B ; B > , B., , K (.]..XXXXX}._.Y.G.I F.J.U K.Y._.E.).K.H.4 D m :.&.y.e.<Xs.:Xe.+.,X>X=X>XMXrX;X+.u.[ ",
"Z Z Z C C l i i 6 y l y r ; ; - V , , 4 U `. X.X}.E.K.J.G.K.F.L F L I J F.J F.Y. X].!.E M 2.f.7.i.:.-X=X>X8.=X<X-X4X4X4X=X>Xw.VX",
"-.*.*.=.n E C [ l y l w r B , V , , n (. X.X XE.F.I E.F.3 < 1 1 + < 3 L G 3 J P G._. XOX^.z.%.M 2.$.=.PX{ gXeXE ZX0X-XZX>X4X4X4X",
"B ,.C v D D i i l l i w w B V n D W U.`..X_.G.L G 2 2 <   O < <     + + < + 3 J I J.R..X{.^.W W A.M c.1.{ [ h.m.@.=X>X4XSXrXrX4X",
"a.p.p.V.wXa.i.[ c l z B l ,.1.Z.#XU.{. X'.G.L F + O     O + I 3 O O < 1 1 2 G F J I J._..X X&Xb v N 1.<.v A i.i.7X9XfX5XrXMXrXrX",
"wXC.i.a.;.eXp.:.*.;.p.u.a.1.-.W U.`. XR._.J.J + O           O O O + 1 3 G J Y.I 3 F F.Y.E.XX.XT uXD W m { @.8XqX5XcXcXbX9XrX4XAX",
"Z C *.*.C *.,.V.>.>.*.p.N.-.B.R +X|.}.F.L.U 3 O O   O O O       O + 3 3 1 + < < < + 2 P Y.|..XQ.v.W %X3.IX@.pXpX7XcXcX5XjX5X>X>X",
"i l l [ *.*.*.>.>.p.>.>.,.=.a 4 H.).)._.I 3 3 + O   O   O           + F 3 1 1 3 < + 1 G J..X}. X`.$.nXxXnX8XZXiXbXpXvX5XtX0X8.0X",
"C.Z c Z >.Z *.*.>.p.IXp.,.=.Z.T H.I I J 2 1 1 2 <   O         O     < + J J G G G 3 I J J ).Y..X].$Xy.<X8XxXpXSXfX2XUXfXyXjXa.a.",
"B l V.l ;.*.*.;.V.*.*.A x n T E.R.U G 3 1 F 3 O < 1 <         O       3 J 3 1 2 < 3 J G P F.'.E.OX$Xg.n.FX<XPXpX7X<XtXdXtX2Xj.8.",
"V B y >.*.ZXV.>.V.ZXv.=.A N Q.'.G.P 2 + 3 L G < O O 2 1   O   O   O 2     F + < + 1 3 J F F E.Y.oXOX#XaXk.<X=X:XqX5X:XyX<XqX1Xd.",
": B l Z *.Z ;.>.eX>.-.=.M U.'.|.J.L 2 F G 3 F F 3 1 2 3 1 O       1 O   < O O   + + < 1 O 3 G.J.R.OX@XzXLXLX<X,X5XqX;XrX5XdX<XqX",
"a p C i C C V.>.>.V.p.M V !..X'._.L < 3 3 3 3 2 2 2 1 1 +       < <   O     O O   + < < 1 1 I J.U ^.%XM.D.8X:X,X5X:Xe.s.4XkX5X5X",
"a z V.p *.a.V.u.V.0XZX;Xh.OX.X_.I P F G 2 2 1 1 1 2 + O +     O <   O   + O         + 1 O + P Y.J.{.@XM.<.{ e.dXu.1Xk.k.=Xi.5X5X",
"*.*.[ u.*.[ ;.0XIXVXyXyXD.OX.XY.R.J L 3 2 1 < + O   < 1 2             O + < +     + < + + 2 J G.E.}.Q.W ] NX2.:.@.i.;Xd.<Xe.<X,X",
":.:.>.*.0XwXV.eXVXCXyXaXJX&X+XP I L P P 3 + O   O +   O 2 +       <       O < <   O 3 O O . + G J.|.'.E M k 1.$.f.s.s.VX;X5X>X4X",
"uXqXa.a.p.a.;XyXrX0XtXwXGX~.!.3 F J G G + O O +   O O <   F     O < < +     + < 1 + < 2 1 + 1 3 P ).`.E M =.@.s.k.i.<X2X5X,XfX>X",
"uXqXqXV.;.;.V.;XyX0XwXh.v.U.L.3 < F 1 + O < O O + 3 G 1 + 2 <   O O O       O O 3 O < 1 < F G.R.L J.I.W v M aX;.ZX:.wXh.b.<X:XtX",
"wXtXeXqXa.d.;.;.;.0X:.C.R &X!.3 < 2 3 1 1 + < F 2 2 F 2 J G 1 3 2 O           < G O < 2 1 2 3 2 L E.Q.%X%.{ c { @.[ &.m.c.7XdXVX",
"tXtXgXqX;X0Xd.;.;.a.=.n K T !.G 1 < G O < < 1 < + + 1 F J F 2 2 1 < 1 3 3 F 2 F 3   < 1 2 2 + 3 I `.OXM.z.aXj.j.r.<XfXbXbXfXtXdX",
"gXtXgXgXtXtXwXd.&.1.m D n I.[.L 3 2 P <           + + F 2 J 3 1 + + O < + 2 G 2 O   + G G.3 + G G.`.Q.x.%.$.f.9.i.j.7X1XdX5XvXmX",
"tXgXCXgXlXgXwXC.CXS.A.W 4 U.[.F.P '.I <         + + 1 G J G G + O + O   + 1         O 2 J 3 < I K.{.~.z.%.hX2.f.fXk.uXiXhXfXmXmX",
"PXHXBXHXJXHXhXvXD.Z.Z.W W /.!.T.P _.P 1 O O + < 1 2 G 2 F 2 < < < O     + +         2 1 2 1 3 '.|..XU.%.h.$.{ :.2.fX6XiXiXmXlXdX",
"PXUXUXPXJXJXFXFXD.sXQ sXQ /.&XOXG J P +   +   + + 1 2 2 3 F 1   O J +   O < < + + < < O + < G XX|. XE %.$.2.2.1Xi.1.S.S.S.4.n.C.",
"BXHXBXlXhXaXDXGXZ.Q W Q Q Q (.+XH.3 G F 1 + 3 < 1 2 3 < F 3 3 F G F F O   + < < < < < <   O I '. XQ.x.%.D M v <.<.1.1.<.B.<.3.4.",
"hXhXhXdXhXhXS.D.DXM c.z.W z.v.~.Q.F 3 F 3 2 2 1 1 1 1     2 1 < 3 F 3 F O   O < < < 2 3 3 L ).}.{.~.W N M <.D <.<.<.4.n.2.2.4.C.",
"pXhXpXpXpXiXpXb.c.$.%.pX%.M.#.~.[.L.L G < 3 J F < O +     O       2 G 3 J O     O O 1 G J.E.'..XQ.Q.E %.vX2.n.h.h.n.m.k.S.6Xm.hX",
"D.pXb.6Xm.hXb.n.&.#.v m.S.DXb.E ~.[.U L F 1 2 2 2 + O + 1   + + + O G P 2 F     O < F Y.]._..X{.@Xx.z.2.2.2.pXhXpX9XfXfXmXlXmXbX",
"b.FXD.b.M.b.b.&.] ` ) ] f.&.#.%.E ^.`.T.I J.L P 2 < + < 1 1 1 O + O 3 J G F 2 2 3 J I K.Y. XoX(.v.n.#.uXt.1XfXcXfXfXfXfX9XlXlXmX",
"t.g.b.b.t.g.r.r.] { _ ' ] ) &.&.t.~..XXX).Y.F.G 2 < 3 1 1 1 L 2 +   O 2 G 3 1 2 XXJ.Y._._.{.^.@XD.b.&.&.y.1XfXcXfXfXdXdX9XfX2XdX",
"<Xy.7.7.7.y.7.7.7.] ] O.' o.o.O.#.l.~.{..XR.K.G.P G I L G J._.3 +         < 2 F P Y.J.}. X(.W pX%.{  .@.O.<XfXzXzX7X9X7X5X7X<Xq.",
"y.r.r.y.7.7.7.y.7.O.7.O.O.] ' #.l.l.R XX].oXR.G.G.G.|.Y.|.F G 2 O       < F L Y.R.J.).[.~.l.l.l.z.$.{ @.&.j.6XpXpX9X2X2X2Xe.SX*X",
"y.y.<Xy.7.r.r.7.r.7.O.) ) ` ) k m #.R I.E W.].`.K.J.Y.G.I G < + 1 < 2 G P R.G.P _.OX(.E E R E P.3.hX{ ( &.7.j.1X7X6X2X2Xe.w.q.3X",
"7Xr.y.y.y.LX=X7.7.' ` O.] ] ` ) ` ` m l.b R ~.Q.`.).R.I L J F J 3 G P F.R.}.|.[.W.I.x.N W.R @XI.m k _ [ ( @.i.e.j.9.e.=X0.0.*X3X",
"q.y.7.q.y.r.O.7.O.r.o.o.) ] ' ' ] ] ` k k ` m R P.W.Q.W.I.P.U Y.L.R.).)..X].`.P.b m k uXM k k m h ^ h ( ~ wXX.X.0.*X0.0.6.6.3X-X",
"o.q.LXy.7. .7.7.7.y.o.j.O.] 7.) ' ' ' ) ` k ` m m b K K K R T W.I.I.W.W.I.Y b q n.) h k k ~ :._ ! h ^ [  .6.0.5...0.*X,X0.0.3X*X",
"O.o.o.o.'  .7.O.O.O.O.o.' ' ] ' ' ) h ) ) ] k k q q #.k q q m b m N m GX%.q q q $.q 8 @.h JXf j ^ ^ ( O.| } 6.6.6.5.5X6.yX6.-XkX",
"' ' o.) ) ) ~ o.o.o.O.o.r.' ' ` ` ) ) ) h ) h d d d d d k k $.q q q q q q v 7 q 8 d =.j g ^ ^ ^ ! ! O. .+./ X. .6.X.dX6.X.0.*X3X",
"~ h ) ' g.h.t.~ ' ' ' ' ' ~ ~ ) ) ' h _ h k d h d d q 9 k 9 9 9 9 7 q * q 7 n.% 5 7 s g [ ^ [ | ^ | ^ ( 9.( / +.' } 5...gX5.3X-X",
"h h h ) ' ~ k.' ' ' ] ' ) h h ) ~ h h h &.h h d n.q q 9 d q d 9 d 7 q b JX7 BX0 0 7 8 g f.C.^ BXtX+.| ( ^ ! ! / / 8.6. .6.*X*X6.",
"h <Xk ) ' ' ] &.' ' o.o.) _ ) ~ ~ h h d d d d d k R m k 9 d 9 d 9 7 $ = 5 7 v S.f 8 [ 0 ^ BXC.| [ +.^ | #.o.j.i.} ..X.5.=X6.w.<X",
"d ~ ~ h ~ d ' ~ ' o.o.] ( ) ~ h h h k d d d 9 d d q d 9 9 9 d 8 9 5 5 5 5 ~ 6 5 8 0 0 wXs 0 g C.| u.| ..@. .hX=XX. .q.5.6.0.,X..",
"h d 8 d h pXh ~ ] ' ' ' ) ) h h d h j 9 9 d d d d _ 9 9 d h k.5 9 5 q +.0 f 5 5 g s 8 g s s f ^ | X.6.6.X.0.6.e.X./ X.} ..} ....",
"5 9 d d d d ~ ~ ~ ~ ) ' _ _ h h h 9 d d 9 8 8 d 9 d h 9 5 d 5 9 h.j 5 % 8 gX0 5 8 f f f ! s s g | | 6.uX......6.! dX! ! / } } s.",
"5 d d d d d h h ~ ) ~ ] _ h h h d d d g.d pX9 d 9 9 8 8 d s 5 8 % 8 s s ! 0 uX0 8 0 % dX8 wX@./ X.X./ / ..} g ..} } ..d.! } / ..",
"d d 5 9 d d d h h ^ _ ] h h d h d 8 9 % 5 ` d d 8 d d 9 d 9 s s s 8 s 8 8 s s g s s s BXUX| | ..| / ^ / / / / ....| } / 5.} ..} ",
"9 d 9 d 9 9 9 d k d ~ d h h ` 9 d d 9 d h 9 8 8 d 9 d s 8 s f g s g 0 6 ! g g j g s g ! +.6.8.8./ / ..| } / } 8./ } / } } ..5...",
"9 9 9 9 d 9 9 d d d y.h d h h d d 9 d d d 8 d k d d d s j s g g s 8 s 8 ! h s 5X!  .0 ....} X.X...0.6.5./ / ......} ..X.} 5.....",
"5 d d 9 h ] 9 h h h h k d d j h d d h s h d d s d d d / / g s s g s g 8 h h CX[ wX! / / 5.....X.fXlX../ } 0.} ..5.......5.5.KX5."
};
