/* XPM */
static char *result[] = {
/* columns rows colors chars-per-pixel */
"64 64 256 2 ",
"   c #020407",
".  c #03060A",
"X  c #04090D",
"o  c #09090D",
"O  c #020614",
"+  c #050C13",
"@  c #0A0C14",
"#  c #02061A",
"$  c #040B1C",
"%  c #0B0E1B",
"&  c #180B1A",
"*  c #04131C",
"=  c #081318",
"-  c #0A121C",
";  c #14131C",
":  c #19161C",
">  c #390C15",
",  c #2B1019",
"<  c #030324",
"1  c #0B0726",
"2  c #040B23",
"3  c #02042C",
"4  c #0A042D",
"5  c #020B2C",
"6  c #160729",
"7  c #031323",
"8  c #0A1423",
"9  c #021A25",
"0  c #0A1A25",
"q  c #04152B",
"w  c #0A142A",
"e  c #031A2C",
"r  c #0A1B2C",
"t  c #151827",
"y  c #030434",
"u  c #0B0433",
"i  c #030B34",
"p  c #02043B",
"a  c #0D043B",
"s  c #030A3B",
"d  c #0C0939",
"f  c #150738",
"g  c #061736",
"h  c #031C32",
"j  c #0A1C34",
"k  c #0B1C3B",
"l  c #151937",
"z  c #320E2E",
"x  c #261926",
"c  c #250736",
"v  c #281837",
"b  c #06222B",
"n  c #192429",
"m  c #092337",
"M  c #03223C",
"N  c #162635",
"B  c #2C2738",
"V  c #4A0000",
"C  c #580000",
"Z  c #560C14",
"A  c #4A1319",
"S  c #620000",
"D  c #6C0000",
"F  c #770000",
"G  c #74090C",
"H  c #710C17",
"J  c #4E112D",
"K  c #6D0F2A",
"L  c #4D2837",
"P  c #6E353B",
"I  c #020543",
"U  c #0E0443",
"Y  c #020A44",
"T  c #02044D",
"R  c #0C074A",
"E  c #030B4B",
"W  c #110645",
"Q  c #130943",
"!  c #1C0B47",
"~  c #11064B",
"^  c #14094C",
"/  c #071846",
"(  c #181648",
")  c #020454",
"_  c #030B54",
"`  c #0B0856",
"'  c #02035A",
"]  c #030A5B",
"[  c #150856",
"{  c #06165A",
"}  c #181957",
"|  c #250D45",
" . c #271846",
".. c #371A47",
"X. c #291958",
"o. c #361655",
"O. c #0C2343",
"+. c #082549",
"@. c #162847",
"#. c #163147",
"$. c #092855",
"%. c #172757",
"&. c #0A3459",
"*. c #153557",
"=. c #272849",
"-. c #32314F",
";. c #262757",
":. c #362755",
">. c #393957",
",. c #010364",
"<. c #040A67",
"1. c #170A62",
"2. c #1B0D6C",
"3. c #091867",
"4. c #181666",
"5. c #060C76",
"6. c #140776",
"7. c #061575",
"8. c #151A73",
"9. c #251769",
"0. c #341B68",
"q. c #251776",
"w. c #092F6D",
"e. c #192768",
"r. c #0A3366",
"t. c #173A68",
"y. c #172676",
"u. c #193779",
"i. c #2A2968",
"p. c #382566",
"a. c #3A3667",
"s. c #272777",
"d. c #2F3474",
"f. c #4B1B4B",
"g. c #522B4D",
"h. c #462654",
"j. c #67304B",
"k. c #512F6F",
"l. c #5C2F6C",
"z. c #453968",
"x. c #473A78",
"c. c #134650",
"v. c #354550",
"b. c #0A4678",
"n. c #134B75",
"m. c #32476F",
"M. c #4C4B6E",
"N. c #5C5B6A",
"B. c #6B4B74",
"V. c #810000",
"C. c #8A0000",
"Z. c #830B0F",
"A. c #940000",
"S. c #9E0000",
"D. c #92060A",
"F. c #8C0819",
"G. c #A80000",
"H. c #A20608",
"J. c #B10000",
"K. c #BA0000",
"L. c #B6060B",
"P. c #A70C18",
"I. c #B50918",
"U. c #8A112D",
"Y. c #B0172B",
"T. c #912A38",
"R. c #AB282E",
"E. c #C30000",
"W. c #CC0001",
"Q. c #C7040B",
"!. c #D30000",
"~. c #DC0001",
"^. c #D6050C",
"/. c #C70815",
"(. c #D80B17",
"). c #E50000",
"_. c #ED0001",
"`. c #E6060B",
"'. c #F30102",
"]. c #FD0000",
"[. c #F4090C",
"{. c #E40B15",
"}. c #CE1024",
"|. c #CB2936",
" X c #ED2423",
".X c #8C274B",
"XX c #A2305C",
"oX c #D72240",
"OX c #924E6B",
"+X c #CD6A72",
"@X c #060985",
"#X c #0B158B",
"$X c #091A96",
"%X c #092587",
"&X c #093B86",
"*X c #15308A",
"=X c #092798",
"-X c #172794",
";X c #2B2F8C",
":X c #37398B",
">X c #373793",
",X c #0810AB",
"<X c #0F2DAB",
"1X c #2839A7",
"2X c #2F36AA",
"3X c #443789",
"4X c #4E3796",
"5X c #70398E",
"6X c #4E39A3",
"7X c #673AA4",
"8X c #11478E",
"9X c #284499",
"0X c #364D90",
"qX c #126B9E",
"wX c #37699E",
"eX c #154CB3",
"rX c #3351A8",
"tX c #316AB4",
"yX c #4E4D8F",
"uX c #564597",
"iX c #674F90",
"pX c #516A91",
"aX c #757490",
"sX c #514FAC",
"dX c #6755A6",
"fX c #7053B3",
"gX c #4A65AC",
"hX c #5668B1",
"jX c #706CAE",
"kX c #3D65C3",
"lX c #4C68C3",
"zX c #756EC3",
"xX c #BB668F",
"cX c #8454A4",
"vX c #896FB3",
"bX c #A664AF",
"nX c #C96693",
"mX c #856EC6",
"MX c #118ABC",
"NX c #5F93A6",
"BX c #7285B3",
"VX c #3697D3",
"CX c #4C91CF",
"ZX c #66A4D2",
"AX c #2FD3EE",
"SX c #67D7ED",
"DX c #938CAC",
"FX c #A39BAB",
"GX c #CB9CA4",
"HX c #9497CC",
"JX c #AAB1D1",
"KX c #A5A7E0",
"LX c #AACCDB",
"PX c #8EDFE3",
"IX c #B3CCE8",
"UX c #C1C0D7",
/* pixels */
"X X X X X X X X X       X     X X X X X     o       o       x       X X = X X X X X ; X X X o o t O . + . . O - O . O O + B 8 O ",
"X X o o X + X X X X   X X   o X X   X   X X X X X X       o   X o   X X : X X X . @ t X X - O O O O @ O O O O # t O @ # # $ O >.",
"X X + = : = + . X X     X X X = o + X X X X X = B X     n o   .     : B v.X = = @ + % 8 $ $ $ O O O O O O O # O O < $ 1 1 w 2 # ",
"X = + @ + X o .   X X X X X X + = + = + + + X X = X X     . .     X n = X = = n 0 0 w r w 7 8 # # - % O # O + # # # O # $ # # # ",
"= n = + X X X X X X X + o X = + @ n = X = + n X = X o o X   X   . X X X = = = = 0 r #.r q 7 8 $ # $ + O O # $ # # # < # # 2 # $ ",
"0 * t 8 - $ + + = + + 0 = = = * N 8 - * * - - $ X = o n = X .   v.X X + = = = ; r e r r @.j q - 7 $ # # # # # $ r # m # # # 2 $ ",
"m r e w q w 7 1 w 8 7 2 8 8 m j r r e w b 0 - 8 = 8 * NX+ + X .   X O + + + = b 0 0 r m m k @.g e O $ # # l $ - $ # # # $ $ 2 b ",
"m N m j k j l g j k k ( j m m.O.m k k O.j j N z J r r N - O $ + = + + - 0 * * n w g l / k O.O.g g 5 2 # # # $ # $ $ # $ < $ 2 $ ",
"@.O.m j k k g i k / +.$.O.+.+.M.N O.+.k NXaXl k m N.j e 8 7 $ 7 $ $ 8 -.2 % 8 7 7 g j k / k j g h 2 $ 7 $ $ 2 $ < 2 $ k 2 5 5 i ",
"*.@./ *.7 q 9 9 2 9 v.e v.m M O.pXj k j k q h k O.k g w e 8 @ $ 0 7 8 7 7 - 8 8 v.2 w g g g g w 5 w 2 8 2 - m.5 q 5 i s 5 { <.3.",
"O.O.e r e 9 * 9 9 9 9 * N r r 9 b j 0 0 m 0 2 w 8 N.- t ; % & & % % - % - 8 8 - 7 w 8 w w e 7 q 2 w 2 2 5 5 s +./ / _ 7.3.<X7.5.",
"O.r 9 e 9 $ 7 7 * c.7 9 b e 0 b r e j l 0 9 0 8 N j ; & v.& o & & : & - ; t ; t t w w w 8 $ r 7 t N % m.i g / ] 3.<.{ <.7./ <.i ",
"9 b 9 * b 7 7 * 7 q e e 9 v.* b r b =.e r r n = v.: , & B , V > > j., , ; : : @ ; ; - - - $ 1 $ 6 Z d g / 3.r./ 3.E / s i Y i s ",
"b M h e h 2 h 9 b 9 e e 9 N b N.r r r t x : x : , > Z D.L.K.W.Q.W.W.H.A Z Z , , x ; B @ ; ; & 6 t v ( ] %X3.{ 7./ { 3.E r.i { $.",
"M e e h h 7 q h 9 q 9 7 9 * * b 9 r t > H A , A Z.L.!.).'._._.].].].`.S.K.Q.L.H.A , & & & Z.> K X.4.%X-XZX%X7.-X3.$X7.] { / 8Xi ",
"b O.M M e q q h e q 9 m 9 9 b b = n P Z ~.Z R.L.`._.]._.).)._._._.E.).)._._.'._.W.G > B v X.o.k.9.*X*X*X8.{ -X%X%X=XMXqX&X{ { / ",
"M M M M M h h q 7 q h q 9 * * = : : , A G H.!.[.).E.!._.'.).'.'._._._.!.)._.].'.].^.L.U.v ;.i.2.y.$.#X-X-X3.%X=X=X=X<X<X%X%X@XVX",
"#.+.k @.h @.h +.h q q q * b : B : n > R.`.`.`.J.S.E.).).'.~.~.).).E.K.J.!.~._._.W._.[.[.Y.f...v ;. .@.LX} wXqX8.AX9X$XZX=X<X,X<X",
"M *.m k O.m h e h h q 7 9 r n n L L Z.P._.).E.~._.~.E.K.'.W.W.!.K.S.C.C.G.G.E.'.~.'.~.].[.I.g.B M.l g.=.( / d.x.{ #X=X<XSXeXeX<X",
"t.r.r.n.wXw.t./ k h g h M *.-.j.T.(.{.`.)._.).E.K.W.!.W.K.J.J.A.C.C.F V.F C.A.!.'.].!.G.'.{.+Xv l B >.=.v k *.e.3X7XdX1XeXMXeXeX",
"yXt.e.t.$.wX&.e.$.$.&.r.n.-.=.g.K P.'.).'.!.G.C.J.K.K.E.K.G.A.V.C.V.F F F F J.J.!.).!.~.)./.H > pXB f.x ( %.5X9X1XcXfXbXfXeX<XAX",
"M k $.O.M +.$.b.&.*.+.r.*.#.v.A |.~._.W.'.J.H.A.S.V.S.S.A.A.S.K.V.F V.S F V.A.G.~.!.C.G.J.L.P J :.f.OX:.PX} iXdX4XcXcX6XkX2X=X$X",
"b M h / +.+.M &.&.&.r.&.*.B x L.`.~.!.).W.S.A.S.V.F C.F D F V.G.F S F D S D C.G.J.G.F D C.A.P.U.K  .nXxXxX7XZXuXbXiXvX9XrX8X3.8X",
"n.h h +.&.h +.#.t.*.SX*.@.=.R.Q.[.`.].K.S.S.G.V.S.K.J.V.F F A.G.V.D S S S F C.K.J.G.V.C S C.G./.I.XXq.;X5XxXB.SXdX2XIXfXtXtXu.w.",
"b h b.m $.+.M +.8X+.#.m l > H H.E.E.!.K.C.C.C.C.S.C.F C.S.C.S.C.F D C V S F A.G.S.A.A.S C V.K.).{.oX:.z.FXy.IXiX4X:XrXsXrX>Xs.{ ",
"n r r $.s SXb.&.b.VXb.#.N z I.'.).J.C.C.S.F C.S.A.F G.V.V.C.V.D S S D F F C.G.S.A.A.S.F C D E.)._.}.XXaXd.;X*Xu.0X1X;XtX;X9X>Xn.",
"; b j m +.h &.&.qXr.&.O.B F.`.].).E.F F F F A.A.G.E.G.S.V.V.C.C C V V S D J.~.G.C.V.J.H.S D !.]._.}.R.cXGXUX;X-X1X2X*XeX2XkX;X>X",
"; 9 m b b / n.$.c.b.*.N x ^.].~.'.J.H.S.D C.A.S.S.J.S.K.C.C.S.V.S C C S D C.A.E.S.F V.F S C.K.).).(.XXl.5XiX*X-X1X*Xw.8.-XkX1X2X",
"r k m.h +.b.n.$.b.8XCX*Xz.(.].E.).W.A.A.C.C.A.J.S.E.S.A.E.C.C.S.C.D C S S D C.J.K.A.A.C.H.A.A.K.!.`.R.l.:. .y.sX3.:Xd.;X-X8.1X2X",
"O.+./ $./ / $.&XPXVXtXwXB.|.[._._.E.J.S.S.G.G.E.K.E.K.S.S.A.V.V.C.S.C.S C S S V.V.F V.A.A.V.F J.!.'./.K  .hX;.%.} e.*Xw.s.8.8.2X",
"%.*.$.@.n.0Xb.qXkXCXtXpXGX{.[.!.K.S.G.W.!.E.W.K.K.J.J.J.S.K.A.V.V.C.A.C.D C C F F C V.F V.A.C.!.'._.`.K v l ;.=.i.y.e.CXs.1X<X<X",
"uX9Xw.w.w.w.8XtXtX8X0X0X+X'.].K.K.C.S.A.!.K.J.J.J.G.C.G.S.S.E.A.V.V.C.A.A.F C D V.G.C V A.S.G.!._.)./.Z v N } e.d.e.;X1X2X-XlX=X",
"yX8X9X&X$.+.&X&XwX9X0Xz.R.'.'.).~.C.S.A.G.K.E.E.E.G.A.V.V.A.A.W.S.V.D V.S.V.V.F S.V.V V F F J.).)._.Q.K v v pX$.CX*.0Xd.u.*X*XtX",
"0XsXqX9Xy.8X/ $.$.n.;.M.F.[.'.!.!.V.C.F J.K.S.A.A.V.F A.G.E.A.K.A.V.F V.F C.C.C.S.V.V C C D J._.).).).OX..;./ ( %.k i.d.d.uX2XVX",
"rXrXgX9X&X8Xn.$.$.t.N z H ^.].).!.C.V.V.S.W.G.S.A.A.A.G.E.E.G.E.G.S.A.D C.G.V.S.G.S V V V F !.'._._.(..Xf.N.0.0.9.;XcXbXbXfXsXsX",
"gXwXgXgXgX0X9Xu.;.;.v K Z.Q.'._.~.A.V.C.J.!.K.A.A.G.G.G.J.E.W.E.J.G.A.A.G.K.S.E.V.V V C C F E._._.'./.j.f.U.h.0.e.s.6X:XsXrXvXmX",
"rXgXZXgXBXgXyXd.ZXM.N.L Z /.[.).~.C.D A.A.G.G.G.J.J.K.K.K.E.F C.S.C.V.D V.V.J.C.D C S D F K.E.)._._.I.L f.|.L 0.dX:Xx.yXjXsXmXmX",
"KXHXHXHXJXHXjXaXB.j.j.P L P.`._.E.C.C.G.A.G.G.A.G.E.!.!.K.S.G.F A.A.C.D D V.G.C.F C.C.K.G.S.!.].~.^.U.v h... .%.;.dX3XdXuXmXmXsX",
"LXLXLXLXLXJXFXFXN.N.j.OXP R. X[.W.S.C.C.A.G.G.G.C.G.J.G.A.S.G.A.S.G.J.C.F F G.A.G.G.A.G.K.E.'._.).Q.K ....;.:.:Xe.:.B.M.M.v.>.m.",
"BXHXBXzXjXhXDXFXOXj.g.P j.T.}.[._.E.!.F V.A.J.G.E.K.J.C.D S S S S D S.J.A.C.S.G.K.K.G.K.S.E.~._.'.Y.g... .v l =.B -.#.-.a.=.:.a.",
"hXvXjXgXjXjXM.iXDXv z.g.g.L P.`.'._.E.V.F G.G.G.~.G.F S C C D C.C.J.S.K.C.C.G.G.E.G.G.V.G.K._.).`.U.z J B ..=.-.=.;.:.z.;.:.>.m.",
"yXjXiXiXiXuXiXl.g.....B.B l.f.^.].).'.E.V.G.S.K.J.D S S S F V.V.G.K.E.S.F C.G.E.G.G.A.A.S.~.).`.I.L L U.oX..z.a.a.z.x.3XM.:Xx.jX",
"B.iXk.4Xx.jXl.:.X.| ! z.x.DXg.U.^.[._.).S.F C.G.S.S.C.V.C.C.D F F S.J.J.S.C.J.G.G.A.G.E.J.W.{.}..Xh.f.h.f.:.iXdXuXuXdXdXmXzXvXbX",
"l.FXl.l.l.k.z.X.^ ^ Q ^ :.0.o.f.U./.`.K.S.C.V.C.S.E.G.A.A.A.F D D D G.S.G.S.G.G.G.J.K.!.~.^.Y..Xl.a.X.yX0.x.dXcXfXfXfXfX7XzXzXmX",
"0.0.k.k.p.0.0.9.^ ( ! W ~ ! X.o.o.U.|./.E.A.J.J.G.C.V.G.F S.G.A.F D V.K.A.C.E.G.].E.~.).Q.Y.K B.B.p.p.X.q.3XfXvXfXsXsXsX2XfX>XsX",
"s.q.2.2.2.9.2.1.1.[ ~ [ ~ ~ ! [ | | .XU./.~.).W.J.F V.C.G.C.A.G.K.V.D V.S.S.W.E.W.~.!.E./.T.f.iX .( E } [ ;XdXfXzXsX6X6X2X6X;Xq.",
"q.9.9.q.2.2.2.2.2.[ 1.[ [ [ ~ [ [ o.| K I.(.).W.E.J.C.C.F V.F F F K.A.V.V.A.E.!.~.~.`.I.U.f...:.:. .( } 9.d.3XuXdX6X>X3X>X8.SX@X",
"q.q.;Xq.2.X.q.1.9.4.[ W Q W W a W [ | | J F.P.^._.~.!.W.J.G.S.S.A.G.'.W.W.E.).K._.}.Y.K | | | z g.jX( ^ X.1.s.0X4X>X2X;X8.6.6.,X",
"6Xq.9.q.q.UXq.1.1.[ ~ ! ~ ^ ! ! ! Q f :.c z U._.Q.~.).)._._._.).W.!.].!.~.).Q.`./.K g.c f d yXf d f R / / } e.8.s.4.8.#X#X<.@X,X",
"2.q.2.2.q.9.` 1.[ 9.[ ~ ~ ~ R R ~ ^ ! a ! c J K F.L.Q.^._._.~.).~._._._.~.L.P.F.J c f yXl d i Q p Y d R R :X] ] @X@X5.5.<.<.=X,X",
"[ 6.UX2.1.1.1.1.1.q.[ s.[ ~ [ [ ^ ^ ^ U W f c z z z Z F.L.^.^.^.~.^.Q.L.F.J z f z.f d Q U d %.Y R s Y E _ <.5.,.) 5.5.%X5.5.,X@X",
"[ [ [ [ ) [ 1.1.1.[ [ [ ~ ~ ~ ~ W W W U a | | J z c | c c A J Z J J c GX..6 1 6  .1 3 } d JXs d s Y R [ ` ) ] 7.<.,.1X6.tX' $XlX",
"~ ~ ~ ^ W W U ~ [ [ [ [ 9.~ ~ W W W ~ W a | c H c 6 f 6 c z U., 6 6 6 6 6 l 6 1 < u %.u s p Y E E I [ ` { R ] ` ] <.sX1.' 5.@X,X",
"U a W ~ p.x.0.U W ~ R ~ ~ ~ U W W ~ a Q a f f f f 4 6 u f 6 c 6 4 1 1 & 4 1 >.1 < 1 i y / Y / E Y _ I E 4._ T ` R ) ,.' gX,.,X#X",
"a a a a U U d.~ R ~ ^ ~ U a a W U a a a X.u a u a.a 4 u u u 6 4 u 1 4 1 JX1 BX5 3 1 3 s i.m.Y BXrX_ / E Y Y I Y T 3.<.` <.@X#X<.",
"a :Xa W R ~ ~ X.~ ~ ~ [ ~ U ! U U u a a u u u u u 4 4 f 4 4 u u 4 6 # < < 1 l M.i 3 / 5 I BXm.E / { E ] ` ] s.y.' ' ] ,.#X<.5.;X",
"u W U a U u U U ~ ~ [ ~ ~ W U a a u f d 4 u 4 u u u 4 4 4 4 4 3 1 < 1 < < U < # 3 3 5 0X3 5 s m.E 3.] ' 3._ jX#X' ` 6.,.,.5.-X' ",
"u u u u u iXU U [ ~ W ~ R W a a a u u u u u u u u a u 4 u U i.1 4 < 4 { 5 y < 3 i i y p p y i Y _ ] 3.<.] 5.<.8.] E ' ` ' T ,.' ",
"3 4 4 u u u W U W W ~ ~ ! W a a a u u u 4 3 3 u 4 u a 4 4 4 < 5 a.d 2 # 3 gX2 < 3 i s i p y p I _ _ <.0X] ' ' <.I sXI I T ' R %X",
"< u u u a u a a a W W W U a a u u u u p.u iX4 u 4 u 3 u 4 y 3 3 < 3 3 p I 3 pXy 3 3 $ sX3 0X( _ ] ] E ) ) ) p ' ) ' ' u.I ) R ) ",
"u u < u y u u a a U f ^ a a u a u 4 4 # 1 Q u u 4 u u 4 u 3 u y y 3 y < 3 y y p y y 3 BXIX` ` ' ` T Y T T T T ' ' _ ) T ,.T ' ) ",
"4 4 4 u 4 4 4 u d a U u a a ! 4 u a 4 4 u 3 4 4 4 4 y y y y i p y p y 2 I p p y I y p I { <.3.3.T E ] ) ) T ) 3.) T ) T ) ' ,.' ",
"4 4 4 4 u 4 u u u u q.U u u u u u 4 y u u u 4 f a u u y u i p s y 3 y 3 I a y 9XI ` i ) ) ) ' ] ' 5.,.,.T T ' ' ) ) ' ` ' ' ' ' ",
"4 4 u 4 a ! 4 p f a a d u a a d u u u u I 4 u y u u y R T p y y p y p 3 I U ZXE 0Xp T ) ,.' ' ) hXzX' ) ) 5.) ' ' ,.,.' ,.,.KX,."
};
