/* XPM */
static char *result[] = {
/* columns rows colors chars-per-pixel */
"36 32 6 1 ",
"  c gray50",
". c gray58",
"X c #AAAAAA",
"o c gray75",
"O c gray83",
"+ c None",
/* pixels */
"++++            ++++            ++++",
"++++            ++++            ++++",
"++++            ++++            ++++",
"++++            ++++            ++++",
"    ....XXXXXXXX    XXXXXXXXOOOO    ",
"    ....XXXXXXXX    XXXXXXXXOOOO    ",
"    ....XXXXXXXX    XXXXXXXXOOOO    ",
"    ....XXXXXXXX    XXXXXXXXOOOO    ",
"    ....XXXXXXXXXXXXXXXXXXXXoooo    ",
"    ....XXXXXXXXXXXXXXXXXXXXoooo    ",
"    ....XXXXXXXXXXXXXXXXXXXXoooo    ",
"    ....XXXXXXXXXXXXXXXXXXXXoooo    ",
"    ....XXXXXXXXXXXXXXXXXXXXoooo    ",
"    ....XXXXXXXXXXXXXXXXXXXXoooo    ",
"    ....XXXXXXXXXXXXXXXXXXXXoooo    ",
"    ....XXXXXXXXXXXXXXXXXXXXoooo    ",
"++++    ....XXXXXXXXXXXXoooo    ++++",
"++++    ....XXXXXXXXXXXXoooo    ++++",
"++++    ....XXXXXXXXXXXXoooo    ++++",
"++++    ....XXXXXXXXXXXXoooo    ++++",
"++++++++    ....XXXXoooo    ++++++++",
"++++++++    ....XXXXoooo    ++++++++",
"++++++++    ....XXXXoooo    ++++++++",
"++++++++    ....XXXXoooo    ++++++++",
"++++++++++++    ....    ++++++++++++",
"++++++++++++    ....    ++++++++++++",
"++++++++++++    ....    ++++++++++++",
"++++++++++++    ....    ++++++++++++",
"++++++++++++++++    ++++++++++++++++",
"++++++++++++++++    ++++++++++++++++",
"++++++++++++++++    ++++++++++++++++",
"++++++++++++++++    ++++++++++++++++"
};
