/* XPM */
static char *result[] = {
/* columns rows colors chars-per-pixel */
"36 32 9 1 ",
"  c gray50",
". c #880015",
"X c #AA001A",
"o c #D50020",
"O c gray58",
"+ c #AAAAAA",
"@ c gray75",
"# c gray83",
"$ c None",
/* pixels */
"$$$$............$$$$            $$$$",
"$$$$............$$$$            $$$$",
"$$$$............$$$$            $$$$",
"$$$$............$$$$            $$$$",
"....XXXXoooooooo..  ++++++++####    ",
"....XXXXoooooooo..  ++++++++####    ",
"....XXXXoooooooo..  ++++++++####    ",
"....XXXXoooooooo..  ++++++++####    ",
"....XXXXoooooooooo++++++++++@@@@    ",
"....XXXXoooooooooo++++++++++@@@@    ",
"....XXXXoooooooooo++++++++++@@@@    ",
"....XXXXoooooooooo++++++++++@@@@    ",
"....XXXXoooooooooo++++++++++@@@@    ",
"....XXXXoooooooooo++++++++++@@@@    ",
"....XXXXoooooooooo++++++++++@@@@    ",
"....XXXXoooooooooo++++++++++@@@@    ",
"$$$$....XXXXoooooo++++++@@@@    $$$$",
"$$$$....XXXXoooooo++++++@@@@    $$$$",
"$$$$....XXXXoooooo++++++@@@@    $$$$",
"$$$$....XXXXoooooo++++++@@@@    $$$$",
"$$$$$$$$....XXXXoo++@@@@    $$$$$$$$",
"$$$$$$$$....XXXXoo++@@@@    $$$$$$$$",
"$$$$$$$$....XXXXoo++@@@@    $$$$$$$$",
"$$$$$$$$....XXXXoo++@@@@    $$$$$$$$",
"$$$$$$$$$$$$....XXOO    $$$$$$$$$$$$",
"$$$$$$$$$$$$....XXOO    $$$$$$$$$$$$",
"$$$$$$$$$$$$....XXOO    $$$$$$$$$$$$",
"$$$$$$$$$$$$....XXOO    $$$$$$$$$$$$",
"$$$$$$$$$$$$$$$$..  $$$$$$$$$$$$$$$$",
"$$$$$$$$$$$$$$$$..  $$$$$$$$$$$$$$$$",
"$$$$$$$$$$$$$$$$..  $$$$$$$$$$$$$$$$",
"$$$$$$$$$$$$$$$$..  $$$$$$$$$$$$$$$$"
};
