/* XPM */
static char *result[] = {
/* columns rows colors chars-per-pixel */
"40 40 142 2 ",
"   c #5F0636",
".  c #610936",
"X  c #6F033A",
"o  c #640D39",
"O  c #73063C",
"+  c #760740",
"@  c #691440",
"#  c #7E2B54",
"$  c #7D3257",
"%  c #7D3259",
"&  c #AA034B",
"*  c #AE0A56",
"=  c #BD0555",
"-  c #B30D56",
";  c #BC0857",
":  c #B6025F",
">  c #B20B5B",
",  c #BB0859",
"<  c #BC155C",
"1  c #802B55",
"2  c #822D58",
"3  c #80355C",
"4  c #BC0563",
"5  c #B40D63",
"6  c #BD0964",
"7  c #B71164",
"8  c #BF1463",
"9  c #B9156D",
"0  c #863C62",
"q  c #8B3A62",
"w  c #BE2D6C",
"e  c #BF306E",
"r  c #BE2676",
"t  c #BF2779",
"y  c #C30B5B",
"u  c #C90F5E",
"i  c #C0135D",
"p  c #C9125F",
"a  c #C30B62",
"s  c #C90F64",
"d  c #C50D6A",
"f  c #C90E69",
"g  c #CD1263",
"h  c #C51965",
"j  c #CE1B67",
"k  c #C5126C",
"l  c #CC136B",
"z  c #C91D6E",
"x  c #D21665",
"c  c #D21967",
"v  c #D3166A",
"b  c #D41A6B",
"n  c #DB1C6D",
"m  c #CD1172",
"M  c #CE1C73",
"N  c #D31672",
"B  c #D41B73",
"V  c #DB1C73",
"C  c #D51A7A",
"Z  c #DD1E7A",
"A  c #E01F74",
"S  c #CB266D",
"D  c #C42C6D",
"F  c #DA236F",
"G  c #C42F7C",
"H  c #CD297F",
"J  c #D32273",
"K  c #DA2271",
"L  c #D12D71",
"P  c #D4247E",
"I  c #DC237E",
"U  c #D22D7C",
"Y  c #C23571",
"T  c #C33A74",
"R  c #C4337F",
"E  c #C8317F",
"W  c #D23476",
"Q  c #DD337A",
"!  c #E22274",
"~  c #E92677",
"^  c #E3237B",
"/  c #E9267B",
"(  c #E52C7D",
")  c #EB2A7C",
"_  c #F02C7F",
"`  c #8B4668",
"'  c #8F4D6E",
"]  c #C8427B",
"[  c #D0417D",
"{  c #DF1F82",
"}  c #DE2482",
"|  c #D02D81",
" . c #CB3281",
".. c #C53983",
"X. c #D23F84",
"o. c #E22481",
"O. c #E82680",
"+. c #E32881",
"@. c #ED2A84",
"#. c #E8268A",
"$. c #E52B88",
"%. c #ED2B8A",
"&. c #F22D83",
"*. c #F32E8B",
"=. c #F63084",
"-. c #F6318E",
";. c #F12C93",
":. c #FC3697",
">. c #CF4B83",
",. c #D14481",
"<. c #D44B84",
"1. c #DB4986",
"2. c #D3448B",
"3. c #DB478C",
"4. c #DF4B89",
"5. c #CB5185",
"6. c #D25287",
"7. c #D4578B",
"8. c #DB548C",
"9. c #DA5A8F",
"0. c #D74893",
"q. c #D35192",
"w. c #D75E91",
"e. c #DC5F93",
"r. c #D55D98",
"t. c #E05B93",
"y. c #D56593",
"u. c #D96495",
"i. c #DF6599",
"p. c #DB6C9B",
"a. c #D7729C",
"s. c #DB739F",
"d. c #DF75A1",
"f. c #DC7BA4",
"g. c #DC83A8",
"h. c #DE8BAD",
"j. c #DF92B3",
"k. c #E088AD",
"l. c #E194B4",
"z. c #E198B6",
"x. c #E29CBA",
"c. c None",
/* pixels */
"c.c.c.c.c.c.c.c.c.c.c.c.c.c.c.c.c.c.c.c.c.c.c.c.c.c.c.c.c.c.c.c.c.c.c.c.c.c.c.c.",
"c.c.c.c.c.c.c.c.c.c.c.c.c.c.c.c.c.c.c.c.c.c.c.c.c.c.c.c.c.c.c.c.c.c.c.c.c.c.c.c.",
"c.c.c.c.c.c.c.c.c.c.c.c.c.c.c.c.c.c.c.c.c.c.c.c.c.c.c.c.c.c.c.c.c.c.c.c.c.c.c.c.",
"c.c.c.c.c.c.c.c.c.c.c.c.c.c.c.c.c.c.c.c.c.c.c.c.c.c.c.c.c.c.c.c.c.c.c.c.c.c.c.c.",
"c.c.c.c.c.c.c.c.c.c.c.c.c.c.c.c.c.c.c.c.c.c.c.c.c.c.c.c.c.c.c.c.c.c.c.c.c.c.c.c.",
"c.c.c.c.c.c.c.c.c.c.c.c.c.c.c.c.c.c.c.c.c.c.c.c.c.c.c.c.c.c.c.c.c.c.c.c.c.c.c.c.",
"c.c.c.c.c.c.c.c.c.c.c.c.c.c.c.c.c.c.c.c.c.c.c.c.c.c.c.c.c.c.c.c.c.c.c.c.c.c.c.c.",
"c.c.c.c.c.c.c.c.c.c.c.c.c.c.c.c.c.c.c.c.c.c.c.c.c.c.c.c.c.c.c.c.c.c.c.c.c.c.c.c.",
"c.c.c.c.c.c.c.c.c.c.c.c.c.c.c.c.c.c.c.c.c.c.c.c.c.c.c.c.c.c.c.c.c.c.c.c.c.c.c.c.",
"c.c.c.c.c.c.c.c.c.c.c.c.c.c.% 0.4 4 d N C { #.;.t % c.c.c.c.c.c.c.c.c.c.c.c.c.c.",
"c.c.c.c.c.c.c.c.c.c.c.c.c.% | C : 4 f v Z o.%.J 4 4 % c.c.c.c.c.c.c.c.c.c.c.c.c.",
"c.c.c.c.c.c.c.c.c.c.c.c.%  .m Z 8 a l N Z / %.* a d k $ c.c.c.c.c.c.c.c.c.c.c.c.",
"c.c.c.c.c.c.c.c.c.c.c.% G | N ^ ^ k v V ^ ) &., s l N M % c.c.c.c.c.c.c.c.c.c.c.",
"c.c.c.c.c.c.c.c.c.c.% ..2.B Z / =.b b ! / &.h p g v Z ^ I % c.c.c.c.c.c.c.c.c.c.",
"c.c.c.c.c.c.c.c.c.% ..q.2.V ^ &.&.w ] T D D < p v V ^ ^ %.$.% c.c.c.c.c.c.c.c.c.",
"c.c.c.c.c.c.c.c.c.t G q.3.K / ) T j.g.a.y.6.[ < b ! ^ @.=.} 7 % c.c.c.c.c.c.c.c.",
"c.c.c.c.c.c.c.c.c.9 5 > U ( / T z.h.s.y.9.[ [ c p ! ~ F & y k @ c.c.c.c.c.c.c.c.",
"c.c.c.c.c.c.c.c.c...r.,.J h D x.h.f.p.y.[ L x x c j & y y g m o c.c.c.c.c.c.c.c.",
"c.c.c.c.c.c.c.c.c...2.b b ! 5.l.g.s.y.7.W x x n n n y y f v B o c.c.c.c.c.c.c.c.",
"c.c.c.c.c.c.c.c.c. .B v K ^ >.k.d.p.9.1.x x n n ! ! y u v b I o c.c.c.c.c.c.c.c.",
"c.c.c.c.c.c.c.c.c. .N V ^ ) ,.g.s.e.4.Q c n n ! ~ / p v n A #.. c.c.c.c.c.c.c.c.",
"c.c.c.c.c.c.c.c.c.} C ^ / &.,.d.i.8.4.F n ! ~ ~ ) _ x n ! O.%.. c.c.c.c.c.c.c.c.",
"c.c.c.c.c.c.c.c.c.C Z ^ @.( S i.t.4.Q n ! ~ ~ _ _ / b ! / &.*.. c.c.c.c.c.c.c.c.",
"c.c.c.c.c.c.c.c.c.} o.M h g b S 4.Q ! ! ~ ) _ _ ( x l h J -.:.. c.c.c.c.c.c.c.c.",
"c.c.c.c.c.c.c.c.c.0.6 a l v V ! c A ~ ~ _ _ =./ p u v V ^ +.P   c.c.c.c.c.c.c.c.",
"c.c.c.c.c.c.c.c.c.% 6 d v n A / _ F ~ _ _ =.( y y p v Z ^ o.O ` c.c.c.c.c.c.c.c.",
"c.c.c.c.c.c.c.c.c.c.% k N V ^ ) &.i y p c n - y y x n A I O % c.c.c.c.c.c.c.c.c.",
"c.c.c.c.c.c.c.c.c.c.c.% C Z ^ @.( y y x n ! K ; u x V B O % c.c.c.c.c.c.c.c.c.c.",
"c.c.c.c.c.c.c.c.c.c.c.c.% } @.*.h y s v V ^ @.> s N B O 3 c.c.c.c.c.c.c.c.c.c.c.",
"c.c.c.c.c.c.c.c.c.c.c.c.c.% %.;.y a l V A O.&.J l z X % c.c.c.c.c.c.c.c.c.c.c.c.",
"c.c.c.c.c.c.c.c.c.c.c.c.c.c.% U d f N Z o.@.*.:.5 O $ c.c.c.c.c.c.c.c.c.c.c.c.c.",
"c.c.c.c.c.c.c.c.c.c.c.c.c.c.c.c.` # # # 1 2 q q q ' c.c.c.c.c.c.c.c.c.c.c.c.c.c.",
"c.c.c.c.c.c.c.c.c.c.c.c.c.c.c.c.c.c.c.c.c.c.c.c.c.c.c.c.c.c.c.c.c.c.c.c.c.c.c.c.",
"c.c.c.c.c.c.c.c.c.c.c.c.c.c.c.c.c.c.c.c.c.c.c.c.c.c.c.c.c.c.c.c.c.c.c.c.c.c.c.c.",
"c.c.c.c.c.c.c.c.c.c.c.c.c.c.c.c.c.c.c.c.c.c.c.c.c.c.c.c.c.c.c.c.c.c.c.c.c.c.c.c.",
"c.c.c.c.c.c.c.c.c.c.c.c.c.c.c.c.c.c.c.c.c.c.c.c.c.c.c.c.c.c.c.c.c.c.c.c.c.c.c.c.",
"c.c.c.c.c.c.c.c.c.c.c.c.c.c.c.c.c.c.c.c.c.c.c.c.c.c.c.c.c.c.c.c.c.c.c.c.c.c.c.c.",
"c.c.c.c.c.c.c.c.c.c.c.c.c.c.c.c.c.c.c.c.c.c.c.c.c.c.c.c.c.c.c.c.c.c.c.c.c.c.c.c.",
"c.c.c.c.c.c.c.c.c.c.c.c.c.c.c.c.c.c.c.c.c.c.c.c.c.c.c.c.c.c.c.c.c.c.c.c.c.c.c.c.",
"c.c.c.c.c.c.c.c.c.c.c.c.c.c.c.c.c.c.c.c.c.c.c.c.c.c.c.c.c.c.c.c.c.c.c.c.c.c.c.c."
};
