/* XPM */
static char *f6a4288adbbe419cc95820a98811d9a1B145oAo19PCAmMvv[] = {
/* columns rows colors chars-per-pixel */
"74 78 186 2 ",
"   c None",
".  c #7F7E7E",
"X  c #7F7474",
"o  c #BE1717",
"O  c #B41E1E",
"+  c #BC1C1C",
"@  c #9C3F3F",
"#  c #AE2222",
"$  c #A62E2E",
"%  c #AB2B2B",
"&  c #B32323",
"*  c #BC2323",
"=  c #B22828",
"-  c #A63434",
";  c #A83535",
":  c #A23939",
">  c #AE3A3A",
",  c #B83636",
"<  c #B63434",
"1  c #C71212",
"2  c #C91515",
"3  c #C31B1B",
"4  c #CC1B1B",
"5  c #D11E1E",
"6  c #CB2424",
"7  c #CE2827",
"8  c #C62828",
"9  c #CC2B2B",
"0  c #D52121",
"q  c #DB2625",
"w  c #DF2929",
"e  c #CE3332",
"r  c #C63E3E",
"t  c #D33433",
"y  c #D13C3C",
"u  c #E32A2A",
"i  c #EA2E2E",
"p  c #EE3131",
"a  c #EF3837",
"s  c #EB3A3A",
"d  c #F13232",
"f  c #F53C3C",
"g  c #964646",
"h  c #9B4444",
"j  c #944C4C",
"k  c #994A4A",
"l  c #8C5B5B",
"z  c #935252",
"x  c #9A5252",
"c  c #915959",
"v  c #A14242",
"b  c #AF5151",
"n  c #866767",
"m  c #8B6464",
"M  c #846B6B",
"N  c #896969",
"B  c #837272",
"V  c #897777",
"C  c #817D7D",
"Z  c #937171",
"A  c #9E7777",
"S  c #BA6666",
"D  c #A17171",
"F  c #A67F7F",
"G  c #AB7E7E",
"H  c #B57676",
"J  c #BC7373",
"K  c #B27878",
"L  c #BB7979",
"P  c #CB4444",
"I  c #D34747",
"U  c #D44B4B",
"Y  c #DB4B4B",
"T  c #D65252",
"R  c #DD5353",
"E  c #D25B5B",
"W  c #EA4242",
"Q  c #E44A49",
"!  c #EB4B4A",
"~  c #F44343",
"^  c #F94545",
"/  c #F54C4C",
"(  c #FA4C4C",
")  c #E35353",
"_  c #EC5454",
"`  c #E75E5E",
"'  c #EA5B5B",
"]  c #F35252",
"[  c #FD5454",
"{  c #F35D5D",
"}  c #FB5959",
"|  c #C56767",
" . c #CB6363",
".. c #C46969",
"X. c #D36363",
"o. c #DB6464",
"O. c #DC6C6C",
"+. c #D36E6E",
"@. c #DD7373",
"#. c #D67878",
"$. c #DE7C7C",
"%. c #E76666",
"&. c #E56B6B",
"*. c #EB6C6C",
"=. c #E96363",
"-. c #F46464",
";. c #F86363",
":. c #F46B6B",
">. c #E47373",
",. c #EF7C7C",
"<. c #ED7474",
"1. c #F47272",
"2. c #F87070",
"3. c #F77D7D",
"4. c #838282",
"5. c #898686",
"6. c #8C8B8B",
"7. c #938383",
"8. c #9C8484",
"9. c #928C8C",
"0. c #9D8888",
"q. c #949494",
"w. c #989797",
"e. c #9C9C9C",
"r. c #A28484",
"t. c #AA8383",
"y. c #B78888",
"u. c #A09F9F",
"i. c #B49797",
"p. c #A4A4A4",
"a. c #ABABAB",
"s. c #AFA3A3",
"d. c #B4B4B4",
"f. c #BBBBBB",
"g. c #CB8181",
"h. c #DE8383",
"j. c #DD8A8A",
"k. c #C09393",
"l. c #DA9E9E",
"z. c #E28484",
"x. c #EC8484",
"c. c #E48C8C",
"v. c #F68080",
"b. c #F58B8B",
"n. c #E69393",
"m. c #EB9191",
"M. c #E79B9B",
"N. c #EE9B9B",
"B. c #F79494",
"V. c #F89796",
"C. c #D6A6A6",
"Z. c #D6ACAC",
"A. c #DBABAB",
"S. c #DCA5A5",
"D. c #C8B9B9",
"F. c #CAB1B1",
"G. c #D5B5B5",
"H. c #D2BABA",
"J. c #D1BFBF",
"K. c #E9A3A3",
"L. c #EBABAB",
"P. c #F7A2A2",
"I. c #F9A3A3",
"U. c #F9AAAA",
"Y. c #EEB6B6",
"T. c #EFBABA",
"R. c #F4B7B7",
"E. c #F9B7B7",
"W. c #F0BEBE",
"Q. c #FABABA",
"!. c #C0C0C0",
"~. c #C2C2C2",
"^. c #C5C5C5",
"/. c #C7C7C7",
"(. c #CEC7C7",
"). c #C9C9C9",
"_. c #CBCBCB",
"`. c #CAC9C9",
"'. c #CECACA",
"]. c #CDCDCD",
"[. c #CCCCCC",
"{. c #D0C2C2",
"}. c #D0C5C5",
"|. c #F3C2C2",
" X c #FAC5C5",
".X c #FBC8C8",
/* pixels */
"                                                                                                                                                    ",
"                                                                                                                                                    ",
"                                                                                                                                                    ",
"                                                                                                                                                    ",
"                                                                                                                                                    ",
"                                                                                                                                                    ",
"                                                                                                                                                    ",
"                                                                                                                                                    ",
"                                                                                                                                                    ",
"                                                                                                                                                    ",
"                                                                                                                                                    ",
"                                                                                                                                                    ",
"                                                                                                                                                    ",
"                                                                                                                                                    ",
"                                                                                                                                                    ",
"                                                                                                                                                    ",
"                                                                                                                                                    ",
"                                                                                                                                                    ",
"                                                                                                                                                    ",
"                                                                                                                                                    ",
"                                                                                                                                                    ",
"                                                                        4.  5.4.                                                                    ",
"                                                                .   5.4.5.6.q.q.6.                                                                  ",
"                                                              . 5.6.q.w.e.a.p.w.w.w.                                                                ",
"                                                          4.4.6.q.p.a.d.d.d.a.w.w.6.                                                                ",
"                                                      C 4.6.q.p.a.f.^.^.f.p.e.e.w.q.                                                                ",
"                                                  . 4.5.9.u.d.d.^.).].d.p.e.e.a.a.6.                                                                ",
"                                                  4.6.w.a.d.^./.].!.d.p.e.a.d.f.d.q.                                                                ",
"                                                6.q.p.d.f./.].^.d.a.u.u.a.d.).].f.w.                                                                ",
"                                              5.9.p.d.^.]./.f.a.u.e.p.a.d./.].].~.e.5.                                                              ",
"                                            6.q.a.f./.].f.a.a.e.e.e.d.f.).].].].).a.q.                                                              ",
"                                          6.w.a.d.!.f.d.a.e.e.e.a.d.^.].].].].]./.d.w.                                                              ",
"                                        4.6.e.a.a.a.a.u.p.p.a.d.~./.].].].].].].].~.a.w.                                                            ",
"                                        4.q.w.e.e.e.e.a.a.d.f.^.].].].].[.[.[.].].).~.e.6.                                                          ",
"                                        6.q.w.e.e.a.d.f.f.^.].].].].].{.H.C.C.J.(.].].f.p.w.6.5.                                                    ",
"                                          6.q.w.a.f.).].].].].].].].].Z.$.>.&.h.Z.].].}.F.k.y.r.w.                                                  ",
"                                              6.w.f.^.].].].].].[.[.H.z.%.' ' ' j.J.{.A.c.:.-.o.L t.0.9.6.                                          ",
"                                              4.6.e.d.].].].].].].[.G.&.' ' ' ' >.A.n.1.;.[ / ~ W Y | t.8.                                          ",
"                                                  6.w.d.(.].].].].].Z.>.' ' _ _ { :.;.[ [ [ ^ d d d s Q E L 8.9.9.                                  ",
"                                                    6.w.D.).].].].].}.z.` _ _ ! ] [ [ [ [ ( f d d d d d d W R ..t.9.                                ",
"                                                      w.a.!.[.].].[.}.l.*.] ] [ ( [ [ [ ( f d d d d p d d d d a Q  .K r.9.6.                        ",
"                                                        w.d.).(.[.[.G.m.-.[ [ [ [ [ [ ( ~ d d d d d d d d d d d d a s E J F 6.5.                    ",
"                                                        6.s.C.l.l.S.v.:.[ [ [ [ [ ( ^ f d d p d p d d d d d d d d d p a s Y S A 7.5.C               ",
"                                                        6.i.$.&.=.-.;.[ [ [ [ [ ( ~ d d d d d d d d p d d d d d d p p i u u t r b Z C C             ",
"                                                        9.i.' / W ( [ [ [ [ ( ^ f f d d d d d d d d d d d d d p i i u w 0 0 5 5 6 < z 4.4.          ",
"                                                        6.#.' / / ( [ } ( ~ f d d d d d d d p d d d d d d d i u q u 0 4 4 2 2 1 1 1 & m 4.C         ",
"                                                      4.0.+.;.2./ ^ ^ ~ f d d d d d d d d d d d d d d d i u u q 5 4 4 1 2 2 1 1 1 1 + g 4.          ",
"                                                        0.R :.3./ d a d d d d d d d d d d d d d d d p u w 0 0 4 4 2 1 1 1 1 1 1 1 1 1 h C 4.        ",
"                                                        G R :.I.f d d d d d d d d d d d d d d i i u u 5 5 5 2 2 1 1 1 1 1 1 1 1 1 1 3 h C           ",
"                                                      9.t.Q 3.P.} d d d d d d p d d d d d d p i u u 5 4 2 1 1 1 1 1 1 1 1 1 1 1 1 1 1 j C 4.        ",
"                                                      9.H ) b..X{ d d d d d d d d d d d p i u w q 5 2 2 1 1 1 1 1 1 1 1 1 1 1 1 1 1 O l C 4.        ",
"                                                      5.J ! V.Q.v.d d d d d d d d p p i u w 0 5 4 2 1 1 1 1 1 1 1 1 1 1 1 1 1 1 1 2 $ n C           ",
"                                                      9..._ P..XV.~ d d d d d d p i u u q 5 4 2 1 1 1 1 1 1 1 1 1 1 1 1 1 1 1 1 1 o h X 4.          ",
"                                                      9. .{ U..XI.( d d d d p p i u u 5 5 2 1 1 1 1 1 1 1 1 1 1 1 1 1 1 1 1 1 1 1 # l . 4.          ",
"                                                      0. .;.E..X X{ d d d p p u u 5 5 2 1 1 1 1 1 1 1 1 1 1 1 1 1 1 1 1 1 1 1 1 + h M C             ",
"                                                      r.R 1.Q. X Xb.f p p u u 5 5 4 1 2 1 1 1 1 1 1 1 1 1 1 1 1 1 1 1 1 1 1 1 1 & l . C             ",
"                                                    5.G R 3..X.X XI.] p w q 0 4 2 2 1 1 1 1 1 1 1 1 1 1 1 1 1 1 1 1 1 1 1 1 1 3 j X C               ",
"                                                      t.Q B.|..X.XE.<.w 0 4 4 2 1 1 1 1 1 1 1 1 1 1 1 1 1 1 1 1 1 1 1 1 1 1 3 : B C                 ",
"                                                    9.J ` I. X.X X Xn.Y 4 2 2 1 2 1 1 1 1 1 1 1 1 1 1 1 1 1 1 1 1 1 1 1 1 + v m C 4.                ",
"                                                    9.J *.R..X.X X|.W.>.7 2 1 1 1 1 1 1 1 1 1 1 1 1 1 1 1 1 1 1 1 1 1 1 & h m .                     ",
"                                                    9.| ,.Q..X|.|.|.|.K.O.2 1 1 1 1 1 1 1 1 1 1 1 1 1 1 1 1 1 1 1 1 + # h n                         ",
"                                                    7.E b.W. X|.W.W.W.W.Y.T 9 1 1 1 1 1 1 1 1 1 1 1 1 1 1 1 1 1 + O ; c m                           ",
"                                                    r.X.m.|.|.W.W.W.W.W.W.L.z.y 6 1 1 1 1 1 1 1 1 1 1 1 1 1 3 O $ z m                               ",
"                                                    8.U N.W.W.|.|.W.W.W.W.W.Y.M.@.T e 7 4 5 4 6 2 1 1 1 1 O % k m                                   ",
"                                                    D P >.W.W.W.W.W.W.|.T.|.W.W.W.L.l.$.$.O.#.U 7 2 1 + # @ m                                       ",
"                                                  4.Z e T L.W.W.W.W.|.T.|.T.W.W.W.W.|.T.T.M.h.T 7 3 & : c m                                         ",
"                                                  4.Z , e @.W.W.|.W.|.|.T.|.T.|.W.W.T.Y.c.O.I 8 & $ z m                                             ",
"                                                    V > 1 y c.Y.T.T.T.W.|.T.T.T.L.K.h.o.U 9 * % h m                                                 ",
"                                                  4.C x & 4 e X.h.m.n.M.n.n.z.O.o.U t 4 * & @ l m                                                   ",
"                                                    4.C z = + 3 9 t y y y t e 6 6 3 + % : c m                                                       ",
"                                                    C 4.C N k $ & + 3 3 3 3 3 O & ; h l m                                                           ",
"                                                        4.4.B m l z h h @ @ k j l N X                                                               ",
"                                                            4.C C C C B B B C X C 4.                                                                ",
"                                                                4.4.  . C 4.4.4.                                                                    ",
"                                                                                                                                                    ",
"                                                                                                                                                    ",
"                                                                                                                                                    ",
"                                                                                                                                                    "
};
