/* XPM */
static char *result[] = {
/* columns rows colors chars-per-pixel */
"32 32 119 2 ",
"   c #2F0000",
".  c #2F0908",
"X  c #350101",
"o  c #390202",
"O  c #360C0B",
"+  c #390C0B",
"@  c #2D1412",
"#  c #2A1F1B",
"$  c #371412",
"%  c #391412",
"&  c #321A18",
"*  c #391A18",
"=  c #2D211C",
"-  c #34211D",
";  c #39211E",
":  c #2C2625",
">  c #2D2B2E",
",  c #352723",
"<  c #392724",
"1  c #362822",
"2  c #382822",
"3  c #332D2A",
"4  c #392D29",
"5  c #33312E",
"6  c #38332E",
"7  c #2E2E30",
"8  c #322B30",
"9  c #353433",
"0  c #393631",
"q  c #373833",
"w  c #393833",
"e  c #410000",
"r  c #4F0E0D",
"t  c #5B0000",
"y  c #4F1A16",
"u  c #521B16",
"i  c #640202",
"p  c #7A0000",
"a  c #6B1412",
"s  c #751B16",
"d  c #45201B",
"f  c #4E201C",
"g  c #64211E",
"h  c #72211E",
"j  c #442423",
"k  c #482327",
"l  c #432A2E",
"z  c #532525",
"x  c #512A2D",
"c  c #642C29",
"v  c #7E2C2D",
"b  c #75322E",
"n  c #773734",
"m  c #940000",
"M  c #930B0A",
"N  c #811A18",
"B  c #8F1A18",
"V  c #9A1412",
"C  c #951B16",
"Z  c #981B16",
"A  c #A50101",
"S  c #AB0101",
"D  c #AF0908",
"F  c #B60401",
"G  c #B90000",
"H  c #BB0904",
"J  c #B20A09",
"K  c #B90E0C",
"L  c #A21412",
"P  c #AC1412",
"I  c #AF1A18",
"U  c #BA1B16",
"Y  c #BC211D",
"T  c #832522",
"R  c #832D2E",
"E  c #902622",
"W  c #972822",
"Q  c #972F2F",
"!  c #A62822",
"~  c #A13531",
"^  c #AA3131",
"/  c #C60101",
"(  c #CA0404",
")  c #C00D08",
"_  c #D40505",
"`  c #DB0707",
"'  c #C6110C",
"]  c #C11412",
"[  c #CE1611",
"{  c #CB1A18",
"}  c #D51B16",
"|  c #E30707",
" . c #EF0909",
".. c #F10909",
"X. c #FA0B0B",
"o. c #C2211C",
"O. c #D5211E",
"+. c #DD211C",
"@. c #DD2724",
"#. c #D82822",
"$. c #DB2F29",
"%. c #CB3632",
"&. c #C53834",
"*. c #CC3833",
"=. c #D93732",
"-. c #D73833",
";. c #E02724",
":. c #E62822",
">. c #E42E29",
",. c #EB2D29",
"<. c #F12F29",
"1. c #E2322E",
"2. c #EA322E",
"3. c #F1322E",
"4. c #F9342F",
"5. c #F83631",
"6. c #F33833",
"7. c #FE3833",
"8. c None",
/* pixels */
"8.8.8.8.8.8.8.8.8.8.8.8.8.8.H F H F 8.8.8.8.8.8.8.8.8.8.8.8.8.8.",
"8.8.8.8.8.8.8.8.8.8.H H H H H H H H H H H H 8.8.8.8.8.8.8.8.8.8.",
"8.8.8.8.8.8.8.8.) ) ) ) ' H K ) ) ) ) ) ) ) ) H 8.8.8.8.8.8.8.8.",
"8.8.8.8.8.8.8.' ' ' ' ' ' ' ' ' ' ' ' ' ' ' ' ' ' 8.8.8.8.8.8.8.",
"8.8.8.8.8.[ [ [ [ [ [ [ [ [ [ [ [ [ [ [ [ [ [ [ [ [ [ 8.8.8.8.8.",
"8.8.8.8.} } } } } } } } U Z s u y s C U } } } O.} } } } 8.8.8.8.",
"8.8.8.8.+.+.+.+.+.+.o.f # - ; ; ; - = = d Y +.+.+.o.O.+.8.8.8.8.",
"8.8.8.:.:.:.:.:.;.E , 1 1 ; 2 2 1 1 2 2 , : T +.#.W ! :.:.8.8.8.",
"8.8.>.3.,.<.<.,.z 3 4 4 4 4 4 4 4 4 4 6 5 4 > k 2.<.$.<.<.$.8.8.",
"8.8.4.4.4.7.4.Q 3 0 6 0 6 0 0 6 0 6 6 6 6 6 6 9 R 4.4.4.4.4.8.8.",
"8.7.7.4.7.7.-.8 q w q 0 w w w w q q w w 0 0 9 w > %.7.7.6.7.6.8.",
"8.7.7.7.7.7.x 9 w w w w w w w w w q w w w q w w q l &.n w 6.7.8.",
"8.7.7.7.7.-.7 9 w w 9 w w w w w q 0 w w 0 0 0 0 q 7 0 w w *.7.8.",
"8.5.5.5.5.^ 3 0 q q 0 0 0 0 w w 0 0 0 0 0 0 0 0 q 5 9 0 0 ~ 7.8.",
"2.3.3.3.2.v 3 9 6 3 0 4 0 4 0 4 6 6 6 6 6 6 0 3 3 6 > 6 3 b 3.1.",
">.,.,.,.,.z 4 4 4 4 4 4 4 4 4 4 4 4 4 4 4 4 4 4 4 4 : l 4 c ,.>.",
";.;.;.@.;.k , < < < < < < < < < 2 2 j 2 2 < < < < < j ;.@.@.@.@.",
"O.O.O.O.O.h ; ; ; ; ; ; ; ; ; ; ; ; ; ; ; ; ; ; ; ; g O.O.o.} #.",
"8.{ { { { C & & * * * * * * * * * * * * * * * * * & N { I I { 8.",
"8.] ] ] ] L @ $ % % % % % % % % % % % % % % % % $ @ V P a P ] 8.",
"8.K K K K K + $ + + + + + + + + + + + + + + + + % + P M r K K 8.",
"8.J J D J J M . O + O + O + + + + + + + + + O + . M J D D D J 8.",
"8.8.S S S S D i X O o o o o o X o o o o o o O X i D D S S S D 8.",
"8.8.A S S A S A o X o X o o o o o o o o o o X o A S S A S S 8.8.",
"8.8.8.S S S S S A i X X X o o o o o o X X X i A S A A S A 8.8.8.",
"8.8.8.8.S S S S S S m X   X X X X X X   o m S F F S F S S 8.8.8.",
"8.8.8.8.S G G G G G G G m p t o e i p m G G G G G G G G 8.8.8.8.",
"8.8.8.8.8./ / / / / / ( / / / / / / / / / / / / / / / 8.8.8.8.8.",
"8.8.8.8.8.8.8.( ( ( ( ( ( ( ( ( _ _ _ _ _ _ _ _ _ _ 8.8.8.8.8.8.",
"8.8.8.8.8.8.8.8.( _ ` | | ` _ _ | | | | | | | | 8.8.8.8.8.8.8.8.",
"8.8.8.8.8.8.8.8.8.8..... .....................8.8.8.8.8.8.8.8.8.",
"8.8.8.8.8.8.8.8.8.8.8.8.8.8.X.X.X.X.8.8.8.8.8.8.8.8.8.8.8.8.8.8."
};
