/* XPM */
static char *result[] = {
/* columns rows colors chars-per-pixel */
"32 32 184 2 ",
"   c #17171B",
".  c #16181B",
"X  c #1B1A1D",
"o  c #2E0D0C",
"O  c #370101",
"+  c #3B0302",
"@  c #360C0B",
"#  c #380C0B",
"$  c #2D110C",
"%  c #2D1412",
"&  c #261A18",
"*  c #2C1B19",
"=  c #371412",
"-  c #391412",
";  c #341A18",
":  c #391A18",
">  c #2C211E",
",  c #37211E",
"<  c #39211E",
"1  c #341E21",
"2  c #252126",
"3  c #2C2724",
"4  c #262428",
"5  c #29272C",
"6  c #2C2B2C",
"7  c #372724",
"8  c #392724",
"9  c #33272E",
"0  c #3A2C2B",
"q  c #37322E",
"w  c #38322E",
"e  c #2D2B32",
"r  c #312F31",
"t  c #353532",
"y  c #393732",
"u  c #3A3833",
"i  c #430101",
"p  c #4C0101",
"a  c #440908",
"s  c #4D0E0D",
"d  c #540101",
"f  c #590603",
"g  c #560904",
"h  c #550D08",
"j  c #5C0C0B",
"k  c #52110C",
"l  c #431412",
"z  c #491412",
"x  c #401A18",
"c  c #501B16",
"v  c #630101",
"b  c #6E0202",
"n  c #620E0B",
"m  c #6A0E0D",
"M  c #730302",
"N  c #7C0302",
"B  c #730A09",
"V  c #780B0A",
"C  c #641611",
"Z  c #601B16",
"A  c #651C1A",
"S  c #6C1A18",
"D  c #6D1814",
"F  c #711A18",
"G  c #741412",
"H  c #50211E",
"J  c #59211C",
"K  c #63211E",
"L  c #72211D",
"P  c #7B211C",
"I  c #4C2525",
"U  c #4C2629",
"Y  c #442F2C",
"T  c #492E29",
"R  c #582525",
"E  c #532822",
"W  c #512F29",
"Q  c #44322F",
"!  c #4D342F",
"~  c #4A3631",
"^  c #473934",
"/  c #4B3833",
"(  c #533631",
")  c #6D2624",
"_  c #612A27",
"`  c #6A2822",
"'  c #622F29",
"]  c #742522",
"[  c #7B2723",
"{  c #7E2824",
"}  c #752F29",
"|  c #7F302F",
" . c #663833",
".. c #743331",
"X. c #703833",
"o. c #7E3832",
"O. c #830908",
"+. c #890908",
"@. c #870504",
"#. c #940202",
"$. c #9C0302",
"%. c #900908",
"&. c #9C0E0D",
"*. c #93110C",
"=. c #891916",
"-. c #811412",
";. c #9F1611",
":. c #9A1B16",
">. c #A40301",
",. c #AB0101",
"<. c #AB0C0A",
"1. c #AB0904",
"2. c #B60501",
"3. c #B90000",
"4. c #BA0904",
"5. c #B10908",
"6. c #B90E0B",
"7. c #A6110C",
"8. c #AD110C",
"9. c #B5110C",
"0. c #BB110C",
"q. c #A61B16",
"w. c #A41412",
"e. c #B51611",
"r. c #BF1611",
"t. c #BC1B16",
"y. c #BF1A18",
"u. c #94211D",
"i. c #AB211E",
"p. c #B6211C",
"a. c #8B2F29",
"s. c #972E29",
"d. c #97322E",
"f. c #823631",
"g. c #823833",
"h. c #923934",
"j. c #A72722",
"k. c #A22822",
"l. c #A72F29",
"z. c #AB2F29",
"x. c #AA2622",
"c. c #B62722",
"v. c #BC2724",
"b. c #A6302C",
"n. c #C60101",
"m. c #C00D08",
"M. c #CB0808",
"N. c #D40404",
"B. c #DD0707",
"V. c #C6110C",
"C. c #C11412",
"Z. c #CE1611",
"A. c #CB1A18",
"S. c #C41B16",
"D. c #D51B16",
"F. c #E30707",
"G. c #E60909",
"H. c #EB0A0A",
"J. c #F10909",
"K. c #F90B0B",
"L. c #C5211D",
"P. c #CB211D",
"I. c #D5211E",
"U. c #DD211C",
"Y. c #C02822",
"T. c #C52C29",
"R. c #D52822",
"E. c #D42F29",
"W. c #C3332F",
"Q. c #CB332F",
"!. c #D1342F",
"~. c #DD3834",
"^. c #E02724",
"/. c #E72822",
"(. c #E52C29",
"). c #EA2D29",
"_. c #F12F29",
"`. c #E9332E",
"'. c #F1332E",
"]. c #F9342F",
"[. c #E73934",
"{. c #F83631",
"}. c #FE3833",
"|. c None",
/* pixels */
"|.|.|.|.|.|.|.|.|.|.|.|.|.|.|.4.f N 2.2.>.|.|.|.|.|.|.|.|.|.|.|.",
"|.|.|.|.|.|.|.|.|.|.4.4.4.4.4.4.1.4.4.4.4.g 4.|.|.|.|.|.|.|.|.|.",
"|.|.|.|.|.|.|.|.|.m.m.m.6.4.m.m.<.6.m.6.h 0.n h |.|.|.|.|.|.|.|.",
"|.|.|.|.|.|.|.V.V.V.6.k *.Z.V.V.V.8.V.V.9.V.7.$ 7.|.|.|.|.|.|.|.",
"|.|.|.|.|.|.Z.Z.Z.Z.e.r.C Z.Z.Z.Z.r.Z.Z.Z.Z.Z.V.9.;.|.|.|.|.|.|.",
"|.|.|.|.|.t.D.D.D.D.:.c c q.D.D.D.D.A.t.=.L.D.D.D.:.L |.|.|.|.|.",
"|.|.|.|.|.U.U.U.U.L.U.U.P.p.P.U.U.P.J P L K U.U.U.I.u.|.|.|.|.|.",
"|.|.|.|.R./././.c.] /././././.[ i.E E ` P a.u././.Y.j.{ |.|.|.|.",
"|.|.|.|._._._._.U I _._._._._.z.T T T Q ' } W s.E.a.l.s.|.|.|.|.",
"|.|.|.].{.{.{._.| 2 0 0 w w Y Y q q ! ! ! ! ! ! Q.`.W.!.9 |.|.|.",
"|.|.|.}.}.}.{.l.e e e e e e e t u y u / / / / / o.}.}.}.Q |.|.|.",
"|.|.|.}.}.}.}.a.e e e e e e 6 u u u u ^ / / / / u ~.[.h...|.|.|.",
"|.|.|.}.}.}.}.R e e e e e e 6 t u y u u u u u u u  .g.X...|.|.|.",
"|.|.{.{.{.{.{.1 4 e e e r r t t t y y t w w u / ~ ( f.f...|.|.|.",
"|.|.'.'.`.'.`.X 5 e 6 6 6 6 0 q q q q q w w w Q Q ! W.`.d.Q.|.|.",
"|.|.(.).).).T.  5 6 6 6 6 5 0 0 q 7 q 7 0 Y 8 0 0 T (.).T._ |.|.",
"|.|.^.^.^.^.v.  3 3 3 3 3 3 7 7 7 7 7 7 ` [ ) 8 8 E ^.^.v.) |.|.",
"|.|.P.I.I.I.L.X > , * 3 * 3 : 8 < < < < L L H < < K I.I.s.q.|.|.",
"|.|.y.A.A.A.A.* & & * * * ; ; : : : : : F A x : : S A.y.S |.|.|.",
"|.|.|.C.C.C.C.l % % % % % % % = = - - z G z - l - -.C.w.D |.|.|.",
"|.|.|.6.6.6.6.n o o o o o # s # # # # m V m m m j 8.6.&.m |.|.|.",
"|.|.|.5.5.5.5.B o o @ j %.5.<.a @ @ a V O.B V B +.5.5.5.M |.|.|.",
"|.|.|.5.,.5.1.>.#.@.>.,.1.,.,.@.+ + B N M B M b >.<.1.$.f |.|.|.",
"|.|.|.|.>.,.,.,.>.,.,.,.>.,.,.,.d v b N p i b #.,.>.,.v |.|.|.|.",
"|.|.|.|.,.,.,.,.,.,.>.,.>.,.,.,.$.M b p O O N ,.,.,.>.M |.|.|.|.",
"|.|.|.|.|.,.,.,.,.2.,.2.2.,.,.,.2.>.d O O v ,.,.,.,.2.|.|.|.|.|.",
"|.|.|.|.|.3.3.3.3.3.3.3.3.3.3.3.3.3.3.>.#.3.3.3.3.3.3.|.|.|.|.|.",
"|.|.|.|.|.|.n.n.n.n.n.n.n.n.n.n.n.n.n.n.n.n.n.n.n.n.|.|.|.|.|.|.",
"|.|.|.|.|.|.|.N.N.N.N.M.N.N.N.N.N.N.N.N.N.N.N.N.N.|.|.|.|.|.|.|.",
"|.|.|.|.|.|.|.|.|.B.F.F.F.F.G.G.B.F.F.F.B.F.F.F.|.|.|.|.|.|.|.|.",
"|.|.|.|.|.|.|.|.|.|.J.J.J.J.J.J.G.J.J.J.J.H.H.|.|.|.|.|.|.|.|.|.",
"|.|.|.|.|.|.|.|.|.|.|.|.|.|.|.H.M.G.K.K.K.|.|.|.|.|.|.|.|.|.|.|."
};
