/* XPM */
static char *result[] = {
/* columns rows colors chars-per-pixel */
"32 32 192 2 ",
"   c #1A1412",
".  c #1F1A18",
"X  c #1B1A1F",
"o  c #1D1E1E",
"O  c #280101",
"+  c #200E0D",
"@  c #3D0504",
"#  c #3E0504",
"$  c #330908",
"%  c #360E0D",
"&  c #380D08",
"*  c #2B110C",
"=  c #271E1D",
"-  c #261F1D",
";  c #281A18",
":  c #291E1F",
">  c #371412",
",  c #391611",
"<  c #33201D",
"1  c #1E1F21",
"2  c #1F2020",
"3  c #202226",
"4  c #2C2223",
"5  c #372120",
"6  c #332724",
"7  c #382529",
"8  c #362C29",
"9  c #382929",
"0  c #3A2C29",
"q  c #3B2C29",
"w  c #35312F",
"e  c #36322E",
"r  c #37322E",
"t  c #2B2B31",
"y  c #3C2B32",
"u  c #363132",
"i  c #363631",
"p  c #373631",
"a  c #383631",
"s  c #3E3433",
"d  c #3D3334",
"f  c #440504",
"g  c #4F0E0D",
"h  c #550908",
"j  c #5E0E0D",
"k  c #421412",
"l  c #4A1412",
"z  c #451A18",
"x  c #5C1611",
"c  c #690101",
"v  c #680904",
"b  c #6E0908",
"n  c #740504",
"m  c #7B0101",
"M  c #760D08",
"N  c #780908",
"B  c #731A18",
"V  c #791D1A",
"C  c #47211E",
"Z  c #74211E",
"A  c #4A1E20",
"S  c #402724",
"D  c #4E2823",
"F  c #4A2C29",
"G  c #4B2C29",
"H  c #4D2C29",
"J  c #512224",
"K  c #532C29",
"L  c #562E2D",
"P  c #5B2B28",
"I  c #592D2F",
"U  c #5D2D2F",
"Y  c #49312E",
"T  c #4C302F",
"R  c #53322E",
"E  c #5A322E",
"W  c #5C322E",
"Q  c #413331",
"!  c #573633",
"~  c #593031",
"^  c #682927",
"/  c #60322E",
"(  c #7B322E",
")  c #712E31",
"_  c #6F3032",
"`  c #693431",
"'  c #7A3434",
"]  c #A10101",
"[  c #A50601",
"{  c #A80000",
"}  c #A90000",
"|  c #A90101",
" . c #AC0101",
".. c #AF0000",
"X. c #A80601",
"o. c #AB0601",
"O. c #AE0601",
"+. c #AF0601",
"@. c #AC0504",
"#. c #B10601",
"$. c #B90000",
"%. c #BB0904",
"&. c #B10908",
"*. c #B90D08",
"=. c #B80E0D",
"-. c #AC110C",
";. c #BE1412",
":. c #B21B16",
">. c #B31B16",
",. c #892724",
"<. c #922521",
"1. c #962724",
"2. c #9E2F29",
"3. c #823232",
"4. c #803633",
"5. c #813633",
"6. c #853733",
"7. c #873633",
"8. c #863733",
"9. c #973632",
"0. c #923934",
"q. c #A32724",
"w. c #AD2724",
"e. c #B52724",
"r. c #B62724",
"t. c #A2312F",
"y. c #A63733",
"u. c #AE3832",
"i. c #B83934",
"p. c #C40101",
"a. c #C50101",
"s. c #C60101",
"d. c #C70404",
"f. c #C80404",
"g. c #C90404",
"h. c #C00D08",
"j. c #D30404",
"k. c #D50404",
"l. c #C6110C",
"z. c #C01412",
"x. c #C11412",
"c. c #CC1611",
"v. c #CE1611",
"b. c #C41A18",
"n. c #C51A18",
"m. c #C71A18",
"M. c #C81A18",
"N. c #CB1A18",
"B. c #D51B16",
"V. c #E20707",
"C. c #E30707",
"Z. c #E60B0B",
"A. c #F10909",
"S. c #F90B0B",
"D. c #FB0B0B",
"F. c #C4211C",
"G. c #C4211E",
"H. c #C6211E",
"J. c #C7211E",
"K. c #CB211C",
"L. c #C8211E",
"P. c #C9211E",
"I. c #CA211E",
"U. c #CB211E",
"Y. c #CC211E",
"T. c #D5211E",
"R. c #DD211C",
"E. c #C12724",
"W. c #C22724",
"Q. c #D62F29",
"!. c #DA2F29",
"~. c #D4342F",
"^. c #E02724",
"/. c #E62822",
"(. c #E72822",
"). c #E92C29",
"_. c #F02F29",
"`. c #F12F29",
"'. c #EA342F",
"]. c #F1322E",
"[. c #F9342F",
"{. c #EF3832",
"}. c #F83631",
"|. c #F33832",
" X c #F33934",
".X c #F83833",
"XX c #FD3832",
"oX c #FD3833",
"OX c #FE3832",
"+X c #FD3934",
"@X c #FF3934",
"#X c None",
/* pixels */
"#X#X#X#X#X#X#X#X#X#X#X#X+.[ X.o.O.#.O.O.#X#X#X#X#X#X#X#X#X#X#X#X",
"#X#X#X#X#X#X#X#X#X#X#X#X%.%.%.%.%.%.%.%.v #X#X#X#X#X#X#X#X#X#X#X",
"#X#X#X#X#X#X#X#X#X#X#X*.h.h.h.h.h.h.h.h.M & #X#X#X#X#X#X#X#X#X#X",
"#X#X#X#X#X#X#X#X#X#X#Xl.l.l.l.l.l.l.l.l.-.* #X#X#X#X#X#X#X#X#X#X",
"#X#X#X#X#X#X#X#X#X#Xv.v.v.v.v.v.v.v.v.v.c.x , #X#X#X#X#X#X#X#X#X",
"#X#X#X#X#X#X#X#X#X#XB.B.B.B.B.B.B.B.B.B.B.:.>.#X#X#X#X#X#X#X#X#X",
"#X#X#X#X#X#X#X#X#XR.R.R.R.R.R.R.R.R.R.R.R.F.V K.#X#X#X#X#X#X#X#X",
"#X#X#X#X#X#X#X#X#X(.(.(.(.(.(.(.(.(.(.(././.5 <.#X#X#X#X#X#X#X#X",
"#X#X#X#X#X#X#X#X#X`.`.!._.`.`.`.`.`.`.`.Q.2.^ o #X#X#X#X#X#X#X#X",
"#X#X#X#X#X#X#X#X#X[.[.'.~.[.[.[.[.[.[.[.T w t.7 #X#X#X#X#X#X#X#X",
"#X#X#X#X#X#X#X#X{.OXOX|.u.OXOXOXOXOXOXXXu 3.9.I #X#X#X#X#X#X#X#X",
"#X#X#X#X#X#X#X#X X@X@Xi.0.@X@X@X@X@X@X+Xd ' ) 4 #X#X#X#X#X#X#X#X",
"#X#X#X#X#X#X#X#X.XoXoX_ y 4.5.7.8.6.8.6.s ! y.X #X#X#X#X#X#X#X#X",
"#X#X#X#X#X#X#X#X}.}.}.U t i p p a p p p Q ` ~ 9 #X#X#X#X#X#X#X#X",
"#X#X#X#X#X#X#X#X].].].J 2 e r R E / E W Y ( L P #X#X#X#X#X#X#X#X",
"#X#X#X#X#X#X#X#X).).).A : K 0 G H H G F q 8 3 D #X#X#X#X#X#X#X#X",
"#X#X#X#X#X#X#X#X^.^.^.W.r.r.E.e.w.q.1.,.6 S 1 - #X#X#X#X#X#X#X#X",
"#X#X#X#X#X#X#X#XT.T.T.L.G.H.J.P.U.I.Y.J.C Z < = #X#X#X#X#X#X#X#X",
"#X#X#X#X#X#X#X#XN.N.N.m.n.m.m.m.M.m.m.b.z B ; . #X#X#X#X#X#X#X#X",
"#X#X#X#X#X#X#X#X;.x.x.x.x.x.x.x.x.x.x.z.> l k   #X#X#X#X#X#X#X#X",
"#X#X#X#X#X#X#X#X=.=.=.=.=.=.=.=.=.=.=.=.% j g + #X#X#X#X#X#X#X#X",
"#X#X#X#X#X#X#X#X&.&.&.&.&.&.&.&.&.&.&.&.$ b N h #X#X#X#X#X#X#X#X",
"#X#X#X#X#X#X#X#X#X@.@.@.@.@.@.@.@.@.@.@.@ # n f #X#X#X#X#X#X#X#X",
"#X#X#X#X#X#X#X#X#X| | | | | | | | | | | ] m c O #X#X#X#X#X#X#X#X",
"#X#X#X#X#X#X#X#X#X} } } } } } } } } } } } } } { #X#X#X#X#X#X#X#X",
"#X#X#X#X#X#X#X#X#X..............................#X#X#X#X#X#X#X#X",
"#X#X#X#X#X#X#X#X#X#X$.$.$.$.$.$.$.$.$.$.$.$.$.#X#X#X#X#X#X#X#X#X",
"#X#X#X#X#X#X#X#X#X#Xs.s.p.p.p.p.p.a.p.a.s.s. .#X#X#X#X#X#X#X#X#X",
"#X#X#X#X#X#X#X#X#X#X#Xj.d.g.f.f.f.f.f.f.k.k.#X#X#X#X#X#X#X#X#X#X",
"#X#X#X#X#X#X#X#X#X#X#XC.V.C.C.C.C.C.C.C.C.V.#X#X#X#X#X#X#X#X#X#X",
"#X#X#X#X#X#X#X#X#X#X#X#XA.A.A.A.A.A.A.A.A.#X#X#X#X#X#X#X#X#X#X#X",
"#X#X#X#X#X#X#X#X#X#X#X#XZ.S.D.D.D.D.D.D.#X#X#X#X#X#X#X#X#X#X#X#X"
};
