/* XPM */
static char *result[] = {
/* columns rows colors chars-per-pixel */
"32 32 140 2 ",
"   c #181616",
".  c #1B191A",
"X  c #250000",
"o  c #2C0302",
"O  c #240C0B",
"+  c #360101",
"@  c #380202",
"#  c #370C0B",
"$  c #380B0A",
"%  c #271412",
"&  c #241C1B",
"*  c #2C1D1B",
"=  c #371412",
"-  c #381412",
";  c #361B19",
":  c #391A18",
">  c #2B201C",
",  c #35211D",
"<  c #38211E",
"1  c #1D1F22",
"2  c #252422",
"3  c #2B2526",
"4  c #272929",
"5  c #2D2B2A",
"6  c #362724",
"7  c #392724",
"8  c #362823",
"9  c #382822",
"0  c #372D29",
"q  c #382D29",
"w  c #37332E",
"e  c #38332E",
"r  c #363531",
"t  c #393632",
"y  c #373833",
"u  c #383833",
"i  c #440000",
"p  c #4F0908",
"a  c #500000",
"s  c #5E0000",
"d  c #461311",
"f  c #4E1B16",
"g  c #4C1D1B",
"h  c #591412",
"j  c #5B1815",
"k  c #600000",
"l  c #6C0000",
"z  c #660908",
"x  c #6C0E0D",
"c  c #750101",
"v  c #7E0000",
"b  c #7C0E0D",
"n  c #601412",
"m  c #6D1412",
"M  c #641B16",
"N  c #7D1815",
"B  c #7B1A18",
"V  c #4B231F",
"C  c #79211E",
"Z  c #4D2121",
"A  c #412C27",
"S  c #43322E",
"D  c #493632",
"F  c #713532",
"G  c #7C3734",
"H  c #820000",
"J  c #8D0101",
"K  c #830E0D",
"L  c #970000",
"P  c #9B0303",
"I  c #940C0B",
"U  c #8D1611",
"Y  c #861B16",
"T  c #871C19",
"R  c #A40101",
"E  c #AB0101",
"W  c #B50401",
"Q  c #B90000",
"!  c #BB0904",
"~  c #B10908",
"^  c #B80E0D",
"/  c #A21915",
"(  c #B71B15",
")  c #97211C",
"_  c #AD211E",
"`  c #B9211E",
"'  c #822926",
"]  c #9D2724",
"[  c #942822",
"{  c #972C29",
"}  c #9F2C29",
"|  c #903734",
" . c #AA2724",
".. c #B72724",
"X. c #B12822",
"o. c #B32D29",
"O. c #AF332E",
"+. c #B4312E",
"@. c #A13632",
"#. c #B73633",
"$. c #BF3531",
"%. c #C50101",
"&. c #CB0404",
"*. c #C00D08",
"=. c #D40404",
"-. c #DC0707",
";. c #C6110C",
":. c #C11412",
">. c #CE1611",
",. c #C71B16",
"<. c #CE1B16",
"1. c #C71A18",
"2. c #CA1A18",
"3. c #D51B16",
"4. c #E30707",
"5. c #EA0909",
"6. c #F20909",
"7. c #FB0B0B",
"8. c #C4211E",
"9. c #CA211C",
"0. c #D4211E",
"q. c #DD211C",
"w. c #C22723",
"e. c #CE2621",
"r. c #C12B26",
"t. c #D82724",
"y. c #DF322E",
"u. c #E02724",
"i. c #E72822",
"p. c #E02F2A",
"a. c #EA2C29",
"s. c #F12F29",
"d. c #E5332E",
"f. c #F1332E",
"g. c #F9342F",
"h. c #E03631",
"j. c #F83631",
"k. c #F73934",
"l. c #FE3833",
"z. c None",
/* pixels */
"z.z.z.z.z.z.z.z.z.z.z.z.z.z.! ! W W z.z.z.z.z.z.z.z.z.z.z.z.z.z.",
"z.z.z.z.z.z.z.z.z.z.! ! ! ! ! ! ! ! ! ! ! ! z.z.z.z.z.z.z.z.z.z.",
"z.z.z.z.z.z.z.z.*.*.*.*.;.! ;.! ;.! ! ;.! ;.;.! z.z.z.z.z.z.z.z.",
"z.z.z.z.z.z.z.;.;.;.;.;.;.;.;.;.;.;.;.;.;.;.;.;.;.z.z.z.z.z.z.z.",
"z.z.z.z.z.>.>.>.>.>.>.>.>.>.>.>.>.>.>.>.>.>.>.>.>.>.U z.z.z.z.z.",
"z.z.z.z.<.3.3.3.3.3.3.3.,./ N j f M Y ( 3.3.3.3.3.3.3.3.z.z.z.z.",
"z.z.z.z.q.q.q.q.q.q.0.) * * , , , , > > > T q.q.q.9.q.q.z.z.z.z.",
"z.z.z.i.i.i.i.i.i.8.V 9 9 9 9 9 9 9 9 9 , 2 V 9.i.[ X.i.i.z.z.z.",
"z.z.s.s.s.s.s.s.o.6 q q q q e 0 0 w 0 0 0 0 A Z r.f.s.f.s.y.z.z.",
"z.z.g.g.j.j.g.d.S r e t t t e e e w w t w r r 4 : f.g.g.f.O.z.z.",
"z.l.l.l.l.l.l.F u u t y u u u t u u u y r y y y 1 ' l.l.l.l.@.z.",
"z.l.l.l.l.l.#.t u u u u u u u t u y y u y y y y r > $.| G l.k.z.",
"z.l.l.j.l.l.F t t t t u u u t t u y y y t y y t t 3 3 t D l.l.z.",
"z.j.j.j.j.j.D r t t t t t t t r e y w u r r y r r 3 1 r t h.j.z.",
"d.f.f.f.f.d.0 r r e e q t q r e e e w w w w 0 r e 5 . e w +.f.d.",
"a.a.a.a.a.o.0 q q q q q A q q q q 0 0 0 q q q 7 0 0   0 0 } a.{ ",
"t.u.u.t.t.X.7 7 7 7 7 7 7 7 q 7 9 q 9 7 6 6 q 9 9 6   w. ...t. .",
"<.t.3.t.0.8.< < < < < < < < ; ; ; < 7 ; < < < < < * & _ B ..t.3.",
"z.2.2.<.<.2.: : : : : : : : : : : : : : : ; ; ; ; & - B B 1.2.z.",
"z.:.:.:.:.:.h - d - - - - - - = = = = = = - - = = % d m j :.:.z.",
"z.^ ^ ^ ^ ^ b = # $ # - $ $ - - # # # # - # # # # % I b x ^ ^ z.",
"z.~ ~ ~ ~ ~ ~ p $ $ @ $ $ $ $ @ $ $ $ $ $ $ $ # O z ~ ~ ~ ~ I z.",
"z.z.~ E ~ E E P @ @ @ $ @ @ @ @ + @ @ @ + @ @ + @ R E ~ E P z.z.",
"z.z.R E R E E E c + + + @ @ + + + + + + + + + + J E E E E E z.z.",
"z.z.z.E E E E E E H + + + + + + + + + + + X + L R E R E E z.z.z.",
"z.z.z.z.E E E E E W E s o + + + + + + + X l W W W E W E z.z.z.z.",
"z.z.z.z.W Q Q Q Q Q Q Q P H s i + a l L E Q Q Q Q Q Q Q z.z.z.z.",
"z.z.z.z.z.%.%.%.%.%.%.%.%.%.%.%.%.%.%.%.%.%.%.%.%.%.%.z.z.z.z.z.",
"z.z.z.z.z.z.%.&.=.=.&.&.&.&.&.&.=.=.=.=.=.=.=.=.=.z.z.z.z.z.z.z.",
"z.z.z.z.z.z.z.z.-.-.-.4.-.-.=.=.4.4.4.4.4.4.4.4.z.z.z.z.z.z.z.z.",
"z.z.z.z.z.z.z.z.z.z.5.6.6.6.5.6.6.6.6.6.6.5.z.z.z.z.z.z.z.z.z.z.",
"z.z.z.z.z.z.z.z.z.z.z.z.z.z.6.7.7.6.z.z.z.z.z.z.z.z.z.z.z.z.z.z."
};
