/* XPM */
static char *result[] = {
/* columns rows colors chars-per-pixel */
"32 32 203 2 ",
"   c #1B0E0B",
".  c #181817",
"X  c #171818",
"o  c #1A1A1A",
"O  c #1A1412",
"+  c #210908",
"@  c #2A0C0B",
"#  c #2A0904",
"$  c #3B0000",
"%  c #3B0C0A",
"&  c #3A0904",
"*  c #34110C",
"=  c #2D1611",
"-  c #241B1C",
";  c #291817",
":  c #371412",
">  c #3A1412",
",  c #351916",
"<  c #371A18",
"1  c #3A1A18",
"2  c #37211E",
"3  c #38211E",
"4  c #1C1F22",
"5  c #262224",
"6  c #2B282C",
"7  c #342625",
"8  c #392724",
"9  c #372D2F",
"0  c #3B2C29",
"q  c #39322E",
"w  c #36322E",
"e  c #2D2C32",
"r  c #392E34",
"t  c #373732",
"y  c #393632",
"u  c #373833",
"i  c #3A3833",
"p  c #400101",
"a  c #4C0601",
"s  c #440E0D",
"d  c #550302",
"f  c #5B0302",
"g  c #5A0E0D",
"h  c #461412",
"j  c #481412",
"k  c #521C1A",
"l  c #5A1D19",
"z  c #640E0B",
"x  c #6A0C0B",
"c  c #6C0904",
"v  c #720401",
"b  c #7B0303",
"n  c #780904",
"m  c #720B0A",
"M  c #7C0B08",
"N  c #6A110C",
"B  c #6E1512",
"V  c #6C1D1A",
"C  c #7A1512",
"Z  c #771A18",
"A  c #7C1A18",
"S  c #771B16",
"D  c #4D211C",
"F  c #59211C",
"G  c #65211E",
"H  c #6A211D",
"J  c #72211E",
"K  c #7D211E",
"L  c #4C2E2B",
"P  c #5E2822",
"I  c #532E29",
"U  c #5F2F29",
"Y  c #582A26",
"T  c #42342F",
"R  c #50342F",
"E  c #5F322E",
"W  c #512D33",
"Q  c #443734",
"!  c #4A3332",
"~  c #453834",
"^  c #4D3933",
"/  c #513833",
"(  c #5C3331",
")  c #672724",
"_  c #622C25",
"`  c #622C29",
"'  c #6B2724",
"]  c #742622",
"[  c #7E2723",
"{  c #732822",
"}  c #7C2E29",
"|  c #7A2B24",
" . c #63332F",
".. c #6F322E",
"X. c #633531",
"o. c #653833",
"O. c #6A3633",
"+. c #733533",
"@. c #7D3631",
"#. c #840302",
"$. c #810C0B",
"%. c #8C0B0A",
"&. c #930101",
"*. c #9F0302",
"=. c #940D08",
"-. c #9E0D08",
";. c #9C0904",
":. c #94110C",
">. c #841412",
",. c #881A18",
"<. c #991611",
"1. c #9E1A17",
"2. c #9E1A18",
"3. c #921B16",
"4. c #A40402",
"5. c #AB0101",
"6. c #AC0904",
"7. c #AD0B08",
"8. c #B70601",
"9. c #B90000",
"0. c #BB0904",
"q. c #B20A09",
"w. c #B80E0D",
"e. c #A2110C",
"r. c #B4110C",
"t. c #A51512",
"y. c #A71B16",
"u. c #A61F1B",
"i. c #AF1A18",
"p. c #AE1814",
"a. c #B71412",
"s. c #B11A18",
"d. c #BA1A18",
"f. c #B81915",
"g. c #81211E",
"h. c #90211E",
"j. c #AD211C",
"k. c #B4211D",
"l. c #832724",
"z. c #862822",
"x. c #842F29",
"c. c #8E2F29",
"v. c #9B2C29",
"b. c #8D322E",
"n. c #8A3533",
"m. c #8C3832",
"M. c #9D3934",
"N. c #A12D29",
"B. c #AF2F29",
"V. c #BD2724",
"C. c #B72822",
"Z. c #B02D29",
"A. c #B92E29",
"S. c #A1302F",
"D. c #AE322E",
"F. c #B5322E",
"G. c #B13631",
"H. c #BC3833",
"J. c #B43934",
"K. c #C60101",
"L. c #CD0505",
"P. c #C00D08",
"I. c #D50404",
"U. c #DB0707",
"Y. c #DB0909",
"T. c #C6110C",
"R. c #C11412",
"E. c #CE1611",
"W. c #C11B16",
"Q. c #C81B16",
"!. c #CA1A18",
"~. c #D41B16",
"^. c #E20707",
"/. c #E70909",
"(. c #EB0A0A",
"). c #F10909",
"_. c #F90B0B",
"`. c #C3211D",
"'. c #CA211E",
"]. c #D4211E",
"[. c #DD211C",
"{. c #CD2724",
"}. c #CD2C27",
"|. c #C42E29",
" X c #CC2E29",
".X c #D22724",
"XX c #DC2822",
"oX c #DF2E29",
"OX c #DC2724",
"+X c #CA342F",
"@X c #E02724",
"#X c #E72822",
"$X c #E92C29",
"%X c #E22C29",
"&X c #F12F29",
"*X c #E0342F",
"=X c #E9322E",
"-X c #F1322E",
";X c #F9342F",
":X c #F83631",
">X c #F43933",
",X c #FE3833",
"<X c None",
/* pixels */
"<X<X<X<X<X<X<X<X<X<X<X<X<X<X<X<X6.v 8.8.a <X<X<X<X<X<X<X<X<X<X<X",
"<X<X<X<X<X<X<X<X<X<XP.0.0.0.0.;.n 6.0.6.c & # <X<X<X<X<X<X<X<X<X",
"<X<X<X<X<X<X<X<X<XP.P.P.P.P.P.P.M   -.7.$.=.& z <X<X<X<X<X<X<X<X",
"<X<X<X<X<X<X<X<XT.T.T.T.T.e.T.T.T.* N T.T.T.r.:.<X<X<X<X<X<X<X<X",
"<X<X<X<X<X<X<XE.E.E.E.E.t.= <.E.E.<.E.E.E.E.E.C B <X<X<X<X<X<X<X",
"<X<X<X<X<X<Xs.~.~.~.~.~.3.l , i.E.S ~.~.W.W.d.Q.y.K <X<X<X<X<X<X",
"<X<X<X<X<X<X[.[.[.[.[.[.~.[.k - H F j.`.F D j.[.[.k.<X<X<X<X<X<X",
"<X<X<X<X<X#X#X#X#X#X#X#X#X#Xl.- _ z.H P { { { XX#Xk.<X<X<X<X<X<X",
"<X<X<X<X<X&X&X&X&X&XoXA.|.}.N.5 _ c._ L L } E } =XB.x.<X<X<X<X<X",
"<X<X<X<X<X;X;X;X;X;XS.9 L X.6 o I X.T R R R R R +X;X*X<X<X<X<X<X",
"<X<X<X<X>X,X,X,X,X,Xn.e e o 5 - | +.y ^ / / ^ ^ m.,X,X<X<X<X<X<X",
"<X<X<X<X>X,X,X,X,X,X+.r M.4 o O.m.~ y ~ ^ / ^ ^ ^ >XJ./ <X<X<X<X",
"<X<X<X<X,X,X,X,X,X,XW W H.5 X @.+.u u i o.~ y y u m./ i <X<X<X<X",
"<X<X<X<X:X:X:X:X:X:X( O.G.6 X x.@.u y y ~ q q y t X.X.q <X<X<X<X",
"<X<X<X<X-X-X-X-X&X=XE E ..4 X Z.D.w q q w q q q q b.F.q <X<X<X<X",
"<X<X<X$X$X$X$X$X$X X` ` L X X }.v.0 0 0 0 L 0 0 0 } %XR <X<X<X<X",
"<X<X<X.X.X.X{..XOXV.) ' Y o o [ _ 8 8 8 ] l.l.8 8 l.@X@X<X<X<X<X",
"<X<X<X<X].].'.'.'.`.G V C.; X V J 2 2 2 g.g.K 2 3 h.].].<X<X<X<X",
"<X<X<X<X!.!.!.!.!.!.k V s.1 o 2.i., , 1 A ,.Z 1 < 2.!.d.<X<X<X<X",
"<X<X<X<XR.R.R.a.R.a.j s t.; O a.a.> > j >.>.B > : t.R.C <X<X<X<X",
"<X<X<X<Xw.w.w.w.w.w.g % %.  @ w.w.s % z $.>.x x z w.w.x <X<X<X<X",
"<X<X<X<X6.q.q.q.q.q.m % @ + x q.q.m & $.%.M M M %.7.q.<X<X<X<X<X",
"<X<X<X<X<X6.6.6.6.5.b f b 4.6.5.6.*.f #.b #.b n 4.6.q.<X<X<X<X<X",
"<X<X<X<X<X5.4.5.5.4.5.5.5.4.5.5.5.5.#.#.v p b &.4.5.#.<X<X<X<X<X",
"<X<X<X<X<X5.5.4.4.5.5.5.5.5.5.4.5.5.4.b $ $ d 5.5.5.<X<X<X<X<X<X",
"<X<X<X<X<X<X9.5.5.9.5.5.9.5.5.5.5.5.5.&.d b 4.5.5.5.<X<X<X<X<X<X",
"<X<X<X<X<X<X9.9.9.9.9.9.9.9.9.9.9.9.9.9.9.9.5.9.9.9.<X<X<X<X<X<X",
"<X<X<X<X<X<X<XK.K.K.K.K.K.K.K.K.K.K.K.K.K.K.K.K.K.<X<X<X<X<X<X<X",
"<X<X<X<X<X<X<X<XI.I.I.I.I.I.I.I.I.L.L.I.I.I.I.I.<X<X<X<X<X<X<X<X",
"<X<X<X<X<X<X<X<X<X^.^.^.^.^.^.^.U.L.^.^.^.^.^.Y.<X<X<X<X<X<X<X<X",
"<X<X<X<X<X<X<X<X<X<X/.).).).).(.Y.(.).).(.).<X<X<X<X<X<X<X<X<X<X",
"<X<X<X<X<X<X<X<X<X<X<X<X<X<X<X<X(.(._._.(.<X<X<X<X<X<X<X<X<X<X<X"
};
