/* XPM */
static char *result[] = {
/* columns rows colors chars-per-pixel */
"32 32 218 2 ",
"   c #18161D",
".  c #1F1C1E",
"X  c #270908",
"o  c #280E0D",
"O  c #3A0504",
"+  c #370E0D",
"@  c #3E0908",
"#  c #271412",
"$  c #2E1412",
"%  c #261A18",
"&  c #211A1D",
"*  c #27211E",
"=  c #321D22",
"-  c #282724",
";  c #282625",
":  c #202129",
">  c #26262B",
",  c #27272E",
"<  c #2F272F",
"1  c #2E2C2B",
"2  c #2A2A2D",
"3  c #2C2C2F",
"4  c #372227",
"5  c #392724",
"6  c #362A26",
"7  c #38242A",
"8  c #362C29",
"9  c #322B2E",
"0  c #312D2D",
"q  c #382C29",
"w  c #35322E",
"e  c #37322E",
"r  c #3D322E",
"t  c #282731",
"y  c #362B31",
"u  c #392A34",
"i  c #373531",
"p  c #363631",
"a  c #373631",
"s  c #410504",
"d  c #490101",
"f  c #5D0000",
"g  c #5C0E0D",
"h  c #5D1B16",
"j  c #5E1A18",
"k  c #610908",
"l  c #6B0E0D",
"z  c #740504",
"x  c #790000",
"c  c #7E0000",
"v  c #661412",
"b  c #6C1A18",
"n  c #781A18",
"m  c #4C211C",
"M  c #61211E",
"N  c #6B211E",
"B  c #70211E",
"V  c #75211E",
"C  c #7B211E",
"Z  c #7D211E",
"A  c #7E211E",
"S  c #402E29",
"D  c #4A2C29",
"F  c #502724",
"G  c #542724",
"H  c #542C29",
"J  c #5A2C29",
"K  c #54322E",
"L  c #54342F",
"P  c #422A31",
"I  c #662724",
"U  c #602C29",
"Y  c #672C29",
"T  c #6D2F2E",
"R  c #722623",
"E  c #792724",
"W  c #732A2B",
"Q  c #742B2B",
"!  c #722C29",
"~  c #772C29",
"^  c #782C29",
"/  c #792C29",
"(  c #62322E",
")  c #7A322E",
"_  c #7C322E",
"`  c #643631",
"'  c #6C3631",
"]  c #643832",
"[  c #6C3833",
"{  c #6E3934",
"}  c #713031",
"|  c #7A3631",
" . c #783533",
".. c #793633",
"X. c #7F3833",
"o. c #7F3934",
"O. c #920101",
"+. c #930101",
"@. c #940101",
"#. c #980000",
"$. c #9A0601",
"%. c #921412",
"&. c #A00000",
"*. c #A00601",
"=. c #A20601",
"-. c #A70601",
";. c #A70504",
":. c #A90000",
">. c #A90101",
",. c #AF0000",
"<. c #A80601",
"1. c #AB0601",
"2. c #AF0601",
"3. c #AB0504",
"4. c #AC0504",
"5. c #A50E0D",
"6. c #AE0908",
"7. c #AF0908",
"8. c #B40601",
"9. c #B70601",
"0. c #B90000",
"q. c #BB0904",
"w. c #B10908",
"e. c #B80E0D",
"r. c #A4100C",
"t. c #A11412",
"y. c #A51A18",
"u. c #B91B16",
"i. c #8E211E",
"p. c #A4211E",
"a. c #A6211E",
"s. c #BA211C",
"d. c #BE211E",
"f. c #812724",
"g. c #8C2724",
"h. c #8F2724",
"j. c #8F2822",
"k. c #9B2D29",
"l. c #883631",
"z. c #8D3733",
"x. c #933832",
"c. c #A62724",
"v. c #A92724",
"b. c #AA2C29",
"n. c #B32F29",
"m. c #BD2C29",
"M. c #BE2F29",
"N. c #A8342F",
"B. c #B5312E",
"V. c #AC3832",
"C. c #B43431",
"Z. c #BD3531",
"A. c #BD3533",
"S. c #B23934",
"D. c #C40101",
"F. c #C50101",
"G. c #C60101",
"H. c #C80404",
"J. c #C90404",
"K. c #CA0404",
"L. c #CB0404",
"P. c #CC0404",
"I. c #C00D08",
"U. c #D00404",
"Y. c #D10404",
"T. c #D40404",
"R. c #D50404",
"E. c #C6110C",
"W. c #C7110C",
"Q. c #C21611",
"!. c #C11412",
"~. c #CE1611",
"^. c #C41A18",
"/. c #C61A18",
"(. c #C71A18",
"). c #C81A18",
"_. c #C91A18",
"`. c #CB1A18",
"'. c #D51B16",
"]. c #E30707",
"[. c #E80909",
"{. c #EB0909",
"}. c #EE0909",
"|. c #EF0909",
" X c #F00909",
".X c #F10909",
"XX c #F20B0B",
"oX c #F50B0B",
"OX c #FA0B0B",
"+X c #FB0B0B",
"@X c #D5211E",
"#X c #DD211C",
"$X c #C92724",
"%X c #CD2822",
"&X c #C02F29",
"*X c #DC2822",
"=X c #D82F29",
"-X c #C23733",
";X c #C83633",
":X c #DA3934",
">X c #E02724",
",X c #E12822",
"<X c #E72822",
"1X c #E02F29",
"2X c #E92C29",
"3X c #F12F29",
"4X c #EE322E",
"5X c #E8342F",
"6X c #E9342F",
"7X c #F1322E",
"8X c #F9342F",
"9X c #EF3631",
"0X c #E23832",
"qX c #F83631",
"wX c #FD3833",
"eX c #FE3832",
"rX c #FF3934",
"tX c None",
/* pixels */
"tXtXtXtXtXtXtXtXtXtXtX9.8.1.=.*.$.-.<.2.tXtXtXtXtXtXtXtXtXtXtXtX",
"tXtXtXtXtXtXtXtXtXtXtXq.q.q.q.q.q.q.q.q.q.tXtXtXtXtXtXtXtXtXtXtX",
"tXtXtXtXtXtXtXtXtXtXI.I.I.I.I.I.I.I.I.I.I.tXtXtXtXtXtXtXtXtXtXtX",
"tXtXtXtXtXtXtXtXtXW.E.E.E.E.E.E.E.E.E.E.E.r.tXtXtXtXtXtXtXtXtXtX",
"tXtXtXtXtXtXtXtXtX~.~.~.~.~.~.~.~.~.~.~.~.Q.tXtXtXtXtXtXtXtXtXtX",
"tXtXtXtXtXtXtXtX'.'.'.'.'.'.'.'.'.'.'.'.'.u.h tXtXtXtXtXtXtXtXtX",
"tXtXtXtXtXtXtXtX#X#X#X#X#X#X#X#X#X#X#X#X#Xs.m tXtXtXtXtXtXtXtXtX",
"tXtXtXtXtXtXtXtX*X,X<X<X<X<X<X<X<X<X<X<X<X%Xj.tXtXtXtXtXtXtXtXtX",
"tXtXtXtXtXtXtXtX1X&X3X3X3X3X3X3X3X3X3X=XM.k.n.S tXtXtXtXtXtXtXtX",
"tXtXtXtXtXtXtXL 5XN.8X8X8X8X8X8X8X8X8X=   W 6Xr tXtXtXtXtXtXtXtX",
"tXtXtXtXtXtXtX] V.x.eXeXeXeXeXeXeXeXeX4 & Q 0X2 tXtXtXtXtXtXtXtX",
"tXtXtXtXtXtXtX{ S.o.rXrXrXrXrXrXrXrXrX7 . u :X> 1 tXtXtXtXtXtXtX",
"tXtXtXtXtXtXtX[ -XX.wXwXwXwX;X.... .z.< : P A.3 ; tXtXtXtXtXtXtX",
"tXtXtXtXtXtXtX` Z.| qXqXqXqXC.a p i ' y t } 9Xl.0 tXtXtXtXtXtXtX",
"tXtXtXtXtXtXtX( B.) 7X7X7X7XB.e e w K 9 , T 4X_ q tXtXtXtXtXtXtX",
"tXtXtXtXtXtXtXY b./ 2X2X2X2Xm.8 H J ~ U D ^ 2X! 6 tXtXtXtXtXtXtX",
"tXtXtXtXtXtXtXI c.E >X>X>X>X$Xf.F 5 G g.h.v.>XR - tXtXtXtXtXtXtX",
"tXtXtXtXtXtXtXM a.V @X@X@X@Xd.A C V p.Z N i.@XB * tXtXtXtXtXtXtX",
"tXtXtXtXtXtXtXn y.b `.`.`.`._.(.(.).`./.^.(.`.j % tXtXtXtXtXtXtX",
"tXtXtXtXtXtXtX%.t.v !.!.!.!.!.!.!.!.!.!.!.!.!.$ # tXtXtXtXtXtXtX",
"tXtXtXtXtXtXtXl 5.g e.e.e.e.e.e.e.e.e.e.e.e.e.o + tXtXtXtXtXtXtX",
"tXtXtXtXtXtXtX@ 6.k w.w.w.w.w.w.w.w.w.w.w.w.7.X tXtXtXtXtXtXtXtX",
"tXtXtXtXtXtXtXO 3.z 4.4.4.4.4.4.4.4.4.4.4.4.;.s tXtXtXtXtXtXtXtX",
"tXtXtXtXtXtXtXtX@.O.>.>.>.>.>.>.>.>.>.>.>.>.+.d tXtXtXtXtXtXtXtX",
"tXtXtXtXtXtXtXtXc :.:.:.:.:.:.:.:.:.:.:.:.:.x tXtXtXtXtXtXtXtXtX",
"tXtXtXtXtXtXtXtX&.,.,.,.,.,.,.,.,.,.,.,.,.,.f tXtXtXtXtXtXtXtXtX",
"tXtXtXtXtXtXtXtX0.0.0.0.0.0.0.0.0.0.0.0.0.0.#.tXtXtXtXtXtXtXtXtX",
"tXtXtXtXtXtXtXtXtXG.G.G.G.G.D.F.F.F.F.F.F.G.tXtXtXtXtXtXtXtXtXtX",
"tXtXtXtXtXtXtXtXtXT.R.R.R.U.H.J.K.K.L.P.P.Y.tXtXtXtXtXtXtXtXtXtX",
"tXtXtXtXtXtXtXtXtXtX].].].].].].].].].].].tXtXtXtXtXtXtXtXtXtXtX",
"tXtXtXtXtXtXtXtXtXtXtX.X|..X.X.X.X X{.}.[.tXtXtXtXtXtXtXtXtXtXtX",
"tXtXtXtXtXtXtXtXtXtXtX+XOX+X+X+X+X+XoXXXtXtXtXtXtXtXtXtXtXtXtXtX"
};
