/* XPM */
static char *result[] = {
/* columns rows colors chars-per-pixel */
"64 64 212 2 ",
"   c #0A0907",
".  c #14100A",
"X  c #1F190E",
"o  c #141515",
"O  c #121718",
"+  c #151B1C",
"@  c #1B1D1D",
"#  c #2D1B09",
"$  c #36240B",
"%  c #21201E",
"&  c #2F2919",
"*  c #342E1C",
"=  c #181F20",
"-  c #1C2324",
";  c #1E2728",
":  c #1F2829",
">  c #232423",
",  c #282725",
"<  c #2A2927",
"1  c #222728",
"2  c #232B2C",
"3  c #2C2D2B",
"4  c #302F2D",
"5  c #3C3724",
"6  c #31312E",
"7  c #252F30",
"8  c #282F31",
"9  c #273133",
"0  c #2A3335",
"q  c #2B3738",
"w  c #2E3A3C",
"e  c #343533",
"r  c #383735",
"t  c #3A3936",
"y  c #323B3C",
"u  c #3D3C3A",
"i  c #472F11",
"p  c #563516",
"a  c #533813",
"s  c #6C3910",
"d  c #403F3D",
"f  c #68461A",
"g  c #784B15",
"h  c #46402E",
"j  c #42423D",
"k  c #754520",
"l  c #2F3E40",
"z  c #323F40",
"x  c #393F40",
"c  c #344244",
"v  c #3B4344",
"b  c #364649",
"n  c #3A4748",
"m  c #37484B",
"M  c #3B4A4D",
"N  c #3D4E51",
"B  c #3E5154",
"V  c #414645",
"C  c #434748",
"Z  c #434B4C",
"A  c #4A4D4C",
"S  c #52514E",
"D  c #414F51",
"F  c #484F50",
"G  c #425355",
"H  c #4A5354",
"J  c #435659",
"K  c #4A5759",
"L  c #455A5D",
"P  c #4B5B5D",
"I  c #545452",
"U  c #525B5C",
"Y  c #5C5C5A",
"T  c #52615D",
"R  c #61615F",
"E  c #475E61",
"W  c #4B5E61",
"Q  c #525F60",
"!  c #4C6265",
"~  c #4E6669",
"^  c #4F696C",
"/  c #526365",
"(  c #596263",
")  c #5D6864",
"_  c #526669",
"`  c #5B6769",
"'  c #536A6D",
"]  c #5B6B6E",
"[  c #546E72",
"{  c #5A6E71",
"}  c #567175",
"|  c #5B7275",
" . c #577479",
".. c #5B7579",
"X. c #5D797D",
"o. c #666664",
"O. c #636C6D",
"+. c #69726F",
"@. c #71706D",
"#. c #637375",
"$. c #6B7373",
"%. c #627679",
"&. c #6B7779",
"*. c #637A7D",
"=. c #6A7B7D",
"-. c #787C77",
";. c #737D7E",
":. c #975B15",
">. c #A45F1B",
",. c #8B552A",
"<. c #A86920",
"1. c #A77D3C",
"2. c #7C8279",
"3. c #AC813F",
"4. c #CE9128",
"5. c #D9BE4C",
"6. c #E9D656",
"7. c #EAD86B",
"8. c #EFE270",
"9. c #5E7C80",
"0. c #637E82",
"q. c #6A7E81",
"w. c #747F80",
"e. c #787F80",
"r. c #648185",
"t. c #6B8185",
"y. c #668589",
"u. c #6C8689",
"i. c #6C898D",
"p. c #748285",
"a. c #7A8384",
"s. c #728789",
"d. c #798788",
"f. c #738A8D",
"g. c #7C8B8D",
"h. c #6D8D91",
"j. c #748D91",
"k. c #7A8E91",
"l. c #6E9195",
"z. c #749195",
"x. c #7C9295",
"c. c #769599",
"v. c #7C9699",
"b. c #77989C",
"n. c #7B999D",
"m. c #7D9DA1",
"M. c #848B8B",
"N. c #829395",
"B. c #899090",
"V. c #899495",
"C. c #829699",
"Z. c #8A9799",
"A. c #859A9D",
"S. c #8A9B9D",
"D. c #939797",
"F. c #929C9D",
"G. c #97A09D",
"H. c #829EA1",
"J. c #8B9EA1",
"K. c #919EA0",
"L. c #85A2A5",
"P. c #8DA1A4",
"I. c #86A5A8",
"U. c #8AA6A9",
"Y. c #8DA9AD",
"T. c #92A3A5",
"R. c #9AA6A7",
"E. c #95A6A9",
"W. c #9AA7A9",
"Q. c #94AAAC",
"!. c #9BABAD",
"~. c #8FACB0",
"^. c #95AEB1",
"/. c #9DAEB0",
"(. c #96B2B5",
"). c #9BB2B5",
"_. c #9DB6B9",
"`. c #A2ACAD",
"'. c #A8ADAD",
"]. c #A2AFB1",
"[. c #A4B2B4",
"{. c #AAB4B6",
"}. c #A3B6B9",
"|. c #A9B7B9",
" X c #A4BABD",
".X c #ACBABC",
"XX c #B2BCBD",
"oX c #B8BABA",
"OX c #A6BEC1",
"+X c #ACBEC1",
"@X c #B3BFC0",
"#X c #B8BFC0",
"$X c #AAC3C5",
"%X c #ADC2C5",
"&X c #B5C2C4",
"*X c #BAC4C5",
"=X c #B4C6C9",
"-X c #BCC7C8",
";X c #B3C9CB",
":X c #BDCACB",
">X c #BECED0",
",X c #BFD0D2",
"<X c #C5C9C9",
"1X c #C3CBCD",
"2X c #C6CFD0",
"3X c #C8CFD0",
"4X c #C5D2D3",
"5X c #CAD3D4",
"6X c #CCD7D9",
"7X c #CED9DB",
"8X c #D2D9D9",
"9X c #EAEAEA",
/* pixels */
"&.{.{.[.].{.XX{.`.[.{.{.[.!.`.`.].{.].].'.{.].'.].].].'.`.].{.].{.].{.{.{.{..XoX{.{.oXXX{.oXXX@XoXoX*X*X#XoX*X*X<X<X4X1X5X5X5X[.",
"G r.[ y.9.v.0.{ W ..} 0...' ' _ ..j.0.[ ^ t.....' 0.| ..~ i.q.W ' 0.h.0.9.' ..0.[ } r.i.r.r.' f.^  .v.n.h.I.v.)._.^.^.I.m.z.n.XX",
"b X.J } ..y.M @.;.} } r.r.^ G I D.0.0.[ ~ [ J @.e...t.9.~ 9.E r <X..0.u.z.| J -.F.v.y.A.' } J S #Xr.c.U.L.r.] oXXXQ.Y.n.n.i.y.XX",
"B } J ' } r.N - M { 0.i... .W @ D y.y.^ E W m = z [ [ } [ ..W + y [ *.0.j.9._ % G x.z.v.z.X.! = n c.I./.L.U.' y d._.Y.v.X. .v.<X",
"G 9.X.} ^ 9. .^ [ 9.0.j.r. .r.{ 0.0...[ B ^ E ! W [ ^  .~ [ [ [ 0.0.9.0.H.[ i.q.y.v.z.j.y.X.X.v.A.L.Y.^.Q.I.n.Y..X%X(.b.X.} n.&X",
"N ^ X.[ [ s.7 q q z y z z w v q y w y 9 q : : ; 2 0 9 7 7 l 0 9 q w q z x 0 q 9 w l w w c q y c c c c Z M D Z U ] { r.~.m.l.Y.&X",
"w ^ ^ ' } W.2 @ - - - - - - - - - - - = - O O + O = = = O = = = = = = = = = = = + - O + @ + - - ; > > 2 2 2 2 q v M n.(.i.Q.I.@X",
"w ! F #.^ !.2 - - - - 2 ; 2 7 8 7 q 9 2 9 - - - = - - = = : 7 - 2 1 7 8 8 7 2 = - - - ; ; - 2 2 q q y y y n m G P H z.I.Z 9XL.*X",
"b N 6 D | [.9 2 ; 2 2 9 2 7 9 w 0 0 9 9 0 ; - ; ; : 7 ; 7 8 7 2 8 2 8 q y q 8 0 9 9 7 7 y q y q v n n H J P / / _ T I._.n F ~.&X",
"M L J ! r.[.q q 0 9 q w q q c c c q c c b q 7 9 q 8 w q w z c q z z z b m z n y w c l w Z M N c H P ` %.=.s.&.| | K i.$X X_.(.-X",
"m ^ i.h.h.[.z c l w c z b c J D G N N N G b l b w q l l N m b l m D D P G N H N N J B w G G J N ! =.s.C.A.A.t.] #.P A.$XOX%XOX*X",
"B  .X.X.b.[.M M B M m G G M W E / _ ! L B J m M c l b B M N D D W W / W _ / W J N G ! b W ' ^ B %.s.x.n.A.L.*.*.{ U I.$X>X$X}.*X",
"! r.9. .H.{.M K J / / W L G ^ W ^ ~ _ J B W B N c m c B m N { ] ( W _ W ` W J J m b L J { | ! ' %.f.P.Q.v.h.z.=.T P l.$X;X$X(.1X",
"N i.} 9.n..XH P K U / ! J L ' W N N ..W J [ E E B m m B J Q { { ` E _ W ' B E E J m | W W | E ! *.P.H.Q.L.c.v.t.J N h.;X;X$XOX-X",
"G h.^  .L.&XU / K / / P L _ | W J J ~ ' ^ ..! J E b m E W [ p.=.{ E { ~ ' J { L J N ~ J ' ' G J r.f.U.b.Y.U.v.| ] M n.,X>X&X X-X",
"m X.J r.c.XXU / / _ P _ | ] ' [ [ W ! _ [ ~ ! E ~ E ^ ~ { 0.w.q.q.q.%.Q E ! J N N ' ^ N { | N m *.A.U.Y._.^.f.%.P K m.$X2.5X X*X",
"M J S a.y.&XP ` ] / ` { %.0.0.%.t.f.0.{ J ! J W ~ { t.t.s.k.s.*.p.k.s._ [ [ E N E #.| E B B b c ' L..X X).^.z.| ) P ^.=Xv M.&X1X",
"B r.M 0./.*XK / _ #.{ %.t.q.q.f.C.C.x.j.*...E J ! 0.x.k.s.C.k.*.k.x.0.E [ W J B J ' 0.' E M m m L v.}.:X&X^.!.t.%.T Y.6X&X.X&X-X",
"E y.b.(.}.&XU O.#.#.#._ { f.k.x.x.C.C.S.x.t. .*.k.C.J.C.s.0.s.' j.f.*.*.[ L ! L | | *.' ~ B b N B z. X*X+XI.E.d.&.` ).6X4X:X,X3X",
"~ l.c.}. X&XK { &.q.q.=.[ s.k.C.f.S.S.J.C.j.i.x.Z.C.A.C.k.x.s...C.x.j.k.f._ [ W | q.t.[ [ E J ~ ' z.@X:X_. XP.g.t.) {.6X7X6X:X3X",
"_ ^.).+X/.|.P &.w.d.g.N.2.k.C.C.v.T.E.T.W.J.x.j.j.A.J.T.K.f.y.t.k.C.v.x.f.| ^ E ' *.q.| 0.q.j.k.v.^.:X-X X.X[.Z.p.O.|.7X:X:X;X1X",
"=._.Y.Y.L.&X` p.p.g.N.N.j.C.K.P.S.E.!.W.E.P.C.x.J.T.J.J.!.A.C.u.S.*...S.C.| ..^ W | 0.| { s.A.T.v./.=X&X&X+X[.Z.=.O..X7X,X,X&X1X",
"a.+X.XL.).*XO.=.d.N.d.N.S.P.R.T.T.T./.!.!.E.P.J.!.].P.J.E.C.J.j.C.f.t.x./.N.0.0.*.*.0...| j.C.P.E.[._.:X1X*X.XV.] ) {.6X.X&X=X5X",
"p.!.-.T..X#X/ ~ { =.s.N.S.T.!.!.E.P.!.E./.E.].[././.!.E.!.J.j.r.r.C.T.A.A.k.0.| f.j.t.0.x.x.j.x.z.[. X-X:X-X.XV.&.Q !.-XF 9X&X<X",
"#.M.V Q Q.[.M / ' | s.V.S.`.[.!.[.!.!.|.[.{././.!./.!.!.[.z.A.x.T.x.J.S.C.A.f.0.C.t.0.f.J.A.*.x.J.H.-X-X2X@Xk.q.p.U K.&XC U -X<X",
"w. Xu...c..X/ P %.s.S.K.R.`./.`.|.|.[.|.{.XX.X!.E.|./.[..XJ.!.J.!.v.].Q./.x.!.C.T.].Q.K.!.J.0.x.x.J.@X1X*XJ.`.d.&.U Z.2X&X-X:X<X",
"! H.U.n.^..XG K | q.Z.R.R.!.Z.2.e.a.a.=.a.a.;.;.p.Z.|.!.!.T.E.J.T.S.].@XW.f.T.u.!..X@X@X|.W.J.[.Q./.@X@X+X/.Z.q.+.F V.-X2X:X-X:X",
"B r.^.9.b./.Z ] q.D.F.`.`.E.H o I Y R o.Y R I R I r /./.E./.|.C.A.v.x.[.P.u.J.C.E.].|.J.Q.C.J.J.P./.|.@XXX].N.e.+.n B.2X-X+X&X*X",
"b z.h.9.l.).Z / &.g.d.N.T.!.Z o % I , u r 6 < j 3 e /.|.C.T./.P.P./.[.{.f.*.x.C.t.j.|.|./.J.H.x.|.Q.J.].|.K.V.&.O.z d.-X=X|.+X@X",
"N [  .c.l.!.H / y f f g :.G.A o @ % < u e 6 , % 4 y [.[.J..X|.x.T.!..X!.f.0.A.Z.j.J.[.].|.T.x.A.@X/.Q./.W.J.k.e.+.Z e.=X-X+X+X#X",
"b X.X.9.z.|.P P o X <.6.f 2.Z o 4 , 4 e e r , % t y ].k.|.!.+Xx..X|.{.XX[.*.j.T.J.W././.|.T.s./..XA.J./.].k.d.e.$.C a.-X:X1X&X*X",
"B  .H | 9./.K ] o   k 8.h x.Z o 3 e u d 6 < < , < t S.A.Q.k..XT.:X*X&X1X&X/.E.J.].@X@X].Q./.T.k.|.].Q.[.Z.] ] &.O.n #.|.S 3X*X<X",
"! _ S +. ..XK y @ > i 7.2.R.S o , 4 d 6 4 4 3 @ 1 e w.J.].K.+X}.:X{.XX*X|.|..XT.C..X.X]./.Q.A.j.E.J.A.P.*.] / U U c ` P.3 o.@X*X",
"W z./ j.Q.[.Z 2 2 H i 7.2.!.Z o r < s ,.,.k & % % 0 /.{.].H.W.].[.|.[.@X/.!.|./.P.T.].P.j.s.Z.t.J.k.k.A.u.{ Q U I w ! i.f.C.|.*X",
"] I.+X_.^.[.Z 2 q K i 7.-.T.v o d % p >.# s * % = e [.+XW.H.K.].P.T.!.+X/.J.[.&XE.E./.A.x.q.A.f.P./.A.A.d.` P U H 0 c ^ x.v.A.@X",
"] I.@XI.H..XK 1 q Z a 6.-.T.V o e e s 4.# <.5 @ > 4 ].].J.H.J.x.].!.E./.Q.[.[.].|.].Q.!.!.T.f.x.A.E.[.P.t.=./ P M 2 c ..m.v.G !.",
"| Q.(. X X@XH 2 y H i 5.+.T.C o 4 4 k :.i >.5 & x 8 q.N.q.x.W./.].).A.x.A.[.|.!.!.|.!..X.X/.T./.).E.|.P.A.%.J K z ; m E ^ ..J !.",
"G I.m.).Y.*XK - 8 Z # 4.+.K.V o r r i 1.3.3.d r d 4 %.f.0.K.v.J.P.T.J.s.j.Q.].|.].J.|.|..X.X.X+X.XA.T.x.| { Z n y ; c J E X.' K.",
"! l.l.l.$X.XZ - w S X g o.V.C o d < 4 e t u u u u 3 { _ _ [ ' q.j.j.J.v.k.!.[.|.T.Q.]..X@X@X|.|.T.P.J.k..._ M v 0 - l N N W ^ V.",
"| r.T f._.@XH 2 @ $   $ a g.x o d 6 6 d d d d e e 8 9.W } W _ 0.0.0.k.v.T.Q.|.|./././.|.].XX|.P.P.T.P...q.P G w 8 1 w c 3 oX^ F.",
"s. .I B.}.-X( -   @     p W x O d d 6 d e d d 4 3 3 ' ! [ J K 0.s.0.j.A.E.]./.]..X/.!.].[.[./.J.v.x.s...{ J m z 7 ; l N + v W W.",
"*.X.] n.}.-X( 2     . = y q.x o 6 S d d 6 d d j 4 3 ~ Q ' E 0.q.t.9.k.T.Q.!.!.E.].!.!.T.Q.W.!.A.x.x.*...{ G M z 0 ; l B J ! ^ K.",
"| Q.$XY._.<X) 3 = e q.w.s.q.z o @ A d e 6 e 4 6 e 8 ! 9.[ } 0.9.j.x.k.J.J.T.A.J.P.!.E.E.J.T.J.J.J.A.q.' W b m y 0 ; q B J [ [ S.",
"%.&X%X_.=X1XO.0 l e.N.C.s.f.z o @ % % % , % % % > 2 W ~ 9.0.} 0.k.s.i.j.C.x.J.k.J.S.A.T.J.J.A.K.x.C.j.^ ' W m w 7 - w B E W ' Z.",
"*.=X:X X:X3X&.#.w.x.q.0.w.j.x > ; ; = = @ = = = = l ! } [ j.z.q.9.0.i.C.S.k.x.A.x.A.C.J.S.J.x.j.j.s.0.%._ G M 9 7 - q B E [ E J.",
"%. X$X%X=X4X` &.w.g.f.g.q.j.q.q.| ~ x ~ D D E Q B W B 9.0.q.j.v.j.0.j.C.j.J.u.k.x.S.x.J.A.S.j.j.s.x.q.k.*./ M q 7 = l B [ ! [ T.",
"#._.). X X<X/ | q.q.q.g.c.i.z.H.v.j.i.9.0.9.} } 9.E E 0.q.h.q.h.j.X.k.s.C.A.s.x.S.A.k.J.T.J.s.s.s.0.*.%.q.#.D z 2 - q J [ [ ..T.",
"W l.%.E.(.1XP { ] q.0.0.0.0.z.q.h.q.0.[ 0.0.} W 9.J J 9.0.0.v.q.' t.0.0.Z.k.f.x.N.f.f.N.f.s.0.f.q.{ { ' #._ H c : - z E w D.[ S.",
"! ^ o.D.H.*XK O.^ #.' ' | 0.t.0.9.| ' W G E } 9.! [ ~ ~ ! ~ j.' 9.y. .q.f.x.q.f.x.i.w.f.q.s.0.q.*.0.#.#./ W D y 8 1 D J = R [ K.",
"P 0.c ^ b.XXJ / / { ' ` | q...*.9.} ' W E ~ ! [ ' ! W J G 9.9.W 0.W W q.N.j.q.q.q.f.q.q.%.q.%.q.%.q.#.{ _ J Z z 0 8 N [ W { 9.K.",
"B r.X.} 0.).M Q / / W ! ' ' [ =.q.W W W B J ! ' W ' [ E W [ ' 9.' N W | w.0.0.q.q.0.| { ' | W ' %.%._ { Q D z q 8 2 z [ ..} [ Z.",
"m X.} X.| !.n D P P H B G N J W | W W [ W J L W E ! W G J ! W ' Q N ' ' [ q.] 9.%.{ | ' W W J E ' ` Q Q K m w 0 2 1 N 9.0.u.0.K.",
"N r.9.9. .W.c n H D M n z N N G E E Q ' W B z x J J ! N M J L J E z E B J { Q ] Q ' { Q Q W B m D W P M H c 7 7 2 - N ..i.z.0.T.",
"M ..! ^ ..E.w n c M M c c c M M N N E z B B M l x G E N B J N E M z B N E W W E | Q W Q W W N G m H N D M l 8 - ; ; N | 9.c.[ K.",
"c } E ^ 0.K.q v c M c c v c b c x B J m G N l z M N M z N N J z B z z b D D D J W W ' { ` Q W G c N M N M q 2 - 1 2 W v.z.s. .J.",
"l L n ` [ K.q w c n c z c m M c M M z z M x l l l z l z N M x l M z m G E m m K Z N Q W W Q K M c c m H z l 7 ; 1 7 Q z.x <X0.W.",
"z z r Q [ K.0 q q v y y z c v z x D z z N z x l l z z z n m l z z l z N J m M G M N E K Q Q G M b z n D b w 7 1 ; 1 J 0.1 A u.K.",
"c E q E W K.x x x v v x v v V x x x x Z x Z D D Z Z H D Z Z F D D Z F H U F H Q Q K U Q Q Q U Q F F Z C C C n n n C E h.j.z.m.|.",
"b [ E ^ ~ @X#X#X*X*X&X:X*X&X*X@X#X:X@X#X1X#X2X#X#X:X-X#X1X1X1X1X-X-X1X2X5X1X<X3X4X6X6X7X8X8X8X6X4X5X-X1X2X-X-X-X1X2X@XI.Q.H.H.|.",
"l E E E N [ [ ..| 0.........' E [ ^ } 9.} [ 0.} 9.9... .9.q.z.q.0...[ h.0.[ 0.9.y.0.c.m.v.Q.H.^.h.H.m.z.q.} [ 0.0.i.l.H.Q.^.m.{.",
"z ~ E B M E B O.=.r... .[ .._ V e.J } 0.9.[ W o.w.f.} [ ~ ~ | v '.} 9.9.9.E E Q g.m.l.0.m.m.j.I `.z.z.h.y. .E @.w. .l.c.Q.H.m.}.",
"c ^ B N N E z 3 F 0.[ 0...[ K @ l ' W 9.W 9.D < x } 9.9.~ [ _ = A ..u.m.0.E N 4 Z l.9.c.H.c.| < v k.i.h.z. .m < G y.l.H.H.c.c.}.",
"l E B B m ^ [ J ..0.X...! ..' N M E ! ~ ! 9.~ E } [ _ 9.[ 0.| E ' ..0.v.h.[ ..E [ h.9.z.h.z.c.[ 0.9...0.c.9.} W 9.y.m.H.Y.J.U.|.",
"9 q q 9 9 y m c q v z b w w l q l l l l 7 l l z z l x l l n z l z z m D D z z M z m z M M D D m B z N D H m z N E N W _ W E Q g."
};
