/* XPM */
static char *result[] = {
/* columns rows colors chars-per-pixel */
"64 64 246 2 ",
"   c #15041A",
".  c #1D041D",
"X  c #1A1717",
"o  c #1A1917",
"O  c #1D171A",
"+  c #1C191A",
"@  c #210114",
"#  c #23031D",
"$  c #2A031E",
"%  c #31021F",
"&  c #21171C",
"*  c #201D1C",
"=  c #23211E",
"-  c #1D0523",
";  c #1D062A",
":  c #1D0739",
">  c #230523",
",  c #2B0424",
"<  c #24062B",
"1  c #2B062C",
"2  c #24092D",
"3  c #280D2A",
"4  c #330225",
"5  c #3C0127",
"6  c #34042C",
"7  c #3B032C",
"8  c #271925",
"9  c #250633",
"0  c #2D0732",
"q  c #260832",
"w  c #2C0834",
"e  c #24063C",
"r  c #2B063A",
"t  c #2D093B",
"y  c #330634",
"u  c #3B0535",
"i  c #320A35",
"p  c #390E34",
"a  c #35063B",
"s  c #3C063B",
"d  c #33093B",
"f  c #3A0B3D",
"g  c #2C1134",
"h  c #2D173A",
"j  c #371838",
"k  c #252321",
"l  c #2A2623",
"z  c #2E2A25",
"x  c #2E2928",
"c  c #302C27",
"v  c #32272B",
"b  c #322D29",
"n  c #35322E",
"m  c #38342F",
"M  c #382536",
"N  c #353330",
"B  c #3A3632",
"V  c #3E3935",
"C  c #3E323E",
"Z  c #430023",
"A  c #44012C",
"S  c #4A002E",
"D  c #440233",
"F  c #4B0134",
"G  c #43043B",
"H  c #4C023B",
"J  c #490C3A",
"K  c #520236",
"L  c #53013C",
"P  c #5A013C",
"I  c #451B3A",
"U  c #55183D",
"Y  c #45203D",
"T  c #413C37",
"R  c #423E39",
"E  c #45413C",
"W  c #49433E",
"Q  c #1D0846",
"!  c #240545",
"~  c #230844",
"^  c #2C0944",
"/  c #24074A",
"(  c #2A054A",
")  c #24094C",
"_  c #2C094C",
"`  c #340A44",
"'  c #32054C",
"]  c #3A0648",
"[  c #330A4A",
"{  c #3A0A4C",
"}  c #2D1648",
"|  c #3A1446",
" . c #2B0A55",
".. c #390755",
"X. c #330953",
"o. c #3B0A5C",
"O. c #3A1456",
"+. c #372152",
"@. c #3B0C62",
"#. c #3A0965",
"$. c #430543",
"%. c #4C0344",
"&. c #430845",
"*. c #48074D",
"=. c #540243",
"-. c #5B0144",
";. c #53054C",
":. c #5C024A",
">. c #550C49",
",. c #471B45",
"<. c #561D47",
"1. c #480657",
"2. c #420953",
"3. c #580557",
"4. c #471457",
"5. c #551A55",
"6. c #630144",
"7. c #64014B",
"8. c #6B014C",
"9. c #660A4C",
"0. c #71014E",
"q. c #641E4D",
"w. c #670457",
"e. c #6B015B",
"r. c #740153",
"t. c #7B0155",
"y. c #76065A",
"u. c #7C015B",
"i. c #661D54",
"p. c #741B59",
"a. c #492549",
"s. c #55244B",
"d. c #443244",
"f. c #493947",
"g. c #4C344D",
"h. c #4D3B4C",
"j. c #54374B",
"k. c #482954",
"l. c #562853",
"z. c #4A3557",
"x. c #533253",
"c. c #5B3454",
"v. c #533C53",
"b. c #543D5C",
"n. c #593858",
"m. c #6F2C59",
"M. c #633C55",
"N. c #643B59",
"B. c #490667",
"V. c #440A62",
"C. c #560567",
"Z. c #45126A",
"A. c #551B64",
"S. c #4B0775",
"D. c #580575",
"F. c #491278",
"G. c #670367",
"H. c #6B026D",
"J. c #780267",
"K. c #641D67",
"L. c #771C66",
"P. c #640577",
"I. c #6A017A",
"U. c #7D0173",
"Y. c #770278",
"T. c #7A1C77",
"R. c #552268",
"E. c #563A67",
"W. c #52306C",
"Q. c #673E6B",
"!. c #763666",
"~. c #662272",
"^. c #683B76",
"/. c #763975",
"(. c #474441",
"). c #484542",
"_. c #4E414B",
"`. c #53444E",
"'. c #4F4457",
"]. c #544353",
"[. c #5A4354",
"{. c #554A55",
"}. c #54455C",
"|. c #5B445B",
" X c #584C5B",
".X c #585555",
"XX c #66445B",
"oX c #605F5D",
"OX c #5B4768",
"+X c #684666",
"@X c #69446B",
"#X c #754467",
"$X c #7C456B",
"%X c #6A4575",
"&X c #764376",
"*X c #656361",
"=X c #850159",
"-X c #83015C",
";X c #860366",
":X c #8B0163",
">X c #93026A",
",X c #821863",
"<X c #850178",
"1X c #910170",
"2X c #841973",
"3X c #A9007A",
"4X c #8C4476",
"5X c #874678",
"6X c #5A0583",
"7X c #581482",
"8X c #680686",
"9X c #750587",
"0X c #781B84",
"qX c #790698",
"wX c #7C3E87",
"eX c #7B01A7",
"rX c #88028A",
"tX c #960289",
"yX c #8E1C8F",
"uX c #880495",
"iX c #980399",
"pX c #A40289",
"aX c #B30183",
"sX c #A70299",
"dX c #B60197",
"fX c #8B01A4",
"gX c #9504A6",
"hX c #930DAD",
"jX c #A602AA",
"kX c #AB13AC",
"lX c #A903B6",
"zX c #B801B8",
"xX c #C70094",
"cX c #C30EBF",
"vX c #824484",
"bX c #994782",
"nX c #A14286",
"mX c #BD01C0",
"MX c #C601C8",
"NX c #CC1CCB",
"BX c #C801D7",
"VX c #D801DA",
"CX c #DC02DE",
"ZX c #E701E8",
"AX c #ED01F4",
"SX c #F900FA",
/* pixels */
"(.).).(.(.(.).(.(.(.(.).).(.(.).).).(.).).(.).(.).(.(.).(.(.(.).(.).(.(.(.(.(.(.).).).(.(.).(.(.(.).).).(.).(.).(.(.(.).).).).(.",
").).(.(.(.(.(.).).).(.(.(.(.(.(.(.(.W (.(.(.(.(.).(.(.(.W (.(.(.(.(.(.(.(.(.(.(.).).(.(.(.(.(.(.(.(.(.(.W W (.).(.(.(.(.(.(.(.).",
"(.(.V N m N B W W V m N N N N N N N N N N N V V R B N N N N N N N N N N N N N V V V N N N N N N N N N N m n m V R B N B N V (.).",
").(.N k + + m R E n o o o o o o o o o o X * b N V b + o o + X + o + o o + = l N B N + X + + o o o o + o o o b B B n o o k N (.(.",
"(.(.N o M | v R T m _.j.!.!.m.M.m.c.c.j.j.{.V R V V _.k.z.z.c.x.x.x.x.x.x.{.n B V n {.n.s.N.!.!./.!.!.!.m.M.n V m c U I + N ).).",
").(.N o p p b T E m j S t.=Xu.P 8.7 7 4 4 j.B B B B d.y C.y y 6 1 a y s a g.B V E m v.3.$.-.r.:XU.J.t.0.7.<.c V m c -.S o N (.).",
").(.N + h i b E R n a.L :X=XP :.8.5 4 % % j.B B E B c.y s y y s s 0 0 0 i g.B V E m h.%.:.-.r.0.8.0.8.7.H I b E R v L D o N (.(.",
").(.N + w 2 v T T b <.8.=X-Xe.%.K y C.G $ j.V B V B c.0 1 a 0 2 1 a d 0 0 g.N B V V f.# F 8.6.t.8.7.7.=.5 I b V B n J 6 o N (.).",
"(.(.N o w > z T R b s.=X>X;XlXG.7 , C.u , g.B B n n n.G w s p q w y w w < d.B V V b h.# 5 r.8.P =.L S 4 @ M x n B b 3.K o N ).).",
"(.(.N o 3 . l T T n s.=Xt.e.Y.H u > > 1 a v.B n n m c.] 1 r d w 9 0 r t q d.V V R N h.< 4 0.:X:.%.*.w.T.G.j c N m b iXG.o N W ).",
").(.n o g . k T W b p.=Xr.7.H 7 1 1 > 9 r v.b n B V x.d t 2 w q q 1 > < d d.V E R N h.1 4 t.0.:.C.gXgXqXhXK.x R T c kXdX+ N (.(.",
"(.(.m o 3 ; l T T n ,X=X0.H G , > , # e S.wXB V E B c.y i t q 2 - . > - a n.m V T B v.6 5 =X8.3.9XI.&.&.o.~.N R V c rXsX+ N (.).",
"(.(.N o 3 . v R R m p.=X6.D 6 a < 1 t  . .b.n V E B v.0 w a < w d ^ _ ~ w d.m V R B v.6 K -XG.jXzX] u , r ~.b V m z y.3.+ N (.(.",
").(.N o 3 . b R R m ,X:X6.D 1 { r F.7XQ 9 g.n B V V x.> w ; ] D.hXF.@.~ 2 C V E R B v.u P =XY.gXuX%.3.C.] k.l V B c J &.o m (.(.",
"(.(.B l v j b T W T +X#XXX].[.|.].'.}.]._..Xm m V V {.f.v.OX}.%XOX}.b.h.h.{.V V T n .Xv.XX#X@X&X&XXX%XQ.].XXc T V b ,.,.l V (.).",
"(.(.R V T R T R R W R B R W R V V V R R T T T E V V V E R V E E V N V V V V T E T n V R T R R T R R R W E V R R T V R B V (.(.(.",
").(.V V V B B E E T B b T B V b B V n B B m T T T B m E B B B V B m B n b m V R V n n m B V B N T B m B V B V V B V B V T E W ).",
"(.(.N = } h z m B c oXXXXX X{.`.].{.{.`.[.{.b b m B .X`.`.XXOX%X{.OXOX}.}.'.B B V v .X`.XX$X@X%XQ.$X&X%X%X+Xb V n l | | = n W ).",
"(.(.N + _ g c V T c 4XJ.P.8X*.{ r > 1 ` 0 A.b B T T n.3 # G [  .~ w a ) Q } R T B B n.6 F ;XJ.1.U.tX6XS.8X0Xv T V b j w o N ).).",
"(.(.N + o.| z T T b 4XU.C.D...1 . , 1.P...I B V T T [.6 $ 3 | _ @._ d | ^ +.V T V m |.1 $ =.;X>X>XpXB.D.S.T.c T B b g i + N W ).",
"(.(.n + [ | l V T b #XG.C.D.o.V.D.w 0XD.a ,.m m V B XXG u 7 y ` X. .Q e d a.V T m n ].1 , >.w.H 6.>X3.' ..A.c R V l ,.i + N (.(.",
"(.(.N + - j z V T b vX:.C.1.#.S.8X7X8XP.G.4.m V n B !.-.J G u p *.{ ! Q ( k.V V B m ].0 y &.u A D 7.;.e ' A.c T E N >.1.+ N (.).",
"(.(.N o   g n V V b $XD C.D.V.#.9XqX8XuXlX5.B V T B !.-X:.s s $.&.*.*.*.2.O.B T V V v.1 1 y s u u u H e ..k.b T R n g y + N (.).",
"(.(.N +   g V V B b $XH.qXqXP.B.uXC.lXrXjXyXB T m V #X:X-X:.u s &.&.*.;.;.l.m V V m ].0 0 w w y y y G 1.' ,.v T V z >.f + N (.(.",
"(.(.N + : i n T V z $X8.-.I.jXuXrX8XCXzXG.5.T m T B N.6.=Xt.-.D u y y u G ,.b B B V v.y 0 0 q > . > 1 2.3.Y c T R b >.>.o N (.(.",
").(.N O  .t z T B z 5XuXcXH.<XY.P.lXZXSXCXyXT m V B M.K K 6.t.-.F D G %.=.<.B V V B [.w < < q ; -   < f u a.b T R c J G + N (.(.",
").(.N + o.4.c T m v 4XhXSXVXY.=.lXBXSXSXZXNXV B V B c.P :.7.t.P D 8.;X-X:Xp.N T V V ].w - - ~ Z.~ 9 < s G s.c V V c J D + N (.(.",
").(.N O u 4.b T B v bXeXjX<XzXzXcXMXZXMX<XT.B B B m %XrXtXu.P F P t.-X-Xt.L.B T V V _.t q ; 2 q ; 1 w 6 H L.c E V c H.$.X N (.).",
").(.N + - w c n m n nX<XgXzXe.zXAXSXCXgXZXcXV B T T ^.zXy.8.Z Z P -Xr.8.K i.T B R T h.y @.@.> <   2 d 6 6.L.b B m b ,XJ.O N ).).",
"(.(.N O 9 3 n B B z 4XdXeXMXsX7.cXVX9XCXZXkXB E V V /.sXrXMXBXe.A -Xu.6.K <.n T T T `.$ ^  .7X' ; ; 0 , t.p.z T B x 9.-X& N (.).",
"(.(.N O e h v V m z #XaXpXlXlXJ.S F J.BX8XR.N V m B ^.<XrX9XMXSXrX6.sXr.K U b B T T |.u < t Z.7X^ 9 1 > :.q.l m B b :.-.O N (.(.",
").(.N + @.| c B B b #Xy.aXiXrXJ.<Xw.qXqX8XL.B V T B Q.iXU.<XI.MXVXG.pX;Xr.<.B B T V M.7 1 < d #.Z.- 1 # F q.l B B n 9XJ.O N (.).",
"(._.N O  .} b m m b #XG.u.:XrXsXY.fXeXjX<XL.m V N n /.H.r.1XG.G.9X9X>XpXlXT.B T T m N.4 1 d ` [ Z.. 2 1 5 U z E V n 9XuX+ N (.).",
"(.).N O F.O.x m B z 5XjX8.:X7.tX=.I.uXpXu.kXB V B n Q.( y =.8.r.J.D.>XxXfXkXT T T T N.S > p @.{ t . w d f s.n V V b G.3.+ B (.).",
"(.(.N & Z.Z.c B T l 4X;X-Xr.P e.G :.3.8.tXyXT R E N }.e d G u G 3.G.3X1XtXkXB n T T M.H 4 # ..7X< 1 w d d k.z V n z i.;.O N (.).",
"(.(.N O X.Z.k B T b $X>X:Xy.<XcXe.:.G -.w.0Xm V V m b.a a a 1 # u 0.3XtXiXT.n n T T M.6.H , G o.1 w w 0 d a.z V m z d y + N (.(.",
").(.N o X.O.l V T c $X:X:X;Xr.S e.A P 6.S A.B T N B v.u G a G 4 4 L 3XH.w.L.B V T V M.F F u y 3.w w y a G a.c T R b g 1 + N (.(.",
").(.N o ~ 4.b T B b $X=X-X0.P F A A =.w.H ,.B B m V ].y a s p < # D :X=Xr.i.V E T T Q.=.=.&., >.=.0 0 p s a.b V n b J i + N (.(.",
").(.N O [ ` b m m z $X6.8.8.U.H.H F =.lXH.5.B B B B [.y 1 1 i y , $ K =Xt.<.V B B T /.<Xe.s 1 f &.y 1 1 2 j b V B n f y X N (.(.",
").).N O a p l m T l 4XS S <XzXqXjX3.%.9X9XK.B B B B n.s > > 1 0 , # % =Xt.U B B V B N.u.8.y 6 6 w 1 t  .X.k.v T V b i d + N (.(.",
").(.N O 0 J b V R b $X=.sXBX9XP.iXI.;.w.fXT.V T B V [.y - > s s 1 $ $ t.=Xi.B V V V c.P 8.y 1 > $.1 9 t ( W.l B B z 3 { O N (.).",
").(.N O y %.b V B b #XiXAXuX' ] ;.C.3.K D.0Xm m B R h.> < . - f w , $ 0.>XT.B B m B [.S 6.] y # ` o.S. .#.W.n E B n } [ O N (.).",
").(.N O D 9.z B V x vXY.jXB.2.H s =.iXI.H.K.V V B R ].2 w - > w y 1 $ P 3XT.V m n V N.D -.$.s , 1.o. .2.X.R.x B V b O.{ + N (.(.",
"(.(.N O =.9.k n N x vXlX=.$.C.uXB.1.9XY.Y.K.m T V R _.6 y 2 > 9 w y $ P 3X2XT T V B Q.C.:.$.u # &.1.' ] { k.b V V z o.O.+ N (.(.",
").(.n & u.y.z V V b 5XhXjX5 H =.2.S.8XI.H.5.m B B V _.2 - - - ; 2 d $ K aXL.V V V V wXC.-.G a - { X.^ Z.} k.l V V x } 1.O N (.(.",
").W n & :X9.b m n b 4XqXBXjXY.9XD.8XD.uX<X5.m n n T +XqXF.: - - w d 1 Z >X,XT T V V Q.9Xw.D p . ` ' ..Z.) +.x B V v O.1.O N (.).",
"(.(.m 8 p.2Xn n b n *X/.5XvX%X&X^./.@X&X+X{.n V b V oX%XOXOX'.{.{.].{.[.XXXXB m m B .XQ.&X|.n.`.{.|.|.}.}. Xz m m z a.,.8 N (.(.",
"(.(.E V n E V V V V E B W R V V T V E V V R V V m E E V E n V T V V R V m R E R R E E B B T R V B m T B V E R E T T V V W W (.).",
").(.R B T T T m T B V E E R R V T V R R B B T B N V R R T B V m T R E T V T V B m V V V T T R T B V R V V V B N n T T E V E W W ",
").(.N = l.<.M m m z %X5X#X+X+X+X%XE.+X|.v..XB B B B {.v.E.]._.f.h._.h.v.f.{.B m B B .X/.@X+X{.[.].|.}.}.}.{.b n n n p.p.k m (.(.",
"(.(.N o qX8Xz T T l kXiXMXmXI.C.G.1.1.;.u j.V V B V z.Z.Z._ e - . . 1 y 1 d.V V V m ^.C.1.*.u , w o._ X.' I b V m n ;Xt.+ N (.).",
"(.(.N o qXgXv T m l K.D.iXP.o.H.H.1.2.1 y h.B N N B z.#.#. .)  .^ 2 < 1 y j.V V V B !.;.a y u y <  .o.V.y s.x B B c y.t.& N (.).",
"(.).N + 6X6XM B n l i.' 2.' ' 1.C...1 , 1 h.n b N B z.w 2 : !  .w - - 1 y x.V V T V v.1 6 0 1 > ! ..V.` 1 <.b n m n y.9.+ n (.(.",
"(.(.n o S.B.v B B b i.$.! ! ' ..C.0 1 y 1 f.n m T V h.w > 1 - > r ; 2 - . d.T V E V h., 0 < .     < 2 0 y <.l n B n H.tX8 m (.(.",
"(.(.N o B...v B B b 5.' D.! ' V.2.y i w w g.V V V R W.9X[ o.! o.F. .Q ) X.z.T B V V h.1 , > > 1 ` r 1 > , <.b V T c iXBX8 N (.).",
").(.N + O.! z T B z l.[ D./ ' 2.a y y d 2 f.V N V R E.8X#.Q Q  . .Q Q ) 7X^.B V B B v.2.{ < 9 { a - w > 4 i.v V B c tXfX& N (.).",
"(.(.N o ` ! x E V z I 2.8X' r y 1 u y d w E.V m V E z._ ~ ) )  .) ( { _ { b.V V N m b.S.S.)  .d , . < - 1 i.z B T n 1XG.+ N (.(.",
"(.(.N o ` V.v V R z M < ` . , y 4 p $.&._ b.m m B V g.e Q ) X. .X.3.w.3.1.n.N m V B '.F.8X( 2 t e 9 t > # l.x V m z tXtX8 N (.(.",
").(.N o p 2 v V R b Y , @ . > 1 . > f 3.1.b.B V V V z.*.! ~  .) { $.G u s c.B V V V b.Q e e V.P.< - < - 1 I b V V b S.9XO N (.(.",
"(.(.N o ~.,.b V E b v.d.d.C d.g.g.d.d.g.c. XB C R B  Xz.+.k.+.z.k.g.s.x.l.].B m V V  Xz.E.^.E.^.W.z.g.g.f._.b R T n p.5.O N (.(.",
"(.(.N k + + n V T n + o X X o o o o o o o + n V V n + o + + o o o o o + o * c B B N = o o o o o + o o o o + N V V N + + k N (.).",
"(.(.V N N N B E E V n N N N N n N N N N N n V E V V N N N N N n N N N N B n V R V V N N N N N N N N N N N N N V V V N N N V ).).",
").(.(.(.(.(.(.(.(.W (.(.(.(.(.(.(.(.(.(.(.(.).(.(.(.(.(.(.(.(.(.(.(.(.(.).(.(.(.(.(.(.(.).(.(.(.(.(.).(.(.(.(.(.).(.(.(.(.(.(.(.",
").(.).(.).(.).(.).(.).).).).(.).).(.).(.).(.(.(.).).(.(.).(.(.(.(.(.).).).).(.(.(.(.).).(.(.(.).).).(.(.).).).(.).(.(.).(.).).)."
};
