/* XPM */
static char *_7ce42a12a634a55be2ef097baf4a4fb[] = {
/* columns rows colors chars-per-pixel */
"64 64 51 1 ",
"  c #1F1C15",
". c #221E17",
"X c #231F18",
"o c #25221A",
"O c #29261E",
"+ c #2C281F",
"@ c #252525",
"# c #2B2720",
"$ c #2E2A22",
"% c #2B2B2B",
"& c #312E25",
"* c #332F28",
"= c #343126",
"- c #363229",
"; c #39362C",
": c #3D3A2E",
"> c #313131",
", c #3B3730",
"< c #3E3B31",
"1 c #3C3C3C",
"2 c #403D2F",
"3 c #413E32",
"4 c #454235",
"5 c #484537",
"6 c #464339",
"7 c #494639",
"8 c #4D4A3C",
"9 c #514E3E",
"0 c #4E4B41",
"q c #514E42",
"w c #555143",
"e c #595545",
"r c #5C5847",
"t c #565349",
"y c #59564A",
"u c #5D5A4C",
"i c #5F5C50",
"p c #615E4D",
"a c #615E52",
"s c #65614E",
"d c #68634F",
"f c #656255",
"g c #696555",
"h c #676458",
"j c #696659",
"k c #6D6A5D",
"l c #716C57",
"z c #6F6C60",
"x c #716E61",
"c c #757264",
"v c #827F70",
/* pixels */
"%@%%>%>>@%%@@%@%>>>%%>%%@@1%%>%@@@>@@%%%>>%%%@@%%%@>%%%>%%%%%%@>",
"30-&-:O#-:;;-:$-&=#--&-6,--*O#.#17,;-#$--#o#%$&-&-;&###;;,3<-*-*",
"$-X--2::60<:==-<-3=:-$366;1;$&+#$-<ww77qw81,:3-<60tt67,0aaju08qq",
";oo::4457077:;463733<-473=:=$<;,##28wt7www4-=<$;33iuy67yajat6673",
"$oo::6447t8<:64:34:62%,0<$;--<64@$47qw070y3-;;%,660ay66uyhi66,3,",
"#@O-=<;:784:<77433:64$,3:-=&-;7<O$38076,6y7<**;03<3a060ai0<0q636",
"&$O&:6;6<;;:-:44;<;<:&,-13-&;470=#-t86;<306<<6&066;tt7tzut3y0q08",
"<-+:<6-:<;-;:4<::-;;:-3*4:;--<6w-$<6ww<17606,-,y166t07tau060wyet",
"<&#<<:4::<,<2<;;;+-33;3,03;::418;&4qw86qwq76,<0z600ji600067u00qy",
"<&&7663&$;;;,;-<;$;363q377374866&$3qqqqyww6,330aqiqtt3yu060300qq",
"$,o$+&+XooooooOOO.oOO#$&&%O&&=$O&>$345676<<-&;<66t3<6;67<<3,,3;,",
"66<;-<;$&;-o#*,;&&&%--,3#&<;&:,*<6-,1;*-;3,,%%31*3,,6,t6**>3;;,3",
"#+o&+$oo.X. .o,$#&---&;@$-=;;-;-*-;&--$-<<:;-Xt3#&###O$-$oo$###+",
"-<;26<<:-==$;$o$,<44663<&4443,7036u8qwquk0783;3,,644;,0u9433<373",
"&;=<3<<<;-*=-#.#33<6qq633;3;3,606wy6898uu6:46<<-<04<3-qp973;;36:",
"<;&<:<443;;<;#.*7738ey063<3,--667tt;367w0q747<<$396<7,4q3<::;:3:",
"<;&<::84<-$:-&o-7w67pfj0;33<,<06w00;<88y678<64;&7q433565;:;;&;::",
"4<:<:46;-;-:-&.$4779wukf3;&-,6q7uw3;-33u0674:8-+<86q58863<::=-3;",
"<&<<669=&-*-=-#&7848w77u43;:-7qq64,;,76tu47468<=;740q863333*;:33",
";:4876<:3;$;;;@=0t66<0yf3346,0hqw73-<<0jw60767:=:887a33344-;5473",
":-:247:=<-=:;;%-48064766;;47<3t774:=;:wjt8w885-$-4558:3324*&2;34",
"&O$&=&&o##O&&=13--<;-$;-%#*-;,-%*%$$O&37-1;;4=2:$&&:&O=;&=$&=&+&",
"O;1-;;-&**&*;:,6=--*-$$,-&;,*-*#&,-#O$:1&;+=:===%Oo&&+*&;=&&=&++",
"Oo4aaufaitqyqqtii0twtiatyttt3700<6-&=2:;<-:4544;;;;2:::345:24;=;",
"&.3hzazhttq000yihitqjzjft000ttt003#33:3;=;48944=445985859r88722:",
"<O<ffhfai0000t00iw00hhjhit00iiiit3#3*46,24;595&4:5559554958874;2",
"3#3uyiiyt01t000itqttffj07016tati0,o3<89;=::29925554454:435597:;5",
";o3hytyyy0tqtttttijijzz06,40tiyi0;O64u9:42==58554;24;45982344224",
"-.2juyutyfaitiau0fcccchw7,6t66yyq<o54q83:42=;995;;:4=;5995554545",
":.4fqt0thcyq3t0t0jvvckufft30,67uw:o5733:24==;5952;;;=+:584284255",
"2o6i006qii0tq6170icfftwfji0013<0q<O58443455=55582442;==455;95558",
"=+<0qy0yiqtyt0470tiuftfciw606-;6i6O::;:=25==4224:=4==+=;5;=24;2;",
"o222222233833=&233e985492==22&=:<3;o#O&*+&+$=&-&+&&&+o++OO++++&O",
"$&&&=++=2&222+&&&392;=&=&+O+O.++&*&#&*::=4;2::;:&;3-+O==&&+$=;;=",
"33222222338322822$4=455224224585,&,39989559889523&X&$+=&;;=;2455",
"39992392393922223$525245555599953;:349ee99999924;#Xo&&=;;=:::225",
"229339999e9323525=55p9899959r9854294589e8988946:;*oo+;=:&+:=:4::",
"22333993299922255X33r9599559rdr895949w9989954485:&.oO+=;=+:;:::;",
"22999292352223593X3299595955rprr555224544447554::&.O=&&;2=;42;:4",
"32393=22932259595$225955525599995:;=:272422586;:2*o&:=&=:=2222;2",
"92222222382&23232+-333735=5955557:==;;5222:287=;==o=2==+;=52::25",
"22+22222332252222X$3w0w32;;52585422=25425:8889:3;&o;:;2=;;444449",
"&++=&$++&&&+2&&&+O$O2232;+++=2;=::;=;;:&;;;:::;=+=$O+OO+++++&==;",
"&O&=2+2&+oO..oO+&22o.O&XOoo+++&==OOoooo.oOoo+$oOo;4$$OOoO+++++o=",
"323323332222-=$22222-22&=;;224223-;:;;&-::&=222:+22;5524;==44442",
"32r93de99p953222-33733235555955=&::8w9257259pw8859889s855;2599r4",
"33r39drepppw3233223328398998p55=#:43e8585249w9458559998555959r95",
"33p32939ppe33233227323934599s582$3948889542997:98884595555999994",
"2&3239wdd9e3399r594455555589999;+;4:79reew45529p9r95553:255599p2",
"223333e3w332399e8545r8554599p992&444779drr9852es9999995559245p92",
"2$3qqwe3333329338857995445559994O:889559pe98978r9e998w9wwgp489p4",
"22ww33w9w3339e338545rp554559555;.;458879d988959p755988559pl99992",
"#2t033w33323992248859p84:59955;2O448768ee477eewu7:59e93359ppr992",
"2O$$O$**2&&+=&=+$&+$;;*O++==&;++;$==$&$;$===;4:4:$$;;;*=&-22=;:+",
"332*#22*&222=&=+O-&&=3:-;+=;+=+;4:+&$;<:--+=3483:;=:;:33;222:222",
"23332&3*222+222=33:24;<=44:242;25:===&#372:2w79672;4;&2:;2525842",
"ta063$3223t2330388888:&7sr99955598442=+9u9qeuusqq6373;;8070qwqt0",
"iy030#,23rs33qe37wr7q<=8r959955598254+=98q9yyw9wuq88:**6py8qqq8q",
"ti733**2pweq333388888;&89998955585544==543quq88fpeq39;*3336taq8u",
"tq033233pay3yt307w77u:&8s995945485442++5::qwquuptpe89&*8q00ytq07",
"tka00303wrawpy3235799;=59944854299595==5588wq7wuyqqe8::88auupuq8",
"yat33O3339pywe335869r2=9955552;4r9585=$57yqq359pu9q9q:,qutjjhtqy",
"urt3020ww3wrrudu9w598;+d99595=;599584;$8yw733wqw97q783*8qjawaptw",
"0ppat2y3wwtlagld99595:;959554;;459542=+4q43:3quw77q78&&8yx0qhgaq"
};
