/* XPM */
static char *ec48d507b87d4050ced8536d9fbc1847[] = {
/* columns rows colors chars-per-pixel */
"64 64 240 2 ",
"   c #1E2329",
".  c #393639",
"X  c #2F2E30",
"o  c #181A1F",
"O  c #453B3B",
"+  c #3D413C",
"@  c #393C43",
"#  c #2F3640",
"$  c #453E45",
"%  c #3B4348",
"&  c #3D4A50",
"*  c #434245",
"=  c #494444",
"-  c #47474B",
";  c #544C4C",
":  c #544848",
">  c #4B4D53",
",  c #454A51",
"<  c #4E5459",
"1  c #5C5454",
"2  c #54545B",
"3  c #585759",
"4  c #545050",
"5  c #645C5D",
"6  c #675959",
"7  c #645251",
"8  c #65635D",
"9  c #79635D",
"0  c #595C63",
"q  c #4E5B61",
"w  c #655C64",
"e  c #5D6368",
"r  c #5B6E71",
"t  c #646365",
"y  c #6B6464",
"u  c #6C6A66",
"i  c #64646B",
"p  c #6B656B",
"a  c #6C6B6D",
"s  c #65696B",
"d  c #736464",
"f  c #72666B",
"g  c #746B6C",
"h  c #7C6C6C",
"j  c #796766",
"k  c #7C716D",
"l  c #76726D",
"z  c #646B73",
"x  c #6D6C72",
"c  c #6A6A76",
"v  c #736D73",
"b  c #7B6D72",
"n  c #766E79",
"m  c #6D7174",
"M  c #6E757C",
"N  c #747274",
"B  c #7C7374",
"V  c #7B7976",
"C  c #74747A",
"Z  c #7B747B",
"A  c #757A7D",
"S  c #7C7A7C",
"D  c #757A76",
"F  c #6A706E",
"G  c #846C6C",
"H  c #886C67",
"J  c #83736D",
"K  c #8C726C",
"L  c #8C776B",
"P  c #94746C",
"I  c #9C766D",
"U  c #97786C",
"Y  c #836D72",
"T  c #8A6F72",
"R  c #837374",
"E  c #8B7473",
"W  c #847A76",
"Q  c #8C7A75",
"!  c #83757A",
"~  c #8A757A",
"^  c #847B7C",
"/  c #8B7B7C",
"(  c #937473",
")  c #947B75",
"_  c #9B7C74",
"`  c #937779",
"'  c #937C7B",
"]  c #9B7D7A",
"[  c #9A7773",
"{  c #946E6B",
"}  c #A4796C",
"|  c #A27D74",
" . c #A37D79",
".. c #8B6F5F",
"X. c #7C807F",
"o. c #85827D",
"O. c #8C817E",
"+. c #898578",
"@. c #94827C",
"#. c #9B817C",
"$. c #9B8076",
"%. c #A3837C",
"&. c #A88479",
"*. c #B28379",
"=. c #7C7682",
"-. c #757A84",
";. c #7C7B82",
":. c #7D7E89",
">. c #747784",
",. c #6C7583",
"<. c #837C83",
"1. c #8B7D82",
"2. c #867C88",
"3. c #937D82",
"4. c #9B7E81",
"5. c #7D8185",
"6. c #7E838B",
"7. c #7F8B99",
"8. c #848284",
"9. c #8C8383",
"0. c #8C8A84",
"q. c #84838A",
"w. c #8B858B",
"e. c #868A8C",
"r. c #8C8B8D",
"t. c #868885",
"y. c #938383",
"u. c #9B8483",
"i. c #9B8B84",
"p. c #92858B",
"a. c #938C8B",
"s. c #9C8B8A",
"d. c #968885",
"f. c #93928D",
"g. c #9C918D",
"h. c #98988C",
"j. c #8C8B92",
"k. c #888993",
"l. c #938C92",
"z. c #998E95",
"x. c #8C9296",
"c. c #949394",
"v. c #9C9393",
"b. c #94939A",
"n. c #9C959B",
"m. c #959A9D",
"M. c #9C9B9C",
"N. c #9A9994",
"B. c #8F908C",
"V. c #A38A84",
"C. c #A68986",
"Z. c #A5948C",
"A. c #A9948A",
"S. c #A38E90",
"D. c #A49393",
"F. c #A39A96",
"G. c #A39C9B",
"H. c #AA9998",
"J. c #B49997",
"K. c #B6918C",
"L. c #9DA39E",
"P. c #ABA29D",
"I. c #A4A29B",
"U. c #B7A59A",
"Y. c #9C9CA2",
"T. c #999BA6",
"R. c #8E99A1",
"E. c #A39EA2",
"W. c #A69DA7",
"Q. c #9EA2A4",
"!. c #9BA3AA",
"~. c #9EA7B0",
"^. c #A4A3A4",
"/. c #ADA3A3",
"(. c #A4A4AA",
"). c #ABA6AB",
"_. c #A6AAAD",
"`. c #ABABAC",
"'. c #A9AAA5",
"]. c #B4ABAB",
"[. c #B4A7A6",
"{. c #ADB1AB",
"}. c #B6B3AC",
"|. c #ACACB3",
" X c #A7AAB1",
".X c #B3ADB3",
"XX c #B6AEB6",
"oX c #ADB3B8",
"OX c #B3B3B4",
"+X c #BBB4B4",
"@X c #B4B5BB",
"#X c #B4B9BC",
"$X c #BABBBC",
"%X c #BAB8B7",
"&X c #C4BBBB",
"*X c #C6B8B7",
"=X c #CDB8AD",
"-X c #C2A79C",
";X c #BCC1BE",
":X c #C8C2BC",
">X c #D5C7BD",
",X c #BBBCC2",
"<X c #B6BAC3",
"1X c #C4BCC2",
"2X c #BCC1C4",
"3X c #B9C4CA",
"4X c #C4C3C3",
"5X c #C4C5CB",
"6X c #CAC6CB",
"7X c #CCCACB",
"8X c #C9C7C7",
"9X c #D2CAC4",
"0X c #D3CCCB",
"qX c #D5C6CA",
"wX c #D5D2CC",
"eX c #DAD3CC",
"rX c #C5CCD3",
"tX c #CDCCD2",
"yX c #C8C8D5",
"uX c #D5CDD3",
"iX c #CED2D4",
"pX c #CBD1D8",
"aX c #D5D4D4",
"sX c #DBD4D3",
"dX c #D4D5DA",
"fX c #DCD4DB",
"gX c #DBDCDC",
"hX c #D9D9D6",
"jX c #CAD2CF",
"kX c #E4DBDA",
"lX c #E1D5CF",
"zX c #E5E2DD",
"xX c #D9DBE3",
"cX c #E5DDE2",
"vX c #DDE3EA",
"bX c #DFE7F2",
"nX c #E8E6E8",
"mX c #F5EBEC",
"MX c #F2EDF2",
"NX c #DDE4DD",
/* pixels */
"6 1 g l V 5.x.m rX% @ % # & > 2 5 D.H.@._ %.P | %.u.1.p.<.Z n.l.1Xb.(.;.u V Z ^ V :XP.eXF.^ / B <.q.Y.2.X i =.w 2.<.+X].kXV 4 c.",
"E O.O.+.a.v.^.i gXY.b.j.k.j.(..X^ h Q $.U _ P 9 ; J z.y * `.N v i , 2 @ $ < 3 N a.wX+XP.}.d.g N l.w.l.n x w w f Z d k Q / ].y.Q ",
" ._ I V.S.y.3.p ]..X1.1.u.~ ~ 3.Y / j ' L #.Q '.{.;X$X#XiXOXa.^.OX,X X|.#X|.,X#Xe.0.f.jXM.I.8XuXeXkX*XXXS 1 5 d 6 j P H } | | *.",
"| } _ ) G S.F.f uXuX1.~ ~ ` T ` j y.@.~ 8 5 l %X2XjXM A X.S s N ;.x n k.>.;.k.t.(.OXh.gX'.f.f.V d.k / h g w j w J J U I *.} } } ",
"] %.d u.R B u S tXOX;.p f v R R l k O.1.s.v.b.<.iX3X XoXe.x.u k f l.n <.Z 2.w =.].^.N.h.B.+.'.f.O.@.K R /.].G Y / G ] 4.) U U $.",
"g : +X3 - t i C p rX0 z j.x 2 8.4 0 : 1.Z p.Z ;.Y.rX7.5.m %X8.v.2.v B v Y.v n 2.8XzX9XeXlXwXZ.lX+.J Q h 1 [.1.! b 1.E j 6 : 6 7 ",
"> bXdXyX_.dX6X6XdXrXyX3XbXbXxXpXvXX hX`.2.b.e C 2 e ,.e.M , * F n.N.e.A 5.n w.<.L.l +.h.+.%.V.V.Z.Q k ; X n.n w.l.Z 1.cXfXcX4X_.",
"% >.M k.q.N a N q.S ,.>.,.,.6.7.oXe e.e.;.;.`.m dX#Xe X.5.oXe.F - e ;XA m C 8.Z W k L %.k $.-X) [.H.9.%XuXmXMXMXnXG..Xp.w.=.<.b.",
"b.x.<X|.Z g h y ! b w.q.:.>.>.M <Xb.m D A A L.iX2X5.m.oX5.q.j.5XL.NXhXvX^.XX|.s.<.E G ( %.I | ] Y 1.p.1.n.XXOX[.s.~ R Y ^ <.C Z ",
"T.;.j.m p ^ f.P.a.V ^ S C x :.n _.;.q.q.N f.OX%XI.B.;XnX2X<XW.q.t.^.m a v :.<.2.p.~ G ] A.K.C.( ~ n <.).d.^ d.R ' G E R b Z A 5.",
". |.B.A N M.V X.v D C 8.N m x p 6X].C 9.g g O.W f.h.f.wX$Xj.5.T.@XS D u m q.j.E.1X%X*X*X*X=XS.3.Y 1.! z./ u.] u.u.C.d w S m.r !.",
"{.0.:X#X4XoX;Xe s s a 0 3 3 0 a @ n p C c.a.a.g +.I.I.`.5 a j.`.|.a.C x =.2.b.;.(./.G.F.Z.D.H.J.[.Y 1./ 1.s./.y.( G D.v.OX~.r r ",
"'.'.Q.aX8.Q.Q.A z OXiXdXY.M.(.nXM 3Xb. X^.^.`.$X[.9XwXeXzX{.3 c.G.].p.E.p.2.v.9.1.j E G R E G ` 4.4.6 b 1 ; ; ; Y 1.Z ! N l.,.!.",
"e.OX_.Q.iX5.m ;.;._.;.n <.q.l.,X3X!.r >.(.z ;.N l N.F.I.h.I.+.P.U.[.*X*XqX+XqX@.~ G E K ( { [ ( C.4.J.G.6X4XQ.;.w.p.Z Z Z w.T.@X",
"t.m.L.hX$Xe.]./.^ ).<.a x Z l.<X<X6.z -.,.6.,.D B.l J Q Z.$.A.%.H.V.] ] E Q h J K K #.L P %._ ] K W Z B n.<Xp :.2.Y Z / y.J 8.8 ",
"_.x.`.^.0.o.G.f.c.^ N f =.l.Y.Z k.c z r -.e s x.t.4 k L $.L %.&.I C.) L ( H H H @.L L _ H I )  .( T R Z p.k. X>.p.Z b ! y.d.0.J ",
"n.}.kX:X'.}.8 @.B I.a N S V a.l V l g.^ t v u u d.: W l +.=X%.$.......U U L H J k i.L J K ( P ) ` 1.~ b <.^.6X@X<.Z 9.8.8.8.W O.",
"B &X0X9XeX>X}.eX&XG.kXhXmXkXkX9.+X>XuXsX9X%XkXcX+X= *X9XzX>X}.>X=XU.A.Z.A.%.$.J i.I.W 7 6 V.~ E ! D.G.p.9.:Xv `.m.gXb.3 a.f.t.o.",
"z.1.s.D.+.i.U.h.H.: z.3.^ ~ h J R b /.v.! B b b ! b ^ /.:XP.N.O.k @.eXF.N././.v.t.#Xr..XkXD.  MXMXhXkX8XOXl }.d.8.a.Z N w.^.N 8X",
"n.n 1./ L L L $.E ~ 1.3.R ' G 3.R R 1./ p.R ~ / / W W h @.h W g B V `.V b.N w.Z D S q.q.2.uXb.4XD.! [.U.U.i.L L @./ 1.w.n.Y.s 6X",
"G.^ / E ) H )  .Y 3.3.1.1.Y Y ' h / #.Q V.J.@.#.) #.$.#.) V.] T R f l.i 8Xx x w.S l.x v.c.1XoXf.u.] V.&.&.&.&.$.$.#.d.s.0.0.u '.",
"tXS ^ ! T T ' u.' ^ 1.z.! Y h R W +.+.I.Z.g.d.i.@.@.@.E ) ' ' C.R Z dX<.;.M.C Z S (.1 Z ^ j.e.f.#.) &.I } ..&.&.P _ ) R v.].u nX",
"3XA x u j d 7 b : ; - G.w.^ y.g OX2XjX* F > e.+ oX;X4XM.v.w.B z.W.B C r.% 3 T.q.w $ 1 <.).7Xr.e./ #.) _ #.%.U &.#.K 3.~ B t 8.tX",
"R.& - p 2 g W.9.%X$X8X'.u g.qX*X].c.3XL.L.e.oXm.#XA (.@X`.fXsX&X1X1XqX%XvXX > $ $ $ 3 w 4 B - X X O 1 B : 6 6 6 : *Xf $ p x N > ",
"pX3XyXfXfX1.3.Y f s.8.O.D.#.)  .] J.u.Y p.%Xp  XM e.N q.r.^ / / T ` / ^ B.X {.m.^ l.a.XX).XX7X6XdX6XcXgXnX.XXX. bXfXbXW.1XuXyXdX",
"2.:.2.2.2.$ l.<.b a.R / @.] [ C. .C.T ' 3.p.6X<.n c A <.d.G./ R 4.T h O.N - L.6.w.<.! b ! p.p.<.<.=.j.q.=.>.k.0 >.=.>.k.=.i Z <.",
"n 3.2.2.1.p./ w.a V D l W ~ ~ T [ [ [ ~ ~ w.(.(.:.5.p S a.9.j h G ' ~ ' I.+ {.X.c.! 1.b ! 9.1.3.p.3.f 1.<.n <.j.2.|..Xn N 9.y J ",
"3.1.T T R ! 5 hX7XI.a.r.v w <./ 4.4.~ ~ 1.9._.^.dXY.q.C n +X^ ^ ~ T / 9.o.+ F '.S G.E.z.v ! ! 1.3.b / ! b v <.r.q.<.v f W 9.Z.Q ",
"T ( u.h R k : sXmXkX].kXcXXXZ w <.^ f.+.u 5 4 5.t.;.B.(.m.D 8.a $ 2 $ - % @ 5X2XXX5Xb.T.M C n Z f b ^ N V 8.C C v S W.9.R ! j J ",
"E ` O.h W ^ ^ d.B / 1.p.Y <.Z <.wXnXnX9X:X&XeX0X9XhX0XsXgXtXZ ,X X1XtXz._.4X@X8.w.=.xX$XQ._.Y.8.N E.b.N._.%XL.v 8.n Z a 1.h / / ",
"f p 5 N q.4 ^ b / G ~ E ~ E Y y./ ' @.V.Q #.P P ) H @.R / ].6 p xXZ w.1.W.&XE.p.! 1.g = 4 4 ; 1 3 N Z ).t f.r.].m.3 q.w i y t f ",
"1X@XtX6X$X4X<.9.Y ' ` ] ' h k h ] E ] ) &.P I | { { _ ] S.p.p tXxX8.! 2.1.p.3.p.Y u.k ; B.+.O.! ! =.b /.kXkXkXeX4XM.$X(.=.T.yXT.",
"B ^ w.1./.^ ~ / ~ E d.R p.8.v h ) ) ] I &.I } $._ $.Q @.^ j.0 ,X7X5.Z v Z 8.d.p.Y ~ 4.d *XlX=X:X*X[.V.V.$.) L Q @.y.8.v.> T.5X:.",
"Y y./ R 1.R 9.1 : : X . X . ; d / Q #.V.U %._ #.V.H / 1.9.2 ;.3XoXgXx Z B g 5 6 ~ ~ 4.D./ y.h.i.) u.] ) %.I U { %.O.a.q.v yXxX:.",
"! v b b W.~ b &X).:X8X0X9X&XcX4X%XV r.%XN.r.- > u S 0 n oX:.c i c 0 , $XnXkXR eXU.H.R p.d OX7Xy.` [ | | } } &.%.) L s.g.5 :XMX<.",
"Z w p ;.v Z N r.fXV ^ 9.! ~ y./ n.M.|.oX$XtXx.!.oX~.T.T.q.=.=.k.:.b.b.Y.w.d G J @./ 9.F.f 4XMX8.E ( P I &.&.&.L @.Q W a.c.@X^.c.",
"# % < % # q M dXfX^ ! ! j ( 4.T y.B h 8.;.A k.3X<Xe.-.b.Z ^ ! ~ n Z w.w.N ~ a./ 0.D S D 3.yX Xq.f 5 1 : y g 1 y S $ q.M z 0 % > ",
"<X3X3X3X3XxX,.<X5Xw.b d h u.' 4.S.W g ^ <.c -.2X<X6.(.D o.k W d 1.n <.B 1./ 6 y m * ;.C =.> w - . m M.oX'.%XiXrX2XvXrXoXoXdXrX5X",
"<.>.7.6.:.<X>.6._._.S Z u W B / p./ b v c =.b.T.|.x.w.N r.g.d.0.h ! b [.*X&XW.0X8XjXjX#X,XuXdXrX~.q.-.A oXC 2XA :.c C z <.=.p 2.",
"w.=.x M n pX6.M z i % . 3 S N 1 O w : p z.2. Xk.0 w.b.Y.a N * S +.y.d.S.C.S.s.y.W V l i S :.i q.;.q.q.C m 5X|.5XoX-.2.n p <.Z p.",
"=.k.M :.C j.3X<X,.e.T._.q.w.p.1 N.Z C w.dX5Xw.bX;XF X._.2X5.iXu W J.V.C.[ ) [ | P _ L O.^ 8.l.j.w.b Z a A x.oXe.N m r.0.c.o.W N ",
"Z C a :.i 3XT.6.xXM ;.;.9.C Z . <.x Z V r.8X4X4XX.'.nXL.5.m (.x.G.*X#.P  . .C.*.| | $.i.V N M.n ^ B <.a ;.- r k.;.m F 3 D b.D ^ ",
"0 c t C , @ > 5.-. Xb.s 2 =.n f B v.1.! +.h.%XI.+.;XnX;X{.'.5.N.N.a.g.D./ y.@.' _ C.) f.N.t.b.l.<.l.fXT.;.pXoX!.<XQ.`.5Xp i p ^.",
"xX^.M.#XgXiXx.!.w.-.;.b.=.XX=.2.b ! ^ B +.;X%Xh.{.X.{.h.{.t.OX0.hXaXsX0X1XMX+X).lXmX*X+XnXdX6.E.1 ! <.b.dX<X5.m.2Xe.r.q.uXz.uXxX",
"c C ;.8.2X#Xt e i 4Xv n >.z.>.=.B ! <.w.%X0.I.L.{.L.I.8 8 a N.mXmXmXnX$ @XT.<XXXcX1X1X*XfXcX1X4XE.a.8.M.<X!._.2XgXjX'.S w.p G.w.",
"t n v b.x.I.a V q.a b.8.=.c n p n =.n 2.t - < X.aXgXhXhX7Xl / y.O.J .X,Xc M 6.6.p.p.3.s.E 3.Y ^ / k V l 0.{.'.5.;X8Xf.8.E.E.D c ",
"v =.;.c.<.<.r.w.w.o.b.p C n n c c :.<X(.yX-.t.t.8.Z p.G.' H.u.s.u.d.0X`.A 6.C S ! / ] ] ] ` S.1.J Q R O.^ L.N.{.'.8 u h.OXt.q.C ",
"j.Z Z l.V G.I.; OX<.r.8.b.>.:.,.~.T.e < dXT.|.j.<.B Y G u.S.` ) ' / 0XOXq.;.t l / ' K A.` ( T 1.E ~ ! ^ n.o.8XaXzXeXI.l t.o.OXN ",
"8XhXaXwXa.4X&X`.l 3 t e * , 0 e % X # :.c k.OXl.Z b G S.` T T Q K E R 8 7XdXr.8.N o.W R Q N B n N <.;.m.> ;.r.+XE./.[.s.F.F.}.:X",
"c.o.o./.*XW d.R W +X4X5XtX7XT.<X<X@Xq <Xc p q.l ~ / 3.H H H ~ E J Q Q ~ 8.z.e.m.M.B B 8.y g * * ; @ $ - 2 l.b ! d.J.T J.Z.A.i.i.",
"<.n.z.1.8.d W O.V 9XsXg.Z Z p =.!.3X  b.m.q.$XX.V R T ` P H _ ] E h 6 ].9.9.'.+X9X%X&X8X].n.`.]..XXXnXuXg.3.E V.( &. . .J.C.A.i.",
"b.).l.<.b V h ^ O.'.O.u b B 1.w.j.;.o N s a t V O.J E ] L %.K ( R g X g.Q i.i.@.a.N.8Xa b.w.r.Z Z / p.1.R E K H { } K.| C.C.#.3.",
"3 3 @ . > $ x i 2 2 > > = D ! /.R g 5 8 y u V h k W J h Q @.~ / ! l.w ' @.$.@.@.s.a.^ b.uXw.<.! ~ ! h G / J Q $.U.-X=X=X9XP.1 u ",
"qX&XmX0XuXuXfXtXpXiXnXgXnX/.[.].*X*X:X*XhXaXeXqX7 = B Z ; 4 : : n w s.h @.#.@.+.J ^ p %XMXb.2.b b Y o.o.d 9.g.L L u.u.R E Q :X4X",
"A.) L #.) ] ' ' F.d.y./ ^ v.]./.P.].].].:X&X+XuXqX1Xz.j.C T.C x 6.3 n.w.l ; d.V f.M.t k.6.!.r.A ;.0.m.x.M 6.5.N B h T T ~ 4.@.s.",
"P U _ $._ [ K C.) E @.d.W O.W y./ B h W B 9.~ ! 3.2.Z Z @ k.>.>.C C b.^.. MXnXnXnX#Xx.A m -.5.T.x.x.M & < q r z t F.4 3.4.J.E T ",
" . .P [ %.&.) ' Q Q @./ / / Q R ~ Q W J k J H ] ( [ W E 6 W g.1.S Y.w.).2 q.6.6.-.s A m m 6.2.k.>.2.b.R.pX3X X!.,X<.9.~ H.[.S.#.",
"#. .) C.Q @.E G F.F.H.9./ J R T T E R / Q J ] #.G j / E O a.^ ~ h g <.<X@ >.x.oXA -.S C C C 2.,.2.>.c >.<XvXz :.<.v W D.D.g.O.P.",
"&X4X&X1XfX$XtX6XcX5X^.9.R O.h G h D.B 9.^ k O.B ~ D.v . r.S - <.~ 3.b k.=.k.!.,.C <.l.! XX<.v =.:.i ,.k.,.vXx N ^ /.+X:X:XhXhXwX",
"@Xj.$XY.|.$XE.Y.].n.OX.X0X*X*XuX/ h d ^ = ; = O . * - w e.;.z `.6 1 ! f $ T.R.:.2.l.W.<.b <.v n c c >.:.< <Xr.l g W +.>XhX:XnX+ ",
"z k.m.q.9.1.E 4.E ' E J R 3.~ O.~ R h / 6 D.&X9X9X%XnXsX|.|.dXx 6X&Xn.b.2.>.Y.$Xj.r.$X. 2 y t > i @ 0 2 # v y v.R J i.R :X@.h.F ",
"M x.C C ! Q S.9 ( ( E R Q R B ~ ~ G d H Q i.~ / G R ' ! v.^ c.. b.vXS t. XT.^.@X@X'.xXOXZ (.yX`.>.dXyXl.2 W.$XD./ h / ~ +.+.9.%X",
"_.X.S D a.^ ^ y.W R / W p.b ! b b R E T E ( V.4. .4.] ( ] i.@.V gXdXq.o.o.].P.G.h.A A |.dX|.@XS q.;.T.5Xo k.w l.9.~ j T T / H.9X",
";XM.nXc.8 a.h F.o.B h Z b b p.v.b d h E 4.( H [  .|  .4.I ) h.1 <XrX5.V 8 +.}.].{.B.^.OXrXm.a F l A _.|.  c c i v v 3.1.~ y.*Xs."
};
