/* XPM */
static char *d4aca4a3d0af40b4916ec295610fb2db[] = {
/* columns rows colors chars-per-pixel */
"64 64 248 2 ",
"   c #1B0407",
".  c #1D0505",
"X  c #230606",
"o  c #280808",
"O  c #2C090A",
"+  c #390907",
"@  c #350A0B",
"#  c #360C11",
"$  c #3C0D12",
"%  c #3C1018",
"&  c #450B09",
"*  c #4A0E0D",
"=  c #560D0C",
"-  c #4B110D",
";  c #57110D",
":  c #480E12",
">  c #4A1219",
",  c #541213",
"<  c #5A1418",
"1  c #6E0D0C",
"2  c #67140D",
"3  c #75150C",
"4  c #641313",
"5  c #691718",
"6  c #781918",
"7  c #61241D",
"8  c #591722",
"9  c #671821",
"0  c #7A1B26",
"q  c #6E1E31",
"w  c #78222A",
"e  c #742433",
"r  c #7D3335",
"t  c #851A0F",
"y  c #871915",
"u  c #8C1C1B",
"i  c #961A18",
"p  c #AF1B18",
"a  c #902218",
"s  c #992219",
"d  c #A8241C",
"f  c #B9271D",
"g  c #871D25",
"h  c #951D26",
"j  c #891C31",
"k  c #A61D21",
"l  c #872729",
"z  c #982629",
"x  c #96332C",
"c  c #8A2B34",
"v  c #9B2833",
"b  c #953639",
"n  c #A62528",
"m  c #B82628",
"M  c #B4342A",
"N  c #A82937",
"B  c #B72A35",
"V  c #AA3737",
"C  c #BB3637",
"Z  c #CF1716",
"A  c #C62A1A",
"S  c #D8291D",
"D  c #EC341A",
"F  c #C82827",
"G  c #D82B28",
"H  c #C8332A",
"J  c #DA3527",
"K  c #C82B38",
"L  c #D62C35",
"P  c #C73637",
"I  c #D83736",
"U  c #EB2C2E",
"Y  c #E8382A",
"T  c #F9382B",
"R  c #E62E34",
"E  c #E73837",
"W  c #F83A39",
"Q  c #B4433C",
"!  c #D44A3C",
"~  c #E7463A",
"^  c #F34B35",
"/  c #FB4738",
"(  c #903841",
")  c #AE3147",
"_  c #B73949",
"`  c #C93547",
"'  c #D83846",
"]  c #D53651",
"[  c #E93A46",
"{  c #F73C48",
"}  c #EA3D56",
"|  c #F83C58",
" . c #994C4E",
".. c #BA4754",
"X. c #B04F50",
"o. c #B45062",
"O. c #BF6A6D",
"+. c #C74848",
"@. c #D84847",
"#. c #C8524C",
"$. c #C74655",
"%. c #D84954",
"&. c #C85558",
"*. c #D65953",
"=. c #E64748",
"-. c #FD4A42",
";. c #F84648",
":. c #FA564A",
">. c #E8485A",
",. c #FA4856",
"<. c #E75754",
"1. c #FE5355",
"2. c #F35857",
"3. c #FD5B55",
"4. c #FE555B",
"5. c #FE5B5C",
"6. c #DD655C",
"7. c #FD6356",
"8. c #F56854",
"9. c #FE635B",
"0. c #FC685A",
"q. c #C65966",
"w. c #CF546A",
"e. c #D85666",
"r. c #EA4969",
"t. c #F54B68",
"y. c #E75767",
"u. c #FC5667",
"i. c #FE5B64",
"p. c #FC5775",
"a. c #D76569",
"s. c #D06872",
"d. c #D87473",
"f. c #E66868",
"g. c #F96766",
"h. c #FF6B65",
"j. c #FF646D",
"k. c #FE6B6B",
"l. c #E2726B",
"z. c #FD7667",
"x. c #FF736C",
"c. c #E56873",
"v. c #FF6375",
"b. c #FF6C73",
"n. c #F76779",
"m. c #FE6C7C",
"M. c #E87577",
"N. c #F47576",
"B. c #FF7373",
"V. c #FF7C73",
"C. c #FE747B",
"Z. c #FF7C7C",
"A. c #D5887F",
"S. c #F88573",
"D. c #FF8374",
"F. c #FF8A73",
"G. c #FF837C",
"H. c #FF8B7B",
"J. c #DA7A88",
"K. c #EA6D81",
"L. c #FF6C85",
"P. c #E67A86",
"I. c #FF7484",
"U. c #FF7C83",
"Y. c #F97689",
"T. c #FF7C8B",
"R. c #FE7B96",
"E. c #B78B8E",
"W. c #DA898E",
"Q. c #DD9596",
"!. c #E88789",
"~. c #FF8484",
"^. c #F38886",
"/. c #FF8C84",
"(. c #FF848B",
"). c #FF8C8B",
"_. c #FC9689",
"`. c #FF938C",
"'. c #EA8B92",
"]. c #FF8593",
"[. c #FF8B93",
"{. c #FC8699",
"}. c #FE8B9C",
"|. c #E99896",
" X c #FF9394",
".X c #FF9B94",
"XX c #FF939C",
"oX c #F3989B",
"OX c #FF9B9B",
"+X c #FCA18E",
"@X c #FBA499",
"#X c #FFA39C",
"$X c #FE8DA3",
"%X c #E89CA8",
"&X c #FF94A3",
"*X c #FE9CA3",
"=X c #F899A7",
"-X c #FF9CAB",
";X c #FE9CB2",
":X c #DBAAAA",
">X c #E7A6A6",
",X c #FFA3A3",
"<X c #FFABA4",
"1X c #FFA4AC",
"2X c #F6ABAE",
"3X c #FFACAC",
"4X c #FFB3AD",
"5X c #FCB6AE",
"6X c #FFA5B1",
"7X c #F2AEB4",
"8X c #FFACB3",
"9X c #FFADBB",
"0X c #EAB4B7",
"qX c #FFB3B4",
"wX c #FFBAB5",
"eX c #F5B7B8",
"rX c #FFB4BB",
"tX c #FFBCBB",
"yX c #FFC3B8",
"uX c #FFC2BD",
"iX c #FFAEC1",
"pX c #FFB3C2",
"aX c #FFBCC3",
"sX c #FCBCC8",
"dX c #EDCAC9",
"fX c #FFC4C4",
"gX c #FFCAC5",
"hX c #F5C5C9",
"jX c #FFC4CA",
"kX c #FFCBCC",
"lX c #FFD2CE",
"zX c #FFCDD3",
"xX c #FFC8D4",
"cX c #FFD3D4",
"vX c #FFD9D5",
"bX c #FFD5DB",
"nX c #FFDBDC",
"mX c #FFE1DF",
"MX c #FFDDE2",
"NX c #FFE3E4",
"BX c #FFE9E7",
"VX c #FFE5E9",
"CX c #FEEBEC",
"ZX c #FEF0EE",
"AX c #FFEEF1",
"SX c #FEF4F4",
"DX c #FDF7F8",
"FX c #FDFBFB",
/* pixels */
",XZ.9.(.v.v.>.N e.bXFXw.> % > e aX6X).aXjXNXNXz F E 7.3XlXfXtXnXtXNXDXBX5.'.tXNXFXFXDXDXSXfXgXqXqX3XkXnXkX<XuXOXV..XgXnX<X/ f H ",
"OXZ.Z.cXVXNXrX] e.cXMX( % % 9 N eX[.4.m.cXVXVXd.l w V z.wXfX<XcX`.kXmXNXmXvXnXfXNXCXVXCXZXwX/.fXkXtXtXwX#X).nX8X<X/.:.7.~ a & H ",
"^.;.XXCXFXFXAX=Xp.8X9X> % $ l [ 3Xj.R P 8XSXBXcXOXV.`.kXvXVXNXMXqXgXcX`.3XcXvXvXNXNXvXNXBXwX/.D.wXgXOXh.5.B.vXnXzXP 2 3 ; O O m ",
"1Xl.Z.SXFXAXbXzX-X{.zXw 8 h %.].OXk.p n 2XFXNXcX5X~.B.,XwXkX*XW.eXaXcXqXkXkXbXcXnXlXkXVXNX4Xz.D.~ ^.vX3Xb.1XnXaXk.5 o X X o o f ",
"#X<X5XvX Xs.%.L.=XzX].B K ,.].nX*XwXoXeXZXQ.r x @. X8.C.OX[.4.' P.jXcXnXCXgXkXvXcXgXvXSXvXH./ ! x 6 2.tXvXVXMXf.5 @ O o X . @ I ",
"wXG.E I F B m.,.y.nX,X,.T.&XtXMXgXmXDXSX|.n , 5 G -.j.3XqXXXT.6XrXfXjXjXNXNXzXkXuX4XNXFXyX0.S t z - , [ bX8Xn.0 : @ O X . . x 0.",
"e.~.d i W n ,.,.' ,XvX3XjX=XN #.jXcXvXNX*.y ; ; A =.tXzXjX8X6X9X-XrXaXtXNXCXkXgX`.#XlXCXgX0.F ! +.4 + B kXcX(.' g < 6 h < w P.,.",
"5 5.x , F n m B m y.NXSXBXl.p F V.~.<X1XE u = * 6 ).NXcXfXbXMXsXiXvXjX&XaXVXnX<X`.wXCXSXuXD.G <.#X;.m u.MXCXcX1XY.u.;.B.j.XX[.c ",
"B b.r   @ u 5 9 g K aXnX3X XZ.V.OXW B.1Xe.I N n f.(.qXnXAXAXAXsX6XzXjXL.[.jXNXmXtXcXFXBXyXOX3.~.5.4.B.1X%X6XMXMXsXzXjXjXoXw.N $ ",
"z i.x X . . X o O h ,XzXfXfX3XqX3XG -.<XkX3XT.E OX[.1XbXAXAXsXr.R.MXVX].I.8XnXDXCXmXCXgXlXuXU.<X[.jXcXw.>.8XxXzXvXNXVXoXN B ` 9 ",
"> c.@.& . . X o o 0 -XnXZXkX3XBX .d Y N.nXNX).F [ Y.{.6XxXVX'.] $Xo.sXpXI.T.8XNXFXZXCXlXvXVX,XC.qXtX[.e.Y.p.;XiXbXpXbXT.,.}.$XB ",
"9 Q.C.u O X . o O g 2XaXwXOXh.wX7 + P .XNXrXI h z y.L.R.;XxXr.w.iX) e =Xm.u.[.aXCXFXVXuXkXNX8XXX*X1XzX9X} ] Y.iXVXsXjX6X8XvXcXp.",
"<.vXtX=.; o O v @.<.wXy.E x.h.qXs.M 7.wX Xg.v n ( =XaXaX&X}.jXMXiX` 0 c.v.[ j.,XcXSXvX1XqXMXvXfXaXjXVX=XY.L.$XxXVXxX=XtXbXAXVXzX",
"8XnXNX/.%.7  .jX9Xi.R 6 d -.<X@XvXuXgXgX3XqX@XkXAXFXNX-Xv.L.bXVX;Xy.` *X4.m R C.gXnXcXgXkXkXnXnXqXkXCXrX;X;X;XxXs.W.9XT.rXcXzXfX",
";.qXnXqXU.M.qX&X[ g g < y =.h.+._.wXcXqXtX XjXCXCXNXtXrXI.].bXMXxXrXm.fX4.I ,.`.nXZXnXMXkXkXzXNXvX2X1XP.) $.| $X0X%XjXb.%.'.rX2.",
" Xz.V.).;.m 0 0 < # @ O @ 6 6 3 f.@X0.^ ,X.XgXlX|.*.%.kX1X*XbXNXpX}.1XrX(.XX X*XaXDXNXvXtXOXB.NXOX[ >.%.< < j e.MXVXrX;.u n ).h.",
"6.S -.tXkXeX*.*     O > 5 y y =. XJ d '.SXSXyXwX~ n |.FXNXfXrXwXI.[.bXvXvXNXN.n &.nXqXXX,.L (.CXzX[.8XtXn 9 e $XVXVX XE h E Z.qX",
":._.gXgXwXmXg.h K ' ` ` ' z * K  XW @XFXFXSXnXlX1.=.kXSXCX*XR ' L U.cXkXnXcX~.B K 2XbX=XB R G.kXzX1XMXMXaXP.J.sX6X-X6X1./ 3XkX`.",
"lXSXFXZXkXgXI 9 ,.I.L.L.,.K 0 F -. XqXBXZXvX5X`.:.I ,XvXnX`.i C OXkX8XfXtX%.L K h 9XVXJ.v { U.1XbXSXVXNX8XjXSXqXi.;. XOX#XBX.X@X",
"DXFXFXSXNXjXu ` 6XsXzX}.u.L L G y fXfX3XgX4XH.7./ 0.qXG.:.(.F { qX1X(. XOX%.m ' 9 T.pX_ g { U.6XbXSXbXNXjX9XvXaXU.R W <XyXgX=.7.",
"kXSXSXNXNX Xz I.jXVXMX$Xp.,.K y i lXqXW f.! J D d +.0.i I 8X1.G c.1X[.T. X*XC.T.v y.xXw.) ,.T.9XVXAXxXMXiXR.1X*X3X5.E qX`.h.J ^ ",
"#XfXNXcX3X` B u.rXxXMX9X6XrX=XM.oXNXeXZ A 6 3 f d Q ! i ;.gXi.,.=XfX3XXX9XMX8Xu.} ( ;XR.| L.}.pXVXAXMXsX$Xu.L.&XrXjX3XnXqXOXB.~.",
"fXwXvX1XC g | u.{.pX;XT.r.}.zXNXVXCXNX~.G.~ 2./ Y 6.x.T N./.:.h.kXAXnXjXy.=.I.p.w e.;XsXY.$X9XxXMXMXMXAX$X}._ &XaXNXvXkXkXlXmXvX",
"nXVXcXjXY.,.XXaXkX}.R.p.| *XtXrXcXnXSXkXOX3XcXH.D X.<X`.fX).H y P.NXFXoX4 g N N 0 L.bXVXjX-XxXVXVXbXxXpXR.;X) ) T.6X>.j.<X~.qXnX",
"^.gXqXNXZXaXfXkXzX6X&X&XT.*X$.z oXCXDXtX:.D F.+X<XyXlXlXmXyXA.X.qXjXnX!.b r b u.r.}.qXjXMXMXMXiXw.;XiXR.L.w.8 0 Y.&X4 0 n k E ,.",
"d -.Z.gXSXaX[.XX-XJ.q.e.c.n...0XSXdX:X X! S +XlX+XF.uXvXyXyXmXyXkX3XqXgXnXNXzX3X&X6X6Xm.*XMXSXhX) ] R.iX$Xj > ..jX%.@ + X + ; ; ",
"6 J Z.tXCXcXOXrXL.' j v { XXMXSX>Xb 3 k.S.S.BXZXF.:.H.mX<XyX+X+XfX).OX<XqXnXNX[.' 2.*Xp.m.&XjXzXL.R.;XbXR.8 w ;XbXW.E.V 3 + @ @ ",
"@ ; C `.kXkXOXqX(.u.>.} 1XeXfXOX-.F 4 6.5XM X.H.yX8.+XyXyXH.H.gX#X0.`.D..XtXvXuX;.j.8XXX}.,XzXxXR.R.bXVX_ #  .&.P.nXCX(.3.P & @ ",
"- & u h.wXnX1XC.6XrXrXjX).b.`.,X.X7.f M ! - - 7 yXF.+XlX5XyXmXyX`.7.0.@X-.s X.3X~.6XgXvXkXrXzX6XiX;XR.e < ..J.K j.3XVXcXcXl.4 + ",
"^ ~ t 2.qXNXqXE k j.kXkXB.qXuXkXcX#X/ a s 3 3 3 yXF.8.yXF.F.yXgX@XF.:._.8.6 u -.rXtXMX1X<.N.O.0XMXiXR.K.y.}.c.>. XG.2.z.G..X8.A ",
"H.5XY ^ 4XvXqX X~.gXzXtX~.<XtX~..XuXg.t J D T D H.@XH.gX8.F.gXmXmXmXmX@XtXW.|.tXaXd.' G F m 6 0 6X}.Y.pXkXgXb.m h 3 2 t ^ yXlXS.",
"yXyXF.H.`.kXkXuXNXnX8X,XtXwXf.F / B.~ s +X<XH.8.F.+XlXBXyXyXlXyX5XlXvXvXd.4XMXcX,Xi i m L R F B [.u.{ ' ' fX,X5.G d 6 a 7.yXvXyX",
"ZXmXNXnXgXBXcX4X~.<.E 5.[.jXO.d d f d 8.lXlX@XH.+X0.D.gXyXF.yX<X7.z.<XH.! +XmXBX2XY f E :.Z. XXXOXK 0 , 4 tXG././.:.^ z._.lXmXBX",
"lXlXBXBXSXkX:.~ i i F 4.,XkX^.F 2 - 2 *.vXmXkXyXyX/ / 5XmXyXmX_.F.yXyX0.~ :XZXmX:.3.G.h.G.1XcXvX:X= + X @ ).a.l /.,XyXlXBX5XH.yX",
"7.mXlXlXNXwX-.f 5 d T U.8XtXhXqX@XS.<.! yX<XfXnXf.A 3.@XvXDXgX_.+XlXvXF.D Q.BXBX.XgX<XnXVXSXFXNX>X< + : @ 7.X.+ < 5 7 ! 8.~ ^ ^ ",
"H vX3X4XcXMX.X/ F D 5.).qXcXCXFXBXuX<XgX*.@.3XwX7.z.D.4XBXDXuX_._.vXBXF.D |.vX@XuX#XyXBXFXFXVXSX:X6 n G ; :.#.X X X + s 3 + ; 3 ",
"Q uXtX`.fXNXcX5Xz.V./.,XuXtXNXNX2XD./ H.+.=.,X~.yX6.S / nXZXyXwXyX5X4XF.8.yXuXyX4X:.,XNXDXvXqXfX!.5 - l A x.l.2 O 2 t d A & @ ; ",
"tXqX1.3. XkXwXgXgXtX`.`.z.P d.@X_.0.T B. X XnXmX>X1 = #.lXZXlXuXyX4XF./ ! <X@XgX5Xi ^ OXgXlXfXcX^.n i & ! .Xd.x.Q - s d d - + q.",
"vX2.f ^.h.wX`.<XyXD.z.x.s ; s I h..XV.,XaXjXNXCX,XC C @X<X@XgXlX*.D A s Q .XD.5X,X3 u H 2.`.wXnXlX#.^ p ~.=.G ..l.M ; a 6 + & yX",
"C.n ; !.1.3.5XkXuX@X0.~ M 3 F 1.H.3XtXf.C [ 8XrXvXwX4X3X7.T D.BX<XQ y 3 #.@X{ k.3X=.t < s J `.qXvXl.F :.wX3.3X2.m f.~ i = o + <X",
"[ 6 k Z.cXg.k.).#XfXh.A T J 3.3XtXqX1.1.b.i.].u.*Xb.x.;.m d 8.gXmXBX@X! z.fX1.m =XZ.W G d d z.).<Xz./ gXwXvXFXcXV.E #X<X^.l 5 XX",
"] m B.=Xc.g. XW 3. XyX.X/ 1.3X3XtX).W B.j.6X,.K n k T G a m 7.H.vXlXH.5XnXmXU.F M.fX<X/.7.E T G :..XfXfXE X.CXDXlXnX).G.fXC.R 3X",
"0 v.>Xr h i.1.I [ Z.4XuXkXOX).C.4.,.OX(.] Y.v 9 5 u @.4.h.V._._.uXgXF.z.4XNXjXB.G 3XBXmXqX).W y  .nXvXOX@.5 c.bXNXqXmXlXkXvX-X*X",
"P.m.$.m 4.XX1X8XwXgXkXBXSXVX<X4.G 1.qXn.g s._ N ' >.1XkXo.d.+.i x A.yXH.@XlXDX`.U Y 3XSXnXgX[.l.dXFXfXOXb.L v q.Q.q.s.M.*XfXkXzX",
"$XL.].=XsXCXNXzXvXzXcXSXFXFXcX3X[.C.qX6Xe.R.{.$X-XaXqX&.l @.E J 6 t gX/.H.+X.X#XY H h.).tXfXOX6XmXvXVXcX[.C.>.K [ ' [ b.8XzXVXbX",
"bXzXAXAXMX-XC.C.U.OXfXSXFXNXjX6XzXkXCXbX-X9XsXCXcX1X%.k ;. XwXD.~ 3 4X<X`.4XV.0.k.f R C.kX}.I.vX4XB.1XkXnXzX&XL.}.1X[.$.(  .s.MX",
"MXAXzX-X&Xm.u.j.C. XgXFXSXkX3XOX1XwXL.m.Y.9XVXzXaXC.1.(..XOXnX5XH.V.vXgX2XQ a s g.2.{ (.kXrXzXrXc.F 1.&XzXSXnXsXsXr.v 9 0 N ] xX",
"iXzXT.v.}.(.U.). X<XcXFXZXuX1X,XXXrX6X}.;Xp.8XjX1XU.rX3XB.9.G.:.7.f lXmX0X; & u E  X3XfXvXW.6XMXc.6 m ,.].aXCXFXR.u.B | ,.L.-XMX",
";XMXL.v.XX*XOX X8XuXnXFXCXfX6XqX-X9XNXpXbX9XxXCXsXaXzXOX;.G G u z m jX3X3X%.P [ 5.(.c.%XbXe.MXVX=Xl < 9 ] R.xXAXxXxX$X$XiXxXMXAX",
"6XjX].8X8XtXtXqXaXvXNXSXAXnXjXrX9XMXAXxXMXAXMXMXzXVXSXMX7X|.#.+ + 6 kXOX~.x.h.5.5.OX1XMX9XJ.%XMXfX) $ # ) L.sXVXiXbXbXxXMXVXjXxX",
"-XjXb.j.rXgXvXvXvXCXZXCXNXzXaX8XbXDXDXAXFXFXVXxXbXbXrXMXNXcXhXQ.a.W.NXrX X9.j.4.b.m.].MXc.q q o.( 8 $ > ) L.iXsX$XiXVXAXbXaX-XaX",
"1XzXU.I 2.gXVXSXFXFXSXMXvXsXrXxXSXSXFXFXFXFXVXMXVXMXjXxXMXzXqX3X5X2XC.;.4.).qXqXqX,.p.$X=Xs.j 8 > : # > ) r.;XbX;X;XbXAXFXAXjX9X",
"MXb.XX<X#X4XlXZXBXZXSXVXbXjXxXVXVXVXDXFXAXMXSXSXNXCXzX&XT.gX*X)._.f.B L { v.aXnXfXL y.}.sXFX6Xv $ $ : > _ t.;XxXxXiXL.Y.1Xu.I.nX",
" Xm @.yXcXkXmX.Xh.W U.,XzXjXNXMXMXMXSXFXFXVXDXVXjXjXcXbX[.,XfX~.1.C.B : n ,.(.aXzXK c.fXvXFXDX..: < v ] } {.xXAXsXL.] | ` p. XBX",
"' h 5.3X4XtXBXlX3X/.Z.(.bXvXnXjXzXMXAXSXDXFXFXjX}.XXrX3XtX XcXOX(.XX,., O B (.jXkXt.6XNXkXzXcX7Xm =.T.6X;XsXMXAX9X| ) B C T.cXkX",
"3 x ).`.:.5XtXtXnXgX8X*XjXcX8XpXzXzXzXMXAXSXSXtXp.,.qX,XB.cXNXnXnX!.P 5 < 5 y.rXjXrXzXcX1XrX&XXX[.sXjX6XrXVXVXMXpXR.,.,.=.oXBXj.",
"- b mXN.F -.@X~.1XOXrXaXzX=X6X6XaXkXzXNXSXDXVX-X' h +.fX3XSXCXAXFXe.h ` K 5 0 K.jXT.L.aX}.%.[ [ XXAXbX*XrXNXVXNXxX9X1X[.).zXkXI ",
"- w Q 5 t G OXqX1XtXkXMXMXsXkX*X*XfXzXnXMXNXNX8XF 5 y 0.vXSXtXfXkX3Xu.m.u.n.t.$XpX| I.6X].I L N ..bXVXjXkXFXSXCXMXaXkX,X XN.@Xz ",
"; ; , ; _ qXcX*X8X&XbXVXVXMXVXzX X1XjXzXbXMXNXnXU u 5 E uXvX8X~.v.[.vXMXCXjXp.-XMX$X6XrXT.;.0 < c 7XDXVXvXFXFXDXDXMXqXW -. X@.; ",
"5 r V N.jXgX1X[.C.W rXAXMX9XrXjX8X6XaXcXAXMXNXkXL 4 6 Y <XSX X=.g h eXzXMX6Xp.pXvXrX8XcXrX[.h ; 5 $.MXAXDXFXCXCXSXSXnXgX@X@XD.5 ",
"A.lXlXBXNXfXrX1X&Xp.;XbXpX9XL.p.>.'.vXbXFXnX3Xi.%.#.=.x.gXBX@Xf.v k P.8X*Xr.n.aXzXpXaXNXmXOXL < 0 q.zXDXDXNXNXBXkXvXNXlXNXBX@XM ",
"BXmXCXFXNXkXtX6X1Xr.P.L.w.iX=X{.w.N zXDXFXcX,X9.~.qXuX#XuXBXnXuXG.C.qX,.{ n _ fXfX8XzXFXZX XG z Q.sXNXnXvXtXNXcX3XwXlXNXgX@X,X7.",
"N.kXFXFXFXNXaX1Xe.] $Xq q t.6XMXbX$X*XMXSXtXtXcXqXvXvXnXgXnXfX0.N.vXSXg.{ h h 1XnXcXNXFXCX3X3.eXnXcXjXkXkXnXcXwX X XlXDXmXwX#X3X",
"C x.wXtX8XjXaX{.` Y.MXq % 8 a.=XzXaX&XcXcXjXqX~.OXgXwXyXgX4XfX|.l.CXFXnX1.F K *XDXFXFXFXFXCXuXkXjX3XtXkXyXtXtX Xx./.vXFXvX`.7.D."
};
