/* XPM */
static char *_ecc4f8ef85e44d2bf7653bff540eb84[] = {
/* columns rows colors chars-per-pixel */
"64 64 253 2 ",
"   c #1B1907",
".  c #1C1A06",
"X  c #211E08",
"o  c #1F2206",
"O  c #242209",
"+  c #292609",
"@  c #2C2A0B",
"#  c #322D0D",
"$  c #33320C",
"%  c #3A380B",
"&  c #362E12",
"*  c #3B3311",
"=  c #3E3913",
"-  c #473A16",
";  c #443D14",
":  c #3F420C",
">  c #47480D",
",  c #54520D",
"<  c #454211",
"1  c #4D4A12",
"2  c #4B4318",
"3  c #514D15",
"4  c #564A1A",
"5  c #555313",
"6  c #5C5916",
"7  c #5C531A",
"8  c #635F0C",
"9  c #625919",
"0  c #645B1C",
"q  c #5C6219",
"w  c #696718",
"e  c #736A1C",
"r  c #78761A",
"t  c #535126",
"y  c #6C5827",
"u  c #715C23",
"i  c #756C22",
"p  c #776827",
"a  c #71672D",
"s  c #7C7423",
"d  c #7B7636",
"f  c #847B1D",
"g  c #836B27",
"h  c #847C22",
"j  c #8A7E24",
"k  c #867828",
"l  c #877A36",
"z  c #7F821C",
"x  c #86851B",
"c  c #93961B",
"v  c #898424",
"b  c #95872A",
"n  c #949323",
"m  c #999529",
"M  c #8C8637",
"N  c #9A8934",
"B  c #8E9035",
"V  c #9A9334",
"C  c #A38C2D",
"Z  c #A59A2A",
"A  c #A38A35",
"S  c #A89637",
"D  c #AD9C34",
"F  c #B39C36",
"G  c #9EA126",
"H  c #A8A428",
"J  c #B2A62C",
"K  c #ABB520",
"L  c #B7B62B",
"P  c #ABA836",
"I  c #B7A837",
"U  c #BBB636",
"Y  c #C49C3C",
"T  c #C1BA2A",
"R  c #C4AC3B",
"E  c #C5BA34",
"W  c #C7B837",
"Q  c #CBBB3B",
"!  c #D5BB3D",
"~  c #BBC029",
"^  c #C5C529",
"/  c #CDD42A",
"(  c #CAC737",
")  c #D6C93A",
"_  c #D0D733",
"`  c #D6D439",
"'  c #E9CD3A",
"]  c #E2DB3C",
"[  c #DBE92B",
"{  c #DAE239",
"}  c #E8E63C",
"|  c #EFF43A",
" . c #978E4A",
".. c #A79746",
"X. c #B0984E",
"o. c #9AA04D",
"O. c #A9A647",
"+. c #B7A644",
"@. c #B9B546",
"#. c #ACA555",
"$. c #B9AA56",
"%. c #BAB657",
"&. c #B9AF6B",
"*. c #C7A845",
"=. c #C9B846",
"-. c #D6BA48",
";. c #C8AB59",
":. c #C7B757",
">. c #D5B85A",
",. c #E5BE57",
"<. c #C8B86A",
"1. c #D3BC6A",
"2. c #C9C748",
"3. c #D7C848",
"4. c #D9D647",
"5. c #CAC555",
"6. c #D7C756",
"7. c #CDD253",
"8. c #DBD457",
"9. c #E5CA49",
"0. c #E6D748",
"q. c #E6CA58",
"w. c #ECD351",
"e. c #E9DA57",
"r. c #F5D152",
"t. c #F3DC53",
"y. c #F7DA59",
"u. c #DAE35C",
"i. c #E8E648",
"p. c #F5E948",
"a. c #F4EC4B",
"s. c #EDF244",
"d. c #F8F849",
"f. c #EAE758",
"g. c #FEE455",
"h. c #F7E758",
"j. c #FDED5B",
"k. c #EDFB57",
"l. c #F9F757",
"z. c #F6F25C",
"x. c #FDFD5B",
"c. c #C9C367",
"v. c #D7C766",
"b. c #D8D468",
"n. c #CEC878",
"m. c #D9CA7A",
"M. c #DBD675",
"N. c #E5CC66",
"B. c #E7D766",
"V. c #F9DA66",
"C. c #E3CA76",
"Z. c #E6D777",
"A. c #FEDC72",
"S. c #F7DA78",
"D. c #EAE667",
"F. c #F4E464",
"G. c #FEE464",
"H. c #F3EC63",
"J. c #FEE56C",
"K. c #F6E969",
"L. c #FEEC6B",
"P. c #EFF164",
"I. c #FDF262",
"U. c #F8FB63",
"Y. c #FDF46C",
"T. c #F3FE6B",
"R. c #FDFC6C",
"E. c #EBE576",
"W. c #FEE473",
"Q. c #FDEB73",
"!. c #F4E779",
"~. c #FEE47B",
"^. c #FEEB7B",
"/. c #FFF474",
"(. c #FDFD73",
"). c #FEF47C",
"_. c #F4FB78",
"`. c #FCFC7C",
"'. c #B5B090",
"]. c #D8C787",
"[. c #CED186",
"{. c #DCD789",
"}. c #D7CD94",
"|. c #DAD798",
" X c #E8D986",
".X c #F9DB85",
"XX c #E8DC97",
"oX c #F8DD93",
"OX c #DEE29C",
"+X c #E8E788",
"@X c #FFE586",
"#X c #FEEC83",
"$X c #FEE48C",
"%X c #F4EB88",
"&X c #FFEC8C",
"*X c #FEF484",
"=X c #FDFC84",
"-X c #FEF48C",
";X c #F6FB89",
":X c #FEFC8C",
">X c #ECE798",
",X c #FEE593",
"<X c #FFEC94",
"1X c #FFE49C",
"2X c #F3E898",
"3X c #FEEC9B",
"4X c #EEF89B",
"5X c #FFF394",
"6X c #FEFB93",
"7X c #FFF49C",
"8X c #F5FC98",
"9X c #FEFC9C",
"0X c #DBD9AA",
"qX c #E6D8A8",
"wX c #F8DEA3",
"eX c #ECE6A5",
"rX c #FDE5A1",
"tX c #F3EBA3",
"yX c #FEECA3",
"uX c #F6E9AA",
"iX c #FFEDAB",
"pX c #F4F7A3",
"aX c #FFF4A4",
"sX c #FEFCA3",
"dX c #FFF3AC",
"fX c #FEFCAC",
"gX c #EAE4B7",
"hX c #F7E8B6",
"jX c #FFEDB3",
"kX c #FFEDBB",
"lX c #F5F5B7",
"zX c #FFF4B3",
"xX c #FEFCB3",
"cX c #FFF4BB",
"vX c #FEFCBC",
"bX c #F6EBC4",
"nX c #FFEEC4",
"mX c #F1E9CA",
"MX c #FFF5C4",
"NX c #FEFCC4",
"BX c #F4F3CA",
"VX c #FFF4CB",
"CX c #FFFCCB",
"ZX c #F7F7D0",
"AX c #FFF6D3",
"SX c #FFFCD4",
"DX c #FFF6DA",
"FX c #FFFCDC",
"GX c #FEF6E3",
"HX c #FFFCE4",
"JX c #FFFDEB",
"KX c #FFFEF4",
"LX c #FFFEFC",
/* pixels */
"sX).I.-XJ.G.w.A :.DXLX>.- & - a bXdX&XMXVXHXJXm U 4.I.fXSXNXvXHXvXJXLXHXK.>XcXJXLXLXLXLXKXNXCXxXvXfXCXFXSXsXNX9X(.9XCXFXfXs.K U ",
"9X*X).SXJXHXkX*.:.AXGXl & & y A cX&Xg.!.AXJXJXn.k a P E.vXNXfXSX6XCXHXHXHXFXHXNXJXKXJXJXKXvX:XNXSXvXNXvXsX:XFXxXfX:Xf.k.4.v : ( ",
"2Xf.7XJXLXLXLXoXN.iXjX- * * s 9.dXY.) +.lXKXJXAXaX).8XCXFXJXHXHXxXCXSX6XfXFXAXFXJXHXFXHXJXvX=X`.xXNX9XR.j./.FXFXSX( w w , @ + P ",
"aXM.*XLXLXKXAXVXyX,XCXa 4 k :.&X9XQ.H V lXLXJXSXxX=X).dXvXSXtX}.bXNXSXvXCXCXFXFXFXCXSXJXJXfXU.`.4.>XFXfXQ.fXHXNX!.0 O . o O + P ",
"9XfXxXFX2Xn.:.S.yXAX#XS R t.-XFXsXvXtXlXHX0Xd M 4.8XD.).7X-Xt.-. XMXFXFXKXCXSXSXSXCXFXLXSX;X| 2.B s B.NXAXJXFXv.0 $ @ O .   @ ( ",
"vX`.} 3.E D Q.w.N.HXaXt.^.3XcXHXNXHXLXKX>XV 3 w ) d./.fXzX3X#XiXcXNXVXNXHXHXSXSXNXfXHXLXvXx._ v m < 1 3.FXzXS.p * # + O .   M E.",
"v.-XG v p.m t.r.Q aXFXfXVXeXV :.CXSXFXHX5.s 3 5 L 8.vXAXCXdXyXjXyXzXMXcXHXJXCXCX:XsXSXJXNXT.K U @.7 * F CXAX&X=.s 4 i v 5 a .Xt.",
"0 H.M 1 U b P F D B.JXKXJXM.J L *X=XfXlX3.v 1 ; e :XHXAXMXDXHXnXjXFXVX3XMXJXFXfX6XvXJXKXNX`.( B.sXf.J F.HXJXAXaX^.V.w./.L.<X&Xl ",
"S Q.d   # v 0 u s I MXHXsX6X).`.9Xp./.dXv.Q S Z Z.#XzXHXKXKXGXnXrXAXMXW.&XVXHXHXNXSXLXJXvX9XI.5Xj.F.W.yXqXdXGXGXMXAXMXVX>X;.A * ",
"v F.M o   .   O O j iXAXNXCXfXvXfX` a.sXSXdX*X] 7X-XaXAXJXKXbX>..XDXJX@X~.zXFXLXJXHXKXCXSXNX*XsX6XCXAX<.-.iXVXAXFXGXKXXXA S +.9 ",
"- Z.6.%   . . O X e uXFXKXSXfXJXo.m ` %XHXHX-XI 3.^.$XiXAXGX].Y oX .bXjXW.^.zXHXLXKXJXSXFXJXsXQ.zXMX&X6.@XN.rXjXAXkXFX%Xw.<X,XF ",
"y |.).v + . X O @ g zXNXxX9XR.xXt = U 9XJXxX=.v k N.W.$XrXAX,.;.jX .y rXW.g.-XNXJXLXJXNXCXJXzX5X7XdXAXjX9.*.A.kXGXnXMXyXjXFXAXV.",
"b.FXNX0.5 O @ M 6.8.vXb.4.R.R.xXc.P P.vX6XK.V V M tXnXMX3X@XMXGXjXY p v.J.' Y.aXSXKXFXfXxXHXFXNXNXVXHXyXS.A.oXnXGXAX1XcXFXKXJXVX",
"fXFXJX:X8.t  .VXzXB.0.i m a.sXsXFXNXSXCXxXxXeXCXKXLXFXyXG.A.DXJXrXN.+.yXy.J ) ).CXHXFXMXCXSXFXHXzXCXJXjXrXrX1XVX&.].zX^.zXAXAXCX",
"a.xXHXxX%XZ.zX<X-.g s 7 s 4.Y.%.+XvXSXxXvX7XCXKXJXHXNXzX^.@XAXHXMXcXJ.MXj.2.e.5XFXKXFXHXAXCXAXJXFXuXuX]...*.9..XgXXXVXL.:.>XvXD.",
"6XE.*X:Xt.P i p 3 $ # @ $ e e r E.8XU.i.sX6XCXFX>Xc.:.AXdXaXDXHXcX<XyXvX-X7X5XaXNXLXJXFXNX6X).HXsX3.e.>.4 4 g 1.GXLXzXh.f m 2XY.",
"b./ z.vXCXlXc.<     X 2 0 s r 0.9X( m +XLXKXNXvX4.Z eXLXHXNXxXcX^.-XFXSXFXHXE.b :.FXcX3Xe.E 5XJXCX-XzXcXb 7 u oXKXJX7X) b 4.).xX",
"k.6XNXCXvXHXE.j R =.*.I ) b ; =.7Xs.pXLXLXLXHXCXz.3.AXKXKXaX4.=.Q #XSXAXHXFX-XJ I aXFXXXF ) *XCXAXyXGXHXcX X].nXiXyXdXj.i.fXCX6X",
"CXLXLXKXCXCXQ 0 w.~.W.A.y.J i T a.9XxXJXKXSXxX:Xd.2.fXFXFX5Xv I 7XCXzXCXvX6.3.R l iXGX].N 0.^.dXAXKXJXHXjXMXKXzXj.p.7X7XsXJX9X9X",
"KXLXLXKXHXCXv +.iXMXVX$Xy.! Q Q f CXNXxXCXfX=Xl.d.U.vX%Xf.5XE w.zXdX#X5XsX6.Z =.0 ~.cXS k 9.^.iXHXLXDXHXVXzXAXNX^.) i.fXvXCXi.P.",
"SXKXKXJXJX5Xb Q.VXJXGX,XV.w.I h b ZXxXi.D.2.( [ G %.D.x 2.zXh.Q Z.iX&X#X5XaX%X@Xl N.VX<.F r.#XzXGXKXAXGXjXS.iXaXdXI.0.xX:XU.` i.",
"sXNXHXFXdX=.S V.jXVXGXiXyXzXuXC.eXGXlXT U e w K G @.4.x 0.VXI.e.>XVXdX5XzXGXiXy.9.l oX X9.W.$XcXJXJXDXnX,Xy.W.<XzXCXxXFXvX9X(.*X",
"NXvXFXaXI g 0.y.$XjXrX.Xq.&XCXHXJXJXHX5X=X4.f.i._ b.R.} *X:Xl.K.AXKXHXCXB.3.W.V.p >.wXnXA.,XjXnXGXDXGXKX1XoXX.1XcXJXFXAXSXAXHXFX",
"HXJXAXCX Xt.3XMXVX$X.Xy.r.3XMXzXAXHXKXCXsXfXSX=X/ %.fX:XNX:XE s m.JXLX2X6 p S A u A.DXJXVXrXAXJXJXAXVXhX.X1XA S ~.dXw.E.sX:XxXFX",
"%XCXvXHXKXNXMXVXAXyX,X<X^.yX$.b >XKXLXNXz._ _.8XpXNXSXSXFXvX{.#.cXCXFX{. .d N B.6.,XiXMXHXGXDXgX;.wXwXS.,.;.2 u S.3X9 w S Z 0.e.",
"m a.=XCXKXNX-X<XyX].$.>.Z.B.$.gXKXmX0X6X2./ :XSX8XT.ZXSXCXNXHXNXCXxXxXCXFXHXAXzXyXzXiXJ.3XGXLXmXl Y .XkXwXg - X.MX:.@ $ X $ 1 5 ",
"r ( *XvXKXSX7XcXW.R g N 9.3XGXLXeX .w !.4XT.HXJX_.| _.FX8XxX8XsXCX:X9XsXxXHXHX5X=.q.3XG.Q.<XMXVXA..XoXDX,X4 p rXAX}.'.S w = @ $ ",
"$ 1 U 6XCXAX9XzX&Xy.6.q.dXcXNXaXd.L q b.pXP o.+XlXk.8XlXfX;X=XCXsXU.6X(.9XvXFXNXp.J.dX7X<XaXAXVX.XoXAXGXX.#  .$. XHXJX-XP.U < $ ",
": : v Y.xXHXfX^.dXzXcXVX-X/.6XsX9Xx.K P 2.> % q lX_.4XNXpXlXHXvX6Xx.U.8Xd.n O.vX*XzXNXFXAXMXVXiXiXyXoXa 4 #.m.I I.dXJXSXSXE.6 $ ",
"{ 4.z f.xXJXxX3.C K.CXVX/.xXNXCXSXsXs.x c q w 8 lX+Xu.NX_._.lXZX6X_.k.:XD.w v d.vXNXHXuXb.!.&.gXHXjX$XN.N.<XC.8.7X%XD.T.`.8Xu.K ",
";XfX{ i.fXFXvX6X*XCXSXNX-XsXNX=X6XNXP.z ^ { [ [ 4X4X4XNXk._.CXFXFXHXFXsXvX|.|.MXNXm.3.E T Z e y iX<XW.cXVXCX!.J m e q x i.vXSXT.",
"NXlX=X=X6XCXCXNXHXHXxXsXvXvXb.E a.(.4.n 8XfX;Xk.T.4XvXHXlXlXSXNXxXSXFXFXn.xXHXFXdXf f J ( 0.U I &Xj.9.! =.CXaXf.( Z r z P.NXSXNX",
"KXFXHXFXCXJXSXxX=Xf.3.j.5XCX&.n m H G D.CXSX9X_.6Xk._.CXvX_.NX8Xk.k.pX;X7.4XHXJXfX} H ] l.).7X7X3XI i 1 7 vX%X;X:Xd.d._.4XSXFXKX",
"SXSXJXJXKXSXk.4.v v E j.aXCX>XU q : w 7.FXHXCXNXxXs.d.xXHXvXSX;XT.vXlXT._ 0XKXHXf.H.=XY.=XfXAXFX0X3 * O $ :Xc.M :XsXlXZXJXfX;XlX",
"x.FXSXSXJXvXd.L w Z p.).dXNXCXxX8X+X7.7.vXsXNXFXD.~ x.8XFXLXCX;XpXFXFXT./ OXJXHX8XNXfXFXJXLXLXHX0X7 # < $ P.%.% 6 w q @.u._ { s.",
"U FXfXxXSXHX6Xi.L ` x.6XxXAXKXLXHXNXfXNXv.7.xXvXx.(._.xXJXLXNX:X;XSXHX_.[ OXSXsXNXsXvXJXLXLXJXKX0Xe Z E 1 f.%.o   o @ c r : 1 e ",
"@.vXvX8XNXJXSXxXR.(.=XsXNXNXJXHXfX_.d.`.2.8.dX=XNXb.^ i.FXKXvXlXlXlXfX_.k.vXCXNXxXk.sXHXLXFXvXNXXXw < s L (.M.q @ q z c ~ = $ 1 ",
"NXvXz.z.7XCXvXNXNXNX:X6XE.U M.tX:Xx.| (.5X6XHXHXeXq , 5.SXKXSXNXvXxX_.| 2.sX9XCXxXc i.9XNXSXNXSX>XV n > 2.8XM.!.O.> c G G < % &.",
"FXD.H >XY.vX6XfXvX(.T.(.n 1 n ( R.6X(.sXVXVXJXJXtX@.@.eXsX8XZXSX7._ L c O.9X/.xXsXw z E D.=XvXHXBX%.s.H :X4.Q $.M.P , v r $ : NX",
"Q.m 6  Xz.z.xXCXNX9Xx.4.P e E l.=XfXvXZ.P 9.zXxXFXvXxXfXx.| _.HXlXP z w 5.sXa.Y.fX8.s 7 n ` -XxXFXM.^ f.vXH.xXF.J M.8.c > + $ lX",
"9.w Z ).FXY./.:XsXNXR.L } _ H.fXNXxXj.j./.F.&Xg.7X/./.i.J Z D.NXFXJXpX( !.NXh.J tX*Xi.^ n H R.=XsX_.d.CXvXFXLXAX).0.sXsX2Xd 9 5X",
";.J Q.eXZ.K.6Xp.l.6XNX9Xp.z.dXxXNX-Xi.!.J.dXw.I C Z } ( v P l.=XFXZX;XvXFXHX=XU  XNXxX=Xx.i.i.( f.6XNXNX` $.KXLXAXFX6X).NX#X) dX",
"i J.eXd f F.h.3.0.=XfXNXCX9X6X/.F.d.7X%X:..XN 9 0 s 5.F.R./.5X4XBXCX_.T.fXJXCX/.) fXJXHXxX:Xi.r o.HXFX9X6.w M.DXHXvXHXNXCXFXaXyX",
"m.S.+.D y.<XaXzXNXCXCXJXKXJXaXK.E j.zXS.g 1.X.j Q q.dXCX#.[.%.c B [.xX=X9XSXLX6X` ] fXKXHXCX-XZ.mXLXNXsX/.R b &.}.&.n.+XaXNXCXAX",
",XA.$XyXVXJXHXAXFXAXSXLXLXLXAXdX2XQ.zXiX>..XoX,XyXMXzX:.v 5.4.( r z ZX=X=X6X4XsX] U Y.5XvXNX7XzXHXFXJXSX<XQ.9.R ! 3.9.Q.zXDXJXDX",
"AXAXKXKXHXaXQ.^.*X9XCXKXLXJXCXzXSXAXJXFX3XiXnXJXAXaX5.Z e.:XvX`._ w xXsX8XsX(.D.R.J ) /.CX<X^.AXxX/.fXAXHXAX1XV.,XyX-X#.M  .<.GX",
"DXKXAX1X<XW.G.Y.).6XCXLXLXCXdX9XdXvXW.W.A.iXGXAXMX^.h.-X9X9XFXxX:X_.SXCXlXO.z n D.B.0.-XCXcXAXcXZ.L h.7XVXKXDXnXMXq.b y p N -.nX",
"jXAXW.V.<X#X).*X5XfXSXLXKXNXfXaX<XzXiX,X1XV.iXMXaX*XcXzX/.x.=Xz.k.U SXHXgX6 < x 0.9XfXCXFX}.yXHXm.e D w.&XkXKXLX Xq.F 9.r.A.1XGX",
"1XDXW.G.<XaX7X9XxXNXFXLXKXMXdXzXyXjXGXnXAXjXnXKXMXMXAX7Xf.) ( v m P CXxXzX5.@.0.j.*Xm.eXDX1.GXJX2Xk 4 9 -..XDXKXnXGXoX<XzXAXGXJX",
"iXVX$XzXzXvXvXxXNXFXHXLXKXHXMXcXjXDXKXnXGXJXGXGXAXJXKXHXgX>X$.% @ e AX7X=X/.Y.j.I.7XyXJXkX1.qXGXVX..* & l A.nXGXhXAXAXAXDXKXVXVX",
"yXMXL.Z.cXCXFXFXFXJXKXJXHXAXcXiXDXLXLXKXLXLXGXAXDXDXkXDXHXAXBX|.c.}.JXxX5XI.L.F.Q.J.$XDXm.9 y X.l 4 & - j V.hXnXoXhXGXJXDXnXrXcX",
"yXAX*X) D.NXJXKXLXLXLXFXDXMXkXVXKXKXLXLXLXLXJXDXJXHXMXVXHXAXcXfXxXlX^.t.j.-XxXzXcXt.B.oXwX1.l 4 - * # - l ,.oXAXoXwXDXLXLXKXMXzX",
"HXQ.3XfXsXfXSXKXHXKXLXJXAXVXVXJXHXJXLXLXKXGXKXLXHXKXAX5X#XCXaX-X-Xb.I Q 0.L.cXFXNXW v.5XMXLXyXj = = = 2 F ,.wXAXAXkXA..XyXV.W.FX",
"7XJ 8.vXFXCXHX9XR.p.).aXAXCXHXHXDXGXKXLXLXGXLXJXMXMXAXFX-XaXCX*Xz.^.D - V g.#XMXAXR Z.MXFXLXLX..; 7 j -.,.oXnXJXnXV.R 9.I G.7XJX",
"2.h K.fXfXvXJXSXfX=X/.-XFXFXDXVXAXHXJXKXLXLXLXVX,XyXcXdXNX9XAXsX-X7Xt.4 + D &XMXAXw.dXFXVXAXAXgXD 3.#XiXyXkXGXJXwX,.A F +.#XAXCX",
"w N 6X6Xk.xXvXvXHXCXzXaXMXAXzXcXAXAXAXGXKXKXKXkXg.w.zXaX/.FXHXFXHX+X+.6 4 9 v.zXVXcXAXAXaXcX7X5X&XMXNXdXzXJXJXGXkX~.w.t.6.>XJXQ.",
"1  .HX!.U i.sX*XfX7XcXMXAX3XdXdXMXAXAXHXKXLXJX3X-.j :.BXfXKXKXJXLXv.b R D 9 u C.VX~.W.cX<X6.9.-.XXKXFX3XzXJXJXHXVXzXdX-X-XCXCXQ ",
"< i O.0 r ` 7XxXfXcXAXDXFXMXVX3X7XNXAXFXFXHXJXzXT w r K.FXLXvXCXVXiXG.J.V.Z.q.,XjXr.W.iX$XQ E V X.AXJXVXVXLXKXJXDXMXAXsX7X+XsXn ",
"3 3 1 3 O.cXAXsXdX7XFXJXJXGXJXAX<XaXCXAXDXHXJXFX! f 0 4.NXSXzX#XK.&XFXFXJXMXy.1XHX,XiXzX#Xw.i 7 l hXLXHXFXLXLXLXLXHXxXp.a.6X5.5 ",
"0 z O.!.CXVXaX<X^.' kXKXGXiXjXVXdXdXMXAXKXHXJXCXQ 9 r { fXKX9X0.k j hXAXHXiXV.jXDXjXzXAXzX5Xh 7 9 ;.HXKXLXLXKXKXKXLXFXCXtXpX_.w ",
"|.SXSXJXHXNXcXdX3XG.rXGXkXrXA.V.,.XXAXFXLXHXxXj.8.:.u.R.CXJX9XM.V b  XdXyXq.S.kXAXzXMXHXHXaX( 6 w <.AXKXLXHXHXJXSXSXJXCXJXJXsXU ",
"KXHXJXLXJXSXcXdXyX>. XN.;.jX3XoX:.A AXLXLXSXaXI.;XxXNX9XNXHXFXNX*X).xXg.w.m O.MXMXzXAXLXKX7X( b }.VXHXGXFXvXHXFXxXvXSXJXCX8XsXx.",
"E.SXLXLXLXHXMXyXv.*.oXy y ,.uXDXAXXX3XHXLXvXvXFXvXFXSXFXCXFXCXD.E.FXKXE.0.v j uXFXAXJXLXKXfXz.bXHXAXCXCXCXHXAXvX6X6XSXLXFXvX9XfX",
"@.!.vXvXdXNXMXoX*.S.DXy * 4 <.rXAXMX7XAXAXVXvX=X9XNXvXvXCXxXNX>XM.KXLXHXh.R I yXLXLXLXLXLXJXNXSXNXzXvXAXNXNXvX9XR.=XSXLXFX;Xx.=X"
};
