/* XPM */
static char *_817fefbe656403597dee73c43458b72[] = {
/* columns rows colors chars-per-pixel */
"64 64 238 2 ",
"   c #061306",
".  c #091609",
"X  c #0B1B0A",
"o  c #0D230D",
"O  c #0D290D",
"+  c #11280F",
"@  c #0E2910",
"#  c #142D12",
"$  c #192E14",
"%  c #0E3310",
"&  c #133414",
"*  c #153C16",
"=  c #1A3A18",
"-  c #223D1C",
";  c #164418",
":  c #1C441B",
">  c #1B4C1C",
",  c #1A561E",
"<  c #22441D",
"1  c #224C1E",
"2  c #21541F",
"3  c #1F651F",
"4  c #1F4E21",
"5  c #1E5422",
"6  c #1E5F23",
"7  c #244A23",
"8  c #245421",
"9  c #245C24",
"0  c #2B5C25",
"q  c #2B5928",
"w  c #325929",
"e  c #395E37",
"r  c #1F6325",
"t  c #246425",
"y  c #286728",
"u  c #2B6B2A",
"i  c #33682B",
"p  c #2B742D",
"a  c #28762C",
"s  c #33742E",
"d  c #317C2F",
"f  c #366835",
"g  c #2E7431",
"h  c #2D7D31",
"j  c #347332",
"k  c #347C33",
"l  c #3B7C34",
"z  c #3A7639",
"x  c #426A3C",
"c  c #43783A",
"v  c #477A43",
"b  c #537853",
"n  c #2D8633",
"m  c #2E8D30",
"M  c #338433",
"N  c #338A34",
"B  c #388937",
"V  c #3E833A",
"C  c #3C8A3B",
"Z  c #35943A",
"A  c #3A943A",
"S  c #3A9A3B",
"D  c #3BA33E",
"F  c #44893A",
"G  c #44933C",
"H  c #449B3E",
"J  c #41A13C",
"K  c #3B8542",
"L  c #3C9942",
"P  c #3CA342",
"I  c #3AAB44",
"U  c #39B649",
"Y  c #488846",
"T  c #528749",
"R  c #449343",
"E  c #439C44",
"W  c #4B9846",
"Q  c #55984B",
"!  c #4D8E51",
"~  c #588B55",
"^  c #559856",
"/  c #639859",
"(  c #45A244",
")  c #44AB44",
"_  c #4AAA45",
"`  c #4AA549",
"'  c #45AB4B",
"]  c #55A74C",
"[  c #48B64A",
"{  c #53B34D",
"}  c #57B84D",
"|  c #4CA753",
" . c #55A756",
".. c #5AAA55",
"X. c #4BB953",
"o. c #57B657",
"O. c #54BB54",
"+. c #5DBC54",
"@. c #5CBB5B",
"#. c #64A95A",
"$. c #65B95A",
"%. c #75BC5E",
"&. c #679A64",
"*. c #5BA862",
"=. c #5BBA62",
"-. c #67A866",
";. c #74AA6A",
":. c #62BD64",
">. c #6BB46C",
",. c #68BA68",
"<. c #73B96B",
"1. c #6FAA73",
"2. c #76AC74",
"3. c #6EB972",
"4. c #77B875",
"5. c #4DC14E",
"6. c #4AC454",
"7. c #54C454",
"8. c #59C659",
"9. c #5DC45C",
"0. c #66C55C",
"q. c #64CA5B",
"w. c #6FCC5E",
"e. c #5DC463",
"r. c #56CB66",
"t. c #5BCB63",
"y. c #64C364",
"u. c #6BC564",
"i. c #63C865",
"p. c #6CCC64",
"a. c #6CC46C",
"s. c #65CD6C",
"d. c #6CCC6B",
"f. c #75C769",
"g. c #74CC6B",
"h. c #7BCC6D",
"j. c #69D166",
"k. c #6CD06B",
"l. c #75D167",
"z. c #73D06C",
"x. c #7BD16D",
"c. c #6CCD73",
"v. c #6ACA75",
"b. c #79C476",
"n. c #75CC74",
"m. c #7ACC72",
"M. c #75CD7B",
"N. c #7BCB7C",
"B. c #6CD074",
"V. c #75D073",
"C. c #7BD174",
"Z. c #74D07C",
"A. c #7BD27C",
"S. c #83AE7B",
"D. c #84BB7C",
"F. c #86C97A",
"G. c #82CC7B",
"H. c #87D172",
"J. c #84D275",
"K. c #84D27D",
"L. c #8AD47D",
"P. c #7FB881",
"I. c #7ACB82",
"U. c #75D080",
"Y. c #7CD083",
"T. c #88B388",
"R. c #88B888",
"E. c #97B996",
"W. c #84CC83",
"Q. c #88C788",
"!. c #8CCC8B",
"~. c #92C48D",
"^. c #92CB88",
"/. c #83D183",
"(. c #8BD384",
"). c #84D18A",
"_. c #8CD28C",
"`. c #8CD88C",
"'. c #92D485",
"]. c #93D38C",
"[. c #9AD48D",
"{. c #8BCA92",
"}. c #94C493",
"|. c #95CC93",
" X c #9BCD94",
".X c #97C898",
"XX c #9DCC9B",
"oX c #87D391",
"OX c #8CD292",
"+X c #94D394",
"@X c #9BD495",
"#X c #9AD997",
"$X c #95D39A",
"%X c #9CD49C",
"&X c #A2C89C",
"*X c #A6D79A",
"=X c #A3D49C",
"-X c #9ECCA1",
";X c #9DD4A1",
":X c #9FD9A9",
">X c #A7C6A5",
",X c #A4CCA3",
"<X c #B2CCAB",
"1X c #A4D4A4",
"2X c #ABD6A4",
"3X c #A5D8A5",
"4X c #A5D4AA",
"5X c #ACD5AB",
"6X c #ABD9AB",
"7X c #B2D6AD",
"8X c #B3D8AB",
"9X c #AECDB1",
"0X c #B3CBB3",
"qX c #ADD5B1",
"wX c #B4D6B3",
"eX c #B9D6B5",
"rX c #B5D9B5",
"tX c #BAD9B5",
"yX c #B6D6B9",
"uX c #BBD6BB",
"iX c #BDD9BB",
"pX c #C1D7BE",
"aX c #C1D8BD",
"sX c #BFD6C1",
"dX c #BFD8C1",
"fX c #C4D7C3",
"gX c #C9D7C6",
"hX c #C4D8C3",
"jX c #C9D8C6",
"kX c #C7D7C8",
"lX c #CBD7CB",
"zX c #C7D9CA",
"xX c #CDD8CC",
"cX c #D0D8CF",
"vX c #CED8D0",
"bX c #D2D7D2",
"nX c #D4D8D3",
"mX c #D9D9D9",
/* pixels */
"+XV.i.K.g.p.} c #.eXmX#.- $ $ i <X@XK.5X7XgXjXd A X.y.XXyXqX1XfX1XkXnXkX,.Q.<XkXnXmXmXnXnXqX5X;X1X#XwXsXyX$X3XOXc._.wXsX$X6.Z Z ",
"OXn.C.yXjXhX2X] #.eXaXx $ + 1 c ,XK.8.m.eXxXjX1.i q K 3.4XqXXXrXW.wXfXfXkXuXdX5XkXxXlXlXvX1XY.5XyX1X4X1X+X/.hX#X$XW.=.=.| y # L ",
"Q.@._.lXmXmXcX X<.&X*X= $ $ i { XXs.) R ,XvXlXyX_.N.).qXuXlXhXiX;X6XuX).%XuXuXiXlXhXsXkXlX4XY.Z.;XqX_.j.8.k.aXaXwXE , , ; o X K ",
".X>.N.nXmXcXtX8X[.^.8Xw < i ] Q.].a.n l &XmXhXtX%XZ.M.|.1XrX|.T.<X4XuX3XwXwXsXuXsXwXwXlXkX$Xs.M.| Q.uX$Xk.+XhX2Xa.7 X X X X X N ",
"OX$X;XuX!.-.] D.|.eXF.F H 8.K.pX+X,X}.,XlXR.f f  .).,.M._.K.$.] D.7XuXsXvXwXyXyXuXqXuXnXyXU.X.| z 9 @.5XuXlXpX-.8 O X X X . o P ",
"2XM.[ ( S F g.+.,.pX+X8.J.'.2XfXqXfXnXnXR.j : > D 6.d.@X=X_.J.@X2X5X5X7XsXfXyXrX5X$XkXnX4Xr.L y g & * ] uX%Xb.0 # # o X .   f a.",
"-.W.h u X.k 9.+.W @XiX#XwX}.l ^ wXuXiXhX*.t : : Z { 1XrX5X=X@X*X[.1X2X2XkXxXwXqXY.+XyXvXqXr.N L ! > # C wXtXK.` 0 : 0 u : w b.:.",
"> y.z * A s B F B ,.hXnXlX;.n Z N.Z.@XXX| u * & 9 W.kXuX7XuXpX8X=XuX7X'.5XkXfX@X).4XlXbXqXI.L :.`.7.B u.hXxXeX[.x.,.O.k.d.(.L.f ",
"C d.e   + u 1 8 0 G 5XfX@X).n.V.OXX.k.#X-.H V d >.C.=XpXcXnXpX2X@XeX8Xh.K.7XgXkX4XeXmXlX4XOXy.W.8.:.h. XE.[.pXpX2XtX5X7X~./ V # ",
"s u.f X   . . X o i  XtX5XqX$X;X+XI 7.+XrX#XN.{ `.K. XeXgXnX<X%.L.aXjXJ.x.%XpXnXxXkXvXqXwX5XV.+X(.7XeX-.#.[.aXaXpXjXxX~.l F G 1 ",
"= ;...% . . X X X 0 &XaXvXrX#XlXb h ' b.aXhXK.A { m.H.*XpXpXD.Q L.T <X=Xx.C.%XfXmXxXxXyXiXlX+Xz.=X2XH.#.H.%.[.*XuX*XpXF.+.'.'.G ",
"q R.n.t X X X X o y &X2X1X_.s.;X- # L {.jX%X( u i $.h.H.[.pX#.#.*Xv w  Xl.q./.6XxXmXxX4XwXlX%X(.+X@XeX*X$.H H.*XgX8X7X@X=XaXtX<.",
"..uX3XX.: X X z ....1X-.' c.s.%X-.K e.3X/.a.k l v }.2X7X'.L.8XhX*XQ 0 ;.p.{ p.].uXvXpX.X;XhXuX4X2X7XjX[.H.l.L.8XgXeX].2XeXcXgXeX",
"1XhXkXW...7 b 6X%Xu._ 9 h O.+XOXyX3XyXqX%X;X}.wXcXmXfX].p.h.uXjX[.%.Q |.0.N ) V.7XfXuX7XrXrXfXpX=XwXlX=X&X[.[.8X&.S.=XC.=XuXyX7X",
"7.;XfX%XN.4.%X^.{ y y : t { d.^ R.4XyX;X5X_.qXxXkXpX5X=Xx.K.uXhX8X*Xg.5Xq.` +.W.iXvXsXfXrXwXeXkXuX&XXXD.F Q $.L.>XR.7Xf. .R.1X:.",
").3.b./.O.C 0 w : + @ X @ 9 9 , >.oXs.X.+X).7XrXE.-. .0X@X].pXhX2X'.@X=XG._.(.+X5XmXkXuX4X(.n.kX|.{ .. .< - i #.gXnX=X8.y k Q.a.",
"-.I @.3XyX>X*.& .   o = 1 t 3 o._.L h R.bXbX4X4X| M R.mXkX5X1X1Xx.W.iXuXiXhXb.j  .iX=X(.$.H W.xXwXG.=X4Xs 7 w ^.xXgX(._ a ` M.;X",
"r.Y.qXqX1XsXa.u H Q Q G _ s & H `.[ }.mXmXbXdXrXe.| yXnXcX+X_ ` ( N.uXeXfXiXV.C G @XaX~.C _ M.8XeX@XpXfX2XD.2.8X@X[.$X9.O.$XqX_.",
"wXbXmXvXrXqXW 8 +.m.h.l.0.F 0 S 7._.;XkXvXuX;X).7.` XXuXiX!.u F `.7X=X5X1X.._ G i *XjXS.l } V.+XeXnXxXgX=X8XvX=Xq.7.(._.OXlXOXOX",
"bXmXmXbXkX7Xu R [.2XeXL.q.H J H 3 wX5X%XqX$XZ.r.6.a.;XI.@.W.S O.=X@XA.(.|. .k ] 1 J.2XF u } h.@XpXbXpXgX7X=XuX5XC.) O.+X4XyXo.:.",
"rXnXnXkXgX_.s m.7XgXpX'.w.+.G t u yX1X[ >.| L I h ! e.t E %X=.P <. X/.C./.|.m.G.z %.7X/ G 0.H.=XgXcXaXpX*XH. X'.@Xi.{ ;XI.s.P { ",
"+X4XkXuX@XW V u.=XeXgX*X[.=X&X4.}.lX,Xm Z 6 5 n n ! | a O.4Xr.=.}.7X%X(.*XhX%X0...c [.D.} h.L.2XjXcXpX8XH.0.H.'.=XwX$XiX1XOXn.I.",
"5X1XuX[.F u } q.L.*X XF.$.L.7XgXjXxXkXW.Z.| =.X.P *.c.[ N.A.r.3.eXcXpX7X<.] H.w.w #.*X2XH.L.*X8XgXaXgXcX'.^.F  X1XxXeXwXyXiXzXuX",
"fXlXuXwXb.$.'.8X8XL.H.w.$.'.5X=XuXaXnX5X+X%XuXU.P ^ +XY.qX/.L r 4.hXmX}.; 0 M c 0 h.aXgX7X[.eXgXgXaX8X2XH.&XF F C.@X@.3.@XN.;XiX",
"Q.wX1XfXvX5X5XwXeX*X'.'.C.[.^ s ~.kXnX4X=.I U.Y.-X:XsXsXzX:XP.b ,XwXhXP.v f z ,.#.L.*X7XkXaXpX<X/ *X*XH.%./ - 0 F.'.< 8 M h [ @.",
"a O.M.qXbX5XK.'. X2./ #.<.<.~ >XnX0XE.!.I L I.sXY.U.qXsX9X:XsX:XwX%X$XqXiXhXtX%X X&X@Xg.[.pXnX<Xc Q H.*X Xi - ~ 7X .o # X O * * ",
"6 E N.4XxXyX_.1XH.H i s } |.fXmXE.v 5 v.P.U.dXvXU.U U.sX:X:XY.Y.5X/._.$X%XhXfXK.` $.[.p.l.(.7XeXH.H.[.aXL.< w [.eXS.S.z , @ + @ ",
"@ * R Y.rXeX_.%XJ.0...$.@X1X4X_.7.Z > -.:XK ! P.:XU.I.:X9XY.Y.9X+Xt./.c.OX3XuX4X7.f.@X(.(.].uXrXH.L.aXpXT + v / D.fXlXW.:.W & o ",
"& % y s.1XsX@Xn.=X=X1XwXK.j./.OX).t.n K | * @ 5 :XU.I.sX:X9XzX9X).r.s.OX6.a ! -XA.%X5XuXwX2X7X X&X[.F.e < T 4.G d..XkXsXwX3.> @ ",
"X.| 6 =.;XlX1X` k f.7XrXV.;X5XwXuX+XX.r a 5 , , :XP.r.9XU.U.:X9XOXZ.=.Y.,.5 y 7.1X6XfXXX$.4.&.>XpX2XH.S.>.(.<..._.I.=.v.M.OX=.n ",
"I.;XU X.%XuX1X).M.5XuX2XA.@X4XY.oX6Xa.r L U U U I.:XI.9Xr.U.9XsXsXzXsX{.1XT.R.5X5X2.] S Z M 8 0 *XL.H.*X6XwXb.B a 5 4 r X.:XsXs.",
"4X;XU.I.).wXqX5XkXiX%X+X1X1X-.Z X.k.' g Y.$XU.r.U.I.9XzX:X-XyX:X;XyXuXiX1.-XfXfX%X3 u N P _ G F L.0.{ H Q 6X].:.D h 9 y e.4XsXqX",
"bXsXkXsXqXkXrX;XI.o.) q./.6X&.h h n h 3.yXyXOXU.Y.r.c.qX4XU.4X;Xr.s.$XI.^ E.sXsX$X) N [ 7.M.`.(.|.A 0 = > ;XI.I.I.8.U U.{.yXsXxX",
"yXyXlXkXbXyXe.| u p Z 8.+XwXR.A > % 4  .yXsXwX4X:X=.7.;XsX:XsXY.v.4X:Xr.U E.mXsX=.=.N.s.M.#XyXuXE.* # X # W.&.j W.OX$XsXlX:XY.;X",
"r.fXyXyXkX4XO.N , h 5.V.=X2XwX;X{.P.*.| 4X$X5XfX>.Z r.OXsXmXqXY.{.sXsXU.I P.vXdXoXqX$XsXlXnXmXhXE.< + & O e.^ @ > 4 7 L 1.I U X.",
"E yX%X%XyXfX_.X.N I t./.%XuXlXmXzX:X$X4X*. .%X3Xr.v.v.-XvXbXqXY.Y.dXdXU.U R.sX$X4X$X4XkXmXnXlXnXE.2 M S * =.^   . X o a r & = 5 ",
"Y 4X4X/.4XxXiX;XB.c.Y.+XqX1XkXhX$Xc.6.Y.W o.$XM.9X-.Z 6.sXvX4X4X:X:X;XU.r.:XsX:X;X@.$XkXnXuX1X4XR., & y Z v.1.> o ; r a L % @ * ",
"5X;Xe.e./.wX1XqXqX4X/./.4.L 1.}.Y.r.5.c.!._.fXfX.X; ; ^ uXlXyXqX-X;Xv.6.| -XoX9X;Xa X.).wXuX5XrXR.k a & ` {.3.b.K * a h h % @ &.",
"iX:.n R.d.3X).$X4XZ.s.c.a * a E v.!.c.+X3X5XhXlX.XR L E.$XoXqXsX*.P Z a Y ).v.;X+X, t L =./.1XfXwX^ X.h Q.| L ^ 1.K ; u 6 @ % 4X",
"n.d ; P.=.e.;XrXqXOXr.| C 5 A 9.N.$X3X>.Y { =X1XuX4X;X$Xr.X.v.zX-XK r 5 ^ `.X.s.#X .9 ; u ' /.1XsX3.Z =.;Xy.;X$.N 3.| a * X o -X",
"{ 2 k n.uXd.s./.OXqXc.Z [ P e.$X4X;X8.9.k.u.K.q.'.d.k.O.n n ,.qXsXzX$XL a.5X0.N |.M.[ D a h c.M..Xv.6.wX1XuXmXuXM.' +X$XQ.f 4 !.",
"Q B g.~.3.u./.5.8.).4X!.6.e.$X%X5XA.{ b.f.@X} G k d [ S u C t.U.sXsXI.:XiXkXM.A 4.5X#XA.t.[ [ P =.).qX5X( ^ xXmXyXsX/.M.5Xb.` %X",
"y f.}.e u p.y.( { V.$X4XwX_./.g.y.7.`.W.] D.c 1 8 y | y.v.c.Q.R.9X9XU.s.;XjX6XB.P XXlXkX;XA.X.9 b iXiX_.| 8 ;.aXhX4XhXwXwXiX].|.",
"S.h.Q V 0.'.+X%X3X7XyXkXvXkX$Xu.D 0.%Xb.i ;.F l W $.@X7X~ 1.^ a f P.:XU.OXyXmXY.I ' #XbXfX5XK.<.0XmX5X+Xd.H l / T./ ;.4.].5XwXeX",
"L.h.K.@X8XxXgXeXiXyXuXnXmXmXuX%XQ.k.=X&X#.F.^.'.[.3X=X^ i  .' L 6 r 9XI.U.oX{.OX[ A d./.5X4X].%XhXuXlXuX(.l...H _ ] { g.#XtXxXaX",
"pXaXcXcXfX].k.m.m._.qXnXmXgX7X%XtXrXlXpX X=X8XgXuX@X..k o.).1XM.P , -X$XY.$Xv.3.c.m ) z.wX(.m.eX%Xk.$XrXfXeX'.l.'.@XK.~ x v ;.gX",
"pXxXtX[.(.l.q.j.V._.wXnXvXwX$X_.#X2Xh.h.H.*XgXeX2Xm.:.G.).OXfX;XY.U.sXqX-XY r g ,.:.{ A.wX=XeX1X<.A 9.].<XmXaX8X8X$.s 8 y c ] <X",
"*XeXx.w.(.J.V.A.W.$XuXmXvX2X@X].(.1X@X^.^.w.&X7X@XV.3X#Xk.i.I.=.r.K sXsX>X; & y { !.%XqXiXT.@XaX;.2 B +.L.2XxXmXD.$.F } $.h.'.pX",
"[.pXh.w.(.]._._.%X4XpXmXxX5X@X=X[.*XgX2XpX*X<XcX8X8XeX^.O.J P u g B wX$X%X^ R { 8.G.;.&XtX#.aXcX}.f 1 1 G H.aXbX8XaXH.L.*XtXgXcX",
"*X7XJ.@X%X1X2X;X5XiXfXmXvXkX5X2X*XaXxX8XpXcXpXpXeXpXnXgX>XR.^ % o 9 0X`.Z.d.s.q.i.'.@XjX*XS.E.aX6XF # # l H.8XaX*XaXeXtXgXcX8X8X",
"XX6Xg.<.4XwXuXsXsXvXvXkXgXeX2X*XaXnXmXxXmXnXgXpXpXuX*XpXjXtX0XR.-.T.lX1X/.i.d.y.m.p.H.aX;.0 w ~ x < # $ F H.*X2XH.8XgXgXaX8XL.8X",
"@XtXC.( :.qXlXbXnXmXnXfXiX5X*X7XnXnXnXmXmXmXcXpXgXgX8XeXfXeX1X$X1X.Xn.+.q.K.=X1X2X8.<.F. X;.i < = $ # = F #.L.aXL.*XaXmXmXmX<X*X",
"gXf.!.$X+X;XrXvXkXcXnXkXuX8X7XxXgXxXmXmXxXgXcXbXgXcXeX(.G.5X+XG.A.>.A H } g.2XiX5XH $.'.7XmX@Xj $ $ # - F %.[.aXpX8XH.F.[.0.H.aX",
"+XN  .6XuXqXfX!.d.5.M.+XeXwXgXfXaXgXcXmXmXgXmXxX8X8XuXpXW.@X7XN.9.b.F = l 8.C.6XeXH 4.5XiXnXbXT = : s ] } H.eXcX2Xw.G { T H.H.pX",
"` u a.+X;X4XkXyX$XN.n.K.pXuXpX7XeXhXxXnXbXmXmX7XL.(.3X#X2X_.rXOXA._.+.: o V K.8XeX$. XpXeXeXuX&XM o.J.@X[.2XgXxX[.$.F F F G.pX8X",
", f /./.e.;X4X4XhX7X%X].7XeX%X2XtX<XaXgXxXbXcX2X0.$.=X+Xn.uXfXsXpXD.R 1 : 8 #.=X7X=XeXeX+X1X'.'.L.2X5X@X2XxXgXgX2XH.+.0...~.fXf.",
"* v hX3.Z o._.A.+X_.2X2XeX^.@X%X2XeXeXfXnXnXkX@X_ u ^ wX%XnXxXvXnX-.s H F 1 0 4.7XJ.h.2X^...{ _ ~.cXpX].=XgXxXkX<X*X#XK.K.yX6XE ",
"* q Y 4 t D _.1X#X4XeXpXpX7XeX'.].6XeXhXpXkXgX=XG , t ,.uXnX2X7XwX=Xu.g.w.<.%.^.*X$.m.@XJ.( H V T tXjXwXeXmXcXxXpX8XwX+X].4.+Xg ",
"* * * : Y ,XeX+X=X XeXxXxXpXkXeX/.+X7XeXiXgXgXiXD y > ' 4XuX%XM.p.(.uXpXlX2X0.[.gXL.=X=XF.+.9 : f ,XnXgXiXmXnXmXmXgX=X[ O.). .* ",
"4 f Y b.6X6X+XK.z.[ 2XcXgX*X=XwX*X@X2XeXvXfXkXwXH > 6 ' %XvX_.{ i u >XeXfX*Xf.*XpX=X@XeX1XK.u : 8 ^ hXvXnXmXxXcXcXnXpXwX}.}.U.5 ",
"P.qXqXlXkX5X=X@XL.w. XaX*X*XH.%...D.aXpXmXfX#Xi...^ o.B.qXlXOX>.l h 4.%X^.$.f.2XeX1X2XgXfX+XE > 8 / eXnXbXkXkXkXrXuXkXwXhXkXOXL ",
"kXkXvXmXgXwX2X=X[.#.D.D.#.*X^.Q./ F pXnXnXrX+Xi.A.%X6XOXqXzXsX5XN.V.=X0...M T <X7X=XeXmXxX/.P j T.8XgXgXuX4XfXuX%X1XyXkXyXoX|.r.",
"4.wXmXmXmXgX7X[.#.Q F.w 8 %.[.aXuX~.].fXbX4X2XuX;XuXyXsXyXyXqX:.4.sXcX,.{ s s &XpXyXkXmXxX%Xy.>XiXeX8XwXrXfXuX1XW.).yXmXsX1XOX$X",
"Y v.3X1X=X7X2X^.G H.pXw $ < -. XeX2X].eXuX7X1XA.OX5X4X4XqX;XqX~.1.xXmXpX9.G A |.mXnXmXmXnXxX5XrX5X=X1XwX4X3X4X_.s.Y.yXmXsX).r.N."
};
