/* XPM */
static char *cfa7c14250554853b13e4080d923583a[] = {
/* columns rows colors chars-per-pixel */
"64 64 86 1 ",
"  c #1C1A16",
". c #1C1E18",
"X c #201F17",
"o c #211F1D",
"O c #1E221C",
"+ c #22241D",
"@ c #23291E",
"# c #242622",
"$ c #282624",
"% c #252B24",
"& c #282D26",
"* c #292E29",
"= c #253225",
"- c #283126",
"; c #27332B",
": c #2B352C",
"> c #273A2D",
", c #2B392D",
"< c #30362E",
"1 c #323B2F",
"2 c #2F3730",
"3 c #2D3D32",
"4 c #313C32",
"5 c #2D4135",
"6 c #2F4639",
"7 c #2E4A3B",
"8 c #324435",
"9 c #364A36",
"0 c #344539",
"q c #334C3C",
"w c #3A4C3C",
"e c #34513E",
"r c #3B523F",
"t c #2F4B40",
"y c #334E40",
"u c #3B4D42",
"i c #2F5240",
"p c #355443",
"a c #395545",
"s c #365946",
"d c #3A5A46",
"f c #365749",
"g c #3A5649",
"h c #365A49",
"j c #3C5D4B",
"k c #3E5F51",
"l c #3F6247",
"z c #3E614D",
"x c #3E6251",
"c c #3D6955",
"v c #425543",
"b c #415D46",
"n c #415E4C",
"m c #415F51",
"M c #42634D",
"N c #49634D",
"B c #44684E",
"V c #486A4F",
"C c #436452",
"Z c #496653",
"A c #456954",
"S c #496B55",
"D c #466658",
"F c #486758",
"G c #466B59",
"H c #4A6C5A",
"J c #506453",
"K c #516F55",
"L c #506F5B",
"P c #477057",
"I c #4B7056",
"U c #46715A",
"Y c #4D725C",
"T c #4D785E",
"R c #517256",
"E c #51735C",
"W c #53795E",
"Q c #4C6F61",
"! c #4E7362",
"~ c #527561",
"^ c #547A64",
"/ c #597C61",
"( c #5B8165",
") c #5B846B",
"_ c #608668",
"` c #628869",
/* pixels */
"djajMnjqCGzzhxzzjzxCzZBCCzzsCSGBBHZHSMBdWSGajHCjtsGHzCxjGCCxpjCj",
"jjjCCjjqxGCMxAxzCxGxxCCMzzjjMBZMZSBIVMBdHGAjmCfhgjHjgjkCGDGjaGHj",
"GCCMjMsazCAAzAGxCDzxAAAAAzMzjVCZSSSRMzZaqjjMMjjjjADjCFjxCjGmCGkj",
"djmnjzjaCzjxACxAMCMzAMzEHH^jjzCL~HzMMMMMBSMjjjdjjCjCCjsjjjjCmxnn",
"djznnMjajCHSAMMBBjzMzCGHH~)ACjVHEHSjMMldWSjzddnCjjdjjMYMCjCjjjzj",
"jnjjnzjpGHBSZzMAZBMMMzMzGG~ZjSGpG^SZSVMdVMMjMMBljjjjZHMzjjWSmkfj",
"jMjzddjgDCMCMBVBMAMHYHACGjGMA~~AxGSSABBjVjjdjlzMZnCCjjhjjjHExjCj",
"zjMZZCpyCjBMzVMMBMHHH!HACjCGCH~HzHnMMNSbIMMjMMVMCjMMjhzjjjHHjkdj",
"MCZSFAndYxnnMBMBMSHHHZGzCCmHH!AMMHSSnjMsSMjMNBMjjzMCzzsjMdZGjjCj",
"MZjnjjjqHCMjnMGZBjCHHHHCCjzHZHCCHYLYCjZeRYjbNMZMMMMCbMdjjjCApjCH",
"AmjjnjjaIHZGAZSGSMlVSSHGDkCACHHACLSHLZHCMRdrMMNMjMBMMjndjkCHpjMj",
"CnnjajjpYGMZSHSMSSAHMMACDxAjMZMMjBHHHZnpHWdMjMMzMMMBMjMCACCAajjj",
"jjjajMnqBMBAZBSHRYYSMBABjCUzzAMMMmZZSZCyRVMMMdlNZHSBAzjMdGHBezzz",
"AngnjjmaZSSAK~YWWISP`RIHGxAsMAMMMCnCGSHNRVVVMRTWISBSYA^HAATladjM",
"jbjjzddeq858rv,,,==-w8::;:,uzMMMzMBSLHHa<-&@+-@@%#++O%1;,5,:adxd",
"jjndddje5555   +++++ O.2qegjzZMBBMMBGHZZnnq,:-1,:>2>;&%&8ppsjdjz",
"jdjdddszxjzz57qpppy7qq5pzjzCCHABMlBABMMMzMnpjsMMspjsiygfGxxdCCzj",
"jnjdrsszjgCGedpapjggpi7azjkjnzMNMMVAZNZMMMbajzjCjjjjjjjkACZnCjCh",
"jbjMjsdzCjzCejjnjjjDjpqpjjdjbzjMSNMBZZSMMMBCzjzjzzzjjjMsjnCAjjjC",
"MjjZCZZGHDzCgnzCCjjmjxyazjjjzjMMzMABMzdMjMBAAHCCzzzkjjMdnjxjjnkj",
"jaajZZCkjmjGCDDCGGCjkhpqdjjjjMMMjMMbBBjjMVMbIIxxzjzzzMzdBzghgdjd",
"pajjjjkxjjkYkDCAAGCzjCjjMjjdjMMAMjnlMbbMbMNM/UCxAClAxzjsdjpdddad",
"CCmCmDADCx^~fDxACmHjjkjgMdddzMZ~HSMMbMMMMMMMYUGCxxxMCzzajzdjajjj",
"CCDmCmmjCHEHmCjCjjZHffpaHdzlMMHZYSjjdMMMrMMdzCzxCMUAzxPszGjjjdpd",
"mmCkCCkkxjDYkDCZAmgCCjagSjzdMMMMCMnMjbnjdnNjFZmzCzxMGAGzMzjjjjzj",
"nCxkkjkCGH^^kDjjFmjjMjjaHjMjjMMMMzbMMMdMCjBjQHcDGjCjCMzpCGhjxCjk",
"jhjCmZFAHC!~jnCkfkDmCMdpYzdMMbBMjbBMMMMMVMMMQACknjCCjzzpjGjsjpjC",
"zCjkCCkCGHWHfgCHCAHCjCGMYCjjdzMMMMMjbMMMMBMdSHCkjjjxzjCdMHjzjjjm",
"xcAHUAAHGT^YpjjkFQGHCzZMIAABzAKHVAAYSMMBMAxejGCzGzzzzMMpz!^UAHAc",
"00avq7vZ0apwdZCnjkzCMzMqww99wabpeqq8wM>8888eHCjCZCjMzxGCy505p055",
"-&%@%*&#,3:3ajCzjgnjzzj78582:*O*O-%&%+@@>>3jACCCzAzjzZAjq5q1%%-%",
"AzjdjMjaajCMjjxZHjnCMjjzlA^CjgfmjxDCggjahGDxCHCzxxCjzjAzGGYMEHCd",
"ZSBSBMzajjznjGzjpjxCZnnCMC!xpkCmzjdajjjqjxC!YQCcGHAHHMAAAAHCQSCM",
"HLSYBMAdBZMjdapsgjjCjnjnCkAfgCCCjjjjjdjqjGCCCHHxGjH!GGZMzjjnAMzC",
"YEY^HBAnadzjMnjhjdjAZdjjjjAjpkMmzjnMjDCmCCGjzG!GjjjxzZAAAzBzZHGj",
"~YCZCMZZMSBjjjjjjjHCjjjkCmAzaznjsdjjmADCGxGxjG!GSjMjBSBSMzYjjHGE",
"HGMSSZzzEEjnjdnzSZAGHjmCmjAjpMxjnjjjjjnjkxxCxjx!CCGCMHHzzxWHdBIS",
"SGSBMHZMLYCCzCHMGCjMmjjnjMECjMjMaCHFMnmfGjDHQxjHmCDAxQ!HzMESjABM",
"HAHZjMZjHZgjfkjCQHSjgjjjnnABgjAjADFQHmkgGCCDHCzGjCxjAFQH!xYBMAZM",
"AAGZMS~ZBGjCjjaGHHCjjjnmnjUAajnjACFFCjjgxGGCCkxGjzjMjAxGChANMMBA",
"MHHAZCZjASjjCCjjkjppjjjpjjMAajnnjHCZFCmfGDHHCCjCjjjnjldzjMSHMBAZ",
"SANBCCMjMWjMCCjggfdMzjfjjnASjCCkjnCFZZCyADGHAGjxzzCjjxBzCmHSMlAS",
"BSSSZnnneHjjkmkjjpdSMzCjjgBUfjACCjjjnjCaAxjCSSzACxCMjSAACjHSZHZM",
"MNSzzndjM^jdjjjfshCMSYAhpjzAjCknznjjndjyACjjMAAMBABMBZCGjsICGYH~",
"MZjMZzzjaSMzdhnjnSZCLSCjjlPCpzzzjdnnjjj6MxZSMMSBSIGSZSSHAx~jCGE^",
"dznjzlMZnjAjAIzAHHUHEIIHAATjpMMljjgnjjjpAABMRWIHRIBA_WVZGZBx!^Y~",
"jMBBMMlZaw8,89%--%*%%&23353:pCjjjjdnCAmq005,vw-<%%%@,:@*;--yHHHH",
"MBBMMBMzMar9$%,&+%=3::::qrpkjjljMldnjmAn9qa5o#%:&#;&#*#8gagjCGDk",
"MMBSBMZMVVzcqjapappxpjjfGCAzzjjdkmgjCzGACzzxqdpppppjggqpADDCkkDC",
"CBMBSnMMMMZAqdqadjjhipppjjjlsddsjnnCCjzzjjCCgxpaphpfkxyuCAggkjkG",
"CBNBSHBMMNBB7dxMzdjzjhCdjdshsdpddpjxjpjjxjxCyjjCCjjjpjyajkCmCQjf",
"ZABzMBMbMMMjpjzxzdCCjzzsdjhdddadjjjhjGCCjjCCgjzjjzjjahypCfjkxjCx",
"CAMjZZMMMMlddzzCAxjzjCMaAzsjpsjdgdjCzshjnCzMjCjhjxzjjhaeCfhjhxCx",
"jnMMBBnnVABdajzCzCzMzzzjMjpsdjjdgaMjpjjzCjzSgzzCzCzjzjadxjjsjxjh",
"MZMbMbnjdMMdszjjzCGAxjzszjajdddddajgjjdMjjEApZjCMCGjjCpejaddddsp",
"jnzGHHFnjzMBjzjzzjzCzzAsdAjdddddjjjCkajMMASAjxjzCCzBjxjaCdjjjjjn",
"jjkjkDDxAjMIpzMCHjjMGMGddzhjjjjjjnjjCxkxGCCIpxCCZxjzzMdaAjjjzjsj",
"CjjDxDkDzjYYpjMddCCjCAzszGjnjjjgnMjjkjjxGA!YajnjjjjznzdyAjzjdjzp",
"xjmQDCGCxzHHfjjzjjjjzjZaj^kDxpmjjjkzmmCCCzBHjnjjjjjjjAAjIzdjbjjj",
"kCxhfkfCCAUSpjjjMzzjCCCsaHCjChAHCGDjkZACAAISfjjCjzCjjCAjIMjhddjC",
"xxcD!xYGG^)zjzjMnzjjjzChj!!GSSCU!!YAGPUIG^)^pjzjjCCAMCz7IIHAAHAM",
"2>6u33v;40w0CCMCMMZMzCxjquqyaa>,38q83>8w,yq3rzCmjjzjxzGp5qvpjZ8p",
">;24;*$,p05aBjMMMSjhzCxl05q,++%:;-%-,:&O;530pjjAnjMjjCxGgw5;o.+&",
"AZMCxHpyCCHMMzzAAzzjZMGMPPGGBABlAMMMGczr7jCAxxhzCCdCSCjZQY(Mqppp"
};
