/* XPM */
static char *result[] = {
/* columns rows colors chars-per-pixel */
"64 64 72 1 ",
"  c #867766",
". c #897A66",
"X c #8E7F6E",
"o c #8F8070",
"O c #948473",
"+ c #988776",
"@ c #978875",
"# c #9B8A76",
"$ c #978878",
"% c #9C8C7B",
"& c #9F907F",
"* c #A08F7D",
"= c #A2917E",
"- c #9E8E81",
"; c #9F9081",
": c #A18F81",
"> c #A49483",
", c #A99784",
"< c #AA9985",
"1 c #A69689",
"2 c #A99788",
"3 c #A79988",
"4 c #AC9B8B",
"5 c #B09C87",
"6 c #B19E8C",
"7 c #AE9E91",
"8 c #B19F92",
"9 c #B3A28D",
"0 c #B9A58D",
"q c #B3A393",
"w c #B8A690",
"e c #BCAA95",
"r c #B6A799",
"t c #BCAC9B",
"y c #BEAEA0",
"u c #BFB0A1",
"i c #C3AD94",
"p c #C8AF95",
"a c #C2AE9B",
"s c #C5B197",
"d c #C8B197",
"f c #C6B29C",
"g c #CAB59C",
"h c #CEB99E",
"j c #D1B99E",
"k c #C0AFA2",
"l c #C5B4A2",
"z c #CAB6A1",
"x c #CDBAA3",
"c c #C6B7A8",
"v c #C6B8A8",
"b c #CEBDA9",
"n c #D2BEA4",
"m c #D2BFA9",
"M c #D5C1A6",
"N c #D9C2A6",
"B c #D5C3AB",
"V c #D9C6AD",
"C c #DCC8AE",
"Z c #D6C5B1",
"A c #D9C7B1",
"S c #D7C8B2",
"D c #DDCAB3",
"F c #DECDB9",
"G c #E0CAAE",
"H c #E1CDB5",
"J c #E1CEB9",
"K c #E4D0B7",
"L c #E3D1BC",
"P c #E8D3BC",
"I c #E5D4C1",
"U c #E8D7C2",
/* pixels */
"@=<=>3=66;%<><39,*,=<44;;%;443:$%==46<=>,,>>3,,*2,,>=544,64%3%>%",
",CHGCKVCHDVDLGCHHHGGGGKLKDDFCAVt0CCHCHDHHJJDCHCBVmCmCDGCDHHHJLH4",
"<GCGDKJJLDLCCCCDHVHHHDLDLDFZBZBr0DDCDJJDLHJBBDVSSFSDSDAFDACHHHA4",
"9HGKIKLLLDDJDDJHZVnBJDKLKSDDFLDl0HHHLHJDJDJJAHFJJJJJHHDDHJHDCJHq",
"5KUKHUCKDBmVDBDSAVBVDADDDJFDDJJyeDNDDDSKLJFJADHJHJLLJDHBVCNMVHLq",
"9DDKDKDDFMDDBBVbnmVmDZDJJJFVDFFueDDCDDJFDADZVZDDDJJHJJDDDDDDCLDr",
",HCHFDDVSSSLJCDDJJADDzAZSBVSSJCvwBBBmBSVDDJDJJSLIJJJAVVCVSDVBDD4",
"<CCMSVDVCBVSDFKLAHDAmmDBZDSDDFSr,MVbxZVFZSZmSFJBnmmAVDDSVDCDCDF8",
",KDCDNNCVxgfzbbBSZnnzanmmxxFDJSa5CBDVDDSDFDFFFFZJJLJDJJDDHHDVSDr",
"9HnBNjVnMnBBSnDBBSSnBZmZSSDVFDZl9CCCMVJDDDFDIIFZHFDDJDHJJJHDNKHr",
"6VMMBMjhxggxnnmzzzgBDmBSJFADSSxl0NCCVCCDDJIFJIIZSHSSBFDAFHHDHHHt",
"&NBMCCNnDHCDSVAVVCDASSBmmZBFDJSz9SDNNHDFJDJIIJIVVHUJHJFSDSmmBmm4",
",VVNNNVCCCGDHACHHHCADFVVDDmBmMml6SDVLHKKJJJJULDSDDSDDDVZDBCDJHHq",
">KKCCVBMVHCCmVVCnHZASVSSZSDDDBVz6DCCHHDDJJJDJLHHDDDBSNVBBCVDHDDt",
"4GCMMjCCCGDNVBCVSJCSBnJJBVBmmzgr<VCKVDKDAJFDLDHADDBADDCCSBhxMFC8",
"=dh0sngigddiiidzdgjpnngxgw0a00ei,jgghxsgndfxzxggBngnhhhdidgdpdd5",
",4>,%>%3,>>4468:%:,66261,4>,2:68>*,4>224:1287rq8%>45>943*2,,q664",
"GGKNMMBBzzazznmm+AAPPHHJHGJHHLPHPPPHnnBSBFBVBDFb*NCCVBNBVHPLPJPH",
"CCCCAJDBVBBDABmz.mxmnmHnBSLJCVBVDCJZBVSBBSDSHDDzOCnNNCCDDHCSCVDH",
"DCLDHAHSSVmAHJAZ+nnNmmZmmSDASmJZBDDBZBZZDBDDmZJm=NnHHCKDHDVCDVVA",
"ZHBBBDAAZSVnbBBm#BVBnnmmmZBmZSVBZADABzmBFBBZZDDZ=CNSCDSVAVVAVBAH",
"xHHVAJJJDDDSBJDbXBVVAmBmBBAnBVBABJDAmSSmmFBBmmmv*MDNBVNBSVmABBCA",
"HAJHHDHAJDJDDAAB#nNCDnZBmBSZAmmCDDIABSmBAAADmDmboMMBMMMBnmBSASND",
"HHAHSHJJDHHVVDHS%zDVmACmBZnBCVmAFDmDSBDDVSHnSVVxOMMVxBBnBBBBmDDH",
"HGmASDADJHVSAHHA%gNCNVVMnnDBHJZAZZZDDFJmBHJJJJDB&VHGCHNDADDVVHJA",
"HHHVBmmmBVBmABAAODNBCmnVmBVHACDZAADSDZFJJHHVHDHD&BNNDHSCAASBBCHH",
"mGHABVABSxBBBBAn+nDCCjVVBVDCSHJDbHAJZmZmmHHCAVVB#hVDHCCNDCDHnCJH",
"nHHASSBBBmBBmAVBXfndgnmnDDSVSDDFmAHDJJJJDHABmCVSosMMCNmMVVBHJAHB",
"nGHJHJJIJJIAABVxXfnggBgmnmVmnmBDnDAHFJJDJJVVHHACOBCBNMNCHNVVBmVB",
"ZDVJHAADZLHADHAC>NNVMxgpdxgnnmVDnAmmSJIDJHAHCDCC$nBjMnMhBmmnmmnm",
"mnmVBVSABmBVJDVB%nBjxpdgnzagzgznmxbzzxzAHAHJAHHH@nCMVjVNVNNCnVjm",
"nnNnnnnnnjxjBnjC%nmjjnghpggggjnnxmdgbiiZnnjjnnnm%jMjjjCNNVNnnjjn",
"#,=4,4>,>%>+:,4,><,4>,>,&%%34%&%%*,,:>*2225>*2>,,><=,=5,,6,w,,6*",
"<CNNNNmmBBmBDVCCCGPLKHJLKDDFJDMq5HNVCCDGHHDVCHHNBBNGHHHHAHHJJHB4",
"9GCNDHJDHHJINLDDHCDSKNLDDDZDDIBq5NCnAAVJJAHACAnAVmBNJAJJCVCJHJH4",
"5HCHHDJJJHJJFDDDHDKFDDSFDFDDFFbt5nVHACBSSmnmBmCDBDAAHHVmASnJJHHr",
"*MNMznnBDDSVDVDZZDSHSBzBbfbizxx3*ezmzBmBSBDSDSmVSmmHAmZZMBnmmmV2",
"=CNSmnmBSBmSBnDFJDVBDBxzfzxbfmbw>gzmngmmBADBDHHSmZmmmAmDDVVmnmB4",
"<CCCZBZBDFZCFDHJJHJHBBMSVBBBVVMr=xnxZxmBmSSSJVSSHDHAHAJJDDACSDA8",
"4JKDHHAJJBJAJJJJLJJAfMVZDMBCVDClqBSVVmSDBmSBBBDDnZJFAHJADDHDADJq",
"=NDKCDCKJDADDDBJDJZSxzBVJSmDCJDleDVDNDDDBSSDZFZDHJFJHJJJJDDHDHJr",
"<CVVDDDKDVSVBDDFBnBmmSFDJZCBZABa0NCCCCDDNJDDFJVDAZIFDAJJIJJHDDJq",
"<DHCDCDDJSDDSBJBZmmbbDFFDZDnBDBt4CBVDNNDSSMBDJFDDJDFJJJIFJDDBHFr",
"6SCDDDCCFBBBSDHmmmAJJISDZbxnmxnk<hBMBVhMBBVVBDZbjZBZFDSJFDSDDSDy",
"6LKKKKHHDBVVAVVSSDSJFDSDACAmZHDz4VBCVBMHVBnbbfffglzkzzzxxzBxgxDk",
"wLLKLLHHVVSVAAAVVDFDBSBDAVDmADSz9MVCnBhnMMnVZVBBmZHmSSSnBxBmDZDk",
"qUKKKCDHMhMnVmACVmmBDJSBnnBBHBBt=MbdghzhnBVSSBVBmmmVVCKDDLLHJBDk",
"4xhggggdxifgdgzzBxnnggjnxzagzddw5dsidsseggsefgepmmgzgbgfihgdjgdw",
"O#%#>:4,47887r84%56q2622:84642>>=>**:,:,11::111-O*2,;;1;>48>>>;@",
"hjhgnzVJUJJIJJID,HJLCHHnHACNNDAnjNGGHnGVSmDHDADm*VJADSVBMhgBbgdx",
"SDVVmVJJFJIJIIZm>HHHHVDSnmnznBVnGHHBHAVmZZmDFmZy+xSBBZZZVDZBzxnM",
"VZmBmSZFJJIIIIIZ$DJHDDSDDDxZmmBmmHnVHnVZACZDAFDcObmmBZZBSZVSBBBZ",
"DSJSAmJFDFIDDJIm3FLIDBJJJJFFVlxzBZnHHmADVVHZnBBy ibfBBZbBVzfubVB",
"FIFZFASZJDJDZFDF3JLJSSHJFJJFFSBBxxzaffjxxxxmmmBb$ZVFZbSBSSSSSJDH",
"HJJZZSDJHmJSDFFF-SIJAHJAVHKJDSVSHmxxmmmmmDAnAZDm+MSFSSDVBBDVLDKL",
"DIIFmSAAAZDZFFFF>AIHmJPJDJDJJDDVAHAHmxzxxSHADIID3VLKDIKIILDJDLFF",
"JJJmbZBmmzBZABDA+mJHVgnmSBBBmmZBAZAZmDDDHJJFJJIJ3CULIJJPDDKFLLJJ",
"IJJJAJDHVAZSJJJD:NHHJCHHHLAJVFDJDJZJVHDJJJJFDJIJ>CHNHVHHLDKLDIJJ",
"JJVJJIIJJJHJJJJD%mVCCNGAHHLSDFDFJJZHxDBJHBJAJAIJ3CGHHAGHDCDLKLIJ",
"VCJJJIJJAJDDDZJA:VHHHJHGHAKLFDDJAHJnbZDJHCHNSHAH$nAHHHnHDDDKJFIL",
"DJIFJJJJJJJJJJJJ:AHHHDJCJJJLHSJDDJDBAmAIJHHAAHHB>nVCHHHCJDUUJFSS",
"AVJFJJSDZDHJJUHJ:VHHHCHHHJHHJLLJJVVDmxmJJPAHHJAH%VHAHGNNHCCDUIFJ",
"CGSJCJHJJDHHJGHP:GHKHHHJHHJLAHDDDSCDmSZHHHHGJHHC*CNHGGGHCHBNKKLJ",
"VCnmnnnNxAjnnjnn*jjnjjnCCCNnCVNNNmNnnNnnnxgjnnnV+nmVnnnNnmnMDCDB"
};
