/* XPM */
static char *e13da7fe781d496bcf469906d979f6ac[] = {
/* columns rows colors chars-per-pixel */
"128 128 52 1 ",
"  c #3E3E3E",
". c #40403F",
"X c #454545",
"o c #484747",
"O c #474846",
"+ c #494846",
"@ c #4C4B4B",
"# c #504F4D",
"$ c #4F504E",
"% c #51514E",
"& c #545452",
"* c #595753",
"= c #575953",
"- c #5A5A55",
"; c #5D5D59",
": c #615D57",
"> c #615F5A",
", c #5E615A",
"< c #63635D",
"1 c #68655F",
"2 c #69685F",
"3 c #656561",
"4 c #696762",
"5 c #666861",
"6 c #6B6B64",
"7 c #6E6D6A",
"8 c #706E67",
"9 c #716E6A",
"0 c #6E716A",
"q c #727167",
"w c #75746D",
"e c #79766E",
"r c #76796E",
"t c #7A796E",
"y c #767671",
"u c #797671",
"i c #767971",
"p c #7C7C74",
"a c #7E7E79",
"s c #80786D",
"d c #817E76",
"f c #817E79",
"g c #7E8176",
"h c #7E8179",
"j c #818176",
"k c #828279",
"l c #89867D",
"z c #878A7F",
"x c #89897E",
"c c #878781",
"v c #888680",
"b c #8A8981",
/* pixels */
"o&&--&&&&==&-&&*&&&-=&&&&&&&&&&-*---&;;;;;;&--==&&&&&&&;-&&&&&&&&&&&&%&%&&&%%&&&%&%&&&&&&&&&&&&&&=&&&&&&&&&&-&-&-=;;----33>33;&&",
"@==;33347yyyywy9y977977w97w0wwy7ww7y7y99777y7w777y7777776677777wy7yyyqyuyyyyy7yyueyw9799777797777777777799777y777777777777777&;&",
"o&=7u77ytpdlkffdklfpjllkfdllklkppwttya9u9yyaiuuwuuuuafcajkkjypakdafbjpasdppfpdudddjjaauuw9uyq96897799ufae98tcffyaauyyyw77779y&&;",
"o;&wf97uljtxfpddpkvkdlbllllzlvvaljtjaasuuafcvildaaaffaccjklkcaavllfvllklldfllfffdlljkkdffaaaeeeeaauakfuueeqdkfbccacakvllccafa7&;",
"@;<tfpdaljkxlddpplkklklkfkklxldazaadjpedffflfflatdjkfklljljllpdldddjjklljkllfldejjlpaddafpkkjlklldkkflddstsdakkkkklkbbblccfaca;;",
"o<wpuakpjjjtjjdkkxzzbllkdjjxlkadjpptjdtdfflfkfkkdjkapddijkklljddkkklldjdeedjkddtkjkjdjdadpfdepjddedtffddetddpkgaaapfjlkjfffaba&;",
"o3wpeudpdtedjjdkjjzlvkkkjkjlkllglgddddpjfdpddppepddapjaajjjsuppppdkktddtpedtajdattdptpttppptpdppeeteepuueetajljapipapugpafaaca;;",
"o9upeeppddppdjddjdadkfkdlldfkkkdpljkjdpdddduppdeeedjaadpapptgjjddpddspstedjdpdkjgjjjdttqupeddtdeedppputpppgfgkkaffppjpdpafacca;;",
"oqpppptjjspgkdeddpkjdpauddsgkkkkjddddepppjjajdddpdpjatgjddljjklkdajkdpdteddddgkkllddtstettpgedtdpdpdduppddppjghkpjaagjjhfaaaba-;",
"oqaakkjdjjjpkpdtadapakdaddjdpkdpjjddeepdddjdddtdjjdpddajdkjdddjkkjdjdtdjjdddjjakkdptpddtueeuppjttddpdppdppjjppagjjapuaajaaakbk-;",
"owukjjdejkpddtdjpppdpgfpddpddddptspdstdpddpppptdddtdldpjjldddjkdjdpjddkljlkdapjljddtjpaptttadpaptppddppfpdfdupjjkgpahjdjpukvca-;",
"owjjaddpglsjpddjdppaeapueptpdddptjpsdppppppatppdptdddpddjjjlfkjkljdpadajkkkddphlljpdddptepapdestteeeppffappptpaaaaakkkkjdfllcu;=",
"oyjdatgjgjppjdddjppkppppepdpeddddddtdpppttdttpapdpdddddpdddpppddfdkdajapdkkddddkddpppdktppdpptdtepteetpupeuptpapuauaaglkcfvcbu--",
"oqadptpgjpsdedjdapddfdpspppsepdtedddkdpapddtepppeetttddptddaptkjaaakaajaudpatdakkdajadladepegjsppdattdeppuptppaupjpppaapafkccu--",
"owiugpppadpdetsttppuppppdpepptstsdddkajpdddpaestededdpajuappjjkjpukjkkjdpupdjppddpdkdpjpddtdptdfddpstttpauappufpdfgjffagffccca;&",
"@7iuppapappdesdpepddspepdpspdeppdedtadkptdpppetdteeetdjjpgjaatpaaakdjjadpdppdjpddudkdjddjjjdpedpupeeepepptpdppkdaapkkliuaaccca&;",
"@qptptdddddpkdddeptdttedpdddpedddtseddddppdpjtpdpttgpppapgaajtakdjlkjppddpdpdpdlapatafptjdjjjapedtetttttdpppdpjkjdddhkadjkklbi*-",
"@qdpaedfdaddkkdpddeeddetpdtapapddddtdpddddputpppdtjjperuapttgtjkdakjapajppudeufjjjjdjdppdpjjjdpeettppappdaeudpdkdpdjkgppflklly-=",
"@7aaddkddppdkdpddddddppdugppadpdddeppdddkdppdjpttjjgppatppuaatpjupjjjpujppdddpdppdpdddetpgupjdtetdsdepjpaajakddadaddflddkkkkcu=&",
"@7tddpdkjdjakdpdddjdddptdpttpdtppdddpdpeddeeaddppddppppijjgjkjudjppkppupeddddfaajjpdadddagjjdpppjtedppdappdpadkppdapjkjpkakkca;&",
"@9ugddjjjkdddppppddpufppdpdttpapsadkdddpdkpjapapeadteduuuppjdaapajppdeueedddgujjjddddpjtdklapetpdetjjdppjatgjgkpdkkfdkjjflcvva*&",
"@9dtepjjddddppdpptduuaapapppepjjdeptpddjfdadppappadjpdpdppdpppdjjpapdeuieeddapldpjpdjdaddjkdptgpptsdjkjjjppfdagkjakkklddapacbl*&",
"+7ptppdddpddfdpepeppjptgdppapddpddppeddjkagpddadakldpepjapapppajaappaeuupptddddkpplddjddjdpgptjaptddpdpjddjdjakfappdipfkkfkbba-&",
"+7pljdjdddddddptedppaugkjupddjgteepdddddadpppdajpdlkdppautappptpjpppupafpdjkjpaddpdfjkdjpapppitppdjpatupaddadaffdpppapakfafccu-=",
"@6glkdpjfljlfdpupppddapdpppdjjdjttddptptppppepddpjgdjdpptdkptpuaapptpdpupppddjdpptadpdjdedputppgatspggupppdkkffdapdjjdpdaapkla-&",
"#6pxjppddlkdkfaapaadpdptpgdtgjdpptdedpppajppttaapauddpapdpjpuupuupatepeetdpdjjdapdjddddptepudpaaddttpppgpeddjjpppdkjkpgapalbxa=&",
"@4tkjudtjdpjfkkljpdadptpddpdpdppjppddtppajgaggppupuajpdjdappgppeuaaeeeqtsjpdkkdkpptadptepapppeuujdddpaaddptppppdppaadapdpdllbk*-",
"@4plkdtdkdtpfkkkkjddeddpptdpppjatppddppdpjgakkdpptapgaaddptppttgppgusdetdadadgajkatapdttpetutpppdttjddpdddpppdkkpdaajuajdjjkvi-&",
"@5uljppjpfkdgdjlkdkdpdappetppuddppetsptpjgjpjkadpdkaajkpggtwuppggaauappddpdpdaapppaapaappdkapaptjutpsgtgdppjkjjjdkajkjppkkkklh-=",
"$6ujpdjdpddddjkkdddjddapeweptpdpdpeetjdpdjkjjdpjjklladjdjpjaatappgddpgadpptdpptptwajppalakkkdpduppttttptppajkdddkkdkkdjjakkjva;&",
"%3updjapdpppdhkjkpadjdtauttptadappptejjaddkjjdapajkkdddkdpajjjkaadppapttteepptupptddppgdjkapddugpptattddpupdaaaadkddakkdjaakva;&",
"%3etdputtppuppddaagjjpuaippuuaguptpputdappdddadkadkjkpaljtpppdjptptataptpeepduptpppkdajkjddaddujptjdetepdkjjjppppkdfjkddjaahla;&",
"@3ypppgptppdtpjduadpppupurppagpgpttagppugdtpddjkikddajajdpdpeddadpppppdpappppptpapedppdppkdaddpdjkjjdeppjkajjppppkkgapjjkadgkl;&",
"&6ukappppjdpddjdpptpppdupaapppgdppwtupppgutdaaplajadjpddddapuepdptappdddpgjppdapdpdfddjadpjjseetjdpjdpdjdgaapadtpjjppajdgajakk<&",
"&4ujdappdpgtdddjdappepdpppuuuadpdtputupdappapdgppapfjapppetueeetepdaffkdtppppdappdjkdddddppjdppdpepjjppjpaapptpttddppjaapgpjja3%",
"$3pjjgpadtdjetddpetadpetpautepttppatuuptpappaajpuaakkjpeddtppepeeppdifldatptadaptpkjdjjjajdpppseepdddgpppdajgppdaptdpajdppptaa3$",
"&3udapjajpfjdddputrtgppgpjfuuuuuupdpuuptpdfppappppaagakadpwupdeeeeetpdpddpdtppiaupjjddjdpdpeeddeddkdkkdjpjajkgpjdaattradapeppd3&",
"&4epdtapuslkdddppwppapajpppepuppppppuipadppappajdaajgakfdeeupeqeeeedajdptppptppupakkdpddddpeddddjkddfdpaaggdkjddpgkuewedjgupdp3&",
"&6udaeepgddjdjdpeeppppupuppdptppdpeeddupdppppiddddagpkzhdppjeepeeuptpjjppaptuppuptgkadddjsdddtdjkkkkaakjdpppaadpddppuwwqpaaafa6@",
"&<uaepuujppakkdapputteuitttprwwteddpppptfipidpujkdppuafdapdptteeeestdtattputteetupuaadddddjldjdjjlbjddjadpddtpjspdjfatqq8tlkka6%",
"%6uautupppptpppaduuptutpuuptuepuepppppjpppatauaalpeppppappdptteteuappdptwturupepdgdaadpdjpdjkjljkkkfdkdpppjdpddddpdpapeq88jkjp6@",
"&7gjaaappppappaepppppapuuyrppwpttpaadtppuuautpajgpaugppidpppettpautgjpptettetpapappppddajpkkljljlfkdkdkddpadakpafdpppsepeepjdd4#",
"&9dfjappajauuapptpuruppppiwutetauaaapppeptppipakgpahauppdpeeteupttppjsdputatttaapugadddjpdpljjldlkaajdgjdpddddaddpdpupppddpjkd<&",
"&qpagdpapjgapddppuretdtpgtpupuguppddadauappepafkppappitppupteuptpdppptdptepppyeaupatpppjapdkkjdjfjppajjjljdddppdaupppppedpapdk3@",
"&waajpkpuupppaptptttpppppppupgpiutadgjjajpgppdppgatuapewupppptpttdppdtdtpgppputwupaapttdptagppapppdkpddupjldgpddfpppppeepaplkk6@",
"&egpjaaupajaupepgaappatwptupppppppapppugdptppupdutttetetauppppdppggppteeuadpreetptptpdpgaglpppppdappepppjppjdjkdadlkpddpdafklh4&",
"&ygaagppatpapuppuaapaaaetpipugpadpjfajppdpupuepdiapwtetupddddddpupdpappupjjjreppaphpjspdpaauuahaaadpdptpjpppddjjpajjdppdjjdddk6@",
"&eapkhgpguuppppewuddppuippppuapptpadgjpupppputpapuatpuiutuuptjaaajappduraptpppaajjgjjtjjgpptajkkkjajdpjdppppdpklkpddjaaptgkkkf4@",
"=ujlzappaappatutwpdagpuaapppapaapdppfppppaipupuptauupupgdupppagggfkapjaeutadapapaaapapajlhhahaphhapauuagpuupapdkdedjjkjapjkkkd<@",
"&yjczpppugptjpuriupgjaptpprppdppppdppipppapuppautpadtppgdtrutgpppppepppppadjppdjkippgpahjkkihpihattppwuuwuryppaadppjpdpptjddda6@",
"&wklkjppugpppeupriagpauuptepuatapuppupdpkfpppayuppjpppppdauptppapppdgapptddpupppappgdppgpaauppipururppwwwrwwwakjjdtstptadedjdd<@",
"&uflddtptpaupeuuuppppiruaupauueeppppppiuuupuauuippaqiutttppippraupppuitapeupapepiippapipppauppguaauuiiytuwwutiakadppaapuppjdpd;.",
"&wajttppiuuuppupuutrrpiuuuppppuewppupuuuuiaauuuuiuiuwrwttuutputyeuutppguupaupptiupappipwpipipggpphiipiaauureeuuajkjppgkdppjddq&X",
"&udspattpiyuuuqpttwrtupprpatpuuwtuitpuueyyiipriirepqiutpuutirwwwiiiiuipuupkiuaipaipuppppjuuuippuipiiiuupaweqw9yighuappdpppdjdw%X",
"&uapeuwwyiwuueq9wwwrrpguiututtuqwtiruwwwwwuirwuwwqwwwweewwww0w0rwwwwrwrrriiyyypypiaprapipiiuprutpupapytuuwuw9e7wipiwduputttpa8%@",
"&ippqrtwqyqirwwwrww0wwwrywqqwwwwwqpuuywuywwww0wqqw9wq6qiwwyy7qwww0wwwwwwwqyyiiyiyupuwtpupuwrprwpupyiuwiywqewyuu0uwyiwipuwtpptw%@",
"@wuattprw0wiwwwwyww0wwrww0wyweewwwwwwwwwwiw0qwwqw77w998ewyywywwwwww0w07yqwwwywyytwwrwwpwiurwuwqweewqy0wwwqwywyyw0yuiiipyyygptu%@",
"X6puptpwwrqwyqqywwi0wwrw0w0wwwq9qwqrtwwwyywwwqqww7wwwwweqw9wwwww0wwq006iruywapywwwwteewrutwtreuwtuyqwqwywqwwywwww0piipi00wppjp&$",
"+;ukewwqrqw99w9y0wwwwyywwww0qqwq90wwwqwyww09q7887q776887q769q007707766367000q7997q7878qw0wq776q77877767667700767447w770666rwww$@",
"o-67;;,<-----*><;;>;;;,,,;-;:-<<<,<,<>;;;<;;<;;;=;:<>->>-;;;;;>>;>;---==-<,,,<><<<:<<<<<<<<;-<><,<<5<<;<:<<<3>>><;;3;3<3<<6670&&",
"+&&<><<2<3<<<;2<356633<6<<<<333<<3<<33<3<<3<3<<<<6<<<<<<<<<3<<<33>3><,<<,<<<<3<3536<<<22<<6<<6<2<533<3<66<6<3<6<<<2<;3<35<36q3&$",
"@+X<;><<<<<<,:<<3<<533<2<<,<<<3<<3<<<<3<<3,<<><<<<<<<<33<<5<<,<53>;<<<<<<,<<<<<,<23<<<<<<<22<<6<365<<3<2<42<<<<<<<<<<3553<;36&&&",
"@@@@X#&&&&&&&%$@@+oOoOoo@OOOoOoooXXXoXXo@@$$@@@%%%=&-*==*&&&&@@$@@Xo@@@+@$%@O@@@@+@+%#@$+@+@@++@%%@%&&&&%&*&%&$@oo+O@ooXoXXX%=$@",
"@@@@#%#&%&$@@@+@@@@@@@@@@@@@@@@@@@@@@@oooo@ooXXX+@+XXoo@+@@@@@&@@@+@@@@$@@%@@$&&@%@@@@@@@@O@+@@+@@@@@@@@#&@@@@@oO@XO@$$&$&$&&&$@",
"@@@@@@%@@@@@@@@@@@@@@$@@@@$$$@$$$$$@@@@$@@@@@$@$$&$$&&&&&&&&&&=-=3&&%%&&*&=&@@@oO@XX@@oooX++@oXooOOOO%@@%%%$@@@&#&@@%&&&&&%&%@@o",
"--;,>;;,<33<;;;;;-;-*=&&$$$$$@@@@ooo@$%%%&==;*&=&%%$$$$$&$@&&-&&$&&XX@&&%--;;----*;=-,->;<63<,-=&%%#%%@@&%&@@$%&&@@@XXooXXXXo@&-",
"iuauuitphieuuuweuwwuuy997644676466360wwuupuaaakhuuyy74633;;;3&&&&@X7wppepdpkhaapuutpgjdpjklghhhkggjjjsjtatjgppajkipprppuuduadaha",
"tpupudjjffaggppauyuipuuuiipuyyyuuuukluuuwpaalblvcauakukbcaaca3&$@;oapaddtpkkhhhauppaaddkjjkjhpipjapjkdtjatkappaewaihppupppaakaak",
"pggitjllkgjdaaupuarrppfpfadppzifaalgjppuuujzkkkkchafakcvcafkly$&@;-fffttpjkahhzpppgpkjkdhadappiipptaagapteuppapwuapgppdppihgkgaj",
"ppjptkxxxlddappruaapppfffaauappkphaapupuugpakklckclfalaafccczuo&$>yafddpdguahaailhgadkadpapjahpgtuaatjptppptetappuaipujuuuapajjj",
"pdkdtkxljkkfppppapuppaaiuuyyppppppeetpwpttpjljpjappfaiiiaaaacio&@3upkatjdagfkfckkadddapdpdtgptpiupkudaeatdksepajatipitpppeggjpjd",
"dzkkdjjaaaakhiihpuetpipapaiuwtpptautpiwpttskkpupuuaafppipaaacio$Xypuupdpjjfahkvahkgajdppppttpppiaidakuupdtappppjpdppiugpputputpa",
"fkkhkdppuppdujppuppukgpffaapuuatpptwiuppppjxxkaupupupaaipappkio@.dpuppuplklajjljfkajppgtttruiguruuupgptpdeddaikkkhhiriigduuiwupg",
"alhkkgptahjugjppgdiuphppaiagjupgkaiuuaprptpkjjkppuiapakaugpphwX@Xpgappppkkjpjtjxkdaipjjuapupppptugpppppppdppkhapgpgpiuegdpituuup",
"iklxljgpglkjjgppkppuwaipaaiiapaadkuturppptdpstuuaugiafaipaaahwo@.pautpapdddadjxkkgppappuatpapjptpapgpuhpueepajuiuuyuyyuupuuuppag",
"fxggkjdajkjkgaagappduppiaipakgupifatpgpppjjkxiiputdupiiauaaaa7o@Xdprwtipaajpjjjkkkkappttpuetpttpaakgaakkfpepafppiyruuipiputpapup",
"alkjadaahhppaauupgggkgapapilggutpuutppptpjpjkfgjkyapuauiifaip7ooXupjkapaauiptjglfdjapgttttuuppgttuxjkphhdppppapiiywappthfaiptppi",
"pdappapppujatgpapadgzkapapufpipaptrpppgkjjjpppadapuiupupuakkp7X@Xpaudapgaiaaupppldajgtptwrrtjjgptppggppktrghptppiidpapuhappdupyy",
"tdajhpahgaaipigappgghgpigippaiggggpttpjjjpptppauwaiuiiiayiakayX$owahpppppgppguupgpgkkkaurtupkgjgjaugapaaappppruupajuippapwupfuip",
"paghkzkggppppppgupagkhazgypafaaptgguutdjjupppdhutwiupuapuaaaayX@Xtaktttadpajppakgakjakautjujgpuafpttupttgaippudjppwwuppupfppppia",
"jhgkjzkajkpaadppuuujghkhhapupaprttdtepjtpakatapuiipippuuaaajc7XoXupkauuppdpjtpudffjjpapupjddapgtudttuuuuuptepppppgiwgphpipgpuuat",
"lkkkalzaaaakgjkdappppgkkgagpuutpttjtaakppujuakkjfplupuyyrdkka4XoXpkfyutptjjdptpffppurpgjjajpapapuattawrweewetuppppuiupgiipppiapa",
"azhpgjjjuuaguppgppghajjpjjgagttjtttpgpgkgpdddspfpiappapappahayXXXpdduurutjddddppaupeakkldappggattptpppwrw9eerepgfpuiifpugpiaaahp",
"uhpgudajgppjhpuipaghaajjlkjpjtstttttahgjgjjjsdjuuiuuypuaupfkk0XoXiapuuepajaeaepdutpaahhpdppdtpuppalpurtuuepeteupppuuiiyapapuuigu",
"phgapaaagkpagatugppppjgpggpjjpjjspttagghjuppktkpppyyuuiiupaalyXXXakppuupddpdjauputuagpapdpjtudtpagdfauptayeewiappaiipppaffpuippu",
"ugjadakilajauiuppiygppapatsdpgjjjjjjkkphkdpujputpipaupapuuiaauX@Xplkpyipdddpppruiaudatajdjptateppjadkkpupptwuuduuuiyyaipikueupue",
"wjhjjkzhapagpippurrpggatdetgjjjkljajkzgkjakkadjpppuppaiiaiaiayo@oragptpappppeetpiappgpgpppappetdaudkpudppdpuepaaaupiyuuuuueewueq",
"ipujjhaazppggpigpitppgaptajdptjxljppkhhaghkgpkdgfapiiurpgifkaqXoXplkuppteppueipdpdgujgajpteetpetpkkjpppupdppaaadaeiuuywyrrpeewup",
"ppwaajkafipgapppppdkzljadppjzkjjjxkjlkphkkgapklhlzpyewajaafkfqXooifkputitpppipaafppppjajketddjptupppapupdpwupgpppuiupuwqupterupp",
"ipptpkllkaakatigdjjjkhkjjkjhhjjtjxxjppgjgklkgihgklkupuuppapkk9ooowafpapprwuppuakapppaaggapdttkkxkkguiapdjpppptptiippppiiugprupaa",
"pppuajjkpdhkpupasjjguajjpjkkkggdlllppppjaklkaakaakkttpkaptedkwo@owpkguaiwtwappjpdppuikgkkjdjjklkkhhaaapppptpdpedpipdpeptppprpppg",
"ggupdddaadakaupapdjppaakjklkkpptjjtjjputqpagfpappkaewupptutaawo@o9adpppparuapapadptugjtadddddkjaakggdjdpuppapettakpauuuuuruppppt",
"igiueapddpgdtppapdlgagakhjjjpppgsjjjgpueeetgaauuruptetutuuuaiw@@o7faiapuataattttpdteutpkdjajajjhkkjappjdppgpdjpappapptupuaiipppt",
"paippddadpppupuppakljahxkajdgpkjsjjjkappweeaptptupatutguugpjdw@@O7kkaytaarpwupptdepuuitpdkdaakajkpdaagkppagjjjtutetudttwufiiiapt",
"akauapagppewriiupggkkggjjadkgpkjkpjjhupuqeeeptgaghgupppaakjkjq@@@qfkktuuupurtppteeatiaijadlkkkgkpfdgdaaaddjjjueseppppauepppupjdj",
"gkkpuhhphhapapuaddtpkljajpaktdkpdjjtakiteewepajppaaupiwrpdadpw%oo6uaadjuuggappgtpptpapaajakkkjjdjjppgptdadkpaaddspjjdpppauptppaj",
"taaapaghggapppatpptddajtgjkjadjpjkpadjpipeugpdjppufuuueewuupuw&o+6dgjppapgkhiipgapyphhpjkkjgkjppaapapfptpugjkaddpjddtdpppettpjdj",
"gtgptujapakapptdpttsptdjajdudddpjpdjhppupweakaapppfiuwewwwifuw%Xo7kautpappaupgppddapkaaakkdpjkjddpkhdhgpupgkhjjadtttdpueeppttttd",
"pkapapaggajpppppepppttpjjppdsdjpjjdaaturptpatiupppfduewuquupuw=oo6dupaifpgjgggpptdaghkgdadjgjhkapajjgkgakkaaafkpdjpteeppdjtttttt",
"jappppadhpjappepdtdtjppgkapdtjktpdpaaupipppptpppdppppeweeuyjdw&+X6dpppuapupapuuupaupkafgpdpgkgggagjakkjkddgpdjjaaaduepppptptuptt",
"papjjtpppggpjptajdjpjjplkjddtpptpttaauuuppuuppappeepeuwtpewpdq&.o6ajduiapuppuipaupppapkkpdgjzhakkgkjkhkzddaaaaapjpdpeepdttpptpae",
"ggppggptugapkjdjkkptjjddajpetuetueeeppuedpppdfdpddptuptauewpfe&X 6pappauprrrruhgjpupakjaadadkhkkkgkjhgkkajfkuufldptdpeptppuuttpt",
"appppauptdadgjkddjdpapdtpdtptutueeeeetwppfpppaaaadgptptiwapdfe;  6aajpupurtpgtpappppdkppajajkkljkkjadpdaflgpappddjdapttppeuitwee",
"rtupdawrtjaaakjpdtpptppgjdpupajpueqeyuppdpppuappdappppuuwtaffw; X2akjptgjpuputppapagggappjjkafkdagkpaujapdgpaweddddjdpteteweeppe",
"tiuppppptddpajapgtpppsjjatttuaaptipuruupaupuupuuttwurrwuwwtkvi<  2tddatupuapiaaapagppapdgggphkdpggjkgjapppjjpppdjstgddpetreepepp",
"pppppapptpjpaapjjupjgdjjddatpuajuajppptpphiuaappeuapuputrauklu>Xo6eeuwutugpuuagpkjlpddpgkhakkapppjkkkkpppdappuddjjjjpppppetpetpp",
"iipkdadttdjajddjgujggpjaadjputpaptapuppapppapiauutpapiueruidfw>oo9etpuiyupupjappuagpakpjjhpaajppjppkjjgppajpajjjjjsjpppjgppepjdd",
"ippddpsttpdppjjgkjgdpagppjpagagtuupgkpuppipapuuuiaapupuppaadpw;Xowapiruuuafpagajhdgapjjlkppaappjauagdkaajjadajjdjgpjdapjkkddtptp",
"ppatteeetddgppuaadpjjpapagpakkkhfdapfiapapyitpuupfikfupdhkapdu3XXpuuwipppppuahahguagtdlpjaagaakkpplugkkajfpaapujaeujjjdkpllkpgaa",
"rupetepeeddddptttpddjupapuphjkkkdddjaiiipppaapppuppdkappikadpw3ooagjuuippuuyupiuutajpddjdppdppdapddjjgjgkkhlfapaptutjjdddjjjjjkj",
"rtptwepppdppppupppppapdpjgkkkklkkjpppppppaeuuepdaptuppeeuajjpe<@Xaajpupuwpupuppjhapgpppjdagaatfdjgaaaapahapkkakptpdpgppdpjgdkklj",
"rwttpudgpjjjddkagjdddgkadkddfhzjptdjddppghauupptuurpuupwiaappw3oXapareaiyiiipgtpddkduaupaakjklkdpdgjakkjjpuiafdappatatfjdaglxgau",
"wuupppadpgddjkkpppggaagapkadudfpepdkdjpppgiuptpttuapgppuupddp73@opujddtyipaapjdgppgdppppiihkddkdguakagppakpajjspagajfflajjjgjgdp",
"wywwttpkdjppagppgppjjjajjpptjjapdedudfgjituuweuapturuipuupdlay3@Xuaaauuyuuupppjpguajjtpapgeppppdttptpjppfkkgkjgppjaljfapfduptpdp",
"qewutiagpjjpptpgtakzgpkkapaaljdaddppdpapiruaragppptupupeufdfay;@oipaueyuuuiupdddaakapppauaeajfgujadtdtggappppddjjapdkjjjgfdepttd",
"wuwttpupapppappupjahaagptptpdtpupdpeppppptpptuuudeiagieeeuffu9&@opippwyewyaauutahapkjgjlgpppapapudpppdpdatapudljjppaajhadkdpppud",
"tpuetiurppetggpapjppgkkapauipgdjddppuuuutuwipjugdwwppaywefdpu4@@Xuyupuy9wrpuapppgphkklljptihppiptttepgttppppgjkldjjjdpjjppjjpatp",
"wutpprrtptpdpppggppaappiperpadautpddupuappiirtteetyipuwpepfpy>o$Xwyypyitqpuipppghihzzjjjpppgppajdpjakpuapepdupddjjjkdjsdptppgjat",
"qetwuruttpeepaptupippwiptwpipgjtttgurtuiprurrwqwywyqwweuuiuuy&@$Xyyyayuyeeeeeiauupdjgppttigprppuaappuwupdgtttwtpdpuipdttjpagdptw",
"eqqwtwweeeq8qppprquuwqyitwwrruuwppuiwiiir0wrtwwwwywwwyqywuui93X@Xyyyuyyypwweeriwwuautttrtrrprwpeyuyiewuprpuwippgttwiteuptdddkpru",
"wewtweewtq8qpeupueetqwwttwurrwweqduuuiywuwwywrwww9wyyyywweuuwwX@Xy0ypy9wwwwwuiuuuyiawpgtripttweqwettuwwpyiwwtutppttttegssptdjete",
"qetwretwqqwtewptwwwewtrqwrwwwwwqrtewryyiuwuwwwwrwwqyy0wwwwdtyqX@X0yyi9ywqqq0yiiiteiiptjuuirirtewepptewuuutwuuttrepeqtetppdddttpp",
"etewwrwqqwqrqwwewwqtwq0wwww8qeqqtwqw7w7qwwwqq8qq7787q9666ukdy7X@o-q7wyy77q0qwtiyeeteedprpiirptwtedterjpittriupgttdsteeetpeettjpp",
"****-==*-=*=-;*=*;-=****---&*-&--***=-=-&=--**-*--&*-*-*:>><4< oX$33-;;&&%**-;-**--:;;<,,=--*=**-;-------=*--,-*;::**-----*:-:*-",
",,<,<<<<3<3<<<<<<<<<<<,-:<<<<:<<<><<<:<<<><;<<<<<2><;<;-;<463;XoX@&6><<;-;<<<<,<:<1<<12<,,;,<<<<<<<<<<<<<<,<6<<<<2<<><<<<2<221<<",
"*<6<<<<<-&%%@#%**-*%**,,-;<<<;<<<,<<;<<<<>;<;=%@@+oXXXX+o&>>3.ooXX 3<;=%%@XO%&&+%%*:<<<<<<<<<<,,6<;<<<<,<3<-<=*;***%%&&>2226881<",
"&&%&%%%%=&&&%&%@#%#%$&%$%%@%@+%%$&*&&&&&@%&&&&&@#@@@@@++XXo@@&&$$&$@@@+@XXo@@++@%@%%@%%%%%%=%@$@@@@@%&%&%==-=%%&%&%%&&=*-%%%#@#%",
"&@o@@@@@@@@@o@+++++O+@+@++o@@.X+@@@@++XX.XoX.X+o@+o@+o@..X@@ooo@ooo@@o@++XoXo@+.@+@@@@%@@&%&&%%%%%@%&@@@oo@@&X....X@ @&#*Xo@#%&-"
};
