/* XPM */
static char *result[] = {
/* columns rows colors chars-per-pixel */
"64 64 185 2 ",
"   c #1F251E",
".  c #1E2B1F",
"X  c #2E250D",
"o  c #2E280F",
"O  c #332B0E",
"+  c #3A2E0F",
"@  c #39300D",
"#  c #262514",
"$  c #2C2614",
"%  c #252915",
"&  c #2C2A15",
"*  c #24251D",
"=  c #2B261C",
"-  c #25291D",
";  c #2A2A1C",
":  c #312615",
">  c #342B13",
",  c #392D12",
"<  c #31261A",
"1  c #332A1B",
"2  c #3A2E18",
"3  c #2F301C",
"4  c #303111",
"5  c #3B3112",
"6  c #34311A",
"7  c #1E2622",
"8  c #1E2A24",
"9  c #1E262B",
"0  c #1E2A2B",
"q  c #1D2932",
"w  c #252624",
"e  c #292524",
"r  c #252923",
"t  c #2A2923",
"y  c #25252B",
"u  c #29252B",
"i  c #24292B",
"p  c #2A292B",
"a  c #302722",
"s  c #312B21",
"d  c #302A2A",
"f  c #252531",
"g  c #2A2531",
"h  c #242933",
"j  c #2B2932",
"k  c #2D223A",
"l  c #44350C",
"z  c #49370F",
"x  c #47390B",
"c  c #4A3B0D",
"v  c #503E0D",
"b  c #463512",
"n  c #483712",
"m  c #4C3B13",
"M  c #473619",
"N  c #48361B",
"B  c #473D18",
"V  c #4B3A1A",
"C  c #513D1B",
"Z  c #483A26",
"A  c #543F20",
"S  c #4E400D",
"D  c #53440E",
"F  c #4F4213",
"G  c #49401A",
"H  c #534415",
"J  c #564916",
"K  c #54431B",
"L  c #59471E",
"P  c #55491A",
"I  c #5E511A",
"U  c #675513",
"Y  c #64541C",
"T  c #69551C",
"R  c #675B1C",
"E  c #6D5B1D",
"W  c #705F17",
"Q  c #715E1D",
"!  c #6B6314",
"~  c #6E611C",
"^  c #726016",
"/  c #74631B",
"(  c #79671D",
")  c #79681D",
"_  c #534320",
"`  c #655323",
"'  c #695523",
"]  c #665C23",
"[  c #6C5C23",
"{  c #715C24",
"}  c #6C6021",
"|  c #746322",
" . c #7A6720",
".. c #7B6A25",
"X. c #7D6E29",
"o. c #83731D",
"O. c #816D27",
"+. c #847524",
"@. c #8F7D27",
"#. c #85742B",
"$. c #89762B",
"%. c #85782C",
"&. c #8F7A2D",
"*. c #937D2D",
"=. c #8F7B32",
"-. c #937D31",
";. c #95822C",
":. c #9A852C",
">. c #9E892B",
",. c #948031",
"<. c #9C8731",
"1. c #9E8A31",
"2. c #918039",
"3. c #A28D2E",
"4. c #A38D33",
"5. c #A98F37",
"6. c #A58F39",
"7. c #A88F38",
"8. c #A69134",
"9. c #AA9435",
"0. c #AA9438",
"q. c #BC9E3D",
"w. c #BCA62F",
"e. c #BFA92D",
"r. c #BCA434",
"t. c #BEA832",
"y. c #BDA53B",
"u. c #BEA83F",
"i. c #DEBC1E",
"p. c #E4BB1A",
"a. c #E2BC1E",
"s. c #E8BD1C",
"d. c #C1A92F",
"f. c #CBAA2F",
"g. c #DDB724",
"h. c #DDBD24",
"j. c #DFB72A",
"k. c #D4BB2D",
"l. c #DDBC2B",
"z. c #C2A437",
"x. c #C2AB35",
"c. c #CCAE33",
"v. c #C2A53B",
"b. c #C4AA3D",
"n. c #C9AE3E",
"m. c #C6B03D",
"M. c #CCB23C",
"N. c #CFBA3A",
"B. c #D3B735",
"V. c #DEB631",
"C. c #D3BA34",
"Z. c #DDBC33",
"A. c #D1B53D",
"S. c #D4BB3C",
"D. c #DCBC3B",
"F. c #E2BD24",
"G. c #E8BC23",
"H. c #E1B72A",
"J. c #E3BC2B",
"K. c #E9BC2C",
"L. c #E2BC32",
"P. c #E8BA30",
"I. c #E1BB3A",
"U. c #DDC11D",
"Y. c #E2C11E",
"T. c #DEC024",
"R. c #DEC12A",
"E. c #DBC135",
"W. c #D7C13C",
"Q. c #DBC13B",
"!. c #E2C124",
"~. c #E2C12B",
"^. c #E3C137",
"/. c #918048",
"(. c #BEA542",
"). c #C3A543",
"_. c #C6AC42",
"`. c #C9AE41",
"'. c #C8AB48",
"]. c #CCB142",
"[. c #D3B642",
"{. c #D4BA42",
"}. c #D8BD41",
"|. c #D0B248",
" X c #D9C041",
/* pixels */
"/.< y 8 r u w w 9 e v f.F.j.J.F.J.F.h.F.Z.u.G y q i * t i p - 6 3.D.F.a.K.l.h.F.J.F.[.{ = i i i k t ; r 1 ^ Z.~.T.T.J.J.!.T.Z.G.",
"1 # y r r w u - ; n '.!.i.i.h.F.J.!.!.~.b.c $ t i r ; t f r 5 <.D.H.F.p.F.j.h.J.a.A.| : r w e t u p - s { S.l.F.!.J.J.F.G.~.E.8.",
"w y e u = - w * S _.I.h.U.h.h.!.F.F.~.y.V ; t u e r r j i > 3.P.G.!.F.l.h.F.H.F.S./ - y r t e p t . t [ D.K.!.h.J.J.p.a.g.Z.8.@ ",
"0 * u e i w $ m b.J.J.l.J.K.H.l.~.l.b.C = r y u p p p p 5 >.Z.!.G.F.~.l.F.s.h.B./ = y 8 i p t i t & } W.~.G.G.~.J.F.!.J.l.8.2 % ",
"r w - w f p m v.H.h.T.~.G.K.l.J.l.b.B = - r y i r u u 2 >.Z.J.~.~.J.h.G.G.F.N./ > y i r u u r i & R S.J.G.Y.!.^.!.F.~.l.8.O r w ",
"u w t p d c d.Z.F.U.R.s.Y.h.h.i.v.m = r r f r r w w : 3.Z.J.l.~.~.!.F.F.F.S.| t r r ; = w e w t E S.P.K.J.T.R.~.R.~.Z.1.> p r u ",
"e u r = m x.i.H.h.F.h.J.J.T.E.x.F $ r y f r e r - > >.Z.F.J.l.~.~.F.F.J.S.| a r r p e ; - - : Q {.^.F.K.J.T.!.J.l.Q.8.5 i - w w ",
"y - * F b.L.F.p.F.j.j.R.~.J.b.F w w w y i r r u 6 <.V.K.J.!.!.F.~.H.~.C./ t w ; p u u r . e { C.F.!.!.~.~.a.F.J.J.6.O = r u p = ",
"- t S v.F.h.h.G.p.g.F.!.l._.m - 0 y w - w y ; & ,.C.F.G.J.l.T.F.J.F.S./ o w i w u p w ; o T {.~.!.!.J.J.!.T.~.H.8.+ j i r p w u ",
"r B '.h.T.h.l.F.F.h.J.l._.m & - p r w e y y > :.Z.l.j.F.h.T.F.J.!.S./ : p p e p p i i & T {.Z.!.F.F.L.Y.G.F.Q.5., 1 t t p p u - ",
"D _.Z.!.h.Z.J.F.F.F.g._._ & e e ; r r r e > ;.V.G.i.l.l.F.F.G.l.W. .& f i t e u p i p ] {.H.G.!.J.P.!.G.h.L.9.+ p r = g r - r p ",
"c.~.U.g.F.K.L.T.J.h.b.V = - w f w w u r O :.Z.G.G.!.R.l.G.s.j.B.| & i i i e # y t & ] S.J.s.a.J.J.!.!.!.Z.8., ; r - u g i - X Z ",
"F.T.h.h.s.a.J.J.Z.v.V = w r i y y y w > >.l.h.h.J.l.h.G.F.G.S./ 2 w i y u u - 7 o / S.F.!.!.!.J.!.a.h.Z.5., p p t w p u i ; m (.",
"F.T.Z.K.a.T.F.H.b.m $ e w u - 7 y w O 3.Z.g.j.h.h.h.F.F.F.S...e w r - e e p - ; / S.J.K.h.T.l.~.!.J.Z.9., t t p y y p r t m x.^.",
"F.J.J.L.J.R.Z.b.H $ e 7 9 w w w - O 3.l.F.l.g.a.h.F.H.j.B.| = u i r e t r - : { S.^.K.F.F.R.~.F.~.Z.9., p - p p p j r & m x.T.J.",
"J.F.i.!.F.J.v.H - w w y w 7 * e > >.g.H.Z.h.p.p.i.j.J.C.( = u ; w u u y 0 ; Q C.F.F.~.F.!.F.F.!.J.6.+ = w i r t p - t V r.h.J.J.",
"J.F.a.F.l._.F w 9 7 e     w # & <.D.p.a.H.l.h.F.K.i.A.) > w w w u y r - & { B.F.U.T.J.K.!.h.l.J.9.@ u r r u u p t r c b.F.F.!.J.",
"!.F.F.l.b.m $ *   w   e y e + <.Z.l.F.h.h.h.h.H.F.B./ < e w y u u i 7 & ~ {.D.!.!.J.H.!.F.!.Q.6., = w - r u e - t V ).l.h.T.J.F.",
"F.F.l.y.n * # e * * w y w X 3.j.G.p.j.h.h.p.H.F.A.E # i y - = g t 7 t E B.H.F.J.J.P.!.a.J.E.4.O p e = u p r e - x _.Z.T.T.L.J.!.",
"F.~.y.C = w y y w e y w : >.j.F.G.F.h.l.F.F.F.B.W $ y i w * # y = & [ S.J.a.G.h.K.h.!.J.Z.3., ; r - d p p r = V r.l.J.h.F.K.L.T.",
"Z.y.V $ t r y i p y w > >.Z.l.h.F.j.h.p.G.J.N.E : w w u u e - r X } S.H.J.a.F.J.F.a.~.Z.3., i p i y y y i t m t.F.T.T.F.Y.s.J.F.",
"u.c = r p p - r w w > >.L.j.l.g.l.F.F.F.g.B.[ # w y t * y y w u T [.J.G.F.T.T.J.h.h.E.1.> e w i g g - r t m t.^.J.T.Z.K.s.!.!.F.",
"B & p i i t i - w > >.l.J.l.j.i.T.F.F.l.B.[ e y y r e w w w < Q B.Z.J.G.U.l.l.F.l.Q.4.> p r u u p i - $ n x.l.J.F.~.J.J.J.!.E.c.",
"y ; e u i w - u & <.L.G.l.J.p.i.!.H.H.C.Q = e % w e e r i ; Q C.a.F.l.h.h.h.J.F.H.4.O ; r u w e e - ; m r.J.F.F.J.F.!.!.!.K.n.H ",
"9 w * y 9 y - 4 <.S.G.G.J.l.T.i.j.!.A./ $ w w w u e w - = T S.a.U.h.J.K.F.h.k.J.6.: w 7 r u w u r w x v.J.F.~.J.J.J.!.F.J.`.F i ",
"9 w # * u w O >.D.h.F.i.h.h.h.F.h.B./ = w w y e u y # = [ A.J.J.h.J.H.F.i.F.D.1., = w = i f w   - N y.R.T.T.J.F.J.F.F.h.].m : - ",
"w - = w w > >.I.F.Y.R.h.a.G.F.j.A.{ = u u w * g y   = R C.F.~.F.J.H.a.Y.J.Z.8.> y e = w u . - w z q.L.T.R.Z.H.a.!.F.h._.K = * p ",
"w w w w , >.L.~.G.F.h.l.F.s.h.B.W & w 0 y * % y - - ] k.F.G.F.T.J.h.U.H.l.8., = 7 - u y w w $ B r.l.!.l.F.J.L.U.a.h.`.K & - i g ",
"w y y < :.L.F.h.J.l.h.G.F.F.A./ : = - y y e w 7 & ' S.F.p.h.T.F.a.i.j.l.4.2 w r r w w y y p M y.J.R.T.h.s.G.~.F.J.b.K $ -   y y ",
"  w & :.I.H.h.i.l.!.p.F.F.B.| = y r w e u w w e ' A.J.G.a.T.l.J.g.j.k.1., e r u u p r r w b r.R.F.h.Z.K.G.!.T.j.m.H ;   w 9 w w ",
"# > :.V.F.l.J.F.h.!.G.l.S.| = e y u w - w y > ' [.l.F.J.l.R.F.J.h.C.8., w r w p u i p * z w.h.F.h.J.H.P.J.!.Z.n.J & - u 9 w y t ",
"; <.j.F.F.T.F.K.!.H.J.k./ = u # w w u y 7 t T C.a.!.h.J.l.J.F.s.H.7.O = r i y r u - t V r.l.H.h.K.F.!.T.J.J.m.H r ; e f y w * u ",
":.C.s.F.J.h.h.F.K.F.S.{ : w w r w i y r t ' M.i.U.F.J.F.!.h.J.H.6.O y 7 - y y y i r l v.l.H.H.J.J.H.F.T.l.`.H r 0 r e y u y * r ",
"l.l.F.F.~.l.F.J.J.S.) X = t w u w r - $ W S.L.F.h.J.J.h.U.J.D.8.+ $ e w w u u r ; B ).l.U.T.J.F.H.!.i.h.`.J $ e w r w w i - O 2.",
"G.h.h.~.!.F.F.J.S.) ; 9 y - * u y w ; ! k.G.p.F.K.J.s.F.l.Z.0.O w u = g w r i e c ).l.U.T.l.F.Y.G.h.l.]._ = e u e w r w - O ;.D.",
"F.i.l.L.G.F.K.B.) : y 9 f e ; w u t E N.l.p.K.l.H.F.!.J.l.8.> = r - y g y - & V y.h.g.h.J.F.L.!.U.J.n.K & * y f y u = w > *.Z.F.",
"F.h.!.G.G.s.S.) : t r u y e w y $ Q B.L.J.J.h.J.F.F.F.L.5., e r - w y y 9 e c y.l.h.R.j.!.F.L.J.R.].L % - w y 9 w y w : *.D.H.h.",
"h.~.a.s.!.S...= p - ; p e p w * W B.J.p.h.h.l.F.h.F.E.0.: e t w w y * - - n w.l.F.h.Z.K.s.!.U.j.].H = ; e y r w r - 1 *.V.L.J.h.",
"R.!.F.~.S.| = y r w t t y w > Q B.Z.G.G.i.h.l.p.J.C.0., e - e p p w r # m w.i.j.!.J.F.H.K.U.l.].J $ - i y - r # % 2 -.D.F.!.h.J.",
"F.H.H.C.^ t u & i p p u 7 e Q B.h.H.l.F.J.h.j.h.l.1.+ = w y w - w - w N y.R.j.j.J.J.!.h.F.H._.H r t e u i w p y - ;.I.~.i.U.F.P.",
"H.F.{./ O y i r u - w w & E S.p.i.T.J.K.F.h.h.l.4.> u w r y u y r r x z.F.J.h.F.H.H.p.F.l.`.H w i r = y h w % & @.D.K.J.!.h.!.J.",
"F.{.E $ e w g u y r - t [ D.H.l.g.J.H.F.i.h.D.1.: ; w - w u w % w b ).T.T.T.J.i.F.h.h.l.b.m & t w r p u y w 2 =.D.Z.F.i.F.!.h.J.",
"M.{ = y w w e u i - ; [ A.F.F.j.l.H.F.i.J.Z.1.O y w = y w   - e l ).H.T.T.C.j.i.h.p.h.b.K # - p e w i t r = -.I.F.a.h.~.J.J.F.G.",
"} & y 0 r - = r - ; } A.F.G.F.l.H.a.!.F.Z.4.X - r # w u y w # M v.h.!.T.j.K.H.i.a.l.`.C $ r u j u u - w > -.D.F.F.Y.T.Z.J.G.!.T.",
"$ w i r p t r . & [ S.F.a.i.F.l.i.h.H.l.8.O w w w w w i y w l r.l.i.h.F.s.p.J.F.l._.K & - r i i h p - 5 *.I.F.U.J.!.!.F.K.J. Xo.",
"r j e ; p u w t [ S.F.G.a.U.h.l.g.F.k.4.O e - y y u - w w l r.g.F.h.l.K.a.l.T.F.`.H $ - r u t r r r & *.L.J.!.T.R.T.a.s.!.}.O.1 ",
"i u e t t w < W A.H.F.H.h.h.i.H.l.Z.4., y w w w p - - # b r.g.l.h.J.l.J.H.T.E.n.P $ * p i r p t ; > ;.I.!.!.J.F.h.F.F.h.S.#.< g ",
"r p w 7 8 t E V.Y.F.F.l.l.h.F.F.Z.1.O - - u w e y - w m y.l.F.h.H.F.i.U.F.H.`.J i r e j i r t p 3 *.D.F.T.~.~.K.F.L.J.E.+.& p ; ",
"u u w w & E {.G.U.h.H.K.F.h.l.l.4., u . r y w e r r l z.l.h.F.F.H.l.~.i.j._.F w h w t p i t ; ; =.}.G.G.J.~.~.a.K.!.S.O.1 p p ; ",
"= u w $ R {.Z.i.T.H.K.F.i.h.D.4., * e - w y r r - M (.h.h.h.j.F.F.H.F.h.m.H $ e r r e p p r O -.S.~.Y.Y.~.~.~.K.F.Q.+.2 s p p p ",
"- r t R C.H.G.h.J.H.F.h.j.k.8.> y y = u y w - - c q.L.h.h.Z.H.F.F.F.h.`.K & - e = - r t r > *.I.Y.!.!.~.~.G.~.J.W.$.: i p t t p ",
"w % R C.F.p.F.J.H.a.U.F.l.8.X - 7 e u y g w & M y.h.h.l.h.G.L.i.h.g.m.A & - i f y w r - & &.D.!.!.Y.~.^.K.G.~.E.$.: w i j p ; i ",
"# T C.F.G.a.F.l.F.i.F.k.3.> w - - w y y y w b y.H.h.h.F.s.a.J.h.l.m.H = - - i y f 7 w & &.Z.J.!.!.~.~.K.K.s.Q.$.1 p p p d t t q ",
"U [.L.K.i.T.l.J.h.F.Z.6.> e * u y y - w t M r.l.h.R.C.K.a.!.h.J.n.H $ r r y r r w w & *.C.J.!.~.~.~.!.G.!.Q.%.s p p t t t t t p ",
"k.Z.J.H.h.l.J.F.l.D.5.O w w 7 y y w - ; c t.h.J.F.j.g.H.K.i.C.b.H & e w y r u ; # , -.D.G.U.J.J.~.~.~.~.W.%.1 p r p d ; 8 t 4 ' ",
"a.F.F.!.h.F.J.F.J.6.O - e y w e y % e V r.l.l.F.F.F.a.h.g.g.c.H r e w y y i r e & -.D.K.T.T.J.K.!.K.K.Z.+.1 p ; t t p h 8 t ' [.",
"U.T.K.F.F.h.l.H.8.@ y w - y w e 7 r c v.l.F.l.K.H.F.F.i.l.b.H   0 w e y y y # = *.D.G.F.H.l.~.F.K.a.Q.&.2 p p t u t - i & Y A.F.",
"T.j.H.F.a.F.Z.0.+ = e e w w y * = M '.l.i.h.J.F.J.F.i.h.n.H X e e w e e y * O -.D.l.~.F.R.J.F.K.~.Q.$.1 p p p e u t - = ` S.L.L.",
"l.H.F.F.J.Z.8.O u e * g w r r * x _.l.!.T.l.h.Y.~.i.h.m.H $ * u t e y - = , *.V.F.h.l.l.T.F.G.F.S.$.& h p p p g u - % I B.J.F.~.",
"K.i.i.F.l.8., * r r g g y w $ b z.l.!.h.h.K.P.T.U.F.`.K = - w y y u - w O *.C.F.G.!.h.l.F.s.~.Q.$., t r p t 3 i p = Y N.H.K.F.Y.",
"F.i.F.L.3.O e - - w u i y * n y.J.T.R.J.s.p.J.F.l.n.K = r e w 7 y i - : *.D.F.h.~.R.F.F.G.!.S.O.1 t r i p t - 8 & Y M.H.J.J.!.h.",
"h.J.Z.4.: e = w w p w r w c d.l.F.l.Z.J.F.T.~.H.`.F # ; * y w 7 - r : -.D.j.l.~.R.J.F.p.G.S.O.t u u p p t r t t ` S.J.K.J.T.T.J.",
"^.Z.8.O w -   w e u r & m e.i.J.F.l.H.J.J.h.l.`.H = - w y - y w % > -.D.!.!.J.J.~.F.G.F.S.X.1 p u p u t r i : ` |.L.!.F.F.T.!.J.",
"G.3.O = w y e - w * w Z (.l.!.j.F.G.Y.T.!.G.c.D w = u f 9 w - e t 2.D.J.U.U.J.J.~.L.F.~.o.= r & - t p p 8 w ` [.F.a.a.T.l.h.s.K."
};
