/* XPM */
static char *_f35a406c3734afdb208c747f6702317[] = {
/* columns rows colors chars-per-pixel */
"64 64 230 2 ",
"   c #262C1E",
".  c #2C311C",
"X  c #32341D",
"o  c #39371E",
"O  c #302F1B",
"+  c #242B23",
"@  c #282E27",
"#  c #27302A",
"$  c #2C342B",
"%  c #283125",
"&  c #343622",
"*  c #363923",
"=  c #3A3B25",
"-  c #343D2D",
";  c #3B3C2A",
":  c #32362A",
">  c #353C34",
",  c #383D37",
"<  c #2F3228",
"1  c #433D2A",
"2  c #423F31",
"3  c #3E412B",
"4  c #3F4227",
"5  c #3C4334",
"6  c #3C453B",
"7  c #3D493D",
"8  c #43432D",
"9  c #49472D",
"0  c #444433",
"q  c #4A4633",
"w  c #454A34",
"e  c #4B4B35",
"r  c #444B3B",
"t  c #4C4D3A",
"y  c #494639",
"u  c #534C35",
"i  c #534D3D",
"p  c #4D5337",
"a  c #47503D",
"s  c #4D523C",
"d  c #465037",
"f  c #52533D",
"g  c #5A543D",
"h  c #5D583B",
"j  c #565638",
"k  c #514C2C",
"l  c #625D3E",
"z  c #66623F",
"x  c #3F4941",
"c  c #444D43",
"v  c #4A4E42",
"b  c #465143",
"n  c #4C5343",
"m  c #4C544A",
"M  c #4E594B",
"N  c #4C5846",
"B  c #525543",
"V  c #5A5542",
"C  c #535A45",
"Z  c #5C5B45",
"A  c #53564A",
"S  c #5C5749",
"D  c #535B4C",
"F  c #5B5D4B",
"G  c #545D53",
"H  c #5B5E51",
"J  c #4D5651",
"K  c #635D43",
"L  c #625E4B",
"P  c #6B5F47",
"I  c #635D51",
"U  c #5C6147",
"Y  c #55604E",
"T  c #5B624C",
"R  c #5B664A",
"E  c #566254",
"W  c #5C6453",
"Q  c #5E6854",
"!  c #5E665A",
"~  c #5E685C",
"^  c #57645A",
"/  c #6B6446",
"(  c #64624C",
")  c #6B654C",
"_  c #656B4D",
"`  c #6D694D",
"'  c #666345",
"]  c #736C4E",
"[  c #796C4B",
"{  c #636553",
"}  c #6A6553",
"|  c #646B55",
" . c #6C6B54",
".. c #62655A",
"X. c #6C655A",
"o. c #646C5B",
"O. c #6C6C5B",
"+. c #736D54",
"@. c #736C5C",
"#. c #72655A",
"$. c #6B7254",
"%. c #66725C",
"&. c #6C735C",
"*. c #687457",
"=. c #757255",
"-. c #7B7455",
";. c #74725C",
":. c #7B745B",
">. c #757A5C",
",. c #7C795D",
"<. c #79734F",
"1. c #646C62",
"2. c #6B6D62",
"3. c #666E6A",
"4. c #746E62",
"5. c #7A6D63",
"6. c #766160",
"7. c #657164",
"8. c #6B7363",
"9. c #677168",
"0. c #6C746B",
"q. c #6E7A6C",
"w. c #6D7A64",
"e. c #757363",
"r. c #7B7464",
"t. c #747C65",
"y. c #7C7A63",
"u. c #74756B",
"i. c #7B7569",
"p. c #757B6B",
"a. c #7D7B6B",
"s. c #6C7571",
"d. c #6E7971",
"f. c #6F7879",
"g. c #717671",
"h. c #747C74",
"j. c #7A7E75",
"k. c #757D7A",
"l. c #797F7A",
"z. c #837B5D",
"x. c #84785A",
"c. c #807665",
"v. c #837C63",
"b. c #82766B",
"n. c #827C6C",
"m. c #897E68",
"M. c #837E72",
"N. c #8A7D73",
"B. c #877771",
"V. c #806E6A",
"C. c #7E8264",
"Z. c #7C826C",
"A. c #778269",
"S. c #7B8274",
"D. c #76817A",
"F. c #7C847C",
"G. c #7A8777",
"H. c #8A835F",
"J. c #86805E",
"K. c #858265",
"L. c #8A8465",
"P. c #8E8963",
"I. c #84826C",
"U. c #8B856B",
"Y. c #8C896C",
"T. c #828A6F",
"R. c #918B66",
"E. c #92856B",
"W. c #928B6D",
"Q. c #988E6B",
"!. c #96916D",
"~. c #9A926F",
"^. c #858373",
"/. c #8A8474",
"(. c #838B73",
"). c #8C8A74",
"_. c #81867C",
"`. c #8C8579",
"'. c #838A7E",
"]. c #8C8A7A",
"[. c #938D73",
"{. c #928B7B",
"}. c #91827B",
"|. c #8A9277",
" X c #959274",
".X c #999374",
"XX c #9C9976",
"oX c #93927C",
"OX c #9A947A",
"+X c #9D9A7A",
"@X c #A19C7D",
"#X c #A0977A",
"$X c #A6A17E",
"%X c #7C8581",
"&X c #7E8982",
"*X c #818681",
"=X c #848B84",
"-X c #898D84",
";X c #858D89",
":X c #898E89",
">X c #918D81",
",X c #8A9186",
"<X c #87928A",
"1X c #8B938B",
"2X c #87938A",
"3X c #969383",
"4X c #999482",
"5X c #91948B",
"6X c #939A8C",
"7X c #9A9984",
"8X c #8D9691",
"9X c #8E9A92",
"0X c #949B93",
"qX c #989D94",
"wX c #959C97",
"eX c #A39D82",
"rX c #A69C83",
"tX c #9CA296",
"yX c #96A199",
"uX c #9BA39B",
"iX c #99A699",
"pX c #98A186",
"aX c #A6A483",
"sX c #AAA685",
"dX c #B1AB8C",
"fX c #AEAD96",
"gX c #9EA6A1",
"hX c #A2ABA1",
"jX c #A2A7A3",
"kX c #ADB5AA",
/* pixels */
"c.{.m.x.L.-.K.v.Y.m.U.L 5.@.b.b.n.b.B.b.c.^.y.r.:.t.n.r.c.r.c.r.b.N.N.n./.b.{.v.b.c.b.n.5.b.5.#.5.X.5.X.I [./.v.U.[.Y.z.v.:.n.L ",
"@.+.x.x..XY.Q..XY.OXq } /./.}.B.n.n.{.).^.n.I.y.n.c.m.n.c.v.^.n.r.n.3X/.n.N.n.n.i.b.{.B.B.5.5.5.5.i.B.X.r.i m.@.m.m.] Y.U.Y.v.u ",
"+.:.} P z.-.=.` +.g g @.^.OXOX).{.N.)./.{././.n.y.n.n.I.^.^.n.n.M.^.^.N./.M.M.i.a.`.M.`.`.`.M.B.n.5.i.i.X.K L f e K =.' K ] K g ",
"m.} -.K ` -.,.U.r.V S ;.y./.v.N.t.e.n.e.n.r.;.y.e.r.;.e.a.^.n.e.i.i.j.i.r.M.4.r./.i.N.i.N.N.4.4.e.n.r.o.O.( S g h =.+.:.m.c.u u ",
"E./ K ` +.y.v.S L F @.I X.(  .=.>.| &.{  .( } {  . .}  . .{ ( C F { | O.} O.( ( { } } ) { Z | O.F F F I I o.L t p )  .=.c.+.u / ",
":.:.z.v.c.I.} A u.S n B e.I.t.>.Z.&.( C B s ( u V S ( _ F s e d f { p F T Z F g f u e t 3 Z f R |  .t ; t < 5 ; p Z K.,.U.v.K j ",
"+.x.I @.;.F I I F 2.5XF O.(. .t.pX|.A.w 0 4 8 8 1 8 8 8 8 8 3 0 0 0 0 ; 0 u 1 0 8 8 q 0 s %.A.*.e.8.| D t S F e...T f ).).v.K g ",
"+.+.@.:.S i 2.2.0.F.p.qXO.t.t.Z.|.(.Z.9 $.t.K t.+.:.=.=.$.K.>. .&. .(  .c.^.:.@.V } { | s y.A.*.t.p.Q r G h.;XqXS.} C e.r.P u i ",
"c.:.@.@.X.0.u.j.j.j._.1.0Xo.&.Z.Z.A.A.w $.C. XU.oXY.XX@X X XC.K.y.Y.Y.T.Y.+X XY.,.K.T.' p h (.G.%.~ n G 3.F.,X=X'.e.e./.a.@.P 1 ",
"r.I.I S A I ..g.j.f.l.l.j.6X| 8.&._ A.4 $.Z.7XY.+XOX+X@X@XaX$XXX XsXK..X@X XW.K. XK.>.>.p &.A.Q Q 7 m h.h.d.tXh.-Xj.A B S { 1 F ",
"4.i y t I : $ 1.g.f.:X*X5X=XtX%.%.G.%.w = A.K.I.v.aXXXXXfX$XXXXXY. XP.P.+.:.U. XK.;.,.* f t.8.%.M E d.<X2X;X=XyX_..., O.v V v V ",
"i L e.4.X.B A   g.=X-XwX;X=Xp.tX| o.| F f o T =.(.[.fX$X!.$XsX@XdX[..X$.+.-.Y.I.;.;.4 s o.w.Q D b 3.2XyXF.&Xd.F.8.r i a.6.V.I 2 ",
"I i.b.;.@.8.A H   0.j.%Xg.F.*X-XiXW %.8.C C * O.t.U.Y.+X$X$X$X!.L.P.z./ x./ K.=. .o s O.t.o.D A 9.<X_.1XD.q.2X1.v B ..^.b.M.5.6.",
"5.`.^.c.>.y.t.{ a % h._.0X:X5X_.F.hXE D 8.n n & ( U.+X+X.XR.R.R.R.~.x.l ,.=.K.' 4 s e.| ..D m S.;X;X1X9XF.F.9.b D A s ^.a./.`.i.",
"n.r./.^.C.&.| | | r + h.5XwX:XwXk.0.gX~ M 1.Q n * ( (. XXXXX@XH.-.x.E.) Y.=.( 3 t %.w.1.M m 3.F.5XhX<X=X*X~ N n ..C B ^.i.'.5.a.",
"r.b.M.I.&.K.(.&.Q d r , j.5X*X:X=X&Xk.uXG ! 8.Q N * { C.XX#X@XaXL.E.z.z.,.` = Z n O.H m G 0.%X;X1Xh.1XF.q.b Y N w.| C ).i.N.B.X.",
"5.c.n.e.&.*.| *.R U s 7 3 h.l.:X%X=X*Xl.gXG G D E a 5 | C.Y. XaXm.E.m.=.) = A | O.A n A 7.<X2XF.0X,X_.1.m D Q Y t.Q U T.n.].b.@.",
"e.r./.e.&.=.| (.C._ R N 5 : s.%X;XF.=X8Xg.jX..! %.o.b 3 _ |.K.dX[.E.)  .= t T | A B H h.S.<XiX_.0X'.O.n W o.o.%.G.w.Q S.t.c.b.5.",
"4.i.].a.t.t.| w.$.$.%.{ n 5 , s.0.%X<X=XwXl.jX1.b W U w * A.y.L.E.v.;.o s W T D r H S.>XF.G.1X,XF.8.A D o.8.%.t.*.A.&.^.a./.n.@.",
"#.r.i.i.;.R t e 8 e A v C n y > s.;X0X_.5Xg.l.yX~ E &.&.w X =.I.` } = Z s C n n G g.-XuX5X_.1XS.0.v E H T t s e p d C T.a.B.4.5.",
"M.n.j.a.e.f 0 W U f * B I m c , $ h.D.%XtX5XF.=XgX! F *.| V t p f p e s a b r ~ *X*X-X*X=Xh...j.r { { O.r & o.{ T w Z a.e.].i.M.",
"M.i./.M.O.f 0 O.:.:.( & y S v m x # h.<X5X_.:X*XF.qX! o.*.t.t.w.;.Z N D b 5 ^ D.1X5XqXqX;XM.8.r F o.W t & ( :.t.y.q n ^.a.a.X.b.",
"e.i.].j.@.V ; { +.+.} g * t B H M b > 3.*XuX5X1X*X1.0X~ W y.W %.8.A.s n c J 3.=XwX*X_.:X:Xu.B n F o.B O L @.;.{.O.q t ^.a.N.i.i.",
"e.M.^.n.O.e 0 } -.` r.I V = 0 W ~ ^ c : %X:XqX^._.1X9.uXW W Z.'.O.C W a n 3.D.:X;X1X*X=X0.r v | { s X | L e.^.@.;.q q ^.u.a.M.4.",
"a.j.oX^.;.q q V ] ,.=.[.+.l o f t.8.C 5 6 D.&X1XA.'.0.1.hX1.W p.G.F m A F.1Xh.wX9X&XG.7.b n W | e o K r.;.c.:.I.} e 0 M.a.e.`.u.",
"a.a.`.^. .e 8 g ` z.z.]  Xx.-.& t p.A.Y b % D.G.G.=XF.*Xd.uXQ H D r H j.=XhXF.F.=X&Xq.5 b A D w . g t.@.@.v.b.c.@.q e ).^.^.B.2.",
"n.^.`.(. .f q S ] [ x.W.Q.x.x.[ = s W | M x # D.gXF.5X'._.0.0XW n G u.0X*X0.uX2X2XG.7 Y Y C 5 X  .) U.@.+.c.@.n.L 1 y `.^.].M.a.",
"I.^.^.I. .p q K ] <.] x.H.#X#Xx. .X t t.A.A.x 5 0.%X(.'.F.0Xj.hXF.g.*X_.-X5Xj.=X%.7 b Y T 0 o $. .Y.+.` @.I.c.:.} 8 g `.a.M.j.M.",
"n.^.].M.O.p e ( ,.-.R.z.H.~.Q.x.v.:.= s U t.x x @ %XF.S.].hX_.<Xh.F.;XwX*X*Xu.u.r s Y U 8 X +.v.v.,.-.U.@.+.r.v.e.e p ).a.^.n.M.",
"n.`.>X_.e.s q ( ] H.] -.x.x.Q.Q. X:.| X d G.A.M m $ 1.<X6XiX<XF.1.1XuXyXqX>Xo.n s W C p o K c.c.U.r.` @.c.} :.@.O.0 0 ].^.).).M.",
"M.].-X`.O.f 0 F $.C.-.z.R.z x.R.rX.X+.I.d w.A.G.7.b > s.-X,X0Xh.9X%XD.1X=Xo.n n U *._ 8 ( v.E.rXrXm.rXm.r.+.+.e. .8 0 ].M.]./.N.",
"^.>X`.`.O.C w | J.!.-.[ x.H.[ P.x.v.,.>.r A.D.%.W N 5 + F.1X,X1Xf.s.0X*XuXM n T T T $.e _ / rXm.[.[.c.m.v.P ;.e.;.8 0 ]./.4X].{.",
"i.`.3XM.O.C q +.W.W.-.v.x.E.P x.v.:.y.8.7 ~ A.Y H m c @ F.2XF.8XD.D.;XF.kXD N T 8.| ( p ` =.[.Y.[.[.c.z.L.z.=.t.L q q ^.j.`./.5.",
"4.^.`.a.O.t 8 t.K.Y..Xv.E.P P c.v.y.| R 7 7 M N m c c 3.h.0X<X2X&X9Xh.2Xq.yXE Q Q Z.s w p K.eXW.E. XY.W.-..X,.Y.( 0 t _.n./.N.i.",
"5.j.M.a.r.( 9 :.K.W.] x.x.E.K ` ` L R 4 d N 7 7 , c 1.j.&XwXF.&X;X1.F.F.F.9.2XY D R | e o t.L.aXeX.XW.-.-.z.v.Y. .e Z ^.a./.M.4.",
"#.i.`.a.@.T 1 +.L.OX[ x.v.+.:.r.) } 4 C N M x 5 J =Xk.*XwX9X9XD.<X~ D.2X2Xh.s.yX~ C &.s t = +. X[.K.R.+.,.z.W.W.:.q ( ^.n.^.B.4.",
"X.4.M.i.O.F 9 ( L.Y.U.x.:.] K.(.V = B n Y x 7 E h.8X;X&X;XD.D.x # &X<X<X9XyX&X1.gX~ 2.u.&.9 X v.XXY.XXXXJ.P.P.U.-.8 L I.a./.N.:.",
"r.u.4.a.@.V q ) :.z.v.L.K ,.+.} ; r 6 r ^ x ^ 7.&X%X0X9X;X&X9.7 x + f.f.<XF.f.&X9X9X9.Q Z.T.f = K.Y.K.=.!.H..XL.-.8 L I.i.^.c.4.",
"X.j.i.e.@.S q ` U. Xz.v.Y.T.O.* B o.o.m x E ^ 2X9X8X<X9Xh.~ b c 7 x # &X&X%X<X<X3.k.qXW 8.T.W e . K.Y.$XK.+XL.[.z.8 L n.r.n.r.@.",
"4.i.^.O.r.5.1 +.` U.P.L.Y.K.* n ..h...c E A.2XyX2XD.9X<Xs.x x m E 7 x # s.%X%Xf.f.l.k.0Xo.t.a.2.p X C. X!.@XK.XX:.1 L ^.@.r.4.@.",
"X.u.a.4.e.( q :.,.[. Xv.;.= w A.o.~ b E 9.G.<X&X&X2XG.&XM b o.c d.E M x # k.f.%Xk.k.&X1.yX8.o.(.t.t X ,.Y.Y.+X XU.q } c.e.r.4.X.",
"X.i.j.i.e.F q ) I.,.K.;.= B &.o.^ b m h.k.s.yXD.2XF.d.x M 0.r ..o.8.8.M b # f.k.f.f.D.k.h.6X{ w.o.| s . I.a.aX)./.0 F M.X.i.i.4.",
"X.4.u.4.I w q &.,.,.:.* s e.o.1.M E d.;X2X;X%XyX&X9.b M b A F W T o.C ..W b @ J 9.D.;X;X0X'.iX2.8.S.| t X C.y.y.+.q { i.2.5.5.4.",
"X.2.u.e.{ 3 e | U &.* V { %.8.M b 1.1X9XF.;Xq.&X9.c M A E n r 0 0 s C 8.8.W m @ o.F.;X0X,X'.h.0X1.Q 2.W a * *.R 8.f o.a.2.i.i.X.",
"X.2.e.o.{ 0 f f d p g *.A.1.M G 8.<X;X1XF.u.;X1.m m 7.b t 3 B f U Z * r | Z.Y D + s.S.F.q.S.=X;XuX9.W o.Q a a d n n W p.X.B.i.X.",
"X.4.i...W n | R T t.&.Q o.G m D.=X;X8X1XF.F.3.m G m N a : ( {  .t.C.&.* a y.y.W m : h._.qX,X5X_.F.gXo.W Q R *.%.Q t.t.^.i.i.X.4.",
"I 5.i.e.o.R w.&.| A.8.7.n b s.D.2XhX;X=X;XI A m 1.n 7 . d B t.[.|.|.P.U . C T W W r + j.6XwX:XqXh.0.yX^ Y %.%.Q Z.&.%.p.O.@.5.#.",
"X.6.2.e.{ Y | %.T *.T v M G D.2X9XF.1XF.s.v H n Q n . | { I.e.m.U. XfXC.K.X B W ..a n > h.1Xl.1X;X=Xk.iXE E %.A.%.| | ^.2.e.4.6.",
"X.4.2.X.| C | t.&.C a A ..h.uXj.1X0X=X1.A A o.n w * Z (.;.m.4X;.sX[.@XXXT.>.. s S H t c - h.S.=X%X;X;Xk.iXE E Y *.| Z a.;.O.u.4.",
"X.4.#.{ ( f  .( a A H h.0.*X_.*X5X;X1.n Q ..D s & ( r.t.c.r.:.m.v.P. XaX.XK.) X t ! I v 0 $ 8.F.;X%X&X8Xd.iX~ W *.&.{ A.O.e.4.2.",
"I O.X.r.} A { A a E 9.g._.l.3.h.o.w.n Y Q 2.r &  .t.[.{.Y.:.v.OXz.Y.XXdXXX$X=.>.X t ....m , 5 h.s.;X8X;X9XF.hXo.n | A a.O.e.j.X.",
"I X.e.( ( w B v E 8.-X0X*X*X-Xj.q.r Q F Q t X >.t.).v.[.[.,.x.#Xz.Y.Y.~.!.R.R.H.;.X B B A n 6 $ 3.;X8X%X8Xd.D.tXE Z } a.X.4.X.} ",
"/.N.P L F 0 y ..=X*X_.=X-X_.F.p.N Q Q Q t & @.;./.OXOXdX#X/ Y.:.E.x.XXW.~.P.J.R.] ( = p W A 7 6 $ k.D.F.iX9XF._.jX..F i.O.} >X{.",
"U.z.@.c.X.O S j.:X1XuX<X<X=X8.r C Q *.s * Z ;./.{.Y.I.[. X-.XXXXK.U..XW.R.H.H.H.L.-.f = n C r D 7 @ D.<X8X%X<X=XM.>X2 3X{.4X7X@.",
"c.E.+.:.]. .H -XqX5Xk.1X,X8.r C R A.| 8 { | a.).N.[.m.U.m.+XL.Y.aX,.Y.!.!.z.XXz.-.=.) f e 3 R R C b - 7.G.yX9X<X_.H a.4XOXrXV g ",
"x.] v.` ( ( O.].5X5X_.F.w.7 N Q *.*.| w B } ^.r.^./.v.U.K.:.C.=. X). XK.K.P.z.K.z. .$.Z w Y R R | Q r - G.<X0X&X_.a./.).V v.@.:.",
"#Xz.L.v.( n.y.].>X*X_.2.r n | *.| Q | w C O.I @.X.L L ( ) ` >.$.;.O.t.+.) ) +.( P } L &.e U $.A.(. .C 7 - u.,X,X..^.7X).U.[.K -.",
"z.H.,.z.,.+.t.^.i.e.2.5 a B ( &.| R *.d 8 t 2 t y q e q 9 4 9 9 t w t e q q e q 9 0 0 t p $.C.>.(.(.A.C r % 8.o.7X].eX@.:.L./ P ",
"z.P.z.z..XK. Xa.a.a.; p A C | *.O.T  .t 0 t y y 2 y t q s 8 q s 0 0 0 n t i y 2 y , t B ( U _ _ $.=.W Z f - '.(.{.I.,.-.:.L./ h ",
"z.] -.z.W.K.K.,.n.e { r.y.Z.).^.^.Z.^.r.u.n.a.M./.^.^.n.(.Z.Z.I.^.(.a.^.N.'.M.^.M.M.M.a.(.).Y.K.I.(.I.I.Z.7X].7XI.y.+.` m.` ) K ",
"m.v.K.W.z.L.-.,.) ) V @.n.).y.S.;.n.r.r.n.r.i.n.^.n./.I.a.a.n.I.^.`.^.^._.`.^.S.M.N.a.u.c.m.:.r.;.@.r.t. .oX(.y.U.K.@.P ` +.( #.",
"r.[.) ,.h L./ <.' ` V @.c.`.).^.B.{.b.I.{.^.I.I.].I.>X]./.].].].`.-X3X].4XoX]./.{./.`.N.`.b.5.B.B.N.b.m.O.4XoX:.v.+.P -.+.+.#.V ",
"c.I f k l l z h u h ` @.B.a.i.`.B.B.V.c.n.N.n.m.{.I.{.(.].)./.`.].{.{.`.).).).).).^.M.5.`.}.B.B.B.N./.r.].7XZ ) :.( o ) u L } L ",
"} i u u k h k k k 9 V V 4.i.5.b.:.V.c.c.c.v.r.v.r.c.^.v.^./.M.].`.`./.)./.U.I.(.M.n.M.B.B.V.6.5.B.V.5.} a.K Z h j j h V g i S I "
};
