/* XPM */
static char *result[] = {
/* columns rows colors chars-per-pixel */
"50 62 149 2 ",
"   c #7E6E6E",
".  c #7E7474",
"X  c #7E7D7D",
"o  c #BD1D1D",
"O  c #973B3B",
"+  c #9D3C3C",
"@  c #AB2626",
"#  c #AB2929",
"$  c #B42323",
"%  c #B82121",
"&  c #A43333",
"*  c #AA3232",
"=  c #C61919",
"-  c #CA1D1D",
";  c #CB2222",
":  c #CB2C2C",
">  c #D22525",
",  c #D52828",
"<  c #DE2C2C",
"1  c #CC3131",
"2  c #C63B3B",
"3  c #CE3B3B",
"4  c #D73737",
"5  c #D03B3B",
"6  c #E12E2E",
"7  c #E33333",
"8  c #ED3333",
"9  c #ED3D3D",
"0  c #F13535",
"q  c #F23B3B",
"w  c #8F4C4C",
"e  c #974343",
"r  c #9A4141",
"t  c #914B4B",
"y  c #8B5656",
"u  c #845B5B",
"i  c #8C5E5E",
"p  c #935454",
"a  c #9C5656",
"s  c #925959",
"d  c #AA4040",
"f  c #BA4242",
"g  c #866767",
"h  c #8A6363",
"j  c #836C6C",
"k  c #9C6060",
"l  c #807171",
"z  c #817E7E",
"x  c #8B7C7C",
"c  c #997373",
"v  c #A96767",
"b  c #B76A6A",
"n  c #BD7575",
"m  c #B17E7E",
"M  c #B97E7E",
"N  c #D14444",
"B  c #D94444",
"V  c #D34B4B",
"C  c #DE4E4E",
"Z  c #C65D5D",
"A  c #D55555",
"S  c #DC5353",
"D  c #D45B5B",
"F  c #E54646",
"G  c #EC4444",
"H  c #E34D4D",
"J  c #ED4D4D",
"K  c #F44343",
"L  c #F94545",
"P  c #F44C4C",
"I  c #FA4B4B",
"U  c #EB5454",
"Y  c #E85B5B",
"T  c #F65353",
"R  c #FE5555",
"E  c #F55C5C",
"W  c #FB5959",
"Q  c #CE6363",
"!  c #C16F6F",
"~  c #CB6C6C",
"^  c #D16161",
"/  c #D36F6F",
"(  c #DB6A6A",
")  c #C07171",
"_  c #DD7575",
"`  c #D67C7C",
"'  c #DE7B7B",
"]  c #E66464",
"[  c #EA6363",
"{  c #E46B6B",
"}  c #F56363",
"|  c #F46E6E",
" . c #E27373",
".. c #E07B7B",
"X. c #EC7C7C",
"o. c #F37474",
"O. c #F87575",
"+. c #F57D7D",
"@. c #818181",
"#. c #888686",
"$. c #8C8B8B",
"%. c #928D8D",
"&. c #9D8C8C",
"*. c #959595",
"=. c #999090",
"-. c #9B9B9B",
";. c #A18686",
":. c #AC8383",
">. c #A28888",
",. c #A4A4A4",
"<. c #ACACAC",
"1. c #B1A2A2",
"2. c #B4B4B4",
"3. c #BBBBBB",
"4. c #DF8282",
"5. c #DA9393",
"6. c #D79E9E",
"7. c #E18383",
"8. c #ED8080",
"9. c #E38D8D",
"0. c #F68383",
"q. c #F68C8C",
"w. c #E49393",
"e. c #EE9E9E",
"r. c #F89A9A",
"t. c #CBADAD",
"y. c #D5A0A0",
"u. c #D5AAAA",
"i. c #D9ADAD",
"p. c #D4B3B3",
"a. c #D2BBBB",
"s. c #E7A0A0",
"d. c #E9A5A5",
"f. c #EBACAC",
"g. c #F9A4A4",
"h. c #F9AAAA",
"j. c #ECB1B1",
"k. c #EFBDBD",
"l. c #F5B1B1",
"z. c #FAB5B5",
"x. c #F1BEBE",
"c. c #FABDBD",
"v. c #C3C3C3",
"b. c #CFC0C0",
"n. c #CCCCCC",
"m. c #F3C2C2",
"M. c #FAC5C5",
"N. c #FBC8C8",
"B. c None",
/* pixels */
"B.B.B.B.B.B.B.B.B.B.B.B.B.B.B.B.B.B.B.B.B.B.B.B.B.B.B.B.B.B.B.B.B.B.B.B.B.B.B.B.B.B.B.B.B.B.B.B.B.B.",
"B.B.B.B.B.B.B.B.B.B.B.B.B.B.B.B.B.B.B.B.B.B.B.B.B.B.B.B.B.B.B.B.B.B.B.B.B.B.B.B.B.B.B.B.B.B.B.B.B.B.",
"B.B.B.B.B.B.B.B.B.B.B.B.B.B.B.B.B.B.B.B.B.B.B.B.B.B.B.B.B.B.B.B.B.B.B.B.B.B.B.B.B.B.B.B.B.B.B.B.B.B.",
"B.B.B.B.B.B.B.B.B.B.B.B.B.B.B.B.B.B.B.B.B.B.B.B.B.B.B.B.B.B.B.B.B.B.B.B.B.B.B.B.B.B.B.B.B.B.B.B.B.B.",
"B.B.B.B.B.B.B.B.B.B.B.B.B.B.B.B.B.B.B.B.B.B.B.B.B.B.B.B.B.B.B.B.B.B.B.B.B.B.B.B.B.B.B.B.B.B.B.B.B.B.",
"B.B.B.B.B.B.B.B.B.B.B.B.B.B.B.B.B.B.B.B.B.B.B.B.B.B.B.B.B.B.B.B.B.B.B.B.B.B.B.B.B.B.B.B.B.B.B.B.B.B.",
"B.B.B.B.B.B.B.B.B.B.B.B.B.B.B.B.B.B.B.B.B.B.B.B.B.B.B.B.B.B.B.B.B.B.B.B.B.B.B.B.B.B.B.B.B.B.B.B.B.B.",
"B.B.B.B.B.B.B.B.B.B.B.B.B.B.B.B.B.B.B.B.B.B.B.B.B.B.B.B.B.B.B.B.B.B.B.B.B.B.B.B.B.B.B.B.B.B.B.B.B.B.",
"B.B.B.B.B.B.B.B.B.B.B.B.B.B.B.B.B.B.B.B.B.B.B.B.B.B.B.B.B.B.B.B.B.B.B.B.B.B.B.B.B.B.B.B.B.B.B.B.B.B.",
"B.B.B.B.B.B.B.B.B.B.B.B.B.B.B.B.B.B.B.B.B.B.B.B.B.B.B.B.B.B.B.B.B.B.B.B.B.B.B.B.B.B.B.B.B.B.B.B.B.B.",
"B.B.B.B.B.B.B.B.B.B.B.B.B.B.B.B.B.B.B.B.B.B.B.B.B.B.B.B.B.B.B.B.B.B.B.B.B.B.B.B.B.B.B.B.B.B.B.B.B.B.",
"B.B.B.B.B.B.B.B.B.B.B.B.B.B.B.B.B.B.B.B.B.B.B.B.B.B.B.B.B.B.B.B.B.B.B.B.B.B.B.B.B.B.B.B.B.B.B.B.B.B.",
"B.B.B.B.B.B.B.B.B.B.B.B.B.B.B.B.B.B.B.B.B.B.B.B.B.B.B.B.B.B.B.B.B.B.B.B.B.B.B.B.B.B.B.B.B.B.B.B.B.B.",
"B.B.B.B.B.B.B.B.B.B.B.B.B.B.B.B.B.B.B.B.B.B.B.B.B.B.B.B.B.B.B.B.B.B.B.B.B.B.B.B.B.B.B.B.B.B.B.B.B.B.",
"B.B.B.B.B.B.B.B.B.B.B.B.B.B.B.B.B.B.B.B.X X X z X @.X z z X B.B.B.B.B.B.B.B.B.B.B.B.B.B.B.B.B.B.B.B.",
"B.B.B.B.B.B.B.B.B.B.B.B.B.B.B.B.B.@.@.#.$.$.$.$.$.$.$.$.$.$.$.@.@.X B.B.B.B.B.B.B.B.B.B.B.B.B.B.B.B.",
"B.B.B.B.B.B.B.B.B.B.B.B.B.B.z $.$.%.*.-.,.,.,.<.<.<.<.<.,.,.-.*.$.$.$.z B.B.B.B.B.B.B.B.B.B.B.B.B.B.",
"B.B.B.B.B.B.B.B.B.B.B.B.B.z $.*.<.2.3.3.v.v.v.v.v.v.v.v.v.v.3.2.2.<.*.%.@.B.B.B.B.B.B.B.B.B.B.B.B.B.",
"B.B.B.B.B.B.B.B.B.B.B.B.B.$.*.-.,.2.3.v.n.n.n.n.n.n.n.n.n.n.v.3.2.<.-.*.%.B.B.B.B.B.B.B.B.B.B.B.B.B.",
"B.B.B.B.B.B.B.B.B.B.B.B.B.$.*.-.-.-.,.<.<.<.<.<.2.<.<.<.<.<.,.,.-.-.-.-.*.B.B.B.B.B.B.B.B.B.B.B.B.B.",
"B.B.B.B.B.B.B.B.B.B.B.B.B.@.*.-.-.-.-.-.-.-.-.-.-.-.-.-.-.-.-.-.-.-.-.*.@.B.B.B.B.B.B.B.B.B.B.B.B.B.",
"B.B.B.B.B.B.B.B.B.B.B.B.B.B.$.,.2.2.2.<.,.,.,.-.-.-.-.,.,.,.<.2.2.2.,.$.B.B.B.B.B.B.B.B.B.B.B.B.B.B.",
"B.B.B.B.B.B.B.B.B.B.B.B.B.B.@.*.v.n.n.v.3.3.3.3.3.3.3.3.v.v.v.n.n.v.-.@.B.B.B.B.B.B.B.B.B.B.B.B.B.B.",
"B.B.B.B.B.B.B.B.B.B.B.B.B.B.B.$.2.n.n.n.n.n.n.n.n.n.n.n.n.n.n.n.n.2.$.B.B.B.B.B.B.B.B.B.B.B.B.B.B.B.",
"B.B.B.B.B.B.B.B.B.B.B.B.B.B.B.$.,.n.n.n.n.n.n.n.n.n.n.n.n.n.n.n.n.,.$.B.B.B.B.B.B.B.B.B.B.B.B.B.B.B.",
"B.B.B.B.B.B.B.B.B.B.B.B.B.B.B.@.*.v.n.n.n.n.n.n.n.n.n.n.n.n.n.n.v.-.X B.B.B.B.B.B.B.B.B.B.B.B.B.B.B.",
"B.B.B.B.B.B.B.B.B.B.B.B.B.B.B.B.*.a.n.n.n.n.n.n.n.a.p.b.n.n.n.n.3.*.B.B.B.B.B.B.B.B.B.B.B.B.B.B.B.B.",
"B.B.B.B.B.B.B.B.B.B.B.B.B.B.B.B.*.3.n.n.n.n.n.n.6.' _ ..y.n.n.n.3.*.B.B.B.B.B.B.B.B.B.B.B.B.B.B.B.B.",
"B.B.B.B.B.B.B.B.B.B.B.B.B.B.B.B.*.3.n.n.n.n.n.u.{ Y Y Y { p.n.n.v.*.B.B.B.B.B.B.B.B.B.B.B.B.B.B.B.B.",
"B.B.B.B.B.B.B.B.B.B.B.B.B.B.B.@.*.v.n.n.n.n.n.7.Y Y Y Y Y 5.n.n.n.-.#.B.B.B.B.B.B.B.B.B.B.B.B.B.B.B.",
"B.B.B.B.B.B.B.B.B.B.B.B.B.B.B.$.1.6.p.n.n.n.n.7.Y Y Y Y Y 5.n.n.n.<.$.B.B.B.B.B.B.B.B.B.B.B.B.B.B.B.",
"B.B.B.B.B.B.B.B.B.B.B.B.B.B.$.-.` {  .6.n.a.i.7.U U U U Y i.a.a.p.t.-.$.B.B.B.B.B.B.B.B.B.B.B.B.B.B.",
"B.B.B.B.B.B.B.B.B.B.B.B.B.@.=.` J P U [ 8.o.o.} T P P P E o.o.o.o.o._ >.#.B.B.B.B.B.B.B.B.B.B.B.B.B.",
"B.B.B.B.B.B.B.B.B.B.B.B.B.%.~ } T K K I W R R R R R R I R R R R R R W / *.B.B.B.B.B.B.B.B.B.B.B.B.B.",
"B.B.B.B.B.B.B.B.B.B.B.B.$.n G | O.T I R R R R R R R R R R R R R W T K G M $.B.B.B.B.B.B.B.B.B.B.B.B.",
"B.B.B.B.B.B.B.B.B.B.B.$.:.F T g.E K L T W R R R R R R R R W T I L q 0 0 H :.$.B.B.B.B.B.B.B.B.B.B.B.",
"B.B.B.B.B.B.B.B.B.B.#.&.A K r.h.q 0 0 q L L L L I I L L L L K q 0 0 0 0 0 A >.#.B.B.B.B.B.B.B.B.B.B.",
"B.B.B.B.B.B.B.B.B.B.$.Q 9 q.M.+.0 0 0 0 0 0 0 0 q q q 0 0 0 0 0 0 0 0 0 0 q Q %.B.B.B.B.B.B.B.B.B.B.",
"B.B.B.B.B.B.B.B.B.$.n 9 O.c.M.P 0 0 0 0 0 0 0 0 0 0 0 0 0 0 0 0 0 0 0 0 0 0 9 n $.B.B.B.B.B.B.B.B.B.",
"B.B.B.B.B.B.B.B.$.:.F } z.N.g.0 0 0 0 0 0 0 0 0 0 0 0 0 0 0 0 0 0 0 0 0 0 0 0 G m $.B.B.B.B.B.B.B.B.",
"B.B.B.B.B.B.B.#.>.S P h.M.N.+.0 0 0 0 0 0 0 0 0 0 0 0 0 8 0 0 0 0 0 0 0 0 0 0 0 C >.$.B.B.B.B.B.B.B.",
"B.B.B.B.B.B.B.%.Q K r.M.N.M.T 0 0 0 0 0 0 0 0 0 0 0 0 0 0 0 0 0 0 0 0 0 0 0 0 0 8 D %.B.B.B.B.B.B.B.",
"B.B.B.B.B.B.%.) G q.M.N.M.c.q 0 0 0 0 0 0 0 0 0 0 0 0 0 0 0 0 0 0 0 0 0 0 0 0 0 0 9 ! $.B.B.B.B.B.B.",
"B.B.B.B.B.$.m F 0.c.M.N.M.g.q 0 0 0 0 0 0 0 0 0 0 0 0 0 0 0 0 0 0 0 0 0 0 0 0 0 0 0 G m $.B.B.B.B.B.",
"B.B.B.B.#.;.C +.m.M.N.N.N.q.q 8 0 8 8 8 8 8 8 8 8 8 8 8 8 8 8 8 0 0 0 0 0 0 0 0 0 8 0 C >.#.B.B.B.B.",
"B.B.B.B.%.A o.c.M.M.M.M.M.X.6 6 6 6 6 < 6 < 6 6 6 < 6 < 6 6 6 6 6 6 6 6 6 6 6 7 8 8 8 0 D %.@.B.B.B.",
"B.B.B.%.Z ] l.m.M.m.m.m.m. ., > > > > > > > > > > > ; > > > > > > , > > < , , < < < < 6 7 b $.B.B.B.",
"B.B.#.v 4 e.m.m.m.m.k.m.m. .; - - - - - - = - = - = - - - - - = = - - - - ; - ; ; ; > , , 5 c #.B.B.",
"B.@.x 2 B x.x.x.k.k.k.k.k.4.- = = = = = = = = = = = = = = = = = = = = = = = = = = - - - ; > f x z B.",
"B.@.k ; A x.k.k.m.k.k.k.k.f.- = = = = = = = = = = = = = = = = = = = = = = = = = = = = = = = ; a z z ",
"@.@.d = A k.k.k.k.k.k.k.k.k.2 = = = = = = = = = = = = = = = = = = = = = = = = = = = = = = = = * z @.",
"@.X * = V k.k.k.k.k.k.k.k.m.7.= = = = = = = = = = = = = = = = = = = = = = = = = = = = = = = = # z @.",
"z z e = : f.x.x.k.k.k.k.k.k.f.N = = = = = = = = = = = = = = = = = = = = = = = = = = = = = = = O z z ",
"B.X j % = D f.k.k.m.k.k.k.k.k.w.: = = = = = = = = = = = = = = = = = = = = = = = = = = = = = o g z B.",
"B.@.@.t o - D e.k.k.k.k.k.k.k.k.4.: = = = = = = = = = = = = = = = = = = = = = = = = = = = = t X @.B.",
"B.B.@.l O o ; N ' j.k.k.k.k.k.k.k.7.1 = = = = = = = = = = = = = = = = = = = = = = = = = = e . @.B.B.",
"B.B.@.z j e o - 1 A 4.f.k.k.k.k.k.k.9.A ; = = = = = = = = = = = = = = = = = = = = = = o e . X @.B.B.",
"B.B.B.z @.. t $ = = 1 V ( 9.d.k.k.k.k.s.` N - = = = = = = = = = = = = = = = = = = = @ w . z @.B.B.B.",
"B.B.B.B.@.z X h + o = = ; 3 V A ( _ ' 4._ V ; = = = = = = = = = = = = = = = = = o O u . @.z B.B.B.B.",
"B.B.B.B.B.B.X z j s + @ o = = = ; : : 1 : : - = = = = = = = = = = = = = = = @ O y   X z B.B.B.B.B.B.",
"B.B.B.B.B.B.B.z z X . h s r + & # # # # # @ # # # # # # # # @ @ $ @ # & r p h . X X z B.B.B.B.B.B.B.",
"B.B.B.B.B.B.B.B.B.z z z X . j g h h h h h h h h h h h h h h h h h h h g l X X @.z B.B.B.B.B.B.B.B.B."
};
