/* XPM */
static char *result[] = {
/* columns rows colors chars-per-pixel */
"50 62 160 2 ",
"   c #7E6E6E",
".  c #7E7474",
"X  c #7E7E7E",
"o  c #BD1D1D",
"O  c #963B3B",
"+  c #9D3B3B",
"@  c #AB2626",
"#  c #AB2A2A",
"$  c #B42323",
"%  c #A33333",
"&  c #AA3232",
"*  c #C61919",
"=  c #CA1D1D",
"-  c #CB2121",
";  c #CB2D2D",
":  c #D22525",
">  c #D52929",
",  c #DD2C2C",
"<  c #CC3131",
"1  c #C63B3B",
"2  c #CE3A3A",
"3  c #D63737",
"4  c #D03939",
"5  c #E12E2E",
"6  c #E33333",
"7  c #ED3333",
"8  c #EE3C3C",
"9  c #F13535",
"0  c #F33A3A",
"q  c #8E4C4C",
"w  c #964444",
"e  c #9A4141",
"r  c #914C4C",
"t  c #8B5757",
"y  c #845C5C",
"u  c #925555",
"i  c #9C5555",
"p  c #915A5A",
"a  c #A94040",
"s  c #BA4141",
"d  c #B65C5C",
"f  c #BB5E5E",
"g  c #856666",
"h  c #8A6363",
"j  c #836C6C",
"k  c #9C6060",
"l  c #817171",
"z  c #807E7E",
"x  c #8A7B7B",
"c  c #997070",
"v  c #AA6666",
"b  c #AA6C6C",
"n  c #BA6A6A",
"m  c #A37070",
"M  c #AC7A7A",
"N  c #BD7474",
"B  c #B37D7D",
"V  c #BC7C7C",
"C  c #CF4040",
"Z  c #D24646",
"A  c #D84444",
"S  c #D34B4B",
"D  c #DE4E4E",
"F  c #C85050",
"G  c #C65C5C",
"H  c #CC5D5D",
"J  c #D55555",
"K  c #DC5353",
"L  c #D45A5A",
"P  c #D85959",
"I  c #E44545",
"U  c #EB4242",
"Y  c #E34C4C",
"T  c #F44343",
"R  c #F84646",
"E  c #F34E4E",
"W  c #F94949",
"Q  c #E35050",
"!  c #F65353",
"~  c #FF5555",
"^  c #F45E5E",
"/  c #FB5A5A",
"(  c #CE6262",
")  c #C26E6E",
"_  c #C86D6D",
"`  c #D26161",
"'  c #DB6767",
"]  c #D66F6F",
"[  c #DC6969",
"{  c #C07171",
"}  c #C17979",
"|  c #DD7575",
" . c #DE7C7C",
".. c #E46363",
"X. c #E96262",
"o. c #E06A6A",
"O. c #F56161",
"+. c #F96161",
"@. c #F46D6D",
"#. c #E27676",
"$. c #EF7777",
"%. c #E07F7F",
"&. c #EC7D7D",
"*. c #F37373",
"=. c #F37B7B",
"-. c #828282",
";. c #888686",
":. c #8C8B8B",
">. c #918787",
",. c #938D8D",
"<. c #9D8B8B",
"1. c #959494",
"2. c #9C9595",
"3. c #9B9B9B",
"4. c #A18686",
"5. c #AC8484",
"6. c #A18A8A",
"7. c #AC8B8B",
"8. c #B38484",
"9. c #BA8181",
"0. c #A3A3A3",
"q. c #ACA5A5",
"w. c #ACACAC",
"e. c #B5B4B4",
"r. c #B8B4B4",
"t. c #BBBBBB",
"y. c #D18888",
"u. c #E08484",
"i. c #EB8282",
"p. c #E48B8B",
"a. c #F68383",
"s. c #F68B8B",
"d. c #E49494",
"f. c #E79E9E",
"g. c #ED9D9D",
"h. c #F79090",
"j. c #F89A9A",
"k. c #CBA5A5",
"l. c #D9AEAE",
"z. c #C8B7B7",
"x. c #C1BFBF",
"c. c #D5B3B3",
"v. c #D3BABA",
"b. c #E9A4A4",
"n. c #EAABAB",
"m. c #F9A4A4",
"M. c #F9AAAA",
"N. c #ECB1B1",
"B. c #EFBDBD",
"V. c #F5B1B1",
"C. c #FAB5B5",
"Z. c #F0BEBE",
"A. c #FABCBC",
"S. c #C3C3C3",
"D. c #CEC5C5",
"F. c #CCCCCC",
"G. c #F4C2C2",
"H. c #FAC5C5",
"J. c #FBC8C8",
"K. c None",
/* pixels */
"K.K.K.K.K.K.K.K.K.K.K.K.K.K.K.K.K.K.K.K.K.K.K.K.K.K.K.K.K.K.K.K.K.K.K.K.K.K.K.K.K.K.K.K.K.K.K.K.K.K.",
"K.K.K.K.K.K.K.K.K.K.K.K.K.K.K.K.K.K.K.K.K.K.K.K.K.K.K.K.K.K.K.K.K.K.K.K.K.K.K.K.K.K.K.K.K.K.K.K.K.K.",
"K.K.K.K.K.K.K.K.K.K.K.K.K.K.K.K.K.K.K.K.K.K.K.K.K.K.K.K.K.K.K.K.K.K.K.K.K.K.K.K.K.K.K.K.K.K.K.K.K.K.",
"K.K.K.K.K.K.K.K.K.K.K.K.K.K.K.K.K.K.K.K.K.K.K.K.K.K.K.K.K.K.K.K.K.K.K.K.K.K.K.K.K.K.K.K.K.K.K.K.K.K.",
"K.K.K.K.K.K.K.K.K.K.K.K.K.K.K.K.K.K.K.K.K.K.K.K.K.K.K.K.K.K.K.K.K.K.K.K.K.K.K.K.K.K.K.K.K.K.K.K.K.K.",
"K.K.K.K.K.K.K.K.K.K.K.K.K.K.K.K.K.K.K.K.K.K.K.K.K.K.K.K.K.K.K.K.K.K.K.K.K.K.K.K.K.K.K.K.K.K.K.K.K.K.",
"K.K.K.K.K.K.K.K.K.K.K.K.K.K.K.K.K.K.K.K.K.K.K.K.K.K.K.K.K.K.K.K.K.K.K.K.K.K.K.K.K.K.K.K.K.K.K.K.K.K.",
"K.K.K.K.K.K.K.K.K.K.K.K.K.K.K.K.K.K.K.K.K.K.K.K.K.K.K.K.K.K.K.K.K.K.K.K.K.K.K.K.K.K.K.K.K.K.K.K.K.K.",
"K.K.K.K.K.K.K.K.K.K.K.K.K.K.K.K.K.K.K.K.K.K.K.K.K.K.K.K.K.K.K.K.K.K.K.K.K.K.K.K.K.K.K.K.K.K.K.K.K.K.",
"K.K.K.K.K.K.K.K.K.K.K.K.K.K.K.K.K.K.K.K.K.K.K.K.K.K.K.K.K.K.K.K.K.K.K.K.K.K.K.K.K.K.K.K.K.K.K.K.K.K.",
"K.K.K.K.K.K.K.K.K.K.K.K.K.K.K.K.K.K.K.K.K.K.K.K.K.K.K.K.K.K.K.K.K.K.K.K.K.K.K.K.K.K.K.K.K.K.K.K.K.K.",
"K.K.K.K.K.K.K.K.K.K.K.K.K.K.K.K.K.K.K.K.K.K.K.K.K.K.K.K.K.K.K.K.K.K.K.K.K.K.K.K.K.K.K.K.K.K.K.K.K.K.",
"K.K.K.K.K.K.K.K.K.K.K.K.K.K.K.K.K.K.K.K.K.K.K.K.K.K.K.K.K.K.K.K.K.K.K.K.K.K.K.K.K.K.K.K.K.K.K.K.K.K.",
"K.K.K.K.K.K.K.K.K.K.K.K.K.K.K.K.K.K.K.K.K.K.K.K.K.K.K.K.K.K.K.K.K.K.K.K.K.K.K.K.K.K.K.K.K.K.K.K.K.K.",
"K.K.K.K.K.K.K.K.K.K.K.K.K.K.K.K.K.K.K.K.X X X z X z z z z X K.K.K.K.K.K.K.K.K.K.K.K.K.K.K.K.K.K.K.K.",
"K.K.K.K.K.K.K.K.K.K.K.K.K.K.K.K.d F v :.:.:.:.:.:.:.>.b f f b ;.-.z K.K.K.K.K.K.K.K.K.K.K.K.K.K.K.K.",
"K.K.K.K.K.K.K.K.K.K.K.K.K.K.-.m Z I S 5.3.0.w.w.w.w.} ` P P H M 1.:.:.-.K.K.K.K.K.K.K.K.K.K.K.K.K.K.",
"K.K.K.K.K.K.K.K.K.K.K.K.K.z :.n U U U y.S.S.S.S.S.z.o.........] e.w.1.,.z K.K.K.K.K.K.K.K.K.K.K.K.K.",
"K.K.K.K.K.K.K.K.K.K.K.K.K.:.1.7.K U Y k.F.F.F.F.F.v...X.....' ] e.0.3.3.,.K.K.K.K.K.K.K.K.K.K.K.K.K.",
"K.K.K.K.K.K.K.K.K.K.K.K.K.:.1.3.5.B 8.q.w.w.w.w.w.q.V V 9.8.8.7.3.3.3.3.:.K.K.K.K.K.K.K.K.K.K.K.K.K.",
"K.K.K.K.K.K.K.K.K.K.K.K.K.-.1.0.3.1.3.3.3.3.3.3.3.3.2.2.3.3.3.1.3.3.3.1.;.K.K.K.K.K.K.K.K.K.K.K.K.K.",
"K.K.K.K.K.K.K.K.K.K.K.K.K.K.:.3.t.e.r.w.0.0.0.3.3.3.3.0.0.w.e.e.e.e.0.:.K.K.K.K.K.K.K.K.K.K.K.K.K.K.",
"K.K.K.K.K.K.K.K.K.K.K.K.K.K.z 3.S.F.F.S.S.t.t.t.x.t.t.t.x.S.S.F.F.S.1.;.K.K.K.K.K.K.K.K.K.K.K.K.K.K.",
"K.K.K.K.K.K.K.K.K.K.K.K.K.K.K.:.w.F.F.F.F.F.F.F.F.F.F.F.F.F.F.F.F.e.,.K.K.K.K.K.K.K.K.K.K.K.K.K.K.K.",
"K.K.K.K.K.K.K.K.K.K.K.K.K.K.K.;.0.F.F.F.F.F.F.F.F.F.F.F.F.F.F.F.F.0.:.K.K.K.K.K.K.K.K.K.K.K.K.K.K.K.",
"K.K.K.K.K.K.K.K.K.K.K.K.K.K.K.-.1.S.F.F.F.F.F.F.F.F.F.F.F.F.F.F.S.3.-.K.K.K.K.K.K.K.K.K.K.K.K.K.K.K.",
"K.K.K.K.K.K.K.K.K.K.K.K.K.K.K.K.1.t.F.F.F.F.F.F.F.F.F.F.F.F.F.F.t.1.K.K.K.K.K.K.K.K.K.K.K.K.K.K.K.K.",
"K.K.K.K.K.K.K.K.K.K.K.K.K.K.K.K.1.t.F.F.F.F.F.F.F.F.F.F.F.F.F.F.t.1.K.K.K.K.K.K.K.K.K.K.K.K.K.K.K.K.",
"K.K.K.K.K.K.K.K.K.K.K.K.K.K.K.K.1.S.F.F.F.F.F.F.F.F.F.F.F.F.F.F.S.1.K.K.K.K.K.K.K.K.K.K.K.K.K.K.K.K.",
"K.K.K.K.K.K.K.K.K.K.K.K.K.K.K.;.3.F.F.F.F.F.F.F.F.F.F.F.F.F.F.F.F.3.-.K.K.K.K.K.K.K.K.K.K.K.K.K.K.K.",
"K.K.K.K.K.K.K.K.K.K.K.K.K.K.K.:.w.F.F.F.F.F.F.F.F.F.F.F.F.F.F.F.F.e.:.K.K.K.K.K.K.K.K.K.K.K.K.K.K.K.",
"K.K.K.K.K.K.K.K.K.K.K.K.K.K.:.3.t.F.F.F.D.c.l.l.N.v.v.c.v.D.F.F.F.S.3.:.K.K.K.K.K.K.K.K.K.K.K.K.K.K.",
"K.K.K.K.K.K.K.K.K.K.K.K.K.-.1.r.F.F.v.d.&.*.@.@.@.@.*.@.*.$.i.p.d.d.| 6.-.K.K.K.K.K.K.K.K.K.K.K.K.K.",
"K.K.K.K.K.K.K.K.K.K.K.K.K.,._ y.f.i.*.+.~ ~ ~ ~ ~ ~ ~ ~ ~ ~ / ^ +.+.^ o.1.K.K.K.K.K.K.K.K.K.K.K.K.K.",
"K.K.K.K.K.K.K.K.K.K.K.K.:.N T *.a.O.~ ~ ~ ~ ~ ~ ~ ~ ~ ~ ~ ~ ~ ~ / ~ R T V :.K.K.K.K.K.K.K.K.K.K.K.K.",
"K.K.K.K.K.K.K.K.K.K.K.:.5.I E m.^ T R ~ / ~ ~ ~ ~ ~ ~ ~ ~ ~ ~ W R 0 9 9 I 7.:.K.K.K.K.K.K.K.K.K.K.K.",
"K.K.K.K.K.K.K.K.K.K.-.<.K U j.M.0 9 9 0 T R R R R W W R T R T 0 7 9 9 9 9 P 4.:.K.K.K.K.K.K.K.K.K.K.",
"K.K.K.K.K.K.K.K.K.K.1.( 8 s.H.a.9 9 9 9 9 9 9 9 0 0 0 9 9 9 9 9 9 9 9 9 9 9 ` ,.K.K.K.K.K.K.K.K.K.K.",
"K.K.K.K.K.K.K.K.K.:.} 8 *.A.H.W 9 9 9 9 9 9 9 9 9 9 9 9 9 9 9 9 9 9 9 9 9 9 8 { :.K.K.K.K.K.K.K.K.K.",
"K.K.K.K.K.K.K.K.:.5.I O.C.J.m.0 9 9 9 9 9 9 9 7 9 9 9 9 9 9 9 9 9 9 9 9 9 9 9 I B :.K.K.K.K.K.K.K.K.",
"K.K.K.K.K.K.K.;.<.D E M.H.J.=.0 9 9 9 9 9 9 9 9 9 9 9 9 9 9 9 9 9 9 9 9 9 9 9 9 D 4.;.K.K.K.K.K.K.K.",
"K.K.K.K.K.K.K.1.( T j.H.J.H.! 9 9 9 9 9 9 9 9 9 9 9 9 9 9 9 9 9 9 9 9 9 9 9 9 9 0 L ,.K.K.K.K.K.K.K.",
"K.K.K.K.K.K.,.{ U s.H.J.J.A.0 9 9 9 9 9 9 9 9 9 9 9 9 9 9 9 9 9 9 9 9 9 9 9 9 9 7 8 ) :.K.K.K.K.K.K.",
"K.K.K.K.K.:.B Y a.G.H.J.J.m.0 9 9 9 9 9 9 9 9 9 9 9 9 9 9 9 9 9 9 9 9 9 9 9 9 9 9 9 U B >.K.K.K.K.K.",
"K.K.K.K.-.4.K =.Z.J.J.J.J.h.9 9 9 7 7 7 7 7 7 7 7 7 7 7 7 7 7 7 9 9 9 9 9 9 9 9 9 7 9 D 4.:.K.K.K.K.",
"K.K.K.K.<.J =.A.J.H.H.H.G.&.5 5 5 5 5 , 5 , , 5 , , , 5 5 5 5 5 5 5 5 5 5 5 6 5 7 7 7 0 L ,.;.K.K.K.",
"K.K.K.,.G X.V.G.G.G.G.G.G.#.> : : : : : : : : : - : : : : : : : : : : : > > , , > , , 5 6 n :.K.K.K.",
"K.K.:.v 3 g.G.G.Z.G.Z.B.G.#.- = = = = = = = = = = = * = = = = * = = = = = = = = : - : > > 4 c -.K.K.",
"K.-.x 1 A Z.Z.Z.G.B.B.B.B.y.* * * * * * * * * * * * * * * * * * = * * * * * * * * = = = = : s x z K.",
"K.-.k - P B.B.B.B.B.B.B.Z.n.* * * * * * * * * * * * * * * * * * * * * * * * * * * * * * * = - i z X ",
"-.X a * J B.B.B.B.B.B.B.Z.B.2 * * * * * * * = * * * * * * * * * * * * * * * * * * * * * * * * & z -.",
"X -.& * Z B.B.B.B.B.B.B.Z.Z.u.= * * * * * * * * * * * * * * * * * * * * * * * * * * * * * * * # z -.",
"z z w * ; n.Z.B.B.B.B.B.G.B.N.C * * * * * * * * * * * * * * * * * * * * * * * * * * * * * * * + z -.",
"K.-.j $ * L n.B.B.B.G.B.B.B.B.d.; * * * * * * * * * * * * * * * * * * * * * * * * * * * * * o g X K.",
"K.-.X q o - L f.B.B.B.B.B.B.B.B.u.< * * * * * * * * * * * * * * * * * * * * * * * * * * * o r z X K.",
"K.K.z . e * = Z  .N.B.B.B.B.B.B.B.u.2 * * * * * * * * * * * * * * * * * * * * * * * * * * e . X K.K.",
"K.K.-.z l w o * < J  .n.B.B.B.B.Z.B.d.J - * * * * * * * * * * * * * * * * * * * * * * o w l z -.K.K.",
"K.K.K.z z . u $ * * < Z ' p.b.B.B.B.B.b. .C * * * * * * * * * * * * * * * * * * * * @ q . X -.K.K.K.",
"K.K.K.K.-.z . h + $ * * - 2 Z J ' | | u.| J - * * * * * * * * * * * * * * * * * o O y . -.z K.K.K.K.",
"K.K.K.K.K.K.z X j p + # o * * * - ; ; < ; ; * * * * * * * * * * * * * * * * @ O y   X X K.K.K.K.K.K.",
"K.K.K.K.K.K.K.-.z z l h p w + % # # # @ # # # # # # # # # # # # @ $ # % e u h . X X z K.K.K.K.K.K.K.",
"K.K.K.K.K.K.K.K.K.z -.z X l j j g h h h h h h h h h h h h h h h h h h j . . z z X K.K.K.K.K.K.K.K.K."
};
