/* XPM */
static char *result[] = {
/* columns rows colors chars-per-pixel */
"50 62 142 2 ",
"   c #7D6D6D",
".  c #7E7474",
"X  c #7E7E7E",
"o  c #BD1D1D",
"O  c #973D3D",
"+  c #9B3B3B",
"@  c #AB2626",
"#  c #A52F2F",
"$  c #AC2929",
"%  c #B42222",
"&  c #B92020",
"*  c #A23636",
"=  c #A93232",
"-  c #A03939",
";  c #AB3E3E",
":  c #C61919",
">  c #CA1D1D",
",  c #CB2222",
"<  c #CB2B2B",
"1  c #D22525",
"2  c #D62929",
"3  c #DD2C2C",
"4  c #CD3333",
"5  c #CD3B3B",
"6  c #D83636",
"7  c #D03B3B",
"8  c #E12E2E",
"9  c #E43333",
"0  c #ED3333",
"q  c #ED3D3D",
"w  c #F13535",
"e  c #F33B3B",
"r  c #974242",
"t  c #9A4141",
"y  c #924B4B",
"u  c #8C5555",
"i  c #845A5A",
"p  c #8C5E5E",
"a  c #945454",
"s  c #9B5656",
"d  c #9D5F5F",
"f  c #BA4242",
"g  c #856666",
"h  c #8B6161",
"j  c #836B6B",
"k  c #807171",
"l  c #897C7C",
"z  c #997272",
"x  c #AA6666",
"c  c #B76A6A",
"v  c #AD7E7E",
"b  c #B27D7D",
"n  c #BB7C7C",
"m  c #D14444",
"M  c #D94444",
"N  c #D24C4C",
"B  c #DE4E4E",
"V  c #C55A5A",
"C  c #D55555",
"Z  c #DB5353",
"A  c #D45C5C",
"S  c #E74545",
"D  c #EA4444",
"F  c #E24C4C",
"G  c #E94A4A",
"H  c #F44444",
"J  c #F94646",
"K  c #F54B4B",
"L  c #FA4B4B",
"P  c #E05050",
"I  c #EC5353",
"U  c #E65F5F",
"Y  c #E85B5B",
"T  c #F55353",
"R  c #FE5555",
"E  c #F65B5B",
"W  c #FB5A5A",
"Q  c #CF6161",
"!  c #C16E6E",
"~  c #CB6C6C",
"^  c #DB6B6B",
"/  c #C07272",
"(  c #DD7777",
")  c #DF7D7D",
"_  c #EA6161",
"`  c #E46C6C",
"'  c #F46565",
"]  c #F46E6E",
"[  c #E27474",
"{  c #EC7A7A",
"}  c #F37373",
"|  c #F67A7A",
" . c #F87F7F",
".. c #828282",
"X. c #8B8B8B",
"o. c #9A8787",
"O. c #938E8E",
"+. c #9E8A8A",
"@. c #939393",
"#. c #9A9A9A",
"$. c #A58484",
"%. c #AE8383",
"&. c #A28989",
"*. c #A2A2A2",
"=. c #ACACAC",
"-. c gray70",
";. c #BCBCBC",
":. c #DE8383",
">. c #DC8B8B",
",. c #D99797",
"<. c #DA9D9D",
"1. c #E08383",
"2. c #ED8080",
"3. c #E48E8E",
"4. c #E98888",
"5. c #F78484",
"6. c #F78D8D",
"7. c #E69393",
"8. c #EA9D9D",
"9. c #F99D9D",
"0. c #D5A3A3",
"q. c #D4AAAA",
"w. c #D9ADAD",
"e. c #D6B3B3",
"r. c #D0BEBE",
"t. c #E7A0A0",
"y. c #EAA4A4",
"u. c #EBACAC",
"i. c #F8A2A2",
"p. c #F8AAAA",
"a. c #EBB0B0",
"s. c #EFBDBD",
"d. c #F5B3B3",
"f. c #F1BEBE",
"g. c #FABBBB",
"h. c gray77",
"j. c #CFC2C2",
"k. c #CCCCCC",
"l. c #F3C2C2",
"z. c #FAC4C4",
"x. c #FBC8C8",
"c. c None",
/* pixels */
"c.c.c.c.c.c.c.c.c.c.c.c.c.c.c.c.c.c.c.c.c.c.c.c.c.c.c.c.c.c.c.c.c.c.c.c.c.c.c.c.c.c.c.c.c.c.c.c.c.c.",
"c.c.c.c.c.c.c.c.c.c.c.c.c.c.c.c.c.c.c.c.c.c.c.c.c.c.c.c.c.c.c.c.c.c.c.c.c.c.c.c.c.c.c.c.c.c.c.c.c.c.",
"c.c.c.c.c.c.c.c.c.c.c.c.c.c.c.c.c.c.c.c.c.c.c.c.c.c.c.c.c.c.c.c.c.c.c.c.c.c.c.c.c.c.c.c.c.c.c.c.c.c.",
"c.c.c.c.c.c.c.c.c.c.c.c.c.c.c.c.c.c.c.c.c.c.c.c.c.c.c.c.c.c.c.c.c.c.c.c.c.c.c.c.c.c.c.c.c.c.c.c.c.c.",
"c.c.c.c.c.c.c.c.c.c.c.c.c.c.c.c.c.c.c.c.c.c.c.c.c.c.c.c.c.c.c.c.c.c.c.c.c.c.c.c.c.c.c.c.c.c.c.c.c.c.",
"c.c.c.c.c.c.c.c.c.c.c.c.c.c.c.c.c.c.c.c.c.c.c.c.c.c.c.c.c.c.c.c.c.c.c.c.c.c.c.c.c.c.c.c.c.c.c.c.c.c.",
"c.c.c.c.c.c.c.c.c.c.c.c.c.c.c.c.c.c.c.c.c.c.c.c.c.c.c.c.c.c.c.c.c.c.c.c.c.c.c.c.c.c.c.c.c.c.c.c.c.c.",
"c.c.c.c.c.c.c.c.c.c.c.c.c.c.c.c.c.c.c.c.c.c.c.c.c.c.c.c.c.w w c.c.c.c.c.c.c.c.c.c.c.c.c.c.c.c.c.c.c.",
"c.c.c.c.c.c.c.c.c.c.c.c.c.c.c.c.c.c.c.c.c.c.c.c.c.c.c.c.w w w w c.c.c.c.c.c.c.c.c.c.c.c.c.c.c.c.c.c.",
"c.c.c.c.c.c.c.c.c.c.c.c.c.c.c.c.c.c.c.c.c.c.c.c.c.c.c.c.w w w w w c.c.c.c.c.c.c.c.c.c.c.c.c.c.c.c.c.",
"c.c.c.c.c.c.c.c.c.c.c.c.c.c.c.c.c.c.c.c.c.c.c.c.c.c.c.w w 0 w w w c.c.c.c.c.c.c.c.c.c.c.c.c.c.c.c.c.",
"c.c.c.c.c.c.c.c.c.w w w c.c.c.c.c.c.c.c.c.c.c.c.c.c.c.c.0 w w 0 w c.c.c.c.c.c.c.c.c.c.c.c.c.c.c.c.c.",
"c.c.c.c.c.c.c.c.c.w w w c.c.c.c.c.c.c.c.c.c.c.c.c.c.c.c.c.w w w c.c.c.c.c.c.c.c.c.c.c.c.c.c.c.c.c.c.",
"c.c.c.c.c.c.c.c.c.w w c.c.c.c.c.c.c.c.c.c.c.c.c.c.c.c.c.c.c.c.c.c.c.c.c.c.c.c.c.c.c.c.c.c.c.c.c.c.c.",
"c.c.c.c.c.c.c.c.c.c.c.c.c.c.c.c.c.c.c.c.c.c.c.c.c.c.c.c.c.c.c.c.c.c.c.c.c.c.c.c.c.c.c.c.c.c.c.c.c.c.",
"c.c.c.c.c.c.c.c.c.c.c.c.c.c.c.c.......X.X.X.X.O.X.X.X.X.X.X.X.X.....c.c.c.c.c.c.c.c.c.c.c.c.c.c.c.c.",
"c.c.c.c.c.c.c.c.c.c.c.c.c.c...X.X.O.#.#.*.=.=.=.-.=.-.=.=.=.*.@.@.X.X...c.c.c.c.c.c.c.c.c.c.c.c.c.c.",
"c.c.c.c.c.c.c.c.c.c.c.c.c...X.@.=.;.;.;.h.h.h.h.h.k.h.h.h.;.;.;.-.=.#.X...c.c.c.c.c.c.c.c.c.c.c.c.c.",
"c.c.c.c.c.c.c.c.c.c.c.c.c.X.#.#.=.-.;.;.h.k.k.k.k.k.k.k.k.h.;.;.-.=.#.#.@.c.c.c.c.c.c.c.c.c.c.c.c.c.",
"c.c.c.c.c.c.c.c.c.c.c.c.c...@.#.#.#.*.*.=.=.=.=.=.=.-.=.=.=.*.*.#.#.#.@.X.c.c.c.c.c.c.c.c.c.c.c.c.c.",
"c.c.c.c.c.c.c.c.c.c.c.c.c.c.@.#.#.#.#.@.#.#.#.#.#.#.#.#.@.@.#.#.#.#.*.@...c.c.c.c.c.c.c.c.c.c.c.c.c.",
"c.c.c.c.c.c.c.c.c.c.c.c.c.c.X.*.;.;.-.-.=.*.*.*.*.*.*.*.=.=.-.-.-.-.*.X.c.c.c.c.c.c.c.c.c.c.c.c.c.c.",
"c.c.c.c.c.c.c.c.c.c.c.c.c.c...#.;.k.k.k.h.;.h.;.;.;.;.h.;.h.k.k.k.h.#...c.c.c.c.c.c.c.c.c.c.c.c.c.c.",
"c.c.c.c.c.c.c.c.c.c.c.c.c.c.c.O.-.k.k.k.k.k.k.k.k.k.k.k.k.k.k.k.k.-.X.c.c.c.c.c.c.c.c.c.c.c.c.c.c.c.",
"c.c.c.c.c.c.c.c.c.c.c.c.c.c.c.X.#.k.k.k.k.k.k.k.k.k.k.k.k.k.k.k.k.*...c.c.c.c.c.c.c.c.c.c.c.c.c.c.c.",
"c.c.c.c.c.c.c.c.c.c.c.c.c.c.c...#.k.k.k.k.k.k.k.k.k.k.k.k.k.k.k.k.@...c.c.c.c.c.c.c.c.c.c.c.c.c.c.c.",
"c.c.c.c.c.c.c.c.c.c.c.c.c.c.c.c.@.;.k.k.k.k.k.k.k.k.k.k.k.k.k.k.;.@.c.c.c.c.c.c.c.c.c.c.c.c.c.c.c.c.",
"c.c.c.c.c.c.c.c.c.c.c.c.c.c.c.c.@.;.k.k.k.j.k.k.k.k.k.k.k.k.k.k.;.@.c.c.c.c.c.c.c.c.c.c.c.c.c.c.c.c.",
"c.c.c.c.c.c.c.c.c.c.c.c.c.c.c.c.@.;.k.e.>.) :.q.k.k.k.k.k.k.k.k.h.@.c.c.c.c.c.c.c.c.c.c.c.c.c.c.c.c.",
"c.c.c.c.c.c.c.c.c.c.c.c.c.c.c...#.k.j.( U Y Y ` q.k.k.k.k.k.k.k.k.#...c.c.c.c.c.c.c.c.c.c.c.c.c.c.c.",
"c.c.c.c.c.c.c.c.c.c.c.c.c.c.c.@.=.k.0.Y Y Y Y Y :.k.k.k.k.k.k.k.k.=.@.c.c.c.c.c.c.c.c.c.c.c.c.c.c.c.",
"c.c.c.c.c.c.c.c.c.c.c.c.c.c.X.#.h.k.,.Y Y I I I ` e.e.w.e.j.k.k.k.h.#.X.c.c.c.c.c.c.c.c.c.c.c.c.c.c.",
"c.c.c.c.c.c.c.c.c.c.c.c.c...#.;.k.k.<.I H H H H T } } ] } } 2.4.7.3.( &...c.c.c.c.c.c.c.c.c.c.c.c.c.",
"c.c.c.c.c.c.c.c.c.c.c.c.c.O.~ 1.8.2.} L H H H J R R R R R R R W ' W W ` O.c.c.c.c.c.c.c.c.c.c.c.c.c.",
"c.c.c.c.c.c.c.c.c.c.c.c.X./ D }  .E W R L L L R R R R R R R R R W L H H n X.c.c.c.c.c.c.c.c.c.c.c.c.",
"c.c.c.c.c.c.c.c.c.c.c.X.%.D T p.E H H T W R R R R R R R R W T J H e w w F %.X.c.c.c.c.c.c.c.c.c.c.c.",
"c.c.c.c.c.c.c.c.c.c.X.+.Z H i.p.e w w e H H J J J J J J J H H e w w w w w Z &.X.c.c.c.c.c.c.c.c.c.c.",
"c.c.c.c.c.c.c.c.c.c.O.Q e 6.x.| w w w w w w w e e e e w w w w w w w w w w e Q O.c.c.c.c.c.c.c.c.c.c.",
"c.c.c.c.c.c.c.c.c.X.! q | z.z.H w w w w w w w w w w w w w w w w w w w w w w q c @.c.c.c.c.c.c.c.c.c.",
"c.c.c.c.c.c.c.c.X.v D ' g.x.i.w w w w w w w w w w w w w w w w w w w w e w w w D v X.c.c.c.c.c.c.c.c.",
"c.c.c.c.c.c.c.X.+.B K p.x.x.| 0 w w w w w w w w w w w w w w w w w w w w w w w w B &.X.c.c.c.c.c.c.c.",
"c.c.c.c.c.c.c.@.A H 9.x.x.x.T w w w w w w w w w w w w w w w w w w w w w w w w w w A O.c.c.c.c.c.c.c.",
"c.c.c.c.c.c.X.! G 6.z.x.x.g.e w w w w w w w w w w w w w w w w w w w w w w w w w w q ! X.c.c.c.c.c.c.",
"c.c.c.c.c.X.b G 5.z.x.x.x.i.w w w w w w w w w w w w w w w w w w w w w w w w w w w w D b X.c.c.c.c.c.",
"c.c.c.c.X.$.B 5.z.x.x.x.x.6.0 w 0 w 0 0 0 0 0 0 0 0 0 0 0 0 0 0 w w w w w w w w w w w F o.X.c.c.c.c.",
"c.c.c.c.o.C } g.z.z.z.l.z.{ 8 3 8 8 3 8 3 3 3 3 8 3 3 3 8 8 8 3 8 8 8 3 8 8 8 0 0 0 0 w A O...c.c.c.",
"c.c.c.O.V _ d.l.l.l.l.l.l.[ 2 1 1 1 1 1 1 1 1 1 1 1 1 1 1 1 1 1 1 1 1 1 2 2 2 3 2 3 3 6 9 c X.c.c.c.",
"c.c...x 6 y.l.l.s.l.l.f.l.[ > > > > > > > : > > : > : : > > > : > > > > > , , , , 1 1 2 3 7 z ..c.c.",
"c...l 5 M f.f.f.l.s.s.s.s.>.o : : : : : : : : : : : : : : : : : : : : : : : : : : : > > , 1 f l ..c.",
"c...d 1 C s.s.s.s.s.s.s.s.y., : : : : : : : : : : : : : : : : : : : : : : : : : : : : : : > , s ..l ",
"....; : C s.s.s.s.s.s.s.s.s.5 : : : : : : : : : : : : : : : : : : : : : : : : : : : : : : : : = ....",
"X ..# : N s.s.s.s.s.s.s.s.s.{ : : : : : : : : : : : : : : : : : : : : : : : : : : : : : : : : # ..X ",
"X ..r : < u.s.s.s.s.s.s.s.s.a.m : : : : : : : : : : : : : : : : : : : : : : : : : : : : : : : r X ..",
"c.X j o > A a.s.s.s.s.s.s.s.s.7.< : : : : : : : : : : : : : : : : : : : : : : : : : : : : : o g ..c.",
"c...X y o , A t.s.s.s.s.s.s.s.s.) < : : : : : : : : : : : : : : : : : : : : : : : : : : : o y X X c.",
"c.c.... O : > N :.a.s.s.s.s.s.s.s.1.4 : : : : : : : : : : : : : : : : : : : : : : : : : : O . X c.c.",
"c.c...X j r : : 4 C 1.u.s.s.s.s.s.s.3.C , : : : : : : : : : : : : : : : : : : : : : : o r j ....c.c.",
"c.c.c...X . y $ : : 4 N ^ 3.y.s.s.s.s.8.( m > : : : : : : : : : : : : : : : : : : : @ y . X ..c.c.c.",
"c.c.c.c...... p - & : : , 5 N A ^ ( ( :.( N , : : : : : : : : : : : : : : : : : o O i . ....c.c.c.c.",
"c.c.c.c.c.c...X j a - $ : : : : , < 4 4 < < > : : : : : : : : : : : : : : o @ O u   X X c.c.c.c.c.c.",
"c.c.c.c.c.c.c.X ....j h a r + # # $ $ $ $ $ $ $ $ $ $ $ $ $ $ @ % $ # = t a h   X X X c.c.c.c.c.c.c.",
"c.c.c.c.c.c.c.c.c...X ..X k j g h h p h h p h h h h h h h p h h h h h g . l l X X c.c.c.c.c.c.c.c.c."
};
