/* XPM */
static char *result[] = {
/* columns rows colors chars-per-pixel */
"64 64 34 1 ",
"  c #060000",
". c #100000",
"X c #180000",
"o c #200000",
"O c #290000",
"+ c #320000",
"@ c #3B0000",
"# c #450000",
"$ c #4E0000",
"% c #580000",
"& c #600000",
"* c #620000",
"= c #6C0000",
"- c #770000",
"; c #810000",
": c #820000",
"> c #8A0000",
", c #940000",
"< c #9E0000",
"1 c #A80000",
"2 c #B10000",
"3 c #BA0000",
"4 c #BD0000",
"5 c #C20000",
"6 c #C30000",
"7 c #D30000",
"8 c #DB0000",
"9 c #DD0000",
"0 c #E50000",
"q c #F40000",
"w c #FD0000",
"e c #FE0000",
"r c red",
"t c None",
/* pixels */
"tttttttttttttttttttttttttttttttttttttttttttttttttttttttttttttttt",
"tttttttttttttttttttttttttttttttttttttttttttttttttttttttttttttttt",
"tttttttttttttttttttttttttttttttttttttttttttttttttttttttttttttttt",
"tttttttttttttttttttttttttttttttttttttttttttttttttttttttttttttttt",
"tttttttttttttttttttttttttttttttttttttttttttttttttttttttttttttttt",
"tttttttttttttttttttttttttttttttttttttttttttttttttttttttttttttttt",
"tttttttttttttttttttttttttttttttttttttttttttttttttttttttttttttttt",
"tttttttttttttttttttttttttttttttttttttttttttttttttttttttttttttttt",
"tttttttttttttttttttttttttttttttttttttttttttttttttttttttttttttttt",
"tttttttttttttttttttttttttttttttttttttttttttttttttttttttttttttttt",
"tttttttttttttttttttttttttttttttttttttttttttttttttttttttttttttttt",
"tttttttttttttttttttttttttttttttttttttttttttttttttttttttttttttttt",
"tttttttttttttttttttttttttttttttttttttttttttttttttttttttttttttttt",
"tttttttttttttttttttttttttttttttrrrrrtttttttttttttttttttttttttttt",
"tttttttttttttttttttttttttrrrrrrrrewrtrtttttttttttttttttttttttttt",
"tttttttttttttttttttttttttrr4=@oXo@==<9rrtttttttttttttttttttttttt",
"tttttttttttttttttttttrrr5&O. X.oX.XO+*$4rrrttttttttttttttttttttt",
"ttttttttttttttttttttrrq=O@oo+$-*@O@$=1#o#4rrrrtttttttttttttttttt",
"tttttttttttttttttttrr2+X+#@$$*7%%#%*3=%@++,eertttttttttttttttttt",
"ttttttttttttttttttre>.Xo$#*$%+@$@#$=;--*%$+-werttttttttttttttttt",
"ttttttttttttttrttrr- .X+@#*-#+-=-#$>;==;=-%@8wrttttttttttttttttt",
"ttttttttttttttttrr<  o+#o$;*+%=#**@-;;>-;<-@=>ertttttttttttttttt",
"tttttttttttttttre9++$++%OO$#@=*@*=+--;<<-;;$OO<rtttttttttttttttt",
"tttttttttttttttre=Oo$@+%$+O+@==*%%$-=,11<>;=#oo9rttttttttttttttt",
"ttttttttttttttrr7oX;;=*#$*$#%--=%$%=-,111111<-o*rttttttttttttttt",
"ttttttttttttttrw2-O=2-%*$$%*==$@+O%->1111<<,<>+Xtttttttttttttttt",
"tttttttttttttre0,@@%-=-%*%#$*-%++O*->,,>>--->>@o>ttttttttttttttt",
"tttttttttttttre2#o+$*-**%%OO*=-=@@=->-;;-=-;>;@.%ttttttttttttttt",
"tttttttttttttrw*oo++$**=*%#*@@*$%O*->$$==>,1>*#.Xrtttttttttttttt",
"tttttttttttttre$+#@$@#$$*-=-;->%%=%=$%@-<;$#**$  4tttttttttttttt",
"tttttttttttttrrOo$$$%#+@##*=-;;>;-=**-,<-$-11<># <rttttttttttttt",
"tttttttttttttrrX#2*@%=%@+@%--<<;-;-;;->>*;1211<=@>rttttttttttttt",
"tttttttttttttr0+O%**===*%$*;>;>>-;-;;;;-$;<<22<=@>tttttttttttttt",
"tttttttttttttrq=o+$=-=;-%=;;=====*%%%#%%*-><63<*+<rttttttttttttt",
"tttttttttttttrw@X$%-=-=*->--$#%=-*+#%%**%%-,12<$ 4rttttttttttttt",
"tttttttttttttre#.==---=->-*%*+@@$+%$$**%%*%-<1<+X8rttttttttttttt",
"tttttttttttttre,o$;-;-->-*%+@+@#o@%O+*$$*$*%>1,X@erttttrtttttttt",
"tttttttttttttre7%+>;>,;>=#@++$$@#$O#%@@*#*$%=<>X=rrttttrtttttttt",
"ttttttttttttttrw-#*>,-==#+OoOo#@#X%%##+$*#%%-;$+3rtttttttttttttt",
"ttttttttttttttre0$O#*@*@++++oOoO.O=*%@@%$@%*%#o%ertttttttttttttt",
"tttttttttttttttr0O@%%@#$=$+O+XO+$#-=$%$*O%288+#3ettttttttttttttt",
"ttttttttttttttttr:OO*@%=%$$$O+@@=%;-+=$*+**=*O@erttttttttttttttt",
"ttttttttttttttttrr@o#%-$=**%@@%***;=;,<>%%@$@o9rttrttttttttttttt",
"tttttttttttttttttr9ooo=*$%%%%%#**$$$%%*;;O...<rttttttttttttttttt",
"ttttttttttttttttttr9+.+$*$%$%*$**-*#+%%=*+X%2rrttttttttttttttttt",
"tttttttttttttttttttrr@.o##$$#**==6>=*=*%$.X3rrtttttttttttttttttt",
"ttttttttttttttttttttrr-++++o@%=;;,-$**OO+&5rtttttttttttttttttttt",
"tttttttttttttttttttttrr961X..o$=--@O#+.$4ttttttttttttttttttttttt",
"ttttttttttttttttttttrttrr9:OX +%%@..O&4rrttttttttttttttttttttttt",
"tttttttttttttttttttttttttrrrr4>>><49rrrttttttttttttttttttttttttt",
"tttttttttttttttttttttttttttttrrtrrrttttttttttttttttttttttttttttt",
"tttttttttttttttttttttttttttttttttttttttttttttttttttttttttttttttt",
"tttttttttttttttttttttttttttttttttttttttttttttttttttttttttttttttt",
"ttttttttttttttttttttttttttttttttttttttttttttttrttttttttttttttttt",
"tttttttttttttttttttttttttttttttttttttttttttttttttttttttttttttttt",
"tttttttttttttttttttttttttttttttttttttttttttttttttttttttttttttttt",
"tttttttttttttttttttttttttttttttttttttttttttttttttttttttttttttttt",
"tttttttttttttttttttttttttttttttttttttttttttttttttttttttttttttttt",
"tttttttttttttttttttttttttttttttttttttttttttttttttttttttttttttttt",
"tttttttttttttttttttttttttttttttttttttttttttttttttttttttttttttttt",
"tttttttttttttttttttttttttttttttttttttttttttttttttttttttttttttttt",
"tttttttttttttttttttttttttttttttttttttttttttttttttttttttttttttttt",
"tttttttttttttttttttttttttttttttttttttttttttttttttttttttttttttttt",
"tttttttttttttttttttttttttttttttttttttttttttttttttttttttttttttttt"
};
