/* XPM */
static char *result[] = {
/* columns rows colors chars-per-pixel */
"64 64 35 1 ",
"  c #060000",
". c #100000",
"X c #180000",
"o c #200000",
"O c #290000",
"+ c #320000",
"@ c #3B0000",
"# c #450000",
"$ c #4E0000",
"% c #580000",
"& c #620000",
"* c #6C0000",
"= c #770000",
"- c #810000",
"; c #820000",
": c #8A0000",
"> c #940000",
", c #9E0000",
"< c #A80000",
"1 c #B10000",
"2 c #BA0000",
"3 c #BD0000",
"4 c #C20000",
"5 c #C30000",
"6 c #CB0000",
"7 c #D30000",
"8 c #DB0000",
"9 c #DD0000",
"0 c #E50000",
"q c #EC0000",
"w c #F40000",
"e c #FD0000",
"r c #FE0000",
"t c red",
"y c None",
/* pixels */
"yyyyyyyyyyyyyyyyyyyyyyyyyyyyyyyyyyyyyyyyyyyyyyyyyyyyyyyyyyyyyyyy",
"yyyyyyyyyyyyyyyyyyyyyyyyyyyyyyyyyyyyyyyyyyyyyyyyyyyyyyyyyyyyyyyy",
"yyyyyyyyyyyyyyyyyyyyyyyyyyyyyyyyyyyyyyyyyyyyyyyyyyyyyyyyyyyyyyyy",
"yyyyyyyyyyyyyyyyyyyyyyyyyyyyyyyyyyyyyyyyyyyyyyyyyyyyyyyyyyyyyyyy",
"yyyyyyyyyyyyyyyyyyyyyyyyyyyyyyyyyyyyyyyyyyyyyyyyyyyyyyyyyyyyyyyy",
"yyyyyyyyyyyyyyyyyyyyyyyyyyyyyyyyyyyyyyyyyyyyyyyyyyyyyyyyyyyyyyyy",
"yyyyyyyyyyyyyyyyyyyyyyyyyyyyyyyyyyyyyyyyyyyyyyyyyyyyyyyyyyyyyyyy",
"yyyyyyyyyyyyyyyyyyyyyyyyyyyyyyyyyyyyyyyyyyyyyyyyyyyyyyyyyyyyyyyy",
"yyyyyyyyyyyyyyyyyyyyyyyyyyyyyyyyyyyyyyyyyyyyyyyyyyyyyyyyyyyyyyyy",
"yyyyyyyyyyyyyyyyyyyyyyyyyyyyyyyyyyyyyyyyyyyyyyyyyyyyyyyyyyyyyyyy",
"yyyyyyyyyyyyyyyyyyyyyyyyyyyyyyyyyyyyyyyyyyyyyyyyyyyyyyyyyyyyyyyy",
"yyyyyyyyyyyyyyyyyyyyyyyyyyyyyyyyyyyyyyyyyyyyyyyyyyyyyyyyyyyyyyyy",
"yyyyyyyyyyyyyyyyyyyyyyyyyyyyyyyyyyyyyyyyyyyyyyyyyyyyyyyyyyyyyyyy",
"yyyyyyyyyyyyyyyyyyyyyyyyyyyyttttttytyyyyyyyyyyyyyyyyyyyyyyyyyyyy",
"yyyyyyyyyyyyyyyyyyyyyyyytttttttttrtttttyyyyyyyyyyyyyyyyyyyyyyyyy",
"yyyyyyyyyyyyyyyyyyyyyyttree07<:=->=,39tttyyyyyyyyyyyyyyyyyyyyyyy",
"yyyyyyyyyyyyyyyyyyyyytrr02,>:,-&#&=%-%-3tttyyyyyyyyyyyyyyyyyyyyy",
"yyyyyyyyyyyyyyyyyyyytrq1-*2-@oOOXo@&$@%*:6ttyyyyyyyyyyyyyyyyyyyy",
"yyyyyyyyyyyyyyyyyyytr6:&$++o .oo  XXoX@%=>1rttyyyyyyyyyyyyyyyyyy",
"yyyyyyyyyyyyyyyyyytt8:&#X.  .X=@..oOO+$#%=>6rttyyyyyyyyyyyyyyyyy",
"yyyyyyyyyyyyyyyyytt16>%o.     . .XO@$%,=@#-<5eryyyyyyyyyyyyyyyyy",
"yyyyyyyyyyyyyyyytr0->=@.. ...   .X@@OXOooX+*<qrtyyyyyyyyyyyyyyyy",
"yyyyyyyyyyyyyyyyt956=@@X. . .     X#@OO@oXO$>w0ttyyyyyyyyyyyyyyy",
"yyyyyyyyyyyyyyyyy==%+OO+o .    .  oX%%$$$@=%%5<wtyyyyyyyyyyyyyyy",
"yyyyyyyyyyyyyyyt3=$@O#@.oOo    .   @%@O+o@%$*-72tyyyyyyyyyyyyyyy",
"yyyyyyyyyyyyyytt:*+o@&$o..+O . . .+  #XoXO@%##2<ttyyyyyyyyyyyyyy",
"yyyyyyyyyyyyyytq>&+#$@##@O+@O.   O. o.. XXoO.@:>1tyyyyyyyyyyyyyy",
"yyyyyyyyyyyyytr86&o@@@@+++OOX   oo    .. XooOO=>-tyyyyyyyyyyyyyy",
"yyyyyyyyyyyyytr6=*#$++OOO+X.X  .o . X.    XO.X*<>tyyyyyyyyyyyyyy",
"yyyyyyyyyyyyytr<1%&@+OoX. oO+      .XoX  XoXo+%:20tyyyyyyyyyyyyy",
"yyyyyyyyyyyyytt*=&**@X. .X .+X   o   .oo .@.. X$>qtyyyyyyyyyyyyy",
"yyyyyyyyyyyyyyt@#%$$X..X ..o @   ooX  XoOXo+OXO@*9tyyyyyyyyyyyyy",
"yyyyyyyyyyyyyy4@o#OX.o..X@$OX+o ...   ..@.oOo#:1&,tyyyyyyyyyyyyy",
"yyyyyyyyyyyyyyt@o+@OOXo#++#+%$O@+.     o$.o+O+@+&3tyyyyyyyyyyyyy",
"yyyyyyyyyyyyyyt#Oo$.ooOoXXO#%#++OoO@@#+#@ oO++X@=9tyyyyyyyyyyyyy",
"yyyyyyyyyyyyyyt&@+*o     XX#+%@OXX.oX+$+. X$:@X$:9tyyyyyyyyyyyyy",
"yyyyyyyyyyyyyyt;*7=O    XXO$%$$X.X. XO    .+%@o=,tyyyyyyyyyyyyyy",
"yyyyyyyyyyyyyyt4*6*O..XoO+$+#+ooo.  XX    +O+O@8qryyyyyyyyyyyyyy",
"yyyyyyyyyyyyyyyt$%*X X XXO++@#O .%X .ooXXoo.Xo$eqtyyyyyyyyyyyyyy",
"yyyyyyyyyyyyyyyt:@$#OX@oO+@o#@@@$@#. Xoooooo .=8ttyyyyyyyyyyyyyy",
"yyyyyyyyyyyyyyyyt#@#@++OOOO  +Oo@#@#. .ooo+@@&50tyyyyyyyyyyyyyyy",
"yyyyyyyyyyyyyyyyt,&$o@%#o.X  .   +$@%.  ..O$>28rttyyyyyyyyyyyyyy",
"yyyyyyyyyyyyyyyytt=&#O+++X.XO XXX.$*+#  .o#,76wtyyyyyyyyyyyyyyyy",
"yyyyyyyyyyyyyyyyyt9,=>&*+oXoOOO.X.@%$#++@%-,10tyyyyyyyyyyyyyyyyy",
"yyyyyyyyyyyyyyyyyyrw5<-$+O@OOO&+X .+$@O+e><66ttyyyyyyyyyyyyyyyyy",
"yyyyyyyyyyyyyyyyyyytr1,:*$=&$>6@X    o@#*,>0ttyyyyyyyyyyyyyyyyyy",
"yyyyyyyyyyyyyyyyyyyett1:::q<q#$+.   o#&,2>9tyyyyyyyyyyyyyyyyyyyy",
"yyyyyyyyyyyyyyyyyyyyytt9,><:=$oXOo+$*1:*6ttyyyyyyyyyyyyyyyyyyyyy",
"yyyyyyyyyyyyyyyyyyyyyyytt91*&%#%@$*-100tttyytyytyyyyyyyyyyyyyyyy",
"yyyyyyyyyyyyyyyyyyyyyyyyytttty:3,399rttyyyyyyyyyyyyyyyyyyyyyyyyy",
"yyyyyyyyyyyyyyyyyyyyyyyyyyyyyyyttttttyyyyyyyyyyyyyyyyyyyyyyyyyyy",
"yyyyyyyyyyyyyyyyyyyyyyyyyyyyyyyyyyyyyyyyyyyyyyyyyyyyyyyyyyyyyyyy",
"yyyyyyyyyyyyyyyyyyyyyyyyyyyyyyyyyyyyyyyyyyyyyyyyyyyyyyyyyyyyyyyy",
"yyyyyyyyyyyyyyyyyyyyyyyyyyyyyyyyyyyyyyyyyyyyyyyyyyyyyyyyyyyyyyyy",
"yyyyyyyyyyyyyyyyyyyyyyyyyyyyyyyyyyyyyyyyyyyyyyyyyyyyyyyyyyyyyyyy",
"yyyyyyyyyyyyyyyyyyyyyyyyyyyyyyyyyyyyyyyyyyyyyyyyyyyyyyyyyyyyyyyy",
"yyyyyyyyyyyyyyyyyyyyyyyyyyyyyyyyyyyyyyyyyyyyyyyyyyyyyyyyyyyyyyyy",
"yyyyyyyyyyyyyyyyyyyyyyyyyyyyyyyyyyyyyyyyyyyyyyyyyyyyyyyyyyyyyyyy",
"yyyyyyyyyyyyyyyyyyyyyyyyyyyyyyyyyyyyyyyyyyyyyyyyyyyyyyyyyyyyyyyy",
"yyyyyyyyyyyyyyyyyyyyyyyyyyyyyyyyyyyyyyyyyyyyyyyyyyyyyyyyyyyyyyyy",
"yyyyyyyyyyyyyyyyyyyyyyyyyyyyyyyyyyyyyyyyyyyyyyyyyyyyyyyyyyyyyyyy",
"yyyyyyyyyyyyyyyyyyyyyyyyyyyyyyyyyyyyyyyyyyyyyyyyyyyyyyyyyyyyyyyy",
"yyyyyyyyyyyyyyyyyyyyyyyyyyyyyyyyyyyyyyyyyyyyyyyyyyyyyyyyyyyyyyyy",
"yyyyyyyyyyyyyyyyyyyyyyyyyyyyyyyyyyyyyyyyyyyyyyyyyyyyyyyyyyyyyyyy"
};
