/* XPM */
static char *result[] = {
/* columns rows colors chars-per-pixel */
"64 64 23 1 ",
"  c #4E0000",
". c #620000",
"X c #6C0000",
"o c #770000",
"O c #810000",
"+ c #8A0000",
"@ c #940000",
"# c #9E0000",
"$ c #A80000",
"% c #B10000",
"& c #BA0000",
"* c #C30000",
"= c #CB0000",
"- c #D30000",
"; c #DB0000",
": c #DD0000",
"> c #E50000",
", c #EC0000",
"< c #F40000",
"1 c #FD0000",
"2 c #FE0000",
"3 c red",
"4 c None",
/* pixels */
"4444444444444444444444444444444444444444444444444444444444444444",
"4444444444444444444444444444444444444444444444444444444444444444",
"4444444444444444444444444444444444444444444444444444444444444444",
"4444444444444444444444444444444444444444444444444444444444444444",
"4444444444444444444444444444444444444444444444444444444444444444",
"4444444444444444444444444444444444444444444444444444444444444444",
"4444444444444444444444444444444444444444444444444444444444444444",
"4444444444444444444444444444444444444444444444444444444444444444",
"4444444444444444444444444444444444444444444444444444444444444444",
"4444444444444444444444444444444444444444444444444444444444444444",
"4444444444444444444444444444444444444444444444444444444444444444",
"4444444444444444444444444444444444444444444444444444444444444444",
"4444444444444444444444444444444444444444444444444444444444444444",
"4444444444444444444443444444433333334443444444444444444444444444",
"4444444444444444444444444333333321133333444444444444444444444444",
"4444444444444444444444433322=;=;& o=&,12344444444444444444444444",
"444444444444444444444333<1-=*---@+#@O#@-334434444444444444444444",
"44444444444444444444332=#%=,1<<<<;;&-,@&>33344444444444444444444",
"444444444444444444433*@O&>,>=->>>,>1<<;,<;-334444444444444444444",
"44444444444444444433>;<,>*-;;--=;->>,<,-><<>33344444444444444444",
"4444444444444444432-$>;&=,,>--=*>=-,><>>-><,>4444444444444444444",
"444444444444443432>*;,-=&;-;-=&&<;;1=;<%-&&=;:344444444444444444",
"44444444444444433-;,>=-;>-=**$$*<;*,%><-=*&%=1:34444444444444444",
"44444444444444432*,,==*=*=&%%$%,1*%%*<1<-*=%&,>33444444444444444",
"4444444444444443>*,*&=*&&-,->;<>-*%$%=,<;=-=%-,-2344444444444444",
"4444444444444433,1>*=&*;>-><>>;=$$$&*=<;;-;-&*,#,344444444444444",
"444444444444432>#<*%&$>1<;<,*--%##%&,1>,=;*>**,#%344444444444444",
"444444444444432%%,,;;>,<11<>=*<*%%%*>;&>-*&-=;<#%334444444444444",
"444444444444431#=-&&%-,<<<>>*==>;==*=<>&-;>-><<>>334444444444444",
"444444444444431&=,;;-;,<11<<-=*%*->=-*<>&*>>;*%,;234444444444444",
"444444444444432-<&%&>>;,1111>--*%&&>;=-;#>-%-;>>#>34444444444444",
"444444444444421.&>=&$&;*1,<,;<;=&%==>>;;>&++#->;*;34444444444444",
"44444444444443<$*<;;**;*;<;=;1,--&=*;<<>=#++%*-,@&34444444444444",
"444444444444432*>111<--*;-,;,,;====;-*<>-@++@&<,=*33444444444444",
"444444444444432$*>,-=***&&=;,,1;>--;;*--=@+#@$=,&>34444444444444",
"444444444444431O#,-;;=*=%*;;>,>1->-;=;,>,-=&$%=,=234444444444444",
"444444444444432#@-<,=-;-=>><,>,>>>*>1><1<,->;,*;=334444444444444",
"444444444444443=@%1,=-=>*-;;,,>,,==<**>>,>,<><<-=344444444444444",
"4444444444444432&&,,-;;>--**;,,,-*-==&--;-&;-<>-,344444444444444",
"4444444444444433&$;<;;,>-=&%&*=-*==**;;>-&*%->&&2344444444444444",
"4444444444444443>@%;<-;>;=%##@###%=*,,<>-*&%,%X&3444444444444444",
"44444444444444432&,=>>;>>*$@+@%*;1-;,<,<-<%->oo23444444444444444",
"444444444444444431%=&,>,,*#++$*%=;*-;,,;=&*>&X;34444444444444444",
"4444444444444444332&$;>-1>=@@$*$$-,%;--%&&>;+&234444444444444444",
"4444444444444434332>+%>==---&%&=&%-=&*&#*,*+&2344444444444444444",
"444444444444444444422->,,-->=&&&=*%-*-*->*#=34444444444444444444",
"4444444444444444444433-;,,<>-==*&*&&-->-&+;344444444444444444444",
"444444444444444444444333-#*;>>>>>=,,,&1%=23434444444444444444444",
"44444444444444444444444332-&&**=>,>**%-3334444444444444444444444",
"444444444444444444444444333333>;>;333333444444444444444444444444",
"4444444444444444444444444444333333344444444444444444444444444444",
"4444444444444444444444444444444444444444444444444444444444444444",
"4444444444444444444444444444444444444444444444444444444444444444",
"4444444444444444444444344444444444444444444444444444444444444444",
"4444444444444444444444444444444444444444444444444444444444444444",
"4444444444444444444444444444444444444444444444444444444444444444",
"4444444444444444444444444444444444444444444444444444444444444444",
"4444444444444444444444444444444444444444444444444444444444444444",
"4444444444444444444444444444444444444444444444444444444444444444",
"4444444444444444444444444444444444444444444444444444444444444444",
"4444444444444444444444444444444444444444444444444444444444444444",
"4444444444444444444444444444444444444444444444444444444444444444",
"4444444444444444444444444444444444444444444444444444444444444444",
"4444444444444444444444444444444444444444444444444444444444444444"
};
