/* XPM */
static char *result[] = {
/* columns rows colors chars-per-pixel */
"64 64 37 1 ",
"  c #060000",
". c #100000",
"X c #180000",
"o c #200000",
"O c #290000",
"+ c #320000",
"@ c #3B0000",
"# c #450000",
"$ c #4E0000",
"% c #570000",
"& c #580000",
"* c #600000",
"= c #620000",
"- c #6C0000",
"; c #770000",
": c #810000",
"> c #820000",
", c #8A0000",
"< c #940000",
"1 c #9E0000",
"2 c #A80000",
"3 c #B10000",
"4 c #BA0000",
"5 c #BD0000",
"6 c #C20000",
"7 c #C30000",
"8 c #CB0000",
"9 c #D30000",
"0 c #DB0000",
"q c #DD0000",
"w c #E50000",
"e c #EC0000",
"r c #F40000",
"t c #FD0000",
"y c #FE0000",
"u c red",
"i c None",
/* pixels */
"iiiiiiiiiiiiiiiiiiiiiiiiiiiiiiiiiiiiiiiiiiiiiiiiiiiiiiiiiiiiiiii",
"iiiiiiiiiiiiiiiiiiiiiiiiiiiiiiiiiiiiiiiiiiiiiiiiiiiiiiiiiiiiiiii",
"iiiiiiiiiiiiiiiiiiiiiiiiiiiiiiiiiiiiiiiiiiiiiiiiiiiiiiiiiiiiiiii",
"iiiiiiiiiiiiiiiiiiiiiiiiiiiiiiiiiiiiiiiiiiiiiiiiiiiiiiiiiiiiiiii",
"iiiiiiiiiiiiiiiiiiiiiiiiiiiiiiiiiiiiiiiiiiiiiiiiiiiiiiiiiiiiiiii",
"iiiiiiiiiiiiiiiiiiiiiiiiiiiiiiiiiiiiiiiiiiiiiiiiiiiiiiiiiiiiiiii",
"iiiiiiiiiiiiiiiiiiiiiiiiiiiiiiiiiiiiiiiiiiiiiiiiiiiiiiiiiiiiiiii",
"iiiiiiiiiiiiiiiiiiiiiiiiiiiiiiiiiiiiiiiiiiiiiiiiiiiiiiiiiiiiiiii",
"iiiiiiiiiiiiiiiiiiiiiiiiiiiiiiiiiiiiiiiiiiiiiiiiiiiiiiiiiiiiiiii",
"iiiiiiiiiiiiiiiiiiiiiiiiiiiiiiiiiiiiiiiiiiiiiiiiiiiiiiiiiiiiiiii",
"iiiiiiiiiiiiiiiiiiiiiiiiiiiiiiiiiiiiiiiiiiiiiiiiiiiiiiiiiiiiiiii",
"iiiiiiiiiiiiiiiiiiiiiiiiiiiiiiiiiiiiiiiiiiiiiiiiiiiiiiiiiiiiiiii",
"iiiiiiiiiiiiiiiiiiiiiiiiiiiiiiiiiiiiiiiiiiiiiiiiiiiiiiiiiiiiiiii",
"iiiiiiiiiiiiiiiiiiiiiiiiiiiiuiiiiiiuiiiiiiiiiiiiiiiiiiiiiiiiiiii",
"iiiiiiiiiiiiiiiiiiiiiiiiiiuuuuuiiuuyuuuiiiiiiiiiiiiiiiiiiiiiiiii",
"iiiiiiiiiiiiiiiiiiiiiiuuuuu5>@o o+#11wuuiiiiiiiiiiiiiiiiiiiiiiii",
"iiiiiiiiiiiiiiiiiiiiiuuyq;@@OX ..+;#&=&5uuiiiiuuiiiiiiiiiiiiiiii",
"iiiiiiiiiiiiiiiiiiiiuuw:@O.ooX.O#O@o#=$-&5uuiiiiiiiiiiiiiiiiiiii",
"iiiiiiiiiiiiiiiiiiiuu3$O  o=;@++=O.XO-oOXO>uuuiiiiiiiiiiiiiiiiii",
"iiiiiiiiiiiiiiiiiiuu<&OXO+$-&@OO+@XXOX$+o.o&yuuiiiiiiiiiiiiiiiii",
"iiiiiiiiiiuiiiiiiuu>@@o@++#1#@@@$&O. .O++oo+-tuiiiiiiiiiiiiiiiii",
"iiiiiiiiiiiiiiiiuu2#@ +@++#@@##$$#XX.O++O+&7&3yuiiiiiiiiiiiiiiii",
"iiiiiiiiiiiiiiiiuw-O  +@@OO+@###$@XXoo++O+#@$;8yuiiiiiiiiiiiiiii",
"iiiiiiiiiiiiiiiuu,7#.oXO@$++@+@#$#.o.$=-$+oo.+&yuiiiiiiiiiiiiiii",
"iiiiiiiiiiiiiiuu4&:ooooo.X+##++@#+.Oo$=--=&$$Oo,uiiiiiiiiiiiiiii",
"iiiiiiiiiiiiiiuy,@@ o+.o X o+$++@+.X+@$$$$&&=$.,uiiiiiiiiiiiiiii",
"iiiiiiiiiiiiiuur<,X +O+.o . X#+@@+Xo++$$$###&-O-1iiiiiiiiiiiiiii",
"iiiiiiiiiiiiiuy<@Xo.O@oO..X XXO##@.ooX$&$#@#-1@&@iiiiiiiiiiiiiii",
"iiiiiiiiiiiiiut4=...+@@oOO.  X###X o+.XO@#$&==#$@uiiiiiiiiiiiiii",
"iiiiiiiiiiiiiut,,...+@#+OooOo@#&+OooO##$$@+.O$#+-quiiiiiiiiiiiii",
"iiiiiiiiiiiiiuy;&XXX@@@@@##$O+#+O+@@+$&=#.X&-2&.#9uiiiiiiiiiiiii",
"iiiiiiiiiiiiiuy$X...+@#####+@.@+@@#@@@$&XX$=-;-+X1uiiiiiiiiiiiii",
"iiiiiiiiiiiiiuqooX. O@#@@@$#$@X@@@@@++$o .$&===# ,iiiiiiiiiiiiii",
"iiiiiiiiiiiiiuyOoOX @+Oo.. o.XoO+@+oX.    +$=--@ ,iiiiiiiiiiiiii",
"iiiiiiiiiiiiiuy+X@+oX  X    . . . .oXXoX   @-3;O.,iiiiiiiiiiiiii",
"iiiiiiiiiiiiiuy#o##OXX.+oo.oo  . .+#$O      &1:Ooquiiiiiiiiiiiii",
"iiiiiiiiiiiiiuy;o$31.@@oo.X.oOX..@$$O Oo . .#91O$uiiiiiiiiiiiiii",
"iiiiiiiiiiiiiuy3O#-;@#@.XXOO  Xo.++$o ooX X +,=$2uiiiiiiiiiiiiii",
"iiiiiiiiiiiiiiuy@o#@O@X..oO+O. Xo++#+. ...  X=+@0uiiiiiiiiiiiiii",
"iiiiiiiiiiiiiiuu*+$;#$#o.OO+++oO@$+X@+. ...X+@X=uuiiiiiiiiiiiiii",
"iiiiiiiiiiiiiiiuq:-@@3:o.XoO@@+Oo@#OO#OX..X+OX#9uiiiiiiiiiiiiiii",
"iiiiiiiiiiiiiiiuu1<&@$=@o. X@#++#oO@.$$+X.O+@$;yuyiiiiiiiiiiiiii",
"iiiiiiiiiiiiiiiiuy1$@O@$@O.==-$#=#Oo@@=$@OO;71quiuiiiiiiiiiiiiii",
"iiiiiiiiiiiiiiiiiue@$O@rOO+#-,=&&$@oXO++w@$;<wuiiiiiiiiiiiiiiiii",
"iiiiiiiiiiiiiiiiiuuq<@O++X++&=&=&@@oXXO+@@+$0uuiiiiiiiiiiiiiiiii",
"iiiiiiiiiiiiiiiiiiiuq&O. XOO$&&&##@+oX.o#:;5uuiiiiiiiiiiiiiiiiii",
"iiiiiiiiiiiiiiiiiiiiuu>Oo. X@$=&#OoX.. O:eruiiiiiiiiiiiiiiiiiiii",
"iiiiiiiiiiiiiiiiiiiiiuuq&OoX.O@O..X @#@&5yuiiiiiiiiiiiiiiiiiiiii",
"iiiiiiiiiiiiiiiiiiiiiiiuu6>#.XX.O#+$<:5uuuiiiiiiiiiiiiiiiiiiiiii",
"iiiiiiiiiiiiiiiiiiiiiiiiiiuuii%,>15qyuuiiiiiiiiiiiiiiiiiiiiiiiii",
"iiiiiiiiiiiiiiiiiiiiiiiiiiiiiiiiuuuuuiiiiiiiiiiiiiiiiiiiiiiiiiii",
"iiiiiiiiiiiiiiiiiiiiiiiiiiiiiiiiiiiiiiiiiiiiiiiiiiiiiiiiiiiiiiii",
"iiiiiiiiiiiiiiiiiiiiiiiiiiiiiiiiiiiiiiiiiiiiiiiiiiiiiiiiiiiiiiii",
"iiiiiiiiiiiiiiiiiiiiiiiiiiiiiiiiiiiiiiiiiiiiiiiiiiiiiiiiiiiiiiii",
"iiiiiiiiiiiiiiiiiiiiiiiiiiiiiiiiiiiiiiiiiiiiiiiiiiiiiiiiiiiiiiii",
"iiiiiiiiiiiiiiiiiiiiiiiiiiiiiiiiiiiiiiiiiiiiiiiiiiiiiiiiiiiiiiii",
"iiiiiiiiiiiiiiiiiiiiiiiiiiiiiiiiiiiiiiiiiiiiiiiiiiiiiiiiiiiiiiii",
"iiiiiiiiiiiiiiiiiiiiiiiiiiiiiiiiiiiiiiiiiiiiiiiiiiiiiiiiiiiiiiii",
"iiiiiiiiiiiiiiiiiiiiiiiiiiiiiiiiiiiiiiiiiiiiiiiiiiiiiiiiiiiiiiii",
"iiiiiiiiiiiiiiiiiiiiiiiiiiiiiiiiiiiiiiiiiiiiiiiiiiiiiiiiiiiiiiii",
"iiiiiiiiiiiiiiiiiiiiiiiiiiiiiiiiiiiiiiiiiiiiiiiiiiiiiiiiiiiiiiii",
"iiiiiiiiiiiiiiiiiiiiiiiiiiiiiiiiiiiiiiiiiiiiiiiiiiiiiiiiiiiiiiii",
"iiiiiiiiiiiiiiiiiiiiiiiiiiiiiiiiiiiiiiiiiiiiiiiiiiiiiiiiiiiiiiii",
"iiiiiiiiiiiiiiiiiiiiiiiiiiiiiiiiiiiiiiiiiiiiiiiiiiiiiiiiiiiiiiii"
};
