/* XPM */
static char *result[] = {
/* columns rows colors chars-per-pixel */
"64 64 34 1 ",
"  c #100000",
". c #180000",
"X c #200000",
"o c #290000",
"O c #320000",
"+ c #3B0000",
"@ c #450000",
"# c #4E0000",
"$ c #580000",
"% c #620000",
"& c #6C0000",
"* c #770000",
"= c #810000",
"- c #820000",
"; c #8A0000",
": c #940000",
"> c #9E0000",
", c #A80000",
"< c #B10000",
"1 c #BA0000",
"2 c #BD0000",
"3 c #C20000",
"4 c #C30000",
"5 c #CB0000",
"6 c #D30000",
"7 c #DB0000",
"8 c #DD0000",
"9 c #E50000",
"0 c #EC0000",
"q c #F40000",
"w c #FD0000",
"e c #FE0000",
"r c red",
"t c None",
/* pixels */
"tttttttttttttttttttttttttttttttttttttttttttttttttttttttttttttttt",
"tttttttttttttttttttttttttttttttttttttttttttttttttttttttttttttttt",
"tttttttttttttttttttttttttttttttttttttttttttttttttttttttttttttttt",
"tttttttttttttttttttttttttttttttttttttttttttttttttttttttttttttttt",
"tttttttttttttttttttttttttttttttttttttttttttttttttttttttttttttttt",
"tttttttttttttttttttttttttttttttttttttttttttttttttttttttttttttttt",
"tttttttttttttttttttttttttttttttttttttttttttttttttttttttttttttttt",
"tttttttttttttttttttttttttttttttttttttttttttttttttttttttttttttttt",
"tttttttttttttttttttttttttttttttttttttttttttttttttttttttttttttttt",
"tttttttttttttttttttttttttttttttttttttttttttttttttttttttttttttttt",
"tttttttttttttttttttttttttttttttttttttttttttttttttttttttttttttttt",
"tttttttttttttttttttttttttttttttttttttttttttttttttttttttttttttttt",
"tttttttttttttttttttttttttttttttttttttttttttttttttttttttttttttttt",
"ttttttttttttttttttttttttttttrrrrrrrttttttttttttttttttttttttttttt",
"tttttttttttttttttttttttttrrrrreeerrrrttttttttttttttttttttttttttt",
"ttttttttttttttttttttttrrrrr4;@+@+$=:2rrrrttttttttttttttttttttttt",
"tttttttttttttttttttttree7*#OXo#@$%=>7;*2rrrttttttttttttttttttttt",
"tttttttttttttttttttrew0&+%%@%;,>,<<<<:#+&2errttttttttttttttttttt",
"tttttttttttttttttttrw4XO&;=&;464555451*%&$=wertttttttttttttttttt",
"ttttttttttttttttttre:@.+=:=;11<<467594<,>&+wqrrttttttttttttttttt",
"tttttttttttttttttrr># +**1>44<4676<495<<7>#+#eettttttttttttttttt",
"ttttttttttttttttrr2=&@&*:>46144155,511,,>;*@X$ertttttttttttttttt",
"tttttttttttttttre9#&;;**;,45<55444,14441>;0<$X:rtttttttttttttttt",
"tttttttttttttttrr<:<14>*;><<177664>1<5664>44;$O9rttttttttttttttt",
"tttttttttttttttr8&60<>,1:<16677664<1<66677654=+&ertttttttttttttt",
"ttttttttttttttew#.$;*>:>11>467544,411<1146775>#$rttttttttttttttt",
"tttttttttttttre9 +*:5:<,:**=77645,115::>,<111>@=3ttttttttttttttt",
"tttttttttttttre;X%;>::>:<*:,:5654>,4>=;;;;:,1<$%-rtttttttttttttt",
"tttttttttttttrr%O;<<1>:,;,<5<>><,54>=>,,<,,:=;*%@rrttttttttttttt",
"ttttttttttttttr&&>161><:,<>>44,<1<:>55575<:>1::&O8rttttttttttttt",
"ttttttttttttttt:>,,:,5,>><111964,<<11676<<00775:#2rttttttttttttt",
"tttttttttttttrr;::%=:11>11464441<<<,>,644900755,&<rttttttttttttt",
"tttttttttttttrr%%%:,,*,<,1674<1<411<,<145000764>=2rttttttttttttt",
"tttttttttttttre.o=::>;1<459651<<<<1<<1466909775>*8rttttttttttttt",
"tttttttttttttre.$=;:=:1549767514555554546569906:;7rttttttttttttt",
"tttttttttttttre%%:;<14<579677414166<,<:><155796:=rrttttttttttttt",
"tttttttttttttre*O&,9<5449796544456<54,<,:,1446<$#rtttttttttttttt",
"tttttttttttttte1 @>1>144799645414>11;%**;:<<<>&O&rtttttttttttttt",
"ttttttttttttttew X$::>5<5541<554<>4<*&;,===&&#X 5rrttrtttttttttt",
"ttttttttttttttre*o+&*;&1611,>465<,51:*;:;;:;=#.+rrrttttttttttttt",
"tttttttttttttttrr@$=,1:>54<4>155<<441>:*:>,>:$.>rttttttttttttttt",
"tttttttttttttttrr>>;196:75,14,45<14<>:*;>>:>*@#rrttttttttttttttt",
"tttttttttttttrrttr&&>64:76<,1,15<441,>*;:;>*++8rrrtttttttttttttt",
"ttttttttttttttttttr&=,1&6615<:,,<,,1;;;<==1;#1rttttttttttttttttt",
"ttttttttttttttttttrr;:**4645,>;>:;==1,1=%%o;<rtttttttttttttttttt",
"tttttttttttttttttttrw>#:61141;=%;&::<:=&%Oo1rttttttttttttttttttt",
"ttttttttttttttttttrtre,&=*&:,>;*;<,=;==$+$7rrttttttttttttttttttt",
"tttttttttttttttttttttrr8=@+@:%*#=:&*$#@%2rrttttttttttttttttttttt",
"tttttttttttttttttttttttrr8:$%+oX+&.#$&4rrttttttttttttttttttttttt",
"tttttttttttttttttttttttttrrrr8<,:,48rrrrtttttttttttttttttttttttt",
"ttttttttttttttttttttttttrtttrrrrrrrrttttttttrttttttttttttttttttt",
"tttttttttttttttttttttttttttttttttttttttttttttttttttttttttttttttt",
"tttttttttttttttttttttttttttttttttttttttttttttttttttttttttttttttt",
"tttttttttttttttttttttttttttttttttttttttttttttttttttttttttttttttt",
"tttttttttttttttttttttttttttttttttttttttttttttttttttttttttttttttt",
"tttttttttttttttttttttttttttttttttttttttttttttttttttttttttttttttt",
"tttttttttttttttttttttttttttttttttttttttttttttttttttttttttttttttt",
"tttttttttttttttttttttttttttttttttttttttttttttttttttttttttttttttt",
"tttttttttttttttttttttttttttttttttttttttttttttttttttttttttttttttt",
"tttttttttttttttttttttttttttttttttttttttttttttttttttttttttttttttt",
"tttttttttttttttttttttttttttttttttttttttttttttttttttttttttttttttt",
"tttttttttttttttttttttttttttttttttttttttttttttttttttttttttttttttt",
"tttttttttttttttttttttttttttttttttttttttttttttttttttttttttttttttt",
"tttttttttttttttttttttttttttttttttttttttttttttttttttttttttttttttt"
};
