/* XPM */
static char *result[] = {
/* columns rows colors chars-per-pixel */
"64 64 27 1 ",
"  c #450000",
". c #4E0000",
"X c #580000",
"o c #620000",
"O c #6C0000",
"+ c #770000",
"@ c #810000",
"# c #8A0000",
"$ c #940000",
"% c #9E0000",
"& c #A80000",
"* c #B10000",
"= c #BA0000",
"- c #BD0000",
"; c #C20000",
": c #C30000",
"> c #CB0000",
", c #D30000",
"< c #DB0000",
"1 c #DD0000",
"2 c #E50000",
"3 c #EC0000",
"4 c #F40000",
"5 c #FD0000",
"6 c #FE0000",
"7 c red",
"8 c None",
/* pixels */
"8888888888888888888888888888888888888888888888888888888888888888",
"8888888888888888888888888888888888888888888888888888888888888888",
"8888888888888888888888888888888888888888888888888888888888888888",
"8888888888888888888888888888888888888888888888888888888888888888",
"8888888888888888888888888888888888888888888888888888888888888888",
"8888888888888888888888888888888888888888888888888888888888888888",
"8888888888888888888888888888888888888888888888888888888888888888",
"8888888888888888888888888888888888888888888888888888888888888888",
"8888888888888888888888888888888888888888888888888888888888888888",
"8888888888888888888888888888888888888888888888888888888888888888",
"8888888888888888888888888888888888888888888888888888888888888888",
"8888888888888888888888888888888888888888888888888888888888888888",
"8888888888888888888888888888888888888888888888888888888888888888",
"8888888888888888888888888887777777788888888888888888888888888888",
"8888888888888888888888888777666555777777888888888888888888888888",
"888888888888888888887887765322333:223666788888888888888888888888",
"8888888888888888888887762:,34244323,2354577888888888888888888888",
"88888888888888888887763*%:224<<22:=*,<23>36678888888888888888888",
"8888888888888888888762:<3<:=4>>,=%##*%:4<4<577888888888888888888",
"88888888888888888777232:=>,>=**$##+@@#$,45,&47888888888888888888",
"888888888888888887624,&#*==:=&$@#@++++**,2,<27888888888888888888",
"8888888888888888773>4*%$%@%%$$%=@+@o+@$&<,#&*-888888888888888888",
"88888888888888876<,2>%$%@+#+O+@&+o+OoO#&**@O#$;88888888888888888",
"8888888888888877625=%%&@%=*@++$&@Oooo+#=*%@Xo#*77888888888888888",
"88888888888888871:,=####%#+#%#%#+OX.o+$%%$$oX@=27788888888888888",
"88888888888888762*##%+#%$+&@@#@OooO++#&%$$%+XO:26788888888888888",
"88888888888887752:++++$$&:&%@@#XX..oO*<&#@*%oO,53788888888888888",
"888888888888875<4*&%O#$%%*%=##%@oXXoO#$:%+@+o#=22788888888888888",
"888888888888875:2>$$##$*%:%$:##%#OXooO#*=$$#%$$=,778888888888888",
"88888888888887633:*%%&&:=:=%%$@@#%#oXoo@@+@$$@+*,678888888888888",
"888888888888876,=%&>,:>==***%=$@@#$#OXX++X@+@$#,4378888888888888",
"888888888888865==#%$,=***&#&%%:$@@#$$+XO@&X.$%&,3278888888888888",
"8888888888888642<#%$&=:::&$@@%$>%@O@%@@+%@ .+@*22378888888888888",
"888888888888864,,@#+*=%$$@+%%:$=$@+@+###%@ XXO*32278888888888888",
"8888888888888752,#@@%>&%$$$%::&:&%$O#&@%&o  .O,43378888888888888",
"8888888888888763<$@#*,=%%%&&=:>:*&$$&=%:#. XX+:33478888888888888",
"8888888888888763<#O$$&&&**===:@#%#@O@@*#OXoO+=:23678878888888888",
"8888888888888873:##&%&%$&:,,=%%+$$#OO@&#@##=&%,5<788888888888888",
"8888888888888877>%##$%*&#&*&$%%$%&*#++&$&%$&=:432788888888888888",
"88888888888888773:,+@$*%:=*#OooooO%*$#%&==*=%:<36788888888888888",
"888888888888888763:@+&*&<*+oXXO##*%=##%*:*&@&=327888888888888888",
"8888888888888887524:@%%=*Oooo+@@&=:%@#&:&%$$%<277888788888888888",
"88888888888888887632%+#&%%#@##O++%**%#*&%$&:*>778888888888888888",
"8888888888888888877:%#@#%:&$$$+OOO&%&%%&&*=,<1788888888888888888",
"88888888888888888877:$**&#@&@%&$+O@=$#:*5:<217888888888888888888",
"888888888888888888887<2>*+@#%#$%=@O@%%>:,<,178888888888888888888",
"88888888888888888888772>:*##@@@++=$@@$:,<<7788888888888888888888",
"8888888888888888888888772<,>*&%%$&4>>:2=677888888888888888888888",
"88888888888888888888888677223332>,5<<217788888888888888888888888",
"888888888888888888888888877763<2<3367777888888888888888888888888",
"8888888888888888888888888887777777777888888888888888888888888888",
"8888888888888888888888888888888888888888888888888888888888888888",
"8888888888888888888888888888888888888888888888888888888888888888",
"8888888888888888888888888888888888888888888888888888888888888888",
"8888888888888888888888888888888888888888888888888888888888888888",
"8888888888888888888888888888888888888888888888888888888888888888",
"8888888888888888888888888888888888888888888888888888888888888888",
"8888888888888888888888888888888888888888888888888888888888888888",
"8888888888888888888888888888888888888888888888888888888888888888",
"8888888888888888888888888888888888888888888888888888888888888888",
"8888888888888888888888888888888888888888888888888888888888888888",
"8888888888888888888888888888888888888888888888888888888888888888",
"8888888888888888888888888888888888888888888888888888888888888888",
"8888888888888888888888888888888888888888888888888888888888888888"
};
