/* XPM */
static char *result[] = {
/* columns rows colors chars-per-pixel */
"64 64 35 1 ",
"  c #060000",
". c #100000",
"X c #180000",
"o c #200000",
"O c #290000",
"+ c #320000",
"@ c #3B0000",
"# c #450000",
"$ c #4E0000",
"% c #580000",
"& c #620000",
"* c #6C0000",
"= c #770000",
"- c #810000",
"; c #820000",
": c #8A0000",
"> c #940000",
", c #9E0000",
"< c #A80000",
"1 c #B10000",
"2 c #BA0000",
"3 c #BD0000",
"4 c #C20000",
"5 c #C30000",
"6 c #CB0000",
"7 c #D30000",
"8 c #DB0000",
"9 c #DD0000",
"0 c #E50000",
"q c #EC0000",
"w c #F40000",
"e c #FD0000",
"r c #FE0000",
"t c red",
"y c None",
/* pixels */
"yyyyyyyyyyyyyyyyyyyyyyyyyyyyyyyyyyyyyyyyyyyyyyyyyyyyyyyyyyyyyyyy",
"yyyyyyyyyyyyyyyyyyyyyyyyyyyyyyyyyyyyyyyyyyyyyyyyyyyyyyyyyyyyyyyy",
"yyyyyyyyyyyyyyyyyyyyyyyyyyyyyyyyyyyyyyyyyyyyyyyyyyyyyyyyyyyyyyyy",
"yyyyyyyyyyyyyyyyyyyyyyyyyyyyyyyyyyyyyyyyyyyyyyyyyyyyyyyyyyyyyyyy",
"yyyyyyyyyyyyyyyyyyyyyyyyyyyyyyyyyyyyyyyyyyyyyyyyyyyyyyyyyyyyyyyy",
"yyyyyyyyyyyyyyyyyyyyyyyyyyyyyyyyyyyyyyyyyyyyyyyyyyyyyyyyyyyyyyyy",
"yyyyyyyyyyyyyyyyyyyyyyyyyyyyyyyyyyyyyyyyyyyyyyyyyyyyyyyyyyyyyyyy",
"yyyyyyyyyyyyyyyyyyyyyyyyyyyyyyyyyyyyyyyyyyyyyyyyyyyyyyyyyyyyyyyy",
"yyyyyyyyyyyyyyyyyyyyyyyyyyyyyyyyyyyyyyyyyyyyyyyyyyyyyyyyyyyyyyyy",
"yyyyyyyyyyyyyyyyyyyyyyyyyytyyyyyyyyyyyyyyyyyyyyyyyyyyyyyyyyyyyyy",
"yyyyyyyyyyyyyyyyyyyyyyyyyyyyyyyyyyyyyyyyyyyyyyyyyyyyyyyyyyyyyyyy",
"yyyyyyyyyyyyyyyyyyyyyyyyyyyyyyyyyyyyyyyyyyyyyyyyyyyyyyyyyyyyyyyy",
"yyyyyyyyyyyyyyyyyyyyyyyyyyyyyyyyyyyyyyyyyyyyyyyyyyyyyyyyyyyyyyyy",
"yyyyyyyyyyyyyyyyyyyyyyyyyyyttttttttyyyyyyyyyyyyyyyyyyyyyyyyyyyyy",
"yyyyyyyyyyyyyyyyyyyyyyyytttrrrrrrrttttttyyyyyyyyyyyyyyyyyyyyyyyy",
"yyyyyyyyyyyyyyyyyyyyyyttreeqq66157<<69ttttyyyyyyyyyyyyyyyyyyyyyy",
"yyyyyyyyyyyyyyyyyyyyttrew857002::<>=>-28rttyyyyyyyyyyyyyyyyyyyyy",
"yyyyyyyyyyyyyyyyyyyteee05<::**=%%&&&&&>180tttyyyyyyyyyyyyyyyyyyy",
"yyyyyyyyyyyyyyyyyyyteq6,-&%%&%$*&$#@##%>656rrtyyyyyyyyyyyyyyyyyy",
"yyyyyyyyyyyyyyyyyttrq5>-$$$&-##**$#=>&%&:<5eeryyyyyyyyyyyyyyyyyy",
"yyyyyyyyyyyyyyyyytr6q8:&@@*##@@@o@@#**>&&-1qqttyyyyyyyyyyyyyyyyy",
"yyyyyyyyyyyyyyyytrq76<=#@O@$@Ooo++#@#$-%%&-86,tyyyyyyyyyyyyyyyyy",
"yyyyyyyyyyyyyyyyt050<%&&$OO@+OOO@O##$$+O@#&<1:,ttyyyyyyyyyyyyyyy",
"yyyyyyyyyyyyyyyyy;-=&$*&&#+Ooo+@#o+o$%*%&%&:--,wtyyyyyyyyyyyyyyy",
"yyyyyyyyyyyyyyyt4:=#$%&+%=##+o+@++o+$=-&%=%:=*80rtyyyyyyyyyyyyyy",
"yyyyyyyyyyyyyytt67%@$$##%&$@@+O@@@$Xo=*&$$&-*%88rtyyyyyyyyyyyyyy",
"yyyyyyyyyyyyyttw6:#O+##&*%@#O+X$#@XX##o#$@$:%=<56tyyyyyyyyyyyyyy",
"yyyyyyyyyyyyytrw8:#%$#$&%&O@OOo@ooXX+O.O##+@$:-1>tyyyyyyyyyyyyyy",
"yyyyyyyyyyyyytr05<$%$$%%$#$*$OOOOooo.O+O+@@@$:=,>ttyyyyyyyyyyyyy",
"yyyyyyyyyyyyytr7e:=%%%$#+#+@=@oO+OoOo.o#XXX@*-:<19tyyyyyyyyyyyyy",
"yyyyyyyyyyyyytt-<=:&$#@@$$@@#%O+o#+O@OXooX@+@$%-50tyyyyyyyyyyyyy",
"yyyyyyyyyyyyytt*&-*$@#$%$#@#+&@O+#$#@+o #@  O@@%,0tyyyyyyyyyyyyy",
"yyyyyyyyyyyyytt=$&&$$$##@+$*##%+O+@@OX.X&+ X&%@$,6tyyyyyyyyyyyyy",
"yyyyyyyyyyyyytt:%$=$$##OOO#*=&*#@@+XX.X@&o .@*%*10tyyyyyyyyyyyyy",
"yyyyyyyyyyyyytt-%#=@OOOOOO@&-=&%#++@##@%$.  o,,,7etyyyyyyyyyyyyy",
"yyyyyyyyyyyyytt=%%:#oX...o@&&@%#$#%&%$*&+.   o%27rtyyyyyyyyyyyyy",
"yyyyyyyyyyyyyyt:&*=$&@+OoX@#**&#@.XX+&%OX. .  $76ttyyyyyyyyyyyyy",
"yyyyyyyyyyyyyyy4=-*@#+O+@#&==%%*&$oo@@o....#. *w0tyyyyyyyyyyyyyy",
"yyyyyyyyyyyyyyyt*=-$@##O+@$&$*$O@-#OO@@++$@+..=wqtyyyyyyyyyyyyyy",
"yyyyyyyyyyyyyyyt,w*%#@##$$**==*$*%*+O@###$&$+%67tyyyyyyyyyyyyyyy",
"yyyyyyyyyyyyyyytt-%@$$#%%&%@&&==&=&&OO@##$&>:8qqtyyyyyyyyyyyyyyy",
"yyyyyyyyyyyyyyyyt3&@+$$*@@@@%$+O#**&&@#@@#&>800rtyyyyyyyyyyyyyyy",
"yyyyyyyyyyyyyyyytt;%#@%*$$%*&XXo+#&*=%$+@#%<q1rtyyyyyyyyyyyyyyyy",
"yyyyyyyyyyyyyyyyyyt=*&==q==&$X++@@-=:*###$:0qqtyyyyyyyyyyyyyyyyy",
"yyyyyyyyyyyyyyyyyyy9<5<:---%$o@*&@@=&*+@&<68qtyyyyyyyyyyyyyyyyyy",
"yyyyyyyyyyyyyyyyyyytw0q6,==&#++#+OO+#%$$:558ttyyyyyyyyyyyyyyyyyy",
"yyyyyyyyyyyyyyyyyyyttr8861>&$$+O@oo+$=56,<9tyyyyyyyyyyyyyyyyyyyy",
"yyyyyyyyyyyyyyyyyyyyyttw852::-&&&&*>,2,,0tyyyyyyyyyyyyyyyyyyyyyy",
"yyyyyyyyyyyyyyyyyyyyyytttr815>=-<52<7q0ttyyyyyyyyyyyyyyyyyyyyyyy",
"yyyyyyyyyyyyyyyyyyyyyyyyytttt943509trrtyyyyyyyyyyyyyyyyyyyyyyyyy",
"yyyyyyyyyyyyyyyyyyyyyyyyyyyytyyttttttyyyyyyyyyyyyyyyyyyyyyyyyyyy",
"yyyyyyyyyyyyyyyyyyyyyyyyyyyyyyyyyyyyyyyyyyyyyyyyyyyyyyyyyyyyyyyy",
"yyyyyyyyyyyyyyyyyyyyyyyyyyyyyyyyyyyyyyyyyyyyyyyyyyyyyyyyyyyyyyyy",
"yyyyyyyyyyyyyyyyyyyyyyyyyyyyyyyyyyyyyyyyyyyyyyyyyyyyyyyyyyyyyyyy",
"yyyyyyyyyyyyyyyyyyyyyyyyyyyyyyyyyyyyyyyyyyyyyyyyyyyyyyyyyyyyyyyy",
"yyyyyyyyyyyyyyyyyyyyyyyyyyyyyyyyyyyyyyyyyyyyyyyyyyyyyyyyyyyyyyyy",
"yyyyyyyyyyyyyyyyyyyyyyyyyyyyyyyyyyyyyyyyyyyyyyyyyyyyyyyyyyyyyyyy",
"yyyyyyyyyyyyyyyyyyyyyyyyyyyyyyyyyyyyyyyyyyyyyyyyyyyyyyyyyyyyyyyy",
"yyyyyyyyyyyyyyyyyyyyyyyyyyyyyyyyyyyyyyyyyyyyyyyyyyyyyyyyyyyyyyyy",
"yyyyyyyyyyyyyyyyyyyyyyyyyyyyyyyyyyyyyyyyyyyyyyyyyyyyyyyyyyyyyyyy",
"yyyyyyyyyyyyyyyyyyyyyyyyyyyyyyyyyyyyyyyyyyyyyyyyyyyyyyyyyyyyyyyy",
"yyyyyyyyyyyyyyyyyyyyyyyyyyyyyyyyyyyyyyyyyyyyyyyyyyyyyyyyyyyyyyyy",
"yyyyyyyyyyyyyyyyyyyyyyyyyyyyyyyyyyyyyyyyyyyyyyyyyyyyyyyyyyyyyyyy",
"yyyyyyyyyyyyyyyyyyyyyyyyyyyyyyyyyyyyyyyyyyyyyyyyyyyyyyyyyyyyyyyy"
};
