/* XPM */
static char *result[] = {
/* columns rows colors chars-per-pixel */
"64 64 29 1 ",
"  c #290000",
". c #320000",
"X c #3B0000",
"o c #450000",
"O c #4E0000",
"+ c #580000",
"@ c #620000",
"# c #6C0000",
"$ c #770000",
"% c #810000",
"& c #8A0000",
"* c #940000",
"= c #9E0000",
"- c #A80000",
"; c #B10000",
": c #BA0000",
"> c #BD0000",
", c #C30000",
"< c #CB0000",
"1 c #D30000",
"2 c #DB0000",
"3 c #DD0000",
"4 c #E50000",
"5 c #EC0000",
"6 c #F40000",
"7 c #FD0000",
"8 c #FE0000",
"9 c red",
"0 c None",
/* pixels */
"0000000000000000000000000000000000000000000000000000000000000000",
"0000000000000000000000000000000000000000000000000000000000000000",
"0000000000000000000000000000000000000000000000000000000000000000",
"0000000000000000000000000000000000000000000000000000000000000000",
"0000000000000000000000000000000000000000000000000000000000000000",
"0000000000000000000000000000000000000000000000000000000000000000",
"0000000000000000000000000000000000000000000000000000000000000000",
"0000000000000000000000000000000000000000000000000000000000000000",
"0000000000000000000000000000000000000000000000000000000000000000",
"0000000000000000000000000000000000000000000000000000000000000000",
"0000000000000000000000000000000000000000000000000000000000000000",
"0000000000000000000000900000000000000000000000000000000000000000",
"0000000000000000000000000000000000000000000000000000000000000000",
"0000000000000000000000000000009999990000000000000000000000000000",
"0000000000000000000000000099999887889990000000000000000000000000",
"0000000000000000000000099993>-=%#+%;1899000000000000000000000000",
"0000000000000000000009984;*-*;:-$$-=*;,3999900900000000000000000",
"00000000000000000009984$@-,,,475564<<<<*=39990000000000000000000",
"0000000000000000000981XO@:5665566667675<,*%790000000000000000000",
"00000000000000000099<$*$<:65776756476767<oO%89000000000000000000",
"0000000000000000098;$$215457675425476566-<-=;9900000000000000000",
"0000000000000000992&;;,<:46675121251626<42,4=;990000000000000000",
"000000000000000099-1475<2:5762121441<1<,444<*$,99000000000000000",
"00000000000000099,15576714642111252,14425541:%+28000000000000000",
"00000000000000093-,577666776211462,;<52645544:+@8900000000000000",
"0000000000000099==476675472<5524<<=12,4254565:##4900000000000000",
"00000000000000982<7764:;4655467,4:46:45425444,$O=900000000000000",
"000000000000098*#1545,,:;44615162675<76645555,-++890000000000000",
"000000000000098$$,452<424,,26525441:27456441<-=@.590000000000000",
"000000000000009*;56567<51::477764155557452;<255;@290000000000000",
"000000000000009;<544526742476554412426774525574;&190000000000000",
"000000000000098%=,,1:,666576576254<4546661<<156<$<90000000000000",
"000000000000094X+1776:1165567766511127767<<<1465-,90000000000000",
"000000000000098#;576445144456675766667554<<<1146;390000000000000",
"000000000000099+-65746441<4566765776676456222126;390000000000000",
"000000000000098%*<624546<14577675766766<27775654<890000000000000",
"000000000000098%$=24445414777676777674144456112:=990000000000000",
"0000000000000981@$-<7<<727666665566542<41,<:;;=*;990000000000000",
"0000000000000096O+*-<,1747575556577722<641222:#$3900000000000000",
"0000000000000098&+=:::,7576776556577,,544554<-#$9900000000000000",
"00000000000000094+-:12,5577777667677644,462<,=@;9000000000000000",
"00000000000000098,#$-21257777765677612,24211-$&89900000000000000",
"000000000000000998$@%1526677676651544,<571,:$@890000000000000000",
"0000000000000000098$@152567765464<,421<57<=$@1900000000000000000",
"00000000000000000994;*=44564565655456545,%@+-9900000000000000000",
"000000000000000000095%$,<652<,1451755,,-%& :99000000000000000000",
"0000000000000000000098<=*55:,,,<,242,&#+O#1990000000000000000000",
"000000000000000000000994;=&&&*==*;%*@#XO;89900000000000000000000",
"00000000000000000000009992=@+@@##*$#%;,8990080000000000000000000",
"00000000000000000000000099988<;-,,389999000000000000000000000000",
"0000000000000000000000000000999999990000000000000000000000000000",
"0000000000000000000000000000000000000000000000000000000000000000",
"0000000000000000000000000000000000000000000000000000000000000000",
"0000000000000000000000000000000000000000000000000000000000000000",
"0000000000000000000000000000000000000000000000000000000000000000",
"0000000000000000000000000000000000000000000000000000000000000000",
"0000000000000000000000000000000000000000000000000000000000000000",
"0000000000000000000000000000000000000000000000000000000000000000",
"0000000000000000000000000000000000000000000000000000000000000000",
"0000000000000000000000000000000000000000000000000000000000000000",
"0000000000000000000000000000000000000000000000000000000000000000",
"0000000000000000000000000000000000000000000000000000000000000000",
"0000000000000000000000000000000000000000000000000000000000000000",
"0000000000000000000000000000000000000000000000000000000000000000"
};
